<?xml version="1.0" encoding="UTF-8" standalone="no"?>
<!DOCTYPE svg PUBLIC "-//W3C//DTD SVG 1.1//EN"
 "http://www.w3.org/Graphics/SVG/1.1/DTD/svg11.dtd">
<!-- Generated by graphviz version 13.1.2 (20250809.0930)
 -->
<!-- Title: expect Pages: 1 -->
<svg width="2386pt" height="1000pt"
 viewBox="0.00 0.00 2386.00 1000.00" xmlns="http://www.w3.org/2000/svg" xmlns:xlink="http://www.w3.org/1999/xlink">
<g id="graph0" class="graph" transform="scale(1 1) rotate(0) translate(4 995.5)">
<title>expect</title>
<polygon fill="white" stroke="none" points="-4,4 -4,-995.5 2381.64,-995.5 2381.64,4 -4,4"/>
<!-- 107374182410 -->
<g id="node1" class="node">
<title>107374182410</title>
<polygon fill="none" stroke="black" points="969.75,-991.5 886.25,-991.5 886.25,-952 969.75,-952 969.75,-991.5"/>
<text xml:space="preserve" text-anchor="start" x="894.25" y="-974.2" font-family="Times,serif" font-size="14.00">METHOD, 50</text>
<text xml:space="preserve" text-anchor="start" x="907.75" y="-958.45" font-family="Times,serif" font-size="14.00">expect</text>
</g>
<!-- 111669149714 -->
<g id="node3" class="node">
<title>111669149714</title>
<polygon fill="none" stroke="black" points="507.38,-892.38 430.62,-892.38 430.62,-852.88 507.38,-852.88 507.38,-892.38"/>
<text xml:space="preserve" text-anchor="start" x="438.62" y="-875.08" font-family="Times,serif" font-size="14.00">PARAM, 50</text>
<text xml:space="preserve" text-anchor="start" x="455.5" y="-859.33" font-family="Times,serif" font-size="14.00">self</text>
</g>
<!-- 107374182410&#45;&gt;111669149714 -->
<g id="edge16" class="edge">
<title>107374182410&#45;&gt;111669149714</title>
<path fill="none" stroke="black" d="M885.75,-969.89C781.43,-967.41 517.81,-958.72 487.25,-934 478.21,-926.69 473.53,-915.06 471.15,-903.96"/>
<polygon fill="black" stroke="black" points="474.64,-903.61 469.65,-894.27 467.72,-904.69 474.64,-903.61"/>
<text xml:space="preserve" text-anchor="middle" x="504.12" y="-920.7" font-family="Times,serif" font-size="14.00">DDG: </text>
</g>
<!-- 111669149715 -->
<g id="node4" class="node">
<title>111669149715</title>
<polygon fill="none" stroke="black" points="1134.38,-827 1057.62,-827 1057.62,-787.5 1134.38,-787.5 1134.38,-827"/>
<text xml:space="preserve" text-anchor="start" x="1065.62" y="-809.7" font-family="Times,serif" font-size="14.00">PARAM, 50</text>
<text xml:space="preserve" text-anchor="start" x="1089.25" y="-793.95" font-family="Times,serif" font-size="14.00">ch</text>
</g>
<!-- 107374182410&#45;&gt;111669149715 -->
<g id="edge17" class="edge">
<title>107374182410&#45;&gt;111669149715</title>
<path fill="none" stroke="black" d="M970.05,-963.28C990.34,-957.93 1013.92,-948.93 1031,-934 1060.28,-908.42 1078.19,-866.43 1087.61,-838.08"/>
<polygon fill="black" stroke="black" points="1090.91,-839.25 1090.57,-828.67 1084.23,-837.16 1090.91,-839.25"/>
<text xml:space="preserve" text-anchor="middle" x="1062.97" y="-920.7" font-family="Times,serif" font-size="14.00">DDG: </text>
</g>
<!-- 30064771138 -->
<g id="node6" class="node">
<title>30064771138</title>
<polygon fill="none" stroke="black" points="381.25,-130.75 270.75,-130.75 270.75,-91.25 381.25,-91.25 381.25,-130.75"/>
<text xml:space="preserve" text-anchor="start" x="288.88" y="-113.45" font-family="Times,serif" font-size="14.00">advance, 56</text>
<text xml:space="preserve" text-anchor="start" x="278.75" y="-97.7" font-family="Times,serif" font-size="14.00">self.advance()</text>
</g>
<!-- 107374182410&#45;&gt;30064771138 -->
<g id="edge21" class="edge">
<title>107374182410&#45;&gt;30064771138</title>
<path fill="none" stroke="black" d="M885.94,-969.23C784.56,-964.42 535,-945.31 535,-873.62 535,-873.62 535,-873.62 535,-611.88 535,-540.54 448,-548.33 448,-477 448,-477 448,-477 448,-201.25 448,-169.44 420.65,-147.75 391.85,-133.72"/>
<polygon fill="black" stroke="black" points="393.57,-130.66 383.02,-129.7 390.67,-137.03 393.57,-130.66"/>
<text xml:space="preserve" text-anchor="middle" x="488.54" y="-516.2" font-family="Times,serif" font-size="14.00">DDG: </text>
</g>
<!-- 30064771129 -->
<g id="node7" class="node">
<title>30064771129</title>
<polygon fill="none" stroke="black" points="1231,-587 1053,-587 1053,-547.5 1231,-547.5 1231,-587"/>
<text xml:space="preserve" text-anchor="start" x="1061" y="-569.7" font-family="Times,serif" font-size="14.00">&lt;operator&gt;.notEquals, 52</text>
<text xml:space="preserve" text-anchor="start" x="1101.5" y="-553.95" font-family="Times,serif" font-size="14.00">actual != ch</text>
</g>
<!-- 107374182410&#45;&gt;30064771129 -->
<g id="edge25" class="edge">
<title>107374182410&#45;&gt;30064771129</title>
<path fill="none" stroke="black" d="M962.16,-951.55C987.25,-934.65 1017,-907.47 1017,-873.62 1017,-873.62 1017,-873.62 1017,-657.5 1017,-627.22 1041.59,-606.24 1068.96,-592.27"/>
<polygon fill="black" stroke="black" points="1070.24,-595.54 1077.77,-588.09 1067.23,-589.22 1070.24,-595.54"/>
<text xml:space="preserve" text-anchor="middle" x="1033.88" y="-744.33" font-family="Times,serif" font-size="14.00">DDG: </text>
</g>
<!-- 30064771127 -->
<g id="node8" class="node">
<title>30064771127</title>
<polygon fill="none" stroke="black" points="424.12,-769.5 333.88,-769.5 333.88,-730 424.12,-730 424.12,-769.5"/>
<text xml:space="preserve" text-anchor="start" x="352" y="-752.2" font-family="Times,serif" font-size="14.00">peek, 51</text>
<text xml:space="preserve" text-anchor="start" x="341.88" y="-736.45" font-family="Times,serif" font-size="14.00">self.peek()</text>
</g>
<!-- 107374182410&#45;&gt;30064771127 -->
<g id="edge23" class="edge">
<title>107374182410&#45;&gt;30064771127</title>
<path fill="none" stroke="black" d="M885.85,-971.57C804.61,-972.22 621.19,-969.21 472,-934 432.94,-924.78 411.72,-932.8 388.25,-900.25 363.19,-865.5 366.56,-813.55 372.14,-780.94"/>
<polygon fill="black" stroke="black" points="375.53,-781.83 373.96,-771.35 368.65,-780.52 375.53,-781.83"/>
<text xml:space="preserve" text-anchor="middle" x="405.12" y="-867.2" font-family="Times,serif" font-size="14.00">DDG: </text>
</g>
<!-- 68719476798 -->
<g id="node10" class="node">
<title>68719476798</title>
<polygon fill="none" stroke="black" points="2325.75,-900.25 1972.25,-900.25 1972.25,-845 2325.75,-845 2325.75,-900.25"/>
<text xml:space="preserve" text-anchor="start" x="2101.75" y="-882.95" font-family="Times,serif" font-size="14.00">IDENTIFIER, 53</text>
<text xml:space="preserve" text-anchor="start" x="2101.75" y="-867.2" font-family="Times,serif" font-size="14.00">JSONParseError</text>
<text xml:space="preserve" text-anchor="start" x="1980.25" y="-851.45" font-family="Times,serif" font-size="14.00">JSONParseError(f&quot;Expected &#39;{ch}&#39; but got {repr(...</text>
</g>
<!-- 107374182410&#45;&gt;68719476798 -->
<g id="edge31" class="edge">
<title>107374182410&#45;&gt;68719476798</title>
<path fill="none" stroke="black" d="M970.13,-970.7C1143.65,-970.3 1797.89,-966.62 1884,-934 1894.34,-930.08 1893.21,-922.89 1903.25,-918.25 1915.51,-912.59 1936.35,-907.04 1960.87,-901.88"/>
<polygon fill="black" stroke="black" points="1961.4,-905.35 1970.5,-899.92 1960,-898.49 1961.4,-905.35"/>
<text xml:space="preserve" text-anchor="middle" x="1920.12" y="-920.7" font-family="Times,serif" font-size="14.00">DDG: </text>
</g>
<!-- 30064771133 -->
<g id="node12" class="node">
<title>30064771133</title>
<polygon fill="none" stroke="black" points="1170.38,-313.25 877.62,-313.25 877.62,-273.75 1170.38,-273.75 1170.38,-313.25"/>
<text xml:space="preserve" text-anchor="start" x="932.88" y="-295.95" font-family="Times,serif" font-size="14.00">&lt;operator&gt;.formatString, 54</text>
<text xml:space="preserve" text-anchor="start" x="885.62" y="-280.2" font-family="Times,serif" font-size="14.00">f&quot;Expected &#39;{ch}&#39; but got {repr(actual)}&quot;</text>
</g>
<!-- 107374182410&#45;&gt;30064771133 -->
<g id="edge37" class="edge">
<title>107374182410&#45;&gt;30064771133</title>
<path fill="none" stroke="black" d="M886.22,-968.3C828.39,-962.4 731,-942.26 731,-873.62 731,-873.62 731,-873.62 731,-383.75 731,-351.45 797,-329.7 866.35,-315.77"/>
<polygon fill="black" stroke="black" points="866.87,-319.24 876.01,-313.89 865.53,-312.36 866.87,-319.24"/>
<text xml:space="preserve" text-anchor="middle" x="747.88" y="-607.45" font-family="Times,serif" font-size="14.00">DDG: </text>
</g>
<!-- 30064771130 -->
<g id="node13" class="node">
<title>30064771130</title>
<polygon fill="none" stroke="black" points="1135.88,-495.75 924.12,-495.75 924.12,-456.25 1135.88,-456.25 1135.88,-495.75"/>
<text xml:space="preserve" text-anchor="start" x="932.12" y="-478.45" font-family="Times,serif" font-size="14.00">&lt;operator&gt;.formattedValue, 54</text>
<text xml:space="preserve" text-anchor="start" x="1016.5" y="-462.7" font-family="Times,serif" font-size="14.00">{ch}</text>
</g>
<!-- 107374182410&#45;&gt;30064771130 -->
<g id="edge41" class="edge">
<title>107374182410&#45;&gt;30064771130</title>
<path fill="none" stroke="black" d="M911.02,-951.82C896.18,-933.28 877,-903.53 877,-873.62 877,-873.62 877,-873.62 877,-566.25 877,-534.62 901.71,-513.99 931.26,-500.64"/>
<polygon fill="black" stroke="black" points="932.6,-503.87 940.49,-496.8 929.91,-497.41 932.6,-503.87"/>
<text xml:space="preserve" text-anchor="middle" x="893.88" y="-698.7" font-family="Times,serif" font-size="14.00">DDG: </text>
</g>
<!-- 68719476796 -->
<g id="node15" class="node">
<title>68719476796</title>
<polygon fill="none" stroke="black" points="1954.25,-900.25 1843.75,-900.25 1843.75,-845 1954.25,-845 1954.25,-900.25"/>
<text xml:space="preserve" text-anchor="start" x="1851.75" y="-882.95" font-family="Times,serif" font-size="14.00">IDENTIFIER, 54</text>
<text xml:space="preserve" text-anchor="start" x="1885.5" y="-867.2" font-family="Times,serif" font-size="14.00">repr</text>
<text xml:space="preserve" text-anchor="start" x="1858.5" y="-851.45" font-family="Times,serif" font-size="14.00">repr(actual)</text>
</g>
<!-- 107374182410&#45;&gt;68719476796 -->
<g id="edge44" class="edge">
<title>107374182410&#45;&gt;68719476796</title>
<path fill="none" stroke="black" d="M970.15,-970.62C1137.08,-969.89 1746.65,-965.1 1827,-934 1831.23,-932.36 1845.36,-920.76 1860,-908.16"/>
<polygon fill="black" stroke="black" points="1862.21,-910.88 1867.47,-901.68 1857.62,-905.59 1862.21,-910.88"/>
<text xml:space="preserve" text-anchor="middle" x="1863.72" y="-920.7" font-family="Times,serif" font-size="14.00">DDG: </text>
</g>
<!-- 30064771131 -->
<g id="node16" class="node">
<title>30064771131</title>
<polygon fill="none" stroke="black" points="1737.5,-495.75 1640.5,-495.75 1640.5,-456.25 1737.5,-456.25 1737.5,-495.75"/>
<text xml:space="preserve" text-anchor="start" x="1662" y="-478.45" font-family="Times,serif" font-size="14.00">repr, 54</text>
<text xml:space="preserve" text-anchor="start" x="1648.5" y="-462.7" font-family="Times,serif" font-size="14.00">repr(actual)</text>
</g>
<!-- 107374182410&#45;&gt;30064771131 -->
<g id="edge46" class="edge">
<title>107374182410&#45;&gt;30064771131</title>
<path fill="none" stroke="black" d="M970.23,-970.62C1146.71,-969.55 1816,-959.79 1816,-873.62 1816,-873.62 1816,-873.62 1816,-566.25 1816,-530.26 1781.44,-507.53 1748.37,-494.02"/>
<polygon fill="black" stroke="black" points="1749.74,-490.8 1739.15,-490.5 1747.24,-497.34 1749.74,-490.8"/>
<text xml:space="preserve" text-anchor="middle" x="1832.88" y="-698.7" font-family="Times,serif" font-size="14.00">DDG: </text>
</g>
<!-- 124554051594 -->
<g id="node2" class="node">
<title>124554051594</title>
<polygon fill="none" stroke="black" points="1540.38,-39.5 1409.62,-39.5 1409.62,0 1540.38,0 1540.38,-39.5"/>
<text xml:space="preserve" text-anchor="start" x="1417.62" y="-22.2" font-family="Times,serif" font-size="14.00">METHOD_RETURN, 50</text>
<text xml:space="preserve" text-anchor="start" x="1464.88" y="-6.45" font-family="Times,serif" font-size="14.00">ANY</text>
</g>
<!-- 111669149714&#45;&gt;30064771127 -->
<g id="edge22" class="edge">
<title>111669149714&#45;&gt;30064771127</title>
<path fill="none" stroke="black" d="M454.74,-852.47C439.99,-832.67 416.81,-801.53 399.98,-778.92"/>
<polygon fill="black" stroke="black" points="402.88,-776.96 394.1,-771.03 397.26,-781.14 402.88,-776.96"/>
<text xml:space="preserve" text-anchor="middle" x="465.08" y="-801.83" font-family="Times,serif" font-size="14.00">DDG: self</text>
</g>
<!-- 111669149715&#45;&gt;30064771129 -->
<g id="edge26" class="edge">
<title>111669149715&#45;&gt;30064771129</title>
<path fill="none" stroke="black" d="M1099.69,-787.18C1107.64,-746.01 1126.48,-648.53 1136.11,-598.71"/>
<polygon fill="black" stroke="black" points="1139.55,-599.38 1138.01,-588.9 1132.67,-598.06 1139.55,-599.38"/>
<text xml:space="preserve" text-anchor="middle" x="1140.75" y="-698.7" font-family="Times,serif" font-size="14.00">DDG: ch</text>
</g>
<!-- 30064771128 -->
<g id="node5" class="node">
<title>30064771128</title>
<polygon fill="none" stroke="black" points="280.38,-678.25 95.62,-678.25 95.62,-638.75 280.38,-638.75 280.38,-678.25"/>
<text xml:space="preserve" text-anchor="start" x="103.62" y="-660.95" font-family="Times,serif" font-size="14.00">&lt;operator&gt;.assignment, 51</text>
<text xml:space="preserve" text-anchor="start" x="120.5" y="-645.2" font-family="Times,serif" font-size="14.00">actual = self.peek()</text>
</g>
<!-- 30064771128&#45;&gt;124554051594 -->
<g id="edge1" class="edge">
<title>30064771128&#45;&gt;124554051594</title>
<path fill="none" stroke="black" d="M95.38,-647.87C47.92,-637.24 0,-614.95 0,-568.25 0,-568.25 0,-568.25 0,-110 0,-53 61.43,-70.18 117,-57.5 241.67,-29.04 1129.81,-22.43 1398.31,-21.07"/>
<polygon fill="black" stroke="black" points="1397.99,-24.57 1407.98,-21.02 1397.96,-17.57 1397.99,-24.57"/>
<text xml:space="preserve" text-anchor="middle" x="54" y="-333.7" font-family="Times,serif" font-size="14.00">DDG: self.peek()</text>
</g>
<!-- 30064771128&#45;&gt;124554051594 -->
<g id="edge2" class="edge">
<title>30064771128&#45;&gt;124554051594</title>
<path fill="none" stroke="black" d="M166.78,-638.45C150.57,-621.73 131,-595.83 131,-568.25 131,-568.25 131,-568.25 131,-110 131,-84.7 132.13,-71.8 153,-57.5 204.49,-22.21 1122.76,-20.36 1397.79,-20.6"/>
<polygon fill="black" stroke="black" points="1397.72,-24.1 1407.73,-20.61 1397.73,-17.1 1397.72,-24.1"/>
<text xml:space="preserve" text-anchor="middle" x="215.38" y="-333.7" font-family="Times,serif" font-size="14.00">DDG: actual = self.peek()</text>
</g>
<!-- 30064771128&#45;&gt;30064771129 -->
<g id="edge24" class="edge">
<title>30064771128&#45;&gt;30064771129</title>
<path fill="none" stroke="black" d="M280.77,-653.75C395.1,-648.64 595.19,-638.08 766,-620.75 859.75,-611.24 966.06,-595.98 1041.66,-584.35"/>
<polygon fill="black" stroke="black" points="1041.74,-587.88 1051.09,-582.9 1040.67,-580.96 1041.74,-587.88"/>
<text xml:space="preserve" text-anchor="middle" x="927.51" y="-607.45" font-family="Times,serif" font-size="14.00">DDG: actual</text>
</g>
<!-- 30064771138&#45;&gt;124554051594 -->
<g id="edge14" class="edge">
<title>30064771138&#45;&gt;124554051594</title>
<path fill="none" stroke="black" d="M270.41,-108.22C211.32,-104.49 130.76,-92.97 165.25,-57.5 186.85,-35.28 1121.26,-24.26 1398.34,-21.47"/>
<polygon fill="black" stroke="black" points="1398,-24.97 1407.96,-21.37 1397.93,-17.97 1398,-24.97"/>
<text xml:space="preserve" text-anchor="middle" x="195.62" y="-59.95" font-family="Times,serif" font-size="14.00">DDG: self</text>
</g>
<!-- 30064771138&#45;&gt;124554051594 -->
<g id="edge15" class="edge">
<title>30064771138&#45;&gt;124554051594</title>
<path fill="none" stroke="black" d="M270.46,-92.3C250.41,-83.15 235.59,-71.06 248.75,-57.5 268.82,-36.82 1132.22,-24.83 1397.97,-21.63"/>
<polygon fill="black" stroke="black" points="1397.96,-25.13 1407.91,-21.51 1397.87,-18.13 1397.96,-25.13"/>
<text xml:space="preserve" text-anchor="middle" x="312.88" y="-59.95" font-family="Times,serif" font-size="14.00">DDG: self.advance()</text>
</g>
<!-- 30064771129&#45;&gt;124554051594 -->
<g id="edge3" class="edge">
<title>30064771129&#45;&gt;124554051594</title>
<path fill="none" stroke="black" d="M1164.62,-547.29C1180.62,-533.53 1202.29,-514.17 1220,-495.75 1235.86,-479.26 1233.67,-468.49 1253,-456.25 1330.2,-407.35 1376.93,-456.61 1452,-404.5 1452.16,-404.39 1579.94,-222.18 1580,-222 1602.29,-151.42 1601.57,-114.21 1554,-57.5 1550.48,-53.3 1546.37,-49.56 1541.92,-46.22"/>
<polygon fill="black" stroke="black" points="1543.9,-43.34 1533.62,-40.76 1540.05,-49.18 1543.9,-43.34"/>
<text xml:space="preserve" text-anchor="middle" x="1580.72" y="-288.07" font-family="Times,serif" font-size="14.00">DDG: actual</text>
</g>
<!-- 30064771129&#45;&gt;124554051594 -->
<g id="edge4" class="edge">
<title>30064771129&#45;&gt;124554051594</title>
<path fill="none" stroke="black" d="M1231.33,-567.08C1389.87,-567.64 1707.2,-564.33 1743,-529.5 1766.36,-506.78 1747.95,-488.77 1746,-456.25 1740.43,-363.58 1721,-341.71 1721,-248.88 1721,-248.88 1721,-248.88 1721,-110 1721,-73.43 1623.72,-47.56 1551.51,-33.39"/>
<polygon fill="black" stroke="black" points="1552.57,-30.03 1542.09,-31.59 1551.25,-36.91 1552.57,-30.03"/>
<text xml:space="preserve" text-anchor="middle" x="1748.3" y="-288.07" font-family="Times,serif" font-size="14.00">DDG: ch</text>
</g>
<!-- 30064771129&#45;&gt;124554051594 -->
<g id="edge5" class="edge">
<title>30064771129&#45;&gt;124554051594</title>
<path fill="none" stroke="black" d="M1231.25,-566.09C1392.51,-565.05 1719.69,-559.25 1762,-529.5 1800.81,-502.22 1804,-478.81 1804,-431.38 1804,-431.38 1804,-431.38 1804,-110 1804,-58.05 1649.29,-35.38 1552.05,-26.26"/>
<polygon fill="black" stroke="black" points="1552.57,-22.79 1542.29,-25.38 1551.94,-29.77 1552.57,-22.79"/>
<text xml:space="preserve" text-anchor="middle" x="1861.38" y="-288.07" font-family="Times,serif" font-size="14.00">DDG: actual != ch</text>
</g>
<!-- 30064771136 -->
<g id="node9" class="node">
<title>30064771136</title>
<polygon fill="none" stroke="black" points="1098.75,-130.75 745.25,-130.75 745.25,-91.25 1098.75,-91.25 1098.75,-130.75"/>
<text xml:space="preserve" text-anchor="start" x="854.5" y="-113.45" font-family="Times,serif" font-size="14.00">&lt;operator&gt;.raise, 53</text>
<text xml:space="preserve" text-anchor="start" x="753.25" y="-97.7" font-family="Times,serif" font-size="14.00">raise JSONParseError(f&quot;Expected &#39;{ch}&#39; but got ...</text>
</g>
<!-- 30064771129&#45;&gt;30064771136 -->
<g id="edge48" class="edge">
<title>30064771129&#45;&gt;30064771136</title>
<path fill="none" stroke="black" d="M1052.67,-560.94C895.5,-550.39 586,-523.68 586,-477 586,-477 586,-477 586,-201.25 586,-185.9 601.22,-189.26 615,-182.5 661.56,-159.66 715.75,-144.07 765.53,-133.49"/>
<polygon fill="black" stroke="black" points="766.17,-136.93 775.26,-131.48 764.76,-130.08 766.17,-136.93"/>
<text xml:space="preserve" text-anchor="middle" x="602.88" y="-333.7" font-family="Times,serif" font-size="14.00">CDG: </text>
</g>
<!-- 30064771135 -->
<g id="node11" class="node">
<title>30064771135</title>
<polygon fill="none" stroke="black" points="977.75,-222 624.25,-222 624.25,-182.5 977.75,-182.5 977.75,-222"/>
<text xml:space="preserve" text-anchor="start" x="740.25" y="-204.7" font-family="Times,serif" font-size="14.00">JSONParseError, 53</text>
<text xml:space="preserve" text-anchor="start" x="632.25" y="-188.95" font-family="Times,serif" font-size="14.00">JSONParseError(f&quot;Expected &#39;{ch}&#39; but got {repr(...</text>
</g>
<!-- 30064771129&#45;&gt;30064771135 -->
<g id="edge50" class="edge">
<title>30064771129&#45;&gt;30064771135</title>
<path fill="none" stroke="black" d="M1052.71,-562.05C944.65,-554.47 777,-533.59 777,-477 777,-477 777,-477 777,-292.5 777,-272.1 782.92,-249.95 788.88,-232.82"/>
<polygon fill="black" stroke="black" points="792.04,-234.36 792.22,-223.77 785.47,-231.94 792.04,-234.36"/>
<text xml:space="preserve" text-anchor="middle" x="793.88" y="-379.32" font-family="Times,serif" font-size="14.00">CDG: </text>
</g>
<!-- 30064771129&#45;&gt;30064771133 -->
<g id="edge52" class="edge">
<title>30064771129&#45;&gt;30064771133</title>
<path fill="none" stroke="black" d="M1052.57,-562.98C1003.52,-556.04 946.45,-538.45 915,-495.75 872.16,-437.59 945.12,-360.55 991.03,-320.77"/>
<polygon fill="black" stroke="black" points="993.01,-323.68 998.37,-314.54 988.48,-318.34 993.01,-323.68"/>
<text xml:space="preserve" text-anchor="middle" x="925.3" y="-424.95" font-family="Times,serif" font-size="14.00">CDG: </text>
</g>
<!-- 30064771129&#45;&gt;30064771130 -->
<g id="edge40" class="edge">
<title>30064771129&#45;&gt;30064771130</title>
<path fill="none" stroke="black" d="M1065.47,-547.03C1056.97,-542.39 1049.1,-536.64 1042.75,-529.5 1037.3,-523.38 1034.09,-515.32 1032.22,-507.37"/>
<polygon fill="black" stroke="black" points="1035.67,-506.8 1030.58,-497.51 1028.77,-507.95 1035.67,-506.8"/>
<text xml:space="preserve" text-anchor="middle" x="1066.38" y="-516.2" font-family="Times,serif" font-size="14.00">DDG: ch</text>
</g>
<!-- 30064771129&#45;&gt;30064771130 -->
<g id="edge53" class="edge">
<title>30064771129&#45;&gt;30064771130</title>
<path fill="none" stroke="black" d="M1125.19,-547.15C1115.47,-536.66 1102.67,-523.79 1090,-513.75 1084.97,-509.77 1079.48,-505.87 1073.92,-502.19"/>
<polygon fill="black" stroke="black" points="1076.18,-499.48 1065.87,-497.05 1072.41,-505.38 1076.18,-499.48"/>
<text xml:space="preserve" text-anchor="middle" x="1123.66" y="-516.2" font-family="Times,serif" font-size="14.00">CDG: </text>
</g>
<!-- 30064771132 -->
<g id="node14" class="node">
<title>30064771132</title>
<polygon fill="none" stroke="black" points="1442.88,-404.5 1231.12,-404.5 1231.12,-365 1442.88,-365 1442.88,-404.5"/>
<text xml:space="preserve" text-anchor="start" x="1239.12" y="-387.2" font-family="Times,serif" font-size="14.00">&lt;operator&gt;.formattedValue, 54</text>
<text xml:space="preserve" text-anchor="start" x="1289.75" y="-371.45" font-family="Times,serif" font-size="14.00">{repr(actual)}</text>
</g>
<!-- 30064771129&#45;&gt;30064771132 -->
<g id="edge51" class="edge">
<title>30064771129&#45;&gt;30064771132</title>
<path fill="none" stroke="black" d="M1145.23,-547.22C1150.19,-523.27 1161.8,-482.14 1186.25,-456.25 1205.95,-435.39 1233.06,-420.1 1258.85,-409.21"/>
<polygon fill="black" stroke="black" points="1260.05,-412.5 1268.02,-405.51 1257.43,-406 1260.05,-412.5"/>
<text xml:space="preserve" text-anchor="middle" x="1203.12" y="-470.57" font-family="Times,serif" font-size="14.00">CDG: </text>
</g>
<!-- 30064771129&#45;&gt;30064771131 -->
<g id="edge45" class="edge">
<title>30064771129&#45;&gt;30064771131</title>
<path fill="none" stroke="black" d="M1231.23,-563.56C1366.15,-558.91 1610.23,-548.06 1646,-529.5 1656.48,-524.06 1665.34,-514.84 1672.25,-505.63"/>
<polygon fill="black" stroke="black" points="1675.1,-507.66 1677.87,-497.44 1669.32,-503.7 1675.1,-507.66"/>
<text xml:space="preserve" text-anchor="middle" x="1701.77" y="-516.2" font-family="Times,serif" font-size="14.00">DDG: actual</text>
</g>
<!-- 30064771129&#45;&gt;30064771131 -->
<g id="edge54" class="edge">
<title>30064771129&#45;&gt;30064771131</title>
<path fill="none" stroke="black" d="M1231.3,-558.5C1327.67,-548.99 1485.52,-530.06 1629.33,-495.96"/>
<polygon fill="black" stroke="black" points="1629.72,-499.47 1638.63,-493.73 1628.09,-492.66 1629.72,-499.47"/>
<text xml:space="preserve" text-anchor="middle" x="1555.52" y="-516.2" font-family="Times,serif" font-size="14.00">CDG: </text>
</g>
<!-- 30064771134 -->
<g id="node17" class="node">
<title>30064771134</title>
<polygon fill="none" stroke="black" points="1453.75,-495.75 1262.25,-495.75 1262.25,-456.25 1453.75,-456.25 1453.75,-495.75"/>
<text xml:space="preserve" text-anchor="start" x="1270.25" y="-478.45" font-family="Times,serif" font-size="14.00">&lt;operator&gt;.fieldAccess, 54</text>
<text xml:space="preserve" text-anchor="start" x="1331" y="-462.7" font-family="Times,serif" font-size="14.00">self.pos</text>
</g>
<!-- 30064771129&#45;&gt;30064771134 -->
<g id="edge49" class="edge">
<title>30064771129&#45;&gt;30064771134</title>
<path fill="none" stroke="black" d="M1201.03,-547.09C1216.45,-541.73 1232.95,-535.68 1248,-529.5 1268.73,-520.99 1291.13,-510.54 1310.27,-501.21"/>
<polygon fill="black" stroke="black" points="1311.75,-504.38 1319.18,-496.83 1308.66,-498.1 1311.75,-504.38"/>
<text xml:space="preserve" text-anchor="middle" x="1298.63" y="-516.2" font-family="Times,serif" font-size="14.00">CDG: </text>
</g>
<!-- 55834574862 -->
<g id="node18" class="node">
<title>55834574862</title>
<polygon fill="none" stroke="black" points="1622.5,-495.75 1471.5,-495.75 1471.5,-456.25 1622.5,-456.25 1622.5,-495.75"/>
<text xml:space="preserve" text-anchor="start" x="1479.5" y="-478.45" font-family="Times,serif" font-size="14.00">FIELD_IDENTIFIER, 54</text>
<text xml:space="preserve" text-anchor="start" x="1536.88" y="-462.7" font-family="Times,serif" font-size="14.00">pos</text>
</g>
<!-- 30064771129&#45;&gt;55834574862 -->
<g id="edge47" class="edge">
<title>30064771129&#45;&gt;55834574862</title>
<path fill="none" stroke="black" d="M1231.27,-548.25C1259.67,-542.41 1291.18,-535.81 1320,-529.5 1366.34,-519.36 1417.86,-507.49 1460.09,-497.61"/>
<polygon fill="black" stroke="black" points="1460.76,-501.04 1469.7,-495.35 1459.17,-494.23 1460.76,-501.04"/>
<text xml:space="preserve" text-anchor="middle" x="1405.62" y="-516.2" font-family="Times,serif" font-size="14.00">CDG: </text>
</g>
<!-- 30064771127&#45;&gt;30064771128 -->
<g id="edge18" class="edge">
<title>30064771127&#45;&gt;30064771128</title>
<path fill="none" stroke="black" d="M333.59,-736.11C313.71,-729.89 290.38,-721.65 270.25,-712 254.36,-704.38 237.81,-694.29 223.75,-684.99"/>
<polygon fill="black" stroke="black" points="225.96,-682.26 215.71,-679.57 222.05,-688.06 225.96,-682.26"/>
<text xml:space="preserve" text-anchor="middle" x="300.62" y="-698.7" font-family="Times,serif" font-size="14.00">DDG: self</text>
</g>
<!-- 30064771127&#45;&gt;30064771138 -->
<g id="edge19" class="edge">
<title>30064771127&#45;&gt;30064771138</title>
<path fill="none" stroke="black" d="M367.11,-729.7C357.3,-712.15 345,-685.03 345,-659.5 345,-659.5 345,-659.5 345,-201.25 345,-181.3 340.4,-159.38 335.73,-142.25"/>
<polygon fill="black" stroke="black" points="339.11,-141.33 332.96,-132.7 332.38,-143.28 339.11,-141.33"/>
<text xml:space="preserve" text-anchor="middle" x="375.38" y="-424.95" font-family="Times,serif" font-size="14.00">DDG: self</text>
</g>
<!-- 30064771127&#45;&gt;30064771135 -->
<g id="edge36" class="edge">
<title>30064771127&#45;&gt;30064771135</title>
<path fill="none" stroke="black" d="M424.62,-734.66C457.83,-721.24 497,-697.39 497,-659.5 497,-659.5 497,-659.5 497,-292.5 497,-259.87 562.3,-238.31 632.38,-224.58"/>
<polygon fill="black" stroke="black" points="633,-228.02 642.17,-222.72 631.69,-221.14 633,-228.02"/>
<text xml:space="preserve" text-anchor="middle" x="527.38" y="-470.57" font-family="Times,serif" font-size="14.00">DDG: self</text>
</g>
<!-- 30064771136&#45;&gt;124554051594 -->
<g id="edge12" class="edge">
<title>30064771136&#45;&gt;124554051594</title>
<path fill="none" stroke="black" d="M744.86,-92.37C740.2,-91.98 735.57,-91.61 731,-91.25 662.8,-85.9 377.48,-106.71 425,-57.5 458.7,-22.6 1161.67,-20.33 1398.15,-20.55"/>
<polygon fill="black" stroke="black" points="1397.88,-24.05 1407.88,-20.57 1397.88,-17.05 1397.88,-24.05"/>
<text xml:space="preserve" text-anchor="middle" x="668" y="-59.95" font-family="Times,serif" font-size="14.00">DDG: JSONParseError(f&quot;Expected &#39;{ch}&#39; but got {repr(actual)}&quot;, self.pos)</text>
</g>
<!-- 30064771136&#45;&gt;124554051594 -->
<g id="edge13" class="edge">
<title>30064771136&#45;&gt;124554051594</title>
<path fill="none" stroke="black" d="M921.3,-90.86C921.99,-79.41 924.99,-65.55 934.5,-57.5 969.05,-28.25 1257.36,-22.21 1398.19,-21.01"/>
<polygon fill="black" stroke="black" points="1397.81,-24.52 1407.78,-20.94 1397.75,-17.52 1397.81,-24.52"/>
<text xml:space="preserve" text-anchor="middle" x="1197.75" y="-59.95" font-family="Times,serif" font-size="14.00">DDG: raise JSONParseError(f&quot;Expected &#39;{ch}&#39; but got {repr(actual)}&quot;, self.pos)</text>
</g>
<!-- 30064771135&#45;&gt;124554051594 -->
<g id="edge11" class="edge">
<title>30064771135&#45;&gt;124554051594</title>
<path fill="none" stroke="black" d="M736.76,-182.13C696.86,-170.9 644.33,-157.28 597,-148.75 559.29,-141.96 453.39,-157.03 425.5,-130.75 401.61,-108.23 393.19,-81.11 416,-57.5 450.01,-22.29 1159.81,-20.23 1397.91,-20.53"/>
<polygon fill="black" stroke="black" points="1397.7,-24.03 1407.71,-20.54 1397.71,-17.03 1397.7,-24.03"/>
<text xml:space="preserve" text-anchor="middle" x="580.75" y="-105.58" font-family="Times,serif" font-size="14.00">DDG: f&quot;Expected &#39;{ch}&#39; but got {repr(actual)}&quot;</text>
</g>
<!-- 30064771135&#45;&gt;30064771138 -->
<g id="edge20" class="edge">
<title>30064771135&#45;&gt;30064771138</title>
<path fill="none" stroke="black" d="M623.84,-184.24C585.81,-179.11 546.01,-172.62 509.25,-164.5 486.81,-159.54 482.03,-155.29 460,-148.75 453,-146.67 422.62,-138.33 392.56,-130.12"/>
<polygon fill="black" stroke="black" points="393.57,-126.77 383,-127.51 391.73,-133.52 393.57,-126.77"/>
<text xml:space="preserve" text-anchor="middle" x="553.12" y="-151.2" font-family="Times,serif" font-size="14.00">DDG: self.pos</text>
</g>
<!-- 30064771135&#45;&gt;30064771136 -->
<g id="edge27" class="edge">
<title>30064771135&#45;&gt;30064771136</title>
<path fill="none" stroke="black" d="M737.31,-182.04C719.74,-173.48 708.23,-162.25 719.5,-148.75 723.97,-143.4 731.77,-138.83 741.79,-134.92"/>
<polygon fill="black" stroke="black" points="742.77,-138.29 751.08,-131.72 740.49,-131.67 742.77,-138.29"/>
<text xml:space="preserve" text-anchor="middle" x="874.75" y="-151.2" font-family="Times,serif" font-size="14.00">DDG: f&quot;Expected &#39;{ch}&#39; but got {repr(actual)}&quot;</text>
</g>
<!-- 30064771135&#45;&gt;30064771136 -->
<g id="edge28" class="edge">
<title>30064771135&#45;&gt;30064771136</title>
<path fill="none" stroke="black" d="M978.21,-187.22C1002.13,-181.9 1021.41,-174.57 1030,-164.5 1039.86,-152.93 1035.34,-143.69 1023.84,-136.4"/>
<polygon fill="black" stroke="black" points="1025.63,-133.38 1015.14,-131.89 1022.41,-139.6 1025.63,-133.38"/>
<text xml:space="preserve" text-anchor="middle" x="1079.26" y="-151.2" font-family="Times,serif" font-size="14.00">DDG: self.pos</text>
</g>
<!-- 30064771133&#45;&gt;124554051594 -->
<g id="edge7" class="edge">
<title>30064771133&#45;&gt;124554051594</title>
<path fill="none" stroke="black" d="M1170.84,-282.31C1209.23,-276.87 1243.84,-268.53 1258,-255.75 1294.51,-222.8 1254.17,-186.03 1286.25,-148.75 1289.7,-144.74 1457.55,-77.25 1461,-73.25 1466.34,-67.06 1469.67,-59.04 1471.74,-51.15"/>
<polygon fill="black" stroke="black" points="1475.16,-51.86 1473.66,-41.37 1468.29,-50.51 1475.16,-51.86"/>
<text xml:space="preserve" text-anchor="middle" x="1316.62" y="-151.2" font-family="Times,serif" font-size="14.00">DDG: {ch}</text>
</g>
<!-- 30064771133&#45;&gt;124554051594 -->
<g id="edge10" class="edge">
<title>30064771133&#45;&gt;124554051594</title>
<path fill="none" stroke="black" d="M1170.6,-280.11C1215.67,-274.4 1258.53,-266.46 1278,-255.75 1332.89,-225.56 1323.21,-190.68 1369.75,-148.75 1413.6,-109.24 1451.59,-125.52 1479,-73.25 1482.55,-66.48 1483.36,-58.52 1482.83,-50.88"/>
<polygon fill="black" stroke="black" points="1486.32,-50.61 1481.41,-41.22 1479.4,-51.62 1486.32,-50.61"/>
<text xml:space="preserve" text-anchor="middle" x="1433.88" y="-151.2" font-family="Times,serif" font-size="14.00">DDG: {repr(actual)}</text>
</g>
<!-- 30064771133&#45;&gt;30064771135 -->
<g id="edge32" class="edge">
<title>30064771133&#45;&gt;30064771135</title>
<path fill="none" stroke="black" d="M1132.67,-273.3C1150.96,-265.52 1160.28,-254.76 1147,-240 1135.35,-227.05 1063.98,-218.31 989.06,-212.61"/>
<polygon fill="black" stroke="black" points="989.72,-209.15 979.49,-211.91 989.21,-216.14 989.72,-209.15"/>
<text xml:space="preserve" text-anchor="middle" x="1203.84" y="-242.45" font-family="Times,serif" font-size="14.00">DDG: Expected &#39;</text>
</g>
<!-- 30064771133&#45;&gt;30064771135 -->
<g id="edge33" class="edge">
<title>30064771133&#45;&gt;30064771135</title>
<path fill="none" stroke="black" d="M877.15,-279.39C847.54,-273.99 822.13,-266.4 811.25,-255.75 805.34,-249.97 802.3,-241.86 800.85,-233.74"/>
<polygon fill="black" stroke="black" points="804.35,-233.6 799.88,-224 797.39,-234.3 804.35,-233.6"/>
<text xml:space="preserve" text-anchor="middle" x="841.62" y="-242.45" font-family="Times,serif" font-size="14.00">DDG: {ch}</text>
</g>
<!-- 30064771133&#45;&gt;30064771135 -->
<g id="edge34" class="edge">
<title>30064771133&#45;&gt;30064771135</title>
<path fill="none" stroke="black" d="M941.16,-273.33C925.4,-268.46 909.3,-262.62 894.75,-255.75 883.63,-250.5 882.54,-246.34 872,-240 865.05,-235.82 857.57,-231.63 850.17,-227.66"/>
<polygon fill="black" stroke="black" points="852,-224.67 841.52,-223.1 848.74,-230.86 852,-224.67"/>
<text xml:space="preserve" text-anchor="middle" x="945.38" y="-242.45" font-family="Times,serif" font-size="14.00">DDG: &#39; but got </text>
</g>
<!-- 30064771133&#45;&gt;30064771135 -->
<g id="edge35" class="edge">
<title>30064771133&#45;&gt;30064771135</title>
<path fill="none" stroke="black" d="M1018.49,-273.42C1014.2,-261.99 1007.07,-248.13 996,-240 988.31,-234.35 974.83,-229.43 958.41,-225.18"/>
<polygon fill="black" stroke="black" points="959.25,-221.78 948.71,-222.84 957.61,-228.59 959.25,-221.78"/>
<text xml:space="preserve" text-anchor="middle" x="1073.92" y="-242.45" font-family="Times,serif" font-size="14.00">DDG: {repr(actual)}</text>
</g>
<!-- 30064771130&#45;&gt;124554051594 -->
<g id="edge6" class="edge">
<title>30064771130&#45;&gt;124554051594</title>
<path fill="none" stroke="black" d="M1054.4,-455.95C1090.42,-428.01 1160.1,-374.52 1221,-331.25 1317.82,-262.46 1336.23,-234.51 1443,-182.5 1466.12,-171.24 1482.9,-185.32 1498,-164.5 1506.32,-153.02 1539.01,-219.25 1495,-57.5 1494.33,-55.05 1493.48,-52.59 1492.49,-50.16"/>
<polygon fill="black" stroke="black" points="1495.7,-48.75 1488.23,-41.24 1489.38,-51.77 1495.7,-48.75"/>
<text xml:space="preserve" text-anchor="middle" x="1365.79" y="-242.45" font-family="Times,serif" font-size="14.00">DDG: ch</text>
</g>
<!-- 30064771130&#45;&gt;30064771133 -->
<g id="edge38" class="edge">
<title>30064771130&#45;&gt;30064771133</title>
<path fill="none" stroke="black" d="M1029.37,-456.02C1028.33,-424.74 1026.25,-362.1 1025,-324.68"/>
<polygon fill="black" stroke="black" points="1028.51,-324.88 1024.68,-315 1021.52,-325.12 1028.51,-324.88"/>
<text xml:space="preserve" text-anchor="middle" x="1051.22" y="-379.32" font-family="Times,serif" font-size="14.00">DDG: ch</text>
</g>
<!-- 30064771132&#45;&gt;124554051594 -->
<g id="edge9" class="edge">
<title>30064771132&#45;&gt;124554051594</title>
<path fill="none" stroke="black" d="M1354.89,-364.66C1376.59,-340.72 1413.22,-297.7 1437,-255.75 1454.21,-225.39 1439.61,-206.17 1465.25,-182.5 1485.94,-163.4 1507.95,-186.11 1526,-164.5 1556.62,-127.84 1559.5,-99.08 1536,-57.5 1533.9,-53.78 1531.26,-50.4 1528.25,-47.33"/>
<polygon fill="black" stroke="black" points="1530.62,-44.74 1520.75,-40.9 1526.06,-50.06 1530.62,-44.74"/>
<text xml:space="preserve" text-anchor="middle" x="1522.62" y="-196.82" font-family="Times,serif" font-size="14.00">DDG: repr(actual)</text>
</g>
<!-- 30064771132&#45;&gt;30064771133 -->
<g id="edge39" class="edge">
<title>30064771132&#45;&gt;30064771133</title>
<path fill="none" stroke="black" d="M1269.85,-364.6C1220.63,-350.57 1153.68,-331.48 1102.07,-316.76"/>
<polygon fill="black" stroke="black" points="1103.34,-313.48 1092.76,-314.11 1101.42,-320.21 1103.34,-313.48"/>
<text xml:space="preserve" text-anchor="middle" x="1256.61" y="-333.7" font-family="Times,serif" font-size="14.00">DDG: repr(actual)</text>
</g>
<!-- 30064771131&#45;&gt;124554051594 -->
<g id="edge8" class="edge">
<title>30064771131&#45;&gt;124554051594</title>
<path fill="none" stroke="black" d="M1667.78,-455.95C1651.57,-439.23 1632,-413.33 1632,-385.75 1632,-385.75 1632,-385.75 1632,-110 1632,-84.34 1627.53,-74.14 1608,-57.5 1592.15,-44 1571.74,-35.43 1551.68,-29.99"/>
<polygon fill="black" stroke="black" points="1552.63,-26.62 1542.08,-27.65 1550.97,-33.42 1552.63,-26.62"/>
<text xml:space="preserve" text-anchor="middle" x="1669.12" y="-242.45" font-family="Times,serif" font-size="14.00">DDG: actual</text>
</g>
<!-- 30064771131&#45;&gt;30064771132 -->
<g id="edge42" class="edge">
<title>30064771131&#45;&gt;30064771132</title>
<path fill="none" stroke="black" d="M1640.06,-458.76C1637.01,-457.88 1633.97,-457.03 1631,-456.25 1592.72,-446.15 1582.34,-447.12 1543.75,-438.25 1502.85,-428.84 1457.65,-417.48 1419.97,-407.73"/>
<polygon fill="black" stroke="black" points="1421.07,-404.4 1410.51,-405.28 1419.31,-411.18 1421.07,-404.4"/>
<text xml:space="preserve" text-anchor="middle" x="1580.88" y="-424.95" font-family="Times,serif" font-size="14.00">DDG: actual</text>
</g>
<!-- 30064771104 -->
<g id="node19" class="node">
<title>30064771104</title>
<polygon fill="none" stroke="black" points="2155.12,-989.75 2064.88,-989.75 2064.88,-953.75 2155.12,-953.75 2155.12,-989.75"/>
<text xml:space="preserve" text-anchor="middle" x="2110" y="-966.33" font-family="Times,serif" font-size="14.00">30064771104</text>
</g>
<!-- 30064771104&#45;&gt;68719476798 -->
<g id="edge29" class="edge">
<title>30064771104&#45;&gt;68719476798</title>
<path fill="none" stroke="black" d="M2107.36,-953.65C2106.43,-943.11 2106.49,-929.5 2110.75,-918.25 2111.83,-915.4 2113.18,-912.6 2114.72,-909.89"/>
<polygon fill="black" stroke="black" points="2117.52,-911.99 2120.16,-901.73 2111.7,-908.11 2117.52,-911.99"/>
<text xml:space="preserve" text-anchor="middle" x="2174.88" y="-920.7" font-family="Times,serif" font-size="14.00">DDG: JSONParseError</text>
</g>
<!-- 30064771105 -->
<g id="node20" class="node">
<title>30064771105</title>
<polygon fill="none" stroke="black" points="2306.12,-989.75 2215.88,-989.75 2215.88,-953.75 2306.12,-953.75 2306.12,-989.75"/>
<text xml:space="preserve" text-anchor="middle" x="2261" y="-966.33" font-family="Times,serif" font-size="14.00">30064771105</text>
</g>
<!-- 30064771105&#45;&gt;68719476798 -->
<g id="edge30" class="edge">
<title>30064771105&#45;&gt;68719476798</title>
<path fill="none" stroke="black" d="M2257.09,-953.42C2253.83,-942.25 2248.2,-928.05 2239,-918.25 2235.15,-914.14 2230.83,-910.36 2226.23,-906.89"/>
<polygon fill="black" stroke="black" points="2228.56,-904.24 2218.34,-901.45 2224.59,-910 2228.56,-904.24"/>
<text xml:space="preserve" text-anchor="middle" x="2313.52" y="-920.7" font-family="Times,serif" font-size="14.00">DDG: JSONParseError</text>
</g>
<!-- 30064771077 -->
<g id="node21" class="node">
<title>30064771077</title>
<polygon fill="none" stroke="black" points="2008.12,-989.75 1917.88,-989.75 1917.88,-953.75 2008.12,-953.75 2008.12,-989.75"/>
<text xml:space="preserve" text-anchor="middle" x="1963" y="-966.33" font-family="Times,serif" font-size="14.00">30064771077</text>
</g>
<!-- 30064771077&#45;&gt;68719476796 -->
<g id="edge43" class="edge">
<title>30064771077&#45;&gt;68719476796</title>
<path fill="none" stroke="black" d="M1957.52,-953.43C1953.73,-942.81 1948.1,-929.19 1941,-918.25 1939.03,-915.22 1936.84,-912.2 1934.53,-909.25"/>
<polygon fill="black" stroke="black" points="1937.4,-907.22 1928.28,-901.82 1932.04,-911.73 1937.4,-907.22"/>
<text xml:space="preserve" text-anchor="middle" x="1979.63" y="-920.7" font-family="Times,serif" font-size="14.00">DDG: repr</text>
</g>
</g>
</svg>
