<?xml version="1.0" encoding="UTF-8" standalone="no"?>
<!DOCTYPE svg PUBLIC "-//W3C//DTD SVG 1.1//EN"
 "http://www.w3.org/Graphics/SVG/1.1/DTD/svg11.dtd">
<!-- Generated by graphviz version 13.1.2 (20250809.0930)
 -->
<!-- Title: remaining Pages: 1 -->
<svg width="726pt" height="413pt"
 viewBox="0.00 0.00 726.00 413.00" xmlns="http://www.w3.org/2000/svg" xmlns:xlink="http://www.w3.org/1999/xlink">
<g id="graph0" class="graph" transform="scale(1 1) rotate(0) translate(4 408.5)">
<title>remaining</title>
<polygon fill="white" stroke="none" points="-4,4 -4,-408.5 722.42,-408.5 722.42,4 -4,4"/>
<!-- 107374182412 -->
<g id="node1" class="node">
<title>107374182412</title>
<polygon fill="none" stroke="black" points="186.29,-404.5 102.79,-404.5 102.79,-365 186.29,-365 186.29,-404.5"/>
<text xml:space="preserve" text-anchor="start" x="110.79" y="-387.2" font-family="Times,serif" font-size="14.00">METHOD, 61</text>
<text xml:space="preserve" text-anchor="start" x="114.17" y="-371.45" font-family="Times,serif" font-size="14.00">remaining</text>
</g>
<!-- 111669149717 -->
<g id="node3" class="node">
<title>111669149717</title>
<polygon fill="none" stroke="black" points="144.92,-313.25 68.17,-313.25 68.17,-273.75 144.92,-273.75 144.92,-313.25"/>
<text xml:space="preserve" text-anchor="start" x="76.17" y="-295.95" font-family="Times,serif" font-size="14.00">PARAM, 61</text>
<text xml:space="preserve" text-anchor="start" x="93.04" y="-280.2" font-family="Times,serif" font-size="14.00">self</text>
</g>
<!-- 107374182412&#45;&gt;111669149717 -->
<g id="edge6" class="edge">
<title>107374182412&#45;&gt;111669149717</title>
<path fill="none" stroke="black" d="M136.48,-364.82C131.43,-352.95 124.81,-337.4 119.08,-323.94"/>
<polygon fill="black" stroke="black" points="122.45,-322.93 115.31,-315.1 116.01,-325.67 122.45,-322.93"/>
<text xml:space="preserve" text-anchor="middle" x="144.69" y="-333.7" font-family="Times,serif" font-size="14.00">DDG: </text>
</g>
<!-- 30064771147 -->
<g id="node5" class="node">
<title>30064771147</title>
<polygon fill="none" stroke="black" points="264.79,-222 100.29,-222 100.29,-182.5 264.79,-182.5 264.79,-222"/>
<text xml:space="preserve" text-anchor="start" x="115.04" y="-204.7" font-family="Times,serif" font-size="14.00">&lt;operator&gt;.slice, 62</text>
<text xml:space="preserve" text-anchor="start" x="108.29" y="-188.95" font-family="Times,serif" font-size="14.00">self.source[self.pos:]</text>
</g>
<!-- 107374182412&#45;&gt;30064771147 -->
<g id="edge9" class="edge">
<title>107374182412&#45;&gt;30064771147</title>
<path fill="none" stroke="black" d="M157.41,-364.6C160.54,-359.12 163.56,-353 165.54,-347 177.99,-309.24 181.54,-263.25 182.44,-233.63"/>
<polygon fill="black" stroke="black" points="185.94,-233.96 182.65,-223.89 178.94,-233.81 185.94,-233.96"/>
<text xml:space="preserve" text-anchor="middle" x="196.7" y="-288.07" font-family="Times,serif" font-size="14.00">DDG: </text>
</g>
<!-- 124554051596 -->
<g id="node2" class="node">
<title>124554051596</title>
<polygon fill="none" stroke="black" points="247.92,-39.5 117.17,-39.5 117.17,0 247.92,0 247.92,-39.5"/>
<text xml:space="preserve" text-anchor="start" x="125.17" y="-22.2" font-family="Times,serif" font-size="14.00">METHOD_RETURN, 61</text>
<text xml:space="preserve" text-anchor="start" x="172.42" y="-6.45" font-family="Times,serif" font-size="14.00">ANY</text>
</g>
<!-- 111669149717&#45;&gt;124554051596 -->
<g id="edge2" class="edge">
<title>111669149717&#45;&gt;124554051596</title>
<path fill="none" stroke="black" d="M76.35,-273.26C40.48,-247.72 -12.67,-199.86 2.79,-148.75 16.9,-102.11 24.51,-86.65 63.54,-57.5 76.02,-48.18 90.89,-41.2 105.83,-35.97"/>
<polygon fill="black" stroke="black" points="106.8,-39.34 115.24,-32.93 104.65,-32.68 106.8,-39.34"/>
<text xml:space="preserve" text-anchor="middle" x="33.17" y="-151.2" font-family="Times,serif" font-size="14.00">DDG: self</text>
</g>
<!-- 111669149717&#45;&gt;30064771147 -->
<g id="edge8" class="edge">
<title>111669149717&#45;&gt;30064771147</title>
<path fill="none" stroke="black" d="M102.42,-273.37C101.2,-262.75 101.56,-249.76 107.79,-240 110.38,-235.96 113.55,-232.34 117.11,-229.12"/>
<polygon fill="black" stroke="black" points="119.03,-232.06 124.84,-223.19 114.77,-226.5 119.03,-232.06"/>
<text xml:space="preserve" text-anchor="middle" x="138.17" y="-242.45" font-family="Times,serif" font-size="14.00">DDG: self</text>
</g>
<!-- 141733920775 -->
<g id="node4" class="node">
<title>141733920775</title>
<polygon fill="none" stroke="black" points="718.42,-130.75 506.67,-130.75 506.67,-91.25 718.42,-91.25 718.42,-130.75"/>
<text xml:space="preserve" text-anchor="start" x="578.79" y="-113.45" font-family="Times,serif" font-size="14.00">RETURN, 62</text>
<text xml:space="preserve" text-anchor="start" x="514.67" y="-97.7" font-family="Times,serif" font-size="14.00">return self.source[self.pos:]</text>
</g>
<!-- 141733920775&#45;&gt;124554051596 -->
<g id="edge1" class="edge">
<title>141733920775&#45;&gt;124554051596</title>
<path fill="none" stroke="black" d="M520.03,-90.8C442.2,-74.64 332.24,-51.82 259.23,-36.67"/>
<polygon fill="black" stroke="black" points="260.28,-33.31 249.78,-34.7 258.86,-40.16 260.28,-33.31"/>
<text xml:space="preserve" text-anchor="middle" x="457.04" y="-59.95" font-family="Times,serif" font-size="14.00">DDG: &lt;RET&gt;</text>
</g>
<!-- 30064771147&#45;&gt;124554051596 -->
<g id="edge3" class="edge">
<title>30064771147&#45;&gt;124554051596</title>
<path fill="none" stroke="black" d="M117.68,-182.15C92.79,-171.3 66.92,-154.91 52.54,-130.75 43.56,-115.66 43.56,-106.34 52.54,-91.25 64.96,-70.4 85.93,-55.33 107.45,-44.62"/>
<polygon fill="black" stroke="black" points="108.72,-47.89 116.31,-40.49 105.76,-41.54 108.72,-47.89"/>
<text xml:space="preserve" text-anchor="middle" x="106.54" y="-105.58" font-family="Times,serif" font-size="14.00">DDG: self.source</text>
</g>
<!-- 30064771147&#45;&gt;124554051596 -->
<g id="edge4" class="edge">
<title>30064771147&#45;&gt;124554051596</title>
<path fill="none" stroke="black" d="M182.54,-182.27C182.54,-150.99 182.54,-88.35 182.54,-50.93"/>
<polygon fill="black" stroke="black" points="186.04,-51.26 182.54,-41.26 179.04,-51.26 186.04,-51.26"/>
<text xml:space="preserve" text-anchor="middle" x="226.42" y="-105.58" font-family="Times,serif" font-size="14.00">DDG: self.pos</text>
</g>
<!-- 30064771147&#45;&gt;124554051596 -->
<g id="edge5" class="edge">
<title>30064771147&#45;&gt;124554051596</title>
<path fill="none" stroke="black" d="M221.89,-182.19C241.57,-170.37 263.5,-153.13 274.54,-130.75 282.31,-115.01 282.31,-106.99 274.54,-91.25 265.22,-72.37 248.16,-57.15 231.23,-45.75"/>
<polygon fill="black" stroke="black" points="233.48,-43.03 223.17,-40.62 229.73,-48.94 233.48,-43.03"/>
<text xml:space="preserve" text-anchor="middle" x="371.49" y="-105.58" font-family="Times,serif" font-size="14.00">DDG: self.source[self.pos:]</text>
</g>
<!-- 30064771147&#45;&gt;141733920775 -->
<g id="edge7" class="edge">
<title>30064771147&#45;&gt;141733920775</title>
<path fill="none" stroke="black" d="M265.2,-184.09C334.72,-169.66 434.46,-148.96 509.24,-133.44"/>
<polygon fill="black" stroke="black" points="509.53,-136.96 518.61,-131.5 508.1,-130.1 509.53,-136.96"/>
<text xml:space="preserve" text-anchor="middle" x="514.41" y="-151.2" font-family="Times,serif" font-size="14.00">DDG: self.source[self.pos:]</text>
</g>
</g>
</svg>
