<?xml version="1.0" encoding="UTF-8" standalone="no"?>
<!DOCTYPE svg PUBLIC "-//W3C//DTD SVG 1.1//EN"
 "http://www.w3.org/Graphics/SVG/1.1/DTD/svg11.dtd">
<!-- Generated by graphviz version 13.1.2 (20250809.0930)
 -->
<!-- Title: &lt;metaClassCallHandler&gt; Pages: 1 -->
<svg width="823pt" height="413pt"
 viewBox="0.00 0.00 823.00 413.00" xmlns="http://www.w3.org/2000/svg" xmlns:xlink="http://www.w3.org/1999/xlink">
<g id="graph0" class="graph" transform="scale(1 1) rotate(0) translate(4 408.5)">
<title>&lt;metaClassCallHandler&gt;</title>
<polygon fill="white" stroke="none" points="-4,4 -4,-408.5 819.38,-408.5 819.38,4 -4,4"/>
<!-- 107374182413 -->
<g id="node1" class="node">
<title>107374182413</title>
<polygon fill="none" stroke="black" points="236.62,-404.5 72.12,-404.5 72.12,-365 236.62,-365 236.62,-404.5"/>
<text xml:space="preserve" text-anchor="start" x="120.62" y="-387.2" font-family="Times,serif" font-size="14.00">METHOD, 36</text>
<text xml:space="preserve" text-anchor="start" x="80.12" y="-371.45" font-family="Times,serif" font-size="14.00">&lt;metaClassCallHandler&gt;</text>
</g>
<!-- 111669149718 -->
<g id="node3" class="node">
<title>111669149718</title>
<polygon fill="none" stroke="black" points="148.75,-313.25 72,-313.25 72,-273.75 148.75,-273.75 148.75,-313.25"/>
<text xml:space="preserve" text-anchor="start" x="80" y="-295.95" font-family="Times,serif" font-size="14.00">PARAM, 36</text>
<text xml:space="preserve" text-anchor="start" x="90.12" y="-280.2" font-family="Times,serif" font-size="14.00">source</text>
</g>
<!-- 107374182413&#45;&gt;111669149718 -->
<g id="edge4" class="edge">
<title>107374182413&#45;&gt;111669149718</title>
<path fill="none" stroke="black" d="M145.04,-364.82C139.19,-352.95 131.53,-337.4 124.89,-323.94"/>
<polygon fill="black" stroke="black" points="128.07,-322.49 120.51,-315.07 121.8,-325.58 128.07,-322.49"/>
<text xml:space="preserve" text-anchor="middle" x="151.88" y="-333.7" font-family="Times,serif" font-size="14.00">DDG: </text>
</g>
<!-- 30064771150 -->
<g id="node5" class="node">
<title>30064771150</title>
<polygon fill="none" stroke="black" points="292.75,-222 0,-222 0,-182.5 292.75,-182.5 292.75,-222"/>
<text xml:space="preserve" text-anchor="start" x="132.88" y="-204.7" font-family="Times,serif" font-size="14.00">, 36</text>
<text xml:space="preserve" text-anchor="start" x="8" y="-188.95" font-family="Times,serif" font-size="14.00">class Parser&lt;meta&gt;(...).&lt;fakeNew&gt;(source)</text>
</g>
<!-- 107374182413&#45;&gt;30064771150 -->
<g id="edge6" class="edge">
<title>107374182413&#45;&gt;30064771150</title>
<path fill="none" stroke="black" d="M165.42,-364.86C168.18,-359.28 170.8,-353.05 172.38,-347 184.39,-300.93 193.72,-284.72 177.38,-240 176.31,-237.09 174.9,-234.25 173.27,-231.52"/>
<polygon fill="black" stroke="black" points="176.15,-229.53 167.49,-223.43 170.46,-233.6 176.15,-229.53"/>
<text xml:space="preserve" text-anchor="middle" x="203.02" y="-288.07" font-family="Times,serif" font-size="14.00">DDG: </text>
</g>
<!-- 124554051597 -->
<g id="node2" class="node">
<title>124554051597</title>
<polygon fill="none" stroke="black" points="255.62,-39.5 37.12,-39.5 37.12,0 255.62,0 255.62,-39.5"/>
<text xml:space="preserve" text-anchor="start" x="89" y="-22.2" font-family="Times,serif" font-size="14.00">METHOD_RETURN, 36</text>
<text xml:space="preserve" text-anchor="start" x="45.12" y="-6.45" font-family="Times,serif" font-size="14.00">json_parser.py:&lt;module&gt;.Parser</text>
</g>
<!-- 111669149718&#45;&gt;30064771150 -->
<g id="edge7" class="edge">
<title>111669149718&#45;&gt;30064771150</title>
<path fill="none" stroke="black" d="M102.76,-273.28C99.89,-263 98.34,-250.36 103.12,-240 104.7,-236.6 106.76,-233.4 109.12,-230.42"/>
<polygon fill="black" stroke="black" points="111.59,-232.9 115.92,-223.23 106.51,-228.09 111.59,-232.9"/>
<text xml:space="preserve" text-anchor="middle" x="140.25" y="-242.45" font-family="Times,serif" font-size="14.00">DDG: source</text>
</g>
<!-- 141733920776 -->
<g id="node4" class="node">
<title>141733920776</title>
<polygon fill="none" stroke="black" points="815.38,-130.75 475.38,-130.75 475.38,-91.25 815.38,-91.25 815.38,-130.75"/>
<text xml:space="preserve" text-anchor="start" x="611.62" y="-113.45" font-family="Times,serif" font-size="14.00">RETURN, 36</text>
<text xml:space="preserve" text-anchor="start" x="483.38" y="-97.7" font-family="Times,serif" font-size="14.00">return class Parser&lt;meta&gt;(...).&lt;fakeNew&gt;(source)</text>
</g>
<!-- 141733920776&#45;&gt;124554051597 -->
<g id="edge1" class="edge">
<title>141733920776&#45;&gt;124554051597</title>
<path fill="none" stroke="black" d="M538.02,-90.8C457.78,-76.45 348.11,-56.83 265.23,-42.01"/>
<polygon fill="black" stroke="black" points="265.92,-38.58 255.46,-40.26 264.69,-45.47 265.92,-38.58"/>
<text xml:space="preserve" text-anchor="middle" x="459.5" y="-59.95" font-family="Times,serif" font-size="14.00">DDG: &lt;RET&gt;</text>
</g>
<!-- 30064771150&#45;&gt;124554051597 -->
<g id="edge2" class="edge">
<title>30064771150&#45;&gt;124554051597</title>
<path fill="none" stroke="black" d="M104.26,-182.05C83.95,-170.36 61.55,-153.29 50.12,-130.75 42.19,-115.09 42.19,-106.91 50.12,-91.25 59.77,-72.23 77.22,-57.11 94.64,-45.83"/>
<polygon fill="black" stroke="black" points="96.26,-48.94 102.97,-40.74 92.61,-42.96 96.26,-48.94"/>
<text xml:space="preserve" text-anchor="middle" x="87.25" y="-105.58" font-family="Times,serif" font-size="14.00">DDG: source</text>
</g>
<!-- 30064771150&#45;&gt;124554051597 -->
<g id="edge3" class="edge">
<title>30064771150&#45;&gt;124554051597</title>
<path fill="none" stroke="black" d="M146.38,-182.27C146.38,-150.99 146.38,-88.35 146.38,-50.93"/>
<polygon fill="black" stroke="black" points="149.88,-51.26 146.38,-41.26 142.88,-51.26 149.88,-51.26"/>
<text xml:space="preserve" text-anchor="middle" x="301.62" y="-105.58" font-family="Times,serif" font-size="14.00">DDG: class Parser&lt;meta&gt;(...).&lt;fakeNew&gt;(source)</text>
</g>
<!-- 30064771150&#45;&gt;141733920776 -->
<g id="edge5" class="edge">
<title>30064771150&#45;&gt;141733920776</title>
<path fill="none" stroke="black" d="M253.73,-182.05C333.97,-167.7 443.64,-148.08 526.52,-133.26"/>
<polygon fill="black" stroke="black" points="527.06,-136.72 536.29,-131.51 525.83,-129.83 527.06,-136.72"/>
<text xml:space="preserve" text-anchor="middle" x="581" y="-151.2" font-family="Times,serif" font-size="14.00">DDG: class Parser&lt;meta&gt;(...).&lt;fakeNew&gt;(source)</text>
</g>
</g>
</svg>
