<?xml version="1.0" encoding="UTF-8" standalone="no"?>
<!DOCTYPE svg PUBLIC "-//W3C//DTD SVG 1.1//EN"
 "http://www.w3.org/Graphics/SVG/1.1/DTD/svg11.dtd">
<!-- Generated by graphviz version 13.1.2 (20250809.0930)
 -->
<!-- Title: advance&lt;metaClassAdapter&gt; Pages: 1 -->
<svg width="500pt" height="436pt"
 viewBox="0.00 0.00 500.00 436.00" xmlns="http://www.w3.org/2000/svg" xmlns:xlink="http://www.w3.org/1999/xlink">
<g id="graph0" class="graph" transform="scale(1 1) rotate(0) translate(4 432.25)">
<title>advance&lt;metaClassAdapter&gt;</title>
<polygon fill="white" stroke="none" points="-4,4 -4,-432.25 495.88,-432.25 495.88,4 -4,4"/>
<!-- 107374182416 -->
<g id="node1" class="node">
<title>107374182416</title>
<polygon fill="none" stroke="black" points="223.75,-428.25 39,-428.25 39,-388.75 223.75,-388.75 223.75,-428.25"/>
<text xml:space="preserve" text-anchor="start" x="97.62" y="-410.95" font-family="Times,serif" font-size="14.00">METHOD, 45</text>
<text xml:space="preserve" text-anchor="start" x="47" y="-395.2" font-family="Times,serif" font-size="14.00">advance&lt;metaClassAdapter&gt;</text>
</g>
<!-- 111669149724 -->
<g id="node3" class="node">
<title>111669149724</title>
<polygon fill="none" stroke="black" points="76.75,-279.5 0,-279.5 0,-240 76.75,-240 76.75,-279.5"/>
<text xml:space="preserve" text-anchor="start" x="8" y="-262.2" font-family="Times,serif" font-size="14.00">PARAM, 45</text>
<text xml:space="preserve" text-anchor="start" x="28.25" y="-246.45" font-family="Times,serif" font-size="14.00">cls</text>
</g>
<!-- 107374182416&#45;&gt;111669149724 -->
<g id="edge5" class="edge">
<title>107374182416&#45;&gt;111669149724</title>
<path fill="none" stroke="black" d="M109.3,-388.42C103.79,-383.04 98.16,-376.95 93.62,-370.75 75.18,-345.56 59.79,-313.3 49.98,-290.24"/>
<polygon fill="black" stroke="black" points="53.27,-289.02 46.2,-281.13 46.8,-291.7 53.27,-289.02"/>
<text xml:space="preserve" text-anchor="middle" x="110.5" y="-357.45" font-family="Times,serif" font-size="14.00">DDG: </text>
</g>
<!-- 111669149725 -->
<g id="node4" class="node">
<title>111669149725</title>
<polygon fill="none" stroke="black" points="169.75,-337 93,-337 93,-297.5 169.75,-297.5 169.75,-337"/>
<text xml:space="preserve" text-anchor="start" x="101" y="-319.7" font-family="Times,serif" font-size="14.00">PARAM, 45</text>
<text xml:space="preserve" text-anchor="start" x="117.88" y="-303.95" font-family="Times,serif" font-size="14.00">self</text>
</g>
<!-- 107374182416&#45;&gt;111669149725 -->
<g id="edge6" class="edge">
<title>107374182416&#45;&gt;111669149725</title>
<path fill="none" stroke="black" d="M131.38,-388.57C131.38,-377.05 131.38,-362.07 131.38,-348.9"/>
<polygon fill="black" stroke="black" points="134.88,-348.97 131.38,-338.97 127.88,-348.97 134.88,-348.97"/>
<text xml:space="preserve" text-anchor="middle" x="148.25" y="-357.45" font-family="Times,serif" font-size="14.00">DDG: </text>
</g>
<!-- 30064771156 -->
<g id="node6" class="node">
<title>30064771156</title>
<polygon fill="none" stroke="black" points="357.12,-222 57.62,-222 57.62,-182.5 357.12,-182.5 357.12,-222"/>
<text xml:space="preserve" text-anchor="start" x="65.62" y="-204.7" font-family="Times,serif" font-size="14.00">json_parser.py:&lt;module&gt;.Parser.advance, 45</text>
<text xml:space="preserve" text-anchor="start" x="163.5" y="-188.95" font-family="Times,serif" font-size="14.00">advance(self)</text>
</g>
<!-- 107374182416&#45;&gt;30064771156 -->
<g id="edge9" class="edge">
<title>107374182416&#45;&gt;30064771156</title>
<path fill="none" stroke="black" d="M154.89,-388.64C160.29,-383.34 165.56,-377.24 169.38,-370.75 194.72,-327.63 203.16,-269.11 205.98,-233.88"/>
<polygon fill="black" stroke="black" points="209.46,-234.18 206.65,-223.97 202.48,-233.71 209.46,-234.18"/>
<text xml:space="preserve" text-anchor="middle" x="213.29" y="-311.82" font-family="Times,serif" font-size="14.00">DDG: </text>
</g>
<!-- 124554051600 -->
<g id="node2" class="node">
<title>124554051600</title>
<polygon fill="none" stroke="black" points="217.75,-39.5 87,-39.5 87,0 217.75,0 217.75,-39.5"/>
<text xml:space="preserve" text-anchor="start" x="95" y="-22.2" font-family="Times,serif" font-size="14.00">METHOD_RETURN, 45</text>
<text xml:space="preserve" text-anchor="start" x="142.25" y="-6.45" font-family="Times,serif" font-size="14.00">ANY</text>
</g>
<!-- 111669149724&#45;&gt;124554051600 -->
<g id="edge2" class="edge">
<title>111669149724&#45;&gt;124554051600</title>
<path fill="none" stroke="black" d="M38.92,-239.51C39.83,-223.82 42.21,-201.27 48.38,-182.5 68.18,-122.21 79.85,-108.67 117.38,-57.5 119.69,-54.35 122.25,-51.19 124.9,-48.11"/>
<polygon fill="black" stroke="black" points="127.34,-50.63 131.48,-40.88 122.16,-45.92 127.34,-50.63"/>
<text xml:space="preserve" text-anchor="middle" x="87.53" y="-151.2" font-family="Times,serif" font-size="14.00">DDG: cls</text>
</g>
<!-- 111669149725&#45;&gt;30064771156 -->
<g id="edge8" class="edge">
<title>111669149725&#45;&gt;30064771156</title>
<path fill="none" stroke="black" d="M126.49,-297.14C123.43,-280.69 121.85,-257 132.62,-240 135.08,-236.13 138.08,-232.65 141.44,-229.53"/>
<polygon fill="black" stroke="black" points="143.54,-232.33 149.27,-223.42 139.23,-226.81 143.54,-232.33"/>
<text xml:space="preserve" text-anchor="middle" x="163" y="-254.32" font-family="Times,serif" font-size="14.00">DDG: self</text>
</g>
<!-- 141733920779 -->
<g id="node5" class="node">
<title>141733920779</title>
<polygon fill="none" stroke="black" points="491.88,-130.75 340.88,-130.75 340.88,-91.25 491.88,-91.25 491.88,-130.75"/>
<text xml:space="preserve" text-anchor="start" x="382.62" y="-113.45" font-family="Times,serif" font-size="14.00">RETURN, 45</text>
<text xml:space="preserve" text-anchor="start" x="348.88" y="-97.7" font-family="Times,serif" font-size="14.00">return advance(self)</text>
</g>
<!-- 141733920779&#45;&gt;124554051600 -->
<g id="edge1" class="edge">
<title>141733920779&#45;&gt;124554051600</title>
<path fill="none" stroke="black" d="M359.74,-90.85C318.68,-76.97 262.98,-58.14 219.65,-43.49"/>
<polygon fill="black" stroke="black" points="220.94,-40.24 210.35,-40.35 218.7,-46.87 220.94,-40.24"/>
<text xml:space="preserve" text-anchor="middle" x="333.93" y="-59.95" font-family="Times,serif" font-size="14.00">DDG: &lt;RET&gt;</text>
</g>
<!-- 30064771156&#45;&gt;124554051600 -->
<g id="edge3" class="edge">
<title>30064771156&#45;&gt;124554051600</title>
<path fill="none" stroke="black" d="M169.84,-182.16C150.73,-170.23 129.32,-152.9 118.62,-130.75 105.9,-104.39 118.8,-72.16 132.16,-49.42"/>
<polygon fill="black" stroke="black" points="135.11,-51.31 137.44,-40.98 129.17,-47.6 135.11,-51.31"/>
<text xml:space="preserve" text-anchor="middle" x="149" y="-105.58" font-family="Times,serif" font-size="14.00">DDG: self</text>
</g>
<!-- 30064771156&#45;&gt;124554051600 -->
<g id="edge4" class="edge">
<title>30064771156&#45;&gt;124554051600</title>
<path fill="none" stroke="black" d="M203.28,-182.38C198.32,-160.32 189.4,-122.8 179.38,-91.25 175.05,-77.63 169.51,-62.82 164.57,-50.3"/>
<polygon fill="black" stroke="black" points="167.97,-49.37 161,-41.39 161.47,-51.97 167.97,-49.37"/>
<text xml:space="preserve" text-anchor="middle" x="251.16" y="-105.58" font-family="Times,serif" font-size="14.00">DDG: advance(self)</text>
</g>
<!-- 30064771156&#45;&gt;141733920779 -->
<g id="edge7" class="edge">
<title>30064771156&#45;&gt;141733920779</title>
<path fill="none" stroke="black" d="M252.21,-182.1C284.17,-168.46 327.32,-150.03 361.36,-135.49"/>
<polygon fill="black" stroke="black" points="362.4,-138.86 370.22,-131.71 359.65,-132.42 362.4,-138.86"/>
<text xml:space="preserve" text-anchor="middle" x="385.14" y="-151.2" font-family="Times,serif" font-size="14.00">DDG: advance(self)</text>
</g>
</g>
</svg>
