<?xml version="1.0" encoding="UTF-8" standalone="no"?>
<!DOCTYPE svg PUBLIC "-//W3C//DTD SVG 1.1//EN"
 "http://www.w3.org/Graphics/SVG/1.1/DTD/svg11.dtd">
<!-- Generated by graphviz version 13.1.2 (20250809.0930)
 -->
<!-- Title: eof&lt;metaClassAdapter&gt; Pages: 1 -->
<svg width="444pt" height="436pt"
 viewBox="0.00 0.00 444.00 436.00" xmlns="http://www.w3.org/2000/svg" xmlns:xlink="http://www.w3.org/1999/xlink">
<g id="graph0" class="graph" transform="scale(1 1) rotate(0) translate(4 432.25)">
<title>eof&lt;metaClassAdapter&gt;</title>
<polygon fill="white" stroke="none" points="-4,4 -4,-432.25 440.38,-432.25 440.38,4 -4,4"/>
<!-- 107374182417 -->
<g id="node1" class="node">
<title>107374182417</title>
<polygon fill="none" stroke="black" points="201.25,-428.25 43.5,-428.25 43.5,-388.75 201.25,-388.75 201.25,-428.25"/>
<text xml:space="preserve" text-anchor="start" x="88.62" y="-410.95" font-family="Times,serif" font-size="14.00">METHOD, 58</text>
<text xml:space="preserve" text-anchor="start" x="51.5" y="-395.2" font-family="Times,serif" font-size="14.00">eof&lt;metaClassAdapter&gt;</text>
</g>
<!-- 111669149726 -->
<g id="node3" class="node">
<title>111669149726</title>
<polygon fill="none" stroke="black" points="76.75,-279.5 0,-279.5 0,-240 76.75,-240 76.75,-279.5"/>
<text xml:space="preserve" text-anchor="start" x="8" y="-262.2" font-family="Times,serif" font-size="14.00">PARAM, 58</text>
<text xml:space="preserve" text-anchor="start" x="28.25" y="-246.45" font-family="Times,serif" font-size="14.00">cls</text>
</g>
<!-- 107374182417&#45;&gt;111669149726 -->
<g id="edge5" class="edge">
<title>107374182417&#45;&gt;111669149726</title>
<path fill="none" stroke="black" d="M100.01,-388.62C94.51,-383.24 88.95,-377.1 84.62,-370.75 67.65,-345.86 55.04,-313.75 47.31,-290.65"/>
<polygon fill="black" stroke="black" points="50.67,-289.68 44.27,-281.24 44.01,-291.83 50.67,-289.68"/>
<text xml:space="preserve" text-anchor="middle" x="101.5" y="-357.45" font-family="Times,serif" font-size="14.00">DDG: </text>
</g>
<!-- 111669149727 -->
<g id="node4" class="node">
<title>111669149727</title>
<polygon fill="none" stroke="black" points="160.75,-337 84,-337 84,-297.5 160.75,-297.5 160.75,-337"/>
<text xml:space="preserve" text-anchor="start" x="92" y="-319.7" font-family="Times,serif" font-size="14.00">PARAM, 58</text>
<text xml:space="preserve" text-anchor="start" x="108.88" y="-303.95" font-family="Times,serif" font-size="14.00">self</text>
</g>
<!-- 107374182417&#45;&gt;111669149727 -->
<g id="edge6" class="edge">
<title>107374182417&#45;&gt;111669149727</title>
<path fill="none" stroke="black" d="M122.38,-388.57C122.38,-377.05 122.38,-362.07 122.38,-348.9"/>
<polygon fill="black" stroke="black" points="125.88,-348.97 122.38,-338.97 118.88,-348.97 125.88,-348.97"/>
<text xml:space="preserve" text-anchor="middle" x="139.25" y="-357.45" font-family="Times,serif" font-size="14.00">DDG: </text>
</g>
<!-- 30064771157 -->
<g id="node6" class="node">
<title>30064771157</title>
<polygon fill="none" stroke="black" points="334.62,-222 62.12,-222 62.12,-182.5 334.62,-182.5 334.62,-222"/>
<text xml:space="preserve" text-anchor="start" x="70.12" y="-204.7" font-family="Times,serif" font-size="14.00">json_parser.py:&lt;module&gt;.Parser.eof, 58</text>
<text xml:space="preserve" text-anchor="start" x="168" y="-188.95" font-family="Times,serif" font-size="14.00">eof(self)</text>
</g>
<!-- 107374182417&#45;&gt;30064771157 -->
<g id="edge9" class="edge">
<title>107374182417&#45;&gt;30064771157</title>
<path fill="none" stroke="black" d="M145.89,-388.64C151.29,-383.34 156.56,-377.24 160.38,-370.75 185.72,-327.63 194.16,-269.11 196.98,-233.88"/>
<polygon fill="black" stroke="black" points="200.46,-234.18 197.65,-223.97 193.48,-233.71 200.46,-234.18"/>
<text xml:space="preserve" text-anchor="middle" x="204.29" y="-311.82" font-family="Times,serif" font-size="14.00">DDG: </text>
</g>
<!-- 124554051601 -->
<g id="node2" class="node">
<title>124554051601</title>
<polygon fill="none" stroke="black" points="215.75,-39.5 85,-39.5 85,0 215.75,0 215.75,-39.5"/>
<text xml:space="preserve" text-anchor="start" x="93" y="-22.2" font-family="Times,serif" font-size="14.00">METHOD_RETURN, 58</text>
<text xml:space="preserve" text-anchor="start" x="140.25" y="-6.45" font-family="Times,serif" font-size="14.00">ANY</text>
</g>
<!-- 111669149726&#45;&gt;124554051601 -->
<g id="edge2" class="edge">
<title>111669149726&#45;&gt;124554051601</title>
<path fill="none" stroke="black" d="M40.7,-239.58C42.94,-223.94 46.95,-201.41 53.38,-182.5 73.31,-123.78 79.81,-108.3 115.38,-57.5 117.62,-54.3 120.13,-51.1 122.76,-48.01"/>
<polygon fill="black" stroke="black" points="125.2,-50.52 129.31,-40.76 120.01,-45.83 125.2,-50.52"/>
<text xml:space="preserve" text-anchor="middle" x="91.95" y="-151.2" font-family="Times,serif" font-size="14.00">DDG: cls</text>
</g>
<!-- 111669149727&#45;&gt;30064771157 -->
<g id="edge8" class="edge">
<title>111669149727&#45;&gt;30064771157</title>
<path fill="none" stroke="black" d="M117.49,-297.14C114.43,-280.69 112.85,-257 123.62,-240 126.08,-236.13 129.08,-232.65 132.44,-229.53"/>
<polygon fill="black" stroke="black" points="134.54,-232.33 140.27,-223.42 130.23,-226.81 134.54,-232.33"/>
<text xml:space="preserve" text-anchor="middle" x="154" y="-254.32" font-family="Times,serif" font-size="14.00">DDG: self</text>
</g>
<!-- 141733920780 -->
<g id="node5" class="node">
<title>141733920780</title>
<polygon fill="none" stroke="black" points="436.38,-130.75 312.38,-130.75 312.38,-91.25 436.38,-91.25 436.38,-130.75"/>
<text xml:space="preserve" text-anchor="start" x="340.62" y="-113.45" font-family="Times,serif" font-size="14.00">RETURN, 58</text>
<text xml:space="preserve" text-anchor="start" x="320.38" y="-97.7" font-family="Times,serif" font-size="14.00">return eof(self)</text>
</g>
<!-- 141733920780&#45;&gt;124554051601 -->
<g id="edge1" class="edge">
<title>141733920780&#45;&gt;124554051601</title>
<path fill="none" stroke="black" d="M326.32,-90.85C291.92,-77.15 245.42,-58.62 208.86,-44.05"/>
<polygon fill="black" stroke="black" points="210.34,-40.87 199.76,-40.42 207.75,-47.38 210.34,-40.87"/>
<text xml:space="preserve" text-anchor="middle" x="309.54" y="-59.95" font-family="Times,serif" font-size="14.00">DDG: &lt;RET&gt;</text>
</g>
<!-- 30064771157&#45;&gt;124554051601 -->
<g id="edge3" class="edge">
<title>30064771157&#45;&gt;124554051601</title>
<path fill="none" stroke="black" d="M164.57,-182.07C146.73,-169.91 126.54,-152.39 116.62,-130.75 104.5,-104.29 117.11,-72.32 130.22,-49.68"/>
<polygon fill="black" stroke="black" points="133.14,-51.63 135.4,-41.28 127.18,-47.96 133.14,-51.63"/>
<text xml:space="preserve" text-anchor="middle" x="147" y="-105.58" font-family="Times,serif" font-size="14.00">DDG: self</text>
</g>
<!-- 30064771157&#45;&gt;124554051601 -->
<g id="edge4" class="edge">
<title>30064771157&#45;&gt;124554051601</title>
<path fill="none" stroke="black" d="M195.81,-182.33C192.56,-160.22 186.31,-122.67 177.38,-91.25 173.46,-77.5 167.98,-62.67 162.98,-50.18"/>
<polygon fill="black" stroke="black" points="166.37,-49.21 159.34,-41.29 159.89,-51.87 166.37,-49.21"/>
<text xml:space="preserve" text-anchor="middle" x="233.83" y="-105.58" font-family="Times,serif" font-size="14.00">DDG: eof(self)</text>
</g>
<!-- 30064771157&#45;&gt;141733920780 -->
<g id="edge7" class="edge">
<title>30064771157&#45;&gt;141733920780</title>
<path fill="none" stroke="black" d="M236.13,-182.1C262.58,-168.69 298.13,-150.66 326.56,-136.25"/>
<polygon fill="black" stroke="black" points="328,-139.44 335.33,-131.8 324.83,-133.2 328,-139.44"/>
<text xml:space="preserve" text-anchor="middle" x="344.16" y="-151.2" font-family="Times,serif" font-size="14.00">DDG: eof(self)</text>
</g>
</g>
</svg>
