<?xml version="1.0" encoding="UTF-8" standalone="no"?>
<!DOCTYPE svg PUBLIC "-//W3C//DTD SVG 1.1//EN"
 "http://www.w3.org/Graphics/SVG/1.1/DTD/svg11.dtd">
<!-- Generated by graphviz version 13.1.2 (20250809.0930)
 -->
<!-- Title: __init__ Pages: 1 -->
<svg width="2613pt" height="956pt"
 viewBox="0.00 0.00 2613.00 956.00" xmlns="http://www.w3.org/2000/svg" xmlns:xlink="http://www.w3.org/1999/xlink">
<g id="graph0" class="graph" transform="scale(1 1) rotate(0) translate(4 951.75)">
<title>__init__</title>
<polygon fill="white" stroke="none" points="-4,4 -4,-951.75 2608.75,-951.75 2608.75,4 -4,4"/>
<!-- 107374182402 -->
<g id="node1" class="node">
<title>107374182402</title>
<polygon fill="none" stroke="black" points="1609.75,-947.75 1526.25,-947.75 1526.25,-908.25 1609.75,-908.25 1609.75,-947.75"/>
<text xml:space="preserve" text-anchor="start" x="1534.25" y="-930.45" font-family="Times,serif" font-size="14.00">METHOD, 25</text>
<text xml:space="preserve" text-anchor="start" x="1541" y="-914.7" font-family="Times,serif" font-size="14.00">__init__</text>
</g>
<!-- 111669149697 -->
<g id="node3" class="node">
<title>111669149697</title>
<polygon fill="none" stroke="black" points="2342.38,-783.25 2265.62,-783.25 2265.62,-743.75 2342.38,-743.75 2342.38,-783.25"/>
<text xml:space="preserve" text-anchor="start" x="2273.62" y="-765.95" font-family="Times,serif" font-size="14.00">PARAM, 25</text>
<text xml:space="preserve" text-anchor="start" x="2290.5" y="-750.2" font-family="Times,serif" font-size="14.00">self</text>
</g>
<!-- 107374182402&#45;&gt;111669149697 -->
<g id="edge19" class="edge">
<title>107374182402&#45;&gt;111669149697</title>
<path fill="none" stroke="black" d="M1610.13,-927.94C1676.42,-928.23 1808.41,-923.97 1914,-890.25 1943.15,-880.94 1949.73,-875.13 1974,-856.5 2001.24,-835.59 1997.3,-816.64 2028,-801.25 2066.55,-781.93 2185.44,-771.69 2253.95,-767.26"/>
<polygon fill="black" stroke="black" points="2254.04,-770.76 2263.8,-766.64 2253.6,-763.77 2254.04,-770.76"/>
<text xml:space="preserve" text-anchor="middle" x="1966.25" y="-876.95" font-family="Times,serif" font-size="14.00">DDG: </text>
</g>
<!-- 111669149698 -->
<g id="node4" class="node">
<title>111669149698</title>
<polygon fill="none" stroke="black" points="1965.38,-848.62 1888.62,-848.62 1888.62,-809.12 1965.38,-809.12 1965.38,-848.62"/>
<text xml:space="preserve" text-anchor="start" x="1896.62" y="-831.33" font-family="Times,serif" font-size="14.00">PARAM, 25</text>
<text xml:space="preserve" text-anchor="start" x="1903.38" y="-815.58" font-family="Times,serif" font-size="14.00">message</text>
</g>
<!-- 107374182402&#45;&gt;111669149698 -->
<g id="edge20" class="edge">
<title>107374182402&#45;&gt;111669149698</title>
<path fill="none" stroke="black" d="M1610.11,-924.31C1678.05,-919.5 1808.51,-908.23 1851,-890.25 1869.33,-882.49 1886.93,-869.04 1900.56,-856.8"/>
<polygon fill="black" stroke="black" points="1902.89,-859.42 1907.81,-850.04 1898.11,-854.3 1902.89,-859.42"/>
<text xml:space="preserve" text-anchor="middle" x="1893.24" y="-876.95" font-family="Times,serif" font-size="14.00">DDG: </text>
</g>
<!-- 111669149699 -->
<g id="node5" class="node">
<title>111669149699</title>
<polygon fill="none" stroke="black" points="1509.38,-848.62 1432.62,-848.62 1432.62,-809.12 1509.38,-809.12 1509.38,-848.62"/>
<text xml:space="preserve" text-anchor="start" x="1440.62" y="-831.33" font-family="Times,serif" font-size="14.00">PARAM, 25</text>
<text xml:space="preserve" text-anchor="start" x="1460.88" y="-815.58" font-family="Times,serif" font-size="14.00">pos</text>
</g>
<!-- 107374182402&#45;&gt;111669149699 -->
<g id="edge21" class="edge">
<title>107374182402&#45;&gt;111669149699</title>
<path fill="none" stroke="black" d="M1526.1,-915.05C1512.74,-909.43 1498.93,-901.43 1489.25,-890.25 1481.93,-881.8 1477.55,-870.49 1474.92,-859.94"/>
<polygon fill="black" stroke="black" points="1478.42,-859.56 1473.01,-850.46 1471.55,-860.95 1478.42,-859.56"/>
<text xml:space="preserve" text-anchor="middle" x="1506.12" y="-876.95" font-family="Times,serif" font-size="14.00">DDG: </text>
</g>
<!-- 30064771086 -->
<g id="node6" class="node">
<title>30064771086</title>
<polygon fill="none" stroke="black" points="1063.75,-404.5 710.25,-404.5 710.25,-365 1063.75,-365 1063.75,-404.5"/>
<text xml:space="preserve" text-anchor="start" x="802.62" y="-387.2" font-family="Times,serif" font-size="14.00">&lt;operator&gt;.assignment, 26</text>
<text xml:space="preserve" text-anchor="start" x="718.25" y="-371.45" font-family="Times,serif" font-size="14.00">location = f&quot; at position {pos}&quot; if pos is not ...</text>
</g>
<!-- 107374182402&#45;&gt;30064771086 -->
<g id="edge24" class="edge">
<title>107374182402&#45;&gt;30064771086</title>
<path fill="none" stroke="black" d="M1525.84,-925.5C1424.19,-920.74 1174,-901.73 1174,-829.88 1174,-829.88 1174,-829.88 1174,-498.75 1174,-438.16 1116.78,-446.14 1061,-422.5 1047.63,-416.84 1033.31,-412.01 1018.83,-407.91"/>
<polygon fill="black" stroke="black" points="1019.77,-404.54 1009.2,-405.31 1017.94,-411.3 1019.77,-404.54"/>
<text xml:space="preserve" text-anchor="middle" x="1190.88" y="-643.08" font-family="Times,serif" font-size="14.00">DDG: </text>
</g>
<!-- 25769803779 -->
<g id="node7" class="node">
<title>25769803779</title>
<polygon fill="none" stroke="black" points="1018.75,-848.62 665.25,-848.62 665.25,-809.12 1018.75,-809.12 1018.75,-848.62"/>
<text xml:space="preserve" text-anchor="start" x="811.62" y="-831.33" font-family="Times,serif" font-size="14.00">BLOCK, 27</text>
<text xml:space="preserve" text-anchor="start" x="673.25" y="-815.58" font-family="Times,serif" font-size="14.00">tmp0 = super() super().__init__(f&quot;JSONParseErro...</text>
</g>
<!-- 107374182402&#45;&gt;25769803779 -->
<g id="edge25" class="edge">
<title>107374182402&#45;&gt;25769803779</title>
<path fill="none" stroke="black" d="M1526.11,-925.93C1412.41,-922.76 1099.77,-912.26 999.25,-890.25 962.32,-882.16 922.6,-866.85 892.31,-853.67"/>
<polygon fill="black" stroke="black" points="893.96,-850.57 883.4,-849.73 891.13,-856.97 893.96,-850.57"/>
<text xml:space="preserve" text-anchor="middle" x="1016.12" y="-876.95" font-family="Times,serif" font-size="14.00">DDG: </text>
</g>
<!-- 30064771095 -->
<g id="node8" class="node">
<title>30064771095</title>
<polygon fill="none" stroke="black" points="1489.38,-462 1304.62,-462 1304.62,-422.5 1489.38,-422.5 1489.38,-462"/>
<text xml:space="preserve" text-anchor="start" x="1312.62" y="-444.7" font-family="Times,serif" font-size="14.00">&lt;operator&gt;.assignment, 28</text>
<text xml:space="preserve" text-anchor="start" x="1349.75" y="-428.95" font-family="Times,serif" font-size="14.00">self.pos = pos</text>
</g>
<!-- 107374182402&#45;&gt;30064771095 -->
<g id="edge28" class="edge">
<title>107374182402&#45;&gt;30064771095</title>
<path fill="none" stroke="black" d="M1558.02,-907.86C1548.96,-888.67 1537,-858.02 1537,-829.88 1537,-829.88 1537,-829.88 1537,-544.38 1537,-507.56 1504.79,-482.79 1471.27,-466.99"/>
<polygon fill="black" stroke="black" points="1472.8,-463.84 1462.24,-462.98 1469.96,-470.24 1472.8,-463.84"/>
<text xml:space="preserve" text-anchor="middle" x="1553.88" y="-700.58" font-family="Times,serif" font-size="14.00">DDG: </text>
</g>
<!-- 30064771091 -->
<g id="node9" class="node">
<title>30064771091</title>
<polygon fill="none" stroke="black" points="1682.38,-222 1497.62,-222 1497.62,-182.5 1682.38,-182.5 1682.38,-222"/>
<text xml:space="preserve" text-anchor="start" x="1505.62" y="-204.7" font-family="Times,serif" font-size="14.00">&lt;operator&gt;.assignment, 27</text>
<text xml:space="preserve" text-anchor="start" x="1542.75" y="-188.95" font-family="Times,serif" font-size="14.00">tmp0 = super()</text>
</g>
<!-- 107374182402&#45;&gt;30064771091 -->
<g id="edge29" class="edge">
<title>107374182402&#45;&gt;30064771091</title>
<path fill="none" stroke="black" d="M1610.21,-914.9C1648.17,-901.12 1698,-874.53 1698,-829.88 1698,-829.88 1698,-829.88 1698,-590 1698,-587.57 1706.43,-241.96 1705,-240 1701.29,-234.92 1696.87,-230.53 1691.96,-226.73"/>
<polygon fill="black" stroke="black" points="1694.16,-223.99 1683.9,-221.36 1690.28,-229.81 1694.16,-223.99"/>
<text xml:space="preserve" text-anchor="middle" x="1716.09" y="-539.95" font-family="Times,serif" font-size="14.00">DDG: </text>
</g>
<!-- 30064771093 -->
<g id="node10" class="node">
<title>30064771093</title>
<polygon fill="none" stroke="black" points="2071.75,-130.75 1718.25,-130.75 1718.25,-91.25 2071.75,-91.25 2071.75,-130.75"/>
<text xml:space="preserve" text-anchor="start" x="1854.5" y="-113.45" font-family="Times,serif" font-size="14.00">__init__, 27</text>
<text xml:space="preserve" text-anchor="start" x="1726.25" y="-97.7" font-family="Times,serif" font-size="14.00">super().__init__(f&quot;JSONParseError: {message}{lo...</text>
</g>
<!-- 107374182402&#45;&gt;30064771093 -->
<g id="edge34" class="edge">
<title>107374182402&#45;&gt;30064771093</title>
<path fill="none" stroke="black" d="M1609.97,-922.64C1662.87,-914.55 1747,-891.93 1747,-829.88 1747,-829.88 1747,-829.88 1747,-201.25 1747,-169.71 1771.95,-149.03 1801.36,-135.6"/>
<polygon fill="black" stroke="black" points="1802.67,-138.85 1810.52,-131.73 1799.95,-132.4 1802.67,-138.85"/>
<text xml:space="preserve" text-anchor="middle" x="1763.88" y="-494.32" font-family="Times,serif" font-size="14.00">DDG: </text>
</g>
<!-- 30064771085 -->
<g id="node11" class="node">
<title>30064771085</title>
<polygon fill="none" stroke="black" points="340,-404.5 0,-404.5 0,-365 340,-365 340,-404.5"/>
<text xml:space="preserve" text-anchor="start" x="82.25" y="-387.2" font-family="Times,serif" font-size="14.00">&lt;operator&gt;.conditional, 26</text>
<text xml:space="preserve" text-anchor="start" x="8" y="-371.45" font-family="Times,serif" font-size="14.00">f&quot; at position {pos}&quot; if pos is not None else &quot;&quot;</text>
</g>
<!-- 107374182402&#45;&gt;30064771085 -->
<g id="edge32" class="edge">
<title>107374182402&#45;&gt;30064771085</title>
<path fill="none" stroke="black" d="M1525.95,-926.4C1289.58,-922.77 137,-901.39 137,-829.88 137,-829.88 137,-829.88 137,-498.75 137,-469.55 147.28,-437.75 156.36,-415.35"/>
<polygon fill="black" stroke="black" points="159.54,-416.82 160.22,-406.24 153.09,-414.09 159.54,-416.82"/>
<text xml:space="preserve" text-anchor="middle" x="153.88" y="-643.08" font-family="Times,serif" font-size="14.00">DDG: </text>
</g>
<!-- 30064771084 -->
<g id="node12" class="node">
<title>30064771084</title>
<polygon fill="none" stroke="black" points="1468.5,-725.75 1317.5,-725.75 1317.5,-686.25 1468.5,-686.25 1468.5,-725.75"/>
<text xml:space="preserve" text-anchor="start" x="1325.5" y="-708.45" font-family="Times,serif" font-size="14.00">&lt;operator&gt;.isNot, 26</text>
<text xml:space="preserve" text-anchor="start" x="1342.38" y="-692.7" font-family="Times,serif" font-size="14.00">pos is not None</text>
</g>
<!-- 107374182402&#45;&gt;30064771084 -->
<g id="edge39" class="edge">
<title>107374182402&#45;&gt;30064771084</title>
<path fill="none" stroke="black" d="M1525.93,-923.46C1483.62,-917.4 1420.47,-900.99 1390.25,-856.5 1366.22,-821.12 1374.26,-769.35 1383.04,-736.95"/>
<polygon fill="black" stroke="black" points="1386.39,-737.99 1385.83,-727.4 1379.67,-736.02 1386.39,-737.99"/>
<text xml:space="preserve" text-anchor="middle" x="1407.12" y="-823.45" font-family="Times,serif" font-size="14.00">DDG: </text>
</g>
<!-- 30064771083 -->
<g id="node13" class="node">
<title>30064771083</title>
<polygon fill="none" stroke="black" points="1007.12,-519.5 808.88,-519.5 808.88,-480 1007.12,-480 1007.12,-519.5"/>
<text xml:space="preserve" text-anchor="start" x="816.88" y="-502.2" font-family="Times,serif" font-size="14.00">&lt;operator&gt;.formatString, 26</text>
<text xml:space="preserve" text-anchor="start" x="837.12" y="-486.45" font-family="Times,serif" font-size="14.00">f&quot; at position {pos}&quot;</text>
</g>
<!-- 107374182402&#45;&gt;30064771083 -->
<g id="edge40" class="edge">
<title>107374182402&#45;&gt;30064771083</title>
<path fill="none" stroke="black" d="M1526.07,-925.34C1436.21,-921.45 1227.72,-910.48 1160,-890.25 1105.44,-873.95 1047,-886.82 1047,-829.88 1047,-829.88 1047,-829.88 1047,-590 1047,-558.83 1021.95,-538.04 993.11,-524.43"/>
<polygon fill="black" stroke="black" points="994.74,-521.33 984.18,-520.52 991.93,-527.74 994.74,-521.33"/>
<text xml:space="preserve" text-anchor="middle" x="1063.88" y="-700.58" font-family="Times,serif" font-size="14.00">DDG: </text>
</g>
<!-- 68719476752 -->
<g id="node14" class="node">
<title>68719476752</title>
<polygon fill="none" stroke="black" points="2147.25,-856.5 2036.75,-856.5 2036.75,-801.25 2147.25,-801.25 2147.25,-856.5"/>
<text xml:space="preserve" text-anchor="start" x="2044.75" y="-839.2" font-family="Times,serif" font-size="14.00">IDENTIFIER, 27</text>
<text xml:space="preserve" text-anchor="start" x="2075.12" y="-823.45" font-family="Times,serif" font-size="14.00">super</text>
<text xml:space="preserve" text-anchor="start" x="2068.38" y="-807.7" font-family="Times,serif" font-size="14.00">super()</text>
</g>
<!-- 107374182402&#45;&gt;68719476752 -->
<g id="edge43" class="edge">
<title>107374182402&#45;&gt;68719476752</title>
<path fill="none" stroke="black" d="M1610.16,-927.17C1709.19,-927.01 1953.87,-923.18 2028,-890.25 2040.98,-884.49 2052.97,-874.95 2062.98,-865.13"/>
<polygon fill="black" stroke="black" points="2065.44,-867.62 2069.85,-857.99 2060.4,-862.77 2065.44,-867.62"/>
<text xml:space="preserve" text-anchor="middle" x="2069.03" y="-876.95" font-family="Times,serif" font-size="14.00">DDG: </text>
</g>
<!-- 30064771089 -->
<g id="node15" class="node">
<title>30064771089</title>
<polygon fill="none" stroke="black" points="2048.25,-222 1775.75,-222 1775.75,-182.5 2048.25,-182.5 2048.25,-222"/>
<text xml:space="preserve" text-anchor="start" x="1820.88" y="-204.7" font-family="Times,serif" font-size="14.00">&lt;operator&gt;.formatString, 27</text>
<text xml:space="preserve" text-anchor="start" x="1783.75" y="-188.95" font-family="Times,serif" font-size="14.00">f&quot;JSONParseError: {message}{location}&quot;</text>
</g>
<!-- 107374182402&#45;&gt;30064771089 -->
<g id="edge44" class="edge">
<title>107374182402&#45;&gt;30064771089</title>
<path fill="none" stroke="black" d="M1609.84,-924.72C1660.36,-921.05 1741.06,-911.88 1761,-890.25 1794.86,-853.52 1809,-493.2 1809,-443.25 1809,-443.25 1809,-443.25 1809,-292.5 1809,-264.22 1831.46,-242.89 1855.4,-228.19"/>
<polygon fill="black" stroke="black" points="1857.08,-231.25 1864.01,-223.24 1853.59,-225.18 1857.08,-231.25"/>
<text xml:space="preserve" text-anchor="middle" x="1822.71" y="-539.95" font-family="Times,serif" font-size="14.00">DDG: </text>
</g>
<!-- 30064771082 -->
<g id="node16" class="node">
<title>30064771082</title>
<polygon fill="none" stroke="black" points="1413.88,-610.75 1202.12,-610.75 1202.12,-571.25 1413.88,-571.25 1413.88,-610.75"/>
<text xml:space="preserve" text-anchor="start" x="1210.12" y="-593.45" font-family="Times,serif" font-size="14.00">&lt;operator&gt;.formattedValue, 26</text>
<text xml:space="preserve" text-anchor="start" x="1291.12" y="-577.7" font-family="Times,serif" font-size="14.00">{pos}</text>
</g>
<!-- 107374182402&#45;&gt;30064771082 -->
<g id="edge48" class="edge">
<title>107374182402&#45;&gt;30064771082</title>
<path fill="none" stroke="black" d="M1526,-924.29C1491.17,-920.54 1441.34,-911.59 1403,-890.25 1384.67,-880.05 1381.99,-873.71 1370,-856.5 1333.24,-803.73 1324.83,-787.82 1308,-725.75 1301.29,-700.99 1304.11,-693.88 1303,-668.25 1302.24,-650.71 1301.81,-646.27 1303,-628.75 1303.14,-626.67 1303.33,-624.53 1303.54,-622.38"/>
<polygon fill="black" stroke="black" points="1307.01,-622.87 1304.73,-612.53 1300.06,-622.03 1307.01,-622.87"/>
<text xml:space="preserve" text-anchor="middle" x="1343.01" y="-758.08" font-family="Times,serif" font-size="14.00">DDG: </text>
</g>
<!-- 30064771087 -->
<g id="node17" class="node">
<title>30064771087</title>
<polygon fill="none" stroke="black" points="2026.88,-668.25 1815.12,-668.25 1815.12,-628.75 2026.88,-628.75 2026.88,-668.25"/>
<text xml:space="preserve" text-anchor="start" x="1823.12" y="-650.95" font-family="Times,serif" font-size="14.00">&lt;operator&gt;.formattedValue, 27</text>
<text xml:space="preserve" text-anchor="start" x="1890.62" y="-635.2" font-family="Times,serif" font-size="14.00">{message}</text>
</g>
<!-- 107374182402&#45;&gt;30064771087 -->
<g id="edge50" class="edge">
<title>107374182402&#45;&gt;30064771087</title>
<path fill="none" stroke="black" d="M1609.85,-925.19C1669.47,-921.85 1774.98,-912.85 1805,-890.25 1839.83,-864.03 1827.45,-840.59 1846.25,-801.25 1866.76,-758.35 1891.22,-709.01 1906.44,-678.54"/>
<polygon fill="black" stroke="black" points="1909.4,-680.46 1910.74,-669.95 1903.13,-677.33 1909.4,-680.46"/>
<text xml:space="preserve" text-anchor="middle" x="1863.12" y="-823.45" font-family="Times,serif" font-size="14.00">DDG: </text>
</g>
<!-- 30064771088 -->
<g id="node18" class="node">
<title>30064771088</title>
<polygon fill="none" stroke="black" points="1563.88,-313.25 1352.12,-313.25 1352.12,-273.75 1563.88,-273.75 1563.88,-313.25"/>
<text xml:space="preserve" text-anchor="start" x="1360.12" y="-295.95" font-family="Times,serif" font-size="14.00">&lt;operator&gt;.formattedValue, 27</text>
<text xml:space="preserve" text-anchor="start" x="1424.25" y="-280.2" font-family="Times,serif" font-size="14.00">{location}</text>
</g>
<!-- 107374182402&#45;&gt;30064771088 -->
<g id="edge52" class="edge">
<title>107374182402&#45;&gt;30064771088</title>
<path fill="none" stroke="black" d="M1577.98,-907.86C1587.04,-888.67 1599,-858.02 1599,-829.88 1599,-829.88 1599,-829.88 1599,-441.25 1599,-386.41 1547.17,-344.13 1506.36,-319.33"/>
<polygon fill="black" stroke="black" points="1508.23,-316.37 1497.83,-314.32 1504.69,-322.41 1508.23,-316.37"/>
<text xml:space="preserve" text-anchor="middle" x="1615.88" y="-585.58" font-family="Times,serif" font-size="14.00">DDG: </text>
</g>
<!-- 124554051586 -->
<g id="node2" class="node">
<title>124554051586</title>
<polygon fill="none" stroke="black" points="1464.38,-39.5 1333.62,-39.5 1333.62,0 1464.38,0 1464.38,-39.5"/>
<text xml:space="preserve" text-anchor="start" x="1341.62" y="-22.2" font-family="Times,serif" font-size="14.00">METHOD_RETURN, 25</text>
<text xml:space="preserve" text-anchor="start" x="1388.88" y="-6.45" font-family="Times,serif" font-size="14.00">ANY</text>
</g>
<!-- 111669149697&#45;&gt;124554051586 -->
<g id="edge1" class="edge">
<title>111669149697&#45;&gt;124554051586</title>
<path fill="none" stroke="black" d="M2342.83,-761.34C2410.75,-757.02 2544,-737.35 2544,-649.5 2544,-649.5 2544,-649.5 2544,-110 2544,-22.39 2440.57,-70.94 2354,-57.5 2185.51,-31.34 1672,-23.5 1476.07,-21.42"/>
<polygon fill="black" stroke="black" points="1476.29,-17.92 1466.26,-21.32 1476.22,-24.92 1476.29,-17.92"/>
<text xml:space="preserve" text-anchor="middle" x="2574.38" y="-379.32" font-family="Times,serif" font-size="14.00">DDG: self</text>
</g>
<!-- 111669149698&#45;&gt;30064771087 -->
<g id="edge49" class="edge">
<title>111669149698&#45;&gt;30064771087</title>
<path fill="none" stroke="black" d="M1926.36,-808.79C1925.32,-777.89 1923.26,-716.67 1922.02,-679.78"/>
<polygon fill="black" stroke="black" points="1925.53,-680.11 1921.7,-670.23 1918.54,-680.35 1925.53,-680.11"/>
<text xml:space="preserve" text-anchor="middle" x="1965.98" y="-758.08" font-family="Times,serif" font-size="14.00">DDG: message</text>
</g>
<!-- 111669149699&#45;&gt;30064771084 -->
<g id="edge38" class="edge">
<title>111669149699&#45;&gt;30064771084</title>
<path fill="none" stroke="black" d="M1458.64,-808.72C1445.92,-789.01 1425.95,-758.06 1411.38,-735.48"/>
<polygon fill="black" stroke="black" points="1414.49,-733.84 1406.12,-727.34 1408.6,-737.64 1414.49,-733.84"/>
<text xml:space="preserve" text-anchor="middle" x="1468.28" y="-758.08" font-family="Times,serif" font-size="14.00">DDG: pos</text>
</g>
<!-- 30064771086&#45;&gt;124554051586 -->
<g id="edge5" class="edge">
<title>30064771086&#45;&gt;124554051586</title>
<path fill="none" stroke="black" d="M710.02,-366.75C615.09,-347.58 505.69,-307.13 446.25,-222 436.2,-207.61 436.04,-196.78 446.25,-182.5 547.77,-40.52 1113.63,-22.48 1321.98,-20.71"/>
<polygon fill="black" stroke="black" points="1321.92,-24.21 1331.89,-20.63 1321.87,-17.21 1321.92,-24.21"/>
<text xml:space="preserve" text-anchor="middle" x="625.12" y="-196.82" font-family="Times,serif" font-size="14.00">DDG: f&quot; at position {pos}&quot; if pos is not None else &quot;&quot;</text>
</g>
<!-- 30064771086&#45;&gt;124554051586 -->
<g id="edge6" class="edge">
<title>30064771086&#45;&gt;124554051586</title>
<path fill="none" stroke="black" d="M863.94,-364.66C846.66,-348.11 826,-322.46 826,-294.5 826,-294.5 826,-294.5 826,-110 826,-60.4 1165.55,-34.27 1321.89,-24.88"/>
<polygon fill="black" stroke="black" points="1321.98,-28.38 1331.76,-24.29 1321.57,-21.39 1321.98,-28.38"/>
<text xml:space="preserve" text-anchor="middle" x="1042" y="-196.82" font-family="Times,serif" font-size="14.00">DDG: location = f&quot; at position {pos}&quot; if pos is not None else &quot;&quot;</text>
</g>
<!-- 30064771086&#45;&gt;30064771088 -->
<g id="edge51" class="edge">
<title>30064771086&#45;&gt;30064771088</title>
<path fill="none" stroke="black" d="M1009.84,-364.55C1107.74,-349.25 1243.93,-327.96 1340.42,-312.88"/>
<polygon fill="black" stroke="black" points="1340.85,-316.35 1350.19,-311.35 1339.77,-309.44 1340.85,-316.35"/>
<text xml:space="preserve" text-anchor="middle" x="1250.56" y="-333.7" font-family="Times,serif" font-size="14.00">DDG: location</text>
</g>
<!-- 30064771095&#45;&gt;124554051586 -->
<g id="edge16" class="edge">
<title>30064771095&#45;&gt;124554051586</title>
<path fill="none" stroke="black" d="M1333.31,-422.01C1296.29,-407.45 1252.12,-383.58 1227,-347 1199.89,-307.52 1187,-279.39 1214.25,-240 1227.15,-221.35 1246.59,-238.64 1262,-222 1313.75,-166.12 1259.12,-114.17 1310,-57.5 1314.05,-52.99 1318.73,-49.02 1323.8,-45.53"/>
<polygon fill="black" stroke="black" points="1325.26,-48.74 1331.97,-40.54 1321.61,-42.76 1325.26,-48.74"/>
<text xml:space="preserve" text-anchor="middle" x="1258.12" y="-242.45" font-family="Times,serif" font-size="14.00">DDG: self.pos</text>
</g>
<!-- 30064771095&#45;&gt;124554051586 -->
<g id="edge17" class="edge">
<title>30064771095&#45;&gt;124554051586</title>
<path fill="none" stroke="black" d="M1384.45,-422.22C1363.58,-388.69 1324,-316.21 1324,-248.88 1324,-248.88 1324,-248.88 1324,-110 1324,-84.78 1341.77,-62.97 1360.01,-47.22"/>
<polygon fill="black" stroke="black" points="1362.19,-49.96 1367.75,-40.94 1357.78,-44.52 1362.19,-49.96"/>
<text xml:space="preserve" text-anchor="middle" x="1351.11" y="-242.45" font-family="Times,serif" font-size="14.00">DDG: pos</text>
</g>
<!-- 30064771095&#45;&gt;124554051586 -->
<g id="edge18" class="edge">
<title>30064771095&#45;&gt;124554051586</title>
<path fill="none" stroke="black" d="M1443.94,-422.15C1486.37,-402.04 1546.17,-365.94 1573,-313.25 1580.97,-297.61 1583.83,-287.57 1573,-273.75 1552.32,-247.37 1525.56,-277.14 1499.75,-255.75 1459.52,-222.4 1484.15,-189.15 1451,-148.75 1442.32,-138.17 1433.92,-141.92 1426,-130.75 1409.33,-107.26 1402.9,-74.64 1400.45,-51.03"/>
<polygon fill="black" stroke="black" points="1403.94,-50.78 1399.62,-41.11 1396.96,-51.36 1403.94,-50.78"/>
<text xml:space="preserve" text-anchor="middle" x="1563.88" y="-242.45" font-family="Times,serif" font-size="14.00">DDG: self.pos = pos</text>
</g>
<!-- 30064771091&#45;&gt;124554051586 -->
<g id="edge7" class="edge">
<title>30064771091&#45;&gt;124554051586</title>
<path fill="none" stroke="black" d="M1540.55,-182.11C1514.39,-170.21 1483.02,-152.93 1460,-130.75 1436.52,-108.12 1419.67,-74.46 1409.71,-50.34"/>
<polygon fill="black" stroke="black" points="1412.99,-49.1 1406.06,-41.08 1406.48,-51.67 1412.99,-49.1"/>
<text xml:space="preserve" text-anchor="middle" x="1500.5" y="-105.58" font-family="Times,serif" font-size="14.00">DDG: super()</text>
</g>
<!-- 30064771091&#45;&gt;124554051586 -->
<g id="edge8" class="edge">
<title>30064771091&#45;&gt;124554051586</title>
<path fill="none" stroke="black" d="M1586.97,-182.04C1581.98,-157.11 1569.57,-114.1 1541,-91.25 1509.14,-65.77 1486.92,-92.58 1451,-73.25 1439.61,-67.12 1429.13,-57.68 1420.61,-48.49"/>
<polygon fill="black" stroke="black" points="1423.28,-46.23 1414.07,-41 1418.01,-50.83 1423.28,-46.23"/>
<text xml:space="preserve" text-anchor="middle" x="1634.14" y="-105.58" font-family="Times,serif" font-size="14.00">DDG: tmp0 = super()</text>
</g>
<!-- 30064771091&#45;&gt;30064771093 -->
<g id="edge33" class="edge">
<title>30064771091&#45;&gt;30064771093</title>
<path fill="none" stroke="black" d="M1614.15,-182.12C1629.83,-170.66 1651.21,-156.81 1672.25,-148.75 1687.56,-142.88 1703.82,-137.95 1720.3,-133.81"/>
<polygon fill="black" stroke="black" points="1720.78,-137.3 1729.69,-131.55 1719.15,-130.49 1720.78,-137.3"/>
<text xml:space="preserve" text-anchor="middle" x="1702.62" y="-151.2" font-family="Times,serif" font-size="14.00">DDG: tmp0</text>
</g>
<!-- 30064771093&#45;&gt;124554051586 -->
<g id="edge9" class="edge">
<title>30064771093&#45;&gt;124554051586</title>
<path fill="none" stroke="black" d="M1895.88,-90.91C1895.29,-79.47 1892.42,-65.61 1883,-57.5 1852.9,-31.58 1604.56,-23.9 1475.81,-21.66"/>
<polygon fill="black" stroke="black" points="1476.05,-18.16 1466,-21.5 1475.94,-25.16 1476.05,-18.16"/>
<text xml:space="preserve" text-anchor="middle" x="1923.13" y="-59.95" font-family="Times,serif" font-size="14.00">DDG: tmp0</text>
</g>
<!-- 30064771093&#45;&gt;124554051586 -->
<g id="edge14" class="edge">
<title>30064771093&#45;&gt;124554051586</title>
<path fill="none" stroke="black" d="M1941.05,-90.89C1957.41,-81.46 1969.29,-69.56 1958,-57.5 1925.78,-23.09 1621.75,-19.72 1476.09,-20.11"/>
<polygon fill="black" stroke="black" points="1476.12,-16.61 1466.13,-20.15 1476.14,-23.61 1476.12,-16.61"/>
<text xml:space="preserve" text-anchor="middle" x="2107.57" y="-59.95" font-family="Times,serif" font-size="14.00">DDG: f&quot;JSONParseError: {message}{location}&quot;</text>
</g>
<!-- 30064771093&#45;&gt;124554051586 -->
<g id="edge15" class="edge">
<title>30064771093&#45;&gt;124554051586</title>
<path fill="none" stroke="black" d="M1717.8,-93.25C1710.1,-92.56 1702.47,-91.9 1695,-91.25 1644.42,-86.88 1514.35,-92.19 1467.25,-73.25 1456.99,-69.13 1456.7,-64.32 1448,-57.5 1443.46,-53.94 1438.65,-50.24 1433.87,-46.62"/>
<polygon fill="black" stroke="black" points="1436.14,-43.95 1426.05,-40.72 1431.93,-49.54 1436.14,-43.95"/>
<text xml:space="preserve" text-anchor="middle" x="1673.12" y="-59.95" font-family="Times,serif" font-size="14.00">DDG: super().__init__(f&quot;JSONParseError: {message}{location}&quot;)</text>
</g>
<!-- 30064771085&#45;&gt;124554051586 -->
<g id="edge2" class="edge">
<title>30064771085&#45;&gt;124554051586</title>
<path fill="none" stroke="black" d="M76.13,-364.63C41.71,-351.66 11,-330.11 11,-294.5 11,-294.5 11,-294.5 11,-110 11,-36.42 95.56,-70.4 168,-57.5 280.98,-37.37 1070.31,-25.16 1322.04,-21.74"/>
<polygon fill="black" stroke="black" points="1321.8,-25.24 1331.75,-21.61 1321.71,-18.24 1321.8,-25.24"/>
<text xml:space="preserve" text-anchor="middle" x="78.5" y="-196.82" font-family="Times,serif" font-size="14.00">DDG: pos is not None</text>
</g>
<!-- 30064771085&#45;&gt;124554051586 -->
<g id="edge4" class="edge">
<title>30064771085&#45;&gt;124554051586</title>
<path fill="none" stroke="black" d="M174.06,-364.7C177.54,-346.7 182,-318.89 182,-294.5 182,-294.5 182,-294.5 182,-110 182,-22.39 285.41,-70.82 372,-57.5 554.91,-29.35 1115.79,-22.69 1321.94,-21.18"/>
<polygon fill="black" stroke="black" points="1321.76,-24.68 1331.74,-21.11 1321.71,-17.68 1321.76,-24.68"/>
<text xml:space="preserve" text-anchor="middle" x="269.75" y="-196.82" font-family="Times,serif" font-size="14.00">DDG: f&quot; at position {pos}&quot;</text>
</g>
<!-- 30064771084&#45;&gt;30064771095 -->
<g id="edge26" class="edge">
<title>30064771084&#45;&gt;30064771095</title>
<path fill="none" stroke="black" d="M1416.17,-686.05C1420.98,-680.84 1425.38,-674.79 1428,-668.25 1454.47,-602.07 1428.1,-517.17 1410.32,-472.98"/>
<polygon fill="black" stroke="black" points="1413.57,-471.68 1406.49,-463.8 1407.11,-474.38 1413.57,-471.68"/>
<text xml:space="preserve" text-anchor="middle" x="1466.22" y="-585.58" font-family="Times,serif" font-size="14.00">DDG: pos</text>
</g>
<!-- 30064771084&#45;&gt;30064771083 -->
<g id="edge54" class="edge">
<title>30064771084&#45;&gt;30064771083</title>
<path fill="none" stroke="black" d="M1345.79,-685.83C1331.98,-680.19 1316.88,-674 1303,-668.25 1261.13,-650.91 1251.21,-645.24 1209,-628.75 1187.1,-620.19 1180.03,-621.75 1159.25,-610.75 1110.16,-584.77 1108.41,-560.82 1058,-537.5 1045.52,-531.73 1032.02,-526.79 1018.41,-522.59"/>
<polygon fill="black" stroke="black" points="1019.52,-519.27 1008.94,-519.8 1017.54,-525.98 1019.52,-519.27"/>
<text xml:space="preserve" text-anchor="middle" x="1176.12" y="-585.58" font-family="Times,serif" font-size="14.00">CDG: </text>
</g>
<!-- 30064771084&#45;&gt;30064771082 -->
<g id="edge47" class="edge">
<title>30064771084&#45;&gt;30064771082</title>
<path fill="none" stroke="black" d="M1339.7,-685.92C1332.14,-681.18 1325.18,-675.36 1320,-668.25 1310.47,-655.18 1307.25,-637.48 1306.52,-622.42"/>
<polygon fill="black" stroke="black" points="1310.03,-622.53 1306.41,-612.57 1303.03,-622.61 1310.03,-622.53"/>
<text xml:space="preserve" text-anchor="middle" x="1347" y="-643.08" font-family="Times,serif" font-size="14.00">DDG: pos</text>
</g>
<!-- 30064771084&#45;&gt;30064771082 -->
<g id="edge53" class="edge">
<title>30064771084&#45;&gt;30064771082</title>
<path fill="none" stroke="black" d="M1392.41,-685.95C1391,-669.32 1386.69,-645.32 1374,-628.75 1370.91,-624.72 1367.25,-621.06 1363.25,-617.77"/>
<polygon fill="black" stroke="black" points="1365.44,-615.03 1355.29,-612 1361.34,-620.7 1365.44,-615.03"/>
<text xml:space="preserve" text-anchor="middle" x="1406.74" y="-643.08" font-family="Times,serif" font-size="14.00">CDG: </text>
</g>
<!-- 30064771083&#45;&gt;124554051586 -->
<g id="edge3" class="edge">
<title>30064771083&#45;&gt;124554051586</title>
<path fill="none" stroke="black" d="M808.61,-491.88C641.71,-475.3 329.06,-420.03 390.5,-240 417.71,-160.27 435.38,-133.96 508,-91.25 581.18,-48.22 611.67,-67.23 696,-57.5 922.57,-31.35 1192.39,-23.79 1322,-21.62"/>
<polygon fill="black" stroke="black" points="1321.89,-25.12 1331.84,-21.46 1321.78,-18.12 1321.89,-25.12"/>
<text xml:space="preserve" text-anchor="middle" x="424.25" y="-242.45" font-family="Times,serif" font-size="14.00">DDG: {pos}</text>
</g>
<!-- 30064771083&#45;&gt;30064771086 -->
<g id="edge22" class="edge">
<title>30064771083&#45;&gt;30064771086</title>
<path fill="none" stroke="black" d="M922.83,-479.5C926.18,-474.12 929.26,-468.08 931,-462 935.84,-445.13 938.44,-438.4 931,-422.5 929.44,-419.16 927.41,-416.03 925.08,-413.1"/>
<polygon fill="black" stroke="black" points="927.82,-410.9 918.41,-406.05 922.74,-415.71 927.82,-410.9"/>
<text xml:space="preserve" text-anchor="middle" x="996.4" y="-436.82" font-family="Times,serif" font-size="14.00">DDG: &#160;at position </text>
</g>
<!-- 30064771083&#45;&gt;30064771086 -->
<g id="edge23" class="edge">
<title>30064771083&#45;&gt;30064771086</title>
<path fill="none" stroke="black" d="M874.1,-479.64C868.2,-474.7 862.88,-468.81 859.5,-462 851.69,-446.28 853.96,-439.16 859.5,-422.5 860.46,-419.62 861.74,-416.79 863.23,-414.05"/>
<polygon fill="black" stroke="black" points="866,-416.2 868.48,-405.9 860.12,-412.4 866,-416.2"/>
<text xml:space="preserve" text-anchor="middle" x="893.25" y="-436.82" font-family="Times,serif" font-size="14.00">DDG: {pos}</text>
</g>
<!-- 30064771083&#45;&gt;30064771085 -->
<g id="edge30" class="edge">
<title>30064771083&#45;&gt;30064771085</title>
<path fill="none" stroke="black" d="M808.49,-498.18C638.94,-496.45 307.9,-489.55 262.5,-462 245.04,-451.4 253.78,-436.6 239,-422.5 234.58,-418.28 229.58,-414.42 224.35,-410.9"/>
<polygon fill="black" stroke="black" points="226.37,-408.04 216.02,-405.76 222.69,-413.99 226.37,-408.04"/>
<text xml:space="preserve" text-anchor="middle" x="323.25" y="-436.82" font-family="Times,serif" font-size="14.00">DDG: &#160;at position </text>
</g>
<!-- 30064771083&#45;&gt;30064771085 -->
<g id="edge31" class="edge">
<title>30064771083&#45;&gt;30064771085</title>
<path fill="none" stroke="black" d="M808.62,-497.4C611.76,-494.25 189.24,-484.85 167.5,-462 156.04,-449.96 156.42,-431.39 159.78,-415.59"/>
<polygon fill="black" stroke="black" points="163.1,-416.74 162.25,-406.18 156.33,-414.96 163.1,-416.74"/>
<text xml:space="preserve" text-anchor="middle" x="201.25" y="-436.82" font-family="Times,serif" font-size="14.00">DDG: {pos}</text>
</g>
<!-- 30064771089&#45;&gt;124554051586 -->
<g id="edge11" class="edge">
<title>30064771089&#45;&gt;124554051586</title>
<path fill="none" stroke="black" d="M2048.5,-190.59C2093.78,-184.96 2137.38,-176.63 2156,-164.5 2188.31,-143.45 2172.09,-114.96 2202.5,-91.25 2222.62,-75.57 2242.06,-93.92 2257,-73.25 2261.1,-67.58 2261.84,-62.55 2257,-57.5 2230.21,-29.53 1681.47,-22.75 1475.88,-21.19"/>
<polygon fill="black" stroke="black" points="1476.13,-17.7 1466.11,-21.12 1476.08,-24.69 1476.13,-17.7"/>
<text xml:space="preserve" text-anchor="middle" x="2249.75" y="-105.58" font-family="Times,serif" font-size="14.00">DDG: {message}</text>
</g>
<!-- 30064771089&#45;&gt;124554051586 -->
<g id="edge13" class="edge">
<title>30064771089&#45;&gt;124554051586</title>
<path fill="none" stroke="black" d="M2048.61,-195.23C2146.9,-187.57 2267.19,-170.19 2297,-130.75 2317.66,-103.42 2303.11,-73.84 2273,-57.5 2204.02,-20.05 1676.46,-19.12 1475.98,-20.15"/>
<polygon fill="black" stroke="black" points="1476.17,-16.65 1466.19,-20.2 1476.21,-23.65 1476.17,-16.65"/>
<text xml:space="preserve" text-anchor="middle" x="2357.28" y="-105.58" font-family="Times,serif" font-size="14.00">DDG: {location}</text>
</g>
<!-- 30064771089&#45;&gt;30064771093 -->
<g id="edge35" class="edge">
<title>30064771089&#45;&gt;30064771093</title>
<path fill="none" stroke="black" d="M1989.38,-182.03C2006.24,-173.97 2016.34,-163.07 2006,-148.75 2003.09,-144.72 1999.73,-141.13 1996.01,-137.93"/>
<polygon fill="black" stroke="black" points="1998.13,-135.14 1988.01,-132.03 1993.98,-140.78 1998.13,-135.14"/>
<text xml:space="preserve" text-anchor="middle" x="2081.05" y="-151.2" font-family="Times,serif" font-size="14.00">DDG: JSONParseError: </text>
</g>
<!-- 30064771089&#45;&gt;30064771093 -->
<g id="edge36" class="edge">
<title>30064771089&#45;&gt;30064771093</title>
<path fill="none" stroke="black" d="M1806.91,-182.15C1799.48,-177.43 1792.83,-171.63 1787.5,-164.5 1778.95,-153.06 1782.75,-143.98 1792.87,-136.82"/>
<polygon fill="black" stroke="black" points="1794.44,-139.95 1801.42,-131.98 1790.99,-133.86 1794.44,-139.95"/>
<text xml:space="preserve" text-anchor="middle" x="1834.75" y="-151.2" font-family="Times,serif" font-size="14.00">DDG: {message}</text>
</g>
<!-- 30064771089&#45;&gt;30064771093 -->
<g id="edge37" class="edge">
<title>30064771089&#45;&gt;30064771093</title>
<path fill="none" stroke="black" d="M1905.47,-182.35C1903.71,-176.67 1901.96,-170.38 1900.75,-164.5 1899.29,-157.4 1898.18,-149.67 1897.35,-142.38"/>
<polygon fill="black" stroke="black" points="1900.85,-142.2 1896.37,-132.59 1893.88,-142.89 1900.85,-142.2"/>
<text xml:space="preserve" text-anchor="middle" x="1951.38" y="-151.2" font-family="Times,serif" font-size="14.00">DDG: {location}</text>
</g>
<!-- 30064771082&#45;&gt;30064771095 -->
<g id="edge27" class="edge">
<title>30064771082&#45;&gt;30064771095</title>
<path fill="none" stroke="black" d="M1319.64,-570.82C1334.89,-545.66 1361.8,-501.29 1379.51,-472.08"/>
<polygon fill="black" stroke="black" points="1382.38,-474.1 1384.58,-463.73 1376.4,-470.47 1382.38,-474.1"/>
<text xml:space="preserve" text-anchor="middle" x="1366.33" y="-539.95" font-family="Times,serif" font-size="14.00">DDG: pos</text>
</g>
<!-- 30064771082&#45;&gt;30064771083 -->
<g id="edge41" class="edge">
<title>30064771082&#45;&gt;30064771083</title>
<path fill="none" stroke="black" d="M1227.65,-570.8C1184.77,-560.66 1131.07,-548.15 1083,-537.5 1060.11,-532.43 1035.49,-527.15 1012.15,-522.22"/>
<polygon fill="black" stroke="black" points="1013.16,-518.86 1002.66,-520.23 1011.72,-525.71 1013.16,-518.86"/>
<text xml:space="preserve" text-anchor="middle" x="1178.13" y="-539.95" font-family="Times,serif" font-size="14.00">DDG: pos</text>
</g>
<!-- 30064771087&#45;&gt;124554051586 -->
<g id="edge10" class="edge">
<title>30064771087&#45;&gt;124554051586</title>
<path fill="none" stroke="black" d="M2027.33,-648.29C2181.27,-646.52 2448,-631.21 2448,-546.38 2448,-546.38 2448,-546.38 2448,-110 2448,-83.52 2407.58,-75.71 2297,-57.5 2140.07,-31.66 1663.63,-23.67 1476.06,-21.49"/>
<polygon fill="black" stroke="black" points="1476.21,-17.99 1466.18,-21.37 1476.13,-24.99 1476.21,-17.99"/>
<text xml:space="preserve" text-anchor="middle" x="2488.5" y="-333.7" font-family="Times,serif" font-size="14.00">DDG: message</text>
</g>
<!-- 30064771087&#45;&gt;30064771089 -->
<g id="edge45" class="edge">
<title>30064771087&#45;&gt;30064771089</title>
<path fill="none" stroke="black" d="M1918.9,-628.52C1916.84,-608.21 1914,-575.06 1914,-546.38 1914,-546.38 1914,-546.38 1914,-292.5 1914,-272.95 1913.51,-251 1913.02,-233.76"/>
<polygon fill="black" stroke="black" points="1916.52,-233.8 1912.72,-223.91 1909.53,-234.01 1916.52,-233.8"/>
<text xml:space="preserve" text-anchor="middle" x="1954.5" y="-436.82" font-family="Times,serif" font-size="14.00">DDG: message</text>
</g>
<!-- 30064771088&#45;&gt;124554051586 -->
<g id="edge12" class="edge">
<title>30064771088&#45;&gt;124554051586</title>
<path fill="none" stroke="black" d="M1437.68,-273.57C1414.49,-250.44 1377.89,-208.87 1363.25,-164.5 1354.87,-139.11 1344.97,-142.76 1376,-57.5 1376.93,-54.93 1378.06,-52.36 1379.32,-49.82"/>
<polygon fill="black" stroke="black" points="1382.37,-51.55 1384.23,-41.12 1376.27,-48.11 1382.37,-51.55"/>
<text xml:space="preserve" text-anchor="middle" x="1407.12" y="-151.2" font-family="Times,serif" font-size="14.00">DDG: location</text>
</g>
<!-- 30064771088&#45;&gt;30064771089 -->
<g id="edge46" class="edge">
<title>30064771088&#45;&gt;30064771089</title>
<path fill="none" stroke="black" d="M1546.11,-273.27C1593.75,-263.04 1653.65,-250.45 1707.25,-240 1734.04,-234.77 1762.86,-229.43 1790.18,-224.5"/>
<polygon fill="black" stroke="black" points="1790.66,-227.96 1799.89,-222.75 1789.42,-221.08 1790.66,-227.96"/>
<text xml:space="preserve" text-anchor="middle" x="1751.12" y="-242.45" font-family="Times,serif" font-size="14.00">DDG: location</text>
</g>
<!-- 30064771078 -->
<g id="node19" class="node">
<title>30064771078</title>
<polygon fill="none" stroke="black" points="2152.12,-946 2061.88,-946 2061.88,-910 2152.12,-910 2152.12,-946"/>
<text xml:space="preserve" text-anchor="middle" x="2107" y="-922.58" font-family="Times,serif" font-size="14.00">30064771078</text>
</g>
<!-- 30064771078&#45;&gt;68719476752 -->
<g id="edge42" class="edge">
<title>30064771078&#45;&gt;68719476752</title>
<path fill="none" stroke="black" d="M2104.32,-909.64C2102.54,-898.1 2100.12,-882.48 2097.91,-868.13"/>
<polygon fill="black" stroke="black" points="2101.4,-867.83 2096.42,-858.49 2094.49,-868.9 2101.4,-867.83"/>
<text xml:space="preserve" text-anchor="middle" x="2135.03" y="-876.95" font-family="Times,serif" font-size="14.00">DDG: super</text>
</g>
</g>
</svg>
