<?xml version="1.0" encoding="UTF-8" standalone="no"?>
<!DOCTYPE svg PUBLIC "-//W3C//DTD SVG 1.1//EN"
 "http://www.w3.org/Graphics/SVG/1.1/DTD/svg11.dtd">
<!-- Generated by graphviz version 13.1.2 (20250809.0930)
 -->
<!-- Title: __init__ Pages: 1 -->
<svg width="993pt" height="230pt"
 viewBox="0.00 0.00 993.00 230.00" xmlns="http://www.w3.org/2000/svg" xmlns:xlink="http://www.w3.org/1999/xlink">
<g id="graph0" class="graph" transform="scale(1 1) rotate(0) translate(4 226)">
<title>__init__</title>
<polygon fill="white" stroke="none" points="-4,4 -4,-226 988.91,-226 988.91,4 -4,4"/>
<!-- 107374182433 -->
<g id="node1" class="node">
<title>107374182433</title>
<polygon fill="none" stroke="black" points="311.88,-222 221.62,-222 221.62,-182.5 311.88,-182.5 311.88,-222"/>
<text xml:space="preserve" text-anchor="start" x="229.62" y="-204.7" font-family="Times,serif" font-size="14.00">METHOD, 344</text>
<text xml:space="preserve" text-anchor="start" x="239.75" y="-188.95" font-family="Times,serif" font-size="14.00">__init__</text>
</g>
<!-- 111669149747 -->
<g id="node3" class="node">
<title>111669149747</title>
<polygon fill="none" stroke="black" points="83.5,-130.75 0,-130.75 0,-91.25 83.5,-91.25 83.5,-130.75"/>
<text xml:space="preserve" text-anchor="start" x="8" y="-113.45" font-family="Times,serif" font-size="14.00">PARAM, 344</text>
<text xml:space="preserve" text-anchor="start" x="28.25" y="-97.7" font-family="Times,serif" font-size="14.00">self</text>
</g>
<!-- 107374182433&#45;&gt;111669149747 -->
<g id="edge9" class="edge">
<title>107374182433&#45;&gt;111669149747</title>
<path fill="none" stroke="black" d="M221.22,-183.19C184.48,-168.62 132.76,-148.1 94.28,-132.83"/>
<polygon fill="black" stroke="black" points="95.79,-129.67 85.2,-129.24 93.21,-136.18 95.79,-129.67"/>
<text xml:space="preserve" text-anchor="middle" x="184.6" y="-151.2" font-family="Times,serif" font-size="14.00">DDG: </text>
</g>
<!-- 30064771586 -->
<g id="node4" class="node">
<title>30064771586</title>
<polygon fill="none" stroke="black" points="296.5,-130.75 105,-130.75 105,-91.25 296.5,-91.25 296.5,-130.75"/>
<text xml:space="preserve" text-anchor="start" x="113" y="-113.45" font-family="Times,serif" font-size="14.00">&lt;operator&gt;.assignment, 345</text>
<text xml:space="preserve" text-anchor="start" x="150.12" y="-97.7" font-family="Times,serif" font-size="14.00">self.passed = 0</text>
</g>
<!-- 107374182433&#45;&gt;30064771586 -->
<g id="edge10" class="edge">
<title>107374182433&#45;&gt;30064771586</title>
<path fill="none" stroke="black" d="M252.75,-182.32C243.71,-170.1 231.79,-153.97 221.64,-140.25"/>
<polygon fill="black" stroke="black" points="224.61,-138.38 215.85,-132.42 218.99,-142.55 224.61,-138.38"/>
<text xml:space="preserve" text-anchor="middle" x="254.58" y="-151.2" font-family="Times,serif" font-size="14.00">DDG: </text>
</g>
<!-- 30064771588 -->
<g id="node5" class="node">
<title>30064771588</title>
<polygon fill="none" stroke="black" points="506.5,-130.75 315,-130.75 315,-91.25 506.5,-91.25 506.5,-130.75"/>
<text xml:space="preserve" text-anchor="start" x="323" y="-113.45" font-family="Times,serif" font-size="14.00">&lt;operator&gt;.assignment, 346</text>
<text xml:space="preserve" text-anchor="start" x="360.12" y="-97.7" font-family="Times,serif" font-size="14.00">self.failed = 0</text>
</g>
<!-- 107374182433&#45;&gt;30064771588 -->
<g id="edge11" class="edge">
<title>107374182433&#45;&gt;30064771588</title>
<path fill="none" stroke="black" d="M297.64,-182.1C318.9,-168.93 347.35,-151.29 370.4,-137.01"/>
<polygon fill="black" stroke="black" points="371.97,-140.16 378.62,-131.91 368.28,-134.21 371.97,-140.16"/>
<text xml:space="preserve" text-anchor="middle" x="364.25" y="-151.2" font-family="Times,serif" font-size="14.00">DDG: </text>
</g>
<!-- 30064771591 -->
<g id="node6" class="node">
<title>30064771591</title>
<polygon fill="none" stroke="black" points="834.5,-130.75 643,-130.75 643,-91.25 834.5,-91.25 834.5,-130.75"/>
<text xml:space="preserve" text-anchor="start" x="651" y="-113.45" font-family="Times,serif" font-size="14.00">&lt;operator&gt;.assignment, 347</text>
<text xml:space="preserve" text-anchor="start" x="684.75" y="-97.7" font-family="Times,serif" font-size="14.00">self.errors = []</text>
</g>
<!-- 107374182433&#45;&gt;30064771591 -->
<g id="edge12" class="edge">
<title>107374182433&#45;&gt;30064771591</title>
<path fill="none" stroke="black" d="M312.01,-192.69C385.07,-178.88 530.97,-151.29 631.68,-132.25"/>
<polygon fill="black" stroke="black" points="632.14,-135.72 641.32,-130.42 630.84,-128.84 632.14,-135.72"/>
<text xml:space="preserve" text-anchor="middle" x="547.88" y="-151.2" font-family="Times,serif" font-size="14.00">DDG: </text>
</g>
<!-- 124554051617 -->
<g id="node2" class="node">
<title>124554051617</title>
<polygon fill="none" stroke="black" points="518.5,-39.5 381,-39.5 381,0 518.5,0 518.5,-39.5"/>
<text xml:space="preserve" text-anchor="start" x="389" y="-22.2" font-family="Times,serif" font-size="14.00">METHOD_RETURN, 344</text>
<text xml:space="preserve" text-anchor="start" x="439.62" y="-6.45" font-family="Times,serif" font-size="14.00">ANY</text>
</g>
<!-- 111669149747&#45;&gt;124554051617 -->
<g id="edge1" class="edge">
<title>111669149747&#45;&gt;124554051617</title>
<path fill="none" stroke="black" d="M27.98,-90.99C21.83,-80.01 17.64,-66.62 26,-57.5 48.7,-32.74 253.17,-24.61 369.58,-21.98"/>
<polygon fill="black" stroke="black" points="369.47,-25.49 379.39,-21.77 369.32,-18.49 369.47,-25.49"/>
<text xml:space="preserve" text-anchor="middle" x="56.38" y="-59.95" font-family="Times,serif" font-size="14.00">DDG: self</text>
</g>
<!-- 30064771586&#45;&gt;124554051617 -->
<g id="edge2" class="edge">
<title>30064771586&#45;&gt;124554051617</title>
<path fill="none" stroke="black" d="M113.82,-90.76C94.89,-82.68 83.89,-71.77 96.75,-57.5 114.66,-37.63 270.65,-27.81 369.19,-23.55"/>
<polygon fill="black" stroke="black" points="369.25,-27.05 379.09,-23.13 368.96,-20.05 369.25,-27.05"/>
<text xml:space="preserve" text-anchor="middle" x="150.75" y="-59.95" font-family="Times,serif" font-size="14.00">DDG: self.passed</text>
</g>
<!-- 30064771586&#45;&gt;124554051617 -->
<g id="edge3" class="edge">
<title>30064771586&#45;&gt;124554051617</title>
<path fill="none" stroke="black" d="M211.63,-90.78C219.16,-79.29 230.23,-65.43 243.75,-57.5 281.48,-35.37 329.28,-25.92 369.34,-22.13"/>
<polygon fill="black" stroke="black" points="369.51,-25.63 379.18,-21.31 368.92,-18.65 369.51,-25.63"/>
<text xml:space="preserve" text-anchor="middle" x="311.25" y="-59.95" font-family="Times,serif" font-size="14.00">DDG: self.passed = 0</text>
</g>
<!-- 30064771588&#45;&gt;124554051617 -->
<g id="edge4" class="edge">
<title>30064771588&#45;&gt;124554051617</title>
<path fill="none" stroke="black" d="M392.66,-91.16C385.15,-80.99 379.48,-68.33 385.75,-57.5 388,-53.62 390.83,-50.11 394.04,-46.95"/>
<polygon fill="black" stroke="black" points="396.05,-49.82 401.52,-40.75 391.58,-44.43 396.05,-49.82"/>
<text xml:space="preserve" text-anchor="middle" x="439.75" y="-59.95" font-family="Times,serif" font-size="14.00">DDG: self.failed</text>
</g>
<!-- 30064771588&#45;&gt;124554051617 -->
<g id="edge5" class="edge">
<title>30064771588&#45;&gt;124554051617</title>
<path fill="none" stroke="black" d="M475.56,-90.79C482.73,-86.14 489.11,-80.38 493.75,-73.25 499.43,-64.52 496.08,-55.62 489.2,-47.69"/>
<polygon fill="black" stroke="black" points="491.73,-45.26 482.09,-40.86 486.88,-50.31 491.73,-45.26"/>
<text xml:space="preserve" text-anchor="middle" x="564.13" y="-59.95" font-family="Times,serif" font-size="14.00">DDG: self.failed = 0</text>
</g>
<!-- 30064771591&#45;&gt;124554051617 -->
<g id="edge6" class="edge">
<title>30064771591&#45;&gt;124554051617</title>
<path fill="none" stroke="black" d="M706.83,-90.82C686.99,-79.65 660.6,-66.1 635.75,-57.5 601.94,-45.8 563.3,-37.4 530.03,-31.62"/>
<polygon fill="black" stroke="black" points="530.91,-28.22 520.46,-30.01 529.74,-35.12 530.91,-28.22"/>
<text xml:space="preserve" text-anchor="middle" x="724.89" y="-59.95" font-family="Times,serif" font-size="14.00">DDG: self.errors</text>
</g>
<!-- 30064771591&#45;&gt;124554051617 -->
<g id="edge7" class="edge">
<title>30064771591&#45;&gt;124554051617</title>
<path fill="none" stroke="black" d="M770.25,-90.79C782.89,-80.74 792.43,-68.31 782.75,-57.5 766.17,-38.99 623.37,-28.82 530.23,-24.1"/>
<polygon fill="black" stroke="black" points="530.52,-20.61 520.36,-23.61 530.17,-27.6 530.52,-20.61"/>
<text xml:space="preserve" text-anchor="middle" x="810.34" y="-59.95" font-family="Times,serif" font-size="14.00">DDG: []</text>
</g>
<!-- 30064771591&#45;&gt;124554051617 -->
<g id="edge8" class="edge">
<title>30064771591&#45;&gt;124554051617</title>
<path fill="none" stroke="black" d="M820,-90.81C839.08,-82.6 850.58,-71.6 837.75,-57.5 817.49,-35.23 637.79,-26.16 530.19,-22.7"/>
<polygon fill="black" stroke="black" points="530.34,-19.21 520.24,-22.39 530.13,-26.2 530.34,-19.21"/>
<text xml:space="preserve" text-anchor="middle" x="914.03" y="-59.95" font-family="Times,serif" font-size="14.00">DDG: self.errors = []</text>
</g>
</g>
</svg>
