<?xml version="1.0" encoding="UTF-8" standalone="no"?>
<!DOCTYPE svg PUBLIC "-//W3C//DTD SVG 1.1//EN"
 "http://www.w3.org/Graphics/SVG/1.1/DTD/svg11.dtd">
<!-- Generated by graphviz version 13.1.2 (20250809.0930)
 -->
<!-- Title: ok Pages: 1 -->
<svg width="942pt" height="520pt"
 viewBox="0.00 0.00 942.00 520.00" xmlns="http://www.w3.org/2000/svg" xmlns:xlink="http://www.w3.org/1999/xlink">
<g id="graph0" class="graph" transform="scale(1 1) rotate(0) translate(4 515.5)">
<title>ok</title>
<polygon fill="white" stroke="none" points="-4,4 -4,-515.5 937.6,-515.5 937.6,4 -4,4"/>
<!-- 107374182434 -->
<g id="node1" class="node">
<title>107374182434</title>
<polygon fill="none" stroke="black" points="389.6,-511.5 299.35,-511.5 299.35,-472 389.6,-472 389.6,-511.5"/>
<text xml:space="preserve" text-anchor="start" x="307.35" y="-494.2" font-family="Times,serif" font-size="14.00">METHOD, 349</text>
<text xml:space="preserve" text-anchor="start" x="337.72" y="-478.45" font-family="Times,serif" font-size="14.00">ok</text>
</g>
<!-- 111669149748 -->
<g id="node3" class="node">
<title>111669149748</title>
<polygon fill="none" stroke="black" points="151.22,-222 67.72,-222 67.72,-182.5 151.22,-182.5 151.22,-222"/>
<text xml:space="preserve" text-anchor="start" x="75.72" y="-204.7" font-family="Times,serif" font-size="14.00">PARAM, 349</text>
<text xml:space="preserve" text-anchor="start" x="95.97" y="-188.95" font-family="Times,serif" font-size="14.00">self</text>
</g>
<!-- 107374182434&#45;&gt;111669149748 -->
<g id="edge8" class="edge">
<title>107374182434&#45;&gt;111669149748</title>
<path fill="none" stroke="black" d="M299.08,-486.29C254.27,-481 189.89,-470.72 171.47,-454 108.64,-396.94 104.83,-287.2 107.11,-233.86"/>
<polygon fill="black" stroke="black" points="110.6,-234.16 107.64,-223.98 103.61,-233.78 110.6,-234.16"/>
<text xml:space="preserve" text-anchor="middle" x="132.32" y="-333.7" font-family="Times,serif" font-size="14.00">DDG: </text>
</g>
<!-- 111669149749 -->
<g id="node4" class="node">
<title>111669149749</title>
<polygon fill="none" stroke="black" points="347.22,-412.38 263.72,-412.38 263.72,-372.88 347.22,-372.88 347.22,-412.38"/>
<text xml:space="preserve" text-anchor="start" x="271.72" y="-395.07" font-family="Times,serif" font-size="14.00">PARAM, 349</text>
<text xml:space="preserve" text-anchor="start" x="291.97" y="-379.32" font-family="Times,serif" font-size="14.00">name</text>
</g>
<!-- 107374182434&#45;&gt;111669149749 -->
<g id="edge9" class="edge">
<title>107374182434&#45;&gt;111669149749</title>
<path fill="none" stroke="black" d="M336.77,-471.56C331.21,-457.73 323.61,-438.8 317.29,-423.06"/>
<polygon fill="black" stroke="black" points="320.7,-422.15 313.73,-414.18 314.21,-424.76 320.7,-422.15"/>
<text xml:space="preserve" text-anchor="middle" x="346.49" y="-440.7" font-family="Times,serif" font-size="14.00">DDG: </text>
</g>
<!-- 30064771594 -->
<g id="node5" class="node">
<title>30064771594</title>
<polygon fill="none" stroke="black" points="294.72,-130.75 76.22,-130.75 76.22,-91.25 294.72,-91.25 294.72,-130.75"/>
<text xml:space="preserve" text-anchor="start" x="84.22" y="-113.45" font-family="Times,serif" font-size="14.00">&lt;operator&gt;.assignmentPlus, 350</text>
<text xml:space="preserve" text-anchor="start" x="131.47" y="-97.7" font-family="Times,serif" font-size="14.00">self.passed += 1</text>
</g>
<!-- 107374182434&#45;&gt;30064771594 -->
<g id="edge10" class="edge">
<title>107374182434&#45;&gt;30064771594</title>
<path fill="none" stroke="black" d="M298.91,-482.99C251.93,-472.07 185.47,-447.16 185.47,-393.62 185.47,-393.62 185.47,-393.62 185.47,-201.25 185.47,-181.7 185.47,-159.75 185.47,-142.51"/>
<polygon fill="black" stroke="black" points="188.97,-142.66 185.47,-132.66 181.97,-142.66 188.97,-142.66"/>
<text xml:space="preserve" text-anchor="middle" x="202.35" y="-288.07" font-family="Times,serif" font-size="14.00">DDG: </text>
</g>
<!-- 68719477227 -->
<g id="node7" class="node">
<title>68719477227</title>
<polygon fill="none" stroke="black" points="754.72,-420.25 590.22,-420.25 590.22,-365 754.72,-365 754.72,-420.25"/>
<text xml:space="preserve" text-anchor="start" x="621.85" y="-402.95" font-family="Times,serif" font-size="14.00">IDENTIFIER, 351</text>
<text xml:space="preserve" text-anchor="start" x="655.6" y="-387.2" font-family="Times,serif" font-size="14.00">print</text>
<text xml:space="preserve" text-anchor="start" x="598.22" y="-371.45" font-family="Times,serif" font-size="14.00">print(f&quot; PASS {name}&quot;)</text>
</g>
<!-- 107374182434&#45;&gt;68719477227 -->
<g id="edge16" class="edge">
<title>107374182434&#45;&gt;68719477227</title>
<path fill="none" stroke="black" d="M390.04,-480.67C419.91,-473.8 459.72,-464.13 494.47,-454 524.89,-445.13 557.83,-434.31 587.01,-424.29"/>
<polygon fill="black" stroke="black" points="587.84,-427.71 596.15,-421.13 585.56,-421.09 587.84,-427.71"/>
<text xml:space="preserve" text-anchor="middle" x="560.66" y="-440.7" font-family="Times,serif" font-size="14.00">DDG: </text>
</g>
<!-- 30064771596 -->
<g id="node8" class="node">
<title>30064771596</title>
<polygon fill="none" stroke="black" points="585.97,-222 380.97,-222 380.97,-182.5 585.97,-182.5 585.97,-222"/>
<text xml:space="preserve" text-anchor="start" x="388.97" y="-204.7" font-family="Times,serif" font-size="14.00">&lt;operator&gt;.formatString, 351</text>
<text xml:space="preserve" text-anchor="start" x="432.85" y="-188.95" font-family="Times,serif" font-size="14.00">f&quot; PASS {name}&quot;</text>
</g>
<!-- 107374182434&#45;&gt;30064771596 -->
<g id="edge19" class="edge">
<title>107374182434&#45;&gt;30064771596</title>
<path fill="none" stroke="black" d="M368.96,-471.53C384.45,-458.39 404.01,-439.86 417.47,-420.25 446.87,-377.42 449.5,-362.99 464.47,-313.25 472.43,-286.82 477.42,-255.76 480.27,-233.39"/>
<polygon fill="black" stroke="black" points="483.71,-234.11 481.43,-223.76 476.76,-233.27 483.71,-234.11"/>
<text xml:space="preserve" text-anchor="middle" x="475.74" y="-333.7" font-family="Times,serif" font-size="14.00">DDG: </text>
</g>
<!-- 30064771595 -->
<g id="node9" class="node">
<title>30064771595</title>
<polygon fill="none" stroke="black" points="455.72,-313.25 237.22,-313.25 237.22,-273.75 455.72,-273.75 455.72,-313.25"/>
<text xml:space="preserve" text-anchor="start" x="245.22" y="-295.95" font-family="Times,serif" font-size="14.00">&lt;operator&gt;.formattedValue, 351</text>
<text xml:space="preserve" text-anchor="start" x="326.22" y="-280.2" font-family="Times,serif" font-size="14.00">{name}</text>
</g>
<!-- 107374182434&#45;&gt;30064771595 -->
<g id="edge22" class="edge">
<title>107374182434&#45;&gt;30064771595</title>
<path fill="none" stroke="black" d="M358.99,-471.86C362.43,-466.39 365.63,-460.2 367.47,-454 383.02,-401.7 384.53,-383.69 369.47,-331.25 368.74,-328.69 367.77,-326.13 366.64,-323.62"/>
<polygon fill="black" stroke="black" points="369.85,-322.22 362.03,-315.08 363.69,-325.54 369.85,-322.22"/>
<text xml:space="preserve" text-anchor="middle" x="396.86" y="-387.2" font-family="Times,serif" font-size="14.00">DDG: </text>
</g>
<!-- 124554051618 -->
<g id="node2" class="node">
<title>124554051618</title>
<polygon fill="none" stroke="black" points="391.22,-39.5 253.72,-39.5 253.72,0 391.22,0 391.22,-39.5"/>
<text xml:space="preserve" text-anchor="start" x="261.72" y="-22.2" font-family="Times,serif" font-size="14.00">METHOD_RETURN, 349</text>
<text xml:space="preserve" text-anchor="start" x="312.35" y="-6.45" font-family="Times,serif" font-size="14.00">ANY</text>
</g>
<!-- 111669149748&#45;&gt;124554051618 -->
<g id="edge1" class="edge">
<title>111669149748&#45;&gt;124554051618</title>
<path fill="none" stroke="black" d="M67.25,-184.11C44.91,-172.6 19.53,-155.06 6.72,-130.75 -9.81,-99.36 6.88,-73.64 38.47,-57.5 73.04,-39.84 171.1,-30.05 242.33,-25.1"/>
<polygon fill="black" stroke="black" points="242.27,-28.61 252.01,-24.45 241.8,-21.63 242.27,-28.61"/>
<text xml:space="preserve" text-anchor="middle" x="37.1" y="-105.58" font-family="Times,serif" font-size="14.00">DDG: self</text>
</g>
<!-- 111669149748&#45;&gt;30064771594 -->
<g id="edge11" class="edge">
<title>111669149748&#45;&gt;30064771594</title>
<path fill="none" stroke="black" d="M105.36,-182.12C104.13,-171.5 104.49,-158.51 110.72,-148.75 113.31,-144.71 116.48,-141.09 120.04,-137.87"/>
<polygon fill="black" stroke="black" points="121.96,-140.81 127.77,-131.94 117.7,-135.25 121.96,-140.81"/>
<text xml:space="preserve" text-anchor="middle" x="141.1" y="-151.2" font-family="Times,serif" font-size="14.00">DDG: self</text>
</g>
<!-- 111669149749&#45;&gt;30064771595 -->
<g id="edge21" class="edge">
<title>111669149749&#45;&gt;30064771595</title>
<path fill="none" stroke="black" d="M303.04,-372.56C302.28,-360.24 302.86,-344.15 308.72,-331.25 310.15,-328.1 311.98,-325.09 314.06,-322.23"/>
<polygon fill="black" stroke="black" points="316.56,-324.7 320.4,-314.82 311.24,-320.15 316.56,-324.7"/>
<text xml:space="preserve" text-anchor="middle" x="339.1" y="-333.7" font-family="Times,serif" font-size="14.00">DDG: name</text>
</g>
<!-- 30064771594&#45;&gt;124554051618 -->
<g id="edge2" class="edge">
<title>30064771594&#45;&gt;124554051618</title>
<path fill="none" stroke="black" d="M186.48,-91C188.03,-79.88 191.76,-66.34 200.47,-57.5 211.96,-45.85 226.98,-37.87 242.55,-32.4"/>
<polygon fill="black" stroke="black" points="243.44,-35.79 251.93,-29.46 241.34,-29.11 243.44,-35.79"/>
<text xml:space="preserve" text-anchor="middle" x="254.47" y="-59.95" font-family="Times,serif" font-size="14.00">DDG: self.passed</text>
</g>
<!-- 30064771594&#45;&gt;124554051618 -->
<g id="edge3" class="edge">
<title>30064771594&#45;&gt;124554051618</title>
<path fill="none" stroke="black" d="M79.17,-90.79C63.6,-85.93 51.01,-80.1 45.72,-73.25 41.45,-67.71 41.11,-62.77 45.72,-57.5 70.85,-28.82 169.62,-21.51 242.03,-20.14"/>
<polygon fill="black" stroke="black" points="241.95,-23.64 251.89,-19.99 241.84,-16.64 241.95,-23.64"/>
<text xml:space="preserve" text-anchor="middle" x="116.6" y="-59.95" font-family="Times,serif" font-size="14.00">DDG: self.passed += 1</text>
</g>
<!-- 30064771597 -->
<g id="node6" class="node">
<title>30064771597</title>
<polygon fill="none" stroke="black" points="597.72,-130.75 433.22,-130.75 433.22,-91.25 597.72,-91.25 597.72,-130.75"/>
<text xml:space="preserve" text-anchor="start" x="481.72" y="-113.45" font-family="Times,serif" font-size="14.00">print, 351</text>
<text xml:space="preserve" text-anchor="start" x="441.22" y="-97.7" font-family="Times,serif" font-size="14.00">print(f&quot; PASS {name}&quot;)</text>
</g>
<!-- 30064771597&#45;&gt;124554051618 -->
<g id="edge6" class="edge">
<title>30064771597&#45;&gt;124554051618</title>
<path fill="none" stroke="black" d="M432.79,-102.96C406.78,-97.7 379.11,-88.67 356.97,-73.25 348.49,-67.33 341.55,-58.59 336.18,-49.93"/>
<polygon fill="black" stroke="black" points="339.28,-48.31 331.34,-41.3 333.18,-51.73 339.28,-48.31"/>
<text xml:space="preserve" text-anchor="middle" x="431.22" y="-59.95" font-family="Times,serif" font-size="14.00">DDG: f&quot; &#160;PASS &#160;{name}&quot;</text>
</g>
<!-- 30064771597&#45;&gt;124554051618 -->
<g id="edge7" class="edge">
<title>30064771597&#45;&gt;124554051618</title>
<path fill="none" stroke="black" d="M516.77,-90.85C516.44,-79.68 514.03,-66.14 505.47,-57.5 490.82,-42.7 444.76,-33.5 402.52,-28.01"/>
<polygon fill="black" stroke="black" points="403.17,-24.56 392.82,-26.81 402.31,-31.51 403.17,-24.56"/>
<text xml:space="preserve" text-anchor="middle" x="611.75" y="-59.95" font-family="Times,serif" font-size="14.00">DDG: print(f&quot; &#160;PASS &#160;{name}&quot;)</text>
</g>
<!-- 30064771596&#45;&gt;124554051618 -->
<g id="edge5" class="edge">
<title>30064771596&#45;&gt;124554051618</title>
<path fill="none" stroke="black" d="M567.51,-182.08C653.09,-158.84 766.26,-115.47 713.47,-57.5 693,-35.01 511.11,-26.02 402.77,-22.63"/>
<polygon fill="black" stroke="black" points="403.17,-19.14 393.06,-22.34 402.95,-26.14 403.17,-19.14"/>
<text xml:space="preserve" text-anchor="middle" x="763.8" y="-105.58" font-family="Times,serif" font-size="14.00">DDG: {name}</text>
</g>
<!-- 30064771596&#45;&gt;30064771597 -->
<g id="edge17" class="edge">
<title>30064771596&#45;&gt;30064771597</title>
<path fill="none" stroke="black" d="M512.05,-182.24C517.49,-177.17 522.43,-171.21 525.47,-164.5 528.63,-157.54 528.72,-149.63 527.39,-142.09"/>
<polygon fill="black" stroke="black" points="530.82,-141.36 524.89,-132.59 524.05,-143.15 530.82,-141.36"/>
<text xml:space="preserve" text-anchor="middle" x="572.08" y="-151.2" font-family="Times,serif" font-size="14.00">DDG: &#160;&#160;PASS &#160;</text>
</g>
<!-- 30064771596&#45;&gt;30064771597 -->
<g id="edge18" class="edge">
<title>30064771596&#45;&gt;30064771597</title>
<path fill="none" stroke="black" d="M457.88,-182.2C447.95,-172.41 440.41,-160.16 447.22,-148.75 449.53,-144.9 452.39,-141.42 455.62,-138.3"/>
<polygon fill="black" stroke="black" points="457.6,-141.2 463.16,-132.17 453.19,-135.76 457.6,-141.2"/>
<text xml:space="preserve" text-anchor="middle" x="484.35" y="-151.2" font-family="Times,serif" font-size="14.00">DDG: {name}</text>
</g>
<!-- 30064771595&#45;&gt;124554051618 -->
<g id="edge4" class="edge">
<title>30064771595&#45;&gt;124554051618</title>
<path fill="none" stroke="black" d="M344.79,-273.39C340.68,-226.91 330.15,-107.61 325.16,-51.19"/>
<polygon fill="black" stroke="black" points="328.66,-51 324.29,-41.35 321.69,-51.61 328.66,-51"/>
<text xml:space="preserve" text-anchor="middle" x="365.4" y="-151.2" font-family="Times,serif" font-size="14.00">DDG: name</text>
</g>
<!-- 30064771595&#45;&gt;30064771596 -->
<g id="edge20" class="edge">
<title>30064771595&#45;&gt;30064771596</title>
<path fill="none" stroke="black" d="M366.51,-273.42C378.26,-262.82 393.69,-249.82 408.72,-240 415.47,-235.59 422.81,-231.37 430.18,-227.45"/>
<polygon fill="black" stroke="black" points="431.54,-230.68 438.84,-223 428.35,-224.46 431.54,-230.68"/>
<text xml:space="preserve" text-anchor="middle" x="439.1" y="-242.45" font-family="Times,serif" font-size="14.00">DDG: name</text>
</g>
<!-- 30064771076 -->
<g id="node10" class="node">
<title>30064771076</title>
<polygon fill="none" stroke="black" points="609.6,-509.75 519.35,-509.75 519.35,-473.75 609.6,-473.75 609.6,-509.75"/>
<text xml:space="preserve" text-anchor="middle" x="564.47" y="-486.32" font-family="Times,serif" font-size="14.00">30064771076</text>
</g>
<!-- 30064771076&#45;&gt;68719477227 -->
<g id="edge12" class="edge">
<title>30064771076&#45;&gt;68719477227</title>
<path fill="none" stroke="black" d="M574.1,-473.33C580.7,-462.41 590.2,-448.5 600.97,-438.25 605.04,-434.38 609.5,-430.66 614.14,-427.15"/>
<polygon fill="black" stroke="black" points="615.9,-430.19 621.99,-421.52 611.82,-424.5 615.9,-430.19"/>
<text xml:space="preserve" text-anchor="middle" x="634.72" y="-440.7" font-family="Times,serif" font-size="14.00">DDG: print</text>
</g>
<!-- 68719477500 -->
<g id="node11" class="node">
<title>68719477500</title>
<polygon fill="none" stroke="black" points="717.6,-509.75 627.35,-509.75 627.35,-473.75 717.6,-473.75 717.6,-509.75"/>
<text xml:space="preserve" text-anchor="middle" x="672.47" y="-486.32" font-family="Times,serif" font-size="14.00">68719477500</text>
</g>
<!-- 68719477500&#45;&gt;68719477227 -->
<g id="edge13" class="edge">
<title>68719477500&#45;&gt;68719477227</title>
<path fill="none" stroke="black" d="M672.47,-473.39C672.47,-461.85 672.47,-446.23 672.47,-431.88"/>
<polygon fill="black" stroke="black" points="675.97,-432.25 672.47,-422.25 668.97,-432.25 675.97,-432.25"/>
<text xml:space="preserve" text-anchor="middle" x="706.22" y="-440.7" font-family="Times,serif" font-size="14.00">DDG: print</text>
</g>
<!-- 68719477503 -->
<g id="node12" class="node">
<title>68719477503</title>
<polygon fill="none" stroke="black" points="825.6,-509.75 735.35,-509.75 735.35,-473.75 825.6,-473.75 825.6,-509.75"/>
<text xml:space="preserve" text-anchor="middle" x="780.47" y="-486.32" font-family="Times,serif" font-size="14.00">68719477503</text>
</g>
<!-- 68719477503&#45;&gt;68719477227 -->
<g id="edge14" class="edge">
<title>68719477503&#45;&gt;68719477227</title>
<path fill="none" stroke="black" d="M771.04,-473.31C764.55,-462.38 755.19,-448.48 744.47,-438.25 740.39,-434.35 735.91,-430.62 731.25,-427.09"/>
<polygon fill="black" stroke="black" points="733.52,-424.41 723.34,-421.44 729.45,-430.1 733.52,-424.41"/>
<text xml:space="preserve" text-anchor="middle" x="791.96" y="-440.7" font-family="Times,serif" font-size="14.00">DDG: print</text>
</g>
<!-- 68719477506 -->
<g id="node13" class="node">
<title>68719477506</title>
<polygon fill="none" stroke="black" points="933.6,-509.75 843.35,-509.75 843.35,-473.75 933.6,-473.75 933.6,-509.75"/>
<text xml:space="preserve" text-anchor="middle" x="888.47" y="-486.32" font-family="Times,serif" font-size="14.00">68719477506</text>
</g>
<!-- 68719477506&#45;&gt;68719477227 -->
<g id="edge15" class="edge">
<title>68719477506&#45;&gt;68719477227</title>
<path fill="none" stroke="black" d="M873,-473.37C861.91,-461.9 846.06,-447.36 829.47,-438.25 809.92,-427.52 787.56,-419.17 765.95,-412.75"/>
<polygon fill="black" stroke="black" points="767.11,-409.44 756.54,-410.07 765.2,-416.17 767.11,-409.44"/>
<text xml:space="preserve" text-anchor="middle" x="884.58" y="-440.7" font-family="Times,serif" font-size="14.00">DDG: print</text>
</g>
</g>
</svg>
