<?xml version="1.0" encoding="UTF-8" standalone="no"?>
<!DOCTYPE svg PUBLIC "-//W3C//DTD SVG 1.1//EN"
 "http://www.w3.org/Graphics/SVG/1.1/DTD/svg11.dtd">
<!-- Generated by graphviz version 13.1.2 (20250809.0930)
 -->
<!-- Title: ok&lt;metaClassAdapter&gt; Pages: 1 -->
<svg width="614pt" height="436pt"
 viewBox="0.00 0.00 614.00 436.00" xmlns="http://www.w3.org/2000/svg" xmlns:xlink="http://www.w3.org/1999/xlink">
<g id="graph0" class="graph" transform="scale(1 1) rotate(0) translate(4 432.25)">
<title>ok&lt;metaClassAdapter&gt;</title>
<polygon fill="white" stroke="none" points="-4,4 -4,-432.25 609.62,-432.25 609.62,4 -4,4"/>
<!-- 107374182441 -->
<g id="node1" class="node">
<title>107374182441</title>
<polygon fill="none" stroke="black" points="251.25,-428.25 100.25,-428.25 100.25,-388.75 251.25,-388.75 251.25,-428.25"/>
<text xml:space="preserve" text-anchor="start" x="138.62" y="-410.95" font-family="Times,serif" font-size="14.00">METHOD, 349</text>
<text xml:space="preserve" text-anchor="start" x="108.25" y="-395.2" font-family="Times,serif" font-size="14.00">ok&lt;metaClassAdapter&gt;</text>
</g>
<!-- 111669149761 -->
<g id="node3" class="node">
<title>111669149761</title>
<polygon fill="none" stroke="black" points="83.5,-279.5 0,-279.5 0,-240 83.5,-240 83.5,-279.5"/>
<text xml:space="preserve" text-anchor="start" x="8" y="-262.2" font-family="Times,serif" font-size="14.00">PARAM, 349</text>
<text xml:space="preserve" text-anchor="start" x="31.62" y="-246.45" font-family="Times,serif" font-size="14.00">cls</text>
</g>
<!-- 107374182441&#45;&gt;111669149761 -->
<g id="edge6" class="edge">
<title>107374182441&#45;&gt;111669149761</title>
<path fill="none" stroke="black" d="M125.79,-388.29C102.87,-376.87 77.56,-360.06 62.75,-337 53.91,-323.23 48.75,-305.77 45.76,-291.02"/>
<polygon fill="black" stroke="black" points="49.24,-290.63 44.06,-281.4 42.35,-291.85 49.24,-290.63"/>
<text xml:space="preserve" text-anchor="middle" x="111.81" y="-357.45" font-family="Times,serif" font-size="14.00">DDG: </text>
</g>
<!-- 111669149762 -->
<g id="node4" class="node">
<title>111669149762</title>
<polygon fill="none" stroke="black" points="155.5,-337 72,-337 72,-297.5 155.5,-297.5 155.5,-337"/>
<text xml:space="preserve" text-anchor="start" x="80" y="-319.7" font-family="Times,serif" font-size="14.00">PARAM, 349</text>
<text xml:space="preserve" text-anchor="start" x="100.25" y="-303.95" font-family="Times,serif" font-size="14.00">self</text>
</g>
<!-- 107374182441&#45;&gt;111669149762 -->
<g id="edge7" class="edge">
<title>107374182441&#45;&gt;111669149762</title>
<path fill="none" stroke="black" d="M162.6,-388.57C154.19,-376.47 143.12,-360.53 133.65,-346.9"/>
<polygon fill="black" stroke="black" points="136.54,-344.92 127.96,-338.7 130.79,-348.91 136.54,-344.92"/>
<text xml:space="preserve" text-anchor="middle" x="165.34" y="-357.45" font-family="Times,serif" font-size="14.00">DDG: </text>
</g>
<!-- 111669149763 -->
<g id="node5" class="node">
<title>111669149763</title>
<polygon fill="none" stroke="black" points="257.5,-337 174,-337 174,-297.5 257.5,-297.5 257.5,-337"/>
<text xml:space="preserve" text-anchor="start" x="182" y="-319.7" font-family="Times,serif" font-size="14.00">PARAM, 349</text>
<text xml:space="preserve" text-anchor="start" x="202.25" y="-303.95" font-family="Times,serif" font-size="14.00">name</text>
</g>
<!-- 107374182441&#45;&gt;111669149763 -->
<g id="edge8" class="edge">
<title>107374182441&#45;&gt;111669149763</title>
<path fill="none" stroke="black" d="M184.23,-388.57C189.55,-376.7 196.52,-361.15 202.55,-347.69"/>
<polygon fill="black" stroke="black" points="205.63,-349.4 206.52,-338.84 199.24,-346.53 205.63,-349.4"/>
<text xml:space="preserve" text-anchor="middle" x="215.02" y="-357.45" font-family="Times,serif" font-size="14.00">DDG: </text>
</g>
<!-- 30064771647 -->
<g id="node7" class="node">
<title>30064771647</title>
<polygon fill="none" stroke="black" points="366.5,-222 67,-222 67,-182.5 366.5,-182.5 366.5,-222"/>
<text xml:space="preserve" text-anchor="start" x="75" y="-204.7" font-family="Times,serif" font-size="14.00">json_parser.py:&lt;module&gt;.TestResult.ok, 349</text>
<text xml:space="preserve" text-anchor="start" x="169.5" y="-188.95" font-family="Times,serif" font-size="14.00">ok(self, name)</text>
</g>
<!-- 107374182441&#45;&gt;30064771647 -->
<g id="edge11" class="edge">
<title>107374182441&#45;&gt;30064771647</title>
<path fill="none" stroke="black" d="M210.82,-388.27C219.3,-383.03 228.11,-377.04 235.75,-370.75 251.48,-357.81 257.3,-355.04 266.75,-337 278.91,-313.79 276.84,-305.54 279.75,-279.5 281.7,-262.05 288.49,-255.22 279.75,-240 277.61,-236.27 274.92,-232.88 271.87,-229.81"/>
<polygon fill="black" stroke="black" points="274.15,-227.15 264.25,-223.38 269.64,-232.5 274.15,-227.15"/>
<text xml:space="preserve" text-anchor="middle" x="294.94" y="-311.82" font-family="Times,serif" font-size="14.00">DDG: </text>
</g>
<!-- 124554051625 -->
<g id="node2" class="node">
<title>124554051625</title>
<polygon fill="none" stroke="black" points="273.5,-39.5 136,-39.5 136,0 273.5,0 273.5,-39.5"/>
<text xml:space="preserve" text-anchor="start" x="144" y="-22.2" font-family="Times,serif" font-size="14.00">METHOD_RETURN, 349</text>
<text xml:space="preserve" text-anchor="start" x="194.62" y="-6.45" font-family="Times,serif" font-size="14.00">ANY</text>
</g>
<!-- 111669149761&#45;&gt;124554051625 -->
<g id="edge2" class="edge">
<title>111669149761&#45;&gt;124554051625</title>
<path fill="none" stroke="black" d="M44.08,-239.81C46.4,-224.1 50.65,-201.36 57.75,-182.5 68.08,-155.05 105.49,-80.11 129.75,-57.5 134.51,-53.07 139.9,-49.06 145.56,-45.46"/>
<polygon fill="black" stroke="black" points="147.08,-48.63 153.96,-40.56 143.56,-42.58 147.08,-48.63"/>
<text xml:space="preserve" text-anchor="middle" x="99.65" y="-151.2" font-family="Times,serif" font-size="14.00">DDG: cls</text>
</g>
<!-- 111669149762&#45;&gt;30064771647 -->
<g id="edge10" class="edge">
<title>111669149762&#45;&gt;30064771647</title>
<path fill="none" stroke="black" d="M119.46,-297.1C125.23,-280.41 135.51,-256.37 151,-240 154.94,-235.83 159.47,-232.01 164.25,-228.55"/>
<polygon fill="black" stroke="black" points="166.02,-231.57 172.44,-223.15 162.17,-225.73 166.02,-231.57"/>
<text xml:space="preserve" text-anchor="middle" x="181.38" y="-254.32" font-family="Times,serif" font-size="14.00">DDG: self</text>
</g>
<!-- 111669149763&#45;&gt;30064771647 -->
<g id="edge12" class="edge">
<title>111669149763&#45;&gt;30064771647</title>
<path fill="none" stroke="black" d="M215.92,-297.08C216.07,-279.69 216.3,-253.75 216.48,-233.55"/>
<polygon fill="black" stroke="black" points="219.98,-233.68 216.57,-223.65 212.98,-233.62 219.98,-233.68"/>
<text xml:space="preserve" text-anchor="middle" x="246.77" y="-254.32" font-family="Times,serif" font-size="14.00">DDG: name</text>
</g>
<!-- 141733920807 -->
<g id="node6" class="node">
<title>141733920807</title>
<polygon fill="none" stroke="black" points="605.62,-130.75 447.88,-130.75 447.88,-91.25 605.62,-91.25 605.62,-130.75"/>
<text xml:space="preserve" text-anchor="start" x="489.62" y="-113.45" font-family="Times,serif" font-size="14.00">RETURN, 349</text>
<text xml:space="preserve" text-anchor="start" x="455.88" y="-97.7" font-family="Times,serif" font-size="14.00">return ok(self, name)</text>
</g>
<!-- 141733920807&#45;&gt;124554051625 -->
<g id="edge1" class="edge">
<title>141733920807&#45;&gt;124554051625</title>
<path fill="none" stroke="black" d="M457.67,-90.85C407.04,-76.82 338.16,-57.73 285.07,-43.01"/>
<polygon fill="black" stroke="black" points="286.02,-39.64 275.45,-40.35 284.15,-46.39 286.02,-39.64"/>
<text xml:space="preserve" text-anchor="middle" x="418.78" y="-59.95" font-family="Times,serif" font-size="14.00">DDG: &lt;RET&gt;</text>
</g>
<!-- 30064771647&#45;&gt;124554051625 -->
<g id="edge3" class="edge">
<title>30064771647&#45;&gt;124554051625</title>
<path fill="none" stroke="black" d="M175.77,-182.18C155.64,-170.44 133.32,-153.29 122,-130.75 114.12,-115.06 114.64,-107.19 122,-91.25 130.4,-73.06 146.06,-57.83 161.52,-46.24"/>
<polygon fill="black" stroke="black" points="163.18,-49.35 169.31,-40.71 159.13,-43.64 163.18,-49.35"/>
<text xml:space="preserve" text-anchor="middle" x="152.38" y="-105.58" font-family="Times,serif" font-size="14.00">DDG: self</text>
</g>
<!-- 30064771647&#45;&gt;124554051625 -->
<g id="edge4" class="edge">
<title>30064771647&#45;&gt;124554051625</title>
<path fill="none" stroke="black" d="M215.49,-182.27C213.41,-150.99 209.24,-88.35 206.76,-50.93"/>
<polygon fill="black" stroke="black" points="210.27,-51 206.11,-41.25 203.28,-51.46 210.27,-51"/>
<text xml:space="preserve" text-anchor="middle" x="242.32" y="-105.58" font-family="Times,serif" font-size="14.00">DDG: name</text>
</g>
<!-- 30064771647&#45;&gt;124554051625 -->
<g id="edge5" class="edge">
<title>30064771647&#45;&gt;124554051625</title>
<path fill="none" stroke="black" d="M239.58,-182.25C253.22,-169.33 269.31,-150.96 276.75,-130.75 282.81,-114.27 283.55,-107.43 276.75,-91.25 269.52,-74.05 255.82,-58.95 242.29,-47.18"/>
<polygon fill="black" stroke="black" points="244.61,-44.55 234.67,-40.9 240.16,-49.96 244.61,-44.55"/>
<text xml:space="preserve" text-anchor="middle" x="345.7" y="-105.58" font-family="Times,serif" font-size="14.00">DDG: ok(self, name)</text>
</g>
<!-- 30064771647&#45;&gt;141733920807 -->
<g id="edge9" class="edge">
<title>30064771647&#45;&gt;141733920807</title>
<path fill="none" stroke="black" d="M283.25,-182.1C331.9,-168.1 398.03,-149.06 449.1,-134.35"/>
<polygon fill="black" stroke="black" points="449.99,-137.74 458.64,-131.61 448.06,-131.01 449.99,-137.74"/>
<text xml:space="preserve" text-anchor="middle" x="454.44" y="-151.2" font-family="Times,serif" font-size="14.00">DDG: ok(self, name)</text>
</g>
</g>
</svg>
