<?xml version="1.0" encoding="UTF-8" standalone="no"?>
<!DOCTYPE svg PUBLIC "-//W3C//DTD SVG 1.1//EN"
 "http://www.w3.org/Graphics/SVG/1.1/DTD/svg11.dtd">
<!-- Generated by graphviz version 13.1.2 (20250809.0930)
 -->
<!-- Title: summary&lt;metaClassAdapter&gt; Pages: 1 -->
<svg width="508pt" height="436pt"
 viewBox="0.00 0.00 508.00 436.00" xmlns="http://www.w3.org/2000/svg" xmlns:xlink="http://www.w3.org/1999/xlink">
<g id="graph0" class="graph" transform="scale(1 1) rotate(0) translate(4 432.25)">
<title>summary&lt;metaClassAdapter&gt;</title>
<polygon fill="white" stroke="none" points="-4,4 -4,-432.25 504.25,-432.25 504.25,4 -4,4"/>
<!-- 107374182442 -->
<g id="node1" class="node">
<title>107374182442</title>
<polygon fill="none" stroke="black" points="239.12,-428.25 54.38,-428.25 54.38,-388.75 239.12,-388.75 239.12,-428.25"/>
<text xml:space="preserve" text-anchor="start" x="109.62" y="-410.95" font-family="Times,serif" font-size="14.00">METHOD, 358</text>
<text xml:space="preserve" text-anchor="start" x="62.38" y="-395.2" font-family="Times,serif" font-size="14.00">summary&lt;metaClassAdapter&gt;</text>
</g>
<!-- 111669149764 -->
<g id="node3" class="node">
<title>111669149764</title>
<polygon fill="none" stroke="black" points="83.5,-279.5 0,-279.5 0,-240 83.5,-240 83.5,-279.5"/>
<text xml:space="preserve" text-anchor="start" x="8" y="-262.2" font-family="Times,serif" font-size="14.00">PARAM, 358</text>
<text xml:space="preserve" text-anchor="start" x="31.62" y="-246.45" font-family="Times,serif" font-size="14.00">cls</text>
</g>
<!-- 107374182442&#45;&gt;111669149764 -->
<g id="edge5" class="edge">
<title>107374182442&#45;&gt;111669149764</title>
<path fill="none" stroke="black" d="M125.41,-388.54C119.78,-383.06 113.91,-376.9 109,-370.75 88.53,-345.11 69.46,-312.78 56.89,-289.82"/>
<polygon fill="black" stroke="black" points="60.14,-288.46 52.31,-281.32 53.97,-291.78 60.14,-288.46"/>
<text xml:space="preserve" text-anchor="middle" x="125.88" y="-357.45" font-family="Times,serif" font-size="14.00">DDG: </text>
</g>
<!-- 111669149765 -->
<g id="node4" class="node">
<title>111669149765</title>
<polygon fill="none" stroke="black" points="188.5,-337 105,-337 105,-297.5 188.5,-297.5 188.5,-337"/>
<text xml:space="preserve" text-anchor="start" x="113" y="-319.7" font-family="Times,serif" font-size="14.00">PARAM, 358</text>
<text xml:space="preserve" text-anchor="start" x="133.25" y="-303.95" font-family="Times,serif" font-size="14.00">self</text>
</g>
<!-- 107374182442&#45;&gt;111669149765 -->
<g id="edge6" class="edge">
<title>107374182442&#45;&gt;111669149765</title>
<path fill="none" stroke="black" d="M146.75,-388.57C146.75,-377.05 146.75,-362.07 146.75,-348.9"/>
<polygon fill="black" stroke="black" points="150.25,-348.97 146.75,-338.97 143.25,-348.97 150.25,-348.97"/>
<text xml:space="preserve" text-anchor="middle" x="163.62" y="-357.45" font-family="Times,serif" font-size="14.00">DDG: </text>
</g>
<!-- 30064771648 -->
<g id="node6" class="node">
<title>30064771648</title>
<polygon fill="none" stroke="black" points="391.38,-222 58.12,-222 58.12,-182.5 391.38,-182.5 391.38,-222"/>
<text xml:space="preserve" text-anchor="start" x="66.12" y="-204.7" font-family="Times,serif" font-size="14.00">json_parser.py:&lt;module&gt;.TestResult.summary, 358</text>
<text xml:space="preserve" text-anchor="start" x="180.88" y="-188.95" font-family="Times,serif" font-size="14.00">summary(self)</text>
</g>
<!-- 107374182442&#45;&gt;30064771648 -->
<g id="edge9" class="edge">
<title>107374182442&#45;&gt;30064771648</title>
<path fill="none" stroke="black" d="M169.79,-388.34C175.2,-383.05 180.59,-377.02 184.75,-370.75 212.71,-328.53 221.18,-268.87 223.71,-233.32"/>
<polygon fill="black" stroke="black" points="227.18,-233.94 224.27,-223.75 220.19,-233.53 227.18,-233.94"/>
<text xml:space="preserve" text-anchor="middle" x="230.78" y="-311.82" font-family="Times,serif" font-size="14.00">DDG: </text>
</g>
<!-- 124554051626 -->
<g id="node2" class="node">
<title>124554051626</title>
<polygon fill="none" stroke="black" points="229.5,-39.5 92,-39.5 92,0 229.5,0 229.5,-39.5"/>
<text xml:space="preserve" text-anchor="start" x="100" y="-22.2" font-family="Times,serif" font-size="14.00">METHOD_RETURN, 358</text>
<text xml:space="preserve" text-anchor="start" x="150.62" y="-6.45" font-family="Times,serif" font-size="14.00">ANY</text>
</g>
<!-- 111669149764&#45;&gt;124554051626 -->
<g id="edge2" class="edge">
<title>111669149764&#45;&gt;124554051626</title>
<path fill="none" stroke="black" d="M41.14,-239.78C41.19,-224.05 42.54,-201.31 48.75,-182.5 69.14,-120.76 84.85,-108.84 124.75,-57.5 127.18,-54.37 129.85,-51.23 132.6,-48.16"/>
<polygon fill="black" stroke="black" points="135.11,-50.61 139.41,-40.92 130.01,-45.81 135.11,-50.61"/>
<text xml:space="preserve" text-anchor="middle" x="88.19" y="-151.2" font-family="Times,serif" font-size="14.00">DDG: cls</text>
</g>
<!-- 111669149765&#45;&gt;30064771648 -->
<g id="edge8" class="edge">
<title>111669149765&#45;&gt;30064771648</title>
<path fill="none" stroke="black" d="M142.47,-297.07C139.91,-280.58 138.99,-256.87 150,-240 152.62,-235.98 155.82,-232.39 159.4,-229.17"/>
<polygon fill="black" stroke="black" points="161.33,-232.11 167.16,-223.27 157.08,-226.54 161.33,-232.11"/>
<text xml:space="preserve" text-anchor="middle" x="180.38" y="-254.32" font-family="Times,serif" font-size="14.00">DDG: self</text>
</g>
<!-- 141733920808 -->
<g id="node5" class="node">
<title>141733920808</title>
<polygon fill="none" stroke="black" points="500.25,-130.75 349.25,-130.75 349.25,-91.25 500.25,-91.25 500.25,-130.75"/>
<text xml:space="preserve" text-anchor="start" x="387.62" y="-113.45" font-family="Times,serif" font-size="14.00">RETURN, 358</text>
<text xml:space="preserve" text-anchor="start" x="357.25" y="-97.7" font-family="Times,serif" font-size="14.00">return summary(self)</text>
</g>
<!-- 141733920808&#45;&gt;124554051626 -->
<g id="edge1" class="edge">
<title>141733920808&#45;&gt;124554051626</title>
<path fill="none" stroke="black" d="M368.12,-90.85C327.05,-76.97 271.36,-58.14 228.02,-43.49"/>
<polygon fill="black" stroke="black" points="229.32,-40.24 218.72,-40.35 227.08,-46.87 229.32,-40.24"/>
<text xml:space="preserve" text-anchor="middle" x="342.31" y="-59.95" font-family="Times,serif" font-size="14.00">DDG: &lt;RET&gt;</text>
</g>
<!-- 30064771648&#45;&gt;124554051626 -->
<g id="edge3" class="edge">
<title>30064771648&#45;&gt;124554051626</title>
<path fill="none" stroke="black" d="M181.75,-182.06C161.19,-170.41 138.58,-153.38 127,-130.75 113.6,-104.57 126.78,-72.12 140.39,-49.28"/>
<polygon fill="black" stroke="black" points="143.18,-51.42 145.57,-41.09 137.26,-47.67 143.18,-51.42"/>
<text xml:space="preserve" text-anchor="middle" x="157.38" y="-105.58" font-family="Times,serif" font-size="14.00">DDG: self</text>
</g>
<!-- 30064771648&#45;&gt;124554051626 -->
<g id="edge4" class="edge">
<title>30064771648&#45;&gt;124554051626</title>
<path fill="none" stroke="black" d="M218.57,-182.09C211.41,-160.08 199.13,-122.91 187.75,-91.25 182.88,-77.7 177.22,-62.81 172.34,-50.21"/>
<polygon fill="black" stroke="black" points="175.74,-49.28 168.85,-41.23 169.21,-51.82 175.74,-49.28"/>
<text xml:space="preserve" text-anchor="middle" x="261.93" y="-105.58" font-family="Times,serif" font-size="14.00">DDG: summary(self)</text>
</g>
<!-- 30064771648&#45;&gt;141733920808 -->
<g id="edge7" class="edge">
<title>30064771648&#45;&gt;141733920808</title>
<path fill="none" stroke="black" d="M267.66,-182.1C298.1,-168.52 339.18,-150.19 371.69,-135.68"/>
<polygon fill="black" stroke="black" points="372.83,-139 380.53,-131.73 369.98,-132.61 372.83,-139"/>
<text xml:space="preserve" text-anchor="middle" x="397.47" y="-151.2" font-family="Times,serif" font-size="14.00">DDG: summary(self)</text>
</g>
</g>
</svg>
