<?xml version="1.0" encoding="UTF-8" standalone="no"?>
<!DOCTYPE svg PUBLIC "-//W3C//DTD SVG 1.1//EN"
 "http://www.w3.org/Graphics/SVG/1.1/DTD/svg11.dtd">
<!-- Generated by graphviz version 13.1.2 (20250809.0930)
 -->
<!-- Title: &lt;body&gt; Pages: 1 -->
<svg width="1949pt" height="230pt"
 viewBox="0.00 0.00 1949.00 230.00" xmlns="http://www.w3.org/2000/svg" xmlns:xlink="http://www.w3.org/1999/xlink">
<g id="graph0" class="graph" transform="scale(1 1) rotate(0) translate(4 226)">
<title>&lt;body&gt;</title>
<polygon fill="white" stroke="none" points="-4,4 -4,-226 1945.08,-226 1945.08,4 -4,4"/>
<!-- 107374182406 -->
<g id="node1" class="node">
<title>107374182406</title>
<polygon fill="none" stroke="black" points="834.12,-222 750.62,-222 750.62,-182.5 834.12,-182.5 834.12,-222"/>
<text xml:space="preserve" text-anchor="start" x="758.62" y="-204.7" font-family="Times,serif" font-size="14.00">METHOD, 35</text>
<text xml:space="preserve" text-anchor="start" x="772.12" y="-188.95" font-family="Times,serif" font-size="14.00">&lt;body&gt;</text>
</g>
<!-- 111669149709 -->
<g id="node3" class="node">
<title>111669149709</title>
<polygon fill="none" stroke="black" points="76.75,-130.75 0,-130.75 0,-91.25 76.75,-91.25 76.75,-130.75"/>
<text xml:space="preserve" text-anchor="start" x="8" y="-113.45" font-family="Times,serif" font-size="14.00">PARAM, 35</text>
<text xml:space="preserve" text-anchor="start" x="28.25" y="-97.7" font-family="Times,serif" font-size="14.00">cls</text>
</g>
<!-- 107374182406&#45;&gt;111669149709 -->
<g id="edge14" class="edge">
<title>107374182406&#45;&gt;111669149709</title>
<path fill="none" stroke="black" d="M750.15,-199.85C641.3,-195.62 342.64,-180.07 99.38,-130.75 95.62,-129.99 91.77,-129.09 87.92,-128.11"/>
<polygon fill="black" stroke="black" points="89.16,-124.82 78.59,-125.56 87.31,-131.57 89.16,-124.82"/>
<text xml:space="preserve" text-anchor="middle" x="323.95" y="-151.2" font-family="Times,serif" font-size="14.00">DDG: </text>
</g>
<!-- 30064771110 -->
<g id="node4" class="node">
<title>30064771110</title>
<polygon fill="none" stroke="black" points="313.88,-130.75 108.88,-130.75 108.88,-91.25 313.88,-91.25 313.88,-130.75"/>
<text xml:space="preserve" text-anchor="start" x="127" y="-113.45" font-family="Times,serif" font-size="14.00">&lt;operator&gt;.assignment, 36</text>
<text xml:space="preserve" text-anchor="start" x="116.88" y="-97.7" font-family="Times,serif" font-size="14.00">__init__ = def __init__(...)</text>
</g>
<!-- 107374182406&#45;&gt;30064771110 -->
<g id="edge15" class="edge">
<title>107374182406&#45;&gt;30064771110</title>
<path fill="none" stroke="black" d="M750.59,-194.83C662.67,-181.33 455.94,-149.57 325.52,-129.53"/>
<polygon fill="black" stroke="black" points="326.22,-126.1 315.81,-128.04 325.16,-133.02 326.22,-126.1"/>
<text xml:space="preserve" text-anchor="middle" x="553.54" y="-151.2" font-family="Times,serif" font-size="14.00">DDG: </text>
</g>
<!-- 30064771118 -->
<g id="node5" class="node">
<title>30064771118</title>
<polygon fill="none" stroke="black" points="633.75,-130.75 449,-130.75 449,-91.25 633.75,-91.25 633.75,-130.75"/>
<text xml:space="preserve" text-anchor="start" x="457" y="-113.45" font-family="Times,serif" font-size="14.00">&lt;operator&gt;.assignment, 40</text>
<text xml:space="preserve" text-anchor="start" x="473.88" y="-97.7" font-family="Times,serif" font-size="14.00">peek = def peek(...)</text>
</g>
<!-- 107374182406&#45;&gt;30064771118 -->
<g id="edge16" class="edge">
<title>107374182406&#45;&gt;30064771118</title>
<path fill="none" stroke="black" d="M750.36,-186.31C710.96,-172.3 651.45,-151.14 606,-134.98"/>
<polygon fill="black" stroke="black" points="607.38,-131.76 596.79,-131.7 605.04,-138.35 607.38,-131.76"/>
<text xml:space="preserve" text-anchor="middle" x="698.78" y="-151.2" font-family="Times,serif" font-size="14.00">DDG: </text>
</g>
<!-- 30064771125 -->
<g id="node6" class="node">
<title>30064771125</title>
<polygon fill="none" stroke="black" points="888.12,-130.75 696.62,-130.75 696.62,-91.25 888.12,-91.25 888.12,-130.75"/>
<text xml:space="preserve" text-anchor="start" x="708" y="-113.45" font-family="Times,serif" font-size="14.00">&lt;operator&gt;.assignment, 45</text>
<text xml:space="preserve" text-anchor="start" x="704.62" y="-97.7" font-family="Times,serif" font-size="14.00">advance = def advance(...)</text>
</g>
<!-- 107374182406&#45;&gt;30064771125 -->
<g id="edge17" class="edge">
<title>107374182406&#45;&gt;30064771125</title>
<path fill="none" stroke="black" d="M792.38,-182.32C792.38,-170.8 792.38,-155.82 792.38,-142.65"/>
<polygon fill="black" stroke="black" points="795.88,-142.72 792.38,-132.72 788.88,-142.72 795.88,-142.72"/>
<text xml:space="preserve" text-anchor="middle" x="809.25" y="-151.2" font-family="Times,serif" font-size="14.00">DDG: </text>
</g>
<!-- 30064771139 -->
<g id="node7" class="node">
<title>30064771139</title>
<polygon fill="none" stroke="black" points="1161.75,-130.75 977,-130.75 977,-91.25 1161.75,-91.25 1161.75,-130.75"/>
<text xml:space="preserve" text-anchor="start" x="985" y="-113.45" font-family="Times,serif" font-size="14.00">&lt;operator&gt;.assignment, 50</text>
<text xml:space="preserve" text-anchor="start" x="988.38" y="-97.7" font-family="Times,serif" font-size="14.00">expect = def expect(...)</text>
</g>
<!-- 107374182406&#45;&gt;30064771139 -->
<g id="edge18" class="edge">
<title>107374182406&#45;&gt;30064771139</title>
<path fill="none" stroke="black" d="M834.45,-187.69C878.04,-173.65 946.92,-151.45 998.86,-134.72"/>
<polygon fill="black" stroke="black" points="999.78,-138.1 1008.23,-131.7 997.63,-131.44 999.78,-138.1"/>
<text xml:space="preserve" text-anchor="middle" x="964.33" y="-151.2" font-family="Times,serif" font-size="14.00">DDG: </text>
</g>
<!-- 30064771144 -->
<g id="node8" class="node">
<title>30064771144</title>
<polygon fill="none" stroke="black" points="1477.75,-130.75 1293,-130.75 1293,-91.25 1477.75,-91.25 1477.75,-130.75"/>
<text xml:space="preserve" text-anchor="start" x="1301" y="-113.45" font-family="Times,serif" font-size="14.00">&lt;operator&gt;.assignment, 58</text>
<text xml:space="preserve" text-anchor="start" x="1324.62" y="-97.7" font-family="Times,serif" font-size="14.00">eof = def eof(...)</text>
</g>
<!-- 107374182406&#45;&gt;30064771144 -->
<g id="edge19" class="edge">
<title>107374182406&#45;&gt;30064771144</title>
<path fill="none" stroke="black" d="M834.55,-194.9C926.85,-181.01 1149.07,-147.57 1281.33,-127.66"/>
<polygon fill="black" stroke="black" points="1281.79,-131.13 1291.16,-126.18 1280.75,-124.21 1281.79,-131.13"/>
<text xml:space="preserve" text-anchor="middle" x="1141.25" y="-151.2" font-family="Times,serif" font-size="14.00">DDG: </text>
</g>
<!-- 30064771148 -->
<g id="node9" class="node">
<title>30064771148</title>
<polygon fill="none" stroke="black" points="1749.62,-130.75 1531.12,-130.75 1531.12,-91.25 1749.62,-91.25 1749.62,-130.75"/>
<text xml:space="preserve" text-anchor="start" x="1556" y="-113.45" font-family="Times,serif" font-size="14.00">&lt;operator&gt;.assignment, 61</text>
<text xml:space="preserve" text-anchor="start" x="1539.12" y="-97.7" font-family="Times,serif" font-size="14.00">remaining = def remaining(...)</text>
</g>
<!-- 107374182406&#45;&gt;30064771148 -->
<g id="edge20" class="edge">
<title>107374182406&#45;&gt;30064771148</title>
<path fill="none" stroke="black" d="M834.26,-197.33C942.33,-187.13 1239.38,-158.65 1486.38,-130.75 1497.21,-129.53 1508.48,-128.22 1519.76,-126.89"/>
<polygon fill="black" stroke="black" points="1520.01,-130.38 1529.53,-125.73 1519.19,-123.43 1520.01,-130.38"/>
<text xml:space="preserve" text-anchor="middle" x="1332.03" y="-151.2" font-family="Times,serif" font-size="14.00">DDG: </text>
</g>
<!-- 124554051590 -->
<g id="node2" class="node">
<title>124554051590</title>
<polygon fill="none" stroke="black" points="902.75,-39.5 772,-39.5 772,0 902.75,0 902.75,-39.5"/>
<text xml:space="preserve" text-anchor="start" x="780" y="-22.2" font-family="Times,serif" font-size="14.00">METHOD_RETURN, 35</text>
<text xml:space="preserve" text-anchor="start" x="827.25" y="-6.45" font-family="Times,serif" font-size="14.00">ANY</text>
</g>
<!-- 111669149709&#45;&gt;124554051590 -->
<g id="edge1" class="edge">
<title>111669149709&#45;&gt;124554051590</title>
<path fill="none" stroke="black" d="M31.99,-90.85C29.58,-79.68 29.13,-66.14 37.38,-57.5 62.09,-31.62 564.56,-23.6 760.28,-21.45"/>
<polygon fill="black" stroke="black" points="760.13,-24.95 770.1,-21.34 760.06,-17.95 760.13,-24.95"/>
<text xml:space="preserve" text-anchor="middle" x="64.38" y="-59.95" font-family="Times,serif" font-size="14.00">DDG: cls</text>
</g>
<!-- 30064771110&#45;&gt;124554051590 -->
<g id="edge2" class="edge">
<title>30064771110&#45;&gt;124554051590</title>
<path fill="none" stroke="black" d="M118.71,-90.82C99.1,-82.78 87.94,-71.89 101.62,-57.5 124.05,-33.93 575.79,-24.61 760.09,-21.78"/>
<polygon fill="black" stroke="black" points="760.12,-25.28 770.06,-21.63 760.01,-18.28 760.12,-25.28"/>
<text xml:space="preserve" text-anchor="middle" x="145.5" y="-59.95" font-family="Times,serif" font-size="14.00">DDG: __init__</text>
</g>
<!-- 30064771110&#45;&gt;124554051590 -->
<g id="edge3" class="edge">
<title>30064771110&#45;&gt;124554051590</title>
<path fill="none" stroke="black" d="M211.69,-91C212.98,-79.45 216.69,-65.44 226.62,-57.5 267.39,-24.93 605.27,-20.71 760.24,-20.5"/>
<polygon fill="black" stroke="black" points="760.01,-24 770.01,-20.5 760.01,-17 760.01,-24"/>
<text xml:space="preserve" text-anchor="middle" x="338" y="-59.95" font-family="Times,serif" font-size="14.00">DDG: __init__ = def __init__(...)</text>
</g>
<!-- 30064771118&#45;&gt;124554051590 -->
<g id="edge4" class="edge">
<title>30064771118&#45;&gt;124554051590</title>
<path fill="none" stroke="black" d="M476.95,-90.8C458.61,-82.15 446.5,-70.85 458.62,-57.5 478.47,-35.63 655.35,-26.38 760.23,-22.8"/>
<polygon fill="black" stroke="black" points="760.32,-26.29 770.19,-22.46 760.08,-19.3 760.32,-26.29"/>
<text xml:space="preserve" text-anchor="middle" x="489" y="-59.95" font-family="Times,serif" font-size="14.00">DDG: peek</text>
</g>
<!-- 30064771118&#45;&gt;124554051590 -->
<g id="edge5" class="edge">
<title>30064771118&#45;&gt;124554051590</title>
<path fill="none" stroke="black" d="M542.69,-90.93C544.53,-79.5 548.8,-65.64 558.62,-57.5 588.5,-32.73 688.79,-24.55 760.5,-21.91"/>
<polygon fill="black" stroke="black" points="760.36,-25.42 770.24,-21.59 760.13,-18.42 760.36,-25.42"/>
<text xml:space="preserve" text-anchor="middle" x="643" y="-59.95" font-family="Times,serif" font-size="14.00">DDG: peek = def peek(...)</text>
</g>
<!-- 30064771125&#45;&gt;124554051590 -->
<g id="edge6" class="edge">
<title>30064771125&#45;&gt;124554051590</title>
<path fill="none" stroke="black" d="M750.02,-90.9C735.8,-81.74 725.53,-70.04 734.38,-57.5 741.17,-47.86 750.74,-40.73 761.33,-35.47"/>
<polygon fill="black" stroke="black" points="762.56,-38.75 770.35,-31.57 759.78,-32.32 762.56,-38.75"/>
<text xml:space="preserve" text-anchor="middle" x="774.88" y="-59.95" font-family="Times,serif" font-size="14.00">DDG: advance</text>
</g>
<!-- 30064771125&#45;&gt;124554051590 -->
<g id="edge7" class="edge">
<title>30064771125&#45;&gt;124554051590</title>
<path fill="none" stroke="black" d="M805.15,-90.89C808.66,-85.31 812.33,-79.13 815.38,-73.25 819.16,-65.94 822.81,-57.83 826.02,-50.21"/>
<polygon fill="black" stroke="black" points="829.26,-51.54 829.79,-40.95 822.77,-48.9 829.26,-51.54"/>
<text xml:space="preserve" text-anchor="middle" x="927.4" y="-59.95" font-family="Times,serif" font-size="14.00">DDG: advance = def advance(...)</text>
</g>
<!-- 30064771139&#45;&gt;124554051590 -->
<g id="edge8" class="edge">
<title>30064771139&#45;&gt;124554051590</title>
<path fill="none" stroke="black" d="M1062.05,-90.85C1056.67,-79.4 1048.22,-65.54 1036.38,-57.5 1016.56,-44.06 961.42,-34.51 914.19,-28.52"/>
<polygon fill="black" stroke="black" points="914.86,-25.08 904.51,-27.33 914.01,-32.02 914.86,-25.08"/>
<text xml:space="preserve" text-anchor="middle" x="1088.77" y="-59.95" font-family="Times,serif" font-size="14.00">DDG: expect</text>
</g>
<!-- 30064771139&#45;&gt;124554051590 -->
<g id="edge9" class="edge">
<title>30064771139&#45;&gt;124554051590</title>
<path fill="none" stroke="black" d="M1113.77,-90.97C1129.58,-81.57 1141.1,-69.65 1130.38,-57.5 1116.24,-41.48 996.33,-30.75 914.36,-25.2"/>
<polygon fill="black" stroke="black" points="914.78,-21.72 904.57,-24.55 914.31,-28.71 914.78,-21.72"/>
<text xml:space="preserve" text-anchor="middle" x="1232.42" y="-59.95" font-family="Times,serif" font-size="14.00">DDG: expect = def expect(...)</text>
</g>
<!-- 30064771144&#45;&gt;124554051590 -->
<g id="edge10" class="edge">
<title>30064771144&#45;&gt;124554051590</title>
<path fill="none" stroke="black" d="M1372.38,-90.77C1363.25,-78.96 1349.92,-64.76 1334.38,-57.5 1261.94,-23.68 1035.12,-19.54 914.54,-19.85"/>
<polygon fill="black" stroke="black" points="914.71,-16.35 904.72,-19.89 914.73,-23.35 914.71,-16.35"/>
<text xml:space="preserve" text-anchor="middle" x="1382.51" y="-59.95" font-family="Times,serif" font-size="14.00">DDG: eof</text>
</g>
<!-- 30064771144&#45;&gt;124554051590 -->
<g id="edge11" class="edge">
<title>30064771144&#45;&gt;124554051590</title>
<path fill="none" stroke="black" d="M1406.16,-90.98C1415.42,-80.27 1422.42,-67.14 1413.38,-57.5 1379.96,-21.89 1063.5,-19.2 914.39,-19.95"/>
<polygon fill="black" stroke="black" points="914.58,-16.45 904.6,-20 914.62,-23.45 914.58,-16.45"/>
<text xml:space="preserve" text-anchor="middle" x="1495.21" y="-59.95" font-family="Times,serif" font-size="14.00">DDG: eof = def eof(...)</text>
</g>
<!-- 30064771148&#45;&gt;124554051590 -->
<g id="edge12" class="edge">
<title>30064771148&#45;&gt;124554051590</title>
<path fill="none" stroke="black" d="M1623.39,-90.85C1611.53,-78.91 1594.61,-64.54 1576.38,-57.5 1515.87,-34.15 1090.98,-24.77 914.22,-21.85"/>
<polygon fill="black" stroke="black" points="914.52,-18.35 904.46,-21.69 914.4,-25.35 914.52,-18.35"/>
<text xml:space="preserve" text-anchor="middle" x="1649.01" y="-59.95" font-family="Times,serif" font-size="14.00">DDG: remaining</text>
</g>
<!-- 30064771148&#45;&gt;124554051590 -->
<g id="edge13" class="edge">
<title>30064771148&#45;&gt;124554051590</title>
<path fill="none" stroke="black" d="M1683.74,-90.96C1699.81,-81.37 1711.68,-69.29 1700.38,-57.5 1673.4,-29.36 1120.84,-22.69 914.34,-21.17"/>
<polygon fill="black" stroke="black" points="914.54,-17.68 904.52,-21.1 914.49,-24.67 914.54,-17.68"/>
<text xml:space="preserve" text-anchor="middle" x="1822.95" y="-59.95" font-family="Times,serif" font-size="14.00">DDG: remaining = def remaining(...)</text>
</g>
</g>
</svg>
