<?xml version="1.0" encoding="UTF-8" standalone="no"?>
<!DOCTYPE svg PUBLIC "-//W3C//DTD SVG 1.1//EN"
 "http://www.w3.org/Graphics/SVG/1.1/DTD/svg11.dtd">
<!-- Generated by graphviz version 13.1.2 (20250809.0930)
 -->
<!-- Title: &lt;operator&gt;.formatString Pages: 1 -->
<svg width="351pt" height="220pt"
 viewBox="0.00 0.00 351.00 220.00" xmlns="http://www.w3.org/2000/svg" xmlns:xlink="http://www.w3.org/1999/xlink">
<g id="graph0" class="graph" transform="scale(1 1) rotate(0) translate(4 215.5)">
<title>&lt;operator&gt;.formatString</title>
<polygon fill="white" stroke="none" points="-4,4 -4,-215.5 347.22,-215.5 347.22,4 -4,4"/>
<!-- 107374182479 -->
<g id="node1" class="node">
<title>107374182479</title>
<polygon fill="none" stroke="black" points="198,-211.5 144,-211.5 144,-175.5 198,-175.5 198,-211.5"/>
</g>
<!-- 111669149824 -->
<g id="node3" class="node">
<title>111669149824</title>
<polygon fill="none" stroke="black" points="54,-123.75 0,-123.75 0,-87.75 54,-87.75 54,-123.75"/>
</g>
<!-- 107374182479&#45;&gt;111669149824 -->
<g id="edge6" class="edge">
<title>107374182479&#45;&gt;111669149824</title>
<path fill="none" stroke="black" d="M143.67,-184.17C126,-178.14 102.89,-169.04 84.25,-157.5 72.66,-150.33 61.17,-140.75 51.55,-131.85"/>
<polygon fill="black" stroke="black" points="54.04,-129.39 44.4,-125 49.2,-134.45 54.04,-129.39"/>
<text xml:space="preserve" text-anchor="middle" x="101.12" y="-144.2" font-family="Times,serif" font-size="14.00">DDG: </text>
</g>
<!-- 111669149825 -->
<g id="node4" class="node">
<title>111669149825</title>
<polygon fill="none" stroke="black" points="126,-123.75 72,-123.75 72,-87.75 126,-87.75 126,-123.75"/>
</g>
<!-- 107374182479&#45;&gt;111669149825 -->
<g id="edge7" class="edge">
<title>107374182479&#45;&gt;111669149825</title>
<path fill="none" stroke="black" d="M150.57,-175.14C144.7,-169.75 138.48,-163.61 133.25,-157.5 126.93,-150.12 120.75,-141.54 115.43,-133.56"/>
<polygon fill="black" stroke="black" points="118.38,-131.68 110.01,-125.18 112.5,-135.47 118.38,-131.68"/>
<text xml:space="preserve" text-anchor="middle" x="150.12" y="-144.2" font-family="Times,serif" font-size="14.00">DDG: </text>
</g>
<!-- 111669149826 -->
<g id="node5" class="node">
<title>111669149826</title>
<polygon fill="none" stroke="black" points="198,-123.75 144,-123.75 144,-87.75 198,-87.75 198,-123.75"/>
</g>
<!-- 107374182479&#45;&gt;111669149826 -->
<g id="edge8" class="edge">
<title>107374182479&#45;&gt;111669149826</title>
<path fill="none" stroke="black" d="M171,-175.15C171,-163.76 171,-148.59 171,-135.43"/>
<polygon fill="black" stroke="black" points="174.5,-135.59 171,-125.59 167.5,-135.59 174.5,-135.59"/>
<text xml:space="preserve" text-anchor="middle" x="187.88" y="-144.2" font-family="Times,serif" font-size="14.00">DDG: </text>
</g>
<!-- 111669149827 -->
<g id="node6" class="node">
<title>111669149827</title>
<polygon fill="none" stroke="black" points="270,-123.75 216,-123.75 216,-87.75 270,-87.75 270,-123.75"/>
</g>
<!-- 107374182479&#45;&gt;111669149827 -->
<g id="edge9" class="edge">
<title>107374182479&#45;&gt;111669149827</title>
<path fill="none" stroke="black" d="M191.59,-175.17C197.49,-169.78 203.75,-163.63 209,-157.5 215.31,-150.14 221.44,-141.56 226.73,-133.58"/>
<polygon fill="black" stroke="black" points="229.65,-135.5 232.1,-125.2 223.76,-131.73 229.65,-135.5"/>
<text xml:space="preserve" text-anchor="middle" x="237.18" y="-144.2" font-family="Times,serif" font-size="14.00">DDG: </text>
</g>
<!-- 111669149828 -->
<g id="node7" class="node">
<title>111669149828</title>
<polygon fill="none" stroke="black" points="342,-123.75 288,-123.75 288,-87.75 342,-87.75 342,-123.75"/>
</g>
<!-- 107374182479&#45;&gt;111669149828 -->
<g id="edge10" class="edge">
<title>107374182479&#45;&gt;111669149828</title>
<path fill="none" stroke="black" d="M198.42,-184.2C216.15,-178.18 239.32,-169.08 258,-157.5 269.55,-150.34 281,-140.76 290.57,-131.86"/>
<polygon fill="black" stroke="black" points="292.91,-134.47 297.69,-125.02 288.06,-129.43 292.91,-134.47"/>
<text xml:space="preserve" text-anchor="middle" x="295.14" y="-144.2" font-family="Times,serif" font-size="14.00">DDG: </text>
</g>
<!-- 124554051663 -->
<g id="node2" class="node">
<title>124554051663</title>
<polygon fill="none" stroke="black" points="198,-36 144,-36 144,0 198,0 198,-36"/>
</g>
<!-- 111669149824&#45;&gt;124554051663 -->
<g id="edge1" class="edge">
<title>111669149824&#45;&gt;124554051663</title>
<path fill="none" stroke="black" d="M34.01,-87.44C39.3,-76.42 47.56,-62.63 58.75,-54 80.04,-37.58 109.15,-28.79 132.39,-24.12"/>
<polygon fill="black" stroke="black" points="132.89,-27.59 142.11,-22.37 131.64,-20.7 132.89,-27.59"/>
<text xml:space="preserve" text-anchor="middle" x="82.38" y="-56.45" font-family="Times,serif" font-size="14.00">DDG: p1</text>
</g>
<!-- 111669149825&#45;&gt;124554051663 -->
<g id="edge2" class="edge">
<title>111669149825&#45;&gt;124554051663</title>
<path fill="none" stroke="black" d="M103.33,-87.44C106.58,-76.96 111.85,-63.77 119.75,-54 123.92,-48.85 129.04,-44.15 134.42,-39.99"/>
<polygon fill="black" stroke="black" points="136.21,-43.01 142.35,-34.37 132.17,-37.29 136.21,-43.01"/>
<text xml:space="preserve" text-anchor="middle" x="143.38" y="-56.45" font-family="Times,serif" font-size="14.00">DDG: p2</text>
</g>
<!-- 111669149826&#45;&gt;124554051663 -->
<g id="edge3" class="edge">
<title>111669149826&#45;&gt;124554051663</title>
<path fill="none" stroke="black" d="M171,-87.4C171,-76.01 171,-60.84 171,-47.68"/>
<polygon fill="black" stroke="black" points="174.5,-47.84 171,-37.84 167.5,-47.84 174.5,-47.84"/>
<text xml:space="preserve" text-anchor="middle" x="194.62" y="-56.45" font-family="Times,serif" font-size="14.00">DDG: p3</text>
</g>
<!-- 111669149827&#45;&gt;124554051663 -->
<g id="edge4" class="edge">
<title>111669149827&#45;&gt;124554051663</title>
<path fill="none" stroke="black" d="M237.75,-87.51C233.97,-77.05 228.11,-63.86 220,-54 216.32,-49.52 211.93,-45.34 207.32,-41.54"/>
<polygon fill="black" stroke="black" points="209.59,-38.87 199.51,-35.63 205.37,-44.45 209.59,-38.87"/>
<text xml:space="preserve" text-anchor="middle" x="253.5" y="-56.45" font-family="Times,serif" font-size="14.00">DDG: p4</text>
</g>
<!-- 111669149828&#45;&gt;124554051663 -->
<g id="edge5" class="edge">
<title>111669149828&#45;&gt;124554051663</title>
<path fill="none" stroke="black" d="M307.19,-87.46C301.41,-76.44 292.53,-62.66 281,-54 260.12,-38.32 232,-29.53 209.42,-24.69"/>
<polygon fill="black" stroke="black" points="210.16,-21.26 199.67,-22.78 208.82,-28.13 210.16,-21.26"/>
<text xml:space="preserve" text-anchor="middle" x="319.6" y="-56.45" font-family="Times,serif" font-size="14.00">DDG: p5</text>
</g>
</g>
</svg>
