<?xml version="1.0" encoding="UTF-8" standalone="no"?>
<!DOCTYPE svg PUBLIC "-//W3C//DTD SVG 1.1//EN"
 "http://www.w3.org/Graphics/SVG/1.1/DTD/svg11.dtd">
<!-- Generated by graphviz version 13.1.2 (20250809.0930)
 -->
<!-- Title: advance Pages: 1 -->
<svg width="879pt" height="337pt"
 viewBox="0.00 0.00 879.00 337.00" xmlns="http://www.w3.org/2000/svg" xmlns:xlink="http://www.w3.org/1999/xlink">
<g id="graph0" class="graph" transform="scale(1 1) rotate(0) translate(4 333)">
<title>advance</title>
<polygon fill="white" stroke="none" points="-4,4 -4,-333 875.09,-333 875.09,4 -4,4"/>
<!-- 107374182409 -->
<g id="node1" class="node">
<title>107374182409</title>
<polygon fill="none" stroke="black" points="253.4,-329 169.9,-329 169.9,-289.5 253.4,-289.5 253.4,-329"/>
<text xml:space="preserve" text-anchor="start" x="177.9" y="-311.7" font-family="Times,serif" font-size="14.00">METHOD, 45</text>
<text xml:space="preserve" text-anchor="start" x="188.03" y="-295.95" font-family="Times,serif" font-size="14.00">advance</text>
</g>
<!-- 111669149713 -->
<g id="node3" class="node">
<title>111669149713</title>
<polygon fill="none" stroke="black" points="174.03,-229.88 97.28,-229.88 97.28,-190.38 174.03,-190.38 174.03,-229.88"/>
<text xml:space="preserve" text-anchor="start" x="105.28" y="-212.57" font-family="Times,serif" font-size="14.00">PARAM, 45</text>
<text xml:space="preserve" text-anchor="start" x="122.15" y="-196.82" font-family="Times,serif" font-size="14.00">self</text>
</g>
<!-- 107374182409&#45;&gt;111669149713 -->
<g id="edge8" class="edge">
<title>107374182409&#45;&gt;111669149713</title>
<path fill="none" stroke="black" d="M182.4,-289.28C175.77,-284.06 169.14,-278.03 163.9,-271.5 156.54,-262.32 150.57,-250.91 146.04,-240.49"/>
<polygon fill="black" stroke="black" points="149.41,-239.48 142.43,-231.52 142.92,-242.1 149.41,-239.48"/>
<text xml:space="preserve" text-anchor="middle" x="180.78" y="-258.2" font-family="Times,serif" font-size="14.00">DDG: </text>
</g>
<!-- 30064771124 -->
<g id="node5" class="node">
<title>30064771124</title>
<polygon fill="none" stroke="black" points="288.53,-130.75 76.78,-130.75 76.78,-91.25 288.53,-91.25 288.53,-130.75"/>
<text xml:space="preserve" text-anchor="start" x="84.78" y="-113.45" font-family="Times,serif" font-size="14.00">&lt;operator&gt;.assignmentPlus, 47</text>
<text xml:space="preserve" text-anchor="start" x="138.78" y="-97.7" font-family="Times,serif" font-size="14.00">self.pos += 1</text>
</g>
<!-- 107374182409&#45;&gt;30064771124 -->
<g id="edge9" class="edge">
<title>107374182409&#45;&gt;30064771124</title>
<path fill="none" stroke="black" d="M211.81,-289.05C211.64,-258.78 209.66,-198.33 197.65,-148.75 197.1,-146.45 196.42,-144.1 195.66,-141.76"/>
<polygon fill="black" stroke="black" points="198.99,-140.68 192.24,-132.51 192.43,-143.11 198.99,-140.68"/>
<text xml:space="preserve" text-anchor="middle" x="226.84" y="-204.7" font-family="Times,serif" font-size="14.00">DDG: </text>
</g>
<!-- 68719476787 -->
<g id="node7" class="node">
<title>68719476787</title>
<polygon fill="none" stroke="black" points="396.9,-237.75 286.4,-237.75 286.4,-182.5 396.9,-182.5 396.9,-237.75"/>
<text xml:space="preserve" text-anchor="start" x="294.4" y="-220.45" font-family="Times,serif" font-size="14.00">IDENTIFIER, 48</text>
<text xml:space="preserve" text-anchor="start" x="334.9" y="-204.7" font-family="Times,serif" font-size="14.00">ch</text>
<text xml:space="preserve" text-anchor="start" x="311.28" y="-188.95" font-family="Times,serif" font-size="14.00">return ch</text>
</g>
<!-- 107374182409&#45;&gt;68719476787 -->
<g id="edge13" class="edge">
<title>107374182409&#45;&gt;68719476787</title>
<path fill="none" stroke="black" d="M237.34,-289.06C254.2,-276.46 276.72,-259.64 296.52,-244.84"/>
<polygon fill="black" stroke="black" points="298.56,-247.69 304.48,-238.9 294.37,-242.08 298.56,-247.69"/>
<text xml:space="preserve" text-anchor="middle" x="297.43" y="-258.2" font-family="Times,serif" font-size="14.00">DDG: </text>
</g>
<!-- 124554051593 -->
<g id="node2" class="node">
<title>124554051593</title>
<polygon fill="none" stroke="black" points="407.03,-39.5 276.28,-39.5 276.28,0 407.03,0 407.03,-39.5"/>
<text xml:space="preserve" text-anchor="start" x="284.28" y="-22.2" font-family="Times,serif" font-size="14.00">METHOD_RETURN, 45</text>
<text xml:space="preserve" text-anchor="start" x="331.53" y="-6.45" font-family="Times,serif" font-size="14.00">ANY</text>
</g>
<!-- 111669149713&#45;&gt;124554051593 -->
<g id="edge2" class="edge">
<title>111669149713&#45;&gt;124554051593</title>
<path fill="none" stroke="black" d="M97.05,-194.83C49.56,-174.94 -21.48,-136.23 6.9,-91.25 34.03,-48.26 174.55,-31.24 264.69,-24.68"/>
<polygon fill="black" stroke="black" points="264.72,-28.19 274.46,-24 264.24,-21.2 264.72,-28.19"/>
<text xml:space="preserve" text-anchor="middle" x="37.28" y="-105.58" font-family="Times,serif" font-size="14.00">DDG: self</text>
</g>
<!-- 111669149713&#45;&gt;30064771124 -->
<g id="edge11" class="edge">
<title>111669149713&#45;&gt;30064771124</title>
<path fill="none" stroke="black" d="M132.04,-189.92C130.65,-177.54 130.65,-161.45 136.9,-148.75 138.57,-145.37 140.71,-142.2 143.15,-139.24"/>
<polygon fill="black" stroke="black" points="145.63,-141.72 150.15,-132.14 140.64,-136.81 145.63,-141.72"/>
<text xml:space="preserve" text-anchor="middle" x="167.28" y="-151.2" font-family="Times,serif" font-size="14.00">DDG: self</text>
</g>
<!-- 30064771122 -->
<g id="node4" class="node">
<title>30064771122</title>
<polygon fill="none" stroke="black" points="555.4,-329 363.9,-329 363.9,-289.5 555.4,-289.5 555.4,-329"/>
<text xml:space="preserve" text-anchor="start" x="375.28" y="-311.7" font-family="Times,serif" font-size="14.00">&lt;operator&gt;.assignment, 46</text>
<text xml:space="preserve" text-anchor="start" x="371.9" y="-295.95" font-family="Times,serif" font-size="14.00">ch = self.source[self.pos]</text>
</g>
<!-- 30064771122&#45;&gt;124554051593 -->
<g id="edge3" class="edge">
<title>30064771122&#45;&gt;124554051593</title>
<path fill="none" stroke="black" d="M454.52,-289.31C447.24,-261.93 433.87,-209.64 425.4,-164.5 416.55,-117.32 438.12,-96.87 410.65,-57.5 407.9,-53.56 404.59,-50 400.92,-46.8"/>
<polygon fill="black" stroke="black" points="403.14,-44.08 393.04,-40.87 398.93,-49.68 403.14,-44.08"/>
<text xml:space="preserve" text-anchor="middle" x="449.03" y="-151.2" font-family="Times,serif" font-size="14.00">DDG: ch</text>
</g>
<!-- 30064771122&#45;&gt;124554051593 -->
<g id="edge4" class="edge">
<title>30064771122&#45;&gt;124554051593</title>
<path fill="none" stroke="black" d="M464.86,-289.32C472.34,-259.18 484.04,-198.59 472.65,-148.75 462.62,-104.86 461.27,-88.54 428.65,-57.5 423.86,-52.94 418.41,-48.9 412.64,-45.34"/>
<polygon fill="black" stroke="black" points="414.44,-42.33 404,-40.51 411.03,-48.44 414.44,-42.33"/>
<text xml:space="preserve" text-anchor="middle" x="563.08" y="-151.2" font-family="Times,serif" font-size="14.00">DDG: self.source[self.pos]</text>
</g>
<!-- 30064771122&#45;&gt;124554051593 -->
<g id="edge5" class="edge">
<title>30064771122&#45;&gt;124554051593</title>
<path fill="none" stroke="black" d="M520.23,-289.06C591.72,-263.03 695.98,-212.39 654.65,-148.75 603.4,-69.84 493.64,-39.56 418.72,-27.96"/>
<polygon fill="black" stroke="black" points="419.37,-24.51 408.97,-26.53 418.36,-31.44 419.37,-24.51"/>
<text xml:space="preserve" text-anchor="middle" x="766.46" y="-151.2" font-family="Times,serif" font-size="14.00">DDG: ch = self.source[self.pos]</text>
</g>
<!-- 30064771122&#45;&gt;68719476787 -->
<g id="edge12" class="edge">
<title>30064771122&#45;&gt;68719476787</title>
<path fill="none" stroke="black" d="M388.05,-289.1C378.97,-284.43 370.42,-278.65 363.4,-271.5 357.27,-265.25 352.86,-257.15 349.68,-248.93"/>
<polygon fill="black" stroke="black" points="353.07,-248.04 346.65,-239.62 346.42,-250.21 353.07,-248.04"/>
<text xml:space="preserve" text-anchor="middle" x="387.03" y="-258.2" font-family="Times,serif" font-size="14.00">DDG: ch</text>
</g>
<!-- 30064771124&#45;&gt;124554051593 -->
<g id="edge6" class="edge">
<title>30064771124&#45;&gt;124554051593</title>
<path fill="none" stroke="black" d="M104.64,-90.86C86.04,-82.64 74.68,-71.62 86.9,-57.5 109.58,-31.32 198.22,-23.37 264.61,-21.17"/>
<polygon fill="black" stroke="black" points="264.48,-24.68 274.38,-20.89 264.28,-17.68 264.48,-24.68"/>
<text xml:space="preserve" text-anchor="middle" x="130.78" y="-59.95" font-family="Times,serif" font-size="14.00">DDG: self.pos</text>
</g>
<!-- 30064771124&#45;&gt;124554051593 -->
<g id="edge7" class="edge">
<title>30064771124&#45;&gt;124554051593</title>
<path fill="none" stroke="black" d="M191.09,-90.76C196.91,-79.56 205.68,-66.01 217.15,-57.5 231.18,-47.09 248.13,-39.62 264.95,-34.25"/>
<polygon fill="black" stroke="black" points="265.88,-37.63 274.49,-31.45 263.91,-30.91 265.88,-37.63"/>
<text xml:space="preserve" text-anchor="middle" x="277.9" y="-59.95" font-family="Times,serif" font-size="14.00">DDG: self.pos += 1</text>
</g>
<!-- 141733920773 -->
<g id="node6" class="node">
<title>141733920773</title>
<polygon fill="none" stroke="black" points="390.4,-130.75 306.9,-130.75 306.9,-91.25 390.4,-91.25 390.4,-130.75"/>
<text xml:space="preserve" text-anchor="start" x="314.9" y="-113.45" font-family="Times,serif" font-size="14.00">RETURN, 48</text>
<text xml:space="preserve" text-anchor="start" x="318.28" y="-97.7" font-family="Times,serif" font-size="14.00">return ch</text>
</g>
<!-- 141733920773&#45;&gt;124554051593 -->
<g id="edge1" class="edge">
<title>141733920773&#45;&gt;124554051593</title>
<path fill="none" stroke="black" d="M345.36,-90.98C344.5,-85.29 343.67,-79.03 343.15,-73.25 342.52,-66.06 342.13,-58.31 341.9,-51.02"/>
<polygon fill="black" stroke="black" points="345.4,-51.17 341.68,-41.25 338.4,-51.33 345.4,-51.17"/>
<text xml:space="preserve" text-anchor="middle" x="376.9" y="-59.95" font-family="Times,serif" font-size="14.00">DDG: &lt;RET&gt;</text>
</g>
<!-- 68719476787&#45;&gt;141733920773 -->
<g id="edge10" class="edge">
<title>68719476787&#45;&gt;141733920773</title>
<path fill="none" stroke="black" d="M343.6,-182.07C344.49,-169.82 345.53,-155.28 346.45,-142.63"/>
<polygon fill="black" stroke="black" points="349.93,-142.95 347.16,-132.73 342.95,-142.45 349.93,-142.95"/>
<text xml:space="preserve" text-anchor="middle" x="369.61" y="-151.2" font-family="Times,serif" font-size="14.00">DDG: ch</text>
</g>
</g>
</svg>
