<?xml version="1.0" encoding="UTF-8" standalone="no"?>
<!DOCTYPE svg PUBLIC "-//W3C//DTD SVG 1.1//EN"
 "http://www.w3.org/Graphics/SVG/1.1/DTD/svg11.dtd">
<!-- Generated by graphviz version 13.1.2 (20250809.0930)
 -->
<!-- Title: &lt;body&gt; Pages: 1 -->
<svg width="440pt" height="230pt"
 viewBox="0.00 0.00 440.00 230.00" xmlns="http://www.w3.org/2000/svg" xmlns:xlink="http://www.w3.org/1999/xlink">
<g id="graph0" class="graph" transform="scale(1 1) rotate(0) translate(4 226)">
<title>&lt;body&gt;</title>
<polygon fill="white" stroke="none" points="-4,4 -4,-226 435.51,-226 435.51,4 -4,4"/>
<!-- 107374182401 -->
<g id="node1" class="node">
<title>107374182401</title>
<polygon fill="none" stroke="black" points="159.12,-222 75.62,-222 75.62,-182.5 159.12,-182.5 159.12,-222"/>
<text xml:space="preserve" text-anchor="start" x="83.62" y="-204.7" font-family="Times,serif" font-size="14.00">METHOD, 24</text>
<text xml:space="preserve" text-anchor="start" x="97.12" y="-188.95" font-family="Times,serif" font-size="14.00">&lt;body&gt;</text>
</g>
<!-- 111669149696 -->
<g id="node3" class="node">
<title>111669149696</title>
<polygon fill="none" stroke="black" points="76.75,-130.75 0,-130.75 0,-91.25 76.75,-91.25 76.75,-130.75"/>
<text xml:space="preserve" text-anchor="start" x="8" y="-113.45" font-family="Times,serif" font-size="14.00">PARAM, 24</text>
<text xml:space="preserve" text-anchor="start" x="28.25" y="-97.7" font-family="Times,serif" font-size="14.00">cls</text>
</g>
<!-- 107374182401&#45;&gt;111669149696 -->
<g id="edge4" class="edge">
<title>107374182401&#45;&gt;111669149696</title>
<path fill="none" stroke="black" d="M100.62,-182.32C89.59,-169.86 74.98,-153.35 62.68,-139.46"/>
<polygon fill="black" stroke="black" points="65.63,-137.51 56.38,-132.34 60.39,-142.15 65.63,-137.51"/>
<text xml:space="preserve" text-anchor="middle" x="99.48" y="-151.2" font-family="Times,serif" font-size="14.00">DDG: </text>
</g>
<!-- 30064771096 -->
<g id="node4" class="node">
<title>30064771096</title>
<polygon fill="none" stroke="black" points="299.88,-130.75 94.88,-130.75 94.88,-91.25 299.88,-91.25 299.88,-130.75"/>
<text xml:space="preserve" text-anchor="start" x="113" y="-113.45" font-family="Times,serif" font-size="14.00">&lt;operator&gt;.assignment, 25</text>
<text xml:space="preserve" text-anchor="start" x="102.88" y="-97.7" font-family="Times,serif" font-size="14.00">__init__ = def __init__(...)</text>
</g>
<!-- 107374182401&#45;&gt;30064771096 -->
<g id="edge5" class="edge">
<title>107374182401&#45;&gt;30064771096</title>
<path fill="none" stroke="black" d="M134.34,-182.32C145.51,-169.86 160.31,-153.35 172.76,-139.46"/>
<polygon fill="black" stroke="black" points="175.08,-142.12 179.15,-132.34 169.87,-137.45 175.08,-142.12"/>
<text xml:space="preserve" text-anchor="middle" x="179.04" y="-151.2" font-family="Times,serif" font-size="14.00">DDG: </text>
</g>
<!-- 124554051585 -->
<g id="node2" class="node">
<title>124554051585</title>
<polygon fill="none" stroke="black" points="180.75,-39.5 50,-39.5 50,0 180.75,0 180.75,-39.5"/>
<text xml:space="preserve" text-anchor="start" x="58" y="-22.2" font-family="Times,serif" font-size="14.00">METHOD_RETURN, 24</text>
<text xml:space="preserve" text-anchor="start" x="105.25" y="-6.45" font-family="Times,serif" font-size="14.00">ANY</text>
</g>
<!-- 111669149696&#45;&gt;124554051585 -->
<g id="edge1" class="edge">
<title>111669149696&#45;&gt;124554051585</title>
<path fill="none" stroke="black" d="M34.12,-90.87C32.84,-80.25 33.13,-67.25 39.38,-57.5 41.95,-53.47 45.11,-49.88 48.65,-46.67"/>
<polygon fill="black" stroke="black" points="50.53,-49.63 56.34,-40.77 46.27,-44.08 50.53,-49.63"/>
<text xml:space="preserve" text-anchor="middle" x="66.38" y="-59.95" font-family="Times,serif" font-size="14.00">DDG: cls</text>
</g>
<!-- 30064771096&#45;&gt;124554051585 -->
<g id="edge2" class="edge">
<title>30064771096&#45;&gt;124554051585</title>
<path fill="none" stroke="black" d="M135.23,-90.93C127.92,-86.25 121.38,-80.45 116.62,-73.25 112.39,-66.83 110.81,-58.95 110.59,-51.26"/>
<polygon fill="black" stroke="black" points="114.08,-51.62 111.07,-41.46 107.09,-51.28 114.08,-51.62"/>
<text xml:space="preserve" text-anchor="middle" x="160.5" y="-59.95" font-family="Times,serif" font-size="14.00">DDG: __init__</text>
</g>
<!-- 30064771096&#45;&gt;124554051585 -->
<g id="edge3" class="edge">
<title>30064771096&#45;&gt;124554051585</title>
<path fill="none" stroke="black" d="M205.86,-90.84C209.2,-80.2 210.87,-67.21 204.38,-57.5 200.62,-51.89 195.84,-47.14 190.45,-43.11"/>
<polygon fill="black" stroke="black" points="192.46,-40.24 182.15,-37.81 188.69,-46.14 192.46,-40.24"/>
<text xml:space="preserve" text-anchor="middle" x="320.14" y="-59.95" font-family="Times,serif" font-size="14.00">DDG: __init__ = def __init__(...)</text>
</g>
</g>
</svg>
