<?xml version="1.0" encoding="UTF-8" standalone="no"?>
<!DOCTYPE svg PUBLIC "-//W3C//DTD SVG 1.1//EN"
 "http://www.w3.org/Graphics/SVG/1.1/DTD/svg11.dtd">
<!-- Generated by graphviz version 13.1.2 (20250809.0930)
 -->
<!-- Title: eof Pages: 1 -->
<svg width="989pt" height="520pt"
 viewBox="0.00 0.00 989.00 520.00" xmlns="http://www.w3.org/2000/svg" xmlns:xlink="http://www.w3.org/1999/xlink">
<g id="graph0" class="graph" transform="scale(1 1) rotate(0) translate(4 515.5)">
<title>eof</title>
<polygon fill="white" stroke="none" points="-4,4 -4,-515.5 985.45,-515.5 985.45,4 -4,4"/>
<!-- 107374182411 -->
<g id="node1" class="node">
<title>107374182411</title>
<polygon fill="none" stroke="black" points="327.75,-511.5 244.25,-511.5 244.25,-472 327.75,-472 327.75,-511.5"/>
<text xml:space="preserve" text-anchor="start" x="252.25" y="-494.2" font-family="Times,serif" font-size="14.00">METHOD, 58</text>
<text xml:space="preserve" text-anchor="start" x="275.88" y="-478.45" font-family="Times,serif" font-size="14.00">eof</text>
</g>
<!-- 111669149716 -->
<g id="node3" class="node">
<title>111669149716</title>
<polygon fill="none" stroke="black" points="265.38,-412.38 188.62,-412.38 188.62,-372.88 265.38,-372.88 265.38,-412.38"/>
<text xml:space="preserve" text-anchor="start" x="196.62" y="-395.07" font-family="Times,serif" font-size="14.00">PARAM, 58</text>
<text xml:space="preserve" text-anchor="start" x="213.5" y="-379.32" font-family="Times,serif" font-size="14.00">self</text>
</g>
<!-- 107374182411&#45;&gt;111669149716 -->
<g id="edge7" class="edge">
<title>107374182411&#45;&gt;111669149716</title>
<path fill="none" stroke="black" d="M274.34,-471.56C265.86,-457.59 254.22,-438.43 244.6,-422.61"/>
<polygon fill="black" stroke="black" points="247.6,-420.8 239.42,-414.07 241.62,-424.43 247.6,-420.8"/>
<text xml:space="preserve" text-anchor="middle" x="280.39" y="-440.7" font-family="Times,serif" font-size="14.00">DDG: </text>
</g>
<!-- 68719476804 -->
<g id="node6" class="node">
<title>68719476804</title>
<polygon fill="none" stroke="black" points="407,-420.25 283,-420.25 283,-365 407,-365 407,-420.25"/>
<text xml:space="preserve" text-anchor="start" x="297.75" y="-402.95" font-family="Times,serif" font-size="14.00">IDENTIFIER, 59</text>
<text xml:space="preserve" text-anchor="start" x="334.88" y="-387.2" font-family="Times,serif" font-size="14.00">len</text>
<text xml:space="preserve" text-anchor="start" x="291" y="-371.45" font-family="Times,serif" font-size="14.00">len(self.source)</text>
</g>
<!-- 107374182411&#45;&gt;68719476804 -->
<g id="edge11" class="edge">
<title>107374182411&#45;&gt;68719476804</title>
<path fill="none" stroke="black" d="M297.66,-471.56C304.86,-459.7 314.34,-444.1 322.92,-429.97"/>
<polygon fill="black" stroke="black" points="325.69,-432.15 327.89,-421.79 319.71,-428.52 325.69,-432.15"/>
<text xml:space="preserve" text-anchor="middle" x="334.14" y="-440.7" font-family="Times,serif" font-size="14.00">DDG: </text>
</g>
<!-- 124554051595 -->
<g id="node2" class="node">
<title>124554051595</title>
<polygon fill="none" stroke="black" points="324.38,-39.5 193.62,-39.5 193.62,0 324.38,0 324.38,-39.5"/>
<text xml:space="preserve" text-anchor="start" x="201.62" y="-22.2" font-family="Times,serif" font-size="14.00">METHOD_RETURN, 58</text>
<text xml:space="preserve" text-anchor="start" x="248.88" y="-6.45" font-family="Times,serif" font-size="14.00">ANY</text>
</g>
<!-- 111669149716&#45;&gt;124554051595 -->
<g id="edge2" class="edge">
<title>111669149716&#45;&gt;124554051595</title>
<path fill="none" stroke="black" d="M188.24,-391.79C123.4,-389.81 0,-375.41 0,-294.5 0,-294.5 0,-294.5 0,-110 0,-70.75 35.08,-73.32 71,-57.5 105.88,-42.14 147.2,-33.17 182.21,-27.94"/>
<polygon fill="black" stroke="black" points="182.43,-31.44 191.84,-26.58 181.45,-24.51 182.43,-31.44"/>
<text xml:space="preserve" text-anchor="middle" x="30.38" y="-196.82" font-family="Times,serif" font-size="14.00">DDG: self</text>
</g>
<!-- 30064771143 -->
<g id="node5" class="node">
<title>30064771143</title>
<polygon fill="none" stroke="black" points="387,-222 155,-222 155,-182.5 387,-182.5 387,-222"/>
<text xml:space="preserve" text-anchor="start" x="163" y="-204.7" font-family="Times,serif" font-size="14.00">&lt;operator&gt;.greaterEqualsThan, 59</text>
<text xml:space="preserve" text-anchor="start" x="176.5" y="-188.95" font-family="Times,serif" font-size="14.00">self.pos &gt;= len(self.source)</text>
</g>
<!-- 111669149716&#45;&gt;30064771143 -->
<g id="edge9" class="edge">
<title>111669149716&#45;&gt;30064771143</title>
<path fill="none" stroke="black" d="M226.31,-372.46C225.95,-348.82 226.95,-307.6 236.25,-273.75 240.2,-259.36 247.12,-244.4 253.75,-231.98"/>
<polygon fill="black" stroke="black" points="256.64,-233.97 258.44,-223.53 250.53,-230.57 256.64,-233.97"/>
<text xml:space="preserve" text-anchor="middle" x="266.62" y="-288.07" font-family="Times,serif" font-size="14.00">DDG: self</text>
</g>
<!-- 30064771142 -->
<g id="node7" class="node">
<title>30064771142</title>
<polygon fill="none" stroke="black" points="430,-313.25 306,-313.25 306,-273.75 430,-273.75 430,-313.25"/>
<text xml:space="preserve" text-anchor="start" x="344.38" y="-295.95" font-family="Times,serif" font-size="14.00">len, 59</text>
<text xml:space="preserve" text-anchor="start" x="314" y="-280.2" font-family="Times,serif" font-size="14.00">len(self.source)</text>
</g>
<!-- 111669149716&#45;&gt;30064771142 -->
<g id="edge12" class="edge">
<title>111669149716&#45;&gt;30064771142</title>
<path fill="none" stroke="black" d="M254.86,-372.44C276.58,-357.47 306.96,-336.54 330.77,-320.14"/>
<polygon fill="black" stroke="black" points="332.7,-323.06 338.95,-314.51 328.73,-317.3 332.7,-323.06"/>
<text xml:space="preserve" text-anchor="middle" x="344.65" y="-333.7" font-family="Times,serif" font-size="14.00">DDG: self</text>
</g>
<!-- 141733920774 -->
<g id="node4" class="node">
<title>141733920774</title>
<polygon fill="none" stroke="black" points="841.12,-130.75 588.88,-130.75 588.88,-91.25 841.12,-91.25 841.12,-130.75"/>
<text xml:space="preserve" text-anchor="start" x="681.25" y="-113.45" font-family="Times,serif" font-size="14.00">RETURN, 59</text>
<text xml:space="preserve" text-anchor="start" x="596.88" y="-97.7" font-family="Times,serif" font-size="14.00">return self.pos &gt;= len(self.source)</text>
</g>
<!-- 141733920774&#45;&gt;124554051595 -->
<g id="edge1" class="edge">
<title>141733920774&#45;&gt;124554051595</title>
<path fill="none" stroke="black" d="M616.9,-90.8C532.69,-74.32 413.02,-50.9 335.69,-35.76"/>
<polygon fill="black" stroke="black" points="336.57,-32.37 326.08,-33.88 335.22,-39.23 336.57,-32.37"/>
<text xml:space="preserve" text-anchor="middle" x="548.05" y="-59.95" font-family="Times,serif" font-size="14.00">DDG: &lt;RET&gt;</text>
</g>
<!-- 30064771143&#45;&gt;124554051595 -->
<g id="edge3" class="edge">
<title>30064771143&#45;&gt;124554051595</title>
<path fill="none" stroke="black" d="M154.77,-189.25C118.47,-179.35 82.21,-161.77 60.25,-130.75 23.54,-78.88 111.78,-48.73 182.22,-33.5"/>
<polygon fill="black" stroke="black" points="182.79,-36.96 191.87,-31.5 181.36,-30.11 182.79,-36.96"/>
<text xml:space="preserve" text-anchor="middle" x="104.12" y="-105.58" font-family="Times,serif" font-size="14.00">DDG: self.pos</text>
</g>
<!-- 30064771143&#45;&gt;124554051595 -->
<g id="edge5" class="edge">
<title>30064771143&#45;&gt;124554051595</title>
<path fill="none" stroke="black" d="M234.74,-182.26C215.94,-170.25 194.76,-152.83 184.25,-130.75 176.71,-114.9 177.3,-107.37 184.25,-91.25 191.8,-73.75 206.06,-58.58 220.13,-46.84"/>
<polygon fill="black" stroke="black" points="221.94,-49.87 227.61,-40.93 217.59,-44.38 221.94,-49.87"/>
<text xml:space="preserve" text-anchor="middle" x="255.12" y="-105.58" font-family="Times,serif" font-size="14.00">DDG: len(self.source)</text>
</g>
<!-- 30064771143&#45;&gt;124554051595 -->
<g id="edge6" class="edge">
<title>30064771143&#45;&gt;124554051595</title>
<path fill="none" stroke="black" d="M291.68,-182.17C304.26,-169.09 319.18,-150.57 326,-130.75 331.71,-114.15 332.51,-107.55 326,-91.25 319.22,-74.27 306.19,-59.04 293.41,-47.12"/>
<polygon fill="black" stroke="black" points="296.05,-44.79 286.24,-40.78 291.41,-50.03 296.05,-44.79"/>
<text xml:space="preserve" text-anchor="middle" x="441.96" y="-105.58" font-family="Times,serif" font-size="14.00">DDG: self.pos &gt;= len(self.source)</text>
</g>
<!-- 30064771143&#45;&gt;141733920774 -->
<g id="edge8" class="edge">
<title>30064771143&#45;&gt;141733920774</title>
<path fill="none" stroke="black" d="M366.52,-182.05C437.55,-167.77 534.51,-148.28 608.12,-133.49"/>
<polygon fill="black" stroke="black" points="608.66,-136.95 617.78,-131.54 607.28,-130.08 608.66,-136.95"/>
<text xml:space="preserve" text-anchor="middle" x="630.96" y="-151.2" font-family="Times,serif" font-size="14.00">DDG: self.pos &gt;= len(self.source)</text>
</g>
<!-- 30064771142&#45;&gt;124554051595 -->
<g id="edge4" class="edge">
<title>30064771142&#45;&gt;124554051595</title>
<path fill="none" stroke="black" d="M430.39,-288.49C586.58,-276.28 973.36,-231.38 850,-91.25 816.55,-53.25 487.98,-32.12 335.73,-24.29"/>
<polygon fill="black" stroke="black" points="336.32,-20.82 326.15,-23.81 335.96,-27.81 336.32,-20.82"/>
<text xml:space="preserve" text-anchor="middle" x="927.45" y="-151.2" font-family="Times,serif" font-size="14.00">DDG: self.source</text>
</g>
<!-- 30064771142&#45;&gt;30064771143 -->
<g id="edge10" class="edge">
<title>30064771142&#45;&gt;30064771143</title>
<path fill="none" stroke="black" d="M347.43,-273.57C333.63,-260.88 315.27,-243.98 299.99,-229.93"/>
<polygon fill="black" stroke="black" points="302.72,-227.68 292.99,-223.48 297.98,-232.83 302.72,-227.68"/>
<text xml:space="preserve" text-anchor="middle" x="379.31" y="-242.45" font-family="Times,serif" font-size="14.00">DDG: self.source</text>
</g>
</g>
</svg>
