<?xml version="1.0" encoding="UTF-8" standalone="no"?>
<!DOCTYPE svg PUBLIC "-//W3C//DTD SVG 1.1//EN"
 "http://www.w3.org/Graphics/SVG/1.1/DTD/svg11.dtd">
<!-- Generated by graphviz version 13.1.2 (20250809.0930)
 -->
<!-- Title: &lt;fakeNew&gt; Pages: 1 -->
<svg width="926pt" height="520pt"
 viewBox="0.00 0.00 926.00 520.00" xmlns="http://www.w3.org/2000/svg" xmlns:xlink="http://www.w3.org/1999/xlink">
<g id="graph0" class="graph" transform="scale(1 1) rotate(0) translate(4 515.5)">
<title>&lt;fakeNew&gt;</title>
<polygon fill="white" stroke="none" points="-4,4 -4,-515.5 922.13,-515.5 922.13,4 -4,4"/>
<!-- 107374182414 -->
<g id="node1" class="node">
<title>107374182414</title>
<polygon fill="none" stroke="black" points="447.12,-511.5 363.62,-511.5 363.62,-472 447.12,-472 447.12,-511.5"/>
<text xml:space="preserve" text-anchor="start" x="371.62" y="-494.2" font-family="Times,serif" font-size="14.00">METHOD, 36</text>
<text xml:space="preserve" text-anchor="start" x="375" y="-478.45" font-family="Times,serif" font-size="14.00">&lt;fakeNew&gt;</text>
</g>
<!-- 111669149719 -->
<g id="node3" class="node">
<title>111669149719</title>
<polygon fill="none" stroke="black" points="443.75,-420.25 367,-420.25 367,-380.75 443.75,-380.75 443.75,-420.25"/>
<text xml:space="preserve" text-anchor="start" x="375" y="-402.95" font-family="Times,serif" font-size="14.00">PARAM, 36</text>
<text xml:space="preserve" text-anchor="start" x="395.25" y="-387.2" font-family="Times,serif" font-size="14.00">cls</text>
</g>
<!-- 107374182414&#45;&gt;111669149719 -->
<g id="edge8" class="edge">
<title>107374182414&#45;&gt;111669149719</title>
<path fill="none" stroke="black" d="M405.38,-471.82C405.38,-460.3 405.38,-445.32 405.38,-432.15"/>
<polygon fill="black" stroke="black" points="408.88,-432.22 405.38,-422.22 401.88,-432.22 408.88,-432.22"/>
<text xml:space="preserve" text-anchor="middle" x="422.25" y="-440.7" font-family="Times,serif" font-size="14.00">DDG: </text>
</g>
<!-- 111669149720 -->
<g id="node4" class="node">
<title>111669149720</title>
<polygon fill="none" stroke="black" points="538.75,-420.25 462,-420.25 462,-380.75 538.75,-380.75 538.75,-420.25"/>
<text xml:space="preserve" text-anchor="start" x="470" y="-402.95" font-family="Times,serif" font-size="14.00">PARAM, 36</text>
<text xml:space="preserve" text-anchor="start" x="480.12" y="-387.2" font-family="Times,serif" font-size="14.00">source</text>
</g>
<!-- 107374182414&#45;&gt;111669149720 -->
<g id="edge9" class="edge">
<title>107374182414&#45;&gt;111669149720</title>
<path fill="none" stroke="black" d="M425.52,-471.82C438.91,-459.25 456.69,-442.54 471.56,-428.57"/>
<polygon fill="black" stroke="black" points="473.93,-431.14 478.83,-421.74 469.14,-426.04 473.93,-431.14"/>
<text xml:space="preserve" text-anchor="middle" x="475.44" y="-440.7" font-family="Times,serif" font-size="14.00">DDG: </text>
</g>
<!-- 30064771152 -->
<g id="node5" class="node">
<title>30064771152</title>
<polygon fill="none" stroke="black" points="184.75,-420.25 0,-420.25 0,-380.75 184.75,-380.75 184.75,-420.25"/>
<text xml:space="preserve" text-anchor="start" x="8" y="-402.95" font-family="Times,serif" font-size="14.00">&lt;operator&gt;.assignment, 36</text>
<text xml:space="preserve" text-anchor="start" x="41.75" y="-387.2" font-family="Times,serif" font-size="14.00">__newInstance =</text>
</g>
<!-- 107374182414&#45;&gt;30064771152 -->
<g id="edge10" class="edge">
<title>107374182414&#45;&gt;30064771152</title>
<path fill="none" stroke="black" d="M363.39,-479.9C336.05,-472.75 299.66,-463.07 267.62,-454 234,-444.48 196.91,-433.45 165.54,-423.96"/>
<polygon fill="black" stroke="black" points="166.73,-420.66 156.14,-421.11 164.7,-427.36 166.73,-420.66"/>
<text xml:space="preserve" text-anchor="middle" x="284.5" y="-440.7" font-family="Times,serif" font-size="14.00">DDG: </text>
</g>
<!-- 30064771154 -->
<g id="node6" class="node">
<title>30064771154</title>
<polygon fill="none" stroke="black" points="531.5,-329 279.25,-329 279.25,-289.5 531.5,-289.5 531.5,-329"/>
<text xml:space="preserve" text-anchor="start" x="364.88" y="-311.7" font-family="Times,serif" font-size="14.00">__init__, 36</text>
<text xml:space="preserve" text-anchor="start" x="287.25" y="-295.95" font-family="Times,serif" font-size="14.00">cls.__init__(__newInstance, source)</text>
</g>
<!-- 107374182414&#45;&gt;30064771154 -->
<g id="edge13" class="edge">
<title>107374182414&#45;&gt;30064771154</title>
<path fill="none" stroke="black" d="M372.39,-471.77C354.67,-459.56 334.48,-441.94 324.62,-420.25 317.36,-404.27 317.36,-396.73 324.62,-380.75 332.79,-362.79 348.03,-347.62 363.1,-336"/>
<polygon fill="black" stroke="black" points="365.14,-338.84 371.17,-330.13 361.02,-333.18 365.14,-338.84"/>
<text xml:space="preserve" text-anchor="middle" x="341.5" y="-395.07" font-family="Times,serif" font-size="14.00">DDG: </text>
</g>
<!-- 68719476814 -->
<g id="node8" class="node">
<title>68719476814</title>
<polygon fill="none" stroke="black" points="767.88,-237.75 616.88,-237.75 616.88,-182.5 767.88,-182.5 767.88,-237.75"/>
<text xml:space="preserve" text-anchor="start" x="645.12" y="-220.45" font-family="Times,serif" font-size="14.00">IDENTIFIER, 36</text>
<text xml:space="preserve" text-anchor="start" x="648.5" y="-204.7" font-family="Times,serif" font-size="14.00">__newInstance</text>
<text xml:space="preserve" text-anchor="start" x="624.88" y="-188.95" font-family="Times,serif" font-size="14.00">return __newInstance</text>
</g>
<!-- 107374182414&#45;&gt;68719476814 -->
<g id="edge17" class="edge">
<title>107374182414&#45;&gt;68719476814</title>
<path fill="none" stroke="black" d="M447.56,-476.41C477.72,-464.67 518.01,-445.83 547.38,-420.25 613.8,-362.38 638.09,-349.84 678.38,-271.5 681.95,-264.56 684.62,-256.7 686.61,-249"/>
<polygon fill="black" stroke="black" points="689.98,-249.97 688.75,-239.45 683.15,-248.44 689.98,-249.97"/>
<text xml:space="preserve" text-anchor="middle" x="644.85" y="-349.45" font-family="Times,serif" font-size="14.00">DDG: </text>
</g>
<!-- 124554051598 -->
<g id="node2" class="node">
<title>124554051598</title>
<polygon fill="none" stroke="black" points="345.75,-39.5 215,-39.5 215,0 345.75,0 345.75,-39.5"/>
<text xml:space="preserve" text-anchor="start" x="223" y="-22.2" font-family="Times,serif" font-size="14.00">METHOD_RETURN, 36</text>
<text xml:space="preserve" text-anchor="start" x="270.25" y="-6.45" font-family="Times,serif" font-size="14.00">ANY</text>
</g>
<!-- 111669149719&#45;&gt;30064771154 -->
<g id="edge12" class="edge">
<title>111669149719&#45;&gt;30064771154</title>
<path fill="none" stroke="black" d="M405.38,-380.57C405.38,-369.05 405.38,-354.07 405.38,-340.9"/>
<polygon fill="black" stroke="black" points="408.88,-340.97 405.38,-330.97 401.88,-340.97 408.88,-340.97"/>
<text xml:space="preserve" text-anchor="middle" x="432.38" y="-349.45" font-family="Times,serif" font-size="14.00">DDG: cls</text>
</g>
<!-- 111669149720&#45;&gt;30064771154 -->
<g id="edge15" class="edge">
<title>111669149720&#45;&gt;30064771154</title>
<path fill="none" stroke="black" d="M489.47,-380.38C482.82,-369.76 473.63,-356.76 463.38,-347 459.22,-343.04 454.57,-339.27 449.77,-335.76"/>
<polygon fill="black" stroke="black" points="451.9,-332.98 441.68,-330.21 447.94,-338.75 451.9,-332.98"/>
<text xml:space="preserve" text-anchor="middle" x="513.39" y="-349.45" font-family="Times,serif" font-size="14.00">DDG: source</text>
</g>
<!-- 30064771152&#45;&gt;124554051598 -->
<g id="edge2" class="edge">
<title>30064771152&#45;&gt;124554051598</title>
<path fill="none" stroke="black" d="M53.95,-380.27C29.48,-365.03 2.38,-341.17 2.38,-310.25 2.38,-310.25 2.38,-310.25 2.38,-110 2.38,-75.88 27.78,-72.6 58.38,-57.5 103.33,-35.31 159,-26.13 203.34,-22.49"/>
<polygon fill="black" stroke="black" points="203.43,-26 213.14,-21.78 202.92,-19.02 203.43,-26"/>
<text xml:space="preserve" text-anchor="middle" x="19.25" y="-204.7" font-family="Times,serif" font-size="14.00">DDG: </text>
</g>
<!-- 30064771152&#45;&gt;124554051598 -->
<g id="edge3" class="edge">
<title>30064771152&#45;&gt;124554051598</title>
<path fill="none" stroke="black" d="M85.49,-380.28C79.71,-362.39 72.38,-334.86 72.38,-310.25 72.38,-310.25 72.38,-310.25 72.38,-110 72.38,-50.93 144.08,-30.46 203.29,-23.62"/>
<polygon fill="black" stroke="black" points="203.47,-27.12 213.06,-22.62 202.75,-20.16 203.47,-27.12"/>
<text xml:space="preserve" text-anchor="middle" x="143.25" y="-204.7" font-family="Times,serif" font-size="14.00">DDG: __newInstance = </text>
</g>
<!-- 30064771152&#45;&gt;30064771154 -->
<g id="edge14" class="edge">
<title>30064771152&#45;&gt;30064771154</title>
<path fill="none" stroke="black" d="M118.24,-380.4C135,-368.96 157.75,-355.1 179.88,-347 207.54,-336.87 238.12,-329.53 267.62,-324.2"/>
<polygon fill="black" stroke="black" points="268.11,-327.67 277.36,-322.52 266.91,-320.77 268.11,-327.67"/>
<text xml:space="preserve" text-anchor="middle" x="240.62" y="-349.45" font-family="Times,serif" font-size="14.00">DDG: __newInstance</text>
</g>
<!-- 30064771154&#45;&gt;124554051598 -->
<g id="edge4" class="edge">
<title>30064771154&#45;&gt;124554051598</title>
<path fill="none" stroke="black" d="M296.78,-289.13C285.88,-284.47 275.49,-278.68 266.38,-271.5 231.07,-243.69 242.92,-220.15 218.38,-182.5 212.84,-174.01 207.66,-174.09 204.38,-164.5 189.68,-121.67 223.24,-76.07 250.35,-48"/>
<polygon fill="black" stroke="black" points="252.82,-50.48 257.43,-40.94 247.87,-45.52 252.82,-50.48"/>
<text xml:space="preserve" text-anchor="middle" x="231.38" y="-151.2" font-family="Times,serif" font-size="14.00">DDG: cls</text>
</g>
<!-- 30064771154&#45;&gt;124554051598 -->
<g id="edge5" class="edge">
<title>30064771154&#45;&gt;124554051598</title>
<path fill="none" stroke="black" d="M380.65,-289.08C350.71,-264.15 301.82,-217.46 281.88,-164.5 267.88,-127.34 270.7,-80.86 274.84,-50.98"/>
<polygon fill="black" stroke="black" points="278.29,-51.56 276.36,-41.15 271.38,-50.5 278.29,-51.56"/>
<text xml:space="preserve" text-anchor="middle" x="342.62" y="-151.2" font-family="Times,serif" font-size="14.00">DDG: __newInstance</text>
</g>
<!-- 30064771154&#45;&gt;124554051598 -->
<g id="edge6" class="edge">
<title>30064771154&#45;&gt;124554051598</title>
<path fill="none" stroke="black" d="M409.48,-289.19C415.2,-258.34 422.81,-196.15 403.38,-148.75 385.9,-106.11 346.87,-69.61 317.43,-46.63"/>
<polygon fill="black" stroke="black" points="319.92,-44.12 309.85,-40.85 315.68,-49.69 319.92,-44.12"/>
<text xml:space="preserve" text-anchor="middle" x="445.82" y="-151.2" font-family="Times,serif" font-size="14.00">DDG: source</text>
</g>
<!-- 30064771154&#45;&gt;124554051598 -->
<g id="edge7" class="edge">
<title>30064771154&#45;&gt;124554051598</title>
<path fill="none" stroke="black" d="M428.07,-289.02C460.67,-258.98 514.01,-199.12 487.38,-148.75 460.01,-97.01 401.65,-63.79 353.85,-44.19"/>
<polygon fill="black" stroke="black" points="355.2,-40.96 344.61,-40.53 352.62,-47.47 355.2,-40.96"/>
<text xml:space="preserve" text-anchor="middle" x="627.96" y="-151.2" font-family="Times,serif" font-size="14.00">DDG: cls.__init__(__newInstance, source)</text>
</g>
<!-- 30064771154&#45;&gt;68719476814 -->
<g id="edge16" class="edge">
<title>30064771154&#45;&gt;68719476814</title>
<path fill="none" stroke="black" d="M486.65,-289.04C502.48,-284.16 518.7,-278.32 533.38,-271.5 544.78,-266.2 545.58,-261.27 556.88,-255.75 572.21,-248.26 589.11,-241.57 605.61,-235.79"/>
<polygon fill="black" stroke="black" points="606.61,-239.15 614.95,-232.61 604.36,-232.52 606.61,-239.15"/>
<text xml:space="preserve" text-anchor="middle" x="617.62" y="-258.2" font-family="Times,serif" font-size="14.00">DDG: __newInstance</text>
</g>
<!-- 141733920777 -->
<g id="node7" class="node">
<title>141733920777</title>
<polygon fill="none" stroke="black" points="795.88,-130.75 644.88,-130.75 644.88,-91.25 795.88,-91.25 795.88,-130.75"/>
<text xml:space="preserve" text-anchor="start" x="686.62" y="-113.45" font-family="Times,serif" font-size="14.00">RETURN, 36</text>
<text xml:space="preserve" text-anchor="start" x="652.88" y="-97.7" font-family="Times,serif" font-size="14.00">return __newInstance</text>
</g>
<!-- 141733920777&#45;&gt;124554051598 -->
<g id="edge1" class="edge">
<title>141733920777&#45;&gt;124554051598</title>
<path fill="none" stroke="black" d="M660.81,-90.79C625.04,-79.81 578.45,-66.48 536.38,-57.5 476.77,-44.78 408.41,-35.22 357.32,-29.04"/>
<polygon fill="black" stroke="black" points="357.89,-25.58 347.55,-27.88 357.06,-32.53 357.89,-25.58"/>
<text xml:space="preserve" text-anchor="middle" x="631.42" y="-59.95" font-family="Times,serif" font-size="14.00">DDG: &lt;RET&gt;</text>
</g>
<!-- 68719476814&#45;&gt;141733920777 -->
<g id="edge11" class="edge">
<title>68719476814&#45;&gt;141733920777</title>
<path fill="none" stroke="black" d="M768.29,-187.65C778.21,-181.71 787.1,-174.14 793.38,-164.5 800.23,-153.98 795.57,-144.89 785.95,-137.36"/>
<polygon fill="black" stroke="black" points="787.96,-134.49 777.66,-131.98 784.15,-140.36 787.96,-134.49"/>
<text xml:space="preserve" text-anchor="middle" x="857.38" y="-151.2" font-family="Times,serif" font-size="14.00">DDG: __newInstance</text>
</g>
</g>
</svg>
