<?xml version="1.0" encoding="UTF-8" standalone="no"?>
<!DOCTYPE svg PUBLIC "-//W3C//DTD SVG 1.1//EN"
 "http://www.w3.org/Graphics/SVG/1.1/DTD/svg11.dtd">
<!-- Generated by graphviz version 13.1.2 (20250809.0930)
 -->
<!-- Title: __init__&lt;metaClassAdapter&gt; Pages: 1 -->
<svg width="719pt" height="436pt"
 viewBox="0.00 0.00 719.00 436.00" xmlns="http://www.w3.org/2000/svg" xmlns:xlink="http://www.w3.org/1999/xlink">
<g id="graph0" class="graph" transform="scale(1 1) rotate(0) translate(4 432.25)">
<title>__init__&lt;metaClassAdapter&gt;</title>
<polygon fill="white" stroke="none" points="-4,4 -4,-432.25 715.25,-432.25 715.25,4 -4,4"/>
<!-- 107374182415 -->
<g id="node1" class="node">
<title>107374182415</title>
<polygon fill="none" stroke="black" points="268.12,-428.25 76.62,-428.25 76.62,-388.75 268.12,-388.75 268.12,-428.25"/>
<text xml:space="preserve" text-anchor="start" x="138.62" y="-410.95" font-family="Times,serif" font-size="14.00">METHOD, 36</text>
<text xml:space="preserve" text-anchor="start" x="84.62" y="-395.2" font-family="Times,serif" font-size="14.00">__init__&lt;metaClassAdapter&gt;</text>
</g>
<!-- 111669149721 -->
<g id="node3" class="node">
<title>111669149721</title>
<polygon fill="none" stroke="black" points="76.75,-279.5 0,-279.5 0,-240 76.75,-240 76.75,-279.5"/>
<text xml:space="preserve" text-anchor="start" x="8" y="-262.2" font-family="Times,serif" font-size="14.00">PARAM, 36</text>
<text xml:space="preserve" text-anchor="start" x="28.25" y="-246.45" font-family="Times,serif" font-size="14.00">cls</text>
</g>
<!-- 107374182415&#45;&gt;111669149721 -->
<g id="edge6" class="edge">
<title>107374182415&#45;&gt;111669149721</title>
<path fill="none" stroke="black" d="M130.12,-388.27C108.75,-376.44 84.25,-359.25 69.38,-337 59.88,-322.8 52.49,-305.24 47.32,-290.55"/>
<polygon fill="black" stroke="black" points="50.75,-289.79 44.27,-281.41 44.11,-292.01 50.75,-289.79"/>
<text xml:space="preserve" text-anchor="middle" x="118.23" y="-357.45" font-family="Times,serif" font-size="14.00">DDG: </text>
</g>
<!-- 111669149722 -->
<g id="node4" class="node">
<title>111669149722</title>
<polygon fill="none" stroke="black" points="154.75,-337 78,-337 78,-297.5 154.75,-297.5 154.75,-337"/>
<text xml:space="preserve" text-anchor="start" x="86" y="-319.7" font-family="Times,serif" font-size="14.00">PARAM, 36</text>
<text xml:space="preserve" text-anchor="start" x="102.88" y="-303.95" font-family="Times,serif" font-size="14.00">self</text>
</g>
<!-- 107374182415&#45;&gt;111669149722 -->
<g id="edge7" class="edge">
<title>107374182415&#45;&gt;111669149722</title>
<path fill="none" stroke="black" d="M160.5,-388.57C152.9,-376.47 142.91,-360.53 134.35,-346.9"/>
<polygon fill="black" stroke="black" points="137.51,-345.35 129.23,-338.74 131.58,-349.07 137.51,-345.35"/>
<text xml:space="preserve" text-anchor="middle" x="164.6" y="-357.45" font-family="Times,serif" font-size="14.00">DDG: </text>
</g>
<!-- 111669149723 -->
<g id="node5" class="node">
<title>111669149723</title>
<polygon fill="none" stroke="black" points="249.75,-337 173,-337 173,-297.5 249.75,-297.5 249.75,-337"/>
<text xml:space="preserve" text-anchor="start" x="181" y="-319.7" font-family="Times,serif" font-size="14.00">PARAM, 36</text>
<text xml:space="preserve" text-anchor="start" x="191.12" y="-303.95" font-family="Times,serif" font-size="14.00">source</text>
</g>
<!-- 107374182415&#45;&gt;111669149723 -->
<g id="edge8" class="edge">
<title>107374182415&#45;&gt;111669149723</title>
<path fill="none" stroke="black" d="M180.65,-388.57C185.83,-376.7 192.63,-361.15 198.51,-347.69"/>
<polygon fill="black" stroke="black" points="201.58,-349.41 202.38,-338.84 195.16,-346.61 201.58,-349.41"/>
<text xml:space="preserve" text-anchor="middle" x="211.09" y="-357.45" font-family="Times,serif" font-size="14.00">DDG: </text>
</g>
<!-- 30064771155 -->
<g id="node7" class="node">
<title>30064771155</title>
<polygon fill="none" stroke="black" points="357.5,-222 51.25,-222 51.25,-182.5 357.5,-182.5 357.5,-222"/>
<text xml:space="preserve" text-anchor="start" x="59.25" y="-204.7" font-family="Times,serif" font-size="14.00">json_parser.py:&lt;module&gt;.Parser.__init__, 36</text>
<text xml:space="preserve" text-anchor="start" x="130.12" y="-188.95" font-family="Times,serif" font-size="14.00">__init__(self, source)</text>
</g>
<!-- 107374182415&#45;&gt;30064771155 -->
<g id="edge11" class="edge">
<title>107374182415&#45;&gt;30064771155</title>
<path fill="none" stroke="black" d="M208.47,-388.34C216.73,-383.17 225.2,-377.2 232.38,-370.75 266.16,-340.4 270.81,-324.28 278.38,-279.5 281.3,-262.19 287.62,-254.92 278.38,-240 275.87,-235.95 272.77,-232.34 269.27,-229.11"/>
<polygon fill="black" stroke="black" points="271.71,-226.58 261.67,-223.19 267.41,-232.1 271.71,-226.58"/>
<text xml:space="preserve" text-anchor="middle" x="291.81" y="-311.82" font-family="Times,serif" font-size="14.00">DDG: </text>
</g>
<!-- 124554051599 -->
<g id="node2" class="node">
<title>124554051599</title>
<polygon fill="none" stroke="black" points="254.75,-39.5 124,-39.5 124,0 254.75,0 254.75,-39.5"/>
<text xml:space="preserve" text-anchor="start" x="132" y="-22.2" font-family="Times,serif" font-size="14.00">METHOD_RETURN, 36</text>
<text xml:space="preserve" text-anchor="start" x="179.25" y="-6.45" font-family="Times,serif" font-size="14.00">ANY</text>
</g>
<!-- 111669149721&#45;&gt;124554051599 -->
<g id="edge2" class="edge">
<title>111669149721&#45;&gt;124554051599</title>
<path fill="none" stroke="black" d="M36.94,-239.53C36.34,-223.86 36.81,-201.31 42.38,-182.5 60.55,-121.02 67.55,-101.29 114.38,-57.5 119.06,-53.12 124.36,-49.16 129.92,-45.6"/>
<polygon fill="black" stroke="black" points="131.32,-48.84 138.18,-40.76 127.78,-42.8 131.32,-48.84"/>
<text xml:space="preserve" text-anchor="middle" x="79.78" y="-151.2" font-family="Times,serif" font-size="14.00">DDG: cls</text>
</g>
<!-- 111669149722&#45;&gt;30064771155 -->
<g id="edge10" class="edge">
<title>111669149722&#45;&gt;30064771155</title>
<path fill="none" stroke="black" d="M117.59,-297.16C119.53,-280.5 124.57,-256.48 137.62,-240 140.81,-235.98 144.55,-232.34 148.62,-229.05"/>
<polygon fill="black" stroke="black" points="150.6,-231.94 156.71,-223.28 146.54,-226.24 150.6,-231.94"/>
<text xml:space="preserve" text-anchor="middle" x="168" y="-254.32" font-family="Times,serif" font-size="14.00">DDG: self</text>
</g>
<!-- 111669149723&#45;&gt;30064771155 -->
<g id="edge12" class="edge">
<title>111669149723&#45;&gt;30064771155</title>
<path fill="none" stroke="black" d="M206.9,-297.28C205.76,-291.6 204.69,-285.33 204.12,-279.5 202.66,-264.52 202.55,-247.81 202.87,-233.85"/>
<polygon fill="black" stroke="black" points="206.37,-234.04 203.2,-223.93 199.37,-233.81 206.37,-234.04"/>
<text xml:space="preserve" text-anchor="middle" x="241.25" y="-254.32" font-family="Times,serif" font-size="14.00">DDG: source</text>
</g>
<!-- 141733920778 -->
<g id="node6" class="node">
<title>141733920778</title>
<polygon fill="none" stroke="black" points="711.25,-130.75 499.5,-130.75 499.5,-91.25 711.25,-91.25 711.25,-130.75"/>
<text xml:space="preserve" text-anchor="start" x="571.62" y="-113.45" font-family="Times,serif" font-size="14.00">RETURN, 36</text>
<text xml:space="preserve" text-anchor="start" x="507.5" y="-97.7" font-family="Times,serif" font-size="14.00">return __init__(self, source)</text>
</g>
<!-- 141733920778&#45;&gt;124554051599 -->
<g id="edge1" class="edge">
<title>141733920778&#45;&gt;124554051599</title>
<path fill="none" stroke="black" d="M515.88,-90.8C441.53,-74.85 336.87,-52.39 266.25,-37.24"/>
<polygon fill="black" stroke="black" points="267.21,-33.87 256.7,-35.19 265.75,-40.71 267.21,-33.87"/>
<text xml:space="preserve" text-anchor="middle" x="456.03" y="-59.95" font-family="Times,serif" font-size="14.00">DDG: &lt;RET&gt;</text>
</g>
<!-- 30064771155&#45;&gt;124554051599 -->
<g id="edge3" class="edge">
<title>30064771155&#45;&gt;124554051599</title>
<path fill="none" stroke="black" d="M161.37,-182.06C140.81,-170.41 118.21,-153.38 106.62,-130.75 98.63,-115.12 99.27,-107.19 106.62,-91.25 115.02,-73.06 130.69,-57.83 146.15,-46.24"/>
<polygon fill="black" stroke="black" points="147.8,-49.35 153.94,-40.71 143.75,-43.64 147.8,-49.35"/>
<text xml:space="preserve" text-anchor="middle" x="137" y="-105.58" font-family="Times,serif" font-size="14.00">DDG: self</text>
</g>
<!-- 30064771155&#45;&gt;124554051599 -->
<g id="edge4" class="edge">
<title>30064771155&#45;&gt;124554051599</title>
<path fill="none" stroke="black" d="M202.8,-182.27C200.2,-150.99 194.99,-88.35 191.88,-50.93"/>
<polygon fill="black" stroke="black" points="195.39,-50.93 191.08,-41.25 188.42,-51.51 195.39,-50.93"/>
<text xml:space="preserve" text-anchor="middle" x="235.49" y="-105.58" font-family="Times,serif" font-size="14.00">DDG: source</text>
</g>
<!-- 30064771155&#45;&gt;124554051599 -->
<g id="edge5" class="edge">
<title>30064771155&#45;&gt;124554051599</title>
<path fill="none" stroke="black" d="M233.13,-182.06C249.13,-169.57 267.56,-151.72 276.38,-130.75 283.18,-114.57 283.93,-107.1 276.38,-91.25 267.56,-72.77 251.27,-57.56 235.15,-46.06"/>
<polygon fill="black" stroke="black" points="237.24,-43.25 226.99,-40.57 233.33,-49.05 237.24,-43.25"/>
<text xml:space="preserve" text-anchor="middle" x="372.89" y="-105.58" font-family="Times,serif" font-size="14.00">DDG: __init__(self, source)</text>
</g>
<!-- 30064771155&#45;&gt;141733920778 -->
<g id="edge9" class="edge">
<title>30064771155&#45;&gt;141733920778</title>
<path fill="none" stroke="black" d="M290.4,-182.1C354.38,-167.86 441.75,-148.42 508.24,-133.62"/>
<polygon fill="black" stroke="black" points="508.67,-137.11 517.67,-131.52 507.15,-130.28 508.67,-137.11"/>
<text xml:space="preserve" text-anchor="middle" x="520.01" y="-151.2" font-family="Times,serif" font-size="14.00">DDG: __init__(self, source)</text>
</g>
</g>
</svg>
