<?xml version="1.0" encoding="UTF-8" standalone="no"?>
<!DOCTYPE svg PUBLIC "-//W3C//DTD SVG 1.1//EN"
 "http://www.w3.org/Graphics/SVG/1.1/DTD/svg11.dtd">
<!-- Generated by graphviz version 13.1.2 (20250809.0930)
 -->
<!-- Title: expect&lt;metaClassAdapter&gt; Pages: 1 -->
<svg width="620pt" height="436pt"
 viewBox="0.00 0.00 620.00 436.00" xmlns="http://www.w3.org/2000/svg" xmlns:xlink="http://www.w3.org/1999/xlink">
<g id="graph0" class="graph" transform="scale(1 1) rotate(0) translate(4 432.25)">
<title>expect&lt;metaClassAdapter&gt;</title>
<polygon fill="white" stroke="none" points="-4,4 -4,-432.25 616,-432.25 616,4 -4,4"/>
<!-- 107374182418 -->
<g id="node1" class="node">
<title>107374182418</title>
<polygon fill="none" stroke="black" points="254.38,-428.25 76.38,-428.25 76.38,-388.75 254.38,-388.75 254.38,-428.25"/>
<text xml:space="preserve" text-anchor="start" x="131.62" y="-410.95" font-family="Times,serif" font-size="14.00">METHOD, 50</text>
<text xml:space="preserve" text-anchor="start" x="84.38" y="-395.2" font-family="Times,serif" font-size="14.00">expect&lt;metaClassAdapter&gt;</text>
</g>
<!-- 111669149728 -->
<g id="node3" class="node">
<title>111669149728</title>
<polygon fill="none" stroke="black" points="76.75,-279.5 0,-279.5 0,-240 76.75,-240 76.75,-279.5"/>
<text xml:space="preserve" text-anchor="start" x="8" y="-262.2" font-family="Times,serif" font-size="14.00">PARAM, 50</text>
<text xml:space="preserve" text-anchor="start" x="28.25" y="-246.45" font-family="Times,serif" font-size="14.00">cls</text>
</g>
<!-- 107374182418&#45;&gt;111669149728 -->
<g id="edge6" class="edge">
<title>107374182418&#45;&gt;111669149728</title>
<path fill="none" stroke="black" d="M121.59,-388.31C100.21,-376.62 76.17,-359.55 62.38,-337 53.75,-322.89 47.95,-305.4 44.22,-290.73"/>
<polygon fill="black" stroke="black" points="47.67,-290.11 42,-281.16 40.85,-291.69 47.67,-290.11"/>
<text xml:space="preserve" text-anchor="middle" x="110.41" y="-357.45" font-family="Times,serif" font-size="14.00">DDG: </text>
</g>
<!-- 111669149729 -->
<g id="node4" class="node">
<title>111669149729</title>
<polygon fill="none" stroke="black" points="147.75,-337 71,-337 71,-297.5 147.75,-297.5 147.75,-337"/>
<text xml:space="preserve" text-anchor="start" x="79" y="-319.7" font-family="Times,serif" font-size="14.00">PARAM, 50</text>
<text xml:space="preserve" text-anchor="start" x="95.88" y="-303.95" font-family="Times,serif" font-size="14.00">self</text>
</g>
<!-- 107374182418&#45;&gt;111669149729 -->
<g id="edge7" class="edge">
<title>107374182418&#45;&gt;111669149729</title>
<path fill="none" stroke="black" d="M153.5,-388.57C145.9,-376.47 135.91,-360.53 127.35,-346.9"/>
<polygon fill="black" stroke="black" points="130.51,-345.35 122.23,-338.74 124.58,-349.07 130.51,-345.35"/>
<text xml:space="preserve" text-anchor="middle" x="157.6" y="-357.45" font-family="Times,serif" font-size="14.00">DDG: </text>
</g>
<!-- 111669149730 -->
<g id="node5" class="node">
<title>111669149730</title>
<polygon fill="none" stroke="black" points="242.75,-337 166,-337 166,-297.5 242.75,-297.5 242.75,-337"/>
<text xml:space="preserve" text-anchor="start" x="174" y="-319.7" font-family="Times,serif" font-size="14.00">PARAM, 50</text>
<text xml:space="preserve" text-anchor="start" x="197.62" y="-303.95" font-family="Times,serif" font-size="14.00">ch</text>
</g>
<!-- 107374182418&#45;&gt;111669149730 -->
<g id="edge8" class="edge">
<title>107374182418&#45;&gt;111669149730</title>
<path fill="none" stroke="black" d="M173.65,-388.57C178.83,-376.7 185.63,-361.15 191.51,-347.69"/>
<polygon fill="black" stroke="black" points="194.58,-349.41 195.38,-338.84 188.16,-346.61 194.58,-349.41"/>
<text xml:space="preserve" text-anchor="middle" x="204.09" y="-357.45" font-family="Times,serif" font-size="14.00">DDG: </text>
</g>
<!-- 30064771158 -->
<g id="node7" class="node">
<title>30064771158</title>
<polygon fill="none" stroke="black" points="352.75,-222 60,-222 60,-182.5 352.75,-182.5 352.75,-222"/>
<text xml:space="preserve" text-anchor="start" x="68" y="-204.7" font-family="Times,serif" font-size="14.00">json_parser.py:&lt;module&gt;.Parser.expect, 50</text>
<text xml:space="preserve" text-anchor="start" x="152.38" y="-188.95" font-family="Times,serif" font-size="14.00">expect(self, ch)</text>
</g>
<!-- 107374182418&#45;&gt;30064771158 -->
<g id="edge11" class="edge">
<title>107374182418&#45;&gt;30064771158</title>
<path fill="none" stroke="black" d="M203.3,-388.33C222.04,-376.47 242.49,-359.23 251.38,-337 267.4,-296.89 277.06,-278.45 257.38,-240 255.58,-236.49 253.28,-233.25 250.65,-230.25"/>
<polygon fill="black" stroke="black" points="253.25,-227.9 243.6,-223.54 248.42,-232.97 253.25,-227.9"/>
<text xml:space="preserve" text-anchor="middle" x="282.71" y="-311.82" font-family="Times,serif" font-size="14.00">DDG: </text>
</g>
<!-- 124554051602 -->
<g id="node2" class="node">
<title>124554051602</title>
<polygon fill="none" stroke="black" points="263.75,-39.5 133,-39.5 133,0 263.75,0 263.75,-39.5"/>
<text xml:space="preserve" text-anchor="start" x="141" y="-22.2" font-family="Times,serif" font-size="14.00">METHOD_RETURN, 50</text>
<text xml:space="preserve" text-anchor="start" x="188.25" y="-6.45" font-family="Times,serif" font-size="14.00">ANY</text>
</g>
<!-- 111669149728&#45;&gt;124554051602 -->
<g id="edge2" class="edge">
<title>111669149728&#45;&gt;124554051602</title>
<path fill="none" stroke="black" d="M39.78,-239.81C41.38,-224.09 44.69,-201.36 51.38,-182.5 60.82,-155.87 96.71,-82.35 123.38,-57.5 128.13,-53.07 133.52,-49.06 139.18,-45.46"/>
<polygon fill="black" stroke="black" points="140.71,-48.63 147.58,-40.56 137.18,-42.58 140.71,-48.63"/>
<text xml:space="preserve" text-anchor="middle" x="92.45" y="-151.2" font-family="Times,serif" font-size="14.00">DDG: cls</text>
</g>
<!-- 111669149729&#45;&gt;30064771158 -->
<g id="edge10" class="edge">
<title>111669149729&#45;&gt;30064771158</title>
<path fill="none" stroke="black" d="M113.43,-297.11C117.78,-280.42 126.11,-256.38 140.62,-240 144.23,-235.93 148.4,-232.22 152.85,-228.85"/>
<polygon fill="black" stroke="black" points="154.75,-231.78 161.05,-223.26 150.81,-226 154.75,-231.78"/>
<text xml:space="preserve" text-anchor="middle" x="171" y="-254.32" font-family="Times,serif" font-size="14.00">DDG: self</text>
</g>
<!-- 111669149730&#45;&gt;30064771158 -->
<g id="edge12" class="edge">
<title>111669149730&#45;&gt;30064771158</title>
<path fill="none" stroke="black" d="M204.71,-297.08C205.02,-279.69 205.48,-253.75 205.84,-233.55"/>
<polygon fill="black" stroke="black" points="209.34,-233.71 206.01,-223.65 202.34,-233.59 209.34,-233.71"/>
<text xml:space="preserve" text-anchor="middle" x="229.3" y="-254.32" font-family="Times,serif" font-size="14.00">DDG: ch</text>
</g>
<!-- 141733920781 -->
<g id="node6" class="node">
<title>141733920781</title>
<polygon fill="none" stroke="black" points="612,-130.75 440.75,-130.75 440.75,-91.25 612,-91.25 612,-130.75"/>
<text xml:space="preserve" text-anchor="start" x="492.62" y="-113.45" font-family="Times,serif" font-size="14.00">RETURN, 50</text>
<text xml:space="preserve" text-anchor="start" x="448.75" y="-97.7" font-family="Times,serif" font-size="14.00">return expect(self, ch)</text>
</g>
<!-- 141733920781&#45;&gt;124554051602 -->
<g id="edge1" class="edge">
<title>141733920781&#45;&gt;124554051602</title>
<path fill="none" stroke="black" d="M456.01,-90.85C402.83,-76.38 329.89,-56.53 275.19,-41.65"/>
<polygon fill="black" stroke="black" points="276.18,-38.3 265.62,-39.05 274.35,-45.05 276.18,-38.3"/>
<text xml:space="preserve" text-anchor="middle" x="415.76" y="-59.95" font-family="Times,serif" font-size="14.00">DDG: &lt;RET&gt;</text>
</g>
<!-- 30064771158&#45;&gt;124554051602 -->
<g id="edge3" class="edge">
<title>30064771158&#45;&gt;124554051602</title>
<path fill="none" stroke="black" d="M167.55,-182.07C148.13,-170.21 126.5,-152.97 115.62,-130.75 107.91,-114.98 108.27,-107.19 115.62,-91.25 124.02,-73.06 139.69,-57.83 155.15,-46.24"/>
<polygon fill="black" stroke="black" points="156.8,-49.35 162.94,-40.71 152.75,-43.64 156.8,-49.35"/>
<text xml:space="preserve" text-anchor="middle" x="146" y="-105.58" font-family="Times,serif" font-size="14.00">DDG: self</text>
</g>
<!-- 30064771158&#45;&gt;124554051602 -->
<g id="edge4" class="edge">
<title>30064771158&#45;&gt;124554051602</title>
<path fill="none" stroke="black" d="M205.53,-182.27C204.15,-150.99 201.37,-88.35 199.71,-50.93"/>
<polygon fill="black" stroke="black" points="203.22,-51.09 199.28,-41.25 196.23,-51.4 203.22,-51.09"/>
<text xml:space="preserve" text-anchor="middle" x="226.8" y="-105.58" font-family="Times,serif" font-size="14.00">DDG: ch</text>
</g>
<!-- 30064771158&#45;&gt;124554051602 -->
<g id="edge5" class="edge">
<title>30064771158&#45;&gt;124554051602</title>
<path fill="none" stroke="black" d="M223.98,-182.28C235.08,-168.96 248.4,-150.14 254.38,-130.75 259.54,-113.97 260.16,-107.83 254.38,-91.25 248.78,-75.22 237.85,-60.1 227.12,-48"/>
<polygon fill="black" stroke="black" points="229.84,-45.78 220.46,-40.86 224.72,-50.56 229.84,-45.78"/>
<text xml:space="preserve" text-anchor="middle" x="329.36" y="-105.58" font-family="Times,serif" font-size="14.00">DDG: expect(self, ch)</text>
</g>
<!-- 30064771158&#45;&gt;141733920781 -->
<g id="edge9" class="edge">
<title>30064771158&#45;&gt;141733920781</title>
<path fill="none" stroke="black" d="M275.02,-182.1C325.34,-168.07 393.79,-148.98 446.56,-134.26"/>
<polygon fill="black" stroke="black" points="447.42,-137.66 456.11,-131.6 445.53,-130.91 447.42,-137.66"/>
<text xml:space="preserve" text-anchor="middle" x="456.41" y="-151.2" font-family="Times,serif" font-size="14.00">DDG: expect(self, ch)</text>
</g>
</g>
</svg>
