<?xml version="1.0" encoding="UTF-8" standalone="no"?>
<!DOCTYPE svg PUBLIC "-//W3C//DTD SVG 1.1//EN"
 "http://www.w3.org/Graphics/SVG/1.1/DTD/svg11.dtd">
<!-- Generated by graphviz version 13.1.2 (20250809.0930)
 -->
<!-- Title: peek&lt;metaClassAdapter&gt; Pages: 1 -->
<svg width="457pt" height="436pt"
 viewBox="0.00 0.00 457.00 436.00" xmlns="http://www.w3.org/2000/svg" xmlns:xlink="http://www.w3.org/1999/xlink">
<g id="graph0" class="graph" transform="scale(1 1) rotate(0) translate(4 432.25)">
<title>peek&lt;metaClassAdapter&gt;</title>
<polygon fill="white" stroke="none" points="-4,4 -4,-432.25 452.75,-432.25 452.75,4 -4,4"/>
<!-- 107374182419 -->
<g id="node1" class="node">
<title>107374182419</title>
<polygon fill="none" stroke="black" points="205.62,-428.25 41.12,-428.25 41.12,-388.75 205.62,-388.75 205.62,-428.25"/>
<text xml:space="preserve" text-anchor="start" x="89.62" y="-410.95" font-family="Times,serif" font-size="14.00">METHOD, 40</text>
<text xml:space="preserve" text-anchor="start" x="49.12" y="-395.2" font-family="Times,serif" font-size="14.00">peek&lt;metaClassAdapter&gt;</text>
</g>
<!-- 111669149731 -->
<g id="node3" class="node">
<title>111669149731</title>
<polygon fill="none" stroke="black" points="76.75,-279.5 0,-279.5 0,-240 76.75,-240 76.75,-279.5"/>
<text xml:space="preserve" text-anchor="start" x="8" y="-262.2" font-family="Times,serif" font-size="14.00">PARAM, 40</text>
<text xml:space="preserve" text-anchor="start" x="28.25" y="-246.45" font-family="Times,serif" font-size="14.00">cls</text>
</g>
<!-- 107374182419&#45;&gt;111669149731 -->
<g id="edge5" class="edge">
<title>107374182419&#45;&gt;111669149731</title>
<path fill="none" stroke="black" d="M101.05,-388.6C95.54,-383.21 89.98,-377.08 85.62,-370.75 68.5,-345.84 55.58,-313.73 47.62,-290.65"/>
<polygon fill="black" stroke="black" points="50.97,-289.61 44.49,-281.23 44.32,-291.82 50.97,-289.61"/>
<text xml:space="preserve" text-anchor="middle" x="102.5" y="-357.45" font-family="Times,serif" font-size="14.00">DDG: </text>
</g>
<!-- 111669149732 -->
<g id="node4" class="node">
<title>111669149732</title>
<polygon fill="none" stroke="black" points="161.75,-337 85,-337 85,-297.5 161.75,-297.5 161.75,-337"/>
<text xml:space="preserve" text-anchor="start" x="93" y="-319.7" font-family="Times,serif" font-size="14.00">PARAM, 40</text>
<text xml:space="preserve" text-anchor="start" x="109.88" y="-303.95" font-family="Times,serif" font-size="14.00">self</text>
</g>
<!-- 107374182419&#45;&gt;111669149732 -->
<g id="edge6" class="edge">
<title>107374182419&#45;&gt;111669149732</title>
<path fill="none" stroke="black" d="M123.38,-388.57C123.38,-377.05 123.38,-362.07 123.38,-348.9"/>
<polygon fill="black" stroke="black" points="126.88,-348.97 123.38,-338.97 119.88,-348.97 126.88,-348.97"/>
<text xml:space="preserve" text-anchor="middle" x="140.25" y="-357.45" font-family="Times,serif" font-size="14.00">DDG: </text>
</g>
<!-- 30064771159 -->
<g id="node6" class="node">
<title>30064771159</title>
<polygon fill="none" stroke="black" points="339,-222 59.75,-222 59.75,-182.5 339,-182.5 339,-222"/>
<text xml:space="preserve" text-anchor="start" x="67.75" y="-204.7" font-family="Times,serif" font-size="14.00">json_parser.py:&lt;module&gt;.Parser.peek, 40</text>
<text xml:space="preserve" text-anchor="start" x="165.62" y="-188.95" font-family="Times,serif" font-size="14.00">peek(self)</text>
</g>
<!-- 107374182419&#45;&gt;30064771159 -->
<g id="edge9" class="edge">
<title>107374182419&#45;&gt;30064771159</title>
<path fill="none" stroke="black" d="M146.89,-388.64C152.29,-383.34 157.56,-377.24 161.38,-370.75 186.72,-327.63 195.16,-269.11 197.98,-233.88"/>
<polygon fill="black" stroke="black" points="201.46,-234.18 198.65,-223.97 194.48,-233.71 201.46,-234.18"/>
<text xml:space="preserve" text-anchor="middle" x="205.29" y="-311.82" font-family="Times,serif" font-size="14.00">DDG: </text>
</g>
<!-- 124554051603 -->
<g id="node2" class="node">
<title>124554051603</title>
<polygon fill="none" stroke="black" points="214.75,-39.5 84,-39.5 84,0 214.75,0 214.75,-39.5"/>
<text xml:space="preserve" text-anchor="start" x="92" y="-22.2" font-family="Times,serif" font-size="14.00">METHOD_RETURN, 40</text>
<text xml:space="preserve" text-anchor="start" x="139.25" y="-6.45" font-family="Times,serif" font-size="14.00">ANY</text>
</g>
<!-- 111669149731&#45;&gt;124554051603 -->
<g id="edge2" class="edge">
<title>111669149731&#45;&gt;124554051603</title>
<path fill="none" stroke="black" d="M39.7,-239.56C41.19,-223.9 44.24,-201.36 50.38,-182.5 69.69,-123.15 78.26,-108.4 114.38,-57.5 116.64,-54.31 119.16,-51.13 121.8,-48.04"/>
<polygon fill="black" stroke="black" points="124.24,-50.55 128.36,-40.79 119.05,-45.86 124.24,-50.55"/>
<text xml:space="preserve" text-anchor="middle" x="88.88" y="-151.2" font-family="Times,serif" font-size="14.00">DDG: cls</text>
</g>
<!-- 111669149732&#45;&gt;30064771159 -->
<g id="edge8" class="edge">
<title>111669149732&#45;&gt;30064771159</title>
<path fill="none" stroke="black" d="M118.49,-297.14C115.43,-280.69 113.85,-257 124.62,-240 127.08,-236.13 130.08,-232.65 133.44,-229.53"/>
<polygon fill="black" stroke="black" points="135.54,-232.33 141.27,-223.42 131.23,-226.81 135.54,-232.33"/>
<text xml:space="preserve" text-anchor="middle" x="155" y="-254.32" font-family="Times,serif" font-size="14.00">DDG: self</text>
</g>
<!-- 141733920782 -->
<g id="node5" class="node">
<title>141733920782</title>
<polygon fill="none" stroke="black" points="448.75,-130.75 318,-130.75 318,-91.25 448.75,-91.25 448.75,-130.75"/>
<text xml:space="preserve" text-anchor="start" x="349.62" y="-113.45" font-family="Times,serif" font-size="14.00">RETURN, 40</text>
<text xml:space="preserve" text-anchor="start" x="326" y="-97.7" font-family="Times,serif" font-size="14.00">return peek(self)</text>
</g>
<!-- 141733920782&#45;&gt;124554051603 -->
<g id="edge1" class="edge">
<title>141733920782&#45;&gt;124554051603</title>
<path fill="none" stroke="black" d="M333.18,-90.85C297.09,-77.09 248.25,-58.46 209.98,-43.87"/>
<polygon fill="black" stroke="black" points="211.5,-40.7 200.91,-40.4 209,-47.24 211.5,-40.7"/>
<text xml:space="preserve" text-anchor="middle" x="314.14" y="-59.95" font-family="Times,serif" font-size="14.00">DDG: &lt;RET&gt;</text>
</g>
<!-- 30064771159&#45;&gt;124554051603 -->
<g id="edge3" class="edge">
<title>30064771159&#45;&gt;124554051603</title>
<path fill="none" stroke="black" d="M164.77,-182.26C146.5,-170.16 125.81,-152.63 115.62,-130.75 103.27,-104.21 116.12,-72 129.37,-49.32"/>
<polygon fill="black" stroke="black" points="132.29,-51.25 134.6,-40.91 126.35,-47.56 132.29,-51.25"/>
<text xml:space="preserve" text-anchor="middle" x="146" y="-105.58" font-family="Times,serif" font-size="14.00">DDG: self</text>
</g>
<!-- 30064771159&#45;&gt;124554051603 -->
<g id="edge4" class="edge">
<title>30064771159&#45;&gt;124554051603</title>
<path fill="none" stroke="black" d="M196.37,-182.34C192.64,-160.24 185.62,-122.7 176.38,-91.25 172.34,-77.54 166.85,-62.71 161.87,-50.21"/>
<polygon fill="black" stroke="black" points="165.25,-49.26 158.24,-41.32 158.77,-51.9 165.25,-49.26"/>
<text xml:space="preserve" text-anchor="middle" x="236.72" y="-105.58" font-family="Times,serif" font-size="14.00">DDG: peek(self)</text>
</g>
<!-- 30064771159&#45;&gt;141733920782 -->
<g id="edge7" class="edge">
<title>30064771159&#45;&gt;141733920782</title>
<path fill="none" stroke="black" d="M238.85,-182.1C266.62,-168.63 303.99,-150.5 333.78,-136.06"/>
<polygon fill="black" stroke="black" points="335.14,-139.29 342.61,-131.78 332.08,-132.99 335.14,-139.29"/>
<text xml:space="preserve" text-anchor="middle" x="353.02" y="-151.2" font-family="Times,serif" font-size="14.00">DDG: peek(self)</text>
</g>
</g>
</svg>
