<?xml version="1.0" encoding="UTF-8" standalone="no"?>
<!DOCTYPE svg PUBLIC "-//W3C//DTD SVG 1.1//EN"
 "http://www.w3.org/Graphics/SVG/1.1/DTD/svg11.dtd">
<!-- Generated by graphviz version 13.1.2 (20250809.0930)
 -->
<!-- Title: remaining&lt;metaClassAdapter&gt; Pages: 1 -->
<svg width="528pt" height="436pt"
 viewBox="0.00 0.00 528.00 436.00" xmlns="http://www.w3.org/2000/svg" xmlns:xlink="http://www.w3.org/1999/xlink">
<g id="graph0" class="graph" transform="scale(1 1) rotate(0) translate(4 432.25)">
<title>remaining&lt;metaClassAdapter&gt;</title>
<polygon fill="white" stroke="none" points="-4,4 -4,-432.25 523.62,-432.25 523.62,4 -4,4"/>
<!-- 107374182420 -->
<g id="node1" class="node">
<title>107374182420</title>
<polygon fill="none" stroke="black" points="235.5,-428.25 37.25,-428.25 37.25,-388.75 235.5,-388.75 235.5,-428.25"/>
<text xml:space="preserve" text-anchor="start" x="102.62" y="-410.95" font-family="Times,serif" font-size="14.00">METHOD, 61</text>
<text xml:space="preserve" text-anchor="start" x="45.25" y="-395.2" font-family="Times,serif" font-size="14.00">remaining&lt;metaClassAdapter&gt;</text>
</g>
<!-- 111669149733 -->
<g id="node3" class="node">
<title>111669149733</title>
<polygon fill="none" stroke="black" points="76.75,-279.5 0,-279.5 0,-240 76.75,-240 76.75,-279.5"/>
<text xml:space="preserve" text-anchor="start" x="8" y="-262.2" font-family="Times,serif" font-size="14.00">PARAM, 61</text>
<text xml:space="preserve" text-anchor="start" x="28.25" y="-246.45" font-family="Times,serif" font-size="14.00">cls</text>
</g>
<!-- 107374182420&#45;&gt;111669149733 -->
<g id="edge5" class="edge">
<title>107374182420&#45;&gt;111669149733</title>
<path fill="none" stroke="black" d="M114.45,-388.31C108.94,-382.93 103.27,-376.87 98.62,-370.75 79.29,-345.31 62.32,-312.89 51.36,-289.85"/>
<polygon fill="black" stroke="black" points="54.66,-288.63 47.26,-281.05 48.31,-291.59 54.66,-288.63"/>
<text xml:space="preserve" text-anchor="middle" x="115.5" y="-357.45" font-family="Times,serif" font-size="14.00">DDG: </text>
</g>
<!-- 111669149734 -->
<g id="node4" class="node">
<title>111669149734</title>
<polygon fill="none" stroke="black" points="174.75,-337 98,-337 98,-297.5 174.75,-297.5 174.75,-337"/>
<text xml:space="preserve" text-anchor="start" x="106" y="-319.7" font-family="Times,serif" font-size="14.00">PARAM, 61</text>
<text xml:space="preserve" text-anchor="start" x="122.88" y="-303.95" font-family="Times,serif" font-size="14.00">self</text>
</g>
<!-- 107374182420&#45;&gt;111669149734 -->
<g id="edge6" class="edge">
<title>107374182420&#45;&gt;111669149734</title>
<path fill="none" stroke="black" d="M136.38,-388.57C136.38,-377.05 136.38,-362.07 136.38,-348.9"/>
<polygon fill="black" stroke="black" points="139.88,-348.97 136.38,-338.97 132.88,-348.97 139.88,-348.97"/>
<text xml:space="preserve" text-anchor="middle" x="153.25" y="-357.45" font-family="Times,serif" font-size="14.00">DDG: </text>
</g>
<!-- 30064771160 -->
<g id="node6" class="node">
<title>30064771160</title>
<polygon fill="none" stroke="black" points="368.88,-222 55.88,-222 55.88,-182.5 368.88,-182.5 368.88,-222"/>
<text xml:space="preserve" text-anchor="start" x="63.88" y="-204.7" font-family="Times,serif" font-size="14.00">json_parser.py:&lt;module&gt;.Parser.remaining, 61</text>
<text xml:space="preserve" text-anchor="start" x="161.75" y="-188.95" font-family="Times,serif" font-size="14.00">remaining(self)</text>
</g>
<!-- 107374182420&#45;&gt;30064771160 -->
<g id="edge9" class="edge">
<title>107374182420&#45;&gt;30064771160</title>
<path fill="none" stroke="black" d="M159.89,-388.64C165.29,-383.34 170.56,-377.24 174.38,-370.75 199.72,-327.63 208.16,-269.11 210.98,-233.88"/>
<polygon fill="black" stroke="black" points="214.46,-234.18 211.65,-223.97 207.48,-233.71 214.46,-234.18"/>
<text xml:space="preserve" text-anchor="middle" x="218.29" y="-311.82" font-family="Times,serif" font-size="14.00">DDG: </text>
</g>
<!-- 124554051604 -->
<g id="node2" class="node">
<title>124554051604</title>
<polygon fill="none" stroke="black" points="218.75,-39.5 88,-39.5 88,0 218.75,0 218.75,-39.5"/>
<text xml:space="preserve" text-anchor="start" x="96" y="-22.2" font-family="Times,serif" font-size="14.00">METHOD_RETURN, 61</text>
<text xml:space="preserve" text-anchor="start" x="143.25" y="-6.45" font-family="Times,serif" font-size="14.00">ANY</text>
</g>
<!-- 111669149733&#45;&gt;124554051604 -->
<g id="edge2" class="edge">
<title>111669149733&#45;&gt;124554051604</title>
<path fill="none" stroke="black" d="M38.23,-239.5C38.62,-223.81 40.36,-201.26 46.38,-182.5 65.9,-121.66 78.92,-108.52 117.38,-57.5 119.76,-54.34 122.4,-51.17 125.13,-48.09"/>
<polygon fill="black" stroke="black" points="127.64,-50.53 131.92,-40.83 122.53,-45.75 127.64,-50.53"/>
<text xml:space="preserve" text-anchor="middle" x="85.06" y="-151.2" font-family="Times,serif" font-size="14.00">DDG: cls</text>
</g>
<!-- 111669149734&#45;&gt;30064771160 -->
<g id="edge8" class="edge">
<title>111669149734&#45;&gt;30064771160</title>
<path fill="none" stroke="black" d="M131.49,-297.14C128.43,-280.69 126.85,-257 137.62,-240 140.08,-236.13 143.08,-232.65 146.44,-229.53"/>
<polygon fill="black" stroke="black" points="148.54,-232.33 154.27,-223.42 144.23,-226.81 148.54,-232.33"/>
<text xml:space="preserve" text-anchor="middle" x="168" y="-254.32" font-family="Times,serif" font-size="14.00">DDG: self</text>
</g>
<!-- 141733920783 -->
<g id="node5" class="node">
<title>141733920783</title>
<polygon fill="none" stroke="black" points="519.62,-130.75 355.12,-130.75 355.12,-91.25 519.62,-91.25 519.62,-130.75"/>
<text xml:space="preserve" text-anchor="start" x="403.62" y="-113.45" font-family="Times,serif" font-size="14.00">RETURN, 61</text>
<text xml:space="preserve" text-anchor="start" x="363.12" y="-97.7" font-family="Times,serif" font-size="14.00">return remaining(self)</text>
</g>
<!-- 141733920783&#45;&gt;124554051604 -->
<g id="edge1" class="edge">
<title>141733920783&#45;&gt;124554051604</title>
<path fill="none" stroke="black" d="M376.45,-90.85C332.09,-76.91 271.85,-57.98 225.15,-43.31"/>
<polygon fill="black" stroke="black" points="226.23,-39.98 215.64,-40.32 224.13,-46.66 226.23,-39.98"/>
<text xml:space="preserve" text-anchor="middle" x="346.13" y="-59.95" font-family="Times,serif" font-size="14.00">DDG: &lt;RET&gt;</text>
</g>
<!-- 30064771160&#45;&gt;124554051604 -->
<g id="edge3" class="edge">
<title>30064771160&#45;&gt;124554051604</title>
<path fill="none" stroke="black" d="M172.72,-182.27C152.88,-170.46 130.77,-153.22 119.62,-130.75 106.62,-104.52 119.56,-72.27 133.01,-49.49"/>
<polygon fill="black" stroke="black" points="135.97,-51.36 138.33,-41.03 130.04,-47.64 135.97,-51.36"/>
<text xml:space="preserve" text-anchor="middle" x="150" y="-105.58" font-family="Times,serif" font-size="14.00">DDG: self</text>
</g>
<!-- 30064771160&#45;&gt;124554051604 -->
<g id="edge4" class="edge">
<title>30064771160&#45;&gt;124554051604</title>
<path fill="none" stroke="black" d="M207.3,-182.02C201.35,-159.95 190.96,-122.73 180.38,-91.25 175.79,-77.61 170.17,-62.69 165.24,-50.11"/>
<polygon fill="black" stroke="black" points="168.63,-49.16 161.7,-41.15 162.12,-51.74 168.63,-49.16"/>
<text xml:space="preserve" text-anchor="middle" x="259.97" y="-105.58" font-family="Times,serif" font-size="14.00">DDG: remaining(self)</text>
</g>
<!-- 30064771160&#45;&gt;141733920783 -->
<g id="edge7" class="edge">
<title>30064771160&#45;&gt;141733920783</title>
<path fill="none" stroke="black" d="M260.64,-182.1C295.2,-168.4 341.9,-149.87 378.63,-135.3"/>
<polygon fill="black" stroke="black" points="379.77,-138.61 387.78,-131.67 377.19,-132.11 379.77,-138.61"/>
<text xml:space="preserve" text-anchor="middle" x="405.85" y="-151.2" font-family="Times,serif" font-size="14.00">DDG: remaining(self)</text>
</g>
</g>
</svg>
