<?xml version="1.0" encoding="UTF-8" standalone="no"?>
<!DOCTYPE svg PUBLIC "-//W3C//DTD SVG 1.1//EN"
 "http://www.w3.org/Graphics/SVG/1.1/DTD/svg11.dtd">
<!-- Generated by graphviz version 13.1.2 (20250809.0930)
 -->
<!-- Title: skip_whitespace Pages: 1 -->
<svg width="1756pt" height="773pt"
 viewBox="0.00 0.00 1756.00 773.00" xmlns="http://www.w3.org/2000/svg" xmlns:xlink="http://www.w3.org/1999/xlink">
<g id="graph0" class="graph" transform="scale(1 1) rotate(0) translate(4 768.75)">
<title>skip_whitespace</title>
<polygon fill="white" stroke="none" points="-4,4 -4,-768.75 1751.5,-768.75 1751.5,4 -4,4"/>
<!-- 107374182421 -->
<g id="node1" class="node">
<title>107374182421</title>
<polygon fill="none" stroke="black" points="1544.38,-764.75 1427.12,-764.75 1427.12,-725.25 1544.38,-725.25 1544.38,-764.75"/>
<text xml:space="preserve" text-anchor="start" x="1452" y="-747.45" font-family="Times,serif" font-size="14.00">METHOD, 69</text>
<text xml:space="preserve" text-anchor="start" x="1435.12" y="-731.7" font-family="Times,serif" font-size="14.00">skip_whitespace</text>
</g>
<!-- 111669149735 -->
<g id="node3" class="node">
<title>111669149735</title>
<polygon fill="none" stroke="black" points="1614.12,-673.5 1537.38,-673.5 1537.38,-634 1614.12,-634 1614.12,-673.5"/>
<text xml:space="preserve" text-anchor="start" x="1545.38" y="-656.2" font-family="Times,serif" font-size="14.00">PARAM, 69</text>
<text xml:space="preserve" text-anchor="start" x="1572.38" y="-640.45" font-family="Times,serif" font-size="14.00">p</text>
</g>
<!-- 107374182421&#45;&gt;111669149735 -->
<g id="edge9" class="edge">
<title>107374182421&#45;&gt;111669149735</title>
<path fill="none" stroke="black" d="M1504.84,-725.07C1517.52,-712.5 1534.36,-695.79 1548.45,-681.82"/>
<polygon fill="black" stroke="black" points="1550.67,-684.55 1555.31,-675.02 1545.74,-679.58 1550.67,-684.55"/>
<text xml:space="preserve" text-anchor="middle" x="1553.01" y="-693.95" font-family="Times,serif" font-size="14.00">DDG: </text>
</g>
<!-- 30064771172 -->
<g id="node5" class="node">
<title>30064771172</title>
<polygon fill="none" stroke="black" points="1647.88,-39.5 1557.62,-39.5 1557.62,0 1647.88,0 1647.88,-39.5"/>
<text xml:space="preserve" text-anchor="start" x="1565.62" y="-22.2" font-family="Times,serif" font-size="14.00">advance, 71</text>
<text xml:space="preserve" text-anchor="start" x="1565.62" y="-6.45" font-family="Times,serif" font-size="14.00">p.advance()</text>
</g>
<!-- 107374182421&#45;&gt;30064771172 -->
<g id="edge21" class="edge">
<title>107374182421&#45;&gt;30064771172</title>
<path fill="none" stroke="black" d="M1544.76,-732.97C1612.32,-718.63 1713.75,-691.04 1713.75,-654.75 1713.75,-654.75 1713.75,-654.75 1713.75,-145.38 1713.75,-102.84 1677.24,-68.1 1646.1,-46.21"/>
<polygon fill="black" stroke="black" points="1648.16,-43.37 1637.91,-40.68 1644.24,-49.18 1648.16,-43.37"/>
<text xml:space="preserve" text-anchor="middle" x="1730.62" y="-420.2" font-family="Times,serif" font-size="14.00">DDG: </text>
</g>
<!-- 30064771164 -->
<g id="node8" class="node">
<title>30064771164</title>
<polygon fill="none" stroke="black" points="1560.38,-582.25 1497.12,-582.25 1497.12,-542.75 1560.38,-542.75 1560.38,-582.25"/>
<text xml:space="preserve" text-anchor="start" x="1505.12" y="-564.95" font-family="Times,serif" font-size="14.00">eof, 70</text>
<text xml:space="preserve" text-anchor="start" x="1505.12" y="-549.2" font-family="Times,serif" font-size="14.00">p.eof()</text>
</g>
<!-- 107374182421&#45;&gt;30064771164 -->
<g id="edge23" class="edge">
<title>107374182421&#45;&gt;30064771164</title>
<path fill="none" stroke="black" d="M1485.29,-724.96C1485.21,-702.73 1486.56,-665.07 1495,-634 1498.89,-619.68 1505.62,-604.72 1512.05,-592.29"/>
<polygon fill="black" stroke="black" points="1514.93,-594.31 1516.59,-583.85 1508.77,-590.99 1514.93,-594.31"/>
<text xml:space="preserve" text-anchor="middle" x="1511.88" y="-648.33" font-family="Times,serif" font-size="14.00">DDG: </text>
</g>
<!-- 30064771167 -->
<g id="node9" class="node">
<title>30064771167</title>
<polygon fill="none" stroke="black" points="1505.75,-399.75 1435.75,-399.75 1435.75,-360.25 1505.75,-360.25 1505.75,-399.75"/>
<text xml:space="preserve" text-anchor="start" x="1443.75" y="-382.45" font-family="Times,serif" font-size="14.00">peek, 70</text>
<text xml:space="preserve" text-anchor="start" x="1443.75" y="-366.7" font-family="Times,serif" font-size="14.00">p.peek()</text>
</g>
<!-- 107374182421&#45;&gt;30064771167 -->
<g id="edge25" class="edge">
<title>107374182421&#45;&gt;30064771167</title>
<path fill="none" stroke="black" d="M1480.74,-724.76C1473.18,-694.63 1459.18,-634.36 1454,-582.25 1450.78,-549.85 1451.6,-541.48 1453.75,-509 1455.97,-475.4 1461.44,-437.16 1465.58,-411.3"/>
<polygon fill="black" stroke="black" points="1469.02,-411.93 1467.18,-401.5 1462.11,-410.8 1469.02,-411.93"/>
<text xml:space="preserve" text-anchor="middle" x="1470.88" y="-557.08" font-family="Times,serif" font-size="14.00">DDG: </text>
</g>
<!-- 30064771168 -->
<g id="node10" class="node">
<title>30064771168</title>
<polygon fill="none" stroke="black" points="861.88,-399.75 663.62,-399.75 663.62,-360.25 861.88,-360.25 861.88,-399.75"/>
<text xml:space="preserve" text-anchor="start" x="671.62" y="-382.45" font-family="Times,serif" font-size="14.00">&lt;operator&gt;.tupleLiteral, 70</text>
<text xml:space="preserve" text-anchor="start" x="685.12" y="-366.7" font-family="Times,serif" font-size="14.00">(&#39; &#39;, &#39;\t&#39;, &#39;\n&#39;, &#39;\r&#39;)</text>
</g>
<!-- 107374182421&#45;&gt;30064771168 -->
<g id="edge26" class="edge">
<title>107374182421&#45;&gt;30064771168</title>
<path fill="none" stroke="black" d="M1426.86,-744.27C1228.76,-744.39 598.75,-738.23 598.75,-654.75 598.75,-654.75 598.75,-654.75 598.75,-470.25 598.75,-438.21 623.19,-417.61 653.2,-404.39"/>
<polygon fill="black" stroke="black" points="654.22,-407.76 662.16,-400.75 651.58,-401.27 654.22,-407.76"/>
<text xml:space="preserve" text-anchor="middle" x="615.62" y="-557.08" font-family="Times,serif" font-size="14.00">DDG: </text>
</g>
<!-- 124554051605 -->
<g id="node2" class="node">
<title>124554051605</title>
<polygon fill="none" stroke="black" points="1314.12,-39.5 1183.38,-39.5 1183.38,0 1314.12,0 1314.12,-39.5"/>
<text xml:space="preserve" text-anchor="start" x="1191.38" y="-22.2" font-family="Times,serif" font-size="14.00">METHOD_RETURN, 69</text>
<text xml:space="preserve" text-anchor="start" x="1238.62" y="-6.45" font-family="Times,serif" font-size="14.00">ANY</text>
</g>
<!-- 111669149735&#45;&gt;30064771164 -->
<g id="edge22" class="edge">
<title>111669149735&#45;&gt;30064771164</title>
<path fill="none" stroke="black" d="M1565.78,-633.82C1559.47,-621.83 1551.18,-606.09 1544.04,-592.54"/>
<polygon fill="black" stroke="black" points="1547.33,-591.26 1539.57,-584.05 1541.13,-594.53 1547.33,-591.26"/>
<text xml:space="preserve" text-anchor="middle" x="1575.31" y="-602.7" font-family="Times,serif" font-size="14.00">DDG: p</text>
</g>
<!-- 30064771170 -->
<g id="node4" class="node">
<title>30064771170</title>
<polygon fill="none" stroke="black" points="812.5,-166.12 459,-166.12 459,-126.62 812.5,-126.62 812.5,-166.12"/>
<text xml:space="preserve" text-anchor="start" x="551.38" y="-148.82" font-family="Times,serif" font-size="14.00">&lt;operator&gt;.logicalAnd, 70</text>
<text xml:space="preserve" text-anchor="start" x="467" y="-133.07" font-family="Times,serif" font-size="14.00">not p.eof() and p.peek() in (&#39; &#39;, &#39;\t&#39;, &#39;\n&#39;, &#39;...</text>
</g>
<!-- 30064771170&#45;&gt;124554051605 -->
<g id="edge3" class="edge">
<title>30064771170&#45;&gt;124554051605</title>
<path fill="none" stroke="black" d="M589.8,-126.27C581.37,-120.62 573.69,-113.52 568.75,-104.75 558.45,-86.45 554.31,-72.74 568.75,-57.5 579,-46.68 995.3,-30.09 1171.38,-23.55"/>
<polygon fill="black" stroke="black" points="1171.5,-27.04 1181.36,-23.18 1171.24,-20.05 1171.5,-27.04"/>
<text xml:space="preserve" text-anchor="middle" x="622.75" y="-75.7" font-family="Times,serif" font-size="14.00">DDG: not p.eof()</text>
</g>
<!-- 30064771170&#45;&gt;124554051605 -->
<g id="edge7" class="edge">
<title>30064771170&#45;&gt;124554051605</title>
<path fill="none" stroke="black" d="M657.62,-126.35C664.26,-119.9 671.25,-112.4 676.75,-104.75 690.42,-85.75 680.55,-70.53 700,-57.5 738.23,-31.89 1030.07,-24.01 1171.87,-21.68"/>
<polygon fill="black" stroke="black" points="1171.6,-25.19 1181.54,-21.53 1171.49,-18.19 1171.6,-25.19"/>
<text xml:space="preserve" text-anchor="middle" x="797.88" y="-91.45" font-family="Times,serif" font-size="14.00">DDG: p.peek() in (&#39; &#39;, &#39;t&#39;, &#39;</text>
<text xml:space="preserve" text-anchor="end" x="895.75" y="-75.7" font-family="Times,serif" font-size="14.00">&#39;, &#39;</text>
<text xml:space="preserve" text-anchor="middle" x="797.88" y="-59.95" font-family="Times,serif" font-size="14.00">&#39;)</text>
</g>
<!-- 30064771170&#45;&gt;124554051605 -->
<g id="edge8" class="edge">
<title>30064771170&#45;&gt;124554051605</title>
<path fill="none" stroke="black" d="M812.9,-129.8C849.15,-123.86 880.8,-115.75 895.75,-104.75 914.6,-90.88 899.85,-70.95 919,-57.5 958.43,-29.81 1087.17,-22.61 1171.64,-20.95"/>
<polygon fill="black" stroke="black" points="1171.54,-24.46 1181.48,-20.79 1171.42,-17.46 1171.54,-24.46"/>
<text xml:space="preserve" text-anchor="middle" x="1070.88" y="-91.45" font-family="Times,serif" font-size="14.00">DDG: not p.eof() and p.peek() in (&#39; &#39;, &#39;t&#39;, &#39;</text>
<text xml:space="preserve" text-anchor="end" x="1222.75" y="-75.7" font-family="Times,serif" font-size="14.00">&#39;, &#39;</text>
<text xml:space="preserve" text-anchor="middle" x="1070.88" y="-59.95" font-family="Times,serif" font-size="14.00">&#39;)</text>
</g>
<!-- 30064771170&#45;&gt;30064771170 -->
<g id="edge30" class="edge">
<title>30064771170&#45;&gt;30064771170</title>
<path fill="none" stroke="black" d="M812.77,-154.95C823.84,-152.93 830.5,-150.07 830.5,-146.38 830.5,-144.12 828.03,-142.18 823.59,-140.55"/>
<polygon fill="black" stroke="black" points="824.79,-137.25 814.24,-138.17 823.07,-144.03 824.79,-137.25"/>
<text xml:space="preserve" text-anchor="middle" x="847.38" y="-140.95" font-family="Times,serif" font-size="14.00">CDG: </text>
</g>
<!-- 30064771170&#45;&gt;30064771172 -->
<g id="edge29" class="edge">
<title>30064771170&#45;&gt;30064771172</title>
<path fill="none" stroke="black" d="M812.99,-140.19C930.77,-135.02 1088.59,-124.81 1226.75,-104.75 1341.5,-88.09 1473.25,-55.47 1546.36,-36.15"/>
<polygon fill="black" stroke="black" points="1546.92,-39.63 1555.69,-33.67 1545.12,-32.86 1546.92,-39.63"/>
<text xml:space="preserve" text-anchor="middle" x="1477.3" y="-75.7" font-family="Times,serif" font-size="14.00">CDG: </text>
</g>
<!-- 30064771165 -->
<g id="node6" class="node">
<title>30064771165</title>
<polygon fill="none" stroke="black" points="1308.12,-491 1123.38,-491 1123.38,-451.5 1308.12,-451.5 1308.12,-491"/>
<text xml:space="preserve" text-anchor="start" x="1131.38" y="-473.7" font-family="Times,serif" font-size="14.00">&lt;operator&gt;.logicalNot, 70</text>
<text xml:space="preserve" text-anchor="start" x="1178.62" y="-457.95" font-family="Times,serif" font-size="14.00">not p.eof()</text>
</g>
<!-- 30064771170&#45;&gt;30064771165 -->
<g id="edge33" class="edge">
<title>30064771170&#45;&gt;30064771165</title>
<path fill="none" stroke="black" d="M812.75,-155.49C868.93,-161.35 930.74,-171.27 985.75,-188 1145.92,-236.71 1233.54,-217.34 1320.75,-360.25 1329.9,-375.24 1329.01,-384.26 1320.75,-399.75 1310.33,-419.29 1291.82,-434.38 1273.21,-445.49"/>
<polygon fill="black" stroke="black" points="1271.55,-442.41 1264.54,-450.36 1274.97,-448.52 1271.55,-442.41"/>
<text xml:space="preserve" text-anchor="middle" x="1325.54" y="-321.07" font-family="Times,serif" font-size="14.00">CDG: </text>
</g>
<!-- 30064771170&#45;&gt;30064771164 -->
<g id="edge32" class="edge">
<title>30064771170&#45;&gt;30064771164</title>
<path fill="none" stroke="black" d="M623.87,-166.3C597.21,-211.42 538.98,-326.96 592,-399.75 693.78,-539.47 1188.49,-501.29 1359.75,-524.75 1414.86,-532.3 1433.04,-525.99 1486.03,-541.25"/>
<polygon fill="black" stroke="black" points="1484.7,-544.51 1495.28,-544.04 1486.72,-537.8 1484.7,-544.51"/>
<text xml:space="preserve" text-anchor="middle" x="608.88" y="-374.57" font-family="Times,serif" font-size="14.00">CDG: </text>
</g>
<!-- 30064771171 -->
<g id="node11" class="node">
<title>30064771171</title>
<polygon fill="none" stroke="black" points="738.5,-39.5 547,-39.5 547,0 738.5,0 738.5,-39.5"/>
<text xml:space="preserve" text-anchor="start" x="555" y="-22.2" font-family="Times,serif" font-size="14.00">&lt;operator&gt;.fieldAccess, 71</text>
<text xml:space="preserve" text-anchor="start" x="612.38" y="-6.45" font-family="Times,serif" font-size="14.00">p.advance</text>
</g>
<!-- 30064771170&#45;&gt;30064771171 -->
<g id="edge31" class="edge">
<title>30064771170&#45;&gt;30064771171</title>
<path fill="none" stroke="black" d="M536.61,-126.25C527.04,-120.75 518.5,-113.72 512,-104.75 499.68,-87.74 499.32,-74.24 512,-57.5 516.06,-52.14 524.8,-47.34 535.94,-43.13"/>
<polygon fill="black" stroke="black" points="537.01,-46.46 545.34,-39.91 534.75,-39.84 537.01,-46.46"/>
<text xml:space="preserve" text-anchor="middle" x="528.88" y="-75.7" font-family="Times,serif" font-size="14.00">CDG: </text>
</g>
<!-- 30064771163 -->
<g id="node12" class="node">
<title>30064771163</title>
<polygon fill="none" stroke="black" points="191.5,-39.5 0,-39.5 0,0 191.5,0 191.5,-39.5"/>
<text xml:space="preserve" text-anchor="start" x="8" y="-22.2" font-family="Times,serif" font-size="14.00">&lt;operator&gt;.fieldAccess, 70</text>
<text xml:space="preserve" text-anchor="start" x="78.88" y="-6.45" font-family="Times,serif" font-size="14.00">p.eof</text>
</g>
<!-- 30064771170&#45;&gt;30064771163 -->
<g id="edge34" class="edge">
<title>30064771170&#45;&gt;30064771163</title>
<path fill="none" stroke="black" d="M458.69,-134.09C404.88,-128.07 345.98,-118.86 293,-104.75 239.46,-90.49 181.5,-64.41 142.35,-45.08"/>
<polygon fill="black" stroke="black" points="143.94,-41.97 133.43,-40.63 140.81,-48.23 143.94,-41.97"/>
<text xml:space="preserve" text-anchor="middle" x="309.88" y="-75.7" font-family="Times,serif" font-size="14.00">CDG: </text>
</g>
<!-- 55834574872 -->
<g id="node14" class="node">
<title>55834574872</title>
<polygon fill="none" stroke="black" points="360.25,-39.5 209.25,-39.5 209.25,0 360.25,0 360.25,-39.5"/>
<text xml:space="preserve" text-anchor="start" x="217.25" y="-22.2" font-family="Times,serif" font-size="14.00">FIELD_IDENTIFIER, 71</text>
<text xml:space="preserve" text-anchor="start" x="261.12" y="-6.45" font-family="Times,serif" font-size="14.00">advance</text>
</g>
<!-- 30064771170&#45;&gt;55834574872 -->
<g id="edge28" class="edge">
<title>30064771170&#45;&gt;55834574872</title>
<path fill="none" stroke="black" d="M482.96,-126.18C458.76,-120.72 434.35,-113.72 412,-104.75 376.71,-90.59 340.96,-65.87 316.37,-46.91"/>
<polygon fill="black" stroke="black" points="318.74,-44.31 308.71,-40.89 314.41,-49.82 318.74,-44.31"/>
<text xml:space="preserve" text-anchor="middle" x="428.88" y="-75.7" font-family="Times,serif" font-size="14.00">CDG: </text>
</g>
<!-- 55834574870 -->
<g id="node15" class="node">
<title>55834574870</title>
<polygon fill="none" stroke="black" points="529.25,-39.5 378.25,-39.5 378.25,0 529.25,0 529.25,-39.5"/>
<text xml:space="preserve" text-anchor="start" x="386.25" y="-22.2" font-family="Times,serif" font-size="14.00">FIELD_IDENTIFIER, 70</text>
<text xml:space="preserve" text-anchor="start" x="443.62" y="-6.45" font-family="Times,serif" font-size="14.00">eof</text>
</g>
<!-- 30064771170&#45;&gt;55834574870 -->
<g id="edge27" class="edge">
<title>30064771170&#45;&gt;55834574870</title>
<path fill="none" stroke="black" d="M513.16,-126.22C491.21,-120.5 472.82,-113.39 465,-104.75 452.11,-90.49 449.44,-68.92 449.93,-51.2"/>
<polygon fill="black" stroke="black" points="453.4,-51.68 450.55,-41.47 446.42,-51.23 453.4,-51.68"/>
<text xml:space="preserve" text-anchor="middle" x="481.88" y="-75.7" font-family="Times,serif" font-size="14.00">CDG: </text>
</g>
<!-- 30064771165&#45;&gt;124554051605 -->
<g id="edge2" class="edge">
<title>30064771165&#45;&gt;124554051605</title>
<path fill="none" stroke="black" d="M1283.14,-451.1C1293.97,-446.34 1304.6,-440.54 1313.75,-433.5 1335.81,-416.53 1377.75,-330.62 1377.75,-327.5 1377.75,-327.5 1377.75,-327.5 1377.75,-145.38 1377.75,-100.4 1336.69,-66.51 1300.91,-45.51"/>
<polygon fill="black" stroke="black" points="1302.74,-42.52 1292.31,-40.67 1299.31,-48.62 1302.74,-42.52"/>
<text xml:space="preserve" text-anchor="middle" x="1418.25" y="-267.57" font-family="Times,serif" font-size="14.00">DDG: p.eof()</text>
</g>
<!-- 30064771165&#45;&gt;30064771170 -->
<g id="edge10" class="edge">
<title>30064771165&#45;&gt;30064771170</title>
<path fill="none" stroke="black" d="M1122.89,-464.99C971.74,-455.5 686.12,-433.33 654.75,-399.75 598,-339 614.75,-230.2 627.36,-177.56"/>
<polygon fill="black" stroke="black" points="630.7,-178.64 629.75,-168.09 623.91,-176.93 630.7,-178.64"/>
<text xml:space="preserve" text-anchor="middle" x="663.79" y="-321.07" font-family="Times,serif" font-size="14.00">DDG: p.eof()</text>
</g>
<!-- 30064771169 -->
<g id="node7" class="node">
<title>30064771169</title>
<polygon fill="none" stroke="black" points="1050.88,-292.75 798.62,-292.75 798.62,-253.25 1050.88,-253.25 1050.88,-292.75"/>
<text xml:space="preserve" text-anchor="start" x="867.38" y="-275.45" font-family="Times,serif" font-size="14.00">&lt;operator&gt;.in, 70</text>
<text xml:space="preserve" text-anchor="start" x="806.62" y="-259.7" font-family="Times,serif" font-size="14.00">p.peek() in (&#39; &#39;, &#39;\t&#39;, &#39;\n&#39;, &#39;\r&#39;)</text>
</g>
<!-- 30064771165&#45;&gt;30064771169 -->
<g id="edge37" class="edge">
<title>30064771165&#45;&gt;30064771169</title>
<path fill="none" stroke="black" d="M1167.14,-451.11C1139.22,-438.8 1104.36,-421.12 1077,-399.75 1035.72,-367.51 1041.26,-342.69 999.75,-310.75 993.96,-306.29 987.54,-302.17 980.97,-298.42"/>
<polygon fill="black" stroke="black" points="983.08,-295.58 972.62,-293.91 979.75,-301.74 983.08,-295.58"/>
<text xml:space="preserve" text-anchor="middle" x="1093.88" y="-374.57" font-family="Times,serif" font-size="14.00">CDG: </text>
</g>
<!-- 30064771165&#45;&gt;30064771167 -->
<g id="edge39" class="edge">
<title>30064771165&#45;&gt;30064771167</title>
<path fill="none" stroke="black" d="M1308.28,-456.4C1333.06,-450.95 1359.43,-443.52 1382.75,-433.5 1394.22,-428.57 1395.4,-424.34 1406,-417.75 1412.42,-413.76 1419.28,-409.68 1426.05,-405.76"/>
<polygon fill="black" stroke="black" points="1427.59,-408.91 1434.53,-400.9 1424.11,-402.83 1427.59,-408.91"/>
<text xml:space="preserve" text-anchor="middle" x="1422.88" y="-420.2" font-family="Times,serif" font-size="14.00">CDG: </text>
</g>
<!-- 30064771165&#45;&gt;30064771168 -->
<g id="edge36" class="edge">
<title>30064771165&#45;&gt;30064771168</title>
<path fill="none" stroke="black" d="M1123.06,-459.89C1073.54,-453.65 1011.67,-444.73 957,-433.5 916.99,-425.29 873.02,-413.62 837.04,-403.38"/>
<polygon fill="black" stroke="black" points="838.18,-400.06 827.6,-400.67 836.24,-406.79 838.18,-400.06"/>
<text xml:space="preserve" text-anchor="middle" x="973.88" y="-420.2" font-family="Times,serif" font-size="14.00">CDG: </text>
</g>
<!-- 30064771166 -->
<g id="node13" class="node">
<title>30064771166</title>
<polygon fill="none" stroke="black" points="1311.5,-399.75 1120,-399.75 1120,-360.25 1311.5,-360.25 1311.5,-399.75"/>
<text xml:space="preserve" text-anchor="start" x="1128" y="-382.45" font-family="Times,serif" font-size="14.00">&lt;operator&gt;.fieldAccess, 70</text>
<text xml:space="preserve" text-anchor="start" x="1195.5" y="-366.7" font-family="Times,serif" font-size="14.00">p.peek</text>
</g>
<!-- 30064771165&#45;&gt;30064771166 -->
<g id="edge38" class="edge">
<title>30064771165&#45;&gt;30064771166</title>
<path fill="none" stroke="black" d="M1215.75,-451.32C1215.75,-439.8 1215.75,-424.82 1215.75,-411.65"/>
<polygon fill="black" stroke="black" points="1219.25,-411.72 1215.75,-401.72 1212.25,-411.72 1219.25,-411.72"/>
<text xml:space="preserve" text-anchor="middle" x="1232.62" y="-420.2" font-family="Times,serif" font-size="14.00">CDG: </text>
</g>
<!-- 55834574871 -->
<g id="node16" class="node">
<title>55834574871</title>
<polygon fill="none" stroke="black" points="1031.25,-399.75 880.25,-399.75 880.25,-360.25 1031.25,-360.25 1031.25,-399.75"/>
<text xml:space="preserve" text-anchor="start" x="888.25" y="-382.45" font-family="Times,serif" font-size="14.00">FIELD_IDENTIFIER, 70</text>
<text xml:space="preserve" text-anchor="start" x="942.25" y="-366.7" font-family="Times,serif" font-size="14.00">peek</text>
</g>
<!-- 30064771165&#45;&gt;55834574871 -->
<g id="edge35" class="edge">
<title>30064771165&#45;&gt;55834574871</title>
<path fill="none" stroke="black" d="M1123.18,-462.5C1089.55,-457.23 1051.98,-448.37 1020,-433.5 1006.29,-427.12 993.03,-417.15 982.14,-407.61"/>
<polygon fill="black" stroke="black" points="984.82,-405.31 975.08,-401.14 980.09,-410.47 984.82,-405.31"/>
<text xml:space="preserve" text-anchor="middle" x="1036.88" y="-420.2" font-family="Times,serif" font-size="14.00">CDG: </text>
</g>
<!-- 30064771169&#45;&gt;124554051605 -->
<g id="edge5" class="edge">
<title>30064771169&#45;&gt;124554051605</title>
<path fill="none" stroke="black" d="M1051.33,-262.84C1115.44,-251.11 1188.29,-225.45 1229.75,-170 1255.52,-135.53 1255.99,-83.61 1253.05,-50.97"/>
<polygon fill="black" stroke="black" points="1256.57,-50.96 1252.02,-41.4 1249.61,-51.71 1256.57,-50.96"/>
<text xml:space="preserve" text-anchor="middle" x="1293.73" y="-140.95" font-family="Times,serif" font-size="14.00">DDG: p.peek()</text>
</g>
<!-- 30064771169&#45;&gt;124554051605 -->
<g id="edge6" class="edge">
<title>30064771169&#45;&gt;124554051605</title>
<path fill="none" stroke="black" d="M959.05,-252.89C967.96,-247.51 977.4,-241.43 985.75,-235.25 1045.9,-190.74 1043.49,-155.01 1111,-122.75 1156.39,-101.06 1184.77,-137.74 1222.75,-104.75 1238.07,-91.45 1244.49,-69.32 1247.12,-51.11"/>
<polygon fill="black" stroke="black" points="1250.58,-51.68 1248.19,-41.35 1243.62,-50.91 1250.58,-51.68"/>
<text xml:space="preserve" text-anchor="middle" x="1168.38" y="-156.7" font-family="Times,serif" font-size="14.00">DDG: (&#39; &#39;, &#39;t&#39;, &#39;</text>
<text xml:space="preserve" text-anchor="end" x="1225.75" y="-140.95" font-family="Times,serif" font-size="14.00">&#39;, &#39;</text>
<text xml:space="preserve" text-anchor="middle" x="1168.38" y="-125.2" font-family="Times,serif" font-size="14.00">&#39;)</text>
</g>
<!-- 30064771169&#45;&gt;30064771170 -->
<g id="edge11" class="edge">
<title>30064771169&#45;&gt;30064771170</title>
<path fill="none" stroke="black" d="M909.92,-252.75C893.83,-233.28 866.3,-203.85 835.75,-188 821.69,-180.71 806.45,-174.73 790.86,-169.82"/>
<polygon fill="black" stroke="black" points="792.06,-166.52 781.48,-167.02 790.06,-173.23 792.06,-166.52"/>
<text xml:space="preserve" text-anchor="middle" x="938.23" y="-206.2" font-family="Times,serif" font-size="14.00">DDG: p.peek()</text>
</g>
<!-- 30064771169&#45;&gt;30064771170 -->
<g id="edge12" class="edge">
<title>30064771169&#45;&gt;30064771170</title>
<path fill="none" stroke="black" d="M798.38,-263.05C770.41,-257.48 741.75,-248.77 717,-235.25 691.14,-221.13 669,-195.69 654.39,-175.81"/>
<polygon fill="black" stroke="black" points="657.36,-173.93 648.72,-167.8 651.65,-177.98 657.36,-173.93"/>
<text xml:space="preserve" text-anchor="middle" x="774.38" y="-221.95" font-family="Times,serif" font-size="14.00">DDG: (&#39; &#39;, &#39;t&#39;, &#39;</text>
<text xml:space="preserve" text-anchor="end" x="831.75" y="-206.2" font-family="Times,serif" font-size="14.00">&#39;, &#39;</text>
<text xml:space="preserve" text-anchor="middle" x="774.38" y="-190.45" font-family="Times,serif" font-size="14.00">&#39;)</text>
</g>
<!-- 30064771164&#45;&gt;124554051605 -->
<g id="edge1" class="edge">
<title>30064771164&#45;&gt;124554051605</title>
<path fill="none" stroke="black" d="M1553.69,-542.4C1572.03,-526.02 1593.75,-500.62 1593.75,-472.25 1593.75,-472.25 1593.75,-472.25 1593.75,-145.38 1593.75,-87.53 1549.99,-82.34 1497.75,-57.5 1468.08,-43.39 1387.33,-33.17 1325.77,-27.15"/>
<polygon fill="black" stroke="black" points="1326.3,-23.68 1316.02,-26.22 1325.64,-30.65 1326.3,-23.68"/>
<text xml:space="preserve" text-anchor="middle" x="1614" y="-321.07" font-family="Times,serif" font-size="14.00">DDG: p</text>
</g>
<!-- 30064771164&#45;&gt;30064771172 -->
<g id="edge19" class="edge">
<title>30064771164&#45;&gt;30064771172</title>
<path fill="none" stroke="black" d="M1560.64,-554.3C1598.84,-543.56 1657.75,-519.36 1657.75,-472.25 1657.75,-472.25 1657.75,-472.25 1657.75,-145.38 1657.75,-110.04 1639.01,-73.5 1623.41,-49.2"/>
<polygon fill="black" stroke="black" points="1626.5,-47.52 1618.04,-41.14 1620.68,-51.4 1626.5,-47.52"/>
<text xml:space="preserve" text-anchor="middle" x="1678" y="-321.07" font-family="Times,serif" font-size="14.00">DDG: p</text>
</g>
<!-- 30064771164&#45;&gt;30064771165 -->
<g id="edge13" class="edge">
<title>30064771164&#45;&gt;30064771165</title>
<path fill="none" stroke="black" d="M1496.8,-549.26C1490.52,-546.99 1483.95,-544.72 1477.75,-542.75 1420.97,-524.71 1356.35,-507.29 1305.49,-494.28"/>
<polygon fill="black" stroke="black" points="1306.55,-490.94 1295.99,-491.86 1304.82,-497.72 1306.55,-490.94"/>
<text xml:space="preserve" text-anchor="middle" x="1433.86" y="-511.45" font-family="Times,serif" font-size="14.00">DDG: p</text>
</g>
<!-- 30064771164&#45;&gt;30064771167 -->
<g id="edge24" class="edge">
<title>30064771164&#45;&gt;30064771167</title>
<path fill="none" stroke="black" d="M1522.65,-542.52C1512.56,-511.11 1492.3,-448.05 1480.29,-410.7"/>
<polygon fill="black" stroke="black" points="1483.71,-409.88 1477.32,-401.43 1477.04,-412.02 1483.71,-409.88"/>
<text xml:space="preserve" text-anchor="middle" x="1525.77" y="-465.82" font-family="Times,serif" font-size="14.00">DDG: p</text>
</g>
<!-- 30064771167&#45;&gt;124554051605 -->
<g id="edge4" class="edge">
<title>30064771167&#45;&gt;124554051605</title>
<path fill="none" stroke="black" d="M1472.64,-359.85C1477,-303.78 1481.32,-138.83 1391.75,-57.5 1373.65,-41.06 1349.18,-31.77 1325.6,-26.59"/>
<polygon fill="black" stroke="black" points="1326.47,-23.19 1315.99,-24.71 1325.13,-30.06 1326.47,-23.19"/>
<text xml:space="preserve" text-anchor="middle" x="1489.87" y="-206.2" font-family="Times,serif" font-size="14.00">DDG: p</text>
</g>
<!-- 30064771167&#45;&gt;30064771172 -->
<g id="edge20" class="edge">
<title>30064771167&#45;&gt;30064771172</title>
<path fill="none" stroke="black" d="M1488.98,-359.9C1493.35,-354.52 1497.65,-348.43 1500.75,-342.25 1532.41,-279.08 1518.12,-255.42 1539.25,-188 1554.69,-138.74 1576.85,-82.94 1590.49,-49.86"/>
<polygon fill="black" stroke="black" points="1593.59,-51.53 1594.19,-40.95 1587.12,-48.85 1593.59,-51.53"/>
<text xml:space="preserve" text-anchor="middle" x="1559.5" y="-206.2" font-family="Times,serif" font-size="14.00">DDG: p</text>
</g>
<!-- 30064771167&#45;&gt;30064771169 -->
<g id="edge14" class="edge">
<title>30064771167&#45;&gt;30064771169</title>
<path fill="none" stroke="black" d="M1448.96,-359.97C1429.04,-343.79 1397.99,-321.52 1366.75,-310.75 1312.39,-292.02 1171.04,-282.63 1062.69,-278.07"/>
<polygon fill="black" stroke="black" points="1062.96,-274.58 1052.82,-277.66 1062.67,-281.57 1062.96,-274.58"/>
<text xml:space="preserve" text-anchor="middle" x="1443.55" y="-321.07" font-family="Times,serif" font-size="14.00">DDG: p</text>
</g>
<!-- 30064771168&#45;&gt;30064771169 -->
<g id="edge15" class="edge">
<title>30064771168&#45;&gt;30064771169</title>
<path fill="none" stroke="black" d="M862.24,-360.35C898.8,-353.02 932.06,-345.57 934.75,-342.25 943.4,-331.56 942.28,-316.72 938.41,-303.61"/>
<polygon fill="black" stroke="black" points="941.83,-302.8 935.18,-294.56 935.24,-305.16 941.83,-302.8"/>
<text xml:space="preserve" text-anchor="middle" x="968.32" y="-321.07" font-family="Times,serif" font-size="14.00">DDG: &#39; &#39;</text>
</g>
<!-- 30064771168&#45;&gt;30064771169 -->
<g id="edge16" class="edge">
<title>30064771168&#45;&gt;30064771169</title>
<path fill="none" stroke="black" d="M752.83,-359.86C746.62,-344.91 741.68,-324.44 752.75,-310.75 758.58,-303.54 771.31,-297.69 787.35,-292.95"/>
<polygon fill="black" stroke="black" points="788.12,-296.37 796.87,-290.39 786.3,-289.61 788.12,-296.37"/>
<text xml:space="preserve" text-anchor="middle" x="779.75" y="-321.07" font-family="Times,serif" font-size="14.00">DDG: &#39;t&#39;</text>
</g>
<!-- 30064771168&#45;&gt;30064771169 -->
<g id="edge17" class="edge">
<title>30064771168&#45;&gt;30064771169</title>
<path fill="none" stroke="black" d="M787.41,-360.13C793.97,-354.65 800.87,-348.47 806.75,-342.25 818.76,-329.56 816.35,-321.33 830.25,-310.75 836.61,-305.91 843.68,-301.64 851.01,-297.87"/>
<polygon fill="black" stroke="black" points="852.24,-301.17 859.77,-293.71 849.23,-294.84 852.24,-301.17"/>
<text xml:space="preserve" text-anchor="middle" x="850.5" y="-328.95" font-family="Times,serif" font-size="14.00">DDG: &#39;</text>
<text xml:space="preserve" text-anchor="middle" x="850.5" y="-313.2" font-family="Times,serif" font-size="14.00">&#39;</text>
</g>
<!-- 30064771168&#45;&gt;30064771169 -->
<g id="edge18" class="edge">
<title>30064771168&#45;&gt;30064771169</title>
<path fill="none" stroke="black" d="M840.78,-359.77C851.48,-355.1 861.84,-349.34 870.75,-342.25 883.63,-332 880.23,-323.82 890.25,-310.75 892.61,-307.67 895.19,-304.55 897.84,-301.51"/>
<polygon fill="black" stroke="black" points="900.24,-304.08 904.36,-294.31 895.05,-299.38 900.24,-304.08"/>
<text xml:space="preserve" text-anchor="end" x="930.75" y="-328.95" font-family="Times,serif" font-size="14.00">DDG: &#39;</text>
<text xml:space="preserve" text-anchor="middle" x="910.5" y="-313.2" font-family="Times,serif" font-size="14.00">&#39;</text>
</g>
</g>
</svg>
