<?xml version="1.0" encoding="UTF-8" standalone="no"?>
<!DOCTYPE svg PUBLIC "-//W3C//DTD SVG 1.1//EN"
 "http://www.w3.org/Graphics/SVG/1.1/DTD/svg11.dtd">
<!-- Generated by graphviz version 13.1.2 (20250809.0930)
 -->
<!-- Title: _is_digit Pages: 1 -->
<svg width="1407pt" height="885pt"
 viewBox="0.00 0.00 1407.00 885.00" xmlns="http://www.w3.org/2000/svg" xmlns:xlink="http://www.w3.org/1999/xlink">
<g id="graph0" class="graph" transform="scale(1 1) rotate(0) translate(4 880.5)">
<title>_is_digit</title>
<polygon fill="white" stroke="none" points="-4,4 -4,-880.5 1403.25,-880.5 1403.25,4 -4,4"/>
<!-- 107374182423 -->
<g id="node1" class="node">
<title>107374182423</title>
<polygon fill="none" stroke="black" points="737.75,-876.5 654.25,-876.5 654.25,-837 737.75,-837 737.75,-876.5"/>
<text xml:space="preserve" text-anchor="start" x="662.25" y="-859.2" font-family="Times,serif" font-size="14.00">METHOD, 97</text>
<text xml:space="preserve" text-anchor="start" x="665.62" y="-843.45" font-family="Times,serif" font-size="14.00">_is_digit</text>
</g>
<!-- 111669149737 -->
<g id="node3" class="node">
<title>111669149737</title>
<polygon fill="none" stroke="black" points="824.38,-785.25 747.62,-785.25 747.62,-745.75 824.38,-745.75 824.38,-785.25"/>
<text xml:space="preserve" text-anchor="start" x="755.62" y="-767.95" font-family="Times,serif" font-size="14.00">PARAM, 97</text>
<text xml:space="preserve" text-anchor="start" x="779.25" y="-752.2" font-family="Times,serif" font-size="14.00">ch</text>
</g>
<!-- 107374182423&#45;&gt;111669149737 -->
<g id="edge12" class="edge">
<title>107374182423&#45;&gt;111669149737</title>
<path fill="none" stroke="black" d="M715.09,-836.82C727.77,-824.25 744.61,-807.54 758.7,-793.57"/>
<polygon fill="black" stroke="black" points="760.92,-796.3 765.56,-786.77 755.99,-791.33 760.92,-796.3"/>
<text xml:space="preserve" text-anchor="middle" x="763.26" y="-805.7" font-family="Times,serif" font-size="14.00">DDG: </text>
</g>
<!-- 30064771197 -->
<g id="node6" class="node">
<title>30064771197</title>
<polygon fill="none" stroke="black" points="861.5,-694 710.5,-694 710.5,-654.5 861.5,-654.5 861.5,-694"/>
<text xml:space="preserve" text-anchor="start" x="718.5" y="-676.7" font-family="Times,serif" font-size="14.00">&lt;operator&gt;.isNot, 98</text>
<text xml:space="preserve" text-anchor="start" x="738.75" y="-660.95" font-family="Times,serif" font-size="14.00">ch is not None</text>
</g>
<!-- 107374182423&#45;&gt;30064771197 -->
<g id="edge18" class="edge">
<title>107374182423&#45;&gt;30064771197</title>
<path fill="none" stroke="black" d="M693.45,-836.69C691.29,-813.79 690.54,-774.82 705.25,-745.75 714.23,-728.01 729.77,-712.8 744.84,-701.1"/>
<polygon fill="black" stroke="black" points="746.91,-703.92 752.88,-695.17 742.76,-698.29 746.91,-703.92"/>
<text xml:space="preserve" text-anchor="middle" x="722.12" y="-760.08" font-family="Times,serif" font-size="14.00">DDG: </text>
</g>
<!-- 30064771198 -->
<g id="node7" class="node">
<title>30064771198</title>
<polygon fill="none" stroke="black" points="1313.38,-602.75 1128.62,-602.75 1128.62,-563.25 1313.38,-563.25 1313.38,-602.75"/>
<text xml:space="preserve" text-anchor="start" x="1136.62" y="-585.45" font-family="Times,serif" font-size="14.00">&lt;operator&gt;.assignment, 98</text>
<text xml:space="preserve" text-anchor="start" x="1190.62" y="-569.7" font-family="Times,serif" font-size="14.00">tmp1 = ch</text>
</g>
<!-- 107374182423&#45;&gt;30064771198 -->
<g id="edge20" class="edge">
<title>107374182423&#45;&gt;30064771198</title>
<path fill="none" stroke="black" d="M738.04,-853.63C843.83,-845.74 1120.92,-808.8 1237,-636.5 1241.61,-629.65 1241.27,-621.43 1238.8,-613.54"/>
<polygon fill="black" stroke="black" points="1242.11,-612.38 1234.97,-604.55 1235.67,-615.13 1242.11,-612.38"/>
<text xml:space="preserve" text-anchor="middle" x="1180.94" y="-714.45" font-family="Times,serif" font-size="14.00">DDG: </text>
</g>
<!-- 30064771199 -->
<g id="node9" class="node">
<title>30064771199</title>
<polygon fill="none" stroke="black" points="652.88,-511.5 441.12,-511.5 441.12,-472 652.88,-472 652.88,-511.5"/>
<text xml:space="preserve" text-anchor="start" x="449.12" y="-494.2" font-family="Times,serif" font-size="14.00">&lt;operator&gt;.lessEqualsThan, 98</text>
<text xml:space="preserve" text-anchor="start" x="509.88" y="-478.45" font-family="Times,serif" font-size="14.00">&#39;0&#39; &lt;= tmp1</text>
</g>
<!-- 107374182423&#45;&gt;30064771199 -->
<g id="edge24" class="edge">
<title>107374182423&#45;&gt;30064771199</title>
<path fill="none" stroke="black" d="M654,-847.57C612.76,-836.82 556,-813.48 556,-766.5 556,-766.5 556,-766.5 556,-582 556,-562.36 553.81,-540.4 551.6,-523.18"/>
<polygon fill="black" stroke="black" points="555.08,-522.78 550.25,-513.34 548.14,-523.73 555.08,-522.78"/>
<text xml:space="preserve" text-anchor="middle" x="572.88" y="-668.83" font-family="Times,serif" font-size="14.00">DDG: </text>
</g>
<!-- 30064771200 -->
<g id="node10" class="node">
<title>30064771200</title>
<polygon fill="none" stroke="black" points="407.88,-420.25 196.12,-420.25 196.12,-380.75 407.88,-380.75 407.88,-420.25"/>
<text xml:space="preserve" text-anchor="start" x="204.12" y="-402.95" font-family="Times,serif" font-size="14.00">&lt;operator&gt;.lessEqualsThan, 98</text>
<text xml:space="preserve" text-anchor="start" x="264.88" y="-387.2" font-family="Times,serif" font-size="14.00">tmp1 &lt;= &#39;9&#39;</text>
</g>
<!-- 107374182423&#45;&gt;30064771200 -->
<g id="edge27" class="edge">
<title>107374182423&#45;&gt;30064771200</title>
<path fill="none" stroke="black" d="M654.08,-855.34C550.35,-853.21 290,-840.47 290,-766.5 290,-766.5 290,-766.5 290,-490.75 290,-471.03 292.91,-449.07 295.87,-431.87"/>
<polygon fill="black" stroke="black" points="299.31,-432.51 297.67,-422.04 292.43,-431.25 299.31,-432.51"/>
<text xml:space="preserve" text-anchor="middle" x="306.88" y="-623.2" font-family="Times,serif" font-size="14.00">DDG: </text>
</g>
<!-- 124554051607 -->
<g id="node2" class="node">
<title>124554051607</title>
<polygon fill="none" stroke="black" points="523.38,-39.5 392.62,-39.5 392.62,0 523.38,0 523.38,-39.5"/>
<text xml:space="preserve" text-anchor="start" x="400.62" y="-22.2" font-family="Times,serif" font-size="14.00">METHOD_RETURN, 97</text>
<text xml:space="preserve" text-anchor="start" x="447.88" y="-6.45" font-family="Times,serif" font-size="14.00">ANY</text>
</g>
<!-- 111669149737&#45;&gt;30064771197 -->
<g id="edge17" class="edge">
<title>111669149737&#45;&gt;30064771197</title>
<path fill="none" stroke="black" d="M786,-745.57C786,-734.05 786,-719.07 786,-705.9"/>
<polygon fill="black" stroke="black" points="789.5,-705.97 786,-695.97 782.5,-705.97 789.5,-705.97"/>
<text xml:space="preserve" text-anchor="middle" x="809.62" y="-714.45" font-family="Times,serif" font-size="14.00">DDG: ch</text>
</g>
<!-- 141733920787 -->
<g id="node4" class="node">
<title>141733920787</title>
<polygon fill="none" stroke="black" points="1155.38,-130.75 862.62,-130.75 862.62,-91.25 1155.38,-91.25 1155.38,-130.75"/>
<text xml:space="preserve" text-anchor="start" x="975.25" y="-113.45" font-family="Times,serif" font-size="14.00">RETURN, 98</text>
<text xml:space="preserve" text-anchor="start" x="870.62" y="-97.7" font-family="Times,serif" font-size="14.00">return ch is not None and &#39;0&#39; &lt;= ch &lt;= &#39;9</text>
</g>
<!-- 141733920787&#45;&gt;124554051607 -->
<g id="edge1" class="edge">
<title>141733920787&#45;&gt;124554051607</title>
<path fill="none" stroke="black" d="M890.46,-90.8C782.82,-73.36 627.22,-48.16 534.97,-33.22"/>
<polygon fill="black" stroke="black" points="535.69,-29.79 525.25,-31.64 534.57,-36.7 535.69,-29.79"/>
<text xml:space="preserve" text-anchor="middle" x="800.24" y="-59.95" font-family="Times,serif" font-size="14.00">DDG: &lt;RET&gt;</text>
</g>
<!-- 30064771202 -->
<g id="node5" class="node">
<title>30064771202</title>
<polygon fill="none" stroke="black" points="903.75,-237.75 550.25,-237.75 550.25,-198.25 903.75,-198.25 903.75,-237.75"/>
<text xml:space="preserve" text-anchor="start" x="642.62" y="-220.45" font-family="Times,serif" font-size="14.00">&lt;operator&gt;.logicalAnd, 98</text>
<text xml:space="preserve" text-anchor="start" x="558.25" y="-204.7" font-family="Times,serif" font-size="14.00">ch is not None and tmp1 = ch &#39;0&#39; &lt;= tmp1 and tm...</text>
</g>
<!-- 30064771202&#45;&gt;124554051607 -->
<g id="edge3" class="edge">
<title>30064771202&#45;&gt;124554051607</title>
<path fill="none" stroke="black" d="M662.9,-197.83C645.06,-192.33 625.73,-186.2 608,-180.25 592.73,-175.12 481.79,-143.34 471.75,-130.75 453.99,-108.48 452.17,-75.2 453.79,-51.08"/>
<polygon fill="black" stroke="black" points="457.27,-51.52 454.71,-41.24 450.3,-50.87 457.27,-51.52"/>
<text xml:space="preserve" text-anchor="middle" x="535.88" y="-105.58" font-family="Times,serif" font-size="14.00">DDG: ch is not None</text>
</g>
<!-- 30064771202&#45;&gt;124554051607 -->
<g id="edge11" class="edge">
<title>30064771202&#45;&gt;124554051607</title>
<path fill="none" stroke="black" d="M703.55,-197.81C683.52,-180.97 654.36,-155.39 631.25,-130.75 615.94,-114.42 617.39,-105.35 600,-91.25 576.22,-71.97 546.29,-56.14 520.05,-44.39"/>
<polygon fill="black" stroke="black" points="521.77,-41.32 511.21,-40.54 518.98,-47.74 521.77,-41.32"/>
<text xml:space="preserve" text-anchor="middle" x="742.62" y="-113.45" font-family="Times,serif" font-size="14.00">DDG: ch is not None and tmp1 = ch</text>
<text xml:space="preserve" text-anchor="middle" x="742.62" y="-97.7" font-family="Times,serif" font-size="14.00">&#39;0&#39; &lt;= tmp1 and tmp1 &lt;= &#39;9&#39;</text>
</g>
<!-- 30064771202&#45;&gt;141733920787 -->
<g id="edge13" class="edge">
<title>30064771202&#45;&gt;141733920787</title>
<path fill="none" stroke="black" d="M778.4,-197.86C825.76,-180.23 896.15,-154.02 946.69,-135.2"/>
<polygon fill="black" stroke="black" points="947.91,-138.48 956.06,-131.71 945.47,-131.92 947.91,-138.48"/>
<text xml:space="preserve" text-anchor="middle" x="1021.11" y="-166.95" font-family="Times,serif" font-size="14.00">DDG: ch is not None and tmp1 = ch</text>
<text xml:space="preserve" text-anchor="middle" x="1021.11" y="-151.2" font-family="Times,serif" font-size="14.00">&#39;0&#39; &lt;= tmp1 and tmp1 &lt;= &#39;9&#39;</text>
</g>
<!-- 30064771197&#45;&gt;124554051607 -->
<g id="edge2" class="edge">
<title>30064771197&#45;&gt;124554051607</title>
<path fill="none" stroke="black" d="M807.88,-654.21C813.7,-648.73 819.8,-642.58 825,-636.5 984.35,-449.87 1006.36,-388.62 1136,-180.25 1157.91,-145.04 1191.77,-122.04 1164,-91.25 1122.47,-45.2 709.52,-27.98 535.1,-22.72"/>
<polygon fill="black" stroke="black" points="535.33,-19.23 525.23,-22.43 535.12,-26.22 535.33,-19.23"/>
<text xml:space="preserve" text-anchor="middle" x="1058.26" y="-349.45" font-family="Times,serif" font-size="14.00">DDG: ch</text>
</g>
<!-- 30064771197&#45;&gt;30064771202 -->
<g id="edge14" class="edge">
<title>30064771197&#45;&gt;30064771202</title>
<path fill="none" stroke="black" d="M773.76,-654.24C763.67,-636.72 751,-609.63 751,-584 751,-584 751,-584 751,-308.25 751,-287.85 745.08,-265.7 739.12,-248.57"/>
<polygon fill="black" stroke="black" points="742.53,-247.69 735.78,-239.52 735.96,-250.11 742.53,-247.69"/>
<text xml:space="preserve" text-anchor="middle" x="774.62" y="-440.7" font-family="Times,serif" font-size="14.00">DDG: ch</text>
</g>
<!-- 30064771197&#45;&gt;30064771202 -->
<g id="edge15" class="edge">
<title>30064771197&#45;&gt;30064771202</title>
<path fill="none" stroke="black" d="M798.24,-654.24C808.33,-636.72 821,-609.63 821,-584 821,-584 821,-584 821,-308.25 821,-280.78 799.63,-259.22 777.27,-244.17"/>
<polygon fill="black" stroke="black" points="779.29,-241.31 768.96,-238.93 775.55,-247.23 779.29,-241.31"/>
<text xml:space="preserve" text-anchor="middle" x="851.38" y="-440.7" font-family="Times,serif" font-size="14.00">DDG: None</text>
</g>
<!-- 30064771197&#45;&gt;30064771198 -->
<g id="edge19" class="edge">
<title>30064771197&#45;&gt;30064771198</title>
<path fill="none" stroke="black" d="M861.77,-669C943.43,-663.66 1067.67,-653.13 1112,-636.5 1123.51,-632.18 1123.98,-626.69 1134.75,-620.75 1143.05,-616.17 1152.03,-611.78 1160.96,-607.72"/>
<polygon fill="black" stroke="black" points="1162.26,-610.97 1169.99,-603.72 1159.43,-604.57 1162.26,-610.97"/>
<text xml:space="preserve" text-anchor="middle" x="1158.38" y="-623.2" font-family="Times,serif" font-size="14.00">DDG: ch</text>
</g>
<!-- 30064771197&#45;&gt;30064771198 -->
<g id="edge29" class="edge">
<title>30064771197&#45;&gt;30064771198</title>
<path fill="none" stroke="black" d="M861.91,-673.45C961.25,-672.5 1128.96,-666.32 1182,-636.5 1191.81,-630.98 1199.87,-621.87 1206.07,-612.76"/>
<polygon fill="black" stroke="black" points="1208.99,-614.7 1211.26,-604.35 1203.03,-611.02 1208.99,-614.7"/>
<text xml:space="preserve" text-anchor="middle" x="1216.24" y="-623.2" font-family="Times,serif" font-size="14.00">CDG: </text>
</g>
<!-- 30064771201 -->
<g id="node8" class="node">
<title>30064771201</title>
<polygon fill="none" stroke="black" points="506.12,-329 307.88,-329 307.88,-289.5 506.12,-289.5 506.12,-329"/>
<text xml:space="preserve" text-anchor="start" x="322.62" y="-311.7" font-family="Times,serif" font-size="14.00">&lt;operator&gt;.logicalAnd, 98</text>
<text xml:space="preserve" text-anchor="start" x="315.88" y="-295.95" font-family="Times,serif" font-size="14.00">&#39;0&#39; &lt;= tmp1 and tmp1 &lt;= &#39;9&#39;</text>
</g>
<!-- 30064771197&#45;&gt;30064771201 -->
<g id="edge28" class="edge">
<title>30064771197&#45;&gt;30064771201</title>
<path fill="none" stroke="black" d="M743.45,-654.13C717.39,-639.22 689,-615.69 689,-584 689,-584 689,-584 689,-399.5 689,-361.86 596.52,-338.06 517.48,-324.59"/>
<polygon fill="black" stroke="black" points="518.35,-321.19 507.92,-323.01 517.21,-328.1 518.35,-321.19"/>
<text xml:space="preserve" text-anchor="middle" x="705.88" y="-486.32" font-family="Times,serif" font-size="14.00">CDG: </text>
</g>
<!-- 30064771197&#45;&gt;30064771199 -->
<g id="edge30" class="edge">
<title>30064771197&#45;&gt;30064771199</title>
<path fill="none" stroke="black" d="M711.88,-654.08C699.11,-649.29 686.32,-643.48 675,-636.5 627.05,-606.94 586.75,-553.98 564.82,-521.26"/>
<polygon fill="black" stroke="black" points="567.85,-519.5 559.44,-513.06 562,-523.34 567.85,-519.5"/>
<text xml:space="preserve" text-anchor="middle" x="648.47" y="-577.58" font-family="Times,serif" font-size="14.00">CDG: </text>
</g>
<!-- 30064771198&#45;&gt;124554051607 -->
<g id="edge4" class="edge">
<title>30064771198&#45;&gt;124554051607</title>
<path fill="none" stroke="black" d="M1288.8,-562.83C1320.77,-549.23 1352,-527.15 1352,-492.75 1352,-492.75 1352,-492.75 1352,-110 1352,-53 1290.43,-70.74 1235,-57.5 1103.79,-26.15 704.15,-21.35 534.97,-20.75"/>
<polygon fill="black" stroke="black" points="535.2,-17.25 525.19,-20.72 535.18,-24.25 535.2,-17.25"/>
<text xml:space="preserve" text-anchor="middle" x="1375.62" y="-303.82" font-family="Times,serif" font-size="14.00">DDG: ch</text>
</g>
<!-- 30064771198&#45;&gt;124554051607 -->
<g id="edge5" class="edge">
<title>30064771198&#45;&gt;124554051607</title>
<path fill="none" stroke="black" d="M1221,-562.85C1221,-544.78 1221,-516.92 1221,-492.75 1221,-492.75 1221,-492.75 1221,-110 1221,-84.34 1218.23,-71.9 1197,-57.5 1143.26,-21.06 713.44,-19.26 535.11,-20.11"/>
<polygon fill="black" stroke="black" points="535.23,-16.61 525.25,-20.16 535.27,-23.61 535.23,-16.61"/>
<text xml:space="preserve" text-anchor="middle" x="1268.25" y="-303.82" font-family="Times,serif" font-size="14.00">DDG: tmp1 = ch</text>
</g>
<!-- 30064771198&#45;&gt;30064771199 -->
<g id="edge25" class="edge">
<title>30064771198&#45;&gt;30064771199</title>
<path fill="none" stroke="black" d="M1128.26,-571.02C1018.15,-557.78 828.99,-534.46 667,-511.5 666.16,-511.38 665.31,-511.26 664.47,-511.14"/>
<polygon fill="black" stroke="black" points="665.2,-507.71 654.8,-509.74 664.2,-514.64 665.2,-507.71"/>
<text xml:space="preserve" text-anchor="middle" x="940.35" y="-531.95" font-family="Times,serif" font-size="14.00">DDG: tmp1</text>
</g>
<!-- 30064771201&#45;&gt;124554051607 -->
<g id="edge7" class="edge">
<title>30064771201&#45;&gt;124554051607</title>
<path fill="none" stroke="black" d="M399.13,-289.25C387.72,-259.51 368.64,-200.04 375,-148.75 380.15,-107.24 373.22,-91.19 398,-57.5 400.85,-53.63 404.24,-50.07 407.94,-46.84"/>
<polygon fill="black" stroke="black" points="410.03,-49.64 415.83,-40.77 405.77,-44.09 410.03,-49.64"/>
<text xml:space="preserve" text-anchor="middle" x="429" y="-159.07" font-family="Times,serif" font-size="14.00">DDG: &#39;0&#39; &lt;= tmp1</text>
</g>
<!-- 30064771201&#45;&gt;124554051607 -->
<g id="edge10" class="edge">
<title>30064771201&#45;&gt;124554051607</title>
<path fill="none" stroke="black" d="M376.73,-289.03C338.66,-265.43 270.81,-225.24 209,-198.25 185.43,-187.96 169.1,-201.07 154,-180.25 145.78,-168.92 146.26,-160.41 154,-148.75 204.14,-73.24 308.49,-42.17 380.85,-29.46"/>
<polygon fill="black" stroke="black" points="381.39,-32.91 390.68,-27.82 380.24,-26.01 381.39,-32.91"/>
<text xml:space="preserve" text-anchor="middle" x="262" y="-159.07" font-family="Times,serif" font-size="14.00">DDG: &#39;0&#39; &lt;= tmp1 and tmp1 &lt;= &#39;9&#39;</text>
</g>
<!-- 30064771201&#45;&gt;30064771202 -->
<g id="edge16" class="edge">
<title>30064771201&#45;&gt;30064771202</title>
<path fill="none" stroke="black" d="M401.74,-289.24C399.9,-278.13 399.97,-264.59 408,-255.75 418.01,-244.73 475.23,-236.51 538.5,-230.67"/>
<polygon fill="black" stroke="black" points="538.8,-234.15 548.45,-229.78 538.17,-227.18 538.8,-234.15"/>
<text xml:space="preserve" text-anchor="middle" x="516" y="-258.2" font-family="Times,serif" font-size="14.00">DDG: &#39;0&#39; &lt;= tmp1 and tmp1 &lt;= &#39;9&#39;</text>
</g>
<!-- 30064771199&#45;&gt;124554051607 -->
<g id="edge6" class="edge">
<title>30064771199&#45;&gt;124554051607</title>
<path fill="none" stroke="black" d="M564.18,-471.53C600.58,-428.43 677.9,-322.59 624,-255.75 600.31,-226.37 572.08,-259.17 541,-237.75 502.12,-210.96 517.23,-181.26 483,-148.75 471.45,-137.78 460.31,-144.35 452,-130.75 437.41,-106.88 441.46,-74.37 447.6,-50.89"/>
<polygon fill="black" stroke="black" points="450.96,-51.88 450.39,-41.3 444.24,-49.92 450.96,-51.88"/>
<text xml:space="preserve" text-anchor="middle" x="664.16" y="-258.2" font-family="Times,serif" font-size="14.00">DDG: tmp1</text>
</g>
<!-- 30064771199&#45;&gt;30064771201 -->
<g id="edge21" class="edge">
<title>30064771199&#45;&gt;30064771201</title>
<path fill="none" stroke="black" d="M546.65,-471.52C545.35,-448.11 540.2,-408.27 521,-380.75 507.33,-361.16 486.29,-345.94 465.99,-334.74"/>
<polygon fill="black" stroke="black" points="467.63,-331.65 457.15,-330.11 464.39,-337.85 467.63,-331.65"/>
<text xml:space="preserve" text-anchor="middle" x="565.4" y="-395.07" font-family="Times,serif" font-size="14.00">DDG: &#39;0&#39;</text>
</g>
<!-- 30064771199&#45;&gt;30064771201 -->
<g id="edge22" class="edge">
<title>30064771199&#45;&gt;30064771201</title>
<path fill="none" stroke="black" d="M511.2,-471.53C491.96,-459.35 469.52,-441.83 456.25,-420.25 438.88,-392 457.21,-376.47 442,-347 440.39,-343.89 438.44,-340.86 436.3,-337.96"/>
<polygon fill="black" stroke="black" points="439.02,-335.77 429.91,-330.36 433.67,-340.27 439.02,-335.77"/>
<text xml:space="preserve" text-anchor="middle" x="486.62" y="-395.07" font-family="Times,serif" font-size="14.00">DDG: tmp1</text>
</g>
<!-- 30064771199&#45;&gt;30064771200 -->
<g id="edge26" class="edge">
<title>30064771199&#45;&gt;30064771200</title>
<path fill="none" stroke="black" d="M440.84,-482.97C392.83,-477.53 342.73,-468.54 324.25,-454 317.06,-448.34 312.16,-439.92 308.83,-431.47"/>
<polygon fill="black" stroke="black" points="312.18,-430.45 305.77,-422.01 305.52,-432.61 312.18,-430.45"/>
<text xml:space="preserve" text-anchor="middle" x="354.62" y="-440.7" font-family="Times,serif" font-size="14.00">DDG: tmp1</text>
</g>
<!-- 30064771199&#45;&gt;30064771200 -->
<g id="edge31" class="edge">
<title>30064771199&#45;&gt;30064771200</title>
<path fill="none" stroke="black" d="M456.63,-471.54C440.19,-466.73 423.45,-460.92 408.25,-454 396.89,-448.83 395.92,-444.3 385,-438.25 376.96,-433.8 368.28,-429.47 359.67,-425.43"/>
<polygon fill="black" stroke="black" points="361.17,-422.27 350.62,-421.3 358.26,-428.64 361.17,-422.27"/>
<text xml:space="preserve" text-anchor="middle" x="425.12" y="-440.7" font-family="Times,serif" font-size="14.00">CDG: </text>
</g>
<!-- 30064771200&#45;&gt;124554051607 -->
<g id="edge8" class="edge">
<title>30064771200&#45;&gt;124554051607</title>
<path fill="none" stroke="black" d="M195.95,-388.27C108.93,-376.02 0,-352.28 0,-310.25 0,-310.25 0,-310.25 0,-110 0,-33.33 250.4,-21.25 380.9,-20.15"/>
<polygon fill="black" stroke="black" points="380.89,-23.65 390.87,-20.09 380.84,-16.65 380.89,-23.65"/>
<text xml:space="preserve" text-anchor="middle" x="30.38" y="-212.57" font-family="Times,serif" font-size="14.00">DDG: tmp1</text>
</g>
<!-- 30064771200&#45;&gt;124554051607 -->
<g id="edge9" class="edge">
<title>30064771200&#45;&gt;124554051607</title>
<path fill="none" stroke="black" d="M195.9,-391.42C145.88,-381.19 97,-358.77 97,-310.25 97,-310.25 97,-310.25 97,-110 97,-51.99 274.88,-31.44 380.91,-24.35"/>
<polygon fill="black" stroke="black" points="380.94,-27.86 390.7,-23.72 380.49,-20.87 380.94,-27.86"/>
<text xml:space="preserve" text-anchor="middle" x="151" y="-212.57" font-family="Times,serif" font-size="14.00">DDG: tmp1 &lt;= &#39;9&#39;</text>
</g>
<!-- 30064771200&#45;&gt;30064771201 -->
<g id="edge23" class="edge">
<title>30064771200&#45;&gt;30064771201</title>
<path fill="none" stroke="black" d="M310.34,-380.45C315.83,-369.59 323.88,-356.33 334,-347 338.74,-342.63 344.11,-338.64 349.72,-335.06"/>
<polygon fill="black" stroke="black" points="351.19,-338.25 358.03,-330.16 347.64,-332.22 351.19,-338.25"/>
<text xml:space="preserve" text-anchor="middle" x="388" y="-349.45" font-family="Times,serif" font-size="14.00">DDG: tmp1 &lt;= &#39;9&#39;</text>
</g>
</g>
</svg>
