<?xml version="1.0" encoding="UTF-8" standalone="no"?>
<!DOCTYPE svg PUBLIC "-//W3C//DTD SVG 1.1//EN"
 "http://www.w3.org/Graphics/SVG/1.1/DTD/svg11.dtd">
<!-- Generated by graphviz version 13.1.2 (20250809.0930)
 -->
<!-- Title: &lt;metaClassCallHandler&gt; Pages: 1 -->
<svg width="1007pt" height="413pt"
 viewBox="0.00 0.00 1007.00 413.00" xmlns="http://www.w3.org/2000/svg" xmlns:xlink="http://www.w3.org/1999/xlink">
<g id="graph0" class="graph" transform="scale(1 1) rotate(0) translate(4 408.5)">
<title>&lt;metaClassCallHandler&gt;</title>
<polygon fill="white" stroke="none" points="-4,4 -4,-408.5 1002.5,-408.5 1002.5,4 -4,4"/>
<!-- 107374182403 -->
<g id="node1" class="node">
<title>107374182403</title>
<polygon fill="none" stroke="black" points="254,-404.5 89.5,-404.5 89.5,-365 254,-365 254,-404.5"/>
<text xml:space="preserve" text-anchor="start" x="138" y="-387.2" font-family="Times,serif" font-size="14.00">METHOD, 25</text>
<text xml:space="preserve" text-anchor="start" x="97.5" y="-371.45" font-family="Times,serif" font-size="14.00">&lt;metaClassCallHandler&gt;</text>
</g>
<!-- 111669149700 -->
<g id="node3" class="node">
<title>111669149700</title>
<polygon fill="none" stroke="black" points="113.12,-313.25 36.38,-313.25 36.38,-273.75 113.12,-273.75 113.12,-313.25"/>
<text xml:space="preserve" text-anchor="start" x="44.38" y="-295.95" font-family="Times,serif" font-size="14.00">PARAM, 25</text>
<text xml:space="preserve" text-anchor="start" x="51.12" y="-280.2" font-family="Times,serif" font-size="14.00">message</text>
</g>
<!-- 107374182403&#45;&gt;111669149700 -->
<g id="edge5" class="edge">
<title>107374182403&#45;&gt;111669149700</title>
<path fill="none" stroke="black" d="M151.18,-364.82C137.38,-352.13 119.02,-335.23 103.74,-321.18"/>
<polygon fill="black" stroke="black" points="106.47,-318.93 96.74,-314.73 101.73,-324.08 106.47,-318.93"/>
<text xml:space="preserve" text-anchor="middle" x="145.93" y="-333.7" font-family="Times,serif" font-size="14.00">DDG: </text>
</g>
<!-- 111669149701 -->
<g id="node4" class="node">
<title>111669149701</title>
<polygon fill="none" stroke="black" points="210.12,-313.25 133.38,-313.25 133.38,-273.75 210.12,-273.75 210.12,-313.25"/>
<text xml:space="preserve" text-anchor="start" x="141.38" y="-295.95" font-family="Times,serif" font-size="14.00">PARAM, 25</text>
<text xml:space="preserve" text-anchor="start" x="161.62" y="-280.2" font-family="Times,serif" font-size="14.00">pos</text>
</g>
<!-- 107374182403&#45;&gt;111669149701 -->
<g id="edge6" class="edge">
<title>107374182403&#45;&gt;111669149701</title>
<path fill="none" stroke="black" d="M171.75,-364.82C171.75,-353.3 171.75,-338.32 171.75,-325.15"/>
<polygon fill="black" stroke="black" points="175.25,-325.22 171.75,-315.22 168.25,-325.22 175.25,-325.22"/>
<text xml:space="preserve" text-anchor="middle" x="188.62" y="-333.7" font-family="Times,serif" font-size="14.00">DDG: </text>
</g>
<!-- 30064771098 -->
<g id="node6" class="node">
<title>30064771098</title>
<polygon fill="none" stroke="black" points="353.5,-222 0,-222 0,-182.5 353.5,-182.5 353.5,-222"/>
<text xml:space="preserve" text-anchor="start" x="163.25" y="-204.7" font-family="Times,serif" font-size="14.00">, 25</text>
<text xml:space="preserve" text-anchor="start" x="8" y="-188.95" font-family="Times,serif" font-size="14.00">class JSONParseError&lt;meta&gt;(...).&lt;fakeNew&gt;(messa...</text>
</g>
<!-- 107374182403&#45;&gt;30064771098 -->
<g id="edge8" class="edge">
<title>107374182403&#45;&gt;30064771098</title>
<path fill="none" stroke="black" d="M195.27,-364.89C200.67,-359.59 205.94,-353.49 209.75,-347 215.52,-337.18 230.6,-266.04 231.75,-255.75 232.53,-248.79 235.05,-246.17 231.75,-240 229.85,-236.45 227.44,-233.18 224.7,-230.19"/>
<polygon fill="black" stroke="black" points="227.08,-227.62 217.33,-223.48 222.37,-232.8 227.08,-227.62"/>
<text xml:space="preserve" text-anchor="middle" x="245.17" y="-288.07" font-family="Times,serif" font-size="14.00">DDG: </text>
</g>
<!-- 124554051587 -->
<g id="node2" class="node">
<title>124554051587</title>
<polygon fill="none" stroke="black" points="313,-39.5 40.5,-39.5 40.5,0 313,0 313,-39.5"/>
<text xml:space="preserve" text-anchor="start" x="119.38" y="-22.2" font-family="Times,serif" font-size="14.00">METHOD_RETURN, 25</text>
<text xml:space="preserve" text-anchor="start" x="48.5" y="-6.45" font-family="Times,serif" font-size="14.00">json_parser.py:&lt;module&gt;.JSONParseError</text>
</g>
<!-- 111669149700&#45;&gt;30064771098 -->
<g id="edge9" class="edge">
<title>111669149700&#45;&gt;30064771098</title>
<path fill="none" stroke="black" d="M75.76,-273.32C77.25,-262.42 80.75,-249.17 88.75,-240 92.53,-235.67 96.91,-231.84 101.65,-228.45"/>
<polygon fill="black" stroke="black" points="103.27,-231.56 109.87,-223.27 99.54,-225.64 103.27,-231.56"/>
<text xml:space="preserve" text-anchor="middle" x="129.25" y="-242.45" font-family="Times,serif" font-size="14.00">DDG: message</text>
</g>
<!-- 111669149701&#45;&gt;30064771098 -->
<g id="edge10" class="edge">
<title>111669149701&#45;&gt;30064771098</title>
<path fill="none" stroke="black" d="M172.81,-273.57C173.46,-262.05 174.29,-247.07 175.03,-233.9"/>
<polygon fill="black" stroke="black" points="178.52,-234.15 175.59,-223.97 171.54,-233.76 178.52,-234.15"/>
<text xml:space="preserve" text-anchor="middle" x="201.55" y="-242.45" font-family="Times,serif" font-size="14.00">DDG: pos</text>
</g>
<!-- 141733920768 -->
<g id="node5" class="node">
<title>141733920768</title>
<polygon fill="none" stroke="black" points="998.5,-130.75 645,-130.75 645,-91.25 998.5,-91.25 998.5,-130.75"/>
<text xml:space="preserve" text-anchor="start" x="788" y="-113.45" font-family="Times,serif" font-size="14.00">RETURN, 25</text>
<text xml:space="preserve" text-anchor="start" x="653" y="-97.7" font-family="Times,serif" font-size="14.00">return class JSONParseError&lt;meta&gt;(...).&lt;fakeNew...</text>
</g>
<!-- 141733920768&#45;&gt;124554051587 -->
<g id="edge1" class="edge">
<title>141733920768&#45;&gt;124554051587</title>
<path fill="none" stroke="black" d="M682.99,-90.8C577.41,-76.19 432.4,-56.12 324.64,-41.21"/>
<polygon fill="black" stroke="black" points="325.22,-37.76 314.84,-39.86 324.26,-44.7 325.22,-37.76"/>
<text xml:space="preserve" text-anchor="middle" x="571.62" y="-59.95" font-family="Times,serif" font-size="14.00">DDG: &lt;RET&gt;</text>
</g>
<!-- 30064771098&#45;&gt;124554051587 -->
<g id="edge2" class="edge">
<title>30064771098&#45;&gt;124554051587</title>
<path fill="none" stroke="black" d="M97.34,-182.06C70.89,-171.48 44.25,-155.3 28.75,-130.75 4.47,-92.29 52.72,-62.64 100.48,-43.86"/>
<polygon fill="black" stroke="black" points="101.42,-47.25 109.54,-40.44 98.95,-40.7 101.42,-47.25"/>
<text xml:space="preserve" text-anchor="middle" x="69.25" y="-105.58" font-family="Times,serif" font-size="14.00">DDG: message</text>
</g>
<!-- 30064771098&#45;&gt;124554051587 -->
<g id="edge3" class="edge">
<title>30064771098&#45;&gt;124554051587</title>
<path fill="none" stroke="black" d="M165.79,-182.23C158.51,-168.44 149.6,-149.07 145.75,-130.75 142.14,-113.57 142.14,-108.43 145.75,-91.25 148.73,-77.08 154.73,-62.29 160.67,-49.93"/>
<polygon fill="black" stroke="black" points="163.73,-51.63 165.11,-41.13 157.48,-48.48 163.73,-51.63"/>
<text xml:space="preserve" text-anchor="middle" x="172.75" y="-105.58" font-family="Times,serif" font-size="14.00">DDG: pos</text>
</g>
<!-- 30064771098&#45;&gt;124554051587 -->
<g id="edge4" class="edge">
<title>30064771098&#45;&gt;124554051587</title>
<path fill="none" stroke="black" d="M184.78,-182.21C190.21,-168.24 196.9,-148.68 199.75,-130.75 202.51,-113.41 202.51,-108.59 199.75,-91.25 197.57,-77.52 193.14,-62.84 188.74,-50.44"/>
<polygon fill="black" stroke="black" points="192.07,-49.37 185.31,-41.21 185.51,-51.81 192.07,-49.37"/>
<text xml:space="preserve" text-anchor="middle" x="404.32" y="-105.58" font-family="Times,serif" font-size="14.00">DDG: class JSONParseError&lt;meta&gt;(...).&lt;fakeNew&gt;(message, pos)</text>
</g>
<!-- 30064771098&#45;&gt;141733920768 -->
<g id="edge7" class="edge">
<title>30064771098&#45;&gt;141733920768</title>
<path fill="none" stroke="black" d="M315.51,-182.05C420.29,-167.55 563.89,-147.68 671.39,-132.81"/>
<polygon fill="black" stroke="black" points="671.74,-136.29 681.17,-131.45 670.78,-129.36 671.74,-136.29"/>
<text xml:space="preserve" text-anchor="middle" x="740.37" y="-151.2" font-family="Times,serif" font-size="14.00">DDG: class JSONParseError&lt;meta&gt;(...).&lt;fakeNew&gt;(message, pos)</text>
</g>
</g>
</svg>
