<?xml version="1.0" encoding="UTF-8" standalone="no"?>
<!DOCTYPE svg PUBLIC "-//W3C//DTD SVG 1.1//EN"
 "http://www.w3.org/Graphics/SVG/1.1/DTD/svg11.dtd">
<!-- Generated by graphviz version 13.1.2 (20250809.0930)
 -->
<!-- Title: &lt;body&gt; Pages: 1 -->
<svg width="1248pt" height="230pt"
 viewBox="0.00 0.00 1248.00 230.00" xmlns="http://www.w3.org/2000/svg" xmlns:xlink="http://www.w3.org/1999/xlink">
<g id="graph0" class="graph" transform="scale(1 1) rotate(0) translate(4 226)">
<title>&lt;body&gt;</title>
<polygon fill="white" stroke="none" points="-4,4 -4,-226 1244.18,-226 1244.18,4 -4,4"/>
<!-- 107374182432 -->
<g id="node1" class="node">
<title>107374182432</title>
<polygon fill="none" stroke="black" points="519.88,-222 429.62,-222 429.62,-182.5 519.88,-182.5 519.88,-222"/>
<text xml:space="preserve" text-anchor="start" x="437.62" y="-204.7" font-family="Times,serif" font-size="14.00">METHOD, 343</text>
<text xml:space="preserve" text-anchor="start" x="454.5" y="-188.95" font-family="Times,serif" font-size="14.00">&lt;body&gt;</text>
</g>
<!-- 111669149746 -->
<g id="node3" class="node">
<title>111669149746</title>
<polygon fill="none" stroke="black" points="83.5,-130.75 0,-130.75 0,-91.25 83.5,-91.25 83.5,-130.75"/>
<text xml:space="preserve" text-anchor="start" x="8" y="-113.45" font-family="Times,serif" font-size="14.00">PARAM, 343</text>
<text xml:space="preserve" text-anchor="start" x="31.62" y="-97.7" font-family="Times,serif" font-size="14.00">cls</text>
</g>
<!-- 107374182432&#45;&gt;111669149746 -->
<g id="edge10" class="edge">
<title>107374182432&#45;&gt;111669149746</title>
<path fill="none" stroke="black" d="M429.15,-194.09C358.99,-182.72 220.55,-158.94 104.75,-130.75 101.47,-129.95 98.11,-129.09 94.74,-128.19"/>
<polygon fill="black" stroke="black" points="95.98,-124.9 85.41,-125.6 94.11,-131.65 95.98,-124.9"/>
<text xml:space="preserve" text-anchor="middle" x="273.28" y="-151.2" font-family="Times,serif" font-size="14.00">DDG: </text>
</g>
<!-- 30064771592 -->
<g id="node4" class="node">
<title>30064771592</title>
<polygon fill="none" stroke="black" points="319.25,-130.75 114.25,-130.75 114.25,-91.25 319.25,-91.25 319.25,-130.75"/>
<text xml:space="preserve" text-anchor="start" x="129" y="-113.45" font-family="Times,serif" font-size="14.00">&lt;operator&gt;.assignment, 344</text>
<text xml:space="preserve" text-anchor="start" x="122.25" y="-97.7" font-family="Times,serif" font-size="14.00">__init__ = def __init__(...)</text>
</g>
<!-- 107374182432&#45;&gt;30064771592 -->
<g id="edge11" class="edge">
<title>107374182432&#45;&gt;30064771592</title>
<path fill="none" stroke="black" d="M429.22,-185.5C388.64,-171.46 328.75,-150.74 282.89,-134.88"/>
<polygon fill="black" stroke="black" points="284.17,-131.62 273.58,-131.66 281.88,-138.23 284.17,-131.62"/>
<text xml:space="preserve" text-anchor="middle" x="378.07" y="-151.2" font-family="Times,serif" font-size="14.00">DDG: </text>
</g>
<!-- 30064771598 -->
<g id="node5" class="node">
<title>30064771598</title>
<polygon fill="none" stroke="black" points="570.5,-130.75 379,-130.75 379,-91.25 570.5,-91.25 570.5,-130.75"/>
<text xml:space="preserve" text-anchor="start" x="387" y="-113.45" font-family="Times,serif" font-size="14.00">&lt;operator&gt;.assignment, 349</text>
<text xml:space="preserve" text-anchor="start" x="420.75" y="-97.7" font-family="Times,serif" font-size="14.00">ok = def ok(...)</text>
</g>
<!-- 107374182432&#45;&gt;30064771598 -->
<g id="edge12" class="edge">
<title>107374182432&#45;&gt;30064771598</title>
<path fill="none" stroke="black" d="M474.75,-182.32C474.75,-170.8 474.75,-155.82 474.75,-142.65"/>
<polygon fill="black" stroke="black" points="478.25,-142.72 474.75,-132.72 471.25,-142.72 478.25,-142.72"/>
<text xml:space="preserve" text-anchor="middle" x="491.62" y="-151.2" font-family="Times,serif" font-size="14.00">DDG: </text>
</g>
<!-- 30064771610 -->
<g id="node6" class="node">
<title>30064771610</title>
<polygon fill="none" stroke="black" points="793.5,-130.75 602,-130.75 602,-91.25 793.5,-91.25 793.5,-130.75"/>
<text xml:space="preserve" text-anchor="start" x="610" y="-113.45" font-family="Times,serif" font-size="14.00">&lt;operator&gt;.assignment, 353</text>
<text xml:space="preserve" text-anchor="start" x="630.25" y="-97.7" font-family="Times,serif" font-size="14.00">fail = def fail(...)</text>
</g>
<!-- 107374182432&#45;&gt;30064771610 -->
<g id="edge13" class="edge">
<title>107374182432&#45;&gt;30064771610</title>
<path fill="none" stroke="black" d="M520.15,-183.08C554.6,-169.29 602.24,-150.23 639.5,-135.31"/>
<polygon fill="black" stroke="black" points="640.33,-138.75 648.31,-131.79 637.73,-132.25 640.33,-138.75"/>
<text xml:space="preserve" text-anchor="middle" x="616.48" y="-151.2" font-family="Times,serif" font-size="14.00">DDG: </text>
</g>
<!-- 30064771638 -->
<g id="node7" class="node">
<title>30064771638</title>
<polygon fill="none" stroke="black" points="1069.5,-130.75 878,-130.75 878,-91.25 1069.5,-91.25 1069.5,-130.75"/>
<text xml:space="preserve" text-anchor="start" x="886" y="-113.45" font-family="Times,serif" font-size="14.00">&lt;operator&gt;.assignment, 358</text>
<text xml:space="preserve" text-anchor="start" x="886" y="-97.7" font-family="Times,serif" font-size="14.00">summary = def summary(...)</text>
</g>
<!-- 107374182432&#45;&gt;30064771638 -->
<g id="edge14" class="edge">
<title>107374182432&#45;&gt;30064771638</title>
<path fill="none" stroke="black" d="M520.36,-193.09C598.2,-179.17 758.72,-150.46 866.33,-131.21"/>
<polygon fill="black" stroke="black" points="866.84,-134.68 876.07,-129.47 865.61,-127.79 866.84,-134.68"/>
<text xml:space="preserve" text-anchor="middle" x="771" y="-151.2" font-family="Times,serif" font-size="14.00">DDG: </text>
</g>
<!-- 124554051616 -->
<g id="node2" class="node">
<title>124554051616</title>
<polygon fill="none" stroke="black" points="601.5,-39.5 464,-39.5 464,0 601.5,0 601.5,-39.5"/>
<text xml:space="preserve" text-anchor="start" x="472" y="-22.2" font-family="Times,serif" font-size="14.00">METHOD_RETURN, 343</text>
<text xml:space="preserve" text-anchor="start" x="522.62" y="-6.45" font-family="Times,serif" font-size="14.00">ANY</text>
</g>
<!-- 111669149746&#45;&gt;124554051616 -->
<g id="edge1" class="edge">
<title>111669149746&#45;&gt;124554051616</title>
<path fill="none" stroke="black" d="M36.36,-90.88C34.47,-79.72 34.54,-66.18 42.75,-57.5 70.27,-28.4 321.05,-22.22 452.76,-20.99"/>
<polygon fill="black" stroke="black" points="452.48,-24.49 462.45,-20.91 452.42,-17.49 452.48,-24.49"/>
<text xml:space="preserve" text-anchor="middle" x="69.75" y="-59.95" font-family="Times,serif" font-size="14.00">DDG: cls</text>
</g>
<!-- 30064771592&#45;&gt;124554051616 -->
<g id="edge2" class="edge">
<title>30064771592&#45;&gt;124554051616</title>
<path fill="none" stroke="black" d="M123.78,-90.86C104.57,-82.86 93.72,-71.97 107,-57.5 129.81,-32.63 335.25,-24.55 452.2,-21.95"/>
<polygon fill="black" stroke="black" points="452.14,-25.46 462.07,-21.74 451.99,-18.46 452.14,-25.46"/>
<text xml:space="preserve" text-anchor="middle" x="150.88" y="-59.95" font-family="Times,serif" font-size="14.00">DDG: __init__</text>
</g>
<!-- 30064771592&#45;&gt;124554051616 -->
<g id="edge3" class="edge">
<title>30064771592&#45;&gt;124554051616</title>
<path fill="none" stroke="black" d="M217.66,-90.92C219.26,-79.49 223.26,-65.64 233,-57.5 265.3,-30.5 375.05,-22.91 452.35,-21.01"/>
<polygon fill="black" stroke="black" points="452.08,-24.51 462,-20.8 451.92,-17.52 452.08,-24.51"/>
<text xml:space="preserve" text-anchor="middle" x="344.38" y="-59.95" font-family="Times,serif" font-size="14.00">DDG: __init__ = def __init__(...)</text>
</g>
<!-- 30064771598&#45;&gt;124554051616 -->
<g id="edge4" class="edge">
<title>30064771598&#45;&gt;124554051616</title>
<path fill="none" stroke="black" d="M464.31,-90.92C460.08,-80.44 457.45,-67.57 463.5,-57.5 465.84,-53.61 468.75,-50.11 472.03,-46.96"/>
<polygon fill="black" stroke="black" points="474.09,-49.79 479.69,-40.8 469.71,-44.34 474.09,-49.79"/>
<text xml:space="preserve" text-anchor="middle" x="487.12" y="-59.95" font-family="Times,serif" font-size="14.00">DDG: ok</text>
</g>
<!-- 30064771598&#45;&gt;124554051616 -->
<g id="edge5" class="edge">
<title>30064771598&#45;&gt;124554051616</title>
<path fill="none" stroke="black" d="M496.05,-90.99C501.3,-85.61 506.6,-79.5 510.75,-73.25 515.43,-66.2 519.44,-57.99 522.71,-50.19"/>
<polygon fill="black" stroke="black" points="525.92,-51.59 526.27,-41 519.39,-49.06 525.92,-51.59"/>
<text xml:space="preserve" text-anchor="middle" x="589.97" y="-59.95" font-family="Times,serif" font-size="14.00">DDG: ok = def ok(...)</text>
</g>
<!-- 30064771610&#45;&gt;124554051616 -->
<g id="edge6" class="edge">
<title>30064771610&#45;&gt;124554051616</title>
<path fill="none" stroke="black" d="M690.04,-90.96C684.56,-79.69 676.14,-65.99 664.75,-57.5 649.6,-46.2 631.13,-38.38 612.87,-32.96"/>
<polygon fill="black" stroke="black" points="613.9,-29.61 603.33,-30.36 612.06,-36.36 613.9,-29.61"/>
<text xml:space="preserve" text-anchor="middle" x="709.1" y="-59.95" font-family="Times,serif" font-size="14.00">DDG: fail</text>
</g>
<!-- 30064771610&#45;&gt;124554051616 -->
<g id="edge7" class="edge">
<title>30064771610&#45;&gt;124554051616</title>
<path fill="none" stroke="black" d="M730.51,-90.96C743.43,-81.07 753.19,-68.72 743.75,-57.5 727,-37.58 665.48,-28.46 613.16,-24.28"/>
<polygon fill="black" stroke="black" points="613.56,-20.8 603.32,-23.55 613.04,-27.78 613.56,-20.8"/>
<text xml:space="preserve" text-anchor="middle" x="831.87" y="-59.95" font-family="Times,serif" font-size="14.00">DDG: fail = def fail(...)</text>
</g>
<!-- 30064771638&#45;&gt;124554051616 -->
<g id="edge8" class="edge">
<title>30064771638&#45;&gt;124554051616</title>
<path fill="none" stroke="black" d="M959.7,-90.87C949.91,-79.1 935.77,-64.91 919.75,-57.5 867.01,-33.12 710.15,-24.91 613.08,-22.15"/>
<polygon fill="black" stroke="black" points="613.45,-18.66 603.36,-21.89 613.26,-25.65 613.45,-18.66"/>
<text xml:space="preserve" text-anchor="middle" x="982.28" y="-59.95" font-family="Times,serif" font-size="14.00">DDG: summary</text>
</g>
<!-- 30064771638&#45;&gt;124554051616 -->
<g id="edge9" class="edge">
<title>30064771638&#45;&gt;124554051616</title>
<path fill="none" stroke="black" d="M1011.68,-90.94C1026.34,-81.14 1037.32,-68.89 1026.75,-57.5 999.26,-27.89 746,-21.95 613.19,-20.88"/>
<polygon fill="black" stroke="black" points="613.43,-17.38 603.41,-20.81 613.38,-24.38 613.43,-17.38"/>
<text xml:space="preserve" text-anchor="middle" x="1135.56" y="-59.95" font-family="Times,serif" font-size="14.00">DDG: summary = def summary(...)</text>
</g>
</g>
</svg>
