<?xml version="1.0" encoding="UTF-8" standalone="no"?>
<!DOCTYPE svg PUBLIC "-//W3C//DTD SVG 1.1//EN"
 "http://www.w3.org/Graphics/SVG/1.1/DTD/svg11.dtd">
<!-- Generated by graphviz version 13.1.2 (20250809.0930)
 -->
<!-- Title: fail Pages: 1 -->
<svg width="1980pt" height="635pt"
 viewBox="0.00 0.00 1980.00 635.00" xmlns="http://www.w3.org/2000/svg" xmlns:xlink="http://www.w3.org/1999/xlink">
<g id="graph0" class="graph" transform="scale(1 1) rotate(0) translate(4 630.5)">
<title>fail</title>
<polygon fill="white" stroke="none" points="-4,4 -4,-630.5 1976.22,-630.5 1976.22,4 -4,4"/>
<!-- 107374182435 -->
<g id="node1" class="node">
<title>107374182435</title>
<polygon fill="none" stroke="black" points="1290.06,-626.5 1199.81,-626.5 1199.81,-587 1290.06,-587 1290.06,-626.5"/>
<text xml:space="preserve" text-anchor="start" x="1207.81" y="-609.2" font-family="Times,serif" font-size="14.00">METHOD, 353</text>
<text xml:space="preserve" text-anchor="start" x="1231.43" y="-593.45" font-family="Times,serif" font-size="14.00">fail</text>
</g>
<!-- 111669149750 -->
<g id="node3" class="node">
<title>111669149750</title>
<polygon fill="none" stroke="black" points="551.68,-337 468.18,-337 468.18,-297.5 551.68,-297.5 551.68,-337"/>
<text xml:space="preserve" text-anchor="start" x="476.18" y="-319.7" font-family="Times,serif" font-size="14.00">PARAM, 353</text>
<text xml:space="preserve" text-anchor="start" x="496.43" y="-303.95" font-family="Times,serif" font-size="14.00">self</text>
</g>
<!-- 107374182435&#45;&gt;111669149750 -->
<g id="edge15" class="edge">
<title>107374182435&#45;&gt;111669149750</title>
<path fill="none" stroke="black" d="M1199.51,-605.44C1068.3,-604.2 695.06,-598.12 648.93,-569 568.35,-518.13 530.55,-403.1 516.62,-348.33"/>
<polygon fill="black" stroke="black" points="520.06,-347.66 514.29,-338.77 513.25,-349.31 520.06,-347.66"/>
<text xml:space="preserve" text-anchor="middle" x="575.46" y="-448.7" font-family="Times,serif" font-size="14.00">DDG: </text>
</g>
<!-- 111669149751 -->
<g id="node4" class="node">
<title>111669149751</title>
<polygon fill="none" stroke="black" points="812.68,-527.38 729.18,-527.38 729.18,-487.88 812.68,-487.88 812.68,-527.38"/>
<text xml:space="preserve" text-anchor="start" x="737.18" y="-510.07" font-family="Times,serif" font-size="14.00">PARAM, 353</text>
<text xml:space="preserve" text-anchor="start" x="757.43" y="-494.32" font-family="Times,serif" font-size="14.00">name</text>
</g>
<!-- 107374182435&#45;&gt;111669149751 -->
<g id="edge16" class="edge">
<title>107374182435&#45;&gt;111669149751</title>
<path fill="none" stroke="black" d="M1199.34,-602.88C1120.57,-596.88 954.65,-579.7 821.93,-535.25 819.41,-534.41 816.87,-533.45 814.33,-532.42"/>
<polygon fill="black" stroke="black" points="815.95,-529.31 805.39,-528.42 813.09,-535.7 815.95,-529.31"/>
<text xml:space="preserve" text-anchor="middle" x="963.79" y="-555.7" font-family="Times,serif" font-size="14.00">DDG: </text>
</g>
<!-- 111669149752 -->
<g id="node5" class="node">
<title>111669149752</title>
<polygon fill="none" stroke="black" points="1286.68,-527.38 1203.18,-527.38 1203.18,-487.88 1286.68,-487.88 1286.68,-527.38"/>
<text xml:space="preserve" text-anchor="start" x="1211.18" y="-510.07" font-family="Times,serif" font-size="14.00">PARAM, 353</text>
<text xml:space="preserve" text-anchor="start" x="1224.68" y="-494.32" font-family="Times,serif" font-size="14.00">reason</text>
</g>
<!-- 107374182435&#45;&gt;111669149752 -->
<g id="edge17" class="edge">
<title>107374182435&#45;&gt;111669149752</title>
<path fill="none" stroke="black" d="M1244.93,-586.56C1244.93,-572.99 1244.93,-554.52 1244.93,-538.97"/>
<polygon fill="black" stroke="black" points="1248.43,-539.29 1244.93,-529.29 1241.43,-539.29 1248.43,-539.29"/>
<text xml:space="preserve" text-anchor="middle" x="1261.81" y="-555.7" font-family="Times,serif" font-size="14.00">DDG: </text>
</g>
<!-- 30064771600 -->
<g id="node6" class="node">
<title>30064771600</title>
<polygon fill="none" stroke="black" points="535.18,-188.25 316.68,-188.25 316.68,-148.75 535.18,-148.75 535.18,-188.25"/>
<text xml:space="preserve" text-anchor="start" x="324.68" y="-170.95" font-family="Times,serif" font-size="14.00">&lt;operator&gt;.assignmentPlus, 354</text>
<text xml:space="preserve" text-anchor="start" x="371.93" y="-155.2" font-family="Times,serif" font-size="14.00">self.failed += 1</text>
</g>
<!-- 107374182435&#45;&gt;30064771600 -->
<g id="edge18" class="edge">
<title>107374182435&#45;&gt;30064771600</title>
<path fill="none" stroke="black" d="M1199.56,-605.51C1073.91,-604.45 727.95,-598.85 686.93,-569 663.58,-552.01 662.93,-537.5 662.93,-508.62 662.93,-508.62 662.93,-508.62 662.93,-270.62 662.93,-238.15 586.72,-209.99 520.73,-191.69"/>
<polygon fill="black" stroke="black" points="521.85,-188.37 511.28,-189.13 520.02,-195.12 521.85,-188.37"/>
<text xml:space="preserve" text-anchor="middle" x="679.81" y="-403.07" font-family="Times,serif" font-size="14.00">DDG: </text>
</g>
<!-- 25769803883 -->
<g id="node7" class="node">
<title>25769803883</title>
<polygon fill="none" stroke="black" points="1184.68,-527.38 831.18,-527.38 831.18,-487.88 1184.68,-487.88 1184.68,-527.38"/>
<text xml:space="preserve" text-anchor="start" x="974.18" y="-510.07" font-family="Times,serif" font-size="14.00">BLOCK, 355</text>
<text xml:space="preserve" text-anchor="start" x="839.18" y="-494.32" font-family="Times,serif" font-size="14.00">tmp10 = self.errors self.errors.append((name,re...</text>
</g>
<!-- 107374182435&#45;&gt;25769803883 -->
<g id="edge19" class="edge">
<title>107374182435&#45;&gt;25769803883</title>
<path fill="none" stroke="black" d="M1199.52,-587.14C1161.31,-571.48 1106.47,-549.01 1065.25,-532.11"/>
<polygon fill="black" stroke="black" points="1066.8,-528.97 1056.22,-528.41 1064.14,-535.44 1066.8,-528.97"/>
<text xml:space="preserve" text-anchor="middle" x="1171.5" y="-555.7" font-family="Times,serif" font-size="14.00">DDG: </text>
</g>
<!-- 30064771605 -->
<g id="node10" class="node">
<title>30064771605</title>
<polygon fill="none" stroke="black" points="1085.31,-130.75 846.56,-130.75 846.56,-91.25 1085.31,-91.25 1085.31,-130.75"/>
<text xml:space="preserve" text-anchor="start" x="928.81" y="-113.45" font-family="Times,serif" font-size="14.00">append, 355</text>
<text xml:space="preserve" text-anchor="start" x="854.56" y="-97.7" font-family="Times,serif" font-size="14.00">self.errors.append((name,reason))</text>
</g>
<!-- 107374182435&#45;&gt;30064771605 -->
<g id="edge28" class="edge">
<title>107374182435&#45;&gt;30064771605</title>
<path fill="none" stroke="black" d="M1199.67,-603.15C1077.85,-595.68 750.17,-572.3 719.93,-535.25 704.41,-516.23 719.4,-504.55 719.93,-480 721.04,-428.35 724.93,-415.53 724.93,-363.88 724.93,-363.88 724.93,-363.88 724.93,-225 724.93,-169.21 778.52,-140.91 835.16,-126.58"/>
<polygon fill="black" stroke="black" points="835.74,-130.04 844.67,-124.33 834.13,-123.23 835.74,-130.04"/>
<text xml:space="preserve" text-anchor="middle" x="741.81" y="-357.45" font-family="Times,serif" font-size="14.00">DDG: </text>
</g>
<!-- 68719477238 -->
<g id="node11" class="node">
<title>68719477238</title>
<polygon fill="none" stroke="black" points="1536.93,-535.25 1304.93,-535.25 1304.93,-480 1536.93,-480 1536.93,-535.25"/>
<text xml:space="preserve" text-anchor="start" x="1370.31" y="-517.95" font-family="Times,serif" font-size="14.00">IDENTIFIER, 356</text>
<text xml:space="preserve" text-anchor="start" x="1404.06" y="-502.2" font-family="Times,serif" font-size="14.00">print</text>
<text xml:space="preserve" text-anchor="start" x="1312.93" y="-486.45" font-family="Times,serif" font-size="14.00">print(f&quot; FAIL {name}: {reason}&quot;)</text>
</g>
<!-- 107374182435&#45;&gt;68719477238 -->
<g id="edge22" class="edge">
<title>107374182435&#45;&gt;68719477238</title>
<path fill="none" stroke="black" d="M1279.7,-586.56C1303.17,-573.61 1334.72,-556.2 1362.05,-541.12"/>
<polygon fill="black" stroke="black" points="1363.52,-544.31 1370.58,-536.41 1360.14,-538.18 1363.52,-544.31"/>
<text xml:space="preserve" text-anchor="middle" x="1355.08" y="-555.7" font-family="Times,serif" font-size="14.00">DDG: </text>
</g>
<!-- 30064771608 -->
<g id="node12" class="node">
<title>30064771608</title>
<polygon fill="none" stroke="black" points="1589.43,-245.75 1384.43,-245.75 1384.43,-206.25 1589.43,-206.25 1589.43,-245.75"/>
<text xml:space="preserve" text-anchor="start" x="1392.43" y="-228.45" font-family="Times,serif" font-size="14.00">&lt;operator&gt;.formatString, 356</text>
<text xml:space="preserve" text-anchor="start" x="1402.56" y="-212.7" font-family="Times,serif" font-size="14.00">f&quot; FAIL {name}: {reason}&quot;</text>
</g>
<!-- 107374182435&#45;&gt;30064771608 -->
<g id="edge31" class="edge">
<title>107374182435&#45;&gt;30064771608</title>
<path fill="none" stroke="black" d="M1290.24,-606.05C1409.3,-605.63 1721.93,-596.2 1721.93,-508.62 1721.93,-508.62 1721.93,-508.62 1721.93,-316.25 1721.93,-287.23 1658.49,-264.27 1597.53,-248.91"/>
<polygon fill="black" stroke="black" points="1598.61,-245.57 1588.06,-246.58 1596.94,-252.37 1598.61,-245.57"/>
<text xml:space="preserve" text-anchor="middle" x="1738.81" y="-403.07" font-family="Times,serif" font-size="14.00">DDG: </text>
</g>
<!-- 30064771601 -->
<g id="node13" class="node">
<title>30064771601</title>
<polygon fill="none" stroke="black" points="1335.43,-428.25 1130.43,-428.25 1130.43,-388.75 1335.43,-388.75 1335.43,-428.25"/>
<text xml:space="preserve" text-anchor="start" x="1138.43" y="-410.95" font-family="Times,serif" font-size="14.00">&lt;operator&gt;.tupleLiteral, 355</text>
<text xml:space="preserve" text-anchor="start" x="1185.68" y="-395.2" font-family="Times,serif" font-size="14.00">(name, reason)</text>
</g>
<!-- 107374182435&#45;&gt;30064771601 -->
<g id="edge35" class="edge">
<title>107374182435&#45;&gt;30064771601</title>
<path fill="none" stroke="black" d="M1290.49,-603.14C1390.93,-595.72 1617.03,-568.9 1545.93,-480 1520.97,-448.79 1425.64,-430.42 1346.68,-420.3"/>
<polygon fill="black" stroke="black" points="1347.51,-416.87 1337.16,-419.11 1346.65,-423.82 1347.51,-416.87"/>
<text xml:space="preserve" text-anchor="middle" x="1576.38" y="-502.2" font-family="Times,serif" font-size="14.00">DDG: </text>
</g>
<!-- 30064771606 -->
<g id="node14" class="node">
<title>30064771606</title>
<polygon fill="none" stroke="black" points="1342.18,-337 1123.68,-337 1123.68,-297.5 1342.18,-297.5 1342.18,-337"/>
<text xml:space="preserve" text-anchor="start" x="1131.68" y="-319.7" font-family="Times,serif" font-size="14.00">&lt;operator&gt;.formattedValue, 356</text>
<text xml:space="preserve" text-anchor="start" x="1212.68" y="-303.95" font-family="Times,serif" font-size="14.00">{name}</text>
</g>
<!-- 107374182435&#45;&gt;30064771606 -->
<g id="edge38" class="edge">
<title>107374182435&#45;&gt;30064771606</title>
<path fill="none" stroke="black" d="M1290.46,-604.34C1378.06,-600.48 1564.28,-586.32 1596.93,-535.25 1664.78,-429.14 1467.83,-364.65 1446.93,-355 1442.08,-352.76 1399.53,-345.29 1353.63,-337.67"/>
<polygon fill="black" stroke="black" points="1354.48,-334.26 1344.04,-336.08 1353.34,-341.17 1354.48,-334.26"/>
<text xml:space="preserve" text-anchor="middle" x="1620.59" y="-448.7" font-family="Times,serif" font-size="14.00">DDG: </text>
</g>
<!-- 30064771607 -->
<g id="node15" class="node">
<title>30064771607</title>
<polygon fill="none" stroke="black" points="1584.18,-337 1365.68,-337 1365.68,-297.5 1584.18,-297.5 1584.18,-337"/>
<text xml:space="preserve" text-anchor="start" x="1373.68" y="-319.7" font-family="Times,serif" font-size="14.00">&lt;operator&gt;.formattedValue, 356</text>
<text xml:space="preserve" text-anchor="start" x="1447.93" y="-303.95" font-family="Times,serif" font-size="14.00">{reason}</text>
</g>
<!-- 107374182435&#45;&gt;30064771607 -->
<g id="edge40" class="edge">
<title>107374182435&#45;&gt;30064771607</title>
<path fill="none" stroke="black" d="M1290.39,-603.68C1368.24,-599.65 1523.55,-589.29 1573.93,-569 1596.79,-559.79 1603.68,-555.36 1617.93,-535.25 1641.62,-501.82 1660.06,-482.99 1641.93,-446.25 1618.44,-398.64 1567.79,-363.83 1528.39,-342.63"/>
<polygon fill="black" stroke="black" points="1530.21,-339.63 1519.73,-338.11 1526.97,-345.84 1530.21,-339.63"/>
<text xml:space="preserve" text-anchor="middle" x="1664.51" y="-448.7" font-family="Times,serif" font-size="14.00">DDG: </text>
</g>
<!-- 124554051619 -->
<g id="node2" class="node">
<title>124554051619</title>
<polygon fill="none" stroke="black" points="1079.68,-39.5 942.18,-39.5 942.18,0 1079.68,0 1079.68,-39.5"/>
<text xml:space="preserve" text-anchor="start" x="950.18" y="-22.2" font-family="Times,serif" font-size="14.00">METHOD_RETURN, 353</text>
<text xml:space="preserve" text-anchor="start" x="1000.81" y="-6.45" font-family="Times,serif" font-size="14.00">ANY</text>
</g>
<!-- 111669149750&#45;&gt;124554051619 -->
<g id="edge1" class="edge">
<title>111669149750&#45;&gt;124554051619</title>
<path fill="none" stroke="black" d="M534.45,-297.25C541.01,-291.77 547.94,-285.62 553.93,-279.5 590.27,-242.39 598.59,-231.77 626.93,-188.25 662.67,-133.36 641,-94.67 694.93,-57.5 731.96,-31.98 849.74,-24.06 930.56,-21.67"/>
<polygon fill="black" stroke="black" points="930.29,-25.18 940.19,-21.41 930.1,-18.18 930.29,-25.18"/>
<text xml:space="preserve" text-anchor="middle" x="675.6" y="-163.07" font-family="Times,serif" font-size="14.00">DDG: self</text>
</g>
<!-- 111669149750&#45;&gt;30064771600 -->
<g id="edge20" class="edge">
<title>111669149750&#45;&gt;30064771600</title>
<path fill="none" stroke="black" d="M498.95,-297.07C484.55,-271.91 459.16,-227.54 442.44,-198.33"/>
<polygon fill="black" stroke="black" points="445.67,-196.94 437.67,-190 439.6,-200.42 445.67,-196.94"/>
<text xml:space="preserve" text-anchor="middle" x="519.06" y="-266.2" font-family="Times,serif" font-size="14.00">DDG: self</text>
</g>
<!-- 30064771603 -->
<g id="node9" class="node">
<title>30064771603</title>
<polygon fill="none" stroke="black" points="318.68,-245.75 127.18,-245.75 127.18,-206.25 318.68,-206.25 318.68,-245.75"/>
<text xml:space="preserve" text-anchor="start" x="135.18" y="-228.45" font-family="Times,serif" font-size="14.00">&lt;operator&gt;.assignment, 355</text>
<text xml:space="preserve" text-anchor="start" x="158.81" y="-212.7" font-family="Times,serif" font-size="14.00">tmp10 = self.errors</text>
</g>
<!-- 111669149750&#45;&gt;30064771603 -->
<g id="edge21" class="edge">
<title>111669149750&#45;&gt;30064771603</title>
<path fill="none" stroke="black" d="M467.7,-304.11C443.49,-297.08 412.58,-287.97 385.18,-279.5 354.46,-270.01 320.59,-259.12 291.79,-249.72"/>
<polygon fill="black" stroke="black" points="293.04,-246.45 282.45,-246.67 290.87,-253.11 293.04,-246.45"/>
<text xml:space="preserve" text-anchor="middle" x="415.56" y="-266.2" font-family="Times,serif" font-size="14.00">DDG: self</text>
</g>
<!-- 111669149751&#45;&gt;30064771601 -->
<g id="edge34" class="edge">
<title>111669149751&#45;&gt;30064771601</title>
<path fill="none" stroke="black" d="M804.02,-487.47C809.85,-484.65 815.97,-482.01 821.93,-480 919.32,-447.13 1035.1,-429.04 1118.91,-419.44"/>
<polygon fill="black" stroke="black" points="1119.21,-422.93 1128.76,-418.34 1118.43,-415.97 1119.21,-422.93"/>
<text xml:space="preserve" text-anchor="middle" x="973.74" y="-448.7" font-family="Times,serif" font-size="14.00">DDG: name</text>
</g>
<!-- 111669149752&#45;&gt;30064771601 -->
<g id="edge36" class="edge">
<title>111669149752&#45;&gt;30064771601</title>
<path fill="none" stroke="black" d="M1242.56,-487.44C1240.88,-473.87 1238.6,-455.4 1236.68,-439.84"/>
<polygon fill="black" stroke="black" points="1240.18,-439.65 1235.48,-430.15 1233.24,-440.5 1240.18,-439.65"/>
<text xml:space="preserve" text-anchor="middle" x="1276.42" y="-448.7" font-family="Times,serif" font-size="14.00">DDG: reason</text>
</g>
<!-- 30064771600&#45;&gt;124554051619 -->
<g id="edge2" class="edge">
<title>30064771600&#45;&gt;124554051619</title>
<path fill="none" stroke="black" d="M370.58,-148.37C363.57,-143.67 357.32,-137.88 352.93,-130.75 343.72,-115.8 342.39,-105.29 352.93,-91.25 387.09,-45.74 762.39,-28.45 930.41,-22.95"/>
<polygon fill="black" stroke="black" points="930.51,-26.45 940.39,-22.63 930.28,-19.46 930.51,-26.45"/>
<text xml:space="preserve" text-anchor="middle" x="406.93" y="-105.58" font-family="Times,serif" font-size="14.00">DDG: self.failed</text>
</g>
<!-- 30064771600&#45;&gt;124554051619 -->
<g id="edge3" class="edge">
<title>30064771600&#45;&gt;124554051619</title>
<path fill="none" stroke="black" d="M444.17,-148.49C449.58,-142.8 455.52,-136.54 460.93,-130.75 477.2,-113.34 476.64,-103.32 497.18,-91.25 568.89,-49.14 804.63,-31.09 930.33,-24.31"/>
<polygon fill="black" stroke="black" points="930.45,-27.81 940.26,-23.79 930.09,-20.82 930.45,-27.81"/>
<text xml:space="preserve" text-anchor="middle" x="568.06" y="-105.58" font-family="Times,serif" font-size="14.00">DDG: self.failed += 1</text>
</g>
<!-- 30064771609 -->
<g id="node8" class="node">
<title>30064771609</title>
<polygon fill="none" stroke="black" points="1777.93,-130.75 1545.93,-130.75 1545.93,-91.25 1777.93,-91.25 1777.93,-130.75"/>
<text xml:space="preserve" text-anchor="start" x="1628.18" y="-113.45" font-family="Times,serif" font-size="14.00">print, 356</text>
<text xml:space="preserve" text-anchor="start" x="1553.93" y="-97.7" font-family="Times,serif" font-size="14.00">print(f&quot; FAIL {name}: {reason}&quot;)</text>
</g>
<!-- 30064771609&#45;&gt;124554051619 -->
<g id="edge13" class="edge">
<title>30064771609&#45;&gt;124554051619</title>
<path fill="none" stroke="black" d="M1732.13,-90.87C1751.4,-82.32 1763.86,-71.08 1750.93,-57.5 1728.49,-33.91 1278.48,-24.65 1091.41,-21.8"/>
<polygon fill="black" stroke="black" points="1091.58,-18.31 1081.53,-21.66 1091.47,-25.3 1091.58,-18.31"/>
<text xml:space="preserve" text-anchor="middle" x="1864.22" y="-59.95" font-family="Times,serif" font-size="14.00">DDG: f&quot; &#160;FAIL &#160;{name}: {reason}&quot;</text>
</g>
<!-- 30064771609&#45;&gt;124554051619 -->
<g id="edge14" class="edge">
<title>30064771609&#45;&gt;124554051619</title>
<path fill="none" stroke="black" d="M1545.55,-94.69C1524.34,-89.49 1502.88,-82.55 1483.68,-73.25 1473.89,-68.51 1475,-61.63 1464.93,-57.5 1399.34,-30.56 1202.84,-23.33 1091.04,-21.42"/>
<polygon fill="black" stroke="black" points="1091.39,-17.92 1081.34,-21.26 1091.28,-24.92 1091.39,-17.92"/>
<text xml:space="preserve" text-anchor="middle" x="1615.31" y="-59.95" font-family="Times,serif" font-size="14.00">DDG: print(f&quot; &#160;FAIL &#160;{name}: {reason}&quot;)</text>
</g>
<!-- 30064771603&#45;&gt;124554051619 -->
<g id="edge4" class="edge">
<title>30064771603&#45;&gt;124554051619</title>
<path fill="none" stroke="black" d="M136.8,-205.78C61.24,-184.78 -30.6,-146.59 10.93,-91.25 43.16,-48.31 73.94,-66.18 126.93,-57.5 280.14,-32.41 742.57,-24.03 930.36,-21.61"/>
<polygon fill="black" stroke="black" points="930.32,-25.11 940.28,-21.49 930.23,-18.11 930.32,-25.11"/>
<text xml:space="preserve" text-anchor="middle" x="64.93" y="-105.58" font-family="Times,serif" font-size="14.00">DDG: self.errors</text>
</g>
<!-- 30064771603&#45;&gt;124554051619 -->
<g id="edge5" class="edge">
<title>30064771603&#45;&gt;124554051619</title>
<path fill="none" stroke="black" d="M206.67,-205.95C184.69,-177.83 151.36,-124.91 179.93,-91.25 227.93,-34.71 731.44,-23.51 930.55,-21.3"/>
<polygon fill="black" stroke="black" points="930.32,-24.8 940.28,-21.19 930.24,-17.8 930.32,-24.8"/>
<text xml:space="preserve" text-anchor="middle" x="260.93" y="-105.58" font-family="Times,serif" font-size="14.00">DDG: tmp10 = self.errors</text>
</g>
<!-- 30064771603&#45;&gt;30064771605 -->
<g id="edge27" class="edge">
<title>30064771603&#45;&gt;30064771605</title>
<path fill="none" stroke="black" d="M319.05,-222.92C397.59,-219.56 501.11,-210.84 535.93,-188.25 553.07,-177.13 542.15,-159.64 559.43,-148.75 582.53,-134.2 725.08,-123.85 834.93,-117.92"/>
<polygon fill="black" stroke="black" points="834.81,-121.43 844.61,-117.4 834.44,-114.44 834.81,-121.43"/>
<text xml:space="preserve" text-anchor="middle" x="593.18" y="-163.07" font-family="Times,serif" font-size="14.00">DDG: tmp10</text>
</g>
<!-- 30064771605&#45;&gt;124554051619 -->
<g id="edge6" class="edge">
<title>30064771605&#45;&gt;124554051619</title>
<path fill="none" stroke="black" d="M962.84,-91.14C962,-80.73 962.45,-67.85 967.43,-57.5 969.06,-54.12 971.17,-50.93 973.57,-47.95"/>
<polygon fill="black" stroke="black" points="976.06,-50.41 980.45,-40.76 971.01,-45.57 976.06,-50.41"/>
<text xml:space="preserve" text-anchor="middle" x="1001.18" y="-59.95" font-family="Times,serif" font-size="14.00">DDG: tmp10</text>
</g>
<!-- 30064771605&#45;&gt;124554051619 -->
<g id="edge7" class="edge">
<title>30064771605&#45;&gt;124554051619</title>
<path fill="none" stroke="black" d="M1017.63,-90.87C1024.52,-86.15 1030.67,-80.35 1034.93,-73.25 1039.38,-65.84 1038.11,-57.47 1034.47,-49.62"/>
<polygon fill="black" stroke="black" points="1037.48,-47.85 1029.37,-41.03 1031.46,-51.42 1037.48,-47.85"/>
<text xml:space="preserve" text-anchor="middle" x="1101.88" y="-59.95" font-family="Times,serif" font-size="14.00">DDG: (name, reason)</text>
</g>
<!-- 30064771605&#45;&gt;124554051619 -->
<g id="edge8" class="edge">
<title>30064771605&#45;&gt;124554051619</title>
<path fill="none" stroke="black" d="M846.23,-108.2C785.92,-104.48 721.57,-95.25 702.43,-73.25 697.84,-67.97 697.78,-62.73 702.43,-57.5 717.38,-40.66 844.11,-30.15 930.42,-24.88"/>
<polygon fill="black" stroke="black" points="930.5,-28.38 940.28,-24.29 930.09,-21.39 930.5,-28.38"/>
<text xml:space="preserve" text-anchor="middle" x="830.68" y="-59.95" font-family="Times,serif" font-size="14.00">DDG: self.errors.append((name,reason))</text>
</g>
<!-- 30064771608&#45;&gt;124554051619 -->
<g id="edge10" class="edge">
<title>30064771608&#45;&gt;124554051619</title>
<path fill="none" stroke="black" d="M1479.53,-205.78C1466.59,-172.98 1439.56,-108.12 1421.93,-91.25 1375.69,-47 1197.28,-30.24 1091.32,-24.11"/>
<polygon fill="black" stroke="black" points="1091.72,-20.63 1081.54,-23.57 1091.33,-27.62 1091.72,-20.63"/>
<text xml:space="preserve" text-anchor="middle" x="1483.63" y="-105.58" font-family="Times,serif" font-size="14.00">DDG: {name}</text>
</g>
<!-- 30064771608&#45;&gt;124554051619 -->
<g id="edge12" class="edge">
<title>30064771608&#45;&gt;124554051619</title>
<path fill="none" stroke="black" d="M1454.76,-205.82C1409.24,-178.65 1331.37,-132.1 1330.18,-130.75 1306.67,-104.06 1326.43,-78.79 1297.93,-57.5 1266.16,-33.76 1164.4,-25.33 1091.08,-22.35"/>
<polygon fill="black" stroke="black" points="1091.66,-18.87 1081.54,-21.99 1091.4,-25.86 1091.66,-18.87"/>
<text xml:space="preserve" text-anchor="middle" x="1374.06" y="-105.58" font-family="Times,serif" font-size="14.00">DDG: {reason}</text>
</g>
<!-- 30064771608&#45;&gt;30064771609 -->
<g id="edge23" class="edge">
<title>30064771608&#45;&gt;30064771609</title>
<path fill="none" stroke="black" d="M1589.77,-223.55C1651.94,-220.25 1722.94,-211.32 1742.93,-188.25 1754.43,-174.98 1752.44,-163.51 1742.93,-148.75 1740.34,-144.73 1737.2,-141.15 1733.67,-137.96"/>
<polygon fill="black" stroke="black" points="1736.09,-135.4 1726.02,-132.11 1731.83,-140.96 1736.09,-135.4"/>
<text xml:space="preserve" text-anchor="middle" x="1794.7" y="-163.07" font-family="Times,serif" font-size="14.00">DDG: &#160;&#160;FAIL &#160;</text>
</g>
<!-- 30064771608&#45;&gt;30064771609 -->
<g id="edge24" class="edge">
<title>30064771608&#45;&gt;30064771609</title>
<path fill="none" stroke="black" d="M1481.04,-205.84C1477.11,-188.91 1474.76,-164.52 1487.68,-148.75 1491.65,-143.91 1510.56,-138.45 1534.55,-133.25"/>
<polygon fill="black" stroke="black" points="1534.95,-136.74 1544.02,-131.27 1533.52,-129.89 1534.95,-136.74"/>
<text xml:space="preserve" text-anchor="middle" x="1524.81" y="-163.07" font-family="Times,serif" font-size="14.00">DDG: {name}</text>
</g>
<!-- 30064771608&#45;&gt;30064771609 -->
<g id="edge25" class="edge">
<title>30064771608&#45;&gt;30064771609</title>
<path fill="none" stroke="black" d="M1536.83,-205.76C1545.81,-200.9 1554.62,-195.08 1561.93,-188.25 1576.73,-174.41 1569.81,-162.5 1584.68,-148.75 1589.5,-144.29 1594.96,-140.28 1600.7,-136.69"/>
<polygon fill="black" stroke="black" points="1602.29,-139.81 1609.23,-131.8 1598.81,-133.74 1602.29,-139.81"/>
<text xml:space="preserve" text-anchor="middle" x="1608.31" y="-163.07" font-family="Times,serif" font-size="14.00">DDG: : </text>
</g>
<!-- 30064771608&#45;&gt;30064771609 -->
<g id="edge26" class="edge">
<title>30064771608&#45;&gt;30064771609</title>
<path fill="none" stroke="black" d="M1589.72,-212.01C1605.11,-206.53 1619.85,-198.89 1631.93,-188.25 1639.23,-181.83 1647.28,-160.54 1653.21,-142.08"/>
<polygon fill="black" stroke="black" points="1656.54,-143.15 1656.15,-132.56 1649.85,-141.08 1656.54,-143.15"/>
<text xml:space="preserve" text-anchor="middle" x="1694.51" y="-163.07" font-family="Times,serif" font-size="14.00">DDG: {reason}</text>
</g>
<!-- 30064771601&#45;&gt;30064771605 -->
<g id="edge29" class="edge">
<title>30064771601&#45;&gt;30064771605</title>
<path fill="none" stroke="black" d="M1191.06,-388.36C1166.99,-375.99 1137.2,-358.26 1114.93,-337 1098.31,-321.13 1019.63,-197.4 983.79,-140.48"/>
<polygon fill="black" stroke="black" points="986.92,-138.87 978.63,-132.27 980.99,-142.6 986.92,-138.87"/>
<text xml:space="preserve" text-anchor="middle" x="1103.56" y="-266.2" font-family="Times,serif" font-size="14.00">DDG: name</text>
</g>
<!-- 30064771601&#45;&gt;30064771605 -->
<g id="edge30" class="edge">
<title>30064771601&#45;&gt;30064771605</title>
<path fill="none" stroke="black" d="M1151.13,-388.31C1094.32,-370.34 1022.47,-337.31 985.68,-279.5 959.06,-237.66 959.02,-177.87 962.04,-142.2"/>
<polygon fill="black" stroke="black" points="965.49,-142.89 963,-132.59 958.52,-142.19 965.49,-142.89"/>
<text xml:space="preserve" text-anchor="middle" x="1022.81" y="-266.2" font-family="Times,serif" font-size="14.00">DDG: reason</text>
</g>
<!-- 30064771601&#45;&gt;30064771606 -->
<g id="edge37" class="edge">
<title>30064771601&#45;&gt;30064771606</title>
<path fill="none" stroke="black" d="M1232.93,-388.57C1232.93,-377.05 1232.93,-362.07 1232.93,-348.9"/>
<polygon fill="black" stroke="black" points="1236.43,-348.97 1232.93,-338.97 1229.43,-348.97 1236.43,-348.97"/>
<text xml:space="preserve" text-anchor="middle" x="1263.31" y="-357.45" font-family="Times,serif" font-size="14.00">DDG: name</text>
</g>
<!-- 30064771601&#45;&gt;30064771607 -->
<g id="edge39" class="edge">
<title>30064771601&#45;&gt;30064771607</title>
<path fill="none" stroke="black" d="M1284.85,-388.35C1322.25,-374.56 1372.9,-355.88 1412.51,-341.27"/>
<polygon fill="black" stroke="black" points="1413.51,-344.63 1421.68,-337.89 1411.09,-338.06 1413.51,-344.63"/>
<text xml:space="preserve" text-anchor="middle" x="1405.55" y="-357.45" font-family="Times,serif" font-size="14.00">DDG: reason</text>
</g>
<!-- 30064771606&#45;&gt;124554051619 -->
<g id="edge9" class="edge">
<title>30064771606&#45;&gt;124554051619</title>
<path fill="none" stroke="black" d="M1228.15,-297.18C1221.89,-272.18 1210.61,-226.96 1201.18,-188.25 1187.05,-130.2 1212.34,-99.59 1169.93,-57.5 1158.28,-45.93 1124.59,-37.31 1091.2,-31.33"/>
<polygon fill="black" stroke="black" points="1091.86,-27.89 1081.42,-29.66 1090.68,-34.79 1091.86,-27.89"/>
<text xml:space="preserve" text-anchor="middle" x="1231.56" y="-163.07" font-family="Times,serif" font-size="14.00">DDG: name</text>
</g>
<!-- 30064771606&#45;&gt;30064771608 -->
<g id="edge32" class="edge">
<title>30064771606&#45;&gt;30064771608</title>
<path fill="none" stroke="black" d="M1287.42,-297.1C1326.76,-283.28 1380.06,-264.55 1421.68,-249.93"/>
<polygon fill="black" stroke="black" points="1422.83,-253.23 1431.1,-246.62 1420.51,-246.63 1422.83,-253.23"/>
<text xml:space="preserve" text-anchor="middle" x="1405.51" y="-266.2" font-family="Times,serif" font-size="14.00">DDG: name</text>
</g>
<!-- 30064771607&#45;&gt;124554051619 -->
<g id="edge11" class="edge">
<title>30064771607&#45;&gt;124554051619</title>
<path fill="none" stroke="black" d="M1434.58,-297.07C1392.42,-275.42 1326.44,-236.8 1282.68,-188.25 1269.41,-173.52 1272.73,-165.38 1261.93,-148.75 1233.8,-105.42 1233.9,-84.62 1189.93,-57.5 1160.58,-39.4 1123.89,-30.05 1091.38,-25.27"/>
<polygon fill="black" stroke="black" points="1091.95,-21.82 1081.58,-23.97 1091.03,-28.76 1091.95,-21.82"/>
<text xml:space="preserve" text-anchor="middle" x="1319.81" y="-163.07" font-family="Times,serif" font-size="14.00">DDG: reason</text>
</g>
<!-- 30064771607&#45;&gt;30064771608 -->
<g id="edge33" class="edge">
<title>30064771607&#45;&gt;30064771608</title>
<path fill="none" stroke="black" d="M1477.48,-297.32C1479.04,-285.69 1481.08,-270.52 1482.87,-257.24"/>
<polygon fill="black" stroke="black" points="1486.28,-258.09 1484.15,-247.71 1479.35,-257.15 1486.28,-258.09"/>
<text xml:space="preserve" text-anchor="middle" x="1518.78" y="-266.2" font-family="Times,serif" font-size="14.00">DDG: reason</text>
</g>
</g>
</svg>
