<?xml version="1.0" encoding="UTF-8" standalone="no"?>
<!DOCTYPE svg PUBLIC "-//W3C//DTD SVG 1.1//EN"
 "http://www.w3.org/Graphics/SVG/1.1/DTD/svg11.dtd">
<!-- Generated by graphviz version 13.1.2 (20250809.0930)
 -->
<!-- Title: &lt;metaClassCallHandler&gt; Pages: 1 -->
<svg width="756pt" height="321pt"
 viewBox="0.00 0.00 756.00 321.00" xmlns="http://www.w3.org/2000/svg" xmlns:xlink="http://www.w3.org/1999/xlink">
<g id="graph0" class="graph" transform="scale(1 1) rotate(0) translate(4 317.25)">
<title>&lt;metaClassCallHandler&gt;</title>
<polygon fill="white" stroke="none" points="-4,4 -4,-317.25 752,-317.25 752,4 -4,4"/>
<!-- 107374182437 -->
<g id="node1" class="node">
<title>107374182437</title>
<polygon fill="none" stroke="black" points="316,-313.25 151.5,-313.25 151.5,-273.75 316,-273.75 316,-313.25"/>
<text xml:space="preserve" text-anchor="start" x="196.62" y="-295.95" font-family="Times,serif" font-size="14.00">METHOD, 344</text>
<text xml:space="preserve" text-anchor="start" x="159.5" y="-280.2" font-family="Times,serif" font-size="14.00">&lt;metaClassCallHandler&gt;</text>
</g>
<!-- 30064771640 -->
<g id="node4" class="node">
<title>30064771640</title>
<polygon fill="none" stroke="black" points="373.38,-222 94.12,-222 94.12,-182.5 373.38,-182.5 373.38,-222"/>
<text xml:space="preserve" text-anchor="start" x="216.88" y="-204.7" font-family="Times,serif" font-size="14.00">, 344</text>
<text xml:space="preserve" text-anchor="start" x="102.12" y="-188.95" font-family="Times,serif" font-size="14.00">class TestResult&lt;meta&gt;(...).&lt;fakeNew&gt;()</text>
</g>
<!-- 107374182437&#45;&gt;30064771640 -->
<g id="edge4" class="edge">
<title>107374182437&#45;&gt;30064771640</title>
<path fill="none" stroke="black" d="M233.75,-273.57C233.75,-262.05 233.75,-247.07 233.75,-233.9"/>
<polygon fill="black" stroke="black" points="237.25,-233.97 233.75,-223.97 230.25,-233.97 237.25,-233.97"/>
<text xml:space="preserve" text-anchor="middle" x="250.62" y="-242.45" font-family="Times,serif" font-size="14.00">DDG: </text>
</g>
<!-- 124554051621 -->
<g id="node2" class="node">
<title>124554051621</title>
<polygon fill="none" stroke="black" points="245.5,-39.5 0,-39.5 0,0 245.5,0 245.5,-39.5"/>
<text xml:space="preserve" text-anchor="start" x="62" y="-22.2" font-family="Times,serif" font-size="14.00">METHOD_RETURN, 344</text>
<text xml:space="preserve" text-anchor="start" x="8" y="-6.45" font-family="Times,serif" font-size="14.00">json_parser.py:&lt;module&gt;.TestResult</text>
</g>
<!-- 141733920803 -->
<g id="node3" class="node">
<title>141733920803</title>
<polygon fill="none" stroke="black" points="748,-130.75 421.5,-130.75 421.5,-91.25 748,-91.25 748,-130.75"/>
<text xml:space="preserve" text-anchor="start" x="547.62" y="-113.45" font-family="Times,serif" font-size="14.00">RETURN, 344</text>
<text xml:space="preserve" text-anchor="start" x="429.5" y="-97.7" font-family="Times,serif" font-size="14.00">return class TestResult&lt;meta&gt;(...).&lt;fakeNew&gt;()</text>
</g>
<!-- 141733920803&#45;&gt;124554051621 -->
<g id="edge1" class="edge">
<title>141733920803&#45;&gt;124554051621</title>
<path fill="none" stroke="black" d="M485.36,-90.8C411.29,-76.49 310.15,-56.95 233.5,-42.14"/>
<polygon fill="black" stroke="black" points="234.34,-38.74 223.86,-40.28 233.01,-45.62 234.34,-38.74"/>
<text xml:space="preserve" text-anchor="middle" x="415.16" y="-59.95" font-family="Times,serif" font-size="14.00">DDG: &lt;RET&gt;</text>
</g>
<!-- 30064771640&#45;&gt;124554051621 -->
<g id="edge2" class="edge">
<title>30064771640&#45;&gt;124554051621</title>
<path fill="none" stroke="black" d="M177.5,-182.08C154.04,-170.98 129.18,-154.41 115.75,-130.75 101.94,-106.4 106.19,-73.96 112.38,-50.63"/>
<polygon fill="black" stroke="black" points="115.72,-51.7 115.18,-41.12 109,-49.72 115.72,-51.7"/>
<text xml:space="preserve" text-anchor="middle" x="264.25" y="-105.58" font-family="Times,serif" font-size="14.00">DDG: class TestResult&lt;meta&gt;(...).&lt;fakeNew&gt;()</text>
</g>
<!-- 30064771640&#45;&gt;141733920803 -->
<g id="edge3" class="edge">
<title>30064771640&#45;&gt;141733920803</title>
<path fill="none" stroke="black" d="M309.05,-182.1C364.59,-167.98 440.27,-148.74 498.29,-133.99"/>
<polygon fill="black" stroke="black" points="498.98,-137.42 507.81,-131.56 497.25,-130.64 498.98,-137.42"/>
<text xml:space="preserve" text-anchor="middle" x="578.77" y="-151.2" font-family="Times,serif" font-size="14.00">DDG: class TestResult&lt;meta&gt;(...).&lt;fakeNew&gt;()</text>
</g>
</g>
</svg>
