<?xml version="1.0" encoding="UTF-8" standalone="no"?>
<!DOCTYPE svg PUBLIC "-//W3C//DTD SVG 1.1//EN"
 "http://www.w3.org/Graphics/SVG/1.1/DTD/svg11.dtd">
<!-- Generated by graphviz version 13.1.2 (20250809.0930)
 -->
<!-- Title: &lt;fakeNew&gt; Pages: 1 -->
<svg width="780pt" height="520pt"
 viewBox="0.00 0.00 780.00 520.00" xmlns="http://www.w3.org/2000/svg" xmlns:xlink="http://www.w3.org/1999/xlink">
<g id="graph0" class="graph" transform="scale(1 1) rotate(0) translate(4 515.5)">
<title>&lt;fakeNew&gt;</title>
<polygon fill="white" stroke="none" points="-4,4 -4,-515.5 775.94,-515.5 775.94,4 -4,4"/>
<!-- 107374182438 -->
<g id="node1" class="node">
<title>107374182438</title>
<polygon fill="none" stroke="black" points="369.88,-511.5 279.62,-511.5 279.62,-472 369.88,-472 369.88,-511.5"/>
<text xml:space="preserve" text-anchor="start" x="287.62" y="-494.2" font-family="Times,serif" font-size="14.00">METHOD, 344</text>
<text xml:space="preserve" text-anchor="start" x="294.38" y="-478.45" font-family="Times,serif" font-size="14.00">&lt;fakeNew&gt;</text>
</g>
<!-- 111669149754 -->
<g id="node3" class="node">
<title>111669149754</title>
<polygon fill="none" stroke="black" points="413.5,-420.25 330,-420.25 330,-380.75 413.5,-380.75 413.5,-420.25"/>
<text xml:space="preserve" text-anchor="start" x="338" y="-402.95" font-family="Times,serif" font-size="14.00">PARAM, 344</text>
<text xml:space="preserve" text-anchor="start" x="361.62" y="-387.2" font-family="Times,serif" font-size="14.00">cls</text>
</g>
<!-- 107374182438&#45;&gt;111669149754 -->
<g id="edge7" class="edge">
<title>107374182438&#45;&gt;111669149754</title>
<path fill="none" stroke="black" d="M334.72,-471.82C341.03,-459.83 349.32,-444.09 356.46,-430.54"/>
<polygon fill="black" stroke="black" points="359.37,-432.53 360.93,-422.05 353.17,-429.26 359.37,-432.53"/>
<text xml:space="preserve" text-anchor="middle" x="367.94" y="-440.7" font-family="Times,serif" font-size="14.00">DDG: </text>
</g>
<!-- 30064771642 -->
<g id="node4" class="node">
<title>30064771642</title>
<polygon fill="none" stroke="black" points="191.5,-420.25 0,-420.25 0,-380.75 191.5,-380.75 191.5,-420.25"/>
<text xml:space="preserve" text-anchor="start" x="8" y="-402.95" font-family="Times,serif" font-size="14.00">&lt;operator&gt;.assignment, 344</text>
<text xml:space="preserve" text-anchor="start" x="45.12" y="-387.2" font-family="Times,serif" font-size="14.00">__newInstance =</text>
</g>
<!-- 107374182438&#45;&gt;30064771642 -->
<g id="edge8" class="edge">
<title>107374182438&#45;&gt;30064771642</title>
<path fill="none" stroke="black" d="M279.44,-473.2C263.77,-467.13 246.11,-460.27 230,-454 205.53,-444.47 178.57,-433.93 155.26,-424.81"/>
<polygon fill="black" stroke="black" points="156.83,-421.67 146.24,-421.28 154.28,-428.19 156.83,-421.67"/>
<text xml:space="preserve" text-anchor="middle" x="246.88" y="-440.7" font-family="Times,serif" font-size="14.00">DDG: </text>
</g>
<!-- 30064771644 -->
<g id="node5" class="node">
<title>30064771644</title>
<polygon fill="none" stroke="black" points="385.88,-329 187.62,-329 187.62,-289.5 385.88,-289.5 385.88,-329"/>
<text xml:space="preserve" text-anchor="start" x="242.88" y="-311.7" font-family="Times,serif" font-size="14.00">__init__, 344</text>
<text xml:space="preserve" text-anchor="start" x="195.62" y="-295.95" font-family="Times,serif" font-size="14.00">cls.__init__(__newInstance)</text>
</g>
<!-- 107374182438&#45;&gt;30064771644 -->
<g id="edge11" class="edge">
<title>107374182438&#45;&gt;30064771644</title>
<path fill="none" stroke="black" d="M311.26,-471.76C302.44,-458.14 291.72,-438.96 287,-420.25 280.35,-393.88 281.02,-362.81 282.93,-340.43"/>
<polygon fill="black" stroke="black" points="286.38,-341.08 283.89,-330.79 279.41,-340.39 286.38,-341.08"/>
<text xml:space="preserve" text-anchor="middle" x="303.88" y="-395.07" font-family="Times,serif" font-size="14.00">DDG: </text>
</g>
<!-- 68719477267 -->
<g id="node7" class="node">
<title>68719477267</title>
<polygon fill="none" stroke="black" points="677.25,-237.75 526.25,-237.75 526.25,-182.5 677.25,-182.5 677.25,-237.75"/>
<text xml:space="preserve" text-anchor="start" x="551.12" y="-220.45" font-family="Times,serif" font-size="14.00">IDENTIFIER, 344</text>
<text xml:space="preserve" text-anchor="start" x="557.88" y="-204.7" font-family="Times,serif" font-size="14.00">__newInstance</text>
<text xml:space="preserve" text-anchor="start" x="534.25" y="-188.95" font-family="Times,serif" font-size="14.00">return __newInstance</text>
</g>
<!-- 107374182438&#45;&gt;68719477267 -->
<g id="edge14" class="edge">
<title>107374182438&#45;&gt;68719477267</title>
<path fill="none" stroke="black" d="M360.96,-471.69C419.05,-439.08 532.17,-366.74 587.75,-271.5 591.72,-264.69 594.57,-256.84 596.6,-249.1"/>
<polygon fill="black" stroke="black" points="600,-249.96 598.73,-239.44 593.16,-248.46 600,-249.96"/>
<text xml:space="preserve" text-anchor="middle" x="545.3" y="-349.45" font-family="Times,serif" font-size="14.00">DDG: </text>
</g>
<!-- 124554051622 -->
<g id="node2" class="node">
<title>124554051622</title>
<polygon fill="none" stroke="black" points="316.5,-39.5 179,-39.5 179,0 316.5,0 316.5,-39.5"/>
<text xml:space="preserve" text-anchor="start" x="187" y="-22.2" font-family="Times,serif" font-size="14.00">METHOD_RETURN, 344</text>
<text xml:space="preserve" text-anchor="start" x="237.62" y="-6.45" font-family="Times,serif" font-size="14.00">ANY</text>
</g>
<!-- 111669149754&#45;&gt;30064771644 -->
<g id="edge10" class="edge">
<title>111669149754&#45;&gt;30064771644</title>
<path fill="none" stroke="black" d="M353.72,-380.57C341.86,-368.11 326.13,-351.6 312.9,-337.71"/>
<polygon fill="black" stroke="black" points="315.52,-335.38 306.09,-330.55 310.45,-340.21 315.52,-335.38"/>
<text xml:space="preserve" text-anchor="middle" x="361.34" y="-349.45" font-family="Times,serif" font-size="14.00">DDG: cls</text>
</g>
<!-- 30064771642&#45;&gt;124554051622 -->
<g id="edge2" class="edge">
<title>30064771642&#45;&gt;124554051622</title>
<path fill="none" stroke="black" d="M59.11,-380.28C35.33,-364.91 8.75,-340.87 8.75,-310.25 8.75,-310.25 8.75,-310.25 8.75,-110 8.75,-75.88 34.42,-73.12 64.75,-57.5 96.33,-41.23 134.41,-32.16 167.64,-27.1"/>
<polygon fill="black" stroke="black" points="167.8,-30.61 177.21,-25.75 166.82,-23.68 167.8,-30.61"/>
<text xml:space="preserve" text-anchor="middle" x="25.62" y="-204.7" font-family="Times,serif" font-size="14.00">DDG: </text>
</g>
<!-- 30064771642&#45;&gt;124554051622 -->
<g id="edge3" class="edge">
<title>30064771642&#45;&gt;124554051622</title>
<path fill="none" stroke="black" d="M89.99,-380.55C85.06,-362.62 78.75,-334.86 78.75,-310.25 78.75,-310.25 78.75,-310.25 78.75,-110 78.75,-66.11 123.88,-43.74 167.5,-32.38"/>
<polygon fill="black" stroke="black" points="168.15,-35.82 177.05,-30.08 166.51,-29.02 168.15,-35.82"/>
<text xml:space="preserve" text-anchor="middle" x="149.62" y="-204.7" font-family="Times,serif" font-size="14.00">DDG: __newInstance = </text>
</g>
<!-- 30064771642&#45;&gt;30064771644 -->
<g id="edge12" class="edge">
<title>30064771642&#45;&gt;30064771644</title>
<path fill="none" stroke="black" d="M108.25,-380.37C116.59,-369.06 128.53,-355.37 142.25,-347 152.85,-340.54 164.55,-335.21 176.56,-330.81"/>
<polygon fill="black" stroke="black" points="177.42,-334.22 185.75,-327.67 175.15,-327.59 177.42,-334.22"/>
<text xml:space="preserve" text-anchor="middle" x="203" y="-349.45" font-family="Times,serif" font-size="14.00">DDG: __newInstance</text>
</g>
<!-- 30064771644&#45;&gt;124554051622 -->
<g id="edge4" class="edge">
<title>30064771644&#45;&gt;124554051622</title>
<path fill="none" stroke="black" d="M278.85,-289.29C268.03,-264.11 247.36,-218.6 224.75,-182.5 219.37,-173.91 214.04,-174.09 210.75,-164.5 197.34,-125.42 215.24,-78.92 230.49,-49.61"/>
<polygon fill="black" stroke="black" points="233.49,-51.42 235.2,-40.96 227.34,-48.07 233.49,-51.42"/>
<text xml:space="preserve" text-anchor="middle" x="237.75" y="-151.2" font-family="Times,serif" font-size="14.00">DDG: cls</text>
</g>
<!-- 30064771644&#45;&gt;124554051622 -->
<g id="edge5" class="edge">
<title>30064771644&#45;&gt;124554051622</title>
<path fill="none" stroke="black" d="M284.19,-289.39C277.58,-240.65 259.89,-110.22 251.84,-50.88"/>
<polygon fill="black" stroke="black" points="255.33,-50.62 250.52,-41.18 248.4,-51.56 255.33,-50.62"/>
<text xml:space="preserve" text-anchor="middle" x="328" y="-151.2" font-family="Times,serif" font-size="14.00">DDG: __newInstance</text>
</g>
<!-- 30064771644&#45;&gt;124554051622 -->
<g id="edge6" class="edge">
<title>30064771644&#45;&gt;124554051622</title>
<path fill="none" stroke="black" d="M315.41,-289.09C354.61,-260.31 417.43,-203.45 392.75,-148.75 372.37,-103.57 327.28,-67.93 292.75,-45.85"/>
<polygon fill="black" stroke="black" points="294.95,-43.1 284.61,-40.79 291.25,-49.04 294.95,-43.1"/>
<text xml:space="preserve" text-anchor="middle" x="505.29" y="-151.2" font-family="Times,serif" font-size="14.00">DDG: cls.__init__(__newInstance)</text>
</g>
<!-- 30064771644&#45;&gt;68719477267 -->
<g id="edge13" class="edge">
<title>30064771644&#45;&gt;68719477267</title>
<path fill="none" stroke="black" d="M386.27,-290.45C405.42,-285.46 425.02,-279.22 442.75,-271.5 454.28,-266.48 454.95,-261.27 466.25,-255.75 481.59,-248.26 498.48,-241.57 514.99,-235.79"/>
<polygon fill="black" stroke="black" points="515.99,-239.15 524.33,-232.61 513.73,-232.52 515.99,-239.15"/>
<text xml:space="preserve" text-anchor="middle" x="527" y="-258.2" font-family="Times,serif" font-size="14.00">DDG: __newInstance</text>
</g>
<!-- 141733920804 -->
<g id="node6" class="node">
<title>141733920804</title>
<polygon fill="none" stroke="black" points="678.25,-130.75 527.25,-130.75 527.25,-91.25 678.25,-91.25 678.25,-130.75"/>
<text xml:space="preserve" text-anchor="start" x="565.62" y="-113.45" font-family="Times,serif" font-size="14.00">RETURN, 344</text>
<text xml:space="preserve" text-anchor="start" x="535.25" y="-97.7" font-family="Times,serif" font-size="14.00">return __newInstance</text>
</g>
<!-- 141733920804&#45;&gt;124554051622 -->
<g id="edge1" class="edge">
<title>141733920804&#45;&gt;124554051622</title>
<path fill="none" stroke="black" d="M551.32,-90.79C520.92,-79.94 481.5,-66.75 445.75,-57.5 407.41,-47.58 364.23,-39.25 328,-33.03"/>
<polygon fill="black" stroke="black" points="328.93,-29.64 318.48,-31.43 327.76,-36.54 328.93,-29.64"/>
<text xml:space="preserve" text-anchor="middle" x="531.91" y="-59.95" font-family="Times,serif" font-size="14.00">DDG: &lt;RET&gt;</text>
</g>
<!-- 68719477267&#45;&gt;141733920804 -->
<g id="edge9" class="edge">
<title>68719477267&#45;&gt;141733920804</title>
<path fill="none" stroke="black" d="M637.07,-182.13C641.82,-176.83 646,-170.91 648.75,-164.5 652.72,-155.26 649.28,-146.49 642.82,-138.86"/>
<polygon fill="black" stroke="black" points="645.52,-136.6 635.92,-132.12 640.63,-141.61 645.52,-136.6"/>
<text xml:space="preserve" text-anchor="middle" x="711.19" y="-151.2" font-family="Times,serif" font-size="14.00">DDG: __newInstance</text>
</g>
</g>
</svg>
