<?xml version="1.0" encoding="UTF-8" standalone="no"?>
<!DOCTYPE svg PUBLIC "-//W3C//DTD SVG 1.1//EN"
 "http://www.w3.org/Graphics/SVG/1.1/DTD/svg11.dtd">
<!-- Generated by graphviz version 13.1.2 (20250809.0930)
 -->
<!-- Title: __init__&lt;metaClassAdapter&gt; Pages: 1 -->
<svg width="523pt" height="436pt"
 viewBox="0.00 0.00 523.00 436.00" xmlns="http://www.w3.org/2000/svg" xmlns:xlink="http://www.w3.org/1999/xlink">
<g id="graph0" class="graph" transform="scale(1 1) rotate(0) translate(4 432.25)">
<title>__init__&lt;metaClassAdapter&gt;</title>
<polygon fill="white" stroke="none" points="-4,4 -4,-432.25 518.62,-432.25 518.62,4 -4,4"/>
<!-- 107374182439 -->
<g id="node1" class="node">
<title>107374182439</title>
<polygon fill="none" stroke="black" points="244.5,-428.25 53,-428.25 53,-388.75 244.5,-388.75 244.5,-428.25"/>
<text xml:space="preserve" text-anchor="start" x="111.62" y="-410.95" font-family="Times,serif" font-size="14.00">METHOD, 344</text>
<text xml:space="preserve" text-anchor="start" x="61" y="-395.2" font-family="Times,serif" font-size="14.00">__init__&lt;metaClassAdapter&gt;</text>
</g>
<!-- 111669149755 -->
<g id="node3" class="node">
<title>111669149755</title>
<polygon fill="none" stroke="black" points="83.5,-279.5 0,-279.5 0,-240 83.5,-240 83.5,-279.5"/>
<text xml:space="preserve" text-anchor="start" x="8" y="-262.2" font-family="Times,serif" font-size="14.00">PARAM, 344</text>
<text xml:space="preserve" text-anchor="start" x="31.62" y="-246.45" font-family="Times,serif" font-size="14.00">cls</text>
</g>
<!-- 107374182439&#45;&gt;111669149755 -->
<g id="edge5" class="edge">
<title>107374182439&#45;&gt;111669149755</title>
<path fill="none" stroke="black" d="M127.46,-388.5C121.83,-383.02 115.95,-376.86 111,-370.75 90.2,-345.04 70.52,-312.72 57.49,-289.78"/>
<polygon fill="black" stroke="black" points="60.67,-288.29 52.73,-281.28 54.56,-291.71 60.67,-288.29"/>
<text xml:space="preserve" text-anchor="middle" x="127.88" y="-357.45" font-family="Times,serif" font-size="14.00">DDG: </text>
</g>
<!-- 111669149756 -->
<g id="node4" class="node">
<title>111669149756</title>
<polygon fill="none" stroke="black" points="190.5,-337 107,-337 107,-297.5 190.5,-297.5 190.5,-337"/>
<text xml:space="preserve" text-anchor="start" x="115" y="-319.7" font-family="Times,serif" font-size="14.00">PARAM, 344</text>
<text xml:space="preserve" text-anchor="start" x="135.25" y="-303.95" font-family="Times,serif" font-size="14.00">self</text>
</g>
<!-- 107374182439&#45;&gt;111669149756 -->
<g id="edge6" class="edge">
<title>107374182439&#45;&gt;111669149756</title>
<path fill="none" stroke="black" d="M148.75,-388.57C148.75,-377.05 148.75,-362.07 148.75,-348.9"/>
<polygon fill="black" stroke="black" points="152.25,-348.97 148.75,-338.97 145.25,-348.97 152.25,-348.97"/>
<text xml:space="preserve" text-anchor="middle" x="165.62" y="-357.45" font-family="Times,serif" font-size="14.00">DDG: </text>
</g>
<!-- 30064771645 -->
<g id="node6" class="node">
<title>30064771645</title>
<polygon fill="none" stroke="black" points="396.75,-222 56.75,-222 56.75,-182.5 396.75,-182.5 396.75,-222"/>
<text xml:space="preserve" text-anchor="start" x="64.75" y="-204.7" font-family="Times,serif" font-size="14.00">json_parser.py:&lt;module&gt;.TestResult.__init__, 344</text>
<text xml:space="preserve" text-anchor="start" x="179.5" y="-188.95" font-family="Times,serif" font-size="14.00">__init__(self)</text>
</g>
<!-- 107374182439&#45;&gt;30064771645 -->
<g id="edge9" class="edge">
<title>107374182439&#45;&gt;30064771645</title>
<path fill="none" stroke="black" d="M171.79,-388.34C177.2,-383.05 182.59,-377.02 186.75,-370.75 214.71,-328.53 223.18,-268.87 225.71,-233.32"/>
<polygon fill="black" stroke="black" points="229.18,-233.94 226.27,-223.75 222.19,-233.53 229.18,-233.94"/>
<text xml:space="preserve" text-anchor="middle" x="232.78" y="-311.82" font-family="Times,serif" font-size="14.00">DDG: </text>
</g>
<!-- 124554051623 -->
<g id="node2" class="node">
<title>124554051623</title>
<polygon fill="none" stroke="black" points="230.5,-39.5 93,-39.5 93,0 230.5,0 230.5,-39.5"/>
<text xml:space="preserve" text-anchor="start" x="101" y="-22.2" font-family="Times,serif" font-size="14.00">METHOD_RETURN, 344</text>
<text xml:space="preserve" text-anchor="start" x="151.62" y="-6.45" font-family="Times,serif" font-size="14.00">ANY</text>
</g>
<!-- 111669149755&#45;&gt;124554051623 -->
<g id="edge2" class="edge">
<title>111669149755&#45;&gt;124554051623</title>
<path fill="none" stroke="black" d="M40.77,-239.77C40.54,-224.04 41.56,-201.29 47.75,-182.5 68.24,-120.3 85.27,-108.97 125.75,-57.5 128.2,-54.39 130.88,-51.25 133.64,-48.19"/>
<polygon fill="black" stroke="black" points="136.14,-50.64 140.45,-40.96 131.05,-45.84 136.14,-50.64"/>
<text xml:space="preserve" text-anchor="middle" x="87.39" y="-151.2" font-family="Times,serif" font-size="14.00">DDG: cls</text>
</g>
<!-- 111669149756&#45;&gt;30064771645 -->
<g id="edge8" class="edge">
<title>111669149756&#45;&gt;30064771645</title>
<path fill="none" stroke="black" d="M144.47,-297.07C141.91,-280.58 140.99,-256.87 152,-240 154.62,-235.98 157.82,-232.39 161.4,-229.17"/>
<polygon fill="black" stroke="black" points="163.33,-232.11 169.16,-223.27 159.08,-226.54 163.33,-232.11"/>
<text xml:space="preserve" text-anchor="middle" x="182.38" y="-254.32" font-family="Times,serif" font-size="14.00">DDG: self</text>
</g>
<!-- 141733920805 -->
<g id="node5" class="node">
<title>141733920805</title>
<polygon fill="none" stroke="black" points="514.62,-130.75 356.88,-130.75 356.88,-91.25 514.62,-91.25 514.62,-130.75"/>
<text xml:space="preserve" text-anchor="start" x="398.62" y="-113.45" font-family="Times,serif" font-size="14.00">RETURN, 344</text>
<text xml:space="preserve" text-anchor="start" x="364.88" y="-97.7" font-family="Times,serif" font-size="14.00">return __init__(self)</text>
</g>
<!-- 141733920805&#45;&gt;124554051623 -->
<g id="edge1" class="edge">
<title>141733920805&#45;&gt;124554051623</title>
<path fill="none" stroke="black" d="M376.97,-90.85C334.26,-76.94 276.3,-58.06 231.29,-43.4"/>
<polygon fill="black" stroke="black" points="232.46,-40.1 221.87,-40.33 230.3,-46.76 232.46,-40.1"/>
<text xml:space="preserve" text-anchor="middle" x="348.9" y="-59.95" font-family="Times,serif" font-size="14.00">DDG: &lt;RET&gt;</text>
</g>
<!-- 30064771645&#45;&gt;124554051623 -->
<g id="edge3" class="edge">
<title>30064771645&#45;&gt;124554051623</title>
<path fill="none" stroke="black" d="M183.06,-182.02C162.36,-170.4 139.67,-153.41 128,-130.75 114.54,-104.6 127.72,-72.15 141.35,-49.29"/>
<polygon fill="black" stroke="black" points="144.15,-51.43 146.54,-41.11 138.23,-47.68 144.15,-51.43"/>
<text xml:space="preserve" text-anchor="middle" x="158.38" y="-105.58" font-family="Times,serif" font-size="14.00">DDG: self</text>
</g>
<!-- 30064771645&#45;&gt;124554051623 -->
<g id="edge4" class="edge">
<title>30064771645&#45;&gt;124554051623</title>
<path fill="none" stroke="black" d="M220.35,-182.11C212.95,-160.11 200.29,-122.96 188.75,-91.25 183.83,-77.72 178.16,-62.83 173.29,-50.23"/>
<polygon fill="black" stroke="black" points="176.68,-49.3 169.8,-41.25 170.16,-51.84 176.68,-49.3"/>
<text xml:space="preserve" text-anchor="middle" x="266.57" y="-105.58" font-family="Times,serif" font-size="14.00">DDG: __init__(self)</text>
</g>
<!-- 30064771645&#45;&gt;141733920805 -->
<g id="edge7" class="edge">
<title>30064771645&#45;&gt;141733920805</title>
<path fill="none" stroke="black" d="M271.59,-182.1C303.54,-168.46 346.7,-150.03 380.74,-135.49"/>
<polygon fill="black" stroke="black" points="381.77,-138.86 389.6,-131.71 379.03,-132.42 381.77,-138.86"/>
<text xml:space="preserve" text-anchor="middle" x="407.89" y="-151.2" font-family="Times,serif" font-size="14.00">DDG: __init__(self)</text>
</g>
</g>
</svg>
