<?xml version="1.0" encoding="UTF-8" standalone="no"?>
<!DOCTYPE svg PUBLIC "-//W3C//DTD SVG 1.1//EN"
 "http://www.w3.org/Graphics/SVG/1.1/DTD/svg11.dtd">
<!-- Generated by graphviz version 13.1.2 (20250809.0930)
 -->
<!-- Title: &lt;fakeNew&gt; Pages: 1 -->
<svg width="1050pt" height="520pt"
 viewBox="0.00 0.00 1050.00 520.00" xmlns="http://www.w3.org/2000/svg" xmlns:xlink="http://www.w3.org/1999/xlink">
<g id="graph0" class="graph" transform="scale(1 1) rotate(0) translate(4 515.5)">
<title>&lt;fakeNew&gt;</title>
<polygon fill="white" stroke="none" points="-4,4 -4,-515.5 1045.72,-515.5 1045.72,4 -4,4"/>
<!-- 107374182404 -->
<g id="node1" class="node">
<title>107374182404</title>
<polygon fill="none" stroke="black" points="496.75,-511.5 413.25,-511.5 413.25,-472 496.75,-472 496.75,-511.5"/>
<text xml:space="preserve" text-anchor="start" x="421.25" y="-494.2" font-family="Times,serif" font-size="14.00">METHOD, 25</text>
<text xml:space="preserve" text-anchor="start" x="424.62" y="-478.45" font-family="Times,serif" font-size="14.00">&lt;fakeNew&gt;</text>
</g>
<!-- 111669149702 -->
<g id="node3" class="node">
<title>111669149702</title>
<polygon fill="none" stroke="black" points="437.38,-420.25 360.62,-420.25 360.62,-380.75 437.38,-380.75 437.38,-420.25"/>
<text xml:space="preserve" text-anchor="start" x="368.62" y="-402.95" font-family="Times,serif" font-size="14.00">PARAM, 25</text>
<text xml:space="preserve" text-anchor="start" x="388.88" y="-387.2" font-family="Times,serif" font-size="14.00">cls</text>
</g>
<!-- 107374182404&#45;&gt;111669149702 -->
<g id="edge9" class="edge">
<title>107374182404&#45;&gt;111669149702</title>
<path fill="none" stroke="black" d="M443.12,-471.82C435.53,-459.72 425.53,-443.78 416.97,-430.15"/>
<polygon fill="black" stroke="black" points="420.14,-428.6 411.86,-421.99 414.21,-432.32 420.14,-428.6"/>
<text xml:space="preserve" text-anchor="middle" x="447.23" y="-440.7" font-family="Times,serif" font-size="14.00">DDG: </text>
</g>
<!-- 111669149703 -->
<g id="node4" class="node">
<title>111669149703</title>
<polygon fill="none" stroke="black" points="532.38,-420.25 455.62,-420.25 455.62,-380.75 532.38,-380.75 532.38,-420.25"/>
<text xml:space="preserve" text-anchor="start" x="463.62" y="-402.95" font-family="Times,serif" font-size="14.00">PARAM, 25</text>
<text xml:space="preserve" text-anchor="start" x="470.38" y="-387.2" font-family="Times,serif" font-size="14.00">message</text>
</g>
<!-- 107374182404&#45;&gt;111669149703 -->
<g id="edge10" class="edge">
<title>107374182404&#45;&gt;111669149703</title>
<path fill="none" stroke="black" d="M463.27,-471.82C468.46,-459.95 475.25,-444.4 481.13,-430.94"/>
<polygon fill="black" stroke="black" points="484.2,-432.66 485,-422.09 477.79,-429.86 484.2,-432.66"/>
<text xml:space="preserve" text-anchor="middle" x="493.71" y="-440.7" font-family="Times,serif" font-size="14.00">DDG: </text>
</g>
<!-- 111669149704 -->
<g id="node5" class="node">
<title>111669149704</title>
<polygon fill="none" stroke="black" points="627.38,-420.25 550.62,-420.25 550.62,-380.75 627.38,-380.75 627.38,-420.25"/>
<text xml:space="preserve" text-anchor="start" x="558.62" y="-402.95" font-family="Times,serif" font-size="14.00">PARAM, 25</text>
<text xml:space="preserve" text-anchor="start" x="578.88" y="-387.2" font-family="Times,serif" font-size="14.00">pos</text>
</g>
<!-- 107374182404&#45;&gt;111669149704 -->
<g id="edge11" class="edge">
<title>107374182404&#45;&gt;111669149704</title>
<path fill="none" stroke="black" d="M487.32,-471.5C496.36,-465.97 506.13,-459.85 515,-454 527.76,-445.58 541.48,-436 553.6,-427.35"/>
<polygon fill="black" stroke="black" points="555.62,-430.21 561.7,-421.53 551.53,-424.52 555.62,-430.21"/>
<text xml:space="preserve" text-anchor="middle" x="554.56" y="-440.7" font-family="Times,serif" font-size="14.00">DDG: </text>
</g>
<!-- 30064771100 -->
<g id="node6" class="node">
<title>30064771100</title>
<polygon fill="none" stroke="black" points="190.38,-420.25 5.62,-420.25 5.62,-380.75 190.38,-380.75 190.38,-420.25"/>
<text xml:space="preserve" text-anchor="start" x="13.62" y="-402.95" font-family="Times,serif" font-size="14.00">&lt;operator&gt;.assignment, 25</text>
<text xml:space="preserve" text-anchor="start" x="47.38" y="-387.2" font-family="Times,serif" font-size="14.00">__newInstance =</text>
</g>
<!-- 107374182404&#45;&gt;30064771100 -->
<g id="edge12" class="edge">
<title>107374182404&#45;&gt;30064771100</title>
<path fill="none" stroke="black" d="M413.1,-484.34C373.63,-477.94 313.01,-467.18 261.25,-454 228.36,-445.63 192.39,-434.3 162.6,-424.31"/>
<polygon fill="black" stroke="black" points="163.96,-421.07 153.36,-421.18 161.71,-427.7 163.96,-421.07"/>
<text xml:space="preserve" text-anchor="middle" x="278.12" y="-440.7" font-family="Times,serif" font-size="14.00">DDG: </text>
</g>
<!-- 30064771102 -->
<g id="node7" class="node">
<title>30064771102</title>
<polygon fill="none" stroke="black" points="569.38,-329 276.62,-329 276.62,-289.5 569.38,-289.5 569.38,-329"/>
<text xml:space="preserve" text-anchor="start" x="382.5" y="-311.7" font-family="Times,serif" font-size="14.00">__init__, 25</text>
<text xml:space="preserve" text-anchor="start" x="284.62" y="-295.95" font-family="Times,serif" font-size="14.00">cls.__init__(__newInstance, message, pos)</text>
</g>
<!-- 107374182404&#45;&gt;30064771102 -->
<g id="edge15" class="edge">
<title>107374182404&#45;&gt;30064771102</title>
<path fill="none" stroke="black" d="M412.85,-481.53C380.74,-472.05 338.69,-453.78 318.25,-420.25 309.11,-405.26 310,-396.25 318.25,-380.75 328.64,-361.23 347.11,-346.15 365.67,-335.04"/>
<polygon fill="black" stroke="black" points="367.32,-338.12 374.32,-330.17 363.89,-332.02 367.32,-338.12"/>
<text xml:space="preserve" text-anchor="middle" x="335.12" y="-395.07" font-family="Times,serif" font-size="14.00">DDG: </text>
</g>
<!-- 68719476766 -->
<g id="node9" class="node">
<title>68719476766</title>
<polygon fill="none" stroke="black" points="849.5,-237.75 698.5,-237.75 698.5,-182.5 849.5,-182.5 849.5,-237.75"/>
<text xml:space="preserve" text-anchor="start" x="726.75" y="-220.45" font-family="Times,serif" font-size="14.00">IDENTIFIER, 25</text>
<text xml:space="preserve" text-anchor="start" x="730.12" y="-204.7" font-family="Times,serif" font-size="14.00">__newInstance</text>
<text xml:space="preserve" text-anchor="start" x="706.5" y="-188.95" font-family="Times,serif" font-size="14.00">return __newInstance</text>
</g>
<!-- 107374182404&#45;&gt;68719476766 -->
<g id="edge20" class="edge">
<title>107374182404&#45;&gt;68719476766</title>
<path fill="none" stroke="black" d="M496.96,-482.41C536.36,-472.85 595.19,-453.98 636,-420.25 702.35,-365.42 721.68,-348.57 760,-271.5 763.4,-264.65 766,-256.96 767.97,-249.41"/>
<polygon fill="black" stroke="black" points="771.38,-250.2 770.17,-239.67 764.55,-248.66 771.38,-250.2"/>
<text xml:space="preserve" text-anchor="middle" x="731.06" y="-349.45" font-family="Times,serif" font-size="14.00">DDG: </text>
</g>
<!-- 124554051588 -->
<g id="node2" class="node">
<title>124554051588</title>
<polygon fill="none" stroke="black" points="415.38,-39.5 284.62,-39.5 284.62,0 415.38,0 415.38,-39.5"/>
<text xml:space="preserve" text-anchor="start" x="292.62" y="-22.2" font-family="Times,serif" font-size="14.00">METHOD_RETURN, 25</text>
<text xml:space="preserve" text-anchor="start" x="339.88" y="-6.45" font-family="Times,serif" font-size="14.00">ANY</text>
</g>
<!-- 111669149702&#45;&gt;30064771102 -->
<g id="edge14" class="edge">
<title>111669149702&#45;&gt;30064771102</title>
<path fill="none" stroke="black" d="M398.53,-380.69C398.75,-370.53 399.79,-357.87 403,-347 403.72,-344.57 404.61,-342.11 405.62,-339.69"/>
<polygon fill="black" stroke="black" points="408.73,-341.31 409.94,-330.78 402.43,-338.26 408.73,-341.31"/>
<text xml:space="preserve" text-anchor="middle" x="430" y="-349.45" font-family="Times,serif" font-size="14.00">DDG: cls</text>
</g>
<!-- 111669149703&#45;&gt;30064771102 -->
<g id="edge17" class="edge">
<title>111669149703&#45;&gt;30064771102</title>
<path fill="none" stroke="black" d="M481.57,-380.59C474.65,-370.4 465.7,-357.75 457,-347 454.52,-343.93 451.85,-340.8 449.14,-337.72"/>
<polygon fill="black" stroke="black" points="451.81,-335.46 442.51,-330.4 446.63,-340.16 451.81,-335.46"/>
<text xml:space="preserve" text-anchor="middle" x="509.29" y="-349.45" font-family="Times,serif" font-size="14.00">DDG: message</text>
</g>
<!-- 111669149704&#45;&gt;30064771102 -->
<g id="edge18" class="edge">
<title>111669149704&#45;&gt;30064771102</title>
<path fill="none" stroke="black" d="M580.55,-380.46C574.64,-369.19 565.7,-355.5 554,-347 547.16,-342.03 539.66,-337.73 531.84,-334.01"/>
<polygon fill="black" stroke="black" points="533.34,-330.85 522.77,-330.06 530.54,-337.26 533.34,-330.85"/>
<text xml:space="preserve" text-anchor="middle" x="595.52" y="-349.45" font-family="Times,serif" font-size="14.00">DDG: pos</text>
</g>
<!-- 30064771100&#45;&gt;124554051588 -->
<g id="edge2" class="edge">
<title>30064771100&#45;&gt;124554051588</title>
<path fill="none" stroke="black" d="M54.73,-380.34C28.48,-365.46 0,-342.01 0,-310.25 0,-310.25 0,-310.25 0,-110 0,-75.88 25.12,-71.99 56,-57.5 93.32,-39.99 199.14,-30 273.07,-24.98"/>
<polygon fill="black" stroke="black" points="272.93,-28.49 282.68,-24.34 272.47,-21.51 272.93,-28.49"/>
<text xml:space="preserve" text-anchor="middle" x="16.88" y="-204.7" font-family="Times,serif" font-size="14.00">DDG: </text>
</g>
<!-- 30064771100&#45;&gt;124554051588 -->
<g id="edge3" class="edge">
<title>30064771100&#45;&gt;124554051588</title>
<path fill="none" stroke="black" d="M88.36,-380.54C80.26,-362.83 70,-335.42 70,-310.25 70,-310.25 70,-310.25 70,-110 70,-67.2 190.28,-42.16 273.17,-29.99"/>
<polygon fill="black" stroke="black" points="273.45,-33.49 282.85,-28.61 272.46,-26.56 273.45,-33.49"/>
<text xml:space="preserve" text-anchor="middle" x="140.88" y="-204.7" font-family="Times,serif" font-size="14.00">DDG: __newInstance = </text>
</g>
<!-- 30064771100&#45;&gt;30064771102 -->
<g id="edge16" class="edge">
<title>30064771100&#45;&gt;30064771102</title>
<path fill="none" stroke="black" d="M119.54,-380.46C133.85,-368.89 153.61,-354.87 173.5,-347 202.27,-335.61 234.17,-327.71 265.27,-322.24"/>
<polygon fill="black" stroke="black" points="265.46,-325.76 274.75,-320.65 264.3,-318.85 265.46,-325.76"/>
<text xml:space="preserve" text-anchor="middle" x="234.25" y="-349.45" font-family="Times,serif" font-size="14.00">DDG: __newInstance</text>
</g>
<!-- 30064771102&#45;&gt;124554051588 -->
<g id="edge4" class="edge">
<title>30064771102&#45;&gt;124554051588</title>
<path fill="none" stroke="black" d="M294.87,-289.1C283.84,-284.42 273.35,-278.63 264,-271.5 228.27,-244.24 240.55,-220.15 216,-182.5 210.46,-174.01 205.29,-174.09 202,-164.5 185.41,-116.15 234.39,-81.88 264,-57.5 269.64,-52.85 275.96,-48.71 282.54,-45.02"/>
<polygon fill="black" stroke="black" points="283.71,-48.36 290.98,-40.65 280.49,-42.14 283.71,-48.36"/>
<text xml:space="preserve" text-anchor="middle" x="229" y="-151.2" font-family="Times,serif" font-size="14.00">DDG: cls</text>
</g>
<!-- 30064771102&#45;&gt;124554051588 -->
<g id="edge5" class="edge">
<title>30064771102&#45;&gt;124554051588</title>
<path fill="none" stroke="black" d="M392.75,-289.02C357.85,-264.84 302.35,-219.73 279.5,-164.5 262.36,-123.07 294.81,-76.77 321.17,-48.19"/>
<polygon fill="black" stroke="black" points="323.65,-50.66 328.04,-41.01 318.6,-45.82 323.65,-50.66"/>
<text xml:space="preserve" text-anchor="middle" x="340.25" y="-151.2" font-family="Times,serif" font-size="14.00">DDG: __newInstance</text>
</g>
<!-- 30064771102&#45;&gt;124554051588 -->
<g id="edge6" class="edge">
<title>30064771102&#45;&gt;124554051588</title>
<path fill="none" stroke="black" d="M421.86,-289.05C419.72,-258.79 414.09,-198.34 401,-148.75 391.8,-113.9 375.76,-75.72 364.12,-50.21"/>
<polygon fill="black" stroke="black" points="367.29,-48.74 359.91,-41.15 360.94,-51.69 367.29,-48.74"/>
<text xml:space="preserve" text-anchor="middle" x="445.09" y="-151.2" font-family="Times,serif" font-size="14.00">DDG: message</text>
</g>
<!-- 30064771102&#45;&gt;124554051588 -->
<g id="edge7" class="edge">
<title>30064771102&#45;&gt;124554051588</title>
<path fill="none" stroke="black" d="M441.64,-289.01C468.4,-258.94 512.16,-199.05 490,-148.75 470.36,-104.18 426.68,-68.38 393.3,-46.1"/>
<polygon fill="black" stroke="black" points="395.31,-43.24 385.02,-40.73 391.5,-49.11 395.31,-43.24"/>
<text xml:space="preserve" text-anchor="middle" x="521.66" y="-151.2" font-family="Times,serif" font-size="14.00">DDG: pos</text>
</g>
<!-- 30064771102&#45;&gt;124554051588 -->
<g id="edge8" class="edge">
<title>30064771102&#45;&gt;124554051588</title>
<path fill="none" stroke="black" d="M458.84,-289.23C506.35,-261.28 581.11,-206.19 553,-148.75 527.63,-96.91 470.28,-63.69 422.98,-44.13"/>
<polygon fill="black" stroke="black" points="424.43,-40.94 413.85,-40.48 421.84,-47.44 424.43,-40.94"/>
<text xml:space="preserve" text-anchor="middle" x="713.37" y="-151.2" font-family="Times,serif" font-size="14.00">DDG: cls.__init__(__newInstance, message, pos)</text>
</g>
<!-- 30064771102&#45;&gt;68719476766 -->
<g id="edge19" class="edge">
<title>30064771102&#45;&gt;68719476766</title>
<path fill="none" stroke="black" d="M560.03,-289.04C578.85,-284.39 597.66,-278.63 615,-271.5 626.63,-266.72 627.2,-261.27 638.5,-255.75 653.84,-248.26 670.73,-241.57 687.24,-235.79"/>
<polygon fill="black" stroke="black" points="688.24,-239.15 696.58,-232.61 685.98,-232.52 688.24,-239.15"/>
<text xml:space="preserve" text-anchor="middle" x="699.25" y="-258.2" font-family="Times,serif" font-size="14.00">DDG: __newInstance</text>
</g>
<!-- 141733920769 -->
<g id="node8" class="node">
<title>141733920769</title>
<polygon fill="none" stroke="black" points="898.5,-130.75 747.5,-130.75 747.5,-91.25 898.5,-91.25 898.5,-130.75"/>
<text xml:space="preserve" text-anchor="start" x="789.25" y="-113.45" font-family="Times,serif" font-size="14.00">RETURN, 25</text>
<text xml:space="preserve" text-anchor="start" x="755.5" y="-97.7" font-family="Times,serif" font-size="14.00">return __newInstance</text>
</g>
<!-- 141733920769&#45;&gt;124554051588 -->
<g id="edge1" class="edge">
<title>141733920769&#45;&gt;124554051588</title>
<path fill="none" stroke="black" d="M756.04,-90.79C716.2,-79.87 664.51,-66.61 618,-57.5 554,-44.96 480.57,-35.21 426.78,-28.91"/>
<polygon fill="black" stroke="black" points="427.44,-25.47 417.11,-27.8 426.64,-32.42 427.44,-25.47"/>
<text xml:space="preserve" text-anchor="middle" x="719.89" y="-59.95" font-family="Times,serif" font-size="14.00">DDG: &lt;RET&gt;</text>
</g>
<!-- 68719476766&#45;&gt;141733920769 -->
<g id="edge13" class="edge">
<title>68719476766&#45;&gt;141733920769</title>
<path fill="none" stroke="black" d="M849.78,-203.09C874.95,-197.04 900.48,-185.64 916,-164.5 924.31,-153.18 919.56,-143.96 908.75,-136.59"/>
<polygon fill="black" stroke="black" points="910.67,-133.65 900.24,-131.81 907.24,-139.76 910.67,-133.65"/>
<text xml:space="preserve" text-anchor="middle" x="980.97" y="-151.2" font-family="Times,serif" font-size="14.00">DDG: __newInstance</text>
</g>
</g>
</svg>
