<?xml version="1.0" encoding="UTF-8" standalone="no"?>
<!DOCTYPE svg PUBLIC "-//W3C//DTD SVG 1.1//EN"
 "http://www.w3.org/Graphics/SVG/1.1/DTD/svg11.dtd">
<!-- Generated by graphviz version 13.1.2 (20250809.0930)
 -->
<!-- Title: fail&lt;metaClassAdapter&gt; Pages: 1 -->
<svg width="861pt" height="436pt"
 viewBox="0.00 0.00 861.00 436.00" xmlns="http://www.w3.org/2000/svg" xmlns:xlink="http://www.w3.org/1999/xlink">
<g id="graph0" class="graph" transform="scale(1 1) rotate(0) translate(4 432.25)">
<title>fail&lt;metaClassAdapter&gt;</title>
<polygon fill="white" stroke="none" points="-4,4 -4,-432.25 857.38,-432.25 857.38,4 -4,4"/>
<!-- 107374182440 -->
<g id="node1" class="node">
<title>107374182440</title>
<polygon fill="none" stroke="black" points="296,-428.25 131.5,-428.25 131.5,-388.75 296,-388.75 296,-428.25"/>
<text xml:space="preserve" text-anchor="start" x="176.62" y="-410.95" font-family="Times,serif" font-size="14.00">METHOD, 353</text>
<text xml:space="preserve" text-anchor="start" x="139.5" y="-395.2" font-family="Times,serif" font-size="14.00">fail&lt;metaClassAdapter&gt;</text>
</g>
<!-- 111669149757 -->
<g id="node3" class="node">
<title>111669149757</title>
<polygon fill="none" stroke="black" points="83.5,-279.5 0,-279.5 0,-240 83.5,-240 83.5,-279.5"/>
<text xml:space="preserve" text-anchor="start" x="8" y="-262.2" font-family="Times,serif" font-size="14.00">PARAM, 353</text>
<text xml:space="preserve" text-anchor="start" x="31.62" y="-246.45" font-family="Times,serif" font-size="14.00">cls</text>
</g>
<!-- 107374182440&#45;&gt;111669149757 -->
<g id="edge7" class="edge">
<title>107374182440&#45;&gt;111669149757</title>
<path fill="none" stroke="black" d="M135.72,-388.31C107.99,-377.66 79.12,-361.42 60.75,-337 50.85,-323.84 46.06,-306.13 43.77,-291.1"/>
<polygon fill="black" stroke="black" points="47.25,-290.76 42.59,-281.25 40.3,-291.59 47.25,-290.76"/>
<text xml:space="preserve" text-anchor="middle" x="113.55" y="-357.45" font-family="Times,serif" font-size="14.00">DDG: </text>
</g>
<!-- 111669149758 -->
<g id="node4" class="node">
<title>111669149758</title>
<polygon fill="none" stroke="black" points="153.5,-337 70,-337 70,-297.5 153.5,-297.5 153.5,-337"/>
<text xml:space="preserve" text-anchor="start" x="78" y="-319.7" font-family="Times,serif" font-size="14.00">PARAM, 353</text>
<text xml:space="preserve" text-anchor="start" x="98.25" y="-303.95" font-family="Times,serif" font-size="14.00">self</text>
</g>
<!-- 107374182440&#45;&gt;111669149758 -->
<g id="edge8" class="edge">
<title>107374182440&#45;&gt;111669149758</title>
<path fill="none" stroke="black" d="M191.87,-388.35C177.35,-375.65 158.09,-358.8 142.1,-344.8"/>
<polygon fill="black" stroke="black" points="144.56,-342.31 134.73,-338.36 139.96,-347.58 144.56,-342.31"/>
<text xml:space="preserve" text-anchor="middle" x="185.73" y="-357.45" font-family="Times,serif" font-size="14.00">DDG: </text>
</g>
<!-- 111669149759 -->
<g id="node5" class="node">
<title>111669149759</title>
<polygon fill="none" stroke="black" points="255.5,-337 172,-337 172,-297.5 255.5,-297.5 255.5,-337"/>
<text xml:space="preserve" text-anchor="start" x="180" y="-319.7" font-family="Times,serif" font-size="14.00">PARAM, 353</text>
<text xml:space="preserve" text-anchor="start" x="200.25" y="-303.95" font-family="Times,serif" font-size="14.00">name</text>
</g>
<!-- 107374182440&#45;&gt;111669149759 -->
<g id="edge9" class="edge">
<title>107374182440&#45;&gt;111669149759</title>
<path fill="none" stroke="black" d="M213.75,-388.57C213.75,-377.05 213.75,-362.07 213.75,-348.9"/>
<polygon fill="black" stroke="black" points="217.25,-348.97 213.75,-338.97 210.25,-348.97 217.25,-348.97"/>
<text xml:space="preserve" text-anchor="middle" x="230.62" y="-357.45" font-family="Times,serif" font-size="14.00">DDG: </text>
</g>
<!-- 111669149760 -->
<g id="node6" class="node">
<title>111669149760</title>
<polygon fill="none" stroke="black" points="357.5,-337 274,-337 274,-297.5 357.5,-297.5 357.5,-337"/>
<text xml:space="preserve" text-anchor="start" x="282" y="-319.7" font-family="Times,serif" font-size="14.00">PARAM, 353</text>
<text xml:space="preserve" text-anchor="start" x="295.5" y="-303.95" font-family="Times,serif" font-size="14.00">reason</text>
</g>
<!-- 107374182440&#45;&gt;111669149760 -->
<g id="edge10" class="edge">
<title>107374182440&#45;&gt;111669149760</title>
<path fill="none" stroke="black" d="M235.63,-388.35C250.15,-375.65 269.41,-358.8 285.4,-344.8"/>
<polygon fill="black" stroke="black" points="287.54,-347.58 292.77,-338.36 282.94,-342.31 287.54,-347.58"/>
<text xml:space="preserve" text-anchor="middle" x="287.73" y="-357.45" font-family="Times,serif" font-size="14.00">DDG: </text>
</g>
<!-- 30064771646 -->
<g id="node8" class="node">
<title>30064771646</title>
<polygon fill="none" stroke="black" points="461.25,-222 148.25,-222 148.25,-182.5 461.25,-182.5 461.25,-222"/>
<text xml:space="preserve" text-anchor="start" x="156.25" y="-204.7" font-family="Times,serif" font-size="14.00">json_parser.py:&lt;module&gt;.TestResult.fail, 353</text>
<text xml:space="preserve" text-anchor="start" x="223.75" y="-188.95" font-family="Times,serif" font-size="14.00">fail(self, name, reason)</text>
</g>
<!-- 107374182440&#45;&gt;30064771646 -->
<g id="edge13" class="edge">
<title>107374182440&#45;&gt;30064771646</title>
<path fill="none" stroke="black" d="M292.48,-388.39C320.13,-377.76 348.75,-361.52 366.75,-337 392.48,-301.93 402.77,-276.91 379.75,-240 377.32,-236.1 374.33,-232.6 370.98,-229.46"/>
<polygon fill="black" stroke="black" points="373.18,-226.74 363.15,-223.32 368.86,-232.25 373.18,-226.74"/>
<text xml:space="preserve" text-anchor="middle" x="405.95" y="-311.82" font-family="Times,serif" font-size="14.00">DDG: </text>
</g>
<!-- 124554051624 -->
<g id="node2" class="node">
<title>124554051624</title>
<polygon fill="none" stroke="black" points="324.5,-39.5 187,-39.5 187,0 324.5,0 324.5,-39.5"/>
<text xml:space="preserve" text-anchor="start" x="195" y="-22.2" font-family="Times,serif" font-size="14.00">METHOD_RETURN, 353</text>
<text xml:space="preserve" text-anchor="start" x="245.62" y="-6.45" font-family="Times,serif" font-size="14.00">ANY</text>
</g>
<!-- 111669149757&#45;&gt;124554051624 -->
<g id="edge2" class="edge">
<title>111669149757&#45;&gt;124554051624</title>
<path fill="none" stroke="black" d="M44.64,-239.51C51.87,-198.69 74.74,-103.41 135.75,-57.5 147.61,-48.57 161.66,-41.8 175.89,-36.65"/>
<polygon fill="black" stroke="black" points="176.95,-39.99 185.34,-33.51 174.74,-33.35 176.95,-39.99"/>
<text xml:space="preserve" text-anchor="middle" x="97.58" y="-151.2" font-family="Times,serif" font-size="14.00">DDG: cls</text>
</g>
<!-- 111669149758&#45;&gt;30064771646 -->
<g id="edge12" class="edge">
<title>111669149758&#45;&gt;30064771646</title>
<path fill="none" stroke="black" d="M117.6,-297.33C124,-279.83 135.95,-254.42 155,-240 161.46,-235.11 168.48,-230.87 175.84,-227.18"/>
<polygon fill="black" stroke="black" points="177.07,-230.47 184.7,-223.12 174.15,-224.11 177.07,-230.47"/>
<text xml:space="preserve" text-anchor="middle" x="185.38" y="-254.32" font-family="Times,serif" font-size="14.00">DDG: self</text>
</g>
<!-- 111669149759&#45;&gt;30064771646 -->
<g id="edge14" class="edge">
<title>111669149759&#45;&gt;30064771646</title>
<path fill="none" stroke="black" d="M215.82,-297.13C218.48,-280.45 224.51,-256.42 238,-240 241.39,-235.87 245.37,-232.13 249.67,-228.76"/>
<polygon fill="black" stroke="black" points="251.42,-231.81 257.62,-223.22 247.42,-226.07 251.42,-231.81"/>
<text xml:space="preserve" text-anchor="middle" x="268.38" y="-254.32" font-family="Times,serif" font-size="14.00">DDG: name</text>
</g>
<!-- 111669149760&#45;&gt;30064771646 -->
<g id="edge15" class="edge">
<title>111669149760&#45;&gt;30064771646</title>
<path fill="none" stroke="black" d="M309.47,-297.38C307.85,-291.7 306.34,-285.4 305.5,-279.5 303.39,-264.6 303,-247.89 303.23,-233.92"/>
<polygon fill="black" stroke="black" points="306.72,-234.08 303.51,-223.98 299.73,-233.88 306.72,-234.08"/>
<text xml:space="preserve" text-anchor="middle" x="342.62" y="-254.32" font-family="Times,serif" font-size="14.00">DDG: reason</text>
</g>
<!-- 141733920806 -->
<g id="node7" class="node">
<title>141733920806</title>
<polygon fill="none" stroke="black" points="853.38,-130.75 628.12,-130.75 628.12,-91.25 853.38,-91.25 853.38,-130.75"/>
<text xml:space="preserve" text-anchor="start" x="703.62" y="-113.45" font-family="Times,serif" font-size="14.00">RETURN, 353</text>
<text xml:space="preserve" text-anchor="start" x="636.12" y="-97.7" font-family="Times,serif" font-size="14.00">return fail(self, name, reason)</text>
</g>
<!-- 141733920806&#45;&gt;124554051624 -->
<g id="edge1" class="edge">
<title>141733920806&#45;&gt;124554051624</title>
<path fill="none" stroke="black" d="M636.41,-90.8C546.4,-74.24 418.29,-50.66 336.08,-35.53"/>
<polygon fill="black" stroke="black" points="336.75,-32.1 326.28,-33.73 335.48,-38.98 336.75,-32.1"/>
<text xml:space="preserve" text-anchor="middle" x="561.04" y="-59.95" font-family="Times,serif" font-size="14.00">DDG: &lt;RET&gt;</text>
</g>
<!-- 30064771646&#45;&gt;124554051624 -->
<g id="edge3" class="edge">
<title>30064771646&#45;&gt;124554051624</title>
<path fill="none" stroke="black" d="M193.33,-182C166.12,-171.57 140.42,-155.5 125,-130.75 115.72,-115.85 116,-106.32 125,-91.25 137.44,-70.41 158.4,-55.37 179.93,-44.67"/>
<polygon fill="black" stroke="black" points="181.21,-47.94 188.8,-40.55 178.26,-41.59 181.21,-47.94"/>
<text xml:space="preserve" text-anchor="middle" x="155.38" y="-105.58" font-family="Times,serif" font-size="14.00">DDG: self</text>
</g>
<!-- 30064771646&#45;&gt;124554051624 -->
<g id="edge4" class="edge">
<title>30064771646&#45;&gt;124554051624</title>
<path fill="none" stroke="black" d="M270.54,-182.16C252.49,-170.03 232.05,-152.51 222,-130.75 209.73,-104.17 222.57,-71.97 235.79,-49.3"/>
<polygon fill="black" stroke="black" points="238.71,-51.24 241,-40.89 232.76,-47.55 238.71,-51.24"/>
<text xml:space="preserve" text-anchor="middle" x="252.38" y="-105.58" font-family="Times,serif" font-size="14.00">DDG: name</text>
</g>
<!-- 30064771646&#45;&gt;124554051624 -->
<g id="edge5" class="edge">
<title>30064771646&#45;&gt;124554051624</title>
<path fill="none" stroke="black" d="M301.96,-182.33C298.47,-160.23 291.84,-122.68 282.75,-91.25 278.78,-77.52 273.29,-62.69 268.3,-50.2"/>
<polygon fill="black" stroke="black" points="271.69,-49.23 264.66,-41.3 265.21,-51.88 271.69,-49.23"/>
<text xml:space="preserve" text-anchor="middle" x="329.34" y="-105.58" font-family="Times,serif" font-size="14.00">DDG: reason</text>
</g>
<!-- 30064771646&#45;&gt;124554051624 -->
<g id="edge6" class="edge">
<title>30064771646&#45;&gt;124554051624</title>
<path fill="none" stroke="black" d="M329.72,-182.38C355.3,-160.63 388.92,-123.7 370.75,-91.25 359.49,-71.15 339.91,-56.08 320.05,-45.16"/>
<polygon fill="black" stroke="black" points="321.84,-42.14 311.35,-40.66 318.63,-48.36 321.84,-42.14"/>
<text xml:space="preserve" text-anchor="middle" x="473.79" y="-105.58" font-family="Times,serif" font-size="14.00">DDG: fail(self, name, reason)</text>
</g>
<!-- 30064771646&#45;&gt;141733920806 -->
<g id="edge11" class="edge">
<title>30064771646&#45;&gt;141733920806</title>
<path fill="none" stroke="black" d="M398.55,-182.05C468.3,-167.77 563.51,-148.28 635.79,-133.49"/>
<polygon fill="black" stroke="black" points="636.16,-136.98 645.25,-131.55 634.75,-130.13 636.16,-136.98"/>
<text xml:space="preserve" text-anchor="middle" x="646.73" y="-151.2" font-family="Times,serif" font-size="14.00">DDG: fail(self, name, reason)</text>
</g>
</g>
</svg>
