<?xml version="1.0" encoding="UTF-8" standalone="no"?>
<!DOCTYPE svg PUBLIC "-//W3C//DTD SVG 1.1//EN"
 "http://www.w3.org/Graphics/SVG/1.1/DTD/svg11.dtd">
<!-- Generated by graphviz version 13.1.2 (20250809.0930)
 -->
<!-- Title: _approx_eq Pages: 1 -->
<svg width="1549pt" height="1091pt"
 viewBox="0.00 0.00 1549.00 1091.00" xmlns="http://www.w3.org/2000/svg" xmlns:xlink="http://www.w3.org/1999/xlink">
<g id="graph0" class="graph" transform="scale(1 1) rotate(0) translate(4 1086.75)">
<title>_approx_eq</title>
<polygon fill="white" stroke="none" points="-4,4 -4,-1086.75 1545.08,-1086.75 1545.08,4 -4,4"/>
<!-- 107374182443 -->
<g id="node1" class="node">
<title>107374182443</title>
<polygon fill="none" stroke="black" points="529.25,-1082.75 439,-1082.75 439,-1043.25 529.25,-1043.25 529.25,-1082.75"/>
<text xml:space="preserve" text-anchor="start" x="447" y="-1065.45" font-family="Times,serif" font-size="14.00">METHOD, 367</text>
<text xml:space="preserve" text-anchor="start" x="450.38" y="-1049.7" font-family="Times,serif" font-size="14.00">_approx_eq</text>
</g>
<!-- 111669149766 -->
<g id="node3" class="node">
<title>111669149766</title>
<polygon fill="none" stroke="black" points="385.88,-983.62 302.38,-983.62 302.38,-944.12 385.88,-944.12 385.88,-983.62"/>
<text xml:space="preserve" text-anchor="start" x="310.38" y="-966.33" font-family="Times,serif" font-size="14.00">PARAM, 367</text>
<text xml:space="preserve" text-anchor="start" x="340.75" y="-950.58" font-family="Times,serif" font-size="14.00">a</text>
</g>
<!-- 107374182443&#45;&gt;111669149766 -->
<g id="edge16" class="edge">
<title>107374182443&#45;&gt;111669149766</title>
<path fill="none" stroke="black" d="M438.72,-1055.09C417.21,-1049.89 392.36,-1040.86 374.38,-1025.25 365.01,-1017.12 358.22,-1005.41 353.48,-994.46"/>
<polygon fill="black" stroke="black" points="356.82,-993.39 349.94,-985.33 350.29,-995.92 356.82,-993.39"/>
<text xml:space="preserve" text-anchor="middle" x="391.25" y="-1011.95" font-family="Times,serif" font-size="14.00">DDG: </text>
</g>
<!-- 111669149767 -->
<g id="node4" class="node">
<title>111669149767</title>
<polygon fill="none" stroke="black" points="266.88,-769.5 183.38,-769.5 183.38,-730 266.88,-730 266.88,-769.5"/>
<text xml:space="preserve" text-anchor="start" x="191.38" y="-752.2" font-family="Times,serif" font-size="14.00">PARAM, 367</text>
<text xml:space="preserve" text-anchor="start" x="221.75" y="-736.45" font-family="Times,serif" font-size="14.00">b</text>
</g>
<!-- 107374182443&#45;&gt;111669149767 -->
<g id="edge17" class="edge">
<title>107374182443&#45;&gt;111669149767</title>
<path fill="none" stroke="black" d="M438.7,-1058.24C394.42,-1052.01 328.7,-1035.46 293.12,-991.5 242.5,-928.94 229.53,-830.81 226.23,-781.38"/>
<polygon fill="black" stroke="black" points="229.73,-781.21 225.67,-771.43 222.74,-781.61 229.73,-781.21"/>
<text xml:space="preserve" text-anchor="middle" x="269.42" y="-893.08" font-family="Times,serif" font-size="14.00">DDG: </text>
</g>
<!-- 111669149768 -->
<g id="node5" class="node">
<title>111669149768</title>
<polygon fill="none" stroke="black" points="1184.88,-918.25 1101.38,-918.25 1101.38,-878.75 1184.88,-878.75 1184.88,-918.25"/>
<text xml:space="preserve" text-anchor="start" x="1109.38" y="-900.95" font-family="Times,serif" font-size="14.00">PARAM, 367</text>
<text xml:space="preserve" text-anchor="start" x="1133" y="-885.2" font-family="Times,serif" font-size="14.00">tol</text>
</g>
<!-- 107374182443&#45;&gt;111669149768 -->
<g id="edge18" class="edge">
<title>107374182443&#45;&gt;111669149768</title>
<path fill="none" stroke="black" d="M529.51,-1061.97C662.5,-1061.51 1044.75,-1057.38 1090.12,-1025.25 1121.05,-1003.35 1134.02,-959.72 1139.4,-930.07"/>
<polygon fill="black" stroke="black" points="1142.86,-930.62 1140.98,-920.19 1135.95,-929.52 1142.86,-930.62"/>
<text xml:space="preserve" text-anchor="middle" x="1122.23" y="-1011.95" font-family="Times,serif" font-size="14.00">DDG: </text>
</g>
<!-- 30064771659 -->
<g id="node8" class="node">
<title>30064771659</title>
<polygon fill="none" stroke="black" points="380.38,-404.5 215.88,-404.5 215.88,-365 380.38,-365 380.38,-404.5"/>
<text xml:space="preserve" text-anchor="start" x="223.88" y="-387.2" font-family="Times,serif" font-size="14.00">&lt;operator&gt;.equals, 370</text>
<text xml:space="preserve" text-anchor="start" x="277.88" y="-371.45" font-family="Times,serif" font-size="14.00">a == b</text>
</g>
<!-- 107374182443&#45;&gt;30064771659 -->
<g id="edge26" class="edge">
<title>107374182443&#45;&gt;30064771659</title>
<path fill="none" stroke="black" d="M438.57,-1060.05C336.85,-1054.45 100.12,-1033.98 100.12,-964.88 100.12,-964.88 100.12,-964.88 100.12,-748.75 100.12,-678.17 160.99,-683.07 194.12,-620.75 238.06,-538.11 217.18,-502.88 265.12,-422.5 266.91,-419.5 268.96,-416.53 271.15,-413.65"/>
<polygon fill="black" stroke="black" points="273.8,-415.95 277.48,-406.01 268.41,-411.48 273.8,-415.95"/>
<text xml:space="preserve" text-anchor="middle" x="135.29" y="-698.7" font-family="Times,serif" font-size="14.00">DDG: </text>
</g>
<!-- 30064771652 -->
<g id="node10" class="node">
<title>30064771652</title>
<polygon fill="none" stroke="black" points="668.88,-769.5 531.38,-769.5 531.38,-730 668.88,-730 668.88,-769.5"/>
<text xml:space="preserve" text-anchor="start" x="539.38" y="-752.2" font-family="Times,serif" font-size="14.00">&lt;operator&gt;.is, 368</text>
<text xml:space="preserve" text-anchor="start" x="546.12" y="-736.45" font-family="Times,serif" font-size="14.00">type(a) is float</text>
</g>
<!-- 107374182443&#45;&gt;30064771652 -->
<g id="edge31" class="edge">
<title>107374182443&#45;&gt;30064771652</title>
<path fill="none" stroke="black" d="M491.88,-1043.09C494.06,-1037.41 496.32,-1031.12 498.12,-1025.25 525.43,-936.2 506.25,-905.43 546.12,-821.25 553.4,-805.89 564.42,-790.68 574.62,-778.35"/>
<polygon fill="black" stroke="black" points="577.01,-780.94 580.85,-771.06 571.69,-776.39 577.01,-780.94"/>
<text xml:space="preserve" text-anchor="middle" x="541.58" y="-893.08" font-family="Times,serif" font-size="14.00">DDG: </text>
</g>
<!-- 30064771654 -->
<g id="node11" class="node">
<title>30064771654</title>
<polygon fill="none" stroke="black" points="824.88,-587 687.38,-587 687.38,-547.5 824.88,-547.5 824.88,-587"/>
<text xml:space="preserve" text-anchor="start" x="695.38" y="-569.7" font-family="Times,serif" font-size="14.00">&lt;operator&gt;.is, 368</text>
<text xml:space="preserve" text-anchor="start" x="702.12" y="-553.95" font-family="Times,serif" font-size="14.00">type(b) is float</text>
</g>
<!-- 107374182443&#45;&gt;30064771654 -->
<g id="edge34" class="edge">
<title>107374182443&#45;&gt;30064771654</title>
<path fill="none" stroke="black" d="M529.6,-1059.33C668.22,-1050.6 1076.12,-1020.21 1076.12,-964.88 1076.12,-964.88 1076.12,-964.88 1076.12,-657.5 1076.12,-607.83 931.25,-584.59 836.46,-574.71"/>
<polygon fill="black" stroke="black" points="836.97,-571.24 826.67,-573.72 836.27,-578.21 836.97,-571.24"/>
<text xml:space="preserve" text-anchor="middle" x="1093" y="-789.95" font-family="Times,serif" font-size="14.00">DDG: </text>
</g>
<!-- 30064771658 -->
<g id="node12" class="node">
<title>30064771658</title>
<polygon fill="none" stroke="black" points="1298.12,-222 1120.12,-222 1120.12,-182.5 1298.12,-182.5 1298.12,-222"/>
<text xml:space="preserve" text-anchor="start" x="1128.12" y="-204.7" font-family="Times,serif" font-size="14.00">&lt;operator&gt;.lessThan, 369</text>
<text xml:space="preserve" text-anchor="start" x="1155.12" y="-188.95" font-family="Times,serif" font-size="14.00">abs(a &#45; b) &lt; tol</text>
</g>
<!-- 107374182443&#45;&gt;30064771658 -->
<g id="edge44" class="edge">
<title>107374182443&#45;&gt;30064771658</title>
<path fill="none" stroke="black" d="M529.7,-1062.52C659.49,-1063.51 1028.99,-1062.85 1143.12,-1025.25 1189.58,-1009.95 1235.12,-1013.78 1235.12,-964.88 1235.12,-964.88 1235.12,-964.88 1235.12,-292.5 1235.12,-271.98 1228.71,-249.83 1222.25,-232.72"/>
<polygon fill="black" stroke="black" points="1225.6,-231.67 1218.64,-223.69 1219.1,-234.27 1225.6,-231.67"/>
<text xml:space="preserve" text-anchor="middle" x="1252" y="-607.45" font-family="Times,serif" font-size="14.00">DDG: </text>
</g>
<!-- 68719477279 -->
<g id="node13" class="node">
<title>68719477279</title>
<polygon fill="none" stroke="black" points="1389.75,-991.5 1272.5,-991.5 1272.5,-936.25 1389.75,-936.25 1389.75,-991.5"/>
<text xml:space="preserve" text-anchor="start" x="1280.5" y="-974.2" font-family="Times,serif" font-size="14.00">IDENTIFIER, 368</text>
<text xml:space="preserve" text-anchor="start" x="1317.62" y="-958.45" font-family="Times,serif" font-size="14.00">type</text>
<text xml:space="preserve" text-anchor="start" x="1307.5" y="-942.7" font-family="Times,serif" font-size="14.00">type(a)</text>
</g>
<!-- 107374182443&#45;&gt;68719477279 -->
<g id="edge36" class="edge">
<title>107374182443&#45;&gt;68719477279</title>
<path fill="none" stroke="black" d="M529.71,-1061.29C683.67,-1058.69 1178.61,-1048.59 1246.12,-1025.25 1247.37,-1024.82 1265.2,-1012.2 1284.21,-998.61"/>
<polygon fill="black" stroke="black" points="1286.24,-1001.45 1292.33,-992.79 1282.16,-995.76 1286.24,-1001.45"/>
<text xml:space="preserve" text-anchor="middle" x="1284.76" y="-1011.95" font-family="Times,serif" font-size="14.00">DDG: </text>
</g>
<!-- 30064771651 -->
<g id="node14" class="node">
<title>30064771651</title>
<polygon fill="none" stroke="black" points="382.5,-860.75 305.75,-860.75 305.75,-821.25 382.5,-821.25 382.5,-860.75"/>
<text xml:space="preserve" text-anchor="start" x="313.75" y="-843.45" font-family="Times,serif" font-size="14.00">type, 368</text>
<text xml:space="preserve" text-anchor="start" x="320.5" y="-827.7" font-family="Times,serif" font-size="14.00">type(a)</text>
</g>
<!-- 107374182443&#45;&gt;30064771651 -->
<g id="edge38" class="edge">
<title>107374182443&#45;&gt;30064771651</title>
<path fill="none" stroke="black" d="M469.71,-1042.88C459.65,-1029.05 446.29,-1009.66 436.38,-991.5 410.25,-943.66 420.66,-922.48 388.12,-878.75 385.6,-875.36 382.7,-872.08 379.62,-868.97"/>
<polygon fill="black" stroke="black" points="382.01,-866.41 372.29,-862.2 377.26,-871.55 382.01,-866.41"/>
<text xml:space="preserve" text-anchor="middle" x="453.25" y="-958.45" font-family="Times,serif" font-size="14.00">DDG: </text>
</g>
<!-- 68719477282 -->
<g id="node15" class="node">
<title>68719477282</title>
<polygon fill="none" stroke="black" points="245.75,-991.5 128.5,-991.5 128.5,-936.25 245.75,-936.25 245.75,-991.5"/>
<text xml:space="preserve" text-anchor="start" x="136.5" y="-974.2" font-family="Times,serif" font-size="14.00">IDENTIFIER, 368</text>
<text xml:space="preserve" text-anchor="start" x="173.62" y="-958.45" font-family="Times,serif" font-size="14.00">type</text>
<text xml:space="preserve" text-anchor="start" x="163.5" y="-942.7" font-family="Times,serif" font-size="14.00">type(b)</text>
</g>
<!-- 107374182443&#45;&gt;68719477282 -->
<g id="edge39" class="edge">
<title>107374182443&#45;&gt;68719477282</title>
<path fill="none" stroke="black" d="M438.53,-1059.99C374.16,-1056.41 260.67,-1047.13 226.38,-1025.25 217.32,-1019.47 209.92,-1010.77 204.09,-1001.76"/>
<polygon fill="black" stroke="black" points="207.2,-1000.15 199.13,-993.29 201.16,-1003.69 207.2,-1000.15"/>
<text xml:space="preserve" text-anchor="middle" x="243.25" y="-1011.95" font-family="Times,serif" font-size="14.00">DDG: </text>
</g>
<!-- 30064771653 -->
<g id="node16" class="node">
<title>30064771653</title>
<polygon fill="none" stroke="black" points="462.5,-678.25 385.75,-678.25 385.75,-638.75 462.5,-638.75 462.5,-678.25"/>
<text xml:space="preserve" text-anchor="start" x="393.75" y="-660.95" font-family="Times,serif" font-size="14.00">type, 368</text>
<text xml:space="preserve" text-anchor="start" x="400.5" y="-645.2" font-family="Times,serif" font-size="14.00">type(b)</text>
</g>
<!-- 107374182443&#45;&gt;30064771653 -->
<g id="edge41" class="edge">
<title>107374182443&#45;&gt;30064771653</title>
<path fill="none" stroke="black" d="M482.31,-1042.79C479.9,-1018.09 475.34,-973.89 470.12,-936.25 457.64,-846.25 438.93,-740.46 429.69,-689.69"/>
<polygon fill="black" stroke="black" points="433.17,-689.27 427.93,-680.06 426.29,-690.53 433.17,-689.27"/>
<text xml:space="preserve" text-anchor="middle" x="475.64" y="-835.58" font-family="Times,serif" font-size="14.00">DDG: </text>
</g>
<!-- 68719477286 -->
<g id="node17" class="node">
<title>68719477286</title>
<polygon fill="none" stroke="black" points="1540.75,-991.5 1423.5,-991.5 1423.5,-936.25 1540.75,-936.25 1540.75,-991.5"/>
<text xml:space="preserve" text-anchor="start" x="1431.5" y="-974.2" font-family="Times,serif" font-size="14.00">IDENTIFIER, 369</text>
<text xml:space="preserve" text-anchor="start" x="1472" y="-958.45" font-family="Times,serif" font-size="14.00">abs</text>
<text xml:space="preserve" text-anchor="start" x="1448.38" y="-942.7" font-family="Times,serif" font-size="14.00">abs(a &#45; b)</text>
</g>
<!-- 107374182443&#45;&gt;68719477286 -->
<g id="edge46" class="edge">
<title>107374182443&#45;&gt;68719477286</title>
<path fill="none" stroke="black" d="M529.5,-1061.63C690.82,-1060.08 1230.88,-1052.88 1303.12,-1025.25 1313.45,-1021.3 1312.46,-1014.39 1322.38,-1009.5 1353.8,-994.01 1365.36,-1000.86 1399.12,-991.5 1403.55,-990.27 1408.1,-988.96 1412.68,-987.6"/>
<polygon fill="black" stroke="black" points="1413.35,-991.06 1421.91,-984.81 1411.32,-984.36 1413.35,-991.06"/>
<text xml:space="preserve" text-anchor="middle" x="1339.25" y="-1011.95" font-family="Times,serif" font-size="14.00">DDG: </text>
</g>
<!-- 30064771656 -->
<g id="node19" class="node">
<title>30064771656</title>
<polygon fill="none" stroke="black" points="198.25,-404.5 0,-404.5 0,-365 198.25,-365 198.25,-404.5"/>
<text xml:space="preserve" text-anchor="start" x="8" y="-387.2" font-family="Times,serif" font-size="14.00">&lt;operator&gt;.subtraction, 369</text>
<text xml:space="preserve" text-anchor="start" x="82.25" y="-371.45" font-family="Times,serif" font-size="14.00">a &#45; b</text>
</g>
<!-- 107374182443&#45;&gt;30064771656 -->
<g id="edge50" class="edge">
<title>107374182443&#45;&gt;30064771656</title>
<path fill="none" stroke="black" d="M438.8,-1061.68C325.16,-1059.65 37.12,-1046.47 37.12,-964.88 37.12,-964.88 37.12,-964.88 37.12,-475 37.12,-451.06 52.36,-428.93 67.72,-412.69"/>
<polygon fill="black" stroke="black" points="70,-415.36 74.61,-405.83 65.06,-410.4 70,-415.36"/>
<text xml:space="preserve" text-anchor="middle" x="54" y="-698.7" font-family="Times,serif" font-size="14.00">DDG: </text>
</g>
<!-- 124554051627 -->
<g id="node2" class="node">
<title>124554051627</title>
<polygon fill="none" stroke="black" points="844.88,-39.5 707.38,-39.5 707.38,0 844.88,0 844.88,-39.5"/>
<text xml:space="preserve" text-anchor="start" x="715.38" y="-22.2" font-family="Times,serif" font-size="14.00">METHOD_RETURN, 367</text>
<text xml:space="preserve" text-anchor="start" x="766" y="-6.45" font-family="Times,serif" font-size="14.00">ANY</text>
</g>
<!-- 111669149766&#45;&gt;30064771651 -->
<g id="edge37" class="edge">
<title>111669149766&#45;&gt;30064771651</title>
<path fill="none" stroke="black" d="M344.12,-943.72C344.12,-924.54 344.12,-894.72 344.12,-872.32"/>
<polygon fill="black" stroke="black" points="347.63,-872.58 344.13,-862.58 340.63,-872.58 347.63,-872.58"/>
<text xml:space="preserve" text-anchor="middle" x="364.38" y="-893.08" font-family="Times,serif" font-size="14.00">DDG: a</text>
</g>
<!-- 111669149767&#45;&gt;30064771659 -->
<g id="edge27" class="edge">
<title>111669149767&#45;&gt;30064771659</title>
<path fill="none" stroke="black" d="M229.32,-729.54C239.89,-680.89 268.25,-548.85 289.12,-438.25 290.48,-431.06 291.86,-423.3 293.12,-416.01"/>
<polygon fill="black" stroke="black" points="296.55,-416.67 294.78,-406.22 289.65,-415.5 296.55,-416.67"/>
<text xml:space="preserve" text-anchor="middle" x="287.59" y="-561.83" font-family="Times,serif" font-size="14.00">DDG: b</text>
</g>
<!-- 111669149767&#45;&gt;30064771653 -->
<g id="edge40" class="edge">
<title>111669149767&#45;&gt;30064771653</title>
<path fill="none" stroke="black" d="M267.33,-729.82C298.83,-715.69 341.96,-696.35 375.01,-681.53"/>
<polygon fill="black" stroke="black" points="376.28,-684.79 383.98,-677.51 373.42,-678.41 376.28,-684.79"/>
<text xml:space="preserve" text-anchor="middle" x="356.79" y="-698.7" font-family="Times,serif" font-size="14.00">DDG: b</text>
</g>
<!-- 111669149767&#45;&gt;30064771656 -->
<g id="edge51" class="edge">
<title>111669149767&#45;&gt;30064771656</title>
<path fill="none" stroke="black" d="M202.64,-729.6C171.97,-701.84 118.48,-647.13 97.62,-587 77.56,-529.14 85.68,-456.16 92.79,-415.9"/>
<polygon fill="black" stroke="black" points="96.2,-416.7 94.6,-406.23 89.32,-415.41 96.2,-416.7"/>
<text xml:space="preserve" text-anchor="middle" x="117.88" y="-561.83" font-family="Times,serif" font-size="14.00">DDG: b</text>
</g>
<!-- 111669149768&#45;&gt;30064771658 -->
<g id="edge43" class="edge">
<title>111669149768&#45;&gt;30064771658</title>
<path fill="none" stroke="black" d="M1146.13,-878.54C1149.07,-858.27 1153.12,-825.13 1153.12,-796.38 1153.12,-796.38 1153.12,-796.38 1153.12,-611.88 1153.12,-537.56 1189.94,-315.12 1203.87,-233.61"/>
<polygon fill="black" stroke="black" points="1207.29,-234.37 1205.53,-223.92 1200.39,-233.18 1207.29,-234.37"/>
<text xml:space="preserve" text-anchor="middle" x="1184.36" y="-561.83" font-family="Times,serif" font-size="14.00">DDG: tol</text>
</g>
<!-- 141733920810 -->
<g id="node6" class="node">
<title>141733920810</title>
<polygon fill="none" stroke="black" points="596,-313.25 492.25,-313.25 492.25,-273.75 596,-273.75 596,-313.25"/>
<text xml:space="preserve" text-anchor="start" x="507" y="-295.95" font-family="Times,serif" font-size="14.00">RETURN, 370</text>
<text xml:space="preserve" text-anchor="start" x="500.25" y="-280.2" font-family="Times,serif" font-size="14.00">return a == b</text>
</g>
<!-- 141733920810&#45;&gt;124554051627 -->
<g id="edge2" class="edge">
<title>141733920810&#45;&gt;124554051627</title>
<path fill="none" stroke="black" d="M565.01,-273.47C569.69,-268.18 574.14,-262.12 577.12,-255.75 597.5,-212.23 574.34,-193.19 592.62,-148.75 611.82,-102.1 619.08,-86.83 660.12,-57.5 671,-49.73 683.59,-43.55 696.38,-38.66"/>
<polygon fill="black" stroke="black" points="697.45,-41.99 705.71,-35.35 695.11,-35.4 697.45,-41.99"/>
<text xml:space="preserve" text-anchor="middle" x="626.38" y="-151.2" font-family="Times,serif" font-size="14.00">DDG: &lt;RET&gt;</text>
</g>
<!-- 30064771655 -->
<g id="node7" class="node">
<title>30064771655</title>
<polygon fill="none" stroke="black" points="691.62,-495.75 432.62,-495.75 432.62,-456.25 691.62,-456.25 691.62,-495.75"/>
<text xml:space="preserve" text-anchor="start" x="477.75" y="-478.45" font-family="Times,serif" font-size="14.00">&lt;operator&gt;.logicalOr, 368</text>
<text xml:space="preserve" text-anchor="start" x="440.62" y="-462.7" font-family="Times,serif" font-size="14.00">type(a) is float or type(b) is float</text>
</g>
<!-- 30064771655&#45;&gt;124554051627 -->
<g id="edge5" class="edge">
<title>30064771655&#45;&gt;124554051627</title>
<path fill="none" stroke="black" d="M522.28,-455.92C514.83,-450.98 507.66,-445.08 502.12,-438.25 470.34,-399.05 499.26,-367.47 464.12,-331.25 431.95,-298.08 296.45,-293.9 270.38,-255.75 266.42,-249.97 268.02,-246.59 270.38,-240 305.72,-141.21 327.71,-107.18 420.12,-57.5 466.18,-32.74 605.55,-24.65 695.63,-22.02"/>
<polygon fill="black" stroke="black" points="695.49,-25.52 705.39,-21.75 695.3,-18.53 695.49,-25.52"/>
<text xml:space="preserve" text-anchor="middle" x="341.25" y="-242.45" font-family="Times,serif" font-size="14.00">DDG: type(a) is float</text>
</g>
<!-- 30064771655&#45;&gt;124554051627 -->
<g id="edge8" class="edge">
<title>30064771655&#45;&gt;124554051627</title>
<path fill="none" stroke="black" d="M552.69,-456.01C538.64,-428.13 510.99,-374.73 484.12,-331.25 459.5,-291.4 412.35,-282.81 431.38,-240 480.88,-128.6 527.93,-113.66 636.12,-57.5 654.57,-47.93 675.7,-40.7 695.87,-35.31"/>
<polygon fill="black" stroke="black" points="696.64,-38.73 705.48,-32.87 694.92,-31.94 696.64,-38.73"/>
<text xml:space="preserve" text-anchor="middle" x="502.25" y="-242.45" font-family="Times,serif" font-size="14.00">DDG: type(b) is float</text>
</g>
<!-- 30064771655&#45;&gt;124554051627 -->
<g id="edge9" class="edge">
<title>30064771655&#45;&gt;124554051627</title>
<path fill="none" stroke="black" d="M571.86,-455.99C578.65,-442.05 587.48,-422.49 593.12,-404.5 615.42,-333.41 596.5,-308.68 625.38,-240 657.25,-164.19 717.7,-87.78 751.56,-48.27"/>
<polygon fill="black" stroke="black" points="753.87,-50.95 757.78,-41.1 748.58,-46.37 753.87,-50.95"/>
<text xml:space="preserve" text-anchor="middle" x="763.75" y="-242.45" font-family="Times,serif" font-size="14.00">DDG: type(a) is float or type(b) is float</text>
</g>
<!-- 30064771655&#45;&gt;141733920810 -->
<g id="edge53" class="edge">
<title>30064771655&#45;&gt;141733920810</title>
<path fill="none" stroke="black" d="M560.23,-456.02C557.11,-424.74 550.87,-362.1 547.13,-324.68"/>
<polygon fill="black" stroke="black" points="550.64,-324.6 546.17,-315 543.68,-325.3 550.64,-324.6"/>
<text xml:space="preserve" text-anchor="middle" x="571.79" y="-379.32" font-family="Times,serif" font-size="14.00">CDG: </text>
</g>
<!-- 30064771655&#45;&gt;30064771659 -->
<g id="edge58" class="edge">
<title>30064771655&#45;&gt;30064771659</title>
<path fill="none" stroke="black" d="M455.59,-455.82C438.12,-451.08 420.48,-445.29 404.38,-438.25 392.94,-433.25 392.04,-428.55 381.12,-422.5 373.09,-418.05 364.41,-413.72 355.8,-409.68"/>
<polygon fill="black" stroke="black" points="357.3,-406.52 346.75,-405.55 354.39,-412.89 357.3,-406.52"/>
<text xml:space="preserve" text-anchor="middle" x="421.25" y="-424.95" font-family="Times,serif" font-size="14.00">CDG: </text>
</g>
<!-- 141733920809 -->
<g id="node9" class="node">
<title>141733920809</title>
<polygon fill="none" stroke="black" points="1013.75,-130.75 842.5,-130.75 842.5,-91.25 1013.75,-91.25 1013.75,-130.75"/>
<text xml:space="preserve" text-anchor="start" x="891" y="-113.45" font-family="Times,serif" font-size="14.00">RETURN, 369</text>
<text xml:space="preserve" text-anchor="start" x="850.5" y="-97.7" font-family="Times,serif" font-size="14.00">return abs(a &#45; b) &lt; tol</text>
</g>
<!-- 30064771655&#45;&gt;141733920809 -->
<g id="edge54" class="edge">
<title>30064771655&#45;&gt;141733920809</title>
<path fill="none" stroke="black" d="M661.83,-455.82C745.62,-434.69 862.81,-392.61 934.12,-313.25 976.37,-266.23 955.94,-185.22 940.3,-141.7"/>
<polygon fill="black" stroke="black" points="943.6,-140.52 936.8,-132.4 937.04,-142.99 943.6,-140.52"/>
<text xml:space="preserve" text-anchor="middle" x="971.59" y="-288.07" font-family="Times,serif" font-size="14.00">CDG: </text>
</g>
<!-- 30064771655&#45;&gt;30064771658 -->
<g id="edge57" class="edge">
<title>30064771655&#45;&gt;30064771658</title>
<path fill="none" stroke="black" d="M692,-470.31C812.6,-463.37 980.89,-446.3 1031.12,-404.5 1057.59,-382.47 1036.86,-359.62 1056.38,-331.25 1085.95,-288.26 1133.7,-251.5 1167.94,-228.55"/>
<polygon fill="black" stroke="black" points="1169.52,-231.7 1175.95,-223.28 1165.67,-225.85 1169.52,-231.7"/>
<text xml:space="preserve" text-anchor="middle" x="1073.25" y="-333.7" font-family="Times,serif" font-size="14.00">CDG: </text>
</g>
<!-- 30064771657 -->
<g id="node18" class="node">
<title>30064771657</title>
<polygon fill="none" stroke="black" points="217.88,-313.25 134.38,-313.25 134.38,-273.75 217.88,-273.75 217.88,-313.25"/>
<text xml:space="preserve" text-anchor="start" x="149.12" y="-295.95" font-family="Times,serif" font-size="14.00">abs, 369</text>
<text xml:space="preserve" text-anchor="start" x="142.38" y="-280.2" font-family="Times,serif" font-size="14.00">abs(a &#45; b)</text>
</g>
<!-- 30064771655&#45;&gt;30064771657 -->
<g id="edge56" class="edge">
<title>30064771655&#45;&gt;30064771657</title>
<path fill="none" stroke="black" d="M501.24,-455.83C489.19,-450.9 476.93,-445.04 466.12,-438.25 426.13,-413.12 429.6,-389.35 389.12,-365 338.82,-334.73 273.91,-315.66 229.04,-305.1"/>
<polygon fill="black" stroke="black" points="230.09,-301.75 219.56,-302.94 228.53,-308.58 230.09,-301.75"/>
<text xml:space="preserve" text-anchor="middle" x="446.52" y="-379.32" font-family="Times,serif" font-size="14.00">CDG: </text>
</g>
<!-- 30064771655&#45;&gt;30064771656 -->
<g id="edge55" class="edge">
<title>30064771655&#45;&gt;30064771656</title>
<path fill="none" stroke="black" d="M441.6,-455.76C409.62,-450.38 375.15,-444.33 343.38,-438.25 294.38,-428.87 240.12,-417.33 195.2,-407.45"/>
<polygon fill="black" stroke="black" points="195.99,-404.04 185.47,-405.31 194.48,-410.88 195.99,-404.04"/>
<text xml:space="preserve" text-anchor="middle" x="360.25" y="-424.95" font-family="Times,serif" font-size="14.00">CDG: </text>
</g>
<!-- 30064771659&#45;&gt;141733920810 -->
<g id="edge19" class="edge">
<title>30064771659&#45;&gt;141733920810</title>
<path fill="none" stroke="black" d="M350.9,-364.6C389.05,-350.76 440.75,-332 481.08,-317.37"/>
<polygon fill="black" stroke="black" points="482.23,-320.68 490.44,-313.98 479.84,-314.1 482.23,-320.68"/>
<text xml:space="preserve" text-anchor="middle" x="472.98" y="-333.7" font-family="Times,serif" font-size="14.00">DDG: a == b</text>
</g>
<!-- 141733920809&#45;&gt;124554051627 -->
<g id="edge1" class="edge">
<title>141733920809&#45;&gt;124554051627</title>
<path fill="none" stroke="black" d="M895.52,-90.85C872.98,-77.62 842.78,-59.89 818.39,-45.57"/>
<polygon fill="black" stroke="black" points="820.38,-42.68 809.98,-40.63 816.84,-48.71 820.38,-42.68"/>
<text xml:space="preserve" text-anchor="middle" x="894.98" y="-59.95" font-family="Times,serif" font-size="14.00">DDG: &lt;RET&gt;</text>
</g>
<!-- 30064771652&#45;&gt;124554051627 -->
<g id="edge3" class="edge">
<title>30064771652&#45;&gt;124554051627</title>
<path fill="none" stroke="black" d="M669.31,-744.9C770.28,-737.36 946.12,-716.11 946.12,-659.5 946.12,-659.5 946.12,-659.5 946.12,-429.38 946.12,-373.86 977.17,-366.71 992.12,-313.25 1014.28,-234.02 1016.21,-212.73 1023.12,-130.75 1024.6,-113.26 1033.12,-105.68 1023.12,-91.25 1003.86,-63.44 920.67,-43.83 856.09,-32.47"/>
<polygon fill="black" stroke="black" points="857.03,-29.08 846.58,-30.84 855.84,-35.98 857.03,-29.08"/>
<text xml:space="preserve" text-anchor="middle" x="1007.43" y="-379.32" font-family="Times,serif" font-size="14.00">DDG: type(a)</text>
</g>
<!-- 30064771652&#45;&gt;124554051627 -->
<g id="edge4" class="edge">
<title>30064771652&#45;&gt;124554051627</title>
<path fill="none" stroke="black" d="M669.19,-744.48C746.56,-739.01 866.68,-728.25 909.12,-712 970.12,-688.65 1101.12,-615.66 1101.12,-568.25 1101.12,-568.25 1101.12,-568.25 1101.12,-429.38 1101.12,-276.59 1120.66,-220.46 1039.12,-91.25 1025.97,-70.41 1017.73,-67.33 995.12,-57.5 951.57,-38.55 899.21,-29.33 856.62,-24.86"/>
<polygon fill="black" stroke="black" points="856.96,-21.38 846.67,-23.9 856.28,-28.35 856.96,-21.38"/>
<text xml:space="preserve" text-anchor="middle" x="1135.81" y="-379.32" font-family="Times,serif" font-size="14.00">DDG: float</text>
</g>
<!-- 30064771652&#45;&gt;30064771655 -->
<g id="edge20" class="edge">
<title>30064771652&#45;&gt;30064771655</title>
<path fill="none" stroke="black" d="M577.63,-729.79C552.43,-706.95 513.05,-665.95 497.12,-620.75 482.5,-579.26 511.82,-533.25 535.69,-504.72"/>
<polygon fill="black" stroke="black" points="538.27,-507.08 542.19,-497.24 532.99,-502.49 538.27,-507.08"/>
<text xml:space="preserve" text-anchor="middle" x="537.62" y="-607.45" font-family="Times,serif" font-size="14.00">DDG: type(a)</text>
</g>
<!-- 30064771652&#45;&gt;30064771655 -->
<g id="edge21" class="edge">
<title>30064771652&#45;&gt;30064771655</title>
<path fill="none" stroke="black" d="M597.45,-729.64C590.95,-683.16 574.27,-563.86 566.38,-507.44"/>
<polygon fill="black" stroke="black" points="569.85,-507.01 565,-497.59 562.92,-507.98 569.85,-507.01"/>
<text xml:space="preserve" text-anchor="middle" x="615.75" y="-607.45" font-family="Times,serif" font-size="14.00">DDG: float</text>
</g>
<!-- 30064771652&#45;&gt;30064771654 -->
<g id="edge33" class="edge">
<title>30064771652&#45;&gt;30064771654</title>
<path fill="none" stroke="black" d="M616.52,-729.77C644.26,-697.68 700.53,-632.57 732.51,-595.57"/>
<polygon fill="black" stroke="black" points="734.83,-598.24 738.72,-588.39 729.53,-593.66 734.83,-598.24"/>
<text xml:space="preserve" text-anchor="middle" x="727.38" y="-653.08" font-family="Times,serif" font-size="14.00">DDG: float</text>
</g>
<!-- 30064771652&#45;&gt;30064771654 -->
<g id="edge59" class="edge">
<title>30064771652&#45;&gt;30064771654</title>
<path fill="none" stroke="black" d="M669.09,-737.67C704.15,-728.18 743.76,-710.62 765.12,-678.25 780.73,-654.61 775.31,-621.6 767.95,-597.92"/>
<polygon fill="black" stroke="black" points="771.3,-596.89 764.75,-588.56 764.67,-599.15 771.3,-596.89"/>
<text xml:space="preserve" text-anchor="middle" x="792.05" y="-653.08" font-family="Times,serif" font-size="14.00">CDG: </text>
</g>
<!-- 30064771652&#45;&gt;30064771653 -->
<g id="edge60" class="edge">
<title>30064771652&#45;&gt;30064771653</title>
<path fill="none" stroke="black" d="M530.92,-740.57C506.99,-735.26 481.01,-726.48 460.38,-712 451.68,-705.9 444.41,-697 438.72,-688.26"/>
<polygon fill="black" stroke="black" points="441.87,-686.71 433.75,-679.91 435.86,-690.29 441.87,-686.71"/>
<text xml:space="preserve" text-anchor="middle" x="477.25" y="-698.7" font-family="Times,serif" font-size="14.00">CDG: </text>
</g>
<!-- 30064771654&#45;&gt;124554051627 -->
<g id="edge6" class="edge">
<title>30064771654&#45;&gt;124554051627</title>
<path fill="none" stroke="black" d="M802.16,-547.2C810.5,-542.3 818.61,-536.42 825.12,-529.5 842.71,-510.82 849.12,-502.66 849.12,-477 849.12,-477 849.12,-477 849.12,-338.12 849.12,-309.51 831.31,-296.14 849.12,-273.75 871.27,-245.91 904.98,-283.59 927.12,-255.75 931.48,-250.27 929.56,-246.56 927.12,-240 904.84,-179.94 868.99,-183.82 833.12,-130.75 815.63,-104.87 799.64,-72.95 789.08,-50.17"/>
<polygon fill="black" stroke="black" points="792.31,-48.82 784.98,-41.17 785.94,-51.72 792.31,-48.82"/>
<text xml:space="preserve" text-anchor="middle" x="889.62" y="-288.07" font-family="Times,serif" font-size="14.00">DDG: type(b)</text>
</g>
<!-- 30064771654&#45;&gt;124554051627 -->
<g id="edge7" class="edge">
<title>30064771654&#45;&gt;124554051627</title>
<path fill="none" stroke="black" d="M783.37,-547.03C788.55,-541.97 793.24,-536.06 796.12,-529.5 798.94,-523.09 796.58,-520.73 796.12,-513.75 789.08,-406.67 699.03,-354.58 769.62,-273.75 808.72,-228.99 863.03,-300.51 902.12,-255.75 906.73,-250.48 905.05,-246.36 902.12,-240 896.99,-228.83 889.73,-230.78 881.12,-222 844.39,-184.5 830.35,-177.32 806.12,-130.75 792.98,-105.48 785.13,-73.86 780.78,-51.01"/>
<polygon fill="black" stroke="black" points="784.28,-50.67 779.08,-41.44 777.38,-51.89 784.28,-50.67"/>
<text xml:space="preserve" text-anchor="middle" x="803.38" y="-288.07" font-family="Times,serif" font-size="14.00">DDG: float</text>
</g>
<!-- 30064771654&#45;&gt;30064771655 -->
<g id="edge22" class="edge">
<title>30064771654&#45;&gt;30064771655</title>
<path fill="none" stroke="black" d="M687.06,-552.69C666.44,-547.12 644.25,-539.56 625.12,-529.5 617.86,-525.68 604.34,-514.64 591.69,-503.66"/>
<polygon fill="black" stroke="black" points="594.11,-501.13 584.29,-497.16 589.49,-506.39 594.11,-501.13"/>
<text xml:space="preserve" text-anchor="middle" x="665.62" y="-516.2" font-family="Times,serif" font-size="14.00">DDG: type(b)</text>
</g>
<!-- 30064771654&#45;&gt;30064771655 -->
<g id="edge23" class="edge">
<title>30064771654&#45;&gt;30064771655</title>
<path fill="none" stroke="black" d="M742.39,-547.14C733.31,-535.84 720.46,-522.15 706.12,-513.75 697.04,-508.43 687.19,-503.87 677.05,-499.96"/>
<polygon fill="black" stroke="black" points="678.41,-496.74 667.82,-496.64 676.04,-503.32 678.41,-496.74"/>
<text xml:space="preserve" text-anchor="middle" x="758.7" y="-516.2" font-family="Times,serif" font-size="14.00">DDG: float</text>
</g>
<!-- 30064771658&#45;&gt;124554051627 -->
<g id="edge13" class="edge">
<title>30064771658&#45;&gt;124554051627</title>
<path fill="none" stroke="black" d="M1226.12,-182.12C1233.33,-171.63 1238.54,-158.75 1231.12,-148.75 1214.73,-126.64 1195.69,-144.55 1171.88,-130.75 1130.8,-106.94 1137.17,-77.52 1094.12,-57.5 1053.22,-38.47 936.28,-28.8 856.22,-24.27"/>
<polygon fill="black" stroke="black" points="856.86,-20.8 846.69,-23.74 856.48,-27.79 856.86,-20.8"/>
<text xml:space="preserve" text-anchor="middle" x="1222.5" y="-105.58" font-family="Times,serif" font-size="14.00">DDG: abs(a &#45; b)</text>
</g>
<!-- 30064771658&#45;&gt;124554051627 -->
<g id="edge14" class="edge">
<title>30064771658&#45;&gt;124554051627</title>
<path fill="none" stroke="black" d="M1233.91,-182.26C1260.71,-159.43 1296.65,-120.53 1273.12,-91.25 1247.43,-59.27 990.74,-36.2 856.7,-26.23"/>
<polygon fill="black" stroke="black" points="857.04,-22.75 846.81,-25.5 856.53,-29.73 857.04,-22.75"/>
<text xml:space="preserve" text-anchor="middle" x="1307.75" y="-105.58" font-family="Times,serif" font-size="14.00">DDG: tol</text>
</g>
<!-- 30064771658&#45;&gt;124554051627 -->
<g id="edge15" class="edge">
<title>30064771658&#45;&gt;124554051627</title>
<path fill="none" stroke="black" d="M1262.94,-182.02C1310.46,-162.03 1368.05,-128.5 1339.12,-91.25 1309.98,-53.71 1004.87,-32.71 856.4,-24.64"/>
<polygon fill="black" stroke="black" points="856.81,-21.16 846.63,-24.12 856.43,-28.15 856.81,-21.16"/>
<text xml:space="preserve" text-anchor="middle" x="1417.77" y="-105.58" font-family="Times,serif" font-size="14.00">DDG: abs(a &#45; b) &lt; tol</text>
</g>
<!-- 30064771658&#45;&gt;141733920809 -->
<g id="edge24" class="edge">
<title>30064771658&#45;&gt;141733920809</title>
<path fill="none" stroke="black" d="M1148.84,-182.1C1104.95,-168.16 1045.35,-149.23 999.15,-134.56"/>
<polygon fill="black" stroke="black" points="1000.34,-131.26 989.75,-131.57 998.22,-137.94 1000.34,-131.26"/>
<text xml:space="preserve" text-anchor="middle" x="1156.32" y="-151.2" font-family="Times,serif" font-size="14.00">DDG: abs(a &#45; b) &lt; tol</text>
</g>
<!-- 30064771651&#45;&gt;30064771659 -->
<g id="edge25" class="edge">
<title>30064771651&#45;&gt;30064771659</title>
<path fill="none" stroke="black" d="M343.79,-820.85C343.5,-802.78 343.12,-774.92 343.12,-750.75 343.12,-750.75 343.12,-750.75 343.12,-475 343.12,-452.95 332.04,-430.8 320.87,-414.09"/>
<polygon fill="black" stroke="black" points="323.88,-412.28 315.25,-406.15 318.17,-416.33 323.88,-412.28"/>
<text xml:space="preserve" text-anchor="middle" x="363.38" y="-607.45" font-family="Times,serif" font-size="14.00">DDG: a</text>
</g>
<!-- 30064771651&#45;&gt;30064771652 -->
<g id="edge29" class="edge">
<title>30064771651&#45;&gt;30064771652</title>
<path fill="none" stroke="black" d="M382.94,-822.32C407.49,-811.5 440.07,-797.8 469.62,-787.5 485.76,-781.88 503.24,-776.49 520,-771.65"/>
<polygon fill="black" stroke="black" points="520.77,-775.07 529.44,-768.97 518.86,-768.34 520.77,-775.07"/>
<text xml:space="preserve" text-anchor="middle" x="489.88" y="-789.95" font-family="Times,serif" font-size="14.00">DDG: a</text>
</g>
<!-- 30064771651&#45;&gt;30064771656 -->
<g id="edge49" class="edge">
<title>30064771651&#45;&gt;30064771656</title>
<path fill="none" stroke="black" d="M339.15,-821.06C331.3,-792.78 314.47,-738.36 291.12,-696.25 270.54,-659.12 256.17,-656.07 232.62,-620.75 185.04,-549.36 137.33,-460.07 113.94,-414.87"/>
<polygon fill="black" stroke="black" points="117.18,-413.51 109.49,-406.22 110.96,-416.71 117.18,-413.51"/>
<text xml:space="preserve" text-anchor="middle" x="252.88" y="-607.45" font-family="Times,serif" font-size="14.00">DDG: a</text>
</g>
<!-- 30064771653&#45;&gt;30064771659 -->
<g id="edge28" class="edge">
<title>30064771653&#45;&gt;30064771659</title>
<path fill="none" stroke="black" d="M420.43,-638.47C410.55,-588.97 382.45,-457.57 356.12,-422.5 353.27,-418.69 349.89,-415.18 346.22,-411.96"/>
<polygon fill="black" stroke="black" points="348.49,-409.29 338.45,-405.91 344.19,-414.81 348.49,-409.29"/>
<text xml:space="preserve" text-anchor="middle" x="415.73" y="-516.2" font-family="Times,serif" font-size="14.00">DDG: b</text>
</g>
<!-- 30064771653&#45;&gt;30064771654 -->
<g id="edge32" class="edge">
<title>30064771653&#45;&gt;30064771654</title>
<path fill="none" stroke="black" d="M422.37,-638.36C422.45,-627.05 424.7,-613.36 433.62,-605 451.01,-588.72 586.02,-577.92 675.76,-572.46"/>
<polygon fill="black" stroke="black" points="675.72,-575.97 685.5,-571.88 675.31,-568.98 675.72,-575.97"/>
<text xml:space="preserve" text-anchor="middle" x="453.88" y="-607.45" font-family="Times,serif" font-size="14.00">DDG: b</text>
</g>
<!-- 30064771653&#45;&gt;30064771656 -->
<g id="edge52" class="edge">
<title>30064771653&#45;&gt;30064771656</title>
<path fill="none" stroke="black" d="M385.57,-649.65C347.79,-640.27 290.45,-621.36 252.12,-587 187.73,-529.26 206.8,-486.05 148.12,-422.5 144.75,-418.84 140.97,-415.29 137.04,-411.93"/>
<polygon fill="black" stroke="black" points="139.49,-409.41 129.5,-405.87 135.1,-414.86 139.49,-409.41"/>
<text xml:space="preserve" text-anchor="middle" x="227.64" y="-516.2" font-family="Times,serif" font-size="14.00">DDG: b</text>
</g>
<!-- 30064771657&#45;&gt;124554051627 -->
<g id="edge12" class="edge">
<title>30064771657&#45;&gt;124554051627</title>
<path fill="none" stroke="black" d="M170.87,-273.6C168.7,-263.63 166.94,-251.19 168.12,-240 177.57,-150.64 176.36,-100.75 255.12,-57.5 292.72,-36.86 559.27,-26.66 695.86,-22.74"/>
<polygon fill="black" stroke="black" points="695.65,-26.24 705.55,-22.46 695.45,-19.25 695.65,-26.24"/>
<text xml:space="preserve" text-anchor="middle" x="213.89" y="-151.2" font-family="Times,serif" font-size="14.00">DDG: a &#45; b</text>
</g>
<!-- 30064771657&#45;&gt;30064771658 -->
<g id="edge42" class="edge">
<title>30064771657&#45;&gt;30064771658</title>
<path fill="none" stroke="black" d="M171.7,-273.39C170.31,-262.09 170.97,-248.39 179.62,-240 212.6,-208.03 855.82,-203.7 1108.47,-203.24"/>
<polygon fill="black" stroke="black" points="1108.34,-206.74 1118.33,-203.23 1108.32,-199.74 1108.34,-206.74"/>
<text xml:space="preserve" text-anchor="middle" x="213.38" y="-242.45" font-family="Times,serif" font-size="14.00">DDG: a &#45; b</text>
</g>
<!-- 30064771656&#45;&gt;124554051627 -->
<g id="edge10" class="edge">
<title>30064771656&#45;&gt;124554051627</title>
<path fill="none" stroke="black" d="M56.58,-364.63C30.52,-349.72 2.12,-326.19 2.12,-294.5 2.12,-294.5 2.12,-294.5 2.12,-110 2.12,-73.55 31.19,-70.79 65.12,-57.5 122.5,-35.04 521.84,-25.27 695.63,-22.05"/>
<polygon fill="black" stroke="black" points="695.55,-25.55 705.48,-21.87 695.42,-18.55 695.55,-25.55"/>
<text xml:space="preserve" text-anchor="middle" x="22.38" y="-196.82" font-family="Times,serif" font-size="14.00">DDG: a</text>
</g>
<!-- 30064771656&#45;&gt;124554051627 -->
<g id="edge11" class="edge">
<title>30064771656&#45;&gt;124554051627</title>
<path fill="none" stroke="black" d="M92.24,-364.53C86.46,-346.64 79.12,-319.11 79.12,-294.5 79.12,-294.5 79.12,-294.5 79.12,-110 79.12,-48.45 512.22,-28.48 695.62,-22.78"/>
<polygon fill="black" stroke="black" points="695.66,-26.28 705.55,-22.48 695.45,-19.29 695.66,-26.28"/>
<text xml:space="preserve" text-anchor="middle" x="99.38" y="-196.82" font-family="Times,serif" font-size="14.00">DDG: b</text>
</g>
<!-- 30064771656&#45;&gt;30064771657 -->
<g id="edge47" class="edge">
<title>30064771656&#45;&gt;30064771657</title>
<path fill="none" stroke="black" d="M100.85,-364.7C102.63,-353.98 106.26,-340.85 113.62,-331.25 116.85,-327.04 120.72,-323.22 124.91,-319.78"/>
<polygon fill="black" stroke="black" points="126.66,-322.83 132.68,-314.12 122.54,-317.18 126.66,-322.83"/>
<text xml:space="preserve" text-anchor="middle" x="133.88" y="-333.7" font-family="Times,serif" font-size="14.00">DDG: a</text>
</g>
<!-- 30064771656&#45;&gt;30064771657 -->
<g id="edge48" class="edge">
<title>30064771656&#45;&gt;30064771657</title>
<path fill="none" stroke="black" d="M134.51,-364.58C141.66,-359.55 148.65,-353.65 154.12,-347 159.55,-340.42 163.82,-332.3 167.09,-324.44"/>
<polygon fill="black" stroke="black" points="170.36,-325.69 170.55,-315.1 163.8,-323.26 170.36,-325.69"/>
<text xml:space="preserve" text-anchor="middle" x="184.26" y="-333.7" font-family="Times,serif" font-size="14.00">DDG: b</text>
</g>
<!-- 30064771079 -->
<g id="node20" class="node">
<title>30064771079</title>
<polygon fill="none" stroke="black" points="645.25,-859 555,-859 555,-823 645.25,-823 645.25,-859"/>
<text xml:space="preserve" text-anchor="middle" x="600.12" y="-835.58" font-family="Times,serif" font-size="14.00">30064771079</text>
</g>
<!-- 30064771079&#45;&gt;30064771652 -->
<g id="edge30" class="edge">
<title>30064771079&#45;&gt;30064771652</title>
<path fill="none" stroke="black" d="M600.12,-822.79C600.12,-811.04 600.12,-795.14 600.12,-781.27"/>
<polygon fill="black" stroke="black" points="603.63,-781.27 600.13,-771.27 596.63,-781.27 603.63,-781.27"/>
<text xml:space="preserve" text-anchor="middle" x="633.88" y="-789.95" font-family="Times,serif" font-size="14.00">DDG: float</text>
</g>
<!-- 30064771081 -->
<g id="node21" class="node">
<title>30064771081</title>
<polygon fill="none" stroke="black" points="1427.25,-1081 1337,-1081 1337,-1045 1427.25,-1045 1427.25,-1081"/>
<text xml:space="preserve" text-anchor="middle" x="1382.12" y="-1057.58" font-family="Times,serif" font-size="14.00">30064771081</text>
</g>
<!-- 30064771081&#45;&gt;68719477279 -->
<g id="edge35" class="edge">
<title>30064771081&#45;&gt;68719477279</title>
<path fill="none" stroke="black" d="M1375.75,-1044.62C1371.71,-1034.22 1366.13,-1020.86 1360.12,-1009.5 1358.72,-1006.84 1357.19,-1004.13 1355.61,-1001.42"/>
<polygon fill="black" stroke="black" points="1358.71,-999.78 1350.5,-993.07 1352.74,-1003.43 1358.71,-999.78"/>
<text xml:space="preserve" text-anchor="middle" x="1397.98" y="-1011.95" font-family="Times,serif" font-size="14.00">DDG: type</text>
</g>
<!-- 30064771072 -->
<g id="node22" class="node">
<title>30064771072</title>
<polygon fill="none" stroke="black" points="1535.25,-1081 1445,-1081 1445,-1045 1535.25,-1045 1535.25,-1081"/>
<text xml:space="preserve" text-anchor="middle" x="1490.12" y="-1057.58" font-family="Times,serif" font-size="14.00">30064771072</text>
</g>
<!-- 30064771072&#45;&gt;68719477286 -->
<g id="edge45" class="edge">
<title>30064771072&#45;&gt;68719477286</title>
<path fill="none" stroke="black" d="M1488.69,-1044.64C1487.74,-1033.1 1486.46,-1017.48 1485.28,-1003.13"/>
<polygon fill="black" stroke="black" points="1488.79,-1003.18 1484.48,-993.5 1481.82,-1003.75 1488.79,-1003.18"/>
<text xml:space="preserve" text-anchor="middle" x="1514.08" y="-1011.95" font-family="Times,serif" font-size="14.00">DDG: abs</text>
</g>
</g>
</svg>
