<?xml version="1.0" encoding="UTF-8" standalone="no"?>
<!DOCTYPE svg PUBLIC "-//W3C//DTD SVG 1.1//EN"
 "http://www.w3.org/Graphics/SVG/1.1/DTD/svg11.dtd">
<!-- Generated by graphviz version 13.1.2 (20250809.0930)
 -->
<!-- Title: _assert_eq Pages: 1 -->
<svg width="2382pt" height="611pt"
 viewBox="0.00 0.00 2382.00 611.00" xmlns="http://www.w3.org/2000/svg" xmlns:xlink="http://www.w3.org/1999/xlink">
<g id="graph0" class="graph" transform="scale(1 1) rotate(0) translate(4 606.75)">
<title>_assert_eq</title>
<polygon fill="white" stroke="none" points="-4,4 -4,-606.75 2378.36,-606.75 2378.36,4 -4,4"/>
<!-- 107374182444 -->
<g id="node1" class="node">
<title>107374182444</title>
<polygon fill="none" stroke="black" points="1247.5,-602.75 1157.25,-602.75 1157.25,-563.25 1247.5,-563.25 1247.5,-602.75"/>
<text xml:space="preserve" text-anchor="start" x="1165.25" y="-585.45" font-family="Times,serif" font-size="14.00">METHOD, 372</text>
<text xml:space="preserve" text-anchor="start" x="1168.62" y="-569.7" font-family="Times,serif" font-size="14.00">_assert_eq</text>
</g>
<!-- 111669149769 -->
<g id="node3" class="node">
<title>111669149769</title>
<polygon fill="none" stroke="black" points="2010.12,-404.5 1926.62,-404.5 1926.62,-365 2010.12,-365 2010.12,-404.5"/>
<text xml:space="preserve" text-anchor="start" x="1934.62" y="-387.2" font-family="Times,serif" font-size="14.00">PARAM, 372</text>
<text xml:space="preserve" text-anchor="start" x="1965" y="-371.45" font-family="Times,serif" font-size="14.00">r</text>
</g>
<!-- 107374182444&#45;&gt;111669149769 -->
<g id="edge7" class="edge">
<title>107374182444&#45;&gt;111669149769</title>
<path fill="none" stroke="black" d="M1247.98,-582.51C1396.11,-583.78 1857.31,-584.5 1910.38,-545.25 1951.2,-515.05 1963.34,-453.22 1966.92,-416.04"/>
<polygon fill="black" stroke="black" points="1970.38,-416.66 1967.69,-406.41 1963.4,-416.1 1970.38,-416.66"/>
<text xml:space="preserve" text-anchor="middle" x="1976.96" y="-478.45" font-family="Times,serif" font-size="14.00">DDG: </text>
</g>
<!-- 111669149770 -->
<g id="node4" class="node">
<title>111669149770</title>
<polygon fill="none" stroke="black" points="2112.12,-404.5 2028.62,-404.5 2028.62,-365 2112.12,-365 2112.12,-404.5"/>
<text xml:space="preserve" text-anchor="start" x="2036.62" y="-387.2" font-family="Times,serif" font-size="14.00">PARAM, 372</text>
<text xml:space="preserve" text-anchor="start" x="2056.88" y="-371.45" font-family="Times,serif" font-size="14.00">name</text>
</g>
<!-- 107374182444&#45;&gt;111669149770 -->
<g id="edge8" class="edge">
<title>107374182444&#45;&gt;111669149770</title>
<path fill="none" stroke="black" d="M1247.66,-582.23C1386.14,-582.55 1802.39,-580.47 1932.38,-545.25 1963.79,-536.74 1973.82,-533.97 1997.38,-511.5 2026.11,-484.09 2047.1,-442.87 2059.01,-415.18"/>
<polygon fill="black" stroke="black" points="2062.23,-416.55 2062.83,-405.97 2055.76,-413.86 2062.23,-416.55"/>
<text xml:space="preserve" text-anchor="middle" x="2055.03" y="-478.45" font-family="Times,serif" font-size="14.00">DDG: </text>
</g>
<!-- 111669149771 -->
<g id="node5" class="node">
<title>111669149771</title>
<polygon fill="none" stroke="black" points="1008.12,-503.62 924.62,-503.62 924.62,-464.12 1008.12,-464.12 1008.12,-503.62"/>
<text xml:space="preserve" text-anchor="start" x="932.62" y="-486.32" font-family="Times,serif" font-size="14.00">PARAM, 372</text>
<text xml:space="preserve" text-anchor="start" x="956.25" y="-470.57" font-family="Times,serif" font-size="14.00">got</text>
</g>
<!-- 107374182444&#45;&gt;111669149771 -->
<g id="edge9" class="edge">
<title>107374182444&#45;&gt;111669149771</title>
<path fill="none" stroke="black" d="M1156.92,-566.8C1118.8,-553.57 1063.23,-533.17 1016.38,-511.5 1014.66,-510.71 1012.91,-509.88 1011.16,-509.03"/>
<polygon fill="black" stroke="black" points="1012.96,-506.02 1002.45,-504.68 1009.83,-512.28 1012.96,-506.02"/>
<text xml:space="preserve" text-anchor="middle" x="1113.82" y="-531.95" font-family="Times,serif" font-size="14.00">DDG: </text>
</g>
<!-- 111669149772 -->
<g id="node6" class="node">
<title>111669149772</title>
<polygon fill="none" stroke="black" points="1244.12,-503.62 1160.62,-503.62 1160.62,-464.12 1244.12,-464.12 1244.12,-503.62"/>
<text xml:space="preserve" text-anchor="start" x="1168.62" y="-486.32" font-family="Times,serif" font-size="14.00">PARAM, 372</text>
<text xml:space="preserve" text-anchor="start" x="1175.38" y="-470.57" font-family="Times,serif" font-size="14.00">expected</text>
</g>
<!-- 107374182444&#45;&gt;111669149772 -->
<g id="edge10" class="edge">
<title>107374182444&#45;&gt;111669149772</title>
<path fill="none" stroke="black" d="M1202.38,-562.81C1202.38,-549.24 1202.38,-530.77 1202.38,-515.22"/>
<polygon fill="black" stroke="black" points="1205.88,-515.54 1202.38,-505.54 1198.88,-515.54 1205.88,-515.54"/>
<text xml:space="preserve" text-anchor="middle" x="1219.25" y="-531.95" font-family="Times,serif" font-size="14.00">DDG: </text>
</g>
<!-- 30064771661 -->
<g id="node7" class="node">
<title>30064771661</title>
<polygon fill="none" stroke="black" points="1164.75,-404.5 980,-404.5 980,-365 1164.75,-365 1164.75,-404.5"/>
<text xml:space="preserve" text-anchor="start" x="1021.75" y="-387.2" font-family="Times,serif" font-size="14.00">_approx_eq, 373</text>
<text xml:space="preserve" text-anchor="start" x="988" y="-371.45" font-family="Times,serif" font-size="14.00">_approx_eq(got, expected)</text>
</g>
<!-- 107374182444&#45;&gt;30064771661 -->
<g id="edge14" class="edge">
<title>107374182444&#45;&gt;30064771661</title>
<path fill="none" stroke="black" d="M1225.42,-562.84C1230.83,-557.55 1236.22,-551.52 1240.38,-545.25 1249.25,-531.85 1250.44,-527.3 1253.38,-511.5 1260.79,-471.64 1266.13,-446.39 1233.38,-422.5 1216.59,-410.26 1196.4,-402 1176.09,-396.45"/>
<polygon fill="black" stroke="black" points="1177.16,-393.11 1166.61,-394.09 1175.46,-399.91 1177.16,-393.11"/>
<text xml:space="preserve" text-anchor="middle" x="1275.85" y="-478.45" font-family="Times,serif" font-size="14.00">DDG: </text>
</g>
<!-- 68719477293 -->
<g id="node8" class="node">
<title>68719477293</title>
<polygon fill="none" stroke="black" points="184.75,-511.5 0,-511.5 0,-456.25 184.75,-456.25 184.75,-511.5"/>
<text xml:space="preserve" text-anchor="start" x="41.75" y="-494.2" font-family="Times,serif" font-size="14.00">IDENTIFIER, 373</text>
<text xml:space="preserve" text-anchor="start" x="58.62" y="-478.45" font-family="Times,serif" font-size="14.00">_approx_eq</text>
<text xml:space="preserve" text-anchor="start" x="8" y="-462.7" font-family="Times,serif" font-size="14.00">_approx_eq(got, expected)</text>
</g>
<!-- 107374182444&#45;&gt;68719477293 -->
<g id="edge12" class="edge">
<title>107374182444&#45;&gt;68719477293</title>
<path fill="none" stroke="black" d="M1156.93,-581.82C972.21,-580.91 283.09,-575.47 190.62,-545.25 178.76,-541.37 177.91,-536.19 167.38,-529.5 161.19,-525.57 154.66,-521.53 148.15,-517.56"/>
<polygon fill="black" stroke="black" points="150.31,-514.78 139.94,-512.61 146.69,-520.78 150.31,-514.78"/>
<text xml:space="preserve" text-anchor="middle" x="207.5" y="-531.95" font-family="Times,serif" font-size="14.00">DDG: </text>
</g>
<!-- 30064771663 -->
<g id="node9" class="node">
<title>30064771663</title>
<polygon fill="none" stroke="black" points="1992.12,-313.25 1908.62,-313.25 1908.62,-273.75 1992.12,-273.75 1992.12,-313.25"/>
<text xml:space="preserve" text-anchor="start" x="1926.75" y="-295.95" font-family="Times,serif" font-size="14.00">ok, 374</text>
<text xml:space="preserve" text-anchor="start" x="1916.62" y="-280.2" font-family="Times,serif" font-size="14.00">r.ok(name)</text>
</g>
<!-- 107374182444&#45;&gt;30064771663 -->
<g id="edge17" class="edge">
<title>107374182444&#45;&gt;30064771663</title>
<path fill="none" stroke="black" d="M1247.81,-571.74C1360.21,-545.22 1658.44,-467.92 1882.38,-347 1895.73,-339.79 1909.22,-330.01 1920.62,-320.85"/>
<polygon fill="black" stroke="black" points="1922.63,-323.73 1928.11,-314.66 1918.17,-318.33 1922.63,-323.73"/>
<text xml:space="preserve" text-anchor="middle" x="1734.67" y="-424.95" font-family="Times,serif" font-size="14.00">DDG: </text>
</g>
<!-- 30064771670 -->
<g id="node10" class="node">
<title>30064771670</title>
<polygon fill="none" stroke="black" points="2077.12,-39.5 1723.62,-39.5 1723.62,0 2077.12,0 2077.12,-39.5"/>
<text xml:space="preserve" text-anchor="start" x="1870" y="-22.2" font-family="Times,serif" font-size="14.00">fail, 376</text>
<text xml:space="preserve" text-anchor="start" x="1731.62" y="-6.45" font-family="Times,serif" font-size="14.00">r.fail(name, f&quot;got {repr(got)}, expected {repr(...</text>
</g>
<!-- 107374182444&#45;&gt;30064771670 -->
<g id="edge20" class="edge">
<title>107374182444&#45;&gt;30064771670</title>
<path fill="none" stroke="black" d="M1247.94,-582.52C1446.27,-584.19 2224.38,-584.41 2224.38,-484.88 2224.38,-484.88 2224.38,-484.88 2224.38,-110 2224.38,-76.7 2159.97,-55.35 2088.58,-41.92"/>
<polygon fill="black" stroke="black" points="2089.5,-38.53 2079.03,-40.18 2088.24,-45.42 2089.5,-38.53"/>
<text xml:space="preserve" text-anchor="middle" x="2241.25" y="-288.07" font-family="Times,serif" font-size="14.00">DDG: </text>
</g>
<!-- 30064771668 -->
<g id="node11" class="node">
<title>30064771668</title>
<polygon fill="none" stroke="black" points="1357.25,-130.75 1037.5,-130.75 1037.5,-91.25 1357.25,-91.25 1357.25,-130.75"/>
<text xml:space="preserve" text-anchor="start" x="1102.88" y="-113.45" font-family="Times,serif" font-size="14.00">&lt;operator&gt;.formatString, 376</text>
<text xml:space="preserve" text-anchor="start" x="1045.5" y="-97.7" font-family="Times,serif" font-size="14.00">f&quot;got {repr(got)}, expected {repr(expected)}&quot;</text>
</g>
<!-- 107374182444&#45;&gt;30064771668 -->
<g id="edge26" class="edge">
<title>107374182444&#45;&gt;30064771668</title>
<path fill="none" stroke="black" d="M1156.85,-582.25C965.77,-582.73 238.38,-578.39 238.38,-484.88 238.38,-484.88 238.38,-484.88 238.38,-201.25 238.38,-129.78 320.18,-162.18 390.38,-148.75 507.66,-126.31 825.96,-117.46 1025.98,-114.05"/>
<polygon fill="black" stroke="black" points="1025.74,-117.56 1035.68,-113.89 1025.62,-110.56 1025.74,-117.56"/>
<text xml:space="preserve" text-anchor="middle" x="255.25" y="-333.7" font-family="Times,serif" font-size="14.00">DDG: </text>
</g>
<!-- 68719477299 -->
<g id="node14" class="node">
<title>68719477299</title>
<polygon fill="none" stroke="black" points="2371,-511.5 2253.75,-511.5 2253.75,-456.25 2371,-456.25 2371,-511.5"/>
<text xml:space="preserve" text-anchor="start" x="2261.75" y="-494.2" font-family="Times,serif" font-size="14.00">IDENTIFIER, 376</text>
<text xml:space="preserve" text-anchor="start" x="2298.88" y="-478.45" font-family="Times,serif" font-size="14.00">repr</text>
<text xml:space="preserve" text-anchor="start" x="2282" y="-462.7" font-family="Times,serif" font-size="14.00">repr(got)</text>
</g>
<!-- 107374182444&#45;&gt;68719477299 -->
<g id="edge32" class="edge">
<title>107374182444&#45;&gt;68719477299</title>
<path fill="none" stroke="black" d="M1247.88,-582.04C1435.29,-581.96 2141.93,-579.39 2235.38,-545.25 2250.78,-539.62 2265.52,-529.65 2277.91,-519.41"/>
<polygon fill="black" stroke="black" points="2280.08,-522.16 2285.34,-512.96 2275.49,-516.87 2280.08,-522.16"/>
<text xml:space="preserve" text-anchor="middle" x="2280.41" y="-531.95" font-family="Times,serif" font-size="14.00">DDG: </text>
</g>
<!-- 30064771664 -->
<g id="node15" class="node">
<title>30064771664</title>
<polygon fill="none" stroke="black" points="582.75,-313.25 506,-313.25 506,-273.75 582.75,-273.75 582.75,-313.25"/>
<text xml:space="preserve" text-anchor="start" x="514" y="-295.95" font-family="Times,serif" font-size="14.00">repr, 376</text>
<text xml:space="preserve" text-anchor="start" x="514" y="-280.2" font-family="Times,serif" font-size="14.00">repr(got)</text>
</g>
<!-- 107374182444&#45;&gt;30064771664 -->
<g id="edge34" class="edge">
<title>107374182444&#45;&gt;30064771664</title>
<path fill="none" stroke="black" d="M1156.77,-576.45C996.34,-555.91 462.32,-478.46 364.38,-347 360.19,-341.39 359.76,-336.51 364.38,-331.25 382.69,-310.38 455.72,-319.25 494.57,-314.12"/>
<polygon fill="black" stroke="black" points="495.01,-317.6 504.16,-312.26 493.68,-310.73 495.01,-317.6"/>
<text xml:space="preserve" text-anchor="middle" x="527.1" y="-424.95" font-family="Times,serif" font-size="14.00">DDG: </text>
</g>
<!-- 68719477301 -->
<g id="node16" class="node">
<title>68719477301</title>
<polygon fill="none" stroke="black" points="1143,-511.5 1025.75,-511.5 1025.75,-456.25 1143,-456.25 1143,-511.5"/>
<text xml:space="preserve" text-anchor="start" x="1033.75" y="-494.2" font-family="Times,serif" font-size="14.00">IDENTIFIER, 376</text>
<text xml:space="preserve" text-anchor="start" x="1070.88" y="-478.45" font-family="Times,serif" font-size="14.00">repr</text>
<text xml:space="preserve" text-anchor="start" x="1037.12" y="-462.7" font-family="Times,serif" font-size="14.00">repr(expected)</text>
</g>
<!-- 107374182444&#45;&gt;68719477301 -->
<g id="edge35" class="edge">
<title>107374182444&#45;&gt;68719477301</title>
<path fill="none" stroke="black" d="M1179.06,-562.81C1163.82,-550.27 1143.5,-533.54 1125.59,-518.8"/>
<polygon fill="black" stroke="black" points="1128.13,-516.36 1118.19,-512.71 1123.68,-521.76 1128.13,-516.36"/>
<text xml:space="preserve" text-anchor="middle" x="1174.29" y="-531.95" font-family="Times,serif" font-size="14.00">DDG: </text>
</g>
<!-- 30064771666 -->
<g id="node17" class="node">
<title>30064771666</title>
<polygon fill="none" stroke="black" points="418.62,-313.25 308.12,-313.25 308.12,-273.75 418.62,-273.75 418.62,-313.25"/>
<text xml:space="preserve" text-anchor="start" x="333" y="-295.95" font-family="Times,serif" font-size="14.00">repr, 376</text>
<text xml:space="preserve" text-anchor="start" x="316.12" y="-280.2" font-family="Times,serif" font-size="14.00">repr(expected)</text>
</g>
<!-- 107374182444&#45;&gt;30064771666 -->
<g id="edge37" class="edge">
<title>107374182444&#45;&gt;30064771666</title>
<path fill="none" stroke="black" d="M1157.16,-579.4C1031.05,-571.78 677.49,-547.7 567.38,-511.5 476.41,-481.6 443.21,-476.75 380.38,-404.5 357.98,-378.75 354.62,-365.26 357.38,-331.25 357.54,-329.17 357.77,-327.02 358.03,-324.87"/>
<polygon fill="black" stroke="black" points="361.48,-325.4 359.45,-315 354.56,-324.39 361.48,-325.4"/>
<text xml:space="preserve" text-anchor="middle" x="429.57" y="-424.95" font-family="Times,serif" font-size="14.00">DDG: </text>
</g>
<!-- 124554051628 -->
<g id="node2" class="node">
<title>124554051628</title>
<polygon fill="none" stroke="black" points="1819.12,-222 1681.62,-222 1681.62,-182.5 1819.12,-182.5 1819.12,-222"/>
<text xml:space="preserve" text-anchor="start" x="1689.62" y="-204.7" font-family="Times,serif" font-size="14.00">METHOD_RETURN, 372</text>
<text xml:space="preserve" text-anchor="start" x="1740.25" y="-188.95" font-family="Times,serif" font-size="14.00">ANY</text>
</g>
<!-- 111669149769&#45;&gt;30064771663 -->
<g id="edge16" class="edge">
<title>111669149769&#45;&gt;30064771663</title>
<path fill="none" stroke="black" d="M1964.56,-364.82C1962.21,-353.19 1959.15,-338.02 1956.47,-324.74"/>
<polygon fill="black" stroke="black" points="1959.96,-324.3 1954.55,-315.19 1953.09,-325.69 1959.96,-324.3"/>
<text xml:space="preserve" text-anchor="middle" x="1980.7" y="-333.7" font-family="Times,serif" font-size="14.00">DDG: r</text>
</g>
<!-- 111669149769&#45;&gt;30064771670 -->
<g id="edge19" class="edge">
<title>111669149769&#45;&gt;30064771670</title>
<path fill="none" stroke="black" d="M1992.02,-364.52C2018.69,-340.5 2058.38,-296.73 2058.38,-248.88 2058.38,-248.88 2058.38,-248.88 2058.38,-110 2058.38,-78.02 2033.53,-57.36 2003.54,-44.09"/>
<polygon fill="black" stroke="black" points="2005.18,-40.98 1994.6,-40.43 2002.53,-47.46 2005.18,-40.98"/>
<text xml:space="preserve" text-anchor="middle" x="2078.62" y="-196.82" font-family="Times,serif" font-size="14.00">DDG: r</text>
</g>
<!-- 111669149770&#45;&gt;30064771663 -->
<g id="edge18" class="edge">
<title>111669149770&#45;&gt;30064771663</title>
<path fill="none" stroke="black" d="M2047.61,-364.52C2035.31,-354.36 2019.75,-341.82 2005.38,-331.25 2000.34,-327.55 1994.97,-323.76 1989.62,-320.09"/>
<polygon fill="black" stroke="black" points="1991.61,-317.21 1981.37,-314.51 1987.69,-323.01 1991.61,-317.21"/>
<text xml:space="preserve" text-anchor="middle" x="2055.82" y="-333.7" font-family="Times,serif" font-size="14.00">DDG: name</text>
</g>
<!-- 111669149770&#45;&gt;30064771670 -->
<g id="edge21" class="edge">
<title>111669149770&#45;&gt;30064771670</title>
<path fill="none" stroke="black" d="M2095.32,-364.65C2113.65,-348.27 2135.38,-322.87 2135.38,-294.5 2135.38,-294.5 2135.38,-294.5 2135.38,-110 2135.38,-80.98 2071.93,-58.02 2010.97,-42.66"/>
<polygon fill="black" stroke="black" points="2012.05,-39.32 2001.51,-40.33 2010.38,-46.12 2012.05,-39.32"/>
<text xml:space="preserve" text-anchor="middle" x="2165.75" y="-196.82" font-family="Times,serif" font-size="14.00">DDG: name</text>
</g>
<!-- 111669149771&#45;&gt;30064771661 -->
<g id="edge13" class="edge">
<title>111669149771&#45;&gt;30064771661</title>
<path fill="none" stroke="black" d="M987.32,-463.69C1003.29,-449.05 1025.48,-428.72 1043.19,-412.49"/>
<polygon fill="black" stroke="black" points="1045.35,-415.26 1050.36,-405.92 1040.62,-410.1 1045.35,-415.26"/>
<text xml:space="preserve" text-anchor="middle" x="1058.99" y="-424.95" font-family="Times,serif" font-size="14.00">DDG: got</text>
</g>
<!-- 111669149772&#45;&gt;30064771661 -->
<g id="edge15" class="edge">
<title>111669149772&#45;&gt;30064771661</title>
<path fill="none" stroke="black" d="M1176.69,-463.69C1156.75,-448.79 1128.9,-427.98 1106.99,-411.61"/>
<polygon fill="black" stroke="black" points="1109.32,-408.99 1099.22,-405.8 1105.13,-414.59 1109.32,-408.99"/>
<text xml:space="preserve" text-anchor="middle" x="1185.15" y="-424.95" font-family="Times,serif" font-size="14.00">DDG: expected</text>
</g>
<!-- 30064771661&#45;&gt;124554051628 -->
<g id="edge1" class="edge">
<title>30064771661&#45;&gt;124554051628</title>
<path fill="none" stroke="black" d="M1164.96,-383.62C1315.16,-381.7 1603.38,-370.42 1685.38,-313.25 1715.29,-292.39 1703.02,-270.91 1722.38,-240 1724.19,-237.1 1726.18,-234.15 1728.23,-231.24"/>
<polygon fill="black" stroke="black" points="1730.86,-233.57 1733.97,-223.45 1725.22,-229.42 1730.86,-233.57"/>
<text xml:space="preserve" text-anchor="middle" x="1736.41" y="-288.07" font-family="Times,serif" font-size="14.00">DDG: got</text>
</g>
<!-- 30064771661&#45;&gt;124554051628 -->
<g id="edge2" class="edge">
<title>30064771661&#45;&gt;124554051628</title>
<path fill="none" stroke="black" d="M1165.09,-381.63C1345.9,-376.48 1731.15,-360.08 1767.38,-313.25 1778.12,-299.36 1774.09,-289.97 1767.38,-273.75 1763.05,-263.3 1753.7,-266.2 1749.38,-255.75 1746.7,-249.28 1749.28,-247 1749.38,-240 1749.4,-237.94 1749.44,-235.81 1749.48,-233.66"/>
<polygon fill="black" stroke="black" points="1752.98,-233.92 1749.72,-223.84 1745.98,-233.75 1752.98,-233.92"/>
<text xml:space="preserve" text-anchor="middle" x="1817.88" y="-288.07" font-family="Times,serif" font-size="14.00">DDG: expected</text>
</g>
<!-- 30064771661&#45;&gt;124554051628 -->
<g id="edge3" class="edge">
<title>30064771661&#45;&gt;124554051628</title>
<path fill="none" stroke="black" d="M1115.37,-364.59C1127.41,-359.06 1140.47,-352.92 1152.38,-347 1180.82,-332.86 1188.68,-330.47 1215.38,-313.25 1239.61,-297.61 1240.3,-284.97 1266.88,-273.75 1400.49,-217.33 1571.3,-204.83 1670.02,-202.74"/>
<polygon fill="black" stroke="black" points="1669.95,-206.25 1679.89,-202.57 1669.83,-199.25 1669.95,-206.25"/>
<text xml:space="preserve" text-anchor="middle" x="1368.12" y="-288.07" font-family="Times,serif" font-size="14.00">DDG: _approx_eq(got, expected)</text>
</g>
<!-- 30064771661&#45;&gt;30064771663 -->
<g id="edge41" class="edge">
<title>30064771661&#45;&gt;30064771663</title>
<path fill="none" stroke="black" d="M1165.08,-383.81C1336.36,-383.16 1695.9,-378 1816.38,-347 1831.82,-343.03 1833.94,-337.47 1848.62,-331.25 1864.36,-324.59 1881.77,-318.02 1897.67,-312.32"/>
<polygon fill="black" stroke="black" points="1898.71,-315.66 1906.97,-309.02 1896.38,-309.06 1898.71,-315.66"/>
<text xml:space="preserve" text-anchor="middle" x="1865.5" y="-333.7" font-family="Times,serif" font-size="14.00">CDG: </text>
</g>
<!-- 30064771661&#45;&gt;30064771670 -->
<g id="edge48" class="edge">
<title>30064771661&#45;&gt;30064771670</title>
<path fill="none" stroke="black" d="M1165.12,-382.36C1348.22,-379.16 1750.15,-369.72 1886.38,-347 1899.51,-344.81 1992.76,-323.41 2001.38,-313.25 2018.02,-293.61 2006.82,-281.45 2008.38,-255.75 2008.8,-248.76 2009.45,-246.92 2008.38,-240 2007.08,-231.7 2004.62,-230.16 2002.62,-222 1985.02,-149.94 2018.67,-117 1974.38,-57.5 1971.3,-53.38 1967.64,-49.69 1963.62,-46.39"/>
<polygon fill="black" stroke="black" points="1965.72,-43.59 1955.54,-40.66 1961.67,-49.3 1965.72,-43.59"/>
<text xml:space="preserve" text-anchor="middle" x="2019.5" y="-196.82" font-family="Times,serif" font-size="14.00">CDG: </text>
</g>
<!-- 30064771661&#45;&gt;30064771668 -->
<g id="edge42" class="edge">
<title>30064771661&#45;&gt;30064771668</title>
<path fill="none" stroke="black" d="M979.59,-383.8C814.76,-383.09 477.58,-377.77 364.38,-347 332.96,-338.46 316.28,-341.07 299.38,-313.25 290.26,-298.25 296.56,-291.08 299.38,-273.75 306.39,-230.55 300.65,-207.78 336.38,-182.5 391.19,-143.72 790.58,-124.7 1025.69,-116.77"/>
<polygon fill="black" stroke="black" points="1025.71,-120.27 1035.59,-116.44 1025.48,-113.27 1025.71,-120.27"/>
<text xml:space="preserve" text-anchor="middle" x="320.48" y="-242.45" font-family="Times,serif" font-size="14.00">CDG: </text>
</g>
<!-- 30064771665 -->
<g id="node12" class="node">
<title>30064771665</title>
<polygon fill="none" stroke="black" points="1296.62,-222 1078.12,-222 1078.12,-182.5 1296.62,-182.5 1296.62,-222"/>
<text xml:space="preserve" text-anchor="start" x="1086.12" y="-204.7" font-family="Times,serif" font-size="14.00">&lt;operator&gt;.formattedValue, 376</text>
<text xml:space="preserve" text-anchor="start" x="1150.25" y="-188.95" font-family="Times,serif" font-size="14.00">{repr(got)}</text>
</g>
<!-- 30064771661&#45;&gt;30064771665 -->
<g id="edge39" class="edge">
<title>30064771661&#45;&gt;30064771665</title>
<path fill="none" stroke="black" d="M1105.83,-364.63C1124.55,-352.27 1146.79,-334.54 1160.38,-313.25 1175.78,-289.11 1182.4,-256.84 1185.24,-233.5"/>
<polygon fill="black" stroke="black" points="1188.7,-234.02 1186.25,-223.71 1181.74,-233.3 1188.7,-234.02"/>
<text xml:space="preserve" text-anchor="middle" x="1194.11" y="-288.07" font-family="Times,serif" font-size="14.00">CDG: </text>
</g>
<!-- 30064771667 -->
<g id="node13" class="node">
<title>30064771667</title>
<polygon fill="none" stroke="black" points="563.62,-222 345.12,-222 345.12,-182.5 563.62,-182.5 563.62,-222"/>
<text xml:space="preserve" text-anchor="start" x="353.12" y="-204.7" font-family="Times,serif" font-size="14.00">&lt;operator&gt;.formattedValue, 376</text>
<text xml:space="preserve" text-anchor="start" x="400.38" y="-188.95" font-family="Times,serif" font-size="14.00">{repr(expected)}</text>
</g>
<!-- 30064771661&#45;&gt;30064771667 -->
<g id="edge45" class="edge">
<title>30064771661&#45;&gt;30064771667</title>
<path fill="none" stroke="black" d="M979.71,-381.45C882.99,-377.92 727.18,-369.07 594.38,-347 586.97,-345.77 468.46,-318.98 463.62,-313.25 445.25,-291.48 445.1,-257.89 448.2,-233.56"/>
<polygon fill="black" stroke="black" points="451.62,-234.36 449.69,-223.95 444.7,-233.29 451.62,-234.36"/>
<text xml:space="preserve" text-anchor="middle" x="480.5" y="-288.07" font-family="Times,serif" font-size="14.00">CDG: </text>
</g>
<!-- 30064771661&#45;&gt;30064771664 -->
<g id="edge33" class="edge">
<title>30064771661&#45;&gt;30064771664</title>
<path fill="none" stroke="black" d="M979.93,-376.72C884.76,-368.01 732.46,-349.97 593.97,-313.36"/>
<polygon fill="black" stroke="black" points="595.2,-310.07 584.63,-310.86 593.38,-316.83 595.2,-310.07"/>
<text xml:space="preserve" text-anchor="middle" x="775.6" y="-333.7" font-family="Times,serif" font-size="14.00">DDG: got</text>
</g>
<!-- 30064771661&#45;&gt;30064771664 -->
<g id="edge38" class="edge">
<title>30064771661&#45;&gt;30064771664</title>
<path fill="none" stroke="black" d="M979.53,-380.96C869.77,-376.8 694.1,-367.18 631.62,-347 612.82,-340.93 593.8,-330.14 578.34,-319.92"/>
<polygon fill="black" stroke="black" points="580.68,-317.29 570.45,-314.54 576.73,-323.07 580.68,-317.29"/>
<text xml:space="preserve" text-anchor="middle" x="648.5" y="-333.7" font-family="Times,serif" font-size="14.00">CDG: </text>
</g>
<!-- 30064771661&#45;&gt;30064771666 -->
<g id="edge36" class="edge">
<title>30064771661&#45;&gt;30064771666</title>
<path fill="none" stroke="black" d="M979.73,-381.67C796.14,-377.15 401.78,-365.36 378.62,-347 371.77,-341.57 367.88,-333.25 365.7,-324.82"/>
<polygon fill="black" stroke="black" points="369.15,-324.24 363.94,-315.01 362.26,-325.47 369.15,-324.24"/>
<text xml:space="preserve" text-anchor="middle" x="422.5" y="-333.7" font-family="Times,serif" font-size="14.00">DDG: expected</text>
</g>
<!-- 30064771661&#45;&gt;30064771666 -->
<g id="edge44" class="edge">
<title>30064771661&#45;&gt;30064771666</title>
<path fill="none" stroke="black" d="M979.52,-383.81C838.54,-382.9 577.58,-377.05 489.62,-347 477.81,-342.97 477.51,-336.89 466.38,-331.25 454.85,-325.41 442.17,-320.08 429.77,-315.39"/>
<polygon fill="black" stroke="black" points="430.99,-312.11 420.4,-311.97 428.59,-318.69 430.99,-312.11"/>
<text xml:space="preserve" text-anchor="middle" x="506.5" y="-333.7" font-family="Times,serif" font-size="14.00">CDG: </text>
</g>
<!-- 30064771662 -->
<g id="node18" class="node">
<title>30064771662</title>
<polygon fill="none" stroke="black" points="799.5,-313.25 601.25,-313.25 601.25,-273.75 799.5,-273.75 799.5,-313.25"/>
<text xml:space="preserve" text-anchor="start" x="609.25" y="-295.95" font-family="Times,serif" font-size="14.00">&lt;operator&gt;.fieldAccess, 374</text>
<text xml:space="preserve" text-anchor="start" x="686.88" y="-280.2" font-family="Times,serif" font-size="14.00">r.ok</text>
</g>
<!-- 30064771661&#45;&gt;30064771662 -->
<g id="edge40" class="edge">
<title>30064771661&#45;&gt;30064771662</title>
<path fill="none" stroke="black" d="M992.57,-364.6C933.46,-350.42 852.83,-331.08 791.25,-316.3"/>
<polygon fill="black" stroke="black" points="792.38,-312.97 781.84,-314.04 790.75,-319.78 792.38,-312.97"/>
<text xml:space="preserve" text-anchor="middle" x="925.52" y="-333.7" font-family="Times,serif" font-size="14.00">CDG: </text>
</g>
<!-- 30064771669 -->
<g id="node19" class="node">
<title>30064771669</title>
<polygon fill="none" stroke="black" points="1676.5,-313.25 1478.25,-313.25 1478.25,-273.75 1676.5,-273.75 1676.5,-313.25"/>
<text xml:space="preserve" text-anchor="start" x="1486.25" y="-295.95" font-family="Times,serif" font-size="14.00">&lt;operator&gt;.fieldAccess, 376</text>
<text xml:space="preserve" text-anchor="start" x="1557.12" y="-280.2" font-family="Times,serif" font-size="14.00">r.fail</text>
</g>
<!-- 30064771661&#45;&gt;30064771669 -->
<g id="edge43" class="edge">
<title>30064771661&#45;&gt;30064771669</title>
<path fill="none" stroke="black" d="M1165,-367.38C1250.15,-352.33 1376.5,-330 1466.88,-314.03"/>
<polygon fill="black" stroke="black" points="1467.27,-317.51 1476.5,-312.33 1466.05,-310.62 1467.27,-317.51"/>
<text xml:space="preserve" text-anchor="middle" x="1371.99" y="-333.7" font-family="Times,serif" font-size="14.00">CDG: </text>
</g>
<!-- 55834574980 -->
<g id="node20" class="node">
<title>55834574980</title>
<polygon fill="none" stroke="black" points="975.25,-313.25 817.5,-313.25 817.5,-273.75 975.25,-273.75 975.25,-313.25"/>
<text xml:space="preserve" text-anchor="start" x="825.5" y="-295.95" font-family="Times,serif" font-size="14.00">FIELD_IDENTIFIER, 374</text>
<text xml:space="preserve" text-anchor="start" x="889.62" y="-280.2" font-family="Times,serif" font-size="14.00">ok</text>
</g>
<!-- 30064771661&#45;&gt;55834574980 -->
<g id="edge46" class="edge">
<title>30064771661&#45;&gt;55834574980</title>
<path fill="none" stroke="black" d="M1034.62,-364.6C1008.17,-351.19 972.62,-333.16 944.19,-318.75"/>
<polygon fill="black" stroke="black" points="945.92,-315.7 935.42,-314.3 942.75,-321.94 945.92,-315.7"/>
<text xml:space="preserve" text-anchor="middle" x="1011.79" y="-333.7" font-family="Times,serif" font-size="14.00">CDG: </text>
</g>
<!-- 55834574981 -->
<g id="node21" class="node">
<title>55834574981</title>
<polygon fill="none" stroke="black" points="1151.25,-313.25 993.5,-313.25 993.5,-273.75 1151.25,-273.75 1151.25,-313.25"/>
<text xml:space="preserve" text-anchor="start" x="1001.5" y="-295.95" font-family="Times,serif" font-size="14.00">FIELD_IDENTIFIER, 376</text>
<text xml:space="preserve" text-anchor="start" x="1058.88" y="-280.2" font-family="Times,serif" font-size="14.00">fail</text>
</g>
<!-- 30064771661&#45;&gt;55834574981 -->
<g id="edge47" class="edge">
<title>30064771661&#45;&gt;55834574981</title>
<path fill="none" stroke="black" d="M1072.38,-364.82C1072.38,-353.3 1072.38,-338.32 1072.38,-325.15"/>
<polygon fill="black" stroke="black" points="1075.88,-325.22 1072.38,-315.22 1068.88,-325.22 1075.88,-325.22"/>
<text xml:space="preserve" text-anchor="middle" x="1089.25" y="-333.7" font-family="Times,serif" font-size="14.00">CDG: </text>
</g>
<!-- 30064771663&#45;&gt;124554051628 -->
<g id="edge4" class="edge">
<title>30064771663&#45;&gt;124554051628</title>
<path fill="none" stroke="black" d="M1919.6,-273.41C1910.63,-267.77 1900.83,-261.56 1891.88,-255.75 1881.33,-248.91 1879.72,-245.43 1868.38,-240 1856.35,-234.25 1843.22,-229.13 1830.22,-224.66"/>
<polygon fill="black" stroke="black" points="1831.39,-221.36 1820.8,-221.55 1829.19,-228.01 1831.39,-221.36"/>
<text xml:space="preserve" text-anchor="middle" x="1912.12" y="-242.45" font-family="Times,serif" font-size="14.00">DDG: r</text>
</g>
<!-- 30064771663&#45;&gt;124554051628 -->
<g id="edge5" class="edge">
<title>30064771663&#45;&gt;124554051628</title>
<path fill="none" stroke="black" d="M1948.53,-273.38C1946.42,-262.08 1941.94,-248.39 1932.38,-240 1917,-226.52 1872.17,-217.37 1830.85,-211.58"/>
<polygon fill="black" stroke="black" points="1831.47,-208.13 1821.1,-210.27 1830.54,-215.07 1831.47,-208.13"/>
<text xml:space="preserve" text-anchor="middle" x="1973.69" y="-242.45" font-family="Times,serif" font-size="14.00">DDG: name</text>
</g>
<!-- 30064771663&#45;&gt;124554051628 -->
<g id="edge6" class="edge">
<title>30064771663&#45;&gt;124554051628</title>
<path fill="none" stroke="black" d="M1908.42,-277.52C1903.72,-276.12 1898.97,-274.82 1894.38,-273.75 1865.71,-267.05 1784.98,-275.48 1763.12,-255.75 1756.88,-250.11 1753.45,-241.98 1751.62,-233.79"/>
<polygon fill="black" stroke="black" points="1755.09,-233.33 1750.2,-223.93 1748.16,-234.32 1755.09,-233.33"/>
<text xml:space="preserve" text-anchor="middle" x="1813.75" y="-242.45" font-family="Times,serif" font-size="14.00">DDG: r.ok(name)</text>
</g>
<!-- 30064771668&#45;&gt;30064771670 -->
<g id="edge22" class="edge">
<title>30064771668&#45;&gt;30064771670</title>
<path fill="none" stroke="black" d="M1267.03,-90.78C1311.03,-79.37 1369.27,-65.59 1421.62,-57.5 1516.73,-42.81 1623.41,-33.89 1711.89,-28.53"/>
<polygon fill="black" stroke="black" points="1711.85,-32.04 1721.63,-27.95 1711.44,-25.05 1711.85,-32.04"/>
<text xml:space="preserve" text-anchor="middle" x="1452" y="-59.95" font-family="Times,serif" font-size="14.00">DDG: got </text>
</g>
<!-- 30064771668&#45;&gt;30064771670 -->
<g id="edge23" class="edge">
<title>30064771668&#45;&gt;30064771670</title>
<path fill="none" stroke="black" d="M1357.73,-92.99C1398.55,-87.66 1442.22,-81.08 1482.38,-73.25 1509.44,-67.98 1515.25,-62.42 1542.38,-57.5 1597.16,-47.56 1657.18,-40.09 1712.15,-34.57"/>
<polygon fill="black" stroke="black" points="1712.33,-38.07 1721.93,-33.6 1711.64,-31.1 1712.33,-38.07"/>
<text xml:space="preserve" text-anchor="middle" x="1596.38" y="-59.95" font-family="Times,serif" font-size="14.00">DDG: {repr(got)}</text>
</g>
<!-- 30064771668&#45;&gt;30064771670 -->
<g id="edge24" class="edge">
<title>30064771668&#45;&gt;30064771670</title>
<path fill="none" stroke="black" d="M1357.54,-107.82C1444.96,-103.93 1554.6,-94.65 1650.38,-73.25 1669.83,-68.9 1673.14,-62.76 1692.38,-57.5 1713.63,-51.69 1736.37,-46.58 1758.73,-42.17"/>
<polygon fill="black" stroke="black" points="1759.37,-45.61 1768.53,-40.28 1758.05,-38.73 1759.37,-45.61"/>
<text xml:space="preserve" text-anchor="middle" x="1746.38" y="-59.95" font-family="Times,serif" font-size="14.00">DDG: , expected </text>
</g>
<!-- 30064771668&#45;&gt;30064771670 -->
<g id="edge25" class="edge">
<title>30064771668&#45;&gt;30064771670</title>
<path fill="none" stroke="black" d="M1357.6,-107.81C1507.57,-104.38 1720.19,-95.63 1800.38,-73.25 1803.48,-72.38 1829.74,-58.58 1854.57,-45.34"/>
<polygon fill="black" stroke="black" points="1856.18,-48.45 1863.35,-40.65 1852.88,-42.27 1856.18,-48.45"/>
<text xml:space="preserve" text-anchor="middle" x="1900.75" y="-59.95" font-family="Times,serif" font-size="14.00">DDG: {repr(expected)}</text>
</g>
<!-- 30064771665&#45;&gt;30064771668 -->
<g id="edge27" class="edge">
<title>30064771665&#45;&gt;30064771668</title>
<path fill="none" stroke="black" d="M1189.5,-182.32C1190.79,-170.8 1192.46,-155.82 1193.94,-142.65"/>
<polygon fill="black" stroke="black" points="1197.42,-143.04 1195.05,-132.71 1190.46,-142.26 1197.42,-143.04"/>
<text xml:space="preserve" text-anchor="middle" x="1240.22" y="-151.2" font-family="Times,serif" font-size="14.00">DDG: repr(got)</text>
</g>
<!-- 30064771667&#45;&gt;30064771668 -->
<g id="edge28" class="edge">
<title>30064771667&#45;&gt;30064771668</title>
<path fill="none" stroke="black" d="M564.01,-188.08C685.65,-173.47 883.5,-149.7 1025.72,-132.62"/>
<polygon fill="black" stroke="black" points="1026.13,-136.09 1035.65,-131.43 1025.3,-129.14 1026.13,-136.09"/>
<text xml:space="preserve" text-anchor="middle" x="934.48" y="-151.2" font-family="Times,serif" font-size="14.00">DDG: repr(expected)</text>
</g>
<!-- 30064771664&#45;&gt;30064771665 -->
<g id="edge29" class="edge">
<title>30064771664&#45;&gt;30064771665</title>
<path fill="none" stroke="black" d="M583.14,-276.4C586.23,-275.41 589.34,-274.51 592.38,-273.75 753.59,-233.41 945.32,-215.97 1066.69,-208.55"/>
<polygon fill="black" stroke="black" points="1066.56,-212.06 1076.33,-207.97 1066.14,-205.07 1066.56,-212.06"/>
<text xml:space="preserve" text-anchor="middle" x="780.45" y="-242.45" font-family="Times,serif" font-size="14.00">DDG: got</text>
</g>
<!-- 30064771666&#45;&gt;30064771667 -->
<g id="edge30" class="edge">
<title>30064771666&#45;&gt;30064771667</title>
<path fill="none" stroke="black" d="M352.77,-273.31C348.43,-262.67 345.84,-249.67 352.62,-240 355.48,-235.94 358.83,-232.32 362.54,-229.1"/>
<polygon fill="black" stroke="black" points="364.6,-231.93 370.58,-223.19 360.45,-226.29 364.6,-231.93"/>
<text xml:space="preserve" text-anchor="middle" x="396.5" y="-242.45" font-family="Times,serif" font-size="14.00">DDG: expected</text>
</g>
<!-- 30064771660 -->
<g id="node22" class="node">
<title>30064771660</title>
<polygon fill="none" stroke="black" points="110.5,-601 20.25,-601 20.25,-565 110.5,-565 110.5,-601"/>
<text xml:space="preserve" text-anchor="middle" x="65.38" y="-577.58" font-family="Times,serif" font-size="14.00">30064771660</text>
</g>
<!-- 30064771660&#45;&gt;68719477293 -->
<g id="edge11" class="edge">
<title>30064771660&#45;&gt;68719477293</title>
<path fill="none" stroke="black" d="M63.42,-564.66C62.79,-554.27 62.93,-540.91 66.12,-529.5 66.84,-526.94 67.74,-524.38 68.77,-521.85"/>
<polygon fill="black" stroke="black" points="71.81,-523.62 72.97,-513.08 65.5,-520.59 71.81,-523.62"/>
<text xml:space="preserve" text-anchor="middle" x="116.75" y="-531.95" font-family="Times,serif" font-size="14.00">DDG: _approx_eq</text>
</g>
<!-- 30064771077 -->
<g id="node23" class="node">
<title>30064771077</title>
<polygon fill="none" stroke="black" points="2359.5,-601 2269.25,-601 2269.25,-565 2359.5,-565 2359.5,-601"/>
<text xml:space="preserve" text-anchor="middle" x="2314.38" y="-577.58" font-family="Times,serif" font-size="14.00">30064771077</text>
</g>
<!-- 30064771077&#45;&gt;68719477299 -->
<g id="edge31" class="edge">
<title>30064771077&#45;&gt;68719477299</title>
<path fill="none" stroke="black" d="M2314.02,-564.64C2313.78,-553.1 2313.46,-537.48 2313.16,-523.13"/>
<polygon fill="black" stroke="black" points="2316.67,-523.43 2312.96,-513.5 2309.67,-523.57 2316.67,-523.43"/>
<text xml:space="preserve" text-anchor="middle" x="2343.99" y="-531.95" font-family="Times,serif" font-size="14.00">DDG: repr</text>
</g>
</g>
</svg>
