<?xml version="1.0" encoding="UTF-8" standalone="no"?>
<!DOCTYPE svg PUBLIC "-//W3C//DTD SVG 1.1//EN"
 "http://www.w3.org/Graphics/SVG/1.1/DTD/svg11.dtd">
<!-- Generated by graphviz version 13.1.2 (20250809.0930)
 -->
<!-- Title: _assert_raises Pages: 1 -->
<svg width="2208pt" height="658pt"
 viewBox="0.00 0.00 2208.00 658.00" xmlns="http://www.w3.org/2000/svg" xmlns:xlink="http://www.w3.org/1999/xlink">
<g id="graph0" class="graph" transform="scale(1 1) rotate(0) translate(4 654.25)">
<title>_assert_raises</title>
<polygon fill="white" stroke="none" points="-4,4 -4,-654.25 2204.37,-654.25 2204.37,4 -4,4"/>
<!-- 107374182445 -->
<g id="node1" class="node">
<title>107374182445</title>
<polygon fill="none" stroke="black" points="1750.25,-650.25 1639.75,-650.25 1639.75,-610.75 1750.25,-610.75 1750.25,-650.25"/>
<text xml:space="preserve" text-anchor="start" x="1657.88" y="-632.95" font-family="Times,serif" font-size="14.00">METHOD, 379</text>
<text xml:space="preserve" text-anchor="start" x="1647.75" y="-617.2" font-family="Times,serif" font-size="14.00">_assert_raises</text>
</g>
<!-- 111669149773 -->
<g id="node3" class="node">
<title>111669149773</title>
<polygon fill="none" stroke="black" points="906.75,-551.12 823.25,-551.12 823.25,-511.62 906.75,-511.62 906.75,-551.12"/>
<text xml:space="preserve" text-anchor="start" x="831.25" y="-533.83" font-family="Times,serif" font-size="14.00">PARAM, 379</text>
<text xml:space="preserve" text-anchor="start" x="861.62" y="-518.08" font-family="Times,serif" font-size="14.00">r</text>
</g>
<!-- 107374182445&#45;&gt;111669149773 -->
<g id="edge6" class="edge">
<title>107374182445&#45;&gt;111669149773</title>
<path fill="none" stroke="black" d="M1639.26,-629.02C1530.5,-627.47 1282.57,-620.85 1076.25,-592.75 1005.42,-583.1 986.51,-582.48 919,-559 916.46,-558.12 913.88,-557.14 911.31,-556.1"/>
<polygon fill="black" stroke="black" points="912.74,-552.91 902.17,-552.14 909.95,-559.33 912.74,-552.91"/>
<text xml:space="preserve" text-anchor="middle" x="1093.12" y="-579.45" font-family="Times,serif" font-size="14.00">DDG: </text>
</g>
<!-- 111669149774 -->
<g id="node4" class="node">
<title>111669149774</title>
<polygon fill="none" stroke="black" points="1690.75,-551.12 1607.25,-551.12 1607.25,-511.62 1690.75,-511.62 1690.75,-551.12"/>
<text xml:space="preserve" text-anchor="start" x="1615.25" y="-533.83" font-family="Times,serif" font-size="14.00">PARAM, 379</text>
<text xml:space="preserve" text-anchor="start" x="1635.5" y="-518.08" font-family="Times,serif" font-size="14.00">name</text>
</g>
<!-- 107374182445&#45;&gt;111669149774 -->
<g id="edge7" class="edge">
<title>107374182445&#45;&gt;111669149774</title>
<path fill="none" stroke="black" d="M1681.6,-610.52C1677.98,-604.94 1674.24,-598.73 1671.25,-592.75 1666.42,-583.09 1662.07,-572.12 1658.52,-562.21"/>
<polygon fill="black" stroke="black" points="1661.93,-561.34 1655.37,-553.02 1655.3,-563.62 1661.93,-561.34"/>
<text xml:space="preserve" text-anchor="middle" x="1688.12" y="-579.45" font-family="Times,serif" font-size="14.00">DDG: </text>
</g>
<!-- 111669149775 -->
<g id="node5" class="node">
<title>111669149775</title>
<polygon fill="none" stroke="black" points="1841.75,-485.75 1758.25,-485.75 1758.25,-446.25 1841.75,-446.25 1841.75,-485.75"/>
<text xml:space="preserve" text-anchor="start" x="1766.25" y="-468.45" font-family="Times,serif" font-size="14.00">PARAM, 379</text>
<text xml:space="preserve" text-anchor="start" x="1793.25" y="-452.7" font-family="Times,serif" font-size="14.00">fn</text>
</g>
<!-- 107374182445&#45;&gt;111669149775 -->
<g id="edge8" class="edge">
<title>107374182445&#45;&gt;111669149775</title>
<path fill="none" stroke="black" d="M1717.13,-610.36C1722.67,-604.98 1728.36,-598.91 1733,-592.75 1755.93,-562.33 1775.52,-523 1787.49,-496.49"/>
<polygon fill="black" stroke="black" points="1790.68,-497.92 1791.52,-487.36 1784.28,-495.09 1790.68,-497.92"/>
<text xml:space="preserve" text-anchor="middle" x="1759.46" y="-579.45" font-family="Times,serif" font-size="14.00">DDG: </text>
</g>
<!-- 30064771672 -->
<g id="node6" class="node">
<title>30064771672</title>
<polygon fill="none" stroke="black" points="1909.62,-485.75 1846.38,-485.75 1846.38,-446.25 1909.62,-446.25 1909.62,-485.75"/>
<text xml:space="preserve" text-anchor="start" x="1854.38" y="-468.45" font-family="Times,serif" font-size="14.00">fn, 381</text>
<text xml:space="preserve" text-anchor="start" x="1864.5" y="-452.7" font-family="Times,serif" font-size="14.00">fn()</text>
</g>
<!-- 107374182445&#45;&gt;30064771672 -->
<g id="edge9" class="edge">
<title>107374182445&#45;&gt;30064771672</title>
<path fill="none" stroke="black" d="M1750.31,-610.4C1760.71,-605.5 1771.1,-599.64 1780,-592.75 1814.9,-565.75 1844.34,-523.61 1861.58,-495.66"/>
<polygon fill="black" stroke="black" points="1864.42,-497.73 1866.59,-487.35 1858.43,-494.11 1864.42,-497.73"/>
<text xml:space="preserve" text-anchor="middle" x="1813.24" y="-579.45" font-family="Times,serif" font-size="14.00">DDG: </text>
</g>
<!-- 30064771674 -->
<g id="node7" class="node">
<title>30064771674</title>
<polygon fill="none" stroke="black" points="1038.75,-428.25 685.25,-428.25 685.25,-388.75 1038.75,-388.75 1038.75,-428.25"/>
<text xml:space="preserve" text-anchor="start" x="831.62" y="-410.95" font-family="Times,serif" font-size="14.00">fail, 382</text>
<text xml:space="preserve" text-anchor="start" x="693.25" y="-395.2" font-family="Times,serif" font-size="14.00">r.fail(name, &quot;Expected JSONParseError but none ...</text>
</g>
<!-- 107374182445&#45;&gt;30064771674 -->
<g id="edge12" class="edge">
<title>107374182445&#45;&gt;30064771674</title>
<path fill="none" stroke="black" d="M1646.3,-610.27C1619.99,-598.25 1588.1,-580.88 1564.25,-559 1542.61,-539.15 1552.8,-519.48 1528,-503.75 1450.79,-454.76 1218.81,-430.44 1050.31,-418.94"/>
<polygon fill="black" stroke="black" points="1050.77,-415.46 1040.56,-418.28 1050.3,-422.44 1050.77,-415.46"/>
<text xml:space="preserve" text-anchor="middle" x="1581.12" y="-525.95" font-family="Times,serif" font-size="14.00">DDG: </text>
</g>
<!-- 68719477305 -->
<g id="node8" class="node">
<title>68719477305</title>
<polygon fill="none" stroke="black" points="1045.62,-559 928.38,-559 928.38,-503.75 1045.62,-503.75 1045.62,-559"/>
<text xml:space="preserve" text-anchor="start" x="936.38" y="-541.7" font-family="Times,serif" font-size="14.00">IDENTIFIER, 381</text>
<text xml:space="preserve" text-anchor="start" x="980.25" y="-525.95" font-family="Times,serif" font-size="14.00">fn</text>
<text xml:space="preserve" text-anchor="start" x="973.5" y="-510.2" font-family="Times,serif" font-size="14.00">fn()</text>
</g>
<!-- 107374182445&#45;&gt;68719477305 -->
<g id="edge10" class="edge">
<title>107374182445&#45;&gt;68719477305</title>
<path fill="none" stroke="black" d="M1639.26,-628.58C1545.7,-626.33 1351.38,-618.67 1189.25,-592.75 1131.54,-583.52 1114.83,-578.56 1056.92,-559.85"/>
<polygon fill="black" stroke="black" points="1058.06,-556.54 1047.47,-556.79 1055.91,-563.2 1058.06,-556.54"/>
<text xml:space="preserve" text-anchor="middle" x="1206.12" y="-579.45" font-family="Times,serif" font-size="14.00">DDG: </text>
</g>
<!-- 25769803902 -->
<g id="node9" class="node">
<title>25769803902</title>
<polygon fill="none" stroke="black" points="1146.75,-551.12 1063.25,-551.12 1063.25,-511.62 1146.75,-511.62 1146.75,-551.12"/>
<text xml:space="preserve" text-anchor="start" x="1071.25" y="-533.83" font-family="Times,serif" font-size="14.00">BLOCK, 383</text>
<text xml:space="preserve" text-anchor="start" x="1071.25" y="-518.08" font-family="Times,serif" font-size="14.00">r.ok(name)</text>
</g>
<!-- 107374182445&#45;&gt;25769803902 -->
<g id="edge14" class="edge">
<title>107374182445&#45;&gt;25769803902</title>
<path fill="none" stroke="black" d="M1639.31,-628.59C1539.95,-625.58 1326.55,-612.81 1156,-559 1153.43,-558.19 1150.83,-557.25 1148.24,-556.23"/>
<polygon fill="black" stroke="black" points="1149.69,-553.04 1139.13,-552.21 1146.87,-559.44 1149.69,-553.04"/>
<text xml:space="preserve" text-anchor="middle" x="1302.64" y="-579.45" font-family="Times,serif" font-size="14.00">DDG: </text>
</g>
<!-- 25769803903 -->
<g id="node10" class="node">
<title>25769803903</title>
<polygon fill="none" stroke="black" points="1518.75,-551.12 1165.25,-551.12 1165.25,-511.62 1518.75,-511.62 1518.75,-551.12"/>
<text xml:space="preserve" text-anchor="start" x="1308.25" y="-533.83" font-family="Times,serif" font-size="14.00">BLOCK, 385</text>
<text xml:space="preserve" text-anchor="start" x="1173.25" y="-518.08" font-family="Times,serif" font-size="14.00">r.fail(name, f&quot;Wrong exception type: {type(e)._...</text>
</g>
<!-- 107374182445&#45;&gt;25769803903 -->
<g id="edge15" class="edge">
<title>107374182445&#45;&gt;25769803903</title>
<path fill="none" stroke="black" d="M1639.42,-620.98C1601.77,-614.63 1551.08,-604.97 1507.25,-592.75 1470.51,-582.51 1430.29,-567.89 1398.73,-555.61"/>
<polygon fill="black" stroke="black" points="1400.37,-552.49 1389.78,-552.09 1397.81,-559.01 1400.37,-552.49"/>
<text xml:space="preserve" text-anchor="middle" x="1524.12" y="-579.45" font-family="Times,serif" font-size="14.00">DDG: </text>
</g>
<!-- 30064771676 -->
<g id="node11" class="node">
<title>30064771676</title>
<polygon fill="none" stroke="black" points="218.75,-337 135.25,-337 135.25,-297.5 218.75,-297.5 218.75,-337"/>
<text xml:space="preserve" text-anchor="start" x="153.38" y="-319.7" font-family="Times,serif" font-size="14.00">ok, 384</text>
<text xml:space="preserve" text-anchor="start" x="143.25" y="-303.95" font-family="Times,serif" font-size="14.00">r.ok(name)</text>
</g>
<!-- 107374182445&#45;&gt;30064771676 -->
<g id="edge17" class="edge">
<title>107374182445&#45;&gt;30064771676</title>
<path fill="none" stroke="black" d="M1639.26,-629.57C1518.08,-629.09 1221.76,-624.44 976,-592.75 688.38,-555.66 160.89,-407.4 133,-370.75 126.52,-362.23 130.03,-353.22 137.31,-345.1"/>
<polygon fill="black" stroke="black" points="139.6,-347.76 144.52,-338.38 134.82,-342.64 139.6,-347.76"/>
<text xml:space="preserve" text-anchor="middle" x="481.91" y="-460.57" font-family="Times,serif" font-size="14.00">DDG: </text>
</g>
<!-- 30064771683 -->
<g id="node12" class="node">
<title>30064771683</title>
<polygon fill="none" stroke="black" points="526.75,-39.5 173.25,-39.5 173.25,0 526.75,0 526.75,-39.5"/>
<text xml:space="preserve" text-anchor="start" x="319.62" y="-22.2" font-family="Times,serif" font-size="14.00">fail, 386</text>
<text xml:space="preserve" text-anchor="start" x="181.25" y="-6.45" font-family="Times,serif" font-size="14.00">r.fail(name, f&quot;Wrong exception type: {type(e)._...</text>
</g>
<!-- 107374182445&#45;&gt;30064771683 -->
<g id="edge20" class="edge">
<title>107374182445&#45;&gt;30064771683</title>
<path fill="none" stroke="black" d="M1750.47,-625.83C1850.31,-617.68 2050,-593.72 2050,-532.38 2050,-532.38 2050,-532.38 2050,-110 2050,-35.01 981.04,-22.83 538.42,-21"/>
<polygon fill="black" stroke="black" points="538.65,-17.5 528.63,-20.96 538.62,-24.5 538.65,-17.5"/>
<text xml:space="preserve" text-anchor="middle" x="2066.88" y="-311.82" font-family="Times,serif" font-size="14.00">DDG: </text>
</g>
<!-- 30064771681 -->
<g id="node13" class="node">
<title>30064771681</title>
<polygon fill="none" stroke="black" points="735,-130.75 395,-130.75 395,-91.25 735,-91.25 735,-130.75"/>
<text xml:space="preserve" text-anchor="start" x="470.5" y="-113.45" font-family="Times,serif" font-size="14.00">&lt;operator&gt;.formatString, 386</text>
<text xml:space="preserve" text-anchor="start" x="403" y="-97.7" font-family="Times,serif" font-size="14.00">f&quot;Wrong exception type: {type(e).__name__}: {e}&quot;</text>
</g>
<!-- 107374182445&#45;&gt;30064771681 -->
<g id="edge26" class="edge">
<title>107374182445&#45;&gt;30064771681</title>
<path fill="none" stroke="black" d="M1750.63,-623.36C1789.82,-617.97 1843.09,-608.47 1888,-592.75 1918.35,-582.13 1932.31,-584.42 1952,-559 1999.1,-498.2 1992.86,-465.03 1983,-388.75 1969.68,-285.72 1967.14,-226.43 1873,-182.5 1773.67,-136.14 1081.99,-119.62 746.58,-114.29"/>
<polygon fill="black" stroke="black" points="746.86,-110.8 736.81,-114.14 746.75,-117.8 746.86,-110.8"/>
<text xml:space="preserve" text-anchor="middle" x="1997.5" y="-357.45" font-family="Times,serif" font-size="14.00">DDG: </text>
</g>
<!-- 30064771680 -->
<g id="node15" class="node">
<title>30064771680</title>
<polygon fill="none" stroke="black" points="1864.25,-222 1645.75,-222 1645.75,-182.5 1864.25,-182.5 1864.25,-222"/>
<text xml:space="preserve" text-anchor="start" x="1653.75" y="-204.7" font-family="Times,serif" font-size="14.00">&lt;operator&gt;.formattedValue, 386</text>
<text xml:space="preserve" text-anchor="start" x="1744.88" y="-188.95" font-family="Times,serif" font-size="14.00">{e}</text>
</g>
<!-- 107374182445&#45;&gt;30064771680 -->
<g id="edge30" class="edge">
<title>107374182445&#45;&gt;30064771680</title>
<path fill="none" stroke="black" d="M1750.48,-619.49C1824.14,-604.58 1945,-573.82 1945,-532.38 1945,-532.38 1945,-532.38 1945,-316.25 1945,-270.33 1903.49,-242.65 1859.27,-226.19"/>
<polygon fill="black" stroke="black" points="1860.63,-222.95 1850.04,-222.94 1858.31,-229.56 1860.63,-222.95"/>
<text xml:space="preserve" text-anchor="middle" x="1961.88" y="-403.07" font-family="Times,serif" font-size="14.00">DDG: </text>
</g>
<!-- 68719477314 -->
<g id="node16" class="node">
<title>68719477314</title>
<polygon fill="none" stroke="black" points="2197.62,-559 2080.38,-559 2080.38,-503.75 2197.62,-503.75 2197.62,-559"/>
<text xml:space="preserve" text-anchor="start" x="2088.38" y="-541.7" font-family="Times,serif" font-size="14.00">IDENTIFIER, 386</text>
<text xml:space="preserve" text-anchor="start" x="2125.5" y="-525.95" font-family="Times,serif" font-size="14.00">type</text>
<text xml:space="preserve" text-anchor="start" x="2115.38" y="-510.2" font-family="Times,serif" font-size="14.00">type(e)</text>
</g>
<!-- 107374182445&#45;&gt;68719477314 -->
<g id="edge32" class="edge">
<title>107374182445&#45;&gt;68719477314</title>
<path fill="none" stroke="black" d="M1750.47,-627.66C1838.52,-624.13 2005.98,-614.69 2061,-592.75 2076.23,-586.68 2090.98,-576.7 2103.48,-566.59"/>
<polygon fill="black" stroke="black" points="2105.62,-569.36 2111,-560.23 2101.1,-564.01 2105.62,-569.36"/>
<text xml:space="preserve" text-anchor="middle" x="2106.13" y="-579.45" font-family="Times,serif" font-size="14.00">DDG: </text>
</g>
<!-- 30064771677 -->
<g id="node17" class="node">
<title>30064771677</title>
<polygon fill="none" stroke="black" points="1678.38,-337 1601.62,-337 1601.62,-297.5 1678.38,-297.5 1678.38,-337"/>
<text xml:space="preserve" text-anchor="start" x="1609.62" y="-319.7" font-family="Times,serif" font-size="14.00">type, 386</text>
<text xml:space="preserve" text-anchor="start" x="1616.38" y="-303.95" font-family="Times,serif" font-size="14.00">type(e)</text>
</g>
<!-- 107374182445&#45;&gt;30064771677 -->
<g id="edge33" class="edge">
<title>107374182445&#45;&gt;30064771677</title>
<path fill="none" stroke="black" d="M1700.91,-610.58C1702.48,-604.9 1704.01,-598.62 1705,-592.75 1715.9,-528.4 1708.37,-511.16 1715.25,-446.25 1719.56,-405.64 1748.5,-389.08 1726,-355 1724.73,-353.07 1707.56,-345.58 1688.9,-337.86"/>
<polygon fill="black" stroke="black" points="1690.45,-334.72 1679.86,-334.16 1687.79,-341.19 1690.45,-334.72"/>
<text xml:space="preserve" text-anchor="middle" x="1732.12" y="-460.57" font-family="Times,serif" font-size="14.00">DDG: </text>
</g>
<!-- 124554051629 -->
<g id="node2" class="node">
<title>124554051629</title>
<polygon fill="none" stroke="black" points="1833.75,-337 1696.25,-337 1696.25,-297.5 1833.75,-297.5 1833.75,-337"/>
<text xml:space="preserve" text-anchor="start" x="1704.25" y="-319.7" font-family="Times,serif" font-size="14.00">METHOD_RETURN, 379</text>
<text xml:space="preserve" text-anchor="start" x="1754.88" y="-303.95" font-family="Times,serif" font-size="14.00">ANY</text>
</g>
<!-- 111669149773&#45;&gt;30064771674 -->
<g id="edge11" class="edge">
<title>111669149773&#45;&gt;30064771674</title>
<path fill="none" stroke="black" d="M864.52,-511.22C864.05,-492.04 863.31,-462.22 862.75,-439.82"/>
<polygon fill="black" stroke="black" points="866.26,-439.99 862.51,-430.08 859.26,-440.16 866.26,-439.99"/>
<text xml:space="preserve" text-anchor="middle" x="884.11" y="-460.57" font-family="Times,serif" font-size="14.00">DDG: r</text>
</g>
<!-- 111669149774&#45;&gt;30064771674 -->
<g id="edge13" class="edge">
<title>111669149774&#45;&gt;30064771674</title>
<path fill="none" stroke="black" d="M1637.31,-511.31C1623.71,-491.08 1599.21,-460.15 1569,-446.25 1523.05,-425.11 1243.92,-415.96 1050.46,-412.12"/>
<polygon fill="black" stroke="black" points="1050.58,-408.63 1040.51,-411.93 1050.44,-415.62 1050.58,-408.63"/>
<text xml:space="preserve" text-anchor="middle" x="1647.78" y="-460.57" font-family="Times,serif" font-size="14.00">DDG: name</text>
</g>
<!-- 111669149775&#45;&gt;124554051629 -->
<g id="edge1" class="edge">
<title>111669149775&#45;&gt;124554051629</title>
<path fill="none" stroke="black" d="M1787.01,-445.85C1783.83,-440.38 1780.77,-434.26 1778.75,-428.25 1770.02,-402.27 1766.74,-371.16 1765.56,-348.66"/>
<polygon fill="black" stroke="black" points="1769.07,-348.81 1765.17,-338.96 1762.08,-349.09 1769.07,-348.81"/>
<text xml:space="preserve" text-anchor="middle" x="1802.38" y="-403.07" font-family="Times,serif" font-size="14.00">DDG: fn</text>
</g>
<!-- 30064771672&#45;&gt;124554051629 -->
<g id="edge2" class="edge">
<title>30064771672&#45;&gt;124554051629</title>
<path fill="none" stroke="black" d="M1865.77,-445.77C1855.58,-430.09 1840.46,-407.54 1826,-388.75 1814.77,-374.16 1801.48,-358.62 1790.17,-345.85"/>
<polygon fill="black" stroke="black" points="1792.99,-343.75 1783.72,-338.63 1787.77,-348.41 1792.99,-343.75"/>
<text xml:space="preserve" text-anchor="middle" x="1884.54" y="-403.07" font-family="Times,serif" font-size="14.00">DDG: fn()</text>
</g>
<!-- 30064771674&#45;&gt;124554051629 -->
<g id="edge3" class="edge">
<title>30064771674&#45;&gt;124554051629</title>
<path fill="none" stroke="black" d="M1039.25,-408.05C1238.47,-407.14 1548.84,-400.69 1662,-370.75 1684.27,-364.86 1707.26,-353.7 1725.87,-343.18"/>
<polygon fill="black" stroke="black" points="1727.53,-346.26 1734.41,-338.2 1724.01,-340.21 1727.53,-346.26"/>
<text xml:space="preserve" text-anchor="middle" x="1720.73" y="-357.45" font-family="Times,serif" font-size="14.00">DDG: r</text>
</g>
<!-- 30064771674&#45;&gt;124554051629 -->
<g id="edge4" class="edge">
<title>30064771674&#45;&gt;124554051629</title>
<path fill="none" stroke="black" d="M1039.22,-393.68C1067.8,-388.3 1096.63,-380.91 1123,-370.75 1134.65,-366.26 1134.38,-358.86 1146.25,-355 1257.35,-318.88 1550.61,-351.19 1684.52,-337.01"/>
<polygon fill="black" stroke="black" points="1684.8,-340.5 1694.31,-335.83 1683.97,-333.55 1684.8,-340.5"/>
<text xml:space="preserve" text-anchor="middle" x="1176.62" y="-357.45" font-family="Times,serif" font-size="14.00">DDG: name</text>
</g>
<!-- 30064771674&#45;&gt;124554051629 -->
<g id="edge5" class="edge">
<title>30064771674&#45;&gt;124554051629</title>
<path fill="none" stroke="black" d="M1039.02,-397.99C1107.25,-392.38 1176.2,-383.74 1207,-370.75 1217.11,-366.49 1215.76,-358.92 1226,-355 1271.44,-337.6 1600.23,-343.34 1684.47,-336.79"/>
<polygon fill="black" stroke="black" points="1684.72,-340.29 1694.31,-335.78 1684,-333.32 1684.72,-340.29"/>
<text xml:space="preserve" text-anchor="middle" x="1442" y="-357.45" font-family="Times,serif" font-size="14.00">DDG: r.fail(name, &quot;Expected JSONParseError but none was raised&quot;)</text>
</g>
<!-- 30064771674&#45;&gt;30064771676 -->
<g id="edge16" class="edge">
<title>30064771674&#45;&gt;30064771676</title>
<path fill="none" stroke="black" d="M685.03,-403.12C491.85,-397.55 207.25,-386.69 188.5,-370.75 182,-365.22 178.68,-356.95 177.09,-348.59"/>
<polygon fill="black" stroke="black" points="180.6,-348.46 176.03,-338.9 173.64,-349.22 180.6,-348.46"/>
<text xml:space="preserve" text-anchor="middle" x="208.75" y="-357.45" font-family="Times,serif" font-size="14.00">DDG: r</text>
</g>
<!-- 30064771674&#45;&gt;30064771676 -->
<g id="edge18" class="edge">
<title>30064771674&#45;&gt;30064771676</title>
<path fill="none" stroke="black" d="M685.1,-407.42C534.03,-405.41 329.32,-397.55 252.25,-370.75 251.04,-370.33 231.89,-356.96 213.21,-343.83"/>
<polygon fill="black" stroke="black" points="215.3,-341.02 205.11,-338.12 211.27,-346.74 215.3,-341.02"/>
<text xml:space="preserve" text-anchor="middle" x="282.62" y="-357.45" font-family="Times,serif" font-size="14.00">DDG: name</text>
</g>
<!-- 30064771674&#45;&gt;30064771676 -->
<g id="edge43" class="edge">
<title>30064771674&#45;&gt;30064771676</title>
<path fill="none" stroke="black" d="M684.76,-404.5C477.4,-400.11 159.77,-390.23 141.25,-370.75 134.07,-363.2 137.06,-354.07 143.7,-345.55"/>
<polygon fill="black" stroke="black" points="146.06,-348.15 150.27,-338.44 140.92,-343.4 146.06,-348.15"/>
<text xml:space="preserve" text-anchor="middle" x="158.12" y="-357.45" font-family="Times,serif" font-size="14.00">CDG: </text>
</g>
<!-- 30064771674&#45;&gt;30064771683 -->
<g id="edge19" class="edge">
<title>30064771674&#45;&gt;30064771683</title>
<path fill="none" stroke="black" d="M685.01,-402.73C548.25,-397.73 377.57,-388.11 349,-370.75 308.33,-346.04 305.93,-325.29 293,-279.5 277.35,-224.08 254.49,-160.85 307,-57.5 308.69,-54.17 310.83,-51.02 313.24,-48.07"/>
<polygon fill="black" stroke="black" points="315.69,-50.57 320.09,-40.93 310.64,-45.73 315.69,-50.57"/>
<text xml:space="preserve" text-anchor="middle" x="298.39" y="-196.82" font-family="Times,serif" font-size="14.00">DDG: r</text>
</g>
<!-- 30064771674&#45;&gt;30064771683 -->
<g id="edge21" class="edge">
<title>30064771674&#45;&gt;30064771683</title>
<path fill="none" stroke="black" d="M685.21,-403.93C473.03,-398.89 138.68,-388.32 83,-370.75 41.37,-357.62 0,-361.9 0,-318.25 0,-318.25 0,-318.25 0,-110 0,-71.89 78.89,-49.85 161.77,-37.21"/>
<polygon fill="black" stroke="black" points="162.07,-40.7 171.45,-35.79 161.05,-33.78 162.07,-40.7"/>
<text xml:space="preserve" text-anchor="middle" x="30.38" y="-196.82" font-family="Times,serif" font-size="14.00">DDG: name</text>
</g>
<!-- 30064771674&#45;&gt;30064771683 -->
<g id="edge42" class="edge">
<title>30064771674&#45;&gt;30064771683</title>
<path fill="none" stroke="black" d="M685.05,-406.73C484.7,-404.59 179.9,-396.99 133,-370.75 108.31,-356.94 97,-346.54 97,-318.25 97,-318.25 97,-318.25 97,-110 97,-79.84 161.75,-57.35 225.74,-42.5"/>
<polygon fill="black" stroke="black" points="226.36,-45.94 235.34,-40.33 224.82,-39.12 226.36,-45.94"/>
<text xml:space="preserve" text-anchor="middle" x="113.88" y="-196.82" font-family="Times,serif" font-size="14.00">CDG: </text>
</g>
<!-- 30064771674&#45;&gt;30064771681 -->
<g id="edge38" class="edge">
<title>30064771674&#45;&gt;30064771681</title>
<path fill="none" stroke="black" d="M684.89,-402.33C576.34,-395.01 451.73,-377.67 417,-337 350.36,-258.97 493.47,-296.89 513,-279.5 552.29,-244.51 562.23,-180.44 564.54,-142.49"/>
<polygon fill="black" stroke="black" points="568.03,-142.81 564.99,-132.67 561.04,-142.5 568.03,-142.81"/>
<text xml:space="preserve" text-anchor="middle" x="558.44" y="-254.32" font-family="Times,serif" font-size="14.00">CDG: </text>
</g>
<!-- 30064771679 -->
<g id="node14" class="node">
<title>30064771679</title>
<polygon fill="none" stroke="black" points="512.25,-279.5 293.75,-279.5 293.75,-240 512.25,-240 512.25,-279.5"/>
<text xml:space="preserve" text-anchor="start" x="301.75" y="-262.2" font-family="Times,serif" font-size="14.00">&lt;operator&gt;.formattedValue, 386</text>
<text xml:space="preserve" text-anchor="start" x="342.25" y="-246.45" font-family="Times,serif" font-size="14.00">{type(e).__name__}</text>
</g>
<!-- 30064771674&#45;&gt;30064771679 -->
<g id="edge40" class="edge">
<title>30064771674&#45;&gt;30064771679</title>
<path fill="none" stroke="black" d="M684.95,-406.09C549.92,-403.11 383.39,-394.58 361.25,-370.75 339.92,-347.8 359.14,-312.85 377.98,-288.53"/>
<polygon fill="black" stroke="black" points="380.55,-290.92 384.14,-280.95 375.12,-286.51 380.55,-290.92"/>
<text xml:space="preserve" text-anchor="middle" x="378.12" y="-357.45" font-family="Times,serif" font-size="14.00">CDG: </text>
</g>
<!-- 30064771674&#45;&gt;30064771680 -->
<g id="edge37" class="edge">
<title>30064771674&#45;&gt;30064771680</title>
<path fill="none" stroke="black" d="M1039.14,-406.18C1257.19,-403.5 1614.59,-395.38 1745,-370.75 1790.27,-362.2 1816.25,-374.5 1843,-337 1869.15,-300.34 1826.95,-256.51 1792.44,-229.27"/>
<polygon fill="black" stroke="black" points="1794.7,-226.59 1784.63,-223.3 1790.45,-232.15 1794.7,-226.59"/>
<text xml:space="preserve" text-anchor="middle" x="1868.01" y="-311.82" font-family="Times,serif" font-size="14.00">CDG: </text>
</g>
<!-- 30064771674&#45;&gt;30064771677 -->
<g id="edge44" class="edge">
<title>30064771674&#45;&gt;30064771677</title>
<path fill="none" stroke="black" d="M1010.61,-388.26C1029.6,-383.63 1048.5,-377.88 1066,-370.75 1077.56,-366.04 1077.39,-358.87 1089.25,-355 1192.51,-321.29 1466.14,-357.75 1590.17,-336.98"/>
<polygon fill="black" stroke="black" points="1590.68,-340.45 1599.85,-335.14 1589.37,-333.57 1590.68,-340.45"/>
<text xml:space="preserve" text-anchor="middle" x="1106.12" y="-357.45" font-family="Times,serif" font-size="14.00">CDG: </text>
</g>
<!-- 30064771675 -->
<g id="node18" class="node">
<title>30064771675</title>
<polygon fill="none" stroke="black" points="624.12,-337 425.88,-337 425.88,-297.5 624.12,-297.5 624.12,-337"/>
<text xml:space="preserve" text-anchor="start" x="433.88" y="-319.7" font-family="Times,serif" font-size="14.00">&lt;operator&gt;.fieldAccess, 384</text>
<text xml:space="preserve" text-anchor="start" x="511.5" y="-303.95" font-family="Times,serif" font-size="14.00">r.ok</text>
</g>
<!-- 30064771674&#45;&gt;30064771675 -->
<g id="edge45" class="edge">
<title>30064771674&#45;&gt;30064771675</title>
<path fill="none" stroke="black" d="M789.71,-388.35C736.49,-374.26 664.02,-355.07 608.36,-340.33"/>
<polygon fill="black" stroke="black" points="609.49,-337.01 598.93,-337.83 607.7,-343.77 609.49,-337.01"/>
<text xml:space="preserve" text-anchor="middle" x="730.55" y="-357.45" font-family="Times,serif" font-size="14.00">CDG: </text>
</g>
<!-- 30064771682 -->
<g id="node19" class="node">
<title>30064771682</title>
<polygon fill="none" stroke="black" points="840.12,-337 641.88,-337 641.88,-297.5 840.12,-297.5 840.12,-337"/>
<text xml:space="preserve" text-anchor="start" x="649.88" y="-319.7" font-family="Times,serif" font-size="14.00">&lt;operator&gt;.fieldAccess, 386</text>
<text xml:space="preserve" text-anchor="start" x="720.75" y="-303.95" font-family="Times,serif" font-size="14.00">r.fail</text>
</g>
<!-- 30064771674&#45;&gt;30064771682 -->
<g id="edge41" class="edge">
<title>30064771674&#45;&gt;30064771682</title>
<path fill="none" stroke="black" d="M836.04,-388.35C818.5,-375.41 795.12,-358.17 775.95,-344.03"/>
<polygon fill="black" stroke="black" points="778.26,-341.38 768.13,-338.26 774.1,-347.02 778.26,-341.38"/>
<text xml:space="preserve" text-anchor="middle" x="825.62" y="-357.45" font-family="Times,serif" font-size="14.00">CDG: </text>
</g>
<!-- 55834574983 -->
<g id="node20" class="node">
<title>55834574983</title>
<polygon fill="none" stroke="black" points="1407.88,-337 1250.12,-337 1250.12,-297.5 1407.88,-297.5 1407.88,-337"/>
<text xml:space="preserve" text-anchor="start" x="1258.12" y="-319.7" font-family="Times,serif" font-size="14.00">FIELD_IDENTIFIER, 384</text>
<text xml:space="preserve" text-anchor="start" x="1322.25" y="-303.95" font-family="Times,serif" font-size="14.00">ok</text>
</g>
<!-- 30064771674&#45;&gt;55834574983 -->
<g id="edge34" class="edge">
<title>30064771674&#45;&gt;55834574983</title>
<path fill="none" stroke="black" d="M914.25,-388.31C926.84,-383.1 940.1,-377.12 952,-370.75 963,-364.86 963.45,-359.06 975.25,-355 1028.27,-336.75 1166.7,-344.27 1238.58,-337.01"/>
<polygon fill="black" stroke="black" points="1238.92,-340.49 1248.44,-335.83 1238.09,-333.54 1238.92,-340.49"/>
<text xml:space="preserve" text-anchor="middle" x="992.12" y="-357.45" font-family="Times,serif" font-size="14.00">CDG: </text>
</g>
<!-- 55834574985 -->
<g id="node21" class="node">
<title>55834574985</title>
<polygon fill="none" stroke="black" points="1015.88,-337 858.12,-337 858.12,-297.5 1015.88,-297.5 1015.88,-337"/>
<text xml:space="preserve" text-anchor="start" x="866.12" y="-319.7" font-family="Times,serif" font-size="14.00">FIELD_IDENTIFIER, 386</text>
<text xml:space="preserve" text-anchor="start" x="923.5" y="-303.95" font-family="Times,serif" font-size="14.00">fail</text>
</g>
<!-- 30064771674&#45;&gt;55834574985 -->
<g id="edge36" class="edge">
<title>30064771674&#45;&gt;55834574985</title>
<path fill="none" stroke="black" d="M856.94,-388.42C855.24,-377.81 855.11,-364.81 861.25,-355 863.78,-350.96 866.9,-347.35 870.41,-344.13"/>
<polygon fill="black" stroke="black" points="872.27,-347.12 878.03,-338.23 867.98,-341.58 872.27,-347.12"/>
<text xml:space="preserve" text-anchor="middle" x="878.12" y="-357.45" font-family="Times,serif" font-size="14.00">CDG: </text>
</g>
<!-- 30064771678 -->
<g id="node22" class="node">
<title>30064771678</title>
<polygon fill="none" stroke="black" points="1232.12,-337 1033.88,-337 1033.88,-297.5 1232.12,-297.5 1232.12,-337"/>
<text xml:space="preserve" text-anchor="start" x="1041.88" y="-319.7" font-family="Times,serif" font-size="14.00">&lt;operator&gt;.fieldAccess, 386</text>
<text xml:space="preserve" text-anchor="start" x="1079" y="-303.95" font-family="Times,serif" font-size="14.00">type(e).__name__</text>
</g>
<!-- 30064771674&#45;&gt;30064771678 -->
<g id="edge39" class="edge">
<title>30064771674&#45;&gt;30064771678</title>
<path fill="none" stroke="black" d="M877.22,-388.5C887.54,-376.94 902.2,-362.93 918.25,-355 958.35,-335.18 975.17,-343.67 1022.31,-337.26"/>
<polygon fill="black" stroke="black" points="1022.7,-340.74 1032.05,-335.76 1021.64,-333.82 1022.7,-340.74"/>
<text xml:space="preserve" text-anchor="middle" x="935.12" y="-357.45" font-family="Times,serif" font-size="14.00">CDG: </text>
</g>
<!-- 55834574984 -->
<g id="node23" class="node">
<title>55834574984</title>
<polygon fill="none" stroke="black" points="1583.88,-337 1426.12,-337 1426.12,-297.5 1583.88,-297.5 1583.88,-337"/>
<text xml:space="preserve" text-anchor="start" x="1434.12" y="-319.7" font-family="Times,serif" font-size="14.00">FIELD_IDENTIFIER, 386</text>
<text xml:space="preserve" text-anchor="start" x="1478" y="-303.95" font-family="Times,serif" font-size="14.00">__name__</text>
</g>
<!-- 30064771674&#45;&gt;55834574984 -->
<g id="edge35" class="edge">
<title>30064771674&#45;&gt;55834574984</title>
<path fill="none" stroke="black" d="M959.31,-388.3C976.23,-383.53 993.39,-377.73 1009,-370.75 1020.4,-365.66 1020.41,-358.94 1032.25,-355 1110.38,-329.02 1315.66,-346.5 1414.7,-336.99"/>
<polygon fill="black" stroke="black" points="1414.9,-340.49 1424.45,-335.9 1414.12,-333.53 1414.9,-340.49"/>
<text xml:space="preserve" text-anchor="middle" x="1049.12" y="-357.45" font-family="Times,serif" font-size="14.00">CDG: </text>
</g>
<!-- 30064771681&#45;&gt;30064771683 -->
<g id="edge22" class="edge">
<title>30064771681&#45;&gt;30064771683</title>
<path fill="none" stroke="black" d="M426.37,-90.87C413.48,-86.19 401.04,-80.4 389.75,-73.25 380.32,-67.27 372.3,-58.22 365.98,-49.3"/>
<polygon fill="black" stroke="black" points="369.03,-47.57 360.64,-41.1 363.17,-51.39 369.03,-47.57"/>
<text xml:space="preserve" text-anchor="middle" x="480.88" y="-59.95" font-family="Times,serif" font-size="14.00">DDG: Wrong exception type: </text>
</g>
<!-- 30064771681&#45;&gt;30064771683 -->
<g id="edge23" class="edge">
<title>30064771681&#45;&gt;30064771683</title>
<path fill="none" stroke="black" d="M574.04,-90.99C577.81,-80.01 579.73,-66.62 572,-57.5 565.7,-50.08 553.45,-44.15 537.79,-39.42"/>
<polygon fill="black" stroke="black" points="539.06,-36.14 528.49,-36.88 537.22,-42.89 539.06,-36.14"/>
<text xml:space="preserve" text-anchor="middle" x="654.94" y="-59.95" font-family="Times,serif" font-size="14.00">DDG: {type(e).__name__}</text>
</g>
<!-- 30064771681&#45;&gt;30064771683 -->
<g id="edge24" class="edge">
<title>30064771681&#45;&gt;30064771683</title>
<path fill="none" stroke="black" d="M732.49,-90.83C746.35,-83.12 750.55,-72.4 737,-57.5 722.78,-41.86 629.8,-32.73 538.55,-27.48"/>
<polygon fill="black" stroke="black" points="538.84,-23.99 528.66,-26.93 538.45,-30.98 538.84,-23.99"/>
<text xml:space="preserve" text-anchor="middle" x="768.42" y="-59.95" font-family="Times,serif" font-size="14.00">DDG: : </text>
</g>
<!-- 30064771681&#45;&gt;30064771683 -->
<g id="edge25" class="edge">
<title>30064771681&#45;&gt;30064771683</title>
<path fill="none" stroke="black" d="M394.72,-101.46C358.29,-96 327.08,-87.24 315,-73.25 308.36,-65.56 311.13,-56.55 317.36,-48.18"/>
<polygon fill="black" stroke="black" points="319.8,-50.7 323.85,-40.91 314.58,-46.04 319.8,-50.7"/>
<text xml:space="preserve" text-anchor="middle" x="342" y="-59.95" font-family="Times,serif" font-size="14.00">DDG: {e}</text>
</g>
<!-- 30064771679&#45;&gt;30064771681 -->
<g id="edge27" class="edge">
<title>30064771679&#45;&gt;30064771681</title>
<path fill="none" stroke="black" d="M388.5,-239.81C377.9,-223.47 367.28,-199.85 379.25,-182.5 394.25,-160.76 416.89,-145.72 441.26,-135.32"/>
<polygon fill="black" stroke="black" points="442.39,-138.64 450.39,-131.69 439.8,-132.13 442.39,-138.64"/>
<text xml:space="preserve" text-anchor="middle" x="450.12" y="-196.82" font-family="Times,serif" font-size="14.00">DDG: type(e).__name__</text>
</g>
<!-- 30064771680&#45;&gt;30064771681 -->
<g id="edge28" class="edge">
<title>30064771680&#45;&gt;30064771681</title>
<path fill="none" stroke="black" d="M1645.45,-193.03C1440.46,-177.66 997.07,-144.4 746.68,-125.63"/>
<polygon fill="black" stroke="black" points="747.02,-122.14 736.78,-124.88 746.49,-129.12 747.02,-122.14"/>
<text xml:space="preserve" text-anchor="middle" x="1251.5" y="-151.2" font-family="Times,serif" font-size="14.00">DDG: e</text>
</g>
<!-- 30064771677&#45;&gt;30064771680 -->
<g id="edge29" class="edge">
<title>30064771677&#45;&gt;30064771680</title>
<path fill="none" stroke="black" d="M1659.51,-297.08C1678.21,-278.71 1706.61,-250.8 1727.58,-230.19"/>
<polygon fill="black" stroke="black" points="1730.02,-232.7 1734.7,-223.2 1725.11,-227.71 1730.02,-232.7"/>
<text xml:space="preserve" text-anchor="middle" x="1734.77" y="-254.32" font-family="Times,serif" font-size="14.00">DDG: e</text>
</g>
<!-- 30064771081 -->
<g id="node24" class="node">
<title>30064771081</title>
<polygon fill="none" stroke="black" points="2185.12,-648.5 2094.88,-648.5 2094.88,-612.5 2185.12,-612.5 2185.12,-648.5"/>
<text xml:space="preserve" text-anchor="middle" x="2140" y="-625.08" font-family="Times,serif" font-size="14.00">30064771081</text>
</g>
<!-- 30064771081&#45;&gt;68719477314 -->
<g id="edge31" class="edge">
<title>30064771081&#45;&gt;68719477314</title>
<path fill="none" stroke="black" d="M2139.82,-612.14C2139.7,-600.6 2139.54,-584.98 2139.39,-570.63"/>
<polygon fill="black" stroke="black" points="2142.9,-570.97 2139.29,-561 2135.9,-571.04 2142.9,-570.97"/>
<text xml:space="preserve" text-anchor="middle" x="2169.99" y="-579.45" font-family="Times,serif" font-size="14.00">DDG: type</text>
</g>
</g>
</svg>
