<?xml version="1.0" encoding="UTF-8" standalone="no"?>
<!DOCTYPE svg PUBLIC "-//W3C//DTD SVG 1.1//EN"
 "http://www.w3.org/Graphics/SVG/1.1/DTD/svg11.dtd">
<!-- Generated by graphviz version 13.1.2 (20250809.0930)
 -->
<!-- Title: __init__&lt;metaClassAdapter&gt; Pages: 1 -->
<svg width="910pt" height="436pt"
 viewBox="0.00 0.00 910.00 436.00" xmlns="http://www.w3.org/2000/svg" xmlns:xlink="http://www.w3.org/1999/xlink">
<g id="graph0" class="graph" transform="scale(1 1) rotate(0) translate(4 432.25)">
<title>__init__&lt;metaClassAdapter&gt;</title>
<polygon fill="white" stroke="none" points="-4,4 -4,-432.25 905.5,-432.25 905.5,4 -4,4"/>
<!-- 107374182405 -->
<g id="node1" class="node">
<title>107374182405</title>
<polygon fill="none" stroke="black" points="311.12,-428.25 119.62,-428.25 119.62,-388.75 311.12,-388.75 311.12,-428.25"/>
<text xml:space="preserve" text-anchor="start" x="181.62" y="-410.95" font-family="Times,serif" font-size="14.00">METHOD, 25</text>
<text xml:space="preserve" text-anchor="start" x="127.62" y="-395.2" font-family="Times,serif" font-size="14.00">__init__&lt;metaClassAdapter&gt;</text>
</g>
<!-- 111669149705 -->
<g id="node3" class="node">
<title>111669149705</title>
<polygon fill="none" stroke="black" points="76.75,-279.5 0,-279.5 0,-240 76.75,-240 76.75,-279.5"/>
<text xml:space="preserve" text-anchor="start" x="8" y="-262.2" font-family="Times,serif" font-size="14.00">PARAM, 25</text>
<text xml:space="preserve" text-anchor="start" x="28.25" y="-246.45" font-family="Times,serif" font-size="14.00">cls</text>
</g>
<!-- 107374182405&#45;&gt;111669149705 -->
<g id="edge7" class="edge">
<title>107374182405&#45;&gt;111669149705</title>
<path fill="none" stroke="black" d="M151.28,-388.32C123.94,-377.25 93.72,-360.7 73.38,-337 61.88,-323.61 53.43,-305.82 47.71,-290.8"/>
<polygon fill="black" stroke="black" points="51.02,-289.64 44.38,-281.39 44.42,-291.98 51.02,-289.64"/>
<text xml:space="preserve" text-anchor="middle" x="130.48" y="-357.45" font-family="Times,serif" font-size="14.00">DDG: </text>
</g>
<!-- 111669149706 -->
<g id="node4" class="node">
<title>111669149706</title>
<polygon fill="none" stroke="black" points="158.75,-337 82,-337 82,-297.5 158.75,-297.5 158.75,-337"/>
<text xml:space="preserve" text-anchor="start" x="90" y="-319.7" font-family="Times,serif" font-size="14.00">PARAM, 25</text>
<text xml:space="preserve" text-anchor="start" x="106.88" y="-303.95" font-family="Times,serif" font-size="14.00">self</text>
</g>
<!-- 107374182405&#45;&gt;111669149706 -->
<g id="edge8" class="edge">
<title>107374182405&#45;&gt;111669149706</title>
<path fill="none" stroke="black" d="M195.23,-388.57C181.84,-376 164.06,-359.29 149.19,-345.32"/>
<polygon fill="black" stroke="black" points="151.61,-342.79 141.92,-338.49 146.82,-347.89 151.61,-342.79"/>
<text xml:space="preserve" text-anchor="middle" x="190.44" y="-357.45" font-family="Times,serif" font-size="14.00">DDG: </text>
</g>
<!-- 111669149707 -->
<g id="node5" class="node">
<title>111669149707</title>
<polygon fill="none" stroke="black" points="253.75,-337 177,-337 177,-297.5 253.75,-297.5 253.75,-337"/>
<text xml:space="preserve" text-anchor="start" x="185" y="-319.7" font-family="Times,serif" font-size="14.00">PARAM, 25</text>
<text xml:space="preserve" text-anchor="start" x="191.75" y="-303.95" font-family="Times,serif" font-size="14.00">message</text>
</g>
<!-- 107374182405&#45;&gt;111669149707 -->
<g id="edge9" class="edge">
<title>107374182405&#45;&gt;111669149707</title>
<path fill="none" stroke="black" d="M215.38,-388.57C215.38,-377.05 215.38,-362.07 215.38,-348.9"/>
<polygon fill="black" stroke="black" points="218.88,-348.97 215.38,-338.97 211.88,-348.97 218.88,-348.97"/>
<text xml:space="preserve" text-anchor="middle" x="232.25" y="-357.45" font-family="Times,serif" font-size="14.00">DDG: </text>
</g>
<!-- 111669149708 -->
<g id="node6" class="node">
<title>111669149708</title>
<polygon fill="none" stroke="black" points="348.75,-337 272,-337 272,-297.5 348.75,-297.5 348.75,-337"/>
<text xml:space="preserve" text-anchor="start" x="280" y="-319.7" font-family="Times,serif" font-size="14.00">PARAM, 25</text>
<text xml:space="preserve" text-anchor="start" x="300.25" y="-303.95" font-family="Times,serif" font-size="14.00">pos</text>
</g>
<!-- 107374182405&#45;&gt;111669149708 -->
<g id="edge10" class="edge">
<title>107374182405&#45;&gt;111669149708</title>
<path fill="none" stroke="black" d="M235.52,-388.57C248.91,-376 266.69,-359.29 281.56,-345.32"/>
<polygon fill="black" stroke="black" points="283.93,-347.89 288.83,-338.49 279.14,-342.79 283.93,-347.89"/>
<text xml:space="preserve" text-anchor="middle" x="285.44" y="-357.45" font-family="Times,serif" font-size="14.00">DDG: </text>
</g>
<!-- 30064771103 -->
<g id="node8" class="node">
<title>30064771103</title>
<polygon fill="none" stroke="black" points="495.5,-222 135.25,-222 135.25,-182.5 495.5,-182.5 495.5,-222"/>
<text xml:space="preserve" text-anchor="start" x="143.25" y="-204.7" font-family="Times,serif" font-size="14.00">json_parser.py:&lt;module&gt;.JSONParseError.__init__, 25</text>
<text xml:space="preserve" text-anchor="start" x="220.88" y="-188.95" font-family="Times,serif" font-size="14.00">__init__(self, message, pos)</text>
</g>
<!-- 107374182405&#45;&gt;30064771103 -->
<g id="edge13" class="edge">
<title>107374182405&#45;&gt;30064771103</title>
<path fill="none" stroke="black" d="M286.69,-388.28C313.09,-377.53 340.64,-361.24 357.38,-337 382.09,-301.21 390.88,-278.36 370.38,-240 368.48,-236.45 366.07,-233.18 363.32,-230.19"/>
<polygon fill="black" stroke="black" points="365.71,-227.62 355.96,-223.48 360.99,-232.8 365.71,-227.62"/>
<text xml:space="preserve" text-anchor="middle" x="395.41" y="-311.82" font-family="Times,serif" font-size="14.00">DDG: </text>
</g>
<!-- 124554051589 -->
<g id="node2" class="node">
<title>124554051589</title>
<polygon fill="none" stroke="black" points="324.75,-39.5 194,-39.5 194,0 324.75,0 324.75,-39.5"/>
<text xml:space="preserve" text-anchor="start" x="202" y="-22.2" font-family="Times,serif" font-size="14.00">METHOD_RETURN, 25</text>
<text xml:space="preserve" text-anchor="start" x="249.25" y="-6.45" font-family="Times,serif" font-size="14.00">ANY</text>
</g>
<!-- 111669149705&#45;&gt;124554051589 -->
<g id="edge2" class="edge">
<title>111669149705&#45;&gt;124554051589</title>
<path fill="none" stroke="black" d="M41.02,-239.56C47.82,-198.4 69.95,-101.8 132.38,-57.5 147.26,-46.94 165.14,-39.39 182.73,-34.01"/>
<polygon fill="black" stroke="black" points="183.49,-37.43 192.16,-31.34 181.59,-30.7 183.49,-37.43"/>
<text xml:space="preserve" text-anchor="middle" x="92.49" y="-151.2" font-family="Times,serif" font-size="14.00">DDG: cls</text>
</g>
<!-- 111669149706&#45;&gt;30064771103 -->
<g id="edge12" class="edge">
<title>111669149706&#45;&gt;30064771103</title>
<path fill="none" stroke="black" d="M122.61,-297.05C125.67,-279.6 132.87,-254.44 149.62,-240 155.96,-234.54 167.62,-229.7 181.95,-225.46"/>
<polygon fill="black" stroke="black" points="182.63,-228.91 191.35,-222.89 180.78,-222.16 182.63,-228.91"/>
<text xml:space="preserve" text-anchor="middle" x="180" y="-254.32" font-family="Times,serif" font-size="14.00">DDG: self</text>
</g>
<!-- 111669149707&#45;&gt;30064771103 -->
<g id="edge14" class="edge">
<title>111669149707&#45;&gt;30064771103</title>
<path fill="none" stroke="black" d="M213.5,-297.31C212.88,-280.53 214.63,-256.23 227.38,-240 230.71,-235.75 234.63,-231.98 238.93,-228.65"/>
<polygon fill="black" stroke="black" points="240.62,-231.73 246.96,-223.24 236.71,-225.92 240.62,-231.73"/>
<text xml:space="preserve" text-anchor="middle" x="267.88" y="-254.32" font-family="Times,serif" font-size="14.00">DDG: message</text>
</g>
<!-- 111669149708&#45;&gt;30064771103 -->
<g id="edge15" class="edge">
<title>111669149708&#45;&gt;30064771103</title>
<path fill="none" stroke="black" d="M311.22,-297.08C311.99,-279.69 313.14,-253.75 314.03,-233.55"/>
<polygon fill="black" stroke="black" points="317.53,-233.79 314.47,-223.65 310.53,-233.48 317.53,-233.79"/>
<text xml:space="preserve" text-anchor="middle" x="340.62" y="-254.32" font-family="Times,serif" font-size="14.00">DDG: pos</text>
</g>
<!-- 141733920770 -->
<g id="node7" class="node">
<title>141733920770</title>
<polygon fill="none" stroke="black" points="901.5,-130.75 649.25,-130.75 649.25,-91.25 901.5,-91.25 901.5,-130.75"/>
<text xml:space="preserve" text-anchor="start" x="741.62" y="-113.45" font-family="Times,serif" font-size="14.00">RETURN, 25</text>
<text xml:space="preserve" text-anchor="start" x="657.25" y="-97.7" font-family="Times,serif" font-size="14.00">return __init__(self, message, pos)</text>
</g>
<!-- 141733920770&#45;&gt;124554051589 -->
<g id="edge1" class="edge">
<title>141733920770&#45;&gt;124554051589</title>
<path fill="none" stroke="black" d="M664.36,-90.8C565.33,-73.67 422.94,-49.04 336.05,-34.01"/>
<polygon fill="black" stroke="black" points="336.89,-30.61 326.44,-32.35 335.7,-37.5 336.89,-30.61"/>
<text xml:space="preserve" text-anchor="middle" x="582.02" y="-59.95" font-family="Times,serif" font-size="14.00">DDG: &lt;RET&gt;</text>
</g>
<!-- 30064771103&#45;&gt;124554051589 -->
<g id="edge3" class="edge">
<title>30064771103&#45;&gt;124554051589</title>
<path fill="none" stroke="black" d="M186.02,-182.04C158.95,-171.51 133.98,-155.39 118.62,-130.75 95.19,-93.14 141.75,-63.25 187.48,-44.18"/>
<polygon fill="black" stroke="black" points="188.73,-47.45 196.71,-40.48 186.13,-40.95 188.73,-47.45"/>
<text xml:space="preserve" text-anchor="middle" x="149" y="-105.58" font-family="Times,serif" font-size="14.00">DDG: self</text>
</g>
<!-- 30064771103&#45;&gt;124554051589 -->
<g id="edge4" class="edge">
<title>30064771103&#45;&gt;124554051589</title>
<path fill="none" stroke="black" d="M270.89,-182C250,-170.42 227.16,-153.47 215.38,-130.75 201.46,-103.91 218.03,-71.62 234.67,-49"/>
<polygon fill="black" stroke="black" points="237.41,-51.17 240.78,-41.13 231.88,-46.88 237.41,-51.17"/>
<text xml:space="preserve" text-anchor="middle" x="255.88" y="-105.58" font-family="Times,serif" font-size="14.00">DDG: message</text>
</g>
<!-- 30064771103&#45;&gt;124554051589 -->
<g id="edge5" class="edge">
<title>30064771103&#45;&gt;124554051589</title>
<path fill="none" stroke="black" d="M313.89,-182.12C311.75,-159.82 306.84,-122.08 296.38,-91.25 291.52,-76.93 284.06,-61.98 277.1,-49.55"/>
<polygon fill="black" stroke="black" points="280.24,-47.99 272.21,-41.08 274.18,-51.49 280.24,-47.99"/>
<text xml:space="preserve" text-anchor="middle" x="333.24" y="-105.58" font-family="Times,serif" font-size="14.00">DDG: pos</text>
</g>
<!-- 30064771103&#45;&gt;124554051589 -->
<g id="edge6" class="edge">
<title>30064771103&#45;&gt;124554051589</title>
<path fill="none" stroke="black" d="M334.62,-182.18C354.63,-159.93 380.9,-122.24 364.38,-91.25 353.96,-71.71 335.45,-56.62 316.84,-45.51"/>
<polygon fill="black" stroke="black" points="318.6,-42.48 308.16,-40.64 315.17,-48.59 318.6,-42.48"/>
<text xml:space="preserve" text-anchor="middle" x="480.96" y="-105.58" font-family="Times,serif" font-size="14.00">DDG: __init__(self, message, pos)</text>
</g>
<!-- 30064771103&#45;&gt;141733920770 -->
<g id="edge11" class="edge">
<title>30064771103&#45;&gt;141733920770</title>
<path fill="none" stroke="black" d="M414.34,-182.05C488.08,-167.74 588.79,-148.2 665.11,-133.39"/>
<polygon fill="black" stroke="black" points="665.55,-136.87 674.7,-131.53 664.22,-130 665.55,-136.87"/>
<text xml:space="preserve" text-anchor="middle" x="684.29" y="-151.2" font-family="Times,serif" font-size="14.00">DDG: __init__(self, message, pos)</text>
</g>
</g>
</svg>
