<?xml version="1.0" encoding="UTF-8" standalone="no"?>
<!DOCTYPE svg PUBLIC "-//W3C//DTD SVG 1.1//EN"
 "http://www.w3.org/Graphics/SVG/1.1/DTD/svg11.dtd">
<!-- Generated by graphviz version 13.1.2 (20250809.0930)
 -->
<!-- Title: &lt;lambda&gt;3 Pages: 1 -->
<svg width="4014pt" height="337pt"
 viewBox="0.00 0.00 4014.00 337.00" xmlns="http://www.w3.org/2000/svg" xmlns:xlink="http://www.w3.org/1999/xlink">
<g id="graph0" class="graph" transform="scale(1 1) rotate(0) translate(4 333)">
<title>&lt;lambda&gt;3</title>
<polygon fill="white" stroke="none" points="-4,4 -4,-333 4009.88,-333 4009.88,4 -4,4"/>
<!-- 107374182450 -->
<g id="node1" class="node">
<title>107374182450</title>
<polygon fill="none" stroke="black" points="116.88,-329 26.62,-329 26.62,-289.5 116.88,-289.5 116.88,-329"/>
<text xml:space="preserve" text-anchor="start" x="34.62" y="-311.7" font-family="Times,serif" font-size="14.00">METHOD, 454</text>
<text xml:space="preserve" text-anchor="start" x="41.38" y="-295.95" font-family="Times,serif" font-size="14.00">&lt;lambda&gt;3</text>
</g>
<!-- 30064771827 -->
<g id="node4" class="node">
<title>30064771827</title>
<polygon fill="none" stroke="black" points="127.38,-229.88 10.13,-229.88 10.13,-190.38 127.38,-190.38 127.38,-229.88"/>
<text xml:space="preserve" text-anchor="start" x="35" y="-212.57" font-family="Times,serif" font-size="14.00">parse, 454</text>
<text xml:space="preserve" text-anchor="start" x="18.12" y="-196.82" font-family="Times,serif" font-size="14.00">parse(&quot;[1,2,]&quot;)</text>
</g>
<!-- 107374182450&#45;&gt;30064771827 -->
<g id="edge41" class="edge">
<title>107374182450&#45;&gt;30064771827</title>
<path fill="none" stroke="black" d="M70.74,-289.18C70.47,-283.49 70.2,-277.25 70,-271.5 69.67,-261.78 69.41,-251.17 69.22,-241.59"/>
<polygon fill="black" stroke="black" points="72.72,-241.61 69.04,-231.68 65.72,-241.74 72.72,-241.61"/>
<text xml:space="preserve" text-anchor="middle" x="86.88" y="-258.2" font-family="Times,serif" font-size="14.00">DDG: </text>
</g>
<!-- 68719477477 -->
<g id="node5" class="node">
<title>68719477477</title>
<polygon fill="none" stroke="black" points="2075.38,-237.75 1958.12,-237.75 1958.12,-182.5 2075.38,-182.5 2075.38,-237.75"/>
<text xml:space="preserve" text-anchor="start" x="1966.12" y="-220.45" font-family="Times,serif" font-size="14.00">IDENTIFIER, 454</text>
<text xml:space="preserve" text-anchor="start" x="1999.88" y="-204.7" font-family="Times,serif" font-size="14.00">parse</text>
<text xml:space="preserve" text-anchor="start" x="1966.12" y="-188.95" font-family="Times,serif" font-size="14.00">parse(&quot;[1,2,]&quot;)</text>
</g>
<!-- 107374182450&#45;&gt;68719477477 -->
<g id="edge40" class="edge">
<title>107374182450&#45;&gt;68719477477</title>
<path fill="none" stroke="black" d="M107.57,-289.01C132.01,-276.96 165.53,-262.48 197,-255.75 370.05,-218.74 1633.31,-212.33 1946.59,-211.31"/>
<polygon fill="black" stroke="black" points="1946.27,-214.81 1956.26,-211.28 1946.25,-207.81 1946.27,-214.81"/>
<text xml:space="preserve" text-anchor="middle" x="213.88" y="-258.2" font-family="Times,serif" font-size="14.00">DDG: </text>
</g>
<!-- 124554051634 -->
<g id="node2" class="node">
<title>124554051634</title>
<polygon fill="none" stroke="black" points="137.5,-39.5 0,-39.5 0,0 137.5,0 137.5,-39.5"/>
<text xml:space="preserve" text-anchor="start" x="8" y="-22.2" font-family="Times,serif" font-size="14.00">METHOD_RETURN, 454</text>
<text xml:space="preserve" text-anchor="start" x="58.62" y="-6.45" font-family="Times,serif" font-size="14.00">ANY</text>
</g>
<!-- 141733920814 -->
<g id="node3" class="node">
<title>141733920814</title>
<polygon fill="none" stroke="black" points="377.38,-130.75 206.12,-130.75 206.12,-91.25 377.38,-91.25 377.38,-130.75"/>
<text xml:space="preserve" text-anchor="start" x="254.62" y="-113.45" font-family="Times,serif" font-size="14.00">RETURN, 454</text>
<text xml:space="preserve" text-anchor="start" x="214.12" y="-97.7" font-family="Times,serif" font-size="14.00">lambda: parse(&quot;[1,2,]&quot;)</text>
</g>
<!-- 141733920814&#45;&gt;124554051634 -->
<g id="edge1" class="edge">
<title>141733920814&#45;&gt;124554051634</title>
<path fill="none" stroke="black" d="M243.91,-90.85C209.67,-77.15 163.37,-58.62 126.98,-44.05"/>
<polygon fill="black" stroke="black" points="128.5,-40.89 117.92,-40.43 125.9,-47.39 128.5,-40.89"/>
<text xml:space="preserve" text-anchor="middle" x="227.35" y="-59.95" font-family="Times,serif" font-size="14.00">DDG: &lt;RET&gt;</text>
</g>
<!-- 30064771827&#45;&gt;124554051634 -->
<g id="edge2" class="edge">
<title>30064771827&#45;&gt;124554051634</title>
<path fill="none" stroke="black" d="M66.33,-189.94C63.68,-166.62 60.03,-126.06 61.75,-91.25 62.4,-78.03 63.75,-63.47 65.08,-51.03"/>
<polygon fill="black" stroke="black" points="68.53,-51.69 66.17,-41.37 61.57,-50.91 68.53,-51.69"/>
<text xml:space="preserve" text-anchor="middle" x="129.25" y="-105.58" font-family="Times,serif" font-size="14.00">DDG: parse(&quot;[1,2,]&quot;)</text>
</g>
<!-- 30064771827&#45;&gt;141733920814 -->
<g id="edge3" class="edge">
<title>30064771827&#45;&gt;141733920814</title>
<path fill="none" stroke="black" d="M112.81,-189.94C148.54,-174.37 199.08,-152.36 237.34,-135.7"/>
<polygon fill="black" stroke="black" points="238.63,-138.96 246.4,-131.75 235.83,-132.54 238.63,-138.96"/>
<text xml:space="preserve" text-anchor="middle" x="274.28" y="-151.2" font-family="Times,serif" font-size="14.00">DDG: parse(&quot;[1,2,]&quot;)</text>
</g>
<!-- 68719477325 -->
<g id="node6" class="node">
<title>68719477325</title>
<polygon fill="none" stroke="black" points="225.88,-327.25 135.62,-327.25 135.62,-291.25 225.88,-291.25 225.88,-327.25"/>
<text xml:space="preserve" text-anchor="middle" x="180.75" y="-303.82" font-family="Times,serif" font-size="14.00">68719477325</text>
</g>
<!-- 68719477325&#45;&gt;68719477477 -->
<g id="edge4" class="edge">
<title>68719477325&#45;&gt;68719477477</title>
<path fill="none" stroke="black" d="M203.11,-290.98C220.59,-278.59 246.08,-262.87 271.25,-255.75 434.06,-209.71 1640.42,-210.03 1946.37,-210.87"/>
<polygon fill="black" stroke="black" points="1946.2,-214.37 1956.21,-210.9 1946.22,-207.37 1946.2,-214.37"/>
<text xml:space="preserve" text-anchor="middle" x="305" y="-258.2" font-family="Times,serif" font-size="14.00">DDG: parse</text>
</g>
<!-- 68719477328 -->
<g id="node7" class="node">
<title>68719477328</title>
<polygon fill="none" stroke="black" points="333.88,-327.25 243.62,-327.25 243.62,-291.25 333.88,-291.25 333.88,-327.25"/>
<text xml:space="preserve" text-anchor="middle" x="288.75" y="-303.82" font-family="Times,serif" font-size="14.00">68719477328</text>
</g>
<!-- 68719477328&#45;&gt;68719477477 -->
<g id="edge5" class="edge">
<title>68719477328&#45;&gt;68719477477</title>
<path fill="none" stroke="black" d="M311.11,-291C328.6,-278.61 354.09,-262.89 379.25,-255.75 531.2,-212.64 1652.59,-210.75 1946.43,-211"/>
<polygon fill="black" stroke="black" points="1946.24,-214.5 1956.25,-211.01 1946.25,-207.5 1946.24,-214.5"/>
<text xml:space="preserve" text-anchor="middle" x="413" y="-258.2" font-family="Times,serif" font-size="14.00">DDG: parse</text>
</g>
<!-- 68719477331 -->
<g id="node8" class="node">
<title>68719477331</title>
<polygon fill="none" stroke="black" points="441.88,-327.25 351.62,-327.25 351.62,-291.25 441.88,-291.25 441.88,-327.25"/>
<text xml:space="preserve" text-anchor="middle" x="396.75" y="-303.82" font-family="Times,serif" font-size="14.00">68719477331</text>
</g>
<!-- 68719477331&#45;&gt;68719477477 -->
<g id="edge6" class="edge">
<title>68719477331&#45;&gt;68719477477</title>
<path fill="none" stroke="black" d="M419.48,-290.75C436.96,-278.41 462.27,-262.86 487.25,-255.75 628.37,-215.56 1665.13,-211.5 1946.48,-211.15"/>
<polygon fill="black" stroke="black" points="1946.23,-214.65 1956.22,-211.13 1946.22,-207.65 1946.23,-214.65"/>
<text xml:space="preserve" text-anchor="middle" x="521" y="-258.2" font-family="Times,serif" font-size="14.00">DDG: parse</text>
</g>
<!-- 68719477334 -->
<g id="node9" class="node">
<title>68719477334</title>
<polygon fill="none" stroke="black" points="549.88,-327.25 459.62,-327.25 459.62,-291.25 549.88,-291.25 549.88,-327.25"/>
<text xml:space="preserve" text-anchor="middle" x="504.75" y="-303.82" font-family="Times,serif" font-size="14.00">68719477334</text>
</g>
<!-- 68719477334&#45;&gt;68719477477 -->
<g id="edge7" class="edge">
<title>68719477334&#45;&gt;68719477477</title>
<path fill="none" stroke="black" d="M527.77,-290.77C545.45,-278.44 571.05,-262.89 596.25,-255.75 726.57,-218.82 1678.54,-212.41 1946.65,-211.33"/>
<polygon fill="black" stroke="black" points="1946.28,-214.84 1956.26,-211.3 1946.25,-207.84 1946.28,-214.84"/>
<text xml:space="preserve" text-anchor="middle" x="630" y="-258.2" font-family="Times,serif" font-size="14.00">DDG: parse</text>
</g>
<!-- 68719477337 -->
<g id="node10" class="node">
<title>68719477337</title>
<polygon fill="none" stroke="black" points="657.88,-327.25 567.62,-327.25 567.62,-291.25 657.88,-291.25 657.88,-327.25"/>
<text xml:space="preserve" text-anchor="middle" x="612.75" y="-303.82" font-family="Times,serif" font-size="14.00">68719477337</text>
</g>
<!-- 68719477337&#45;&gt;68719477477 -->
<g id="edge8" class="edge">
<title>68719477337&#45;&gt;68719477477</title>
<path fill="none" stroke="black" d="M636.05,-290.79C653.95,-278.46 679.84,-262.92 705.25,-255.75 824.76,-222.02 1691.96,-213.37 1946.62,-211.55"/>
<polygon fill="black" stroke="black" points="1946.43,-215.05 1956.41,-211.48 1946.39,-208.05 1946.43,-215.05"/>
<text xml:space="preserve" text-anchor="middle" x="739" y="-258.2" font-family="Times,serif" font-size="14.00">DDG: parse</text>
</g>
<!-- 68719477340 -->
<g id="node11" class="node">
<title>68719477340</title>
<polygon fill="none" stroke="black" points="765.88,-327.25 675.62,-327.25 675.62,-291.25 765.88,-291.25 765.88,-327.25"/>
<text xml:space="preserve" text-anchor="middle" x="720.75" y="-303.82" font-family="Times,serif" font-size="14.00">68719477340</text>
</g>
<!-- 68719477340&#45;&gt;68719477477 -->
<g id="edge9" class="edge">
<title>68719477340&#45;&gt;68719477477</title>
<path fill="none" stroke="black" d="M744.62,-290.81C762.94,-278.5 789.4,-262.96 815.25,-255.75 923.93,-225.43 1706.06,-214.49 1946.57,-211.83"/>
<polygon fill="black" stroke="black" points="1946.47,-215.33 1956.43,-211.72 1946.39,-208.33 1946.47,-215.33"/>
<text xml:space="preserve" text-anchor="middle" x="849" y="-258.2" font-family="Times,serif" font-size="14.00">DDG: parse</text>
</g>
<!-- 68719477343 -->
<g id="node12" class="node">
<title>68719477343</title>
<polygon fill="none" stroke="black" points="873.88,-327.25 783.62,-327.25 783.62,-291.25 873.88,-291.25 873.88,-327.25"/>
<text xml:space="preserve" text-anchor="middle" x="828.75" y="-303.82" font-family="Times,serif" font-size="14.00">68719477343</text>
</g>
<!-- 68719477343&#45;&gt;68719477477 -->
<g id="edge10" class="edge">
<title>68719477343&#45;&gt;68719477477</title>
<path fill="none" stroke="black" d="M853.19,-290.84C871.93,-278.54 898.96,-263.01 925.25,-255.75 1023.12,-228.71 1721.06,-215.68 1946.63,-212.14"/>
<polygon fill="black" stroke="black" points="1946.5,-215.65 1956.45,-211.99 1946.39,-208.65 1946.5,-215.65"/>
<text xml:space="preserve" text-anchor="middle" x="959" y="-258.2" font-family="Times,serif" font-size="14.00">DDG: parse</text>
</g>
<!-- 68719477346 -->
<g id="node13" class="node">
<title>68719477346</title>
<polygon fill="none" stroke="black" points="981.88,-327.25 891.62,-327.25 891.62,-291.25 981.88,-291.25 981.88,-327.25"/>
<text xml:space="preserve" text-anchor="middle" x="936.75" y="-303.82" font-family="Times,serif" font-size="14.00">68719477346</text>
</g>
<!-- 68719477346&#45;&gt;68719477477 -->
<g id="edge11" class="edge">
<title>68719477346&#45;&gt;68719477477</title>
<path fill="none" stroke="black" d="M961.2,-290.87C979.95,-278.6 1006.98,-263.07 1033.25,-255.75 1120.36,-231.47 1735.54,-216.84 1946.19,-212.49"/>
<polygon fill="black" stroke="black" points="1946.26,-215.99 1956.19,-212.29 1946.12,-209 1946.26,-215.99"/>
<text xml:space="preserve" text-anchor="middle" x="1067" y="-258.2" font-family="Times,serif" font-size="14.00">DDG: parse</text>
</g>
<!-- 68719477349 -->
<g id="node14" class="node">
<title>68719477349</title>
<polygon fill="none" stroke="black" points="1089.88,-327.25 999.62,-327.25 999.62,-291.25 1089.88,-291.25 1089.88,-327.25"/>
<text xml:space="preserve" text-anchor="middle" x="1044.75" y="-303.82" font-family="Times,serif" font-size="14.00">68719477349</text>
</g>
<!-- 68719477349&#45;&gt;68719477477 -->
<g id="edge12" class="edge">
<title>68719477349&#45;&gt;68719477477</title>
<path fill="none" stroke="black" d="M1068.93,-290.91C1087.48,-278.66 1114.22,-263.14 1140.25,-255.75 1291.11,-212.9 1766.11,-210.11 1946.4,-210.66"/>
<polygon fill="black" stroke="black" points="1946.32,-214.16 1956.33,-210.69 1946.34,-207.16 1946.32,-214.16"/>
<text xml:space="preserve" text-anchor="middle" x="1174" y="-258.2" font-family="Times,serif" font-size="14.00">DDG: parse</text>
</g>
<!-- 68719477352 -->
<g id="node15" class="node">
<title>68719477352</title>
<polygon fill="none" stroke="black" points="1197.88,-327.25 1107.62,-327.25 1107.62,-291.25 1197.88,-291.25 1197.88,-327.25"/>
<text xml:space="preserve" text-anchor="middle" x="1152.75" y="-303.82" font-family="Times,serif" font-size="14.00">68719477352</text>
</g>
<!-- 68719477352&#45;&gt;68719477477 -->
<g id="edge13" class="edge">
<title>68719477352&#45;&gt;68719477477</title>
<path fill="none" stroke="black" d="M1176.67,-290.97C1195.01,-278.74 1221.48,-263.23 1247.25,-255.75 1377.22,-218.02 1782.2,-212.05 1946.46,-211.21"/>
<polygon fill="black" stroke="black" points="1946.37,-214.71 1956.36,-211.17 1946.34,-207.71 1946.37,-214.71"/>
<text xml:space="preserve" text-anchor="middle" x="1281" y="-258.2" font-family="Times,serif" font-size="14.00">DDG: parse</text>
</g>
<!-- 68719477355 -->
<g id="node16" class="node">
<title>68719477355</title>
<polygon fill="none" stroke="black" points="1305.88,-327.25 1215.62,-327.25 1215.62,-291.25 1305.88,-291.25 1305.88,-327.25"/>
<text xml:space="preserve" text-anchor="middle" x="1260.75" y="-303.82" font-family="Times,serif" font-size="14.00">68719477355</text>
</g>
<!-- 68719477355&#45;&gt;68719477477 -->
<g id="edge14" class="edge">
<title>68719477355&#45;&gt;68719477477</title>
<path fill="none" stroke="black" d="M1284.79,-290.78C1302.92,-278.62 1328.91,-263.3 1354.25,-255.75 1463.54,-223.2 1799.6,-214.31 1946.64,-211.95"/>
<polygon fill="black" stroke="black" points="1946.28,-215.45 1956.23,-211.8 1946.17,-208.46 1946.28,-215.45"/>
<text xml:space="preserve" text-anchor="middle" x="1388" y="-258.2" font-family="Times,serif" font-size="14.00">DDG: parse</text>
</g>
<!-- 68719477358 -->
<g id="node17" class="node">
<title>68719477358</title>
<polygon fill="none" stroke="black" points="1413.88,-327.25 1323.62,-327.25 1323.62,-291.25 1413.88,-291.25 1413.88,-327.25"/>
<text xml:space="preserve" text-anchor="middle" x="1368.75" y="-303.82" font-family="Times,serif" font-size="14.00">68719477358</text>
</g>
<!-- 68719477358&#45;&gt;68719477477 -->
<g id="edge15" class="edge">
<title>68719477358&#45;&gt;68719477477</title>
<path fill="none" stroke="black" d="M1392.25,-290.87C1409.97,-278.76 1435.41,-263.45 1460.25,-255.75 1549.11,-228.22 1817.6,-216.88 1946.37,-212.94"/>
<polygon fill="black" stroke="black" points="1946.24,-216.44 1956.13,-212.64 1946.03,-209.45 1946.24,-216.44"/>
<text xml:space="preserve" text-anchor="middle" x="1494" y="-258.2" font-family="Times,serif" font-size="14.00">DDG: parse</text>
</g>
<!-- 68719477361 -->
<g id="node18" class="node">
<title>68719477361</title>
<polygon fill="none" stroke="black" points="1521.88,-327.25 1431.62,-327.25 1431.62,-291.25 1521.88,-291.25 1521.88,-327.25"/>
<text xml:space="preserve" text-anchor="middle" x="1476.75" y="-303.82" font-family="Times,serif" font-size="14.00">68719477361</text>
</g>
<!-- 68719477361&#45;&gt;68719477477 -->
<g id="edge16" class="edge">
<title>68719477361&#45;&gt;68719477477</title>
<path fill="none" stroke="black" d="M1499.43,-290.99C1516.55,-278.95 1541.15,-263.66 1565.25,-255.75 1634.21,-233.13 1837.86,-219.95 1946.54,-214.34"/>
<polygon fill="black" stroke="black" points="1946.71,-217.84 1956.52,-213.84 1946.36,-210.85 1946.71,-217.84"/>
<text xml:space="preserve" text-anchor="middle" x="1599" y="-258.2" font-family="Times,serif" font-size="14.00">DDG: parse</text>
</g>
<!-- 68719477364 -->
<g id="node19" class="node">
<title>68719477364</title>
<polygon fill="none" stroke="black" points="1629.88,-327.25 1539.62,-327.25 1539.62,-291.25 1629.88,-291.25 1629.88,-327.25"/>
<text xml:space="preserve" text-anchor="middle" x="1584.75" y="-303.82" font-family="Times,serif" font-size="14.00">68719477364</text>
</g>
<!-- 68719477364&#45;&gt;68719477477 -->
<g id="edge17" class="edge">
<title>68719477364&#45;&gt;68719477477</title>
<path fill="none" stroke="black" d="M1606.4,-290.92C1622.5,-279 1645.52,-263.9 1668.25,-255.75 1760.77,-222.57 1874.88,-213.48 1946.76,-211.3"/>
<polygon fill="black" stroke="black" points="1946.5,-214.81 1956.41,-211.05 1946.32,-207.81 1946.5,-214.81"/>
<text xml:space="preserve" text-anchor="middle" x="1702" y="-258.2" font-family="Times,serif" font-size="14.00">DDG: parse</text>
</g>
<!-- 68719477367 -->
<g id="node20" class="node">
<title>68719477367</title>
<polygon fill="none" stroke="black" points="1737.88,-327.25 1647.62,-327.25 1647.62,-291.25 1737.88,-291.25 1737.88,-327.25"/>
<text xml:space="preserve" text-anchor="middle" x="1692.75" y="-303.82" font-family="Times,serif" font-size="14.00">68719477367</text>
</g>
<!-- 68719477367&#45;&gt;68719477477 -->
<g id="edge18" class="edge">
<title>68719477367&#45;&gt;68719477477</title>
<path fill="none" stroke="black" d="M1712.49,-290.95C1726.96,-279.2 1747.6,-264.3 1768.25,-255.75 1825.57,-232.01 1895.47,-220.88 1946.52,-215.67"/>
<polygon fill="black" stroke="black" points="1946.64,-219.18 1956.26,-214.74 1945.97,-212.21 1946.64,-219.18"/>
<text xml:space="preserve" text-anchor="middle" x="1802" y="-258.2" font-family="Times,serif" font-size="14.00">DDG: parse</text>
</g>
<!-- 68719477370 -->
<g id="node21" class="node">
<title>68719477370</title>
<polygon fill="none" stroke="black" points="1845.88,-327.25 1755.62,-327.25 1755.62,-291.25 1845.88,-291.25 1845.88,-327.25"/>
<text xml:space="preserve" text-anchor="middle" x="1800.75" y="-303.82" font-family="Times,serif" font-size="14.00">68719477370</text>
</g>
<!-- 68719477370&#45;&gt;68719477477 -->
<g id="edge19" class="edge">
<title>68719477370&#45;&gt;68719477477</title>
<path fill="none" stroke="black" d="M1816.71,-290.9C1828.12,-279.44 1844.38,-264.9 1861.25,-255.75 1887.73,-241.38 1919.32,-231.22 1947.09,-224.26"/>
<polygon fill="black" stroke="black" points="1947.54,-227.75 1956.45,-222.01 1945.91,-220.95 1947.54,-227.75"/>
<text xml:space="preserve" text-anchor="middle" x="1895" y="-258.2" font-family="Times,serif" font-size="14.00">DDG: parse</text>
</g>
<!-- 68719477373 -->
<g id="node22" class="node">
<title>68719477373</title>
<polygon fill="none" stroke="black" points="1953.88,-327.25 1863.62,-327.25 1863.62,-291.25 1953.88,-291.25 1953.88,-327.25"/>
<text xml:space="preserve" text-anchor="middle" x="1908.75" y="-303.82" font-family="Times,serif" font-size="14.00">68719477373</text>
</g>
<!-- 68719477373&#45;&gt;68719477477 -->
<g id="edge20" class="edge">
<title>68719477373&#45;&gt;68719477477</title>
<path fill="none" stroke="black" d="M1918.38,-290.83C1924.98,-279.91 1934.47,-266 1945.25,-255.75 1949.32,-251.88 1953.78,-248.16 1958.41,-244.65"/>
<polygon fill="black" stroke="black" points="1960.18,-247.69 1966.27,-239.02 1956.1,-242 1960.18,-247.69"/>
<text xml:space="preserve" text-anchor="middle" x="1979" y="-258.2" font-family="Times,serif" font-size="14.00">DDG: parse</text>
</g>
<!-- 68719477376 -->
<g id="node23" class="node">
<title>68719477376</title>
<polygon fill="none" stroke="black" points="2061.88,-327.25 1971.62,-327.25 1971.62,-291.25 2061.88,-291.25 2061.88,-327.25"/>
<text xml:space="preserve" text-anchor="middle" x="2016.75" y="-303.82" font-family="Times,serif" font-size="14.00">68719477376</text>
</g>
<!-- 68719477376&#45;&gt;68719477477 -->
<g id="edge21" class="edge">
<title>68719477376&#45;&gt;68719477477</title>
<path fill="none" stroke="black" d="M2016.75,-290.89C2016.75,-279.35 2016.75,-263.73 2016.75,-249.38"/>
<polygon fill="black" stroke="black" points="2020.25,-249.75 2016.75,-239.75 2013.25,-249.75 2020.25,-249.75"/>
<text xml:space="preserve" text-anchor="middle" x="2050.5" y="-258.2" font-family="Times,serif" font-size="14.00">DDG: parse</text>
</g>
<!-- 68719477379 -->
<g id="node24" class="node">
<title>68719477379</title>
<polygon fill="none" stroke="black" points="2169.88,-327.25 2079.62,-327.25 2079.62,-291.25 2169.88,-291.25 2169.88,-327.25"/>
<text xml:space="preserve" text-anchor="middle" x="2124.75" y="-303.82" font-family="Times,serif" font-size="14.00">68719477379</text>
</g>
<!-- 68719477379&#45;&gt;68719477477 -->
<g id="edge22" class="edge">
<title>68719477379&#45;&gt;68719477477</title>
<path fill="none" stroke="black" d="M2115.31,-290.81C2108.82,-279.88 2099.46,-265.98 2088.75,-255.75 2084.67,-251.85 2080.19,-248.12 2075.53,-244.59"/>
<polygon fill="black" stroke="black" points="2077.79,-241.91 2067.62,-238.94 2073.72,-247.6 2077.79,-241.91"/>
<text xml:space="preserve" text-anchor="middle" x="2136.24" y="-258.2" font-family="Times,serif" font-size="14.00">DDG: parse</text>
</g>
<!-- 68719477382 -->
<g id="node25" class="node">
<title>68719477382</title>
<polygon fill="none" stroke="black" points="2277.88,-327.25 2187.62,-327.25 2187.62,-291.25 2277.88,-291.25 2277.88,-327.25"/>
<text xml:space="preserve" text-anchor="middle" x="2232.75" y="-303.82" font-family="Times,serif" font-size="14.00">68719477382</text>
</g>
<!-- 68719477382&#45;&gt;68719477477 -->
<g id="edge23" class="edge">
<title>68719477382&#45;&gt;68719477477</title>
<path fill="none" stroke="black" d="M2217.27,-290.87C2206.19,-279.4 2190.34,-264.86 2173.75,-255.75 2147,-241.06 2114.97,-230.84 2086.83,-223.91"/>
<polygon fill="black" stroke="black" points="2087.87,-220.56 2077.33,-221.68 2086.26,-227.38 2087.87,-220.56"/>
<text xml:space="preserve" text-anchor="middle" x="2228.86" y="-258.2" font-family="Times,serif" font-size="14.00">DDG: parse</text>
</g>
<!-- 68719477385 -->
<g id="node26" class="node">
<title>68719477385</title>
<polygon fill="none" stroke="black" points="2385.88,-327.25 2295.62,-327.25 2295.62,-291.25 2385.88,-291.25 2385.88,-327.25"/>
<text xml:space="preserve" text-anchor="middle" x="2340.75" y="-303.82" font-family="Times,serif" font-size="14.00">68719477385</text>
</g>
<!-- 68719477385&#45;&gt;68719477477 -->
<g id="edge24" class="edge">
<title>68719477385&#45;&gt;68719477477</title>
<path fill="none" stroke="black" d="M2321.47,-290.93C2307.31,-279.18 2287.09,-264.27 2266.75,-255.75 2209.01,-231.55 2138.4,-220.47 2086.96,-215.39"/>
<polygon fill="black" stroke="black" points="2087.42,-211.92 2077.14,-214.48 2086.78,-218.89 2087.42,-211.92"/>
<text xml:space="preserve" text-anchor="middle" x="2328.79" y="-258.2" font-family="Times,serif" font-size="14.00">DDG: parse</text>
</g>
<!-- 68719477388 -->
<g id="node27" class="node">
<title>68719477388</title>
<polygon fill="none" stroke="black" points="2493.88,-327.25 2403.62,-327.25 2403.62,-291.25 2493.88,-291.25 2493.88,-327.25"/>
<text xml:space="preserve" text-anchor="middle" x="2448.75" y="-303.82" font-family="Times,serif" font-size="14.00">68719477388</text>
</g>
<!-- 68719477388&#45;&gt;68719477477 -->
<g id="edge25" class="edge">
<title>68719477388&#45;&gt;68719477477</title>
<path fill="none" stroke="black" d="M2427.54,-290.91C2411.75,-278.98 2389.15,-263.88 2366.75,-255.75 2273.83,-222.03 2158.99,-213.09 2086.78,-211.09"/>
<polygon fill="black" stroke="black" points="2087.16,-207.59 2077.08,-210.86 2087,-214.59 2087.16,-207.59"/>
<text xml:space="preserve" text-anchor="middle" x="2431.62" y="-258.2" font-family="Times,serif" font-size="14.00">DDG: parse</text>
</g>
<!-- 68719477391 -->
<g id="node28" class="node">
<title>68719477391</title>
<polygon fill="none" stroke="black" points="2601.88,-327.25 2511.62,-327.25 2511.62,-291.25 2601.88,-291.25 2601.88,-327.25"/>
<text xml:space="preserve" text-anchor="middle" x="2556.75" y="-303.82" font-family="Times,serif" font-size="14.00">68719477391</text>
</g>
<!-- 68719477391&#45;&gt;68719477477 -->
<g id="edge26" class="edge">
<title>68719477391&#45;&gt;68719477477</title>
<path fill="none" stroke="black" d="M2534.5,-290.99C2517.69,-278.93 2493.52,-263.64 2469.75,-255.75 2400.57,-232.78 2195.87,-219.74 2086.88,-214.25"/>
<polygon fill="black" stroke="black" points="2087.35,-210.77 2077.19,-213.77 2087.01,-217.76 2087.35,-210.77"/>
<text xml:space="preserve" text-anchor="middle" x="2536.39" y="-258.2" font-family="Times,serif" font-size="14.00">DDG: parse</text>
</g>
<!-- 68719477394 -->
<g id="node29" class="node">
<title>68719477394</title>
<polygon fill="none" stroke="black" points="2709.88,-327.25 2619.62,-327.25 2619.62,-291.25 2709.88,-291.25 2709.88,-327.25"/>
<text xml:space="preserve" text-anchor="middle" x="2664.75" y="-303.82" font-family="Times,serif" font-size="14.00">68719477394</text>
</g>
<!-- 68719477394&#45;&gt;68719477477 -->
<g id="edge27" class="edge">
<title>68719477394&#45;&gt;68719477477</title>
<path fill="none" stroke="black" d="M2641.4,-290.87C2623.77,-278.76 2598.48,-263.44 2573.75,-255.75 2484.73,-228.06 2215.42,-216.79 2086.71,-212.9"/>
<polygon fill="black" stroke="black" points="2087.06,-209.41 2076.96,-212.61 2086.85,-216.4 2087.06,-209.41"/>
<text xml:space="preserve" text-anchor="middle" x="2641.8" y="-258.2" font-family="Times,serif" font-size="14.00">DDG: parse</text>
</g>
<!-- 68719477397 -->
<g id="node30" class="node">
<title>68719477397</title>
<polygon fill="none" stroke="black" points="2817.88,-327.25 2727.62,-327.25 2727.62,-291.25 2817.88,-291.25 2817.88,-327.25"/>
<text xml:space="preserve" text-anchor="middle" x="2772.75" y="-303.82" font-family="Times,serif" font-size="14.00">68719477397</text>
</g>
<!-- 68719477397&#45;&gt;68719477477 -->
<g id="edge28" class="edge">
<title>68719477397&#45;&gt;68719477477</title>
<path fill="none" stroke="black" d="M2748.85,-290.78C2730.83,-278.62 2704.97,-263.29 2679.75,-255.75 2570.41,-223.06 2234.08,-214.24 2086.92,-211.93"/>
<polygon fill="black" stroke="black" points="2087.38,-208.43 2077.32,-211.78 2087.27,-215.43 2087.38,-208.43"/>
<text xml:space="preserve" text-anchor="middle" x="2748.51" y="-258.2" font-family="Times,serif" font-size="14.00">DDG: parse</text>
</g>
<!-- 68719477400 -->
<g id="node31" class="node">
<title>68719477400</title>
<polygon fill="none" stroke="black" points="2925.88,-327.25 2835.62,-327.25 2835.62,-291.25 2925.88,-291.25 2925.88,-327.25"/>
<text xml:space="preserve" text-anchor="middle" x="2880.75" y="-303.82" font-family="Times,serif" font-size="14.00">68719477400</text>
</g>
<!-- 68719477400&#45;&gt;68719477477 -->
<g id="edge29" class="edge">
<title>68719477400&#45;&gt;68719477477</title>
<path fill="none" stroke="black" d="M2856.97,-290.97C2838.74,-278.73 2812.41,-263.23 2786.75,-255.75 2656.74,-217.85 2251.47,-211.98 2087.09,-211.19"/>
<polygon fill="black" stroke="black" points="2087.2,-207.69 2077.19,-211.15 2087.17,-214.69 2087.2,-207.69"/>
<text xml:space="preserve" text-anchor="middle" x="2855.88" y="-258.2" font-family="Times,serif" font-size="14.00">DDG: parse</text>
</g>
<!-- 68719477403 -->
<g id="node32" class="node">
<title>68719477403</title>
<polygon fill="none" stroke="black" points="3033.88,-327.25 2943.62,-327.25 2943.62,-291.25 3033.88,-291.25 3033.88,-327.25"/>
<text xml:space="preserve" text-anchor="middle" x="2988.75" y="-303.82" font-family="Times,serif" font-size="14.00">68719477403</text>
</g>
<!-- 68719477403&#45;&gt;68719477477 -->
<g id="edge30" class="edge">
<title>68719477403&#45;&gt;68719477477</title>
<path fill="none" stroke="black" d="M2964.71,-290.91C2946.27,-278.66 2919.66,-263.14 2893.75,-255.75 2742.85,-212.71 2267.56,-210.03 2087.15,-210.64"/>
<polygon fill="black" stroke="black" points="2087.2,-207.14 2077.21,-210.67 2087.22,-214.14 2087.2,-207.14"/>
<text xml:space="preserve" text-anchor="middle" x="2963.24" y="-258.2" font-family="Times,serif" font-size="14.00">DDG: parse</text>
</g>
<!-- 68719477408 -->
<g id="node33" class="node">
<title>68719477408</title>
<polygon fill="none" stroke="black" points="3141.88,-327.25 3051.62,-327.25 3051.62,-291.25 3141.88,-291.25 3141.88,-327.25"/>
<text xml:space="preserve" text-anchor="middle" x="3096.75" y="-303.82" font-family="Times,serif" font-size="14.00">68719477408</text>
</g>
<!-- 68719477408&#45;&gt;68719477477 -->
<g id="edge31" class="edge">
<title>68719477408&#45;&gt;68719477477</title>
<path fill="none" stroke="black" d="M3072.44,-290.87C3053.8,-278.59 3026.91,-263.07 3000.75,-255.75 2913.58,-231.35 2297.5,-216.79 2087.03,-212.48"/>
<polygon fill="black" stroke="black" points="2087.42,-208.99 2077.35,-212.28 2087.27,-215.98 2087.42,-208.99"/>
<text xml:space="preserve" text-anchor="middle" x="3070.6" y="-258.2" font-family="Times,serif" font-size="14.00">DDG: parse</text>
</g>
<!-- 68719477414 -->
<g id="node34" class="node">
<title>68719477414</title>
<polygon fill="none" stroke="black" points="3249.88,-327.25 3159.62,-327.25 3159.62,-291.25 3249.88,-291.25 3249.88,-327.25"/>
<text xml:space="preserve" text-anchor="middle" x="3204.75" y="-303.82" font-family="Times,serif" font-size="14.00">68719477414</text>
</g>
<!-- 68719477414&#45;&gt;68719477477 -->
<g id="edge32" class="edge">
<title>68719477414&#45;&gt;68719477477</title>
<path fill="none" stroke="black" d="M3180.45,-290.84C3161.81,-278.54 3134.93,-263.01 3108.75,-255.75 3010.86,-228.59 2312.59,-215.64 2086.91,-212.14"/>
<polygon fill="black" stroke="black" points="2087.13,-208.64 2077.08,-211.98 2087.03,-215.64 2087.13,-208.64"/>
<text xml:space="preserve" text-anchor="middle" x="3181.27" y="-258.2" font-family="Times,serif" font-size="14.00">DDG: parse</text>
</g>
<!-- 68719477421 -->
<g id="node35" class="node">
<title>68719477421</title>
<polygon fill="none" stroke="black" points="3357.88,-327.25 3267.62,-327.25 3267.62,-291.25 3357.88,-291.25 3357.88,-327.25"/>
<text xml:space="preserve" text-anchor="middle" x="3312.75" y="-303.82" font-family="Times,serif" font-size="14.00">68719477421</text>
</g>
<!-- 68719477421&#45;&gt;68719477477 -->
<g id="edge33" class="edge">
<title>68719477421&#45;&gt;68719477477</title>
<path fill="none" stroke="black" d="M3289.02,-290.81C3270.8,-278.5 3244.49,-262.96 3218.75,-255.75 3110.06,-225.29 2327.58,-214.45 2086.96,-211.82"/>
<polygon fill="black" stroke="black" points="2087.13,-208.32 2077.1,-211.71 2087.06,-215.32 2087.13,-208.32"/>
<text xml:space="preserve" text-anchor="middle" x="3290.55" y="-258.2" font-family="Times,serif" font-size="14.00">DDG: parse</text>
</g>
<!-- 68719477430 -->
<g id="node36" class="node">
<title>68719477430</title>
<polygon fill="none" stroke="black" points="3465.88,-327.25 3375.62,-327.25 3375.62,-291.25 3465.88,-291.25 3465.88,-327.25"/>
<text xml:space="preserve" text-anchor="middle" x="3420.75" y="-303.82" font-family="Times,serif" font-size="14.00">68719477430</text>
</g>
<!-- 68719477430&#45;&gt;68719477477 -->
<g id="edge34" class="edge">
<title>68719477430&#45;&gt;68719477477</title>
<path fill="none" stroke="black" d="M3397.59,-290.79C3379.79,-278.46 3354.05,-262.92 3328.75,-255.75 3209.24,-221.86 2341.67,-213.33 2086.91,-211.54"/>
<polygon fill="black" stroke="black" points="2087.14,-208.04 2077.11,-211.48 2087.09,-215.04 2087.14,-208.04"/>
<text xml:space="preserve" text-anchor="middle" x="3399.82" y="-258.2" font-family="Times,serif" font-size="14.00">DDG: parse</text>
</g>
<!-- 68719477436 -->
<g id="node37" class="node">
<title>68719477436</title>
<polygon fill="none" stroke="black" points="3573.88,-327.25 3483.62,-327.25 3483.62,-291.25 3573.88,-291.25 3573.88,-327.25"/>
<text xml:space="preserve" text-anchor="middle" x="3528.75" y="-303.82" font-family="Times,serif" font-size="14.00">68719477436</text>
</g>
<!-- 68719477436&#45;&gt;68719477477 -->
<g id="edge35" class="edge">
<title>68719477436&#45;&gt;68719477477</title>
<path fill="none" stroke="black" d="M3505.87,-290.77C3488.29,-278.44 3462.84,-262.89 3437.75,-255.75 3307.42,-218.65 2355.09,-212.36 2086.88,-211.32"/>
<polygon fill="black" stroke="black" points="2087.27,-207.83 2077.26,-211.29 2087.25,-214.83 2087.27,-207.83"/>
<text xml:space="preserve" text-anchor="middle" x="3508.46" y="-258.2" font-family="Times,serif" font-size="14.00">DDG: parse</text>
</g>
<!-- 68719477455 -->
<g id="node38" class="node">
<title>68719477455</title>
<polygon fill="none" stroke="black" points="3681.88,-327.25 3591.62,-327.25 3591.62,-291.25 3681.88,-291.25 3681.88,-327.25"/>
<text xml:space="preserve" text-anchor="middle" x="3636.75" y="-303.82" font-family="Times,serif" font-size="14.00">68719477455</text>
</g>
<!-- 68719477455&#45;&gt;68719477477 -->
<g id="edge36" class="edge">
<title>68719477455&#45;&gt;68719477477</title>
<path fill="none" stroke="black" d="M3613.88,-290.75C3596.3,-278.41 3570.84,-262.86 3545.75,-255.75 3404.63,-215.75 2368.24,-211.55 2087,-211.16"/>
<polygon fill="black" stroke="black" points="2087.26,-207.66 2077.26,-211.14 2087.25,-214.66 2087.26,-207.66"/>
<text xml:space="preserve" text-anchor="middle" x="3616.47" y="-258.2" font-family="Times,serif" font-size="14.00">DDG: parse</text>
</g>
<!-- 68719477459 -->
<g id="node39" class="node">
<title>68719477459</title>
<polygon fill="none" stroke="black" points="3789.88,-327.25 3699.62,-327.25 3699.62,-291.25 3789.88,-291.25 3789.88,-327.25"/>
<text xml:space="preserve" text-anchor="middle" x="3744.75" y="-303.82" font-family="Times,serif" font-size="14.00">68719477459</text>
</g>
<!-- 68719477459&#45;&gt;68719477477 -->
<g id="edge37" class="edge">
<title>68719477459&#45;&gt;68719477477</title>
<path fill="none" stroke="black" d="M3722.25,-291C3704.66,-278.61 3679.03,-262.89 3653.75,-255.75 3501.79,-212.83 2380.78,-210.8 2087.05,-211.01"/>
<polygon fill="black" stroke="black" points="2087.23,-207.51 2077.23,-211.02 2087.24,-214.51 2087.23,-207.51"/>
<text xml:space="preserve" text-anchor="middle" x="3724.48" y="-258.2" font-family="Times,serif" font-size="14.00">DDG: parse</text>
</g>
<!-- 68719477462 -->
<g id="node40" class="node">
<title>68719477462</title>
<polygon fill="none" stroke="black" points="3897.88,-327.25 3807.62,-327.25 3807.62,-291.25 3897.88,-291.25 3897.88,-327.25"/>
<text xml:space="preserve" text-anchor="middle" x="3852.75" y="-303.82" font-family="Times,serif" font-size="14.00">68719477462</text>
</g>
<!-- 68719477462&#45;&gt;68719477477 -->
<g id="edge38" class="edge">
<title>68719477462&#45;&gt;68719477477</title>
<path fill="none" stroke="black" d="M3830.25,-290.98C3812.66,-278.59 3787.03,-262.87 3761.75,-255.75 3598.94,-209.91 2392.96,-210.08 2087.11,-210.88"/>
<polygon fill="black" stroke="black" points="2087.26,-207.38 2077.27,-210.91 2087.28,-214.38 2087.26,-207.38"/>
<text xml:space="preserve" text-anchor="middle" x="3832.48" y="-258.2" font-family="Times,serif" font-size="14.00">DDG: parse</text>
</g>
<!-- 68719477465 -->
<g id="node41" class="node">
<title>68719477465</title>
<polygon fill="none" stroke="black" points="4005.88,-327.25 3915.62,-327.25 3915.62,-291.25 4005.88,-291.25 4005.88,-327.25"/>
<text xml:space="preserve" text-anchor="middle" x="3960.75" y="-303.82" font-family="Times,serif" font-size="14.00">68719477465</text>
</g>
<!-- 68719477465&#45;&gt;68719477477 -->
<g id="edge39" class="edge">
<title>68719477465&#45;&gt;68719477477</title>
<path fill="none" stroke="black" d="M3938.26,-290.97C3920.67,-278.57 3895.04,-262.85 3869.75,-255.75 3695.98,-206.97 2403.61,-209.42 2086.74,-210.77"/>
<polygon fill="black" stroke="black" points="2086.94,-207.26 2076.95,-210.81 2086.97,-214.26 2086.94,-207.26"/>
<text xml:space="preserve" text-anchor="middle" x="3940.48" y="-258.2" font-family="Times,serif" font-size="14.00">DDG: parse</text>
</g>
</g>
</svg>
