<?xml version="1.0" encoding="UTF-8" standalone="no"?>
<!DOCTYPE svg PUBLIC "-//W3C//DTD SVG 1.1//EN"
 "http://www.w3.org/Graphics/SVG/1.1/DTD/svg11.dtd">
<!-- Generated by graphviz version 13.1.2 (20250809.0930)
 -->
<!-- Title: &lt;lambda&gt;4 Pages: 1 -->
<svg width="4014pt" height="337pt"
 viewBox="0.00 0.00 4014.00 337.00" xmlns="http://www.w3.org/2000/svg" xmlns:xlink="http://www.w3.org/1999/xlink">
<g id="graph0" class="graph" transform="scale(1 1) rotate(0) translate(4 333)">
<title>&lt;lambda&gt;4</title>
<polygon fill="white" stroke="none" points="-4,4 -4,-333 4009.88,-333 4009.88,4 -4,4"/>
<!-- 107374182451 -->
<g id="node1" class="node">
<title>107374182451</title>
<polygon fill="none" stroke="black" points="116.88,-329 26.62,-329 26.62,-289.5 116.88,-289.5 116.88,-329"/>
<text xml:space="preserve" text-anchor="start" x="34.62" y="-311.7" font-family="Times,serif" font-size="14.00">METHOD, 455</text>
<text xml:space="preserve" text-anchor="start" x="41.38" y="-295.95" font-family="Times,serif" font-size="14.00">&lt;lambda&gt;4</text>
</g>
<!-- 30064771829 -->
<g id="node4" class="node">
<title>30064771829</title>
<polygon fill="none" stroke="black" points="130.75,-229.88 6.75,-229.88 6.75,-190.38 130.75,-190.38 130.75,-229.88"/>
<text xml:space="preserve" text-anchor="start" x="35" y="-212.57" font-family="Times,serif" font-size="14.00">parse, 455</text>
<text xml:space="preserve" text-anchor="start" x="14.75" y="-196.82" font-family="Times,serif" font-size="14.00">parse(&#39;{&quot;a&quot; 1}&#39;)</text>
</g>
<!-- 107374182451&#45;&gt;30064771829 -->
<g id="edge41" class="edge">
<title>107374182451&#45;&gt;30064771829</title>
<path fill="none" stroke="black" d="M70.74,-289.18C70.47,-283.49 70.2,-277.25 70,-271.5 69.67,-261.78 69.41,-251.17 69.22,-241.59"/>
<polygon fill="black" stroke="black" points="72.72,-241.61 69.04,-231.68 65.72,-241.74 72.72,-241.61"/>
<text xml:space="preserve" text-anchor="middle" x="86.88" y="-258.2" font-family="Times,serif" font-size="14.00">DDG: </text>
</g>
<!-- 68719477480 -->
<g id="node5" class="node">
<title>68719477480</title>
<polygon fill="none" stroke="black" points="2078.75,-237.75 1954.75,-237.75 1954.75,-182.5 2078.75,-182.5 2078.75,-237.75"/>
<text xml:space="preserve" text-anchor="start" x="1966.12" y="-220.45" font-family="Times,serif" font-size="14.00">IDENTIFIER, 455</text>
<text xml:space="preserve" text-anchor="start" x="1999.88" y="-204.7" font-family="Times,serif" font-size="14.00">parse</text>
<text xml:space="preserve" text-anchor="start" x="1962.75" y="-188.95" font-family="Times,serif" font-size="14.00">parse(&#39;{&quot;a&quot; 1}&#39;)</text>
</g>
<!-- 107374182451&#45;&gt;68719477480 -->
<g id="edge40" class="edge">
<title>107374182451&#45;&gt;68719477480</title>
<path fill="none" stroke="black" d="M107.57,-289.01C132.01,-276.96 165.53,-262.48 197,-255.75 369.38,-218.88 1623.58,-212.38 1942.93,-211.32"/>
<polygon fill="black" stroke="black" points="1942.83,-214.82 1952.82,-211.29 1942.81,-207.82 1942.83,-214.82"/>
<text xml:space="preserve" text-anchor="middle" x="213.88" y="-258.2" font-family="Times,serif" font-size="14.00">DDG: </text>
</g>
<!-- 124554051635 -->
<g id="node2" class="node">
<title>124554051635</title>
<polygon fill="none" stroke="black" points="137.5,-39.5 0,-39.5 0,0 137.5,0 137.5,-39.5"/>
<text xml:space="preserve" text-anchor="start" x="8" y="-22.2" font-family="Times,serif" font-size="14.00">METHOD_RETURN, 455</text>
<text xml:space="preserve" text-anchor="start" x="58.62" y="-6.45" font-family="Times,serif" font-size="14.00">ANY</text>
</g>
<!-- 141733920815 -->
<g id="node3" class="node">
<title>141733920815</title>
<polygon fill="none" stroke="black" points="390.75,-130.75 212.75,-130.75 212.75,-91.25 390.75,-91.25 390.75,-130.75"/>
<text xml:space="preserve" text-anchor="start" x="264.62" y="-113.45" font-family="Times,serif" font-size="14.00">RETURN, 455</text>
<text xml:space="preserve" text-anchor="start" x="220.75" y="-97.7" font-family="Times,serif" font-size="14.00">lambda: parse(&#39;{&quot;a&quot; 1}&#39;)</text>
</g>
<!-- 141733920815&#45;&gt;124554051635 -->
<g id="edge1" class="edge">
<title>141733920815&#45;&gt;124554051635</title>
<path fill="none" stroke="black" d="M251.77,-90.85C215.83,-77.09 167.2,-58.46 129.1,-43.87"/>
<polygon fill="black" stroke="black" points="130.66,-40.71 120.07,-40.41 128.15,-47.25 130.66,-40.71"/>
<text xml:space="preserve" text-anchor="middle" x="232.95" y="-59.95" font-family="Times,serif" font-size="14.00">DDG: &lt;RET&gt;</text>
</g>
<!-- 30064771829&#45;&gt;124554051635 -->
<g id="edge2" class="edge">
<title>30064771829&#45;&gt;124554051635</title>
<path fill="none" stroke="black" d="M66.41,-189.94C63.86,-166.62 60.34,-126.06 62,-91.25 62.63,-78.03 63.92,-63.47 65.21,-51.03"/>
<polygon fill="black" stroke="black" points="68.66,-51.69 66.26,-41.37 61.7,-50.93 68.66,-51.69"/>
<text xml:space="preserve" text-anchor="middle" x="132.88" y="-105.58" font-family="Times,serif" font-size="14.00">DDG: parse(&#39;{&quot;a&quot; 1}&#39;)</text>
</g>
<!-- 30064771829&#45;&gt;141733920815 -->
<g id="edge3" class="edge">
<title>30064771829&#45;&gt;141733920815</title>
<path fill="none" stroke="black" d="M114.78,-189.94C152.28,-174.31 205.38,-152.17 245.41,-135.48"/>
<polygon fill="black" stroke="black" points="246.53,-138.81 254.42,-131.73 243.84,-132.35 246.53,-138.81"/>
<text xml:space="preserve" text-anchor="middle" x="283.85" y="-151.2" font-family="Times,serif" font-size="14.00">DDG: parse(&#39;{&quot;a&quot; 1}&#39;)</text>
</g>
<!-- 68719477325 -->
<g id="node6" class="node">
<title>68719477325</title>
<polygon fill="none" stroke="black" points="225.88,-327.25 135.62,-327.25 135.62,-291.25 225.88,-291.25 225.88,-327.25"/>
<text xml:space="preserve" text-anchor="middle" x="180.75" y="-303.82" font-family="Times,serif" font-size="14.00">68719477325</text>
</g>
<!-- 68719477325&#45;&gt;68719477480 -->
<g id="edge4" class="edge">
<title>68719477325&#45;&gt;68719477480</title>
<path fill="none" stroke="black" d="M203.11,-290.98C220.59,-278.59 246.08,-262.87 271.25,-255.75 433.51,-209.86 1632.28,-210.03 1943.24,-210.86"/>
<polygon fill="black" stroke="black" points="1942.83,-214.36 1952.84,-210.89 1942.85,-207.36 1942.83,-214.36"/>
<text xml:space="preserve" text-anchor="middle" x="305" y="-258.2" font-family="Times,serif" font-size="14.00">DDG: parse</text>
</g>
<!-- 68719477328 -->
<g id="node7" class="node">
<title>68719477328</title>
<polygon fill="none" stroke="black" points="333.88,-327.25 243.62,-327.25 243.62,-291.25 333.88,-291.25 333.88,-327.25"/>
<text xml:space="preserve" text-anchor="middle" x="288.75" y="-303.82" font-family="Times,serif" font-size="14.00">68719477328</text>
</g>
<!-- 68719477328&#45;&gt;68719477480 -->
<g id="edge5" class="edge">
<title>68719477328&#45;&gt;68719477480</title>
<path fill="none" stroke="black" d="M311.11,-291C328.6,-278.61 354.09,-262.89 379.25,-255.75 530.69,-212.78 1644.99,-210.76 1943.41,-211"/>
<polygon fill="black" stroke="black" points="1943,-214.5 1953,-211 1943,-207.5 1943,-214.5"/>
<text xml:space="preserve" text-anchor="middle" x="413" y="-258.2" font-family="Times,serif" font-size="14.00">DDG: parse</text>
</g>
<!-- 68719477331 -->
<g id="node8" class="node">
<title>68719477331</title>
<polygon fill="none" stroke="black" points="441.88,-327.25 351.62,-327.25 351.62,-291.25 441.88,-291.25 441.88,-327.25"/>
<text xml:space="preserve" text-anchor="middle" x="396.75" y="-303.82" font-family="Times,serif" font-size="14.00">68719477331</text>
</g>
<!-- 68719477331&#45;&gt;68719477480 -->
<g id="edge6" class="edge">
<title>68719477331&#45;&gt;68719477480</title>
<path fill="none" stroke="black" d="M419.48,-290.75C436.96,-278.41 462.27,-262.86 487.25,-255.75 627.82,-215.72 1657.04,-211.54 1943.14,-211.15"/>
<polygon fill="black" stroke="black" points="1943.1,-214.65 1953.1,-211.14 1943.09,-207.65 1943.1,-214.65"/>
<text xml:space="preserve" text-anchor="middle" x="521" y="-258.2" font-family="Times,serif" font-size="14.00">DDG: parse</text>
</g>
<!-- 68719477334 -->
<g id="node9" class="node">
<title>68719477334</title>
<polygon fill="none" stroke="black" points="549.88,-327.25 459.62,-327.25 459.62,-291.25 549.88,-291.25 549.88,-327.25"/>
<text xml:space="preserve" text-anchor="middle" x="504.75" y="-303.82" font-family="Times,serif" font-size="14.00">68719477334</text>
</g>
<!-- 68719477334&#45;&gt;68719477480 -->
<g id="edge7" class="edge">
<title>68719477334&#45;&gt;68719477480</title>
<path fill="none" stroke="black" d="M527.77,-290.77C545.45,-278.44 571.05,-262.89 596.25,-255.75 725.99,-218.98 1670.01,-212.47 1943,-211.35"/>
<polygon fill="black" stroke="black" points="1942.84,-214.85 1952.83,-211.31 1942.81,-207.85 1942.84,-214.85"/>
<text xml:space="preserve" text-anchor="middle" x="630" y="-258.2" font-family="Times,serif" font-size="14.00">DDG: parse</text>
</g>
<!-- 68719477337 -->
<g id="node10" class="node">
<title>68719477337</title>
<polygon fill="none" stroke="black" points="657.88,-327.25 567.62,-327.25 567.62,-291.25 657.88,-291.25 657.88,-327.25"/>
<text xml:space="preserve" text-anchor="middle" x="612.75" y="-303.82" font-family="Times,serif" font-size="14.00">68719477337</text>
</g>
<!-- 68719477337&#45;&gt;68719477480 -->
<g id="edge8" class="edge">
<title>68719477337&#45;&gt;68719477480</title>
<path fill="none" stroke="black" d="M636.05,-290.79C653.95,-278.46 679.84,-262.92 705.25,-255.75 824.22,-222.17 1684.14,-213.45 1943.13,-211.58"/>
<polygon fill="black" stroke="black" points="1943.15,-215.08 1953.13,-211.51 1943.1,-208.08 1943.15,-215.08"/>
<text xml:space="preserve" text-anchor="middle" x="739" y="-258.2" font-family="Times,serif" font-size="14.00">DDG: parse</text>
</g>
<!-- 68719477340 -->
<g id="node11" class="node">
<title>68719477340</title>
<polygon fill="none" stroke="black" points="765.88,-327.25 675.62,-327.25 675.62,-291.25 765.88,-291.25 765.88,-327.25"/>
<text xml:space="preserve" text-anchor="middle" x="720.75" y="-303.82" font-family="Times,serif" font-size="14.00">68719477340</text>
</g>
<!-- 68719477340&#45;&gt;68719477480 -->
<g id="edge9" class="edge">
<title>68719477340&#45;&gt;68719477480</title>
<path fill="none" stroke="black" d="M744.62,-290.81C762.94,-278.5 789.4,-262.96 815.25,-255.75 923.42,-225.57 1698.83,-214.59 1943.2,-211.86"/>
<polygon fill="black" stroke="black" points="1942.95,-215.37 1952.91,-211.76 1942.87,-208.37 1942.95,-215.37"/>
<text xml:space="preserve" text-anchor="middle" x="849" y="-258.2" font-family="Times,serif" font-size="14.00">DDG: parse</text>
</g>
<!-- 68719477343 -->
<g id="node12" class="node">
<title>68719477343</title>
<polygon fill="none" stroke="black" points="873.88,-327.25 783.62,-327.25 783.62,-291.25 873.88,-291.25 873.88,-327.25"/>
<text xml:space="preserve" text-anchor="middle" x="828.75" y="-303.82" font-family="Times,serif" font-size="14.00">68719477343</text>
</g>
<!-- 68719477343&#45;&gt;68719477480 -->
<g id="edge10" class="edge">
<title>68719477343&#45;&gt;68719477480</title>
<path fill="none" stroke="black" d="M853.19,-290.84C871.93,-278.54 898.96,-263.01 925.25,-255.75 1022.61,-228.85 1713.76,-215.82 1943.04,-212.2"/>
<polygon fill="black" stroke="black" points="1942.8,-215.71 1952.74,-212.05 1942.69,-208.71 1942.8,-215.71"/>
<text xml:space="preserve" text-anchor="middle" x="959" y="-258.2" font-family="Times,serif" font-size="14.00">DDG: parse</text>
</g>
<!-- 68719477346 -->
<g id="node13" class="node">
<title>68719477346</title>
<polygon fill="none" stroke="black" points="981.88,-327.25 891.62,-327.25 891.62,-291.25 981.88,-291.25 981.88,-327.25"/>
<text xml:space="preserve" text-anchor="middle" x="936.75" y="-303.82" font-family="Times,serif" font-size="14.00">68719477346</text>
</g>
<!-- 68719477346&#45;&gt;68719477480 -->
<g id="edge11" class="edge">
<title>68719477346&#45;&gt;68719477480</title>
<path fill="none" stroke="black" d="M961.2,-290.87C979.95,-278.6 1006.98,-263.07 1033.25,-255.75 1119.95,-231.59 1729.74,-216.98 1943.18,-212.56"/>
<polygon fill="black" stroke="black" points="1943.11,-216.06 1953.04,-212.35 1942.97,-209.06 1943.11,-216.06"/>
<text xml:space="preserve" text-anchor="middle" x="1067" y="-258.2" font-family="Times,serif" font-size="14.00">DDG: parse</text>
</g>
<!-- 68719477349 -->
<g id="node14" class="node">
<title>68719477349</title>
<polygon fill="none" stroke="black" points="1089.88,-327.25 999.62,-327.25 999.62,-291.25 1089.88,-291.25 1089.88,-327.25"/>
<text xml:space="preserve" text-anchor="middle" x="1044.75" y="-303.82" font-family="Times,serif" font-size="14.00">68719477349</text>
</g>
<!-- 68719477349&#45;&gt;68719477480 -->
<g id="edge12" class="edge">
<title>68719477349&#45;&gt;68719477480</title>
<path fill="none" stroke="black" d="M1068.93,-290.91C1087.48,-278.66 1114.22,-263.14 1140.25,-255.75 1290.2,-213.16 1760.38,-210.14 1943.1,-210.65"/>
<polygon fill="black" stroke="black" points="1942.93,-214.15 1952.94,-210.68 1942.95,-207.15 1942.93,-214.15"/>
<text xml:space="preserve" text-anchor="middle" x="1174" y="-258.2" font-family="Times,serif" font-size="14.00">DDG: parse</text>
</g>
<!-- 68719477352 -->
<g id="node15" class="node">
<title>68719477352</title>
<polygon fill="none" stroke="black" points="1197.88,-327.25 1107.62,-327.25 1107.62,-291.25 1197.88,-291.25 1197.88,-327.25"/>
<text xml:space="preserve" text-anchor="middle" x="1152.75" y="-303.82" font-family="Times,serif" font-size="14.00">68719477352</text>
</g>
<!-- 68719477352&#45;&gt;68719477480 -->
<g id="edge13" class="edge">
<title>68719477352&#45;&gt;68719477480</title>
<path fill="none" stroke="black" d="M1176.67,-290.97C1195.01,-278.74 1221.48,-263.23 1247.25,-255.75 1376.41,-218.26 1777.15,-212.13 1943.36,-211.23"/>
<polygon fill="black" stroke="black" points="1942.94,-214.73 1952.92,-211.18 1942.91,-207.73 1942.94,-214.73"/>
<text xml:space="preserve" text-anchor="middle" x="1281" y="-258.2" font-family="Times,serif" font-size="14.00">DDG: parse</text>
</g>
<!-- 68719477355 -->
<g id="node16" class="node">
<title>68719477355</title>
<polygon fill="none" stroke="black" points="1305.88,-327.25 1215.62,-327.25 1215.62,-291.25 1305.88,-291.25 1305.88,-327.25"/>
<text xml:space="preserve" text-anchor="middle" x="1260.75" y="-303.82" font-family="Times,serif" font-size="14.00">68719477355</text>
</g>
<!-- 68719477355&#45;&gt;68719477480 -->
<g id="edge14" class="edge">
<title>68719477355&#45;&gt;68719477480</title>
<path fill="none" stroke="black" d="M1284.79,-290.78C1302.92,-278.62 1328.91,-263.3 1354.25,-255.75 1462.67,-223.46 1794.23,-214.45 1943.07,-212.01"/>
<polygon fill="black" stroke="black" points="1942.87,-215.51 1952.81,-211.85 1942.76,-208.51 1942.87,-215.51"/>
<text xml:space="preserve" text-anchor="middle" x="1388" y="-258.2" font-family="Times,serif" font-size="14.00">DDG: parse</text>
</g>
<!-- 68719477358 -->
<g id="node17" class="node">
<title>68719477358</title>
<polygon fill="none" stroke="black" points="1413.88,-327.25 1323.62,-327.25 1323.62,-291.25 1413.88,-291.25 1413.88,-327.25"/>
<text xml:space="preserve" text-anchor="middle" x="1368.75" y="-303.82" font-family="Times,serif" font-size="14.00">68719477358</text>
</g>
<!-- 68719477358&#45;&gt;68719477480 -->
<g id="edge15" class="edge">
<title>68719477358&#45;&gt;68719477480</title>
<path fill="none" stroke="black" d="M1392.25,-290.87C1409.97,-278.76 1435.41,-263.45 1460.25,-255.75 1548.32,-228.46 1812.86,-217.09 1942.92,-213.04"/>
<polygon fill="black" stroke="black" points="1942.92,-216.55 1952.81,-212.74 1942.71,-209.55 1942.92,-216.55"/>
<text xml:space="preserve" text-anchor="middle" x="1494" y="-258.2" font-family="Times,serif" font-size="14.00">DDG: parse</text>
</g>
<!-- 68719477361 -->
<g id="node18" class="node">
<title>68719477361</title>
<polygon fill="none" stroke="black" points="1521.88,-327.25 1431.62,-327.25 1431.62,-291.25 1521.88,-291.25 1521.88,-327.25"/>
<text xml:space="preserve" text-anchor="middle" x="1476.75" y="-303.82" font-family="Times,serif" font-size="14.00">68719477361</text>
</g>
<!-- 68719477361&#45;&gt;68719477480 -->
<g id="edge16" class="edge">
<title>68719477361&#45;&gt;68719477480</title>
<path fill="none" stroke="black" d="M1499.43,-290.99C1516.55,-278.95 1541.15,-263.66 1565.25,-255.75 1633.47,-233.37 1833.48,-220.24 1942.99,-214.53"/>
<polygon fill="black" stroke="black" points="1942.95,-218.03 1952.76,-214.03 1942.59,-211.04 1942.95,-218.03"/>
<text xml:space="preserve" text-anchor="middle" x="1599" y="-258.2" font-family="Times,serif" font-size="14.00">DDG: parse</text>
</g>
<!-- 68719477364 -->
<g id="node19" class="node">
<title>68719477364</title>
<polygon fill="none" stroke="black" points="1629.88,-327.25 1539.62,-327.25 1539.62,-291.25 1629.88,-291.25 1629.88,-327.25"/>
<text xml:space="preserve" text-anchor="middle" x="1584.75" y="-303.82" font-family="Times,serif" font-size="14.00">68719477364</text>
</g>
<!-- 68719477364&#45;&gt;68719477480 -->
<g id="edge17" class="edge">
<title>68719477364&#45;&gt;68719477480</title>
<path fill="none" stroke="black" d="M1606.4,-290.92C1622.5,-279 1645.52,-263.9 1668.25,-255.75 1759.27,-223.11 1871.19,-213.78 1943.23,-211.41"/>
<polygon fill="black" stroke="black" points="1943.03,-214.92 1952.93,-211.13 1942.83,-207.92 1943.03,-214.92"/>
<text xml:space="preserve" text-anchor="middle" x="1702" y="-258.2" font-family="Times,serif" font-size="14.00">DDG: parse</text>
</g>
<!-- 68719477367 -->
<g id="node20" class="node">
<title>68719477367</title>
<polygon fill="none" stroke="black" points="1737.88,-327.25 1647.62,-327.25 1647.62,-291.25 1737.88,-291.25 1737.88,-327.25"/>
<text xml:space="preserve" text-anchor="middle" x="1692.75" y="-303.82" font-family="Times,serif" font-size="14.00">68719477367</text>
</g>
<!-- 68719477367&#45;&gt;68719477480 -->
<g id="edge18" class="edge">
<title>68719477367&#45;&gt;68719477480</title>
<path fill="none" stroke="black" d="M1712.49,-290.95C1726.96,-279.2 1747.6,-264.3 1768.25,-255.75 1824.35,-232.52 1892.5,-221.36 1943.23,-216.01"/>
<polygon fill="black" stroke="black" points="1943.32,-219.52 1952.92,-215.05 1942.62,-212.56 1943.32,-219.52"/>
<text xml:space="preserve" text-anchor="middle" x="1802" y="-258.2" font-family="Times,serif" font-size="14.00">DDG: parse</text>
</g>
<!-- 68719477370 -->
<g id="node21" class="node">
<title>68719477370</title>
<polygon fill="none" stroke="black" points="1845.88,-327.25 1755.62,-327.25 1755.62,-291.25 1845.88,-291.25 1845.88,-327.25"/>
<text xml:space="preserve" text-anchor="middle" x="1800.75" y="-303.82" font-family="Times,serif" font-size="14.00">68719477370</text>
</g>
<!-- 68719477370&#45;&gt;68719477480 -->
<g id="edge19" class="edge">
<title>68719477370&#45;&gt;68719477480</title>
<path fill="none" stroke="black" d="M1816.71,-290.9C1828.12,-279.44 1844.38,-264.9 1861.25,-255.75 1886.64,-241.98 1916.72,-232.07 1943.63,-225.14"/>
<polygon fill="black" stroke="black" points="1944.21,-228.6 1953.08,-222.81 1942.53,-221.81 1944.21,-228.6"/>
<text xml:space="preserve" text-anchor="middle" x="1895" y="-258.2" font-family="Times,serif" font-size="14.00">DDG: parse</text>
</g>
<!-- 68719477373 -->
<g id="node22" class="node">
<title>68719477373</title>
<polygon fill="none" stroke="black" points="1953.88,-327.25 1863.62,-327.25 1863.62,-291.25 1953.88,-291.25 1953.88,-327.25"/>
<text xml:space="preserve" text-anchor="middle" x="1908.75" y="-303.82" font-family="Times,serif" font-size="14.00">68719477373</text>
</g>
<!-- 68719477373&#45;&gt;68719477480 -->
<g id="edge20" class="edge">
<title>68719477373&#45;&gt;68719477480</title>
<path fill="none" stroke="black" d="M1918.38,-290.83C1924.98,-279.91 1934.47,-266 1945.25,-255.75 1949.32,-251.88 1953.78,-248.16 1958.41,-244.65"/>
<polygon fill="black" stroke="black" points="1960.18,-247.69 1966.27,-239.02 1956.1,-242 1960.18,-247.69"/>
<text xml:space="preserve" text-anchor="middle" x="1979" y="-258.2" font-family="Times,serif" font-size="14.00">DDG: parse</text>
</g>
<!-- 68719477376 -->
<g id="node23" class="node">
<title>68719477376</title>
<polygon fill="none" stroke="black" points="2061.88,-327.25 1971.62,-327.25 1971.62,-291.25 2061.88,-291.25 2061.88,-327.25"/>
<text xml:space="preserve" text-anchor="middle" x="2016.75" y="-303.82" font-family="Times,serif" font-size="14.00">68719477376</text>
</g>
<!-- 68719477376&#45;&gt;68719477480 -->
<g id="edge21" class="edge">
<title>68719477376&#45;&gt;68719477480</title>
<path fill="none" stroke="black" d="M2016.75,-290.89C2016.75,-279.35 2016.75,-263.73 2016.75,-249.38"/>
<polygon fill="black" stroke="black" points="2020.25,-249.75 2016.75,-239.75 2013.25,-249.75 2020.25,-249.75"/>
<text xml:space="preserve" text-anchor="middle" x="2050.5" y="-258.2" font-family="Times,serif" font-size="14.00">DDG: parse</text>
</g>
<!-- 68719477379 -->
<g id="node24" class="node">
<title>68719477379</title>
<polygon fill="none" stroke="black" points="2169.88,-327.25 2079.62,-327.25 2079.62,-291.25 2169.88,-291.25 2169.88,-327.25"/>
<text xml:space="preserve" text-anchor="middle" x="2124.75" y="-303.82" font-family="Times,serif" font-size="14.00">68719477379</text>
</g>
<!-- 68719477379&#45;&gt;68719477480 -->
<g id="edge22" class="edge">
<title>68719477379&#45;&gt;68719477480</title>
<path fill="none" stroke="black" d="M2115.31,-290.81C2108.82,-279.88 2099.46,-265.98 2088.75,-255.75 2084.67,-251.85 2080.19,-248.12 2075.53,-244.59"/>
<polygon fill="black" stroke="black" points="2077.79,-241.91 2067.62,-238.94 2073.72,-247.6 2077.79,-241.91"/>
<text xml:space="preserve" text-anchor="middle" x="2136.24" y="-258.2" font-family="Times,serif" font-size="14.00">DDG: parse</text>
</g>
<!-- 68719477382 -->
<g id="node25" class="node">
<title>68719477382</title>
<polygon fill="none" stroke="black" points="2277.88,-327.25 2187.62,-327.25 2187.62,-291.25 2277.88,-291.25 2277.88,-327.25"/>
<text xml:space="preserve" text-anchor="middle" x="2232.75" y="-303.82" font-family="Times,serif" font-size="14.00">68719477382</text>
</g>
<!-- 68719477382&#45;&gt;68719477480 -->
<g id="edge23" class="edge">
<title>68719477382&#45;&gt;68719477480</title>
<path fill="none" stroke="black" d="M2217.27,-290.87C2206.19,-279.4 2190.34,-264.86 2173.75,-255.75 2147.99,-241.61 2117.33,-231.6 2089.98,-224.7"/>
<polygon fill="black" stroke="black" points="2090.89,-221.32 2080.35,-222.37 2089.25,-228.12 2090.89,-221.32"/>
<text xml:space="preserve" text-anchor="middle" x="2228.86" y="-258.2" font-family="Times,serif" font-size="14.00">DDG: parse</text>
</g>
<!-- 68719477385 -->
<g id="node26" class="node">
<title>68719477385</title>
<polygon fill="none" stroke="black" points="2385.88,-327.25 2295.62,-327.25 2295.62,-291.25 2385.88,-291.25 2385.88,-327.25"/>
<text xml:space="preserve" text-anchor="middle" x="2340.75" y="-303.82" font-family="Times,serif" font-size="14.00">68719477385</text>
</g>
<!-- 68719477385&#45;&gt;68719477480 -->
<g id="edge24" class="edge">
<title>68719477385&#45;&gt;68719477480</title>
<path fill="none" stroke="black" d="M2321.47,-290.93C2307.31,-279.18 2287.09,-264.27 2266.75,-255.75 2210.33,-232.11 2141.62,-220.98 2090.53,-215.75"/>
<polygon fill="black" stroke="black" points="2091.05,-212.29 2080.76,-214.81 2090.37,-219.25 2091.05,-212.29"/>
<text xml:space="preserve" text-anchor="middle" x="2328.79" y="-258.2" font-family="Times,serif" font-size="14.00">DDG: parse</text>
</g>
<!-- 68719477388 -->
<g id="node27" class="node">
<title>68719477388</title>
<polygon fill="none" stroke="black" points="2493.88,-327.25 2403.62,-327.25 2403.62,-291.25 2493.88,-291.25 2493.88,-327.25"/>
<text xml:space="preserve" text-anchor="middle" x="2448.75" y="-303.82" font-family="Times,serif" font-size="14.00">68719477388</text>
</g>
<!-- 68719477388&#45;&gt;68719477480 -->
<g id="edge25" class="edge">
<title>68719477388&#45;&gt;68719477480</title>
<path fill="none" stroke="black" d="M2427.54,-290.91C2411.75,-278.98 2389.15,-263.88 2366.75,-255.75 2275.34,-222.57 2162.7,-213.38 2090.32,-211.19"/>
<polygon fill="black" stroke="black" points="2090.66,-207.7 2080.57,-210.93 2090.47,-214.69 2090.66,-207.7"/>
<text xml:space="preserve" text-anchor="middle" x="2431.62" y="-258.2" font-family="Times,serif" font-size="14.00">DDG: parse</text>
</g>
<!-- 68719477391 -->
<g id="node28" class="node">
<title>68719477391</title>
<polygon fill="none" stroke="black" points="2601.88,-327.25 2511.62,-327.25 2511.62,-291.25 2601.88,-291.25 2601.88,-327.25"/>
<text xml:space="preserve" text-anchor="middle" x="2556.75" y="-303.82" font-family="Times,serif" font-size="14.00">68719477391</text>
</g>
<!-- 68719477391&#45;&gt;68719477480 -->
<g id="edge26" class="edge">
<title>68719477391&#45;&gt;68719477480</title>
<path fill="none" stroke="black" d="M2534.5,-290.99C2517.69,-278.93 2493.52,-263.64 2469.75,-255.75 2401.3,-233.02 2200.14,-220.02 2090.34,-214.43"/>
<polygon fill="black" stroke="black" points="2090.71,-210.94 2080.54,-213.94 2090.36,-217.93 2090.71,-210.94"/>
<text xml:space="preserve" text-anchor="middle" x="2536.39" y="-258.2" font-family="Times,serif" font-size="14.00">DDG: parse</text>
</g>
<!-- 68719477394 -->
<g id="node29" class="node">
<title>68719477394</title>
<polygon fill="none" stroke="black" points="2709.88,-327.25 2619.62,-327.25 2619.62,-291.25 2709.88,-291.25 2709.88,-327.25"/>
<text xml:space="preserve" text-anchor="middle" x="2664.75" y="-303.82" font-family="Times,serif" font-size="14.00">68719477394</text>
</g>
<!-- 68719477394&#45;&gt;68719477480 -->
<g id="edge27" class="edge">
<title>68719477394&#45;&gt;68719477480</title>
<path fill="none" stroke="black" d="M2641.4,-290.87C2623.77,-278.76 2598.48,-263.44 2573.75,-255.75 2485.63,-228.34 2220.84,-217.02 2090.65,-213.02"/>
<polygon fill="black" stroke="black" points="2090.85,-209.52 2080.75,-212.72 2090.64,-216.52 2090.85,-209.52"/>
<text xml:space="preserve" text-anchor="middle" x="2641.8" y="-258.2" font-family="Times,serif" font-size="14.00">DDG: parse</text>
</g>
<!-- 68719477397 -->
<g id="node30" class="node">
<title>68719477397</title>
<polygon fill="none" stroke="black" points="2817.88,-327.25 2727.62,-327.25 2727.62,-291.25 2817.88,-291.25 2817.88,-327.25"/>
<text xml:space="preserve" text-anchor="middle" x="2772.75" y="-303.82" font-family="Times,serif" font-size="14.00">68719477397</text>
</g>
<!-- 68719477397&#45;&gt;68719477480 -->
<g id="edge28" class="edge">
<title>68719477397&#45;&gt;68719477480</title>
<path fill="none" stroke="black" d="M2748.85,-290.78C2730.83,-278.62 2704.97,-263.29 2679.75,-255.75 2571.29,-223.32 2239.45,-214.38 2090.49,-211.98"/>
<polygon fill="black" stroke="black" points="2090.79,-208.49 2080.74,-211.83 2090.68,-215.49 2090.79,-208.49"/>
<text xml:space="preserve" text-anchor="middle" x="2748.51" y="-258.2" font-family="Times,serif" font-size="14.00">DDG: parse</text>
</g>
<!-- 68719477400 -->
<g id="node31" class="node">
<title>68719477400</title>
<polygon fill="none" stroke="black" points="2925.88,-327.25 2835.62,-327.25 2835.62,-291.25 2925.88,-291.25 2925.88,-327.25"/>
<text xml:space="preserve" text-anchor="middle" x="2880.75" y="-303.82" font-family="Times,serif" font-size="14.00">68719477400</text>
</g>
<!-- 68719477400&#45;&gt;68719477480 -->
<g id="edge29" class="edge">
<title>68719477400&#45;&gt;68719477480</title>
<path fill="none" stroke="black" d="M2856.97,-290.97C2838.74,-278.73 2812.41,-263.23 2786.75,-255.75 2657.55,-218.09 2256.53,-212.06 2090.2,-211.2"/>
<polygon fill="black" stroke="black" points="2090.64,-207.71 2080.62,-211.16 2090.61,-214.71 2090.64,-207.71"/>
<text xml:space="preserve" text-anchor="middle" x="2855.88" y="-258.2" font-family="Times,serif" font-size="14.00">DDG: parse</text>
</g>
<!-- 68719477403 -->
<g id="node32" class="node">
<title>68719477403</title>
<polygon fill="none" stroke="black" points="3033.88,-327.25 2943.62,-327.25 2943.62,-291.25 3033.88,-291.25 3033.88,-327.25"/>
<text xml:space="preserve" text-anchor="middle" x="2988.75" y="-303.82" font-family="Times,serif" font-size="14.00">68719477403</text>
</g>
<!-- 68719477403&#45;&gt;68719477480 -->
<g id="edge30" class="edge">
<title>68719477403&#45;&gt;68719477480</title>
<path fill="none" stroke="black" d="M2964.71,-290.91C2946.27,-278.66 2919.66,-263.14 2893.75,-255.75 2743.76,-212.97 2273.29,-210.07 2090.45,-210.63"/>
<polygon fill="black" stroke="black" points="2090.59,-207.13 2080.6,-210.66 2090.61,-214.13 2090.59,-207.13"/>
<text xml:space="preserve" text-anchor="middle" x="2963.24" y="-258.2" font-family="Times,serif" font-size="14.00">DDG: parse</text>
</g>
<!-- 68719477408 -->
<g id="node33" class="node">
<title>68719477408</title>
<polygon fill="none" stroke="black" points="3141.88,-327.25 3051.62,-327.25 3051.62,-291.25 3141.88,-291.25 3141.88,-327.25"/>
<text xml:space="preserve" text-anchor="middle" x="3096.75" y="-303.82" font-family="Times,serif" font-size="14.00">68719477408</text>
</g>
<!-- 68719477408&#45;&gt;68719477480 -->
<g id="edge31" class="edge">
<title>68719477408&#45;&gt;68719477480</title>
<path fill="none" stroke="black" d="M3072.44,-290.87C3053.8,-278.59 3026.91,-263.07 3000.75,-255.75 2914.04,-231.48 2303.92,-216.94 2090.36,-212.55"/>
<polygon fill="black" stroke="black" points="2090.56,-209.05 2080.49,-212.35 2090.42,-216.05 2090.56,-209.05"/>
<text xml:space="preserve" text-anchor="middle" x="3070.6" y="-258.2" font-family="Times,serif" font-size="14.00">DDG: parse</text>
</g>
<!-- 68719477414 -->
<g id="node34" class="node">
<title>68719477414</title>
<polygon fill="none" stroke="black" points="3249.88,-327.25 3159.62,-327.25 3159.62,-291.25 3249.88,-291.25 3249.88,-327.25"/>
<text xml:space="preserve" text-anchor="middle" x="3204.75" y="-303.82" font-family="Times,serif" font-size="14.00">68719477414</text>
</g>
<!-- 68719477414&#45;&gt;68719477480 -->
<g id="edge32" class="edge">
<title>68719477414&#45;&gt;68719477480</title>
<path fill="none" stroke="black" d="M3180.45,-290.84C3161.81,-278.54 3134.93,-263.01 3108.75,-255.75 3011.32,-228.72 2319.09,-215.76 2090.1,-212.19"/>
<polygon fill="black" stroke="black" points="2090.47,-208.69 2080.41,-212.04 2090.36,-215.69 2090.47,-208.69"/>
<text xml:space="preserve" text-anchor="middle" x="3181.27" y="-258.2" font-family="Times,serif" font-size="14.00">DDG: parse</text>
</g>
<!-- 68719477421 -->
<g id="node35" class="node">
<title>68719477421</title>
<polygon fill="none" stroke="black" points="3357.88,-327.25 3267.62,-327.25 3267.62,-291.25 3357.88,-291.25 3357.88,-327.25"/>
<text xml:space="preserve" text-anchor="middle" x="3312.75" y="-303.82" font-family="Times,serif" font-size="14.00">68719477421</text>
</g>
<!-- 68719477421&#45;&gt;68719477480 -->
<g id="edge33" class="edge">
<title>68719477421&#45;&gt;68719477480</title>
<path fill="none" stroke="black" d="M3289.02,-290.81C3270.8,-278.5 3244.49,-262.96 3218.75,-255.75 3110.57,-225.43 2334.81,-214.55 2090.34,-211.85"/>
<polygon fill="black" stroke="black" points="2090.65,-208.36 2080.62,-211.75 2090.58,-215.36 2090.65,-208.36"/>
<text xml:space="preserve" text-anchor="middle" x="3290.55" y="-258.2" font-family="Times,serif" font-size="14.00">DDG: parse</text>
</g>
<!-- 68719477430 -->
<g id="node36" class="node">
<title>68719477430</title>
<polygon fill="none" stroke="black" points="3465.88,-327.25 3375.62,-327.25 3375.62,-291.25 3465.88,-291.25 3465.88,-327.25"/>
<text xml:space="preserve" text-anchor="middle" x="3420.75" y="-303.82" font-family="Times,serif" font-size="14.00">68719477430</text>
</g>
<!-- 68719477430&#45;&gt;68719477480 -->
<g id="edge34" class="edge">
<title>68719477430&#45;&gt;68719477480</title>
<path fill="none" stroke="black" d="M3397.59,-290.79C3379.79,-278.46 3354.05,-262.92 3328.75,-255.75 3209.72,-222 2348.64,-213.4 2090.01,-211.56"/>
<polygon fill="black" stroke="black" points="2090.42,-208.07 2080.4,-211.5 2090.37,-215.07 2090.42,-208.07"/>
<text xml:space="preserve" text-anchor="middle" x="3399.82" y="-258.2" font-family="Times,serif" font-size="14.00">DDG: parse</text>
</g>
<!-- 68719477436 -->
<g id="node37" class="node">
<title>68719477436</title>
<polygon fill="none" stroke="black" points="3573.88,-327.25 3483.62,-327.25 3483.62,-291.25 3573.88,-291.25 3573.88,-327.25"/>
<text xml:space="preserve" text-anchor="middle" x="3528.75" y="-303.82" font-family="Times,serif" font-size="14.00">68719477436</text>
</g>
<!-- 68719477436&#45;&gt;68719477480 -->
<g id="edge35" class="edge">
<title>68719477436&#45;&gt;68719477480</title>
<path fill="none" stroke="black" d="M3505.87,-290.77C3488.29,-278.44 3462.84,-262.89 3437.75,-255.75 3308.01,-218.82 2363.63,-212.42 2090.53,-211.34"/>
<polygon fill="black" stroke="black" points="2090.71,-207.84 2080.7,-211.3 2090.68,-214.84 2090.71,-207.84"/>
<text xml:space="preserve" text-anchor="middle" x="3508.46" y="-258.2" font-family="Times,serif" font-size="14.00">DDG: parse</text>
</g>
<!-- 68719477455 -->
<g id="node38" class="node">
<title>68719477455</title>
<polygon fill="none" stroke="black" points="3681.88,-327.25 3591.62,-327.25 3591.62,-291.25 3681.88,-291.25 3681.88,-327.25"/>
<text xml:space="preserve" text-anchor="middle" x="3636.75" y="-303.82" font-family="Times,serif" font-size="14.00">68719477455</text>
</g>
<!-- 68719477455&#45;&gt;68719477480 -->
<g id="edge36" class="edge">
<title>68719477455&#45;&gt;68719477480</title>
<path fill="none" stroke="black" d="M3613.88,-290.75C3596.3,-278.41 3570.84,-262.86 3545.75,-255.75 3405.18,-215.9 2376.33,-211.59 2090.33,-211.16"/>
<polygon fill="black" stroke="black" points="2090.39,-207.66 2080.38,-211.15 2090.38,-214.66 2090.39,-207.66"/>
<text xml:space="preserve" text-anchor="middle" x="3616.47" y="-258.2" font-family="Times,serif" font-size="14.00">DDG: parse</text>
</g>
<!-- 68719477459 -->
<g id="node39" class="node">
<title>68719477459</title>
<polygon fill="none" stroke="black" points="3789.88,-327.25 3699.62,-327.25 3699.62,-291.25 3789.88,-291.25 3789.88,-327.25"/>
<text xml:space="preserve" text-anchor="middle" x="3744.75" y="-303.82" font-family="Times,serif" font-size="14.00">68719477459</text>
</g>
<!-- 68719477459&#45;&gt;68719477480 -->
<g id="edge37" class="edge">
<title>68719477459&#45;&gt;68719477480</title>
<path fill="none" stroke="black" d="M3722.25,-291C3704.66,-278.61 3679.03,-262.89 3653.75,-255.75 3502.31,-212.98 2388.38,-210.81 2090.07,-211.01"/>
<polygon fill="black" stroke="black" points="2090.48,-207.51 2080.48,-211.01 2090.48,-214.51 2090.48,-207.51"/>
<text xml:space="preserve" text-anchor="middle" x="3724.48" y="-258.2" font-family="Times,serif" font-size="14.00">DDG: parse</text>
</g>
<!-- 68719477462 -->
<g id="node40" class="node">
<title>68719477462</title>
<polygon fill="none" stroke="black" points="3897.88,-327.25 3807.62,-327.25 3807.62,-291.25 3897.88,-291.25 3897.88,-327.25"/>
<text xml:space="preserve" text-anchor="middle" x="3852.75" y="-303.82" font-family="Times,serif" font-size="14.00">68719477462</text>
</g>
<!-- 68719477462&#45;&gt;68719477480 -->
<g id="edge38" class="edge">
<title>68719477462&#45;&gt;68719477480</title>
<path fill="none" stroke="black" d="M3830.25,-290.98C3812.66,-278.59 3787.03,-262.87 3761.75,-255.75 3599.49,-210.07 2401.1,-210.08 2090.24,-210.87"/>
<polygon fill="black" stroke="black" points="2090.63,-207.37 2080.64,-210.9 2090.65,-214.37 2090.63,-207.37"/>
<text xml:space="preserve" text-anchor="middle" x="3832.48" y="-258.2" font-family="Times,serif" font-size="14.00">DDG: parse</text>
</g>
<!-- 68719477465 -->
<g id="node41" class="node">
<title>68719477465</title>
<polygon fill="none" stroke="black" points="4005.88,-327.25 3915.62,-327.25 3915.62,-291.25 4005.88,-291.25 4005.88,-327.25"/>
<text xml:space="preserve" text-anchor="middle" x="3960.75" y="-303.82" font-family="Times,serif" font-size="14.00">68719477465</text>
</g>
<!-- 68719477465&#45;&gt;68719477480 -->
<g id="edge39" class="edge">
<title>68719477465&#45;&gt;68719477480</title>
<path fill="none" stroke="black" d="M3938.26,-290.97C3920.67,-278.57 3895.04,-262.85 3869.75,-255.75 3696.61,-207.15 2413,-209.4 2090.23,-210.75"/>
<polygon fill="black" stroke="black" points="2090.66,-207.25 2080.67,-210.79 2090.69,-214.25 2090.66,-207.25"/>
<text xml:space="preserve" text-anchor="middle" x="3940.48" y="-258.2" font-family="Times,serif" font-size="14.00">DDG: parse</text>
</g>
</g>
</svg>
