<?xml version="1.0" encoding="UTF-8" standalone="no"?>
<!DOCTYPE svg PUBLIC "-//W3C//DTD SVG 1.1//EN"
 "http://www.w3.org/Graphics/SVG/1.1/DTD/svg11.dtd">
<!-- Generated by graphviz version 13.1.2 (20250809.0930)
 -->
<!-- Title: __init__ Pages: 1 -->
<svg width="649pt" height="345pt"
 viewBox="0.00 0.00 649.00 345.00" xmlns="http://www.w3.org/2000/svg" xmlns:xlink="http://www.w3.org/1999/xlink">
<g id="graph0" class="graph" transform="scale(1 1) rotate(0) translate(4 341)">
<title>__init__</title>
<polygon fill="white" stroke="none" points="-4,4 -4,-341 645.14,-341 645.14,4 -4,4"/>
<!-- 107374182407 -->
<g id="node1" class="node">
<title>107374182407</title>
<polygon fill="none" stroke="black" points="229.72,-337 146.22,-337 146.22,-297.5 229.72,-297.5 229.72,-337"/>
<text xml:space="preserve" text-anchor="start" x="154.22" y="-319.7" font-family="Times,serif" font-size="14.00">METHOD, 36</text>
<text xml:space="preserve" text-anchor="start" x="160.97" y="-303.95" font-family="Times,serif" font-size="14.00">__init__</text>
</g>
<!-- 111669149710 -->
<g id="node3" class="node">
<title>111669149710</title>
<polygon fill="none" stroke="black" points="92.35,-188.25 15.6,-188.25 15.6,-148.75 92.35,-148.75 92.35,-188.25"/>
<text xml:space="preserve" text-anchor="start" x="23.6" y="-170.95" font-family="Times,serif" font-size="14.00">PARAM, 36</text>
<text xml:space="preserve" text-anchor="start" x="40.47" y="-155.2" font-family="Times,serif" font-size="14.00">self</text>
</g>
<!-- 107374182407&#45;&gt;111669149710 -->
<g id="edge7" class="edge">
<title>107374182407&#45;&gt;111669149710</title>
<path fill="none" stroke="black" d="M147.06,-297.14C137.83,-292 128.36,-286.04 120.22,-279.5 94,-258.43 75.67,-223.98 65.04,-199.25"/>
<polygon fill="black" stroke="black" points="68.31,-197.98 61.28,-190.05 61.83,-200.63 68.31,-197.98"/>
<text xml:space="preserve" text-anchor="middle" x="137.1" y="-266.2" font-family="Times,serif" font-size="14.00">DDG: </text>
</g>
<!-- 111669149711 -->
<g id="node4" class="node">
<title>111669149711</title>
<polygon fill="none" stroke="black" points="176.35,-245.75 99.6,-245.75 99.6,-206.25 176.35,-206.25 176.35,-245.75"/>
<text xml:space="preserve" text-anchor="start" x="107.6" y="-228.45" font-family="Times,serif" font-size="14.00">PARAM, 36</text>
<text xml:space="preserve" text-anchor="start" x="117.72" y="-212.7" font-family="Times,serif" font-size="14.00">source</text>
</g>
<!-- 107374182407&#45;&gt;111669149711 -->
<g id="edge8" class="edge">
<title>107374182407&#45;&gt;111669149711</title>
<path fill="none" stroke="black" d="M176.53,-297.26C173.16,-291.58 169.5,-285.31 166.22,-279.5 161.95,-271.94 157.45,-263.7 153.32,-256.03"/>
<polygon fill="black" stroke="black" points="156.5,-254.56 148.7,-247.39 150.33,-257.86 156.5,-254.56"/>
<text xml:space="preserve" text-anchor="middle" x="183.1" y="-266.2" font-family="Times,serif" font-size="14.00">DDG: </text>
</g>
<!-- 30064771107 -->
<g id="node5" class="node">
<title>30064771107</title>
<polygon fill="none" stroke="black" points="262.35,-130.75 77.6,-130.75 77.6,-91.25 262.35,-91.25 262.35,-130.75"/>
<text xml:space="preserve" text-anchor="start" x="85.6" y="-113.45" font-family="Times,serif" font-size="14.00">&lt;operator&gt;.assignment, 37</text>
<text xml:space="preserve" text-anchor="start" x="102.47" y="-97.7" font-family="Times,serif" font-size="14.00">self.source = source</text>
</g>
<!-- 107374182407&#45;&gt;30064771107 -->
<g id="edge10" class="edge">
<title>107374182407&#45;&gt;30064771107</title>
<path fill="none" stroke="black" d="M195.49,-297.08C197.34,-291.5 199.04,-285.33 199.97,-279.5 209.1,-222.11 219.48,-203.49 199.97,-148.75 198.94,-145.87 197.58,-143.05 196.01,-140.33"/>
<polygon fill="black" stroke="black" points="199,-138.51 190.43,-132.28 193.25,-142.49 199,-138.51"/>
<text xml:space="preserve" text-anchor="middle" x="227.88" y="-220.57" font-family="Times,serif" font-size="14.00">DDG: </text>
</g>
<!-- 30064771109 -->
<g id="node6" class="node">
<title>30064771109</title>
<polygon fill="none" stroke="black" points="544.35,-130.75 359.6,-130.75 359.6,-91.25 544.35,-91.25 544.35,-130.75"/>
<text xml:space="preserve" text-anchor="start" x="367.6" y="-113.45" font-family="Times,serif" font-size="14.00">&lt;operator&gt;.assignment, 38</text>
<text xml:space="preserve" text-anchor="start" x="411.47" y="-97.7" font-family="Times,serif" font-size="14.00">self.pos = 0</text>
</g>
<!-- 107374182407&#45;&gt;30064771109 -->
<g id="edge11" class="edge">
<title>107374182407&#45;&gt;30064771109</title>
<path fill="none" stroke="black" d="M212.81,-297.03C260.49,-260.14 364.9,-179.37 418.6,-137.82"/>
<polygon fill="black" stroke="black" points="420.43,-140.83 426.2,-131.94 416.15,-135.29 420.43,-140.83"/>
<text xml:space="preserve" text-anchor="middle" x="345.64" y="-220.57" font-family="Times,serif" font-size="14.00">DDG: </text>
</g>
<!-- 124554051591 -->
<g id="node2" class="node">
<title>124554051591</title>
<polygon fill="none" stroke="black" points="276.35,-39.5 145.6,-39.5 145.6,0 276.35,0 276.35,-39.5"/>
<text xml:space="preserve" text-anchor="start" x="153.6" y="-22.2" font-family="Times,serif" font-size="14.00">METHOD_RETURN, 36</text>
<text xml:space="preserve" text-anchor="start" x="200.85" y="-6.45" font-family="Times,serif" font-size="14.00">ANY</text>
</g>
<!-- 111669149710&#45;&gt;124554051591 -->
<g id="edge1" class="edge">
<title>111669149710&#45;&gt;124554051591</title>
<path fill="none" stroke="black" d="M22.42,-148.5C16.68,-143.49 11.48,-137.55 8.22,-130.75 -6.26,-100.54 -0.87,-77.54 25.97,-57.5 43.13,-44.69 91.06,-35.37 133.83,-29.33"/>
<polygon fill="black" stroke="black" points="134.21,-32.81 143.65,-27.99 133.27,-25.87 134.21,-32.81"/>
<text xml:space="preserve" text-anchor="middle" x="38.6" y="-105.58" font-family="Times,serif" font-size="14.00">DDG: self</text>
</g>
<!-- 111669149711&#45;&gt;30064771107 -->
<g id="edge9" class="edge">
<title>111669149711&#45;&gt;30064771107</title>
<path fill="none" stroke="black" d="M129.02,-205.97C122.85,-190 117.18,-166.96 125.72,-148.75 127.29,-145.41 129.33,-142.26 131.67,-139.33"/>
<polygon fill="black" stroke="black" points="134.03,-141.92 138.39,-132.27 128.96,-137.1 134.03,-141.92"/>
<text xml:space="preserve" text-anchor="middle" x="162.85" y="-163.07" font-family="Times,serif" font-size="14.00">DDG: source</text>
</g>
<!-- 30064771107&#45;&gt;124554051591 -->
<g id="edge2" class="edge">
<title>30064771107&#45;&gt;124554051591</title>
<path fill="none" stroke="black" d="M77.14,-93.93C56.79,-88.48 39.38,-81.6 32.97,-73.25 28.71,-67.7 28.55,-62.93 32.97,-57.5 45.98,-41.53 92,-32.29 133.99,-27.07"/>
<polygon fill="black" stroke="black" points="134.38,-30.55 143.9,-25.91 133.56,-23.6 134.38,-30.55"/>
<text xml:space="preserve" text-anchor="middle" x="86.97" y="-59.95" font-family="Times,serif" font-size="14.00">DDG: self.source</text>
</g>
<!-- 30064771107&#45;&gt;124554051591 -->
<g id="edge3" class="edge">
<title>30064771107&#45;&gt;124554051591</title>
<path fill="none" stroke="black" d="M162.84,-91.17C160.08,-80.77 158.64,-67.89 163.72,-57.5 165.37,-54.14 167.48,-51 169.9,-48.08"/>
<polygon fill="black" stroke="black" points="172.3,-50.63 176.86,-41.07 167.33,-45.7 172.3,-50.63"/>
<text xml:space="preserve" text-anchor="middle" x="200.85" y="-59.95" font-family="Times,serif" font-size="14.00">DDG: source</text>
</g>
<!-- 30064771107&#45;&gt;124554051591 -->
<g id="edge4" class="edge">
<title>30064771107&#45;&gt;124554051591</title>
<path fill="none" stroke="black" d="M220.93,-90.75C227.72,-86.05 233.78,-80.28 237.97,-73.25 242.6,-65.49 240.84,-56.85 236.54,-48.85"/>
<polygon fill="black" stroke="black" points="239.61,-47.15 231.14,-40.78 233.79,-51.04 239.61,-47.15"/>
<text xml:space="preserve" text-anchor="middle" x="325.08" y="-59.95" font-family="Times,serif" font-size="14.00">DDG: self.source = source</text>
</g>
<!-- 30064771109&#45;&gt;124554051591 -->
<g id="edge5" class="edge">
<title>30064771109&#45;&gt;124554051591</title>
<path fill="none" stroke="black" d="M442.5,-90.81C435.82,-79.33 425.8,-65.47 412.97,-57.5 392.26,-44.63 336.02,-35.03 288.12,-28.87"/>
<polygon fill="black" stroke="black" points="288.64,-25.4 278.29,-27.64 287.77,-32.35 288.64,-25.4"/>
<text xml:space="preserve" text-anchor="middle" x="473.93" y="-59.95" font-family="Times,serif" font-size="14.00">DDG: self.pos</text>
</g>
<!-- 30064771109&#45;&gt;124554051591 -->
<g id="edge6" class="edge">
<title>30064771109&#45;&gt;124554051591</title>
<path fill="none" stroke="black" d="M504.23,-90.92C521.29,-81.86 533.27,-70.22 521.97,-57.5 506.65,-40.27 375.08,-29.74 288.05,-24.59"/>
<polygon fill="black" stroke="black" points="288.31,-21.1 278.12,-24.02 287.9,-28.09 288.31,-21.1"/>
<text xml:space="preserve" text-anchor="middle" x="583.77" y="-59.95" font-family="Times,serif" font-size="14.00">DDG: self.pos = 0</text>
</g>
</g>
</svg>
