<?xml version="1.0" encoding="UTF-8" standalone="no"?>
<!DOCTYPE svg PUBLIC "-//W3C//DTD SVG 1.1//EN"
 "http://www.w3.org/Graphics/SVG/1.1/DTD/svg11.dtd">
<!-- Generated by graphviz version 13.1.2 (20250809.0930)
 -->
<!-- Title: peek Pages: 1 -->
<svg width="2061pt" height="559pt"
 viewBox="0.00 0.00 2061.00 559.00" xmlns="http://www.w3.org/2000/svg" xmlns:xlink="http://www.w3.org/1999/xlink">
<g id="graph0" class="graph" transform="scale(1 1) rotate(0) translate(4 555)">
<title>peek</title>
<polygon fill="white" stroke="none" points="-4,4 -4,-555 2057,-555 2057,4 -4,4"/>
<!-- 107374182408 -->
<g id="node1" class="node">
<title>107374182408</title>
<polygon fill="none" stroke="black" points="1866.75,-551 1783.25,-551 1783.25,-511.5 1866.75,-511.5 1866.75,-551"/>
<text xml:space="preserve" text-anchor="start" x="1791.25" y="-533.7" font-family="Times,serif" font-size="14.00">METHOD, 40</text>
<text xml:space="preserve" text-anchor="start" x="1811.5" y="-517.95" font-family="Times,serif" font-size="14.00">peek</text>
</g>
<!-- 111669149712 -->
<g id="node3" class="node">
<title>111669149712</title>
<polygon fill="none" stroke="black" points="926.38,-451.88 849.62,-451.88 849.62,-412.38 926.38,-412.38 926.38,-451.88"/>
<text xml:space="preserve" text-anchor="start" x="857.62" y="-434.57" font-family="Times,serif" font-size="14.00">PARAM, 40</text>
<text xml:space="preserve" text-anchor="start" x="874.5" y="-418.82" font-family="Times,serif" font-size="14.00">self</text>
</g>
<!-- 107374182408&#45;&gt;111669149712 -->
<g id="edge8" class="edge">
<title>107374182408&#45;&gt;111669149712</title>
<path fill="none" stroke="black" d="M1782.92,-525.89C1629.91,-510.03 1103.42,-455.45 938.09,-438.32"/>
<polygon fill="black" stroke="black" points="938.63,-434.85 928.32,-437.3 937.91,-441.82 938.63,-434.85"/>
<text xml:space="preserve" text-anchor="middle" x="1484.86" y="-480.2" font-family="Times,serif" font-size="14.00">DDG: </text>
</g>
<!-- 141733920772 -->
<g id="node4" class="node">
<title>141733920772</title>
<polygon fill="none" stroke="black" points="1953.12,-130.75 1862.88,-130.75 1862.88,-91.25 1953.12,-91.25 1953.12,-130.75"/>
<text xml:space="preserve" text-anchor="start" x="1874.25" y="-113.45" font-family="Times,serif" font-size="14.00">RETURN, 43</text>
<text xml:space="preserve" text-anchor="start" x="1870.88" y="-97.7" font-family="Times,serif" font-size="14.00">return None</text>
</g>
<!-- 107374182408&#45;&gt;141733920772 -->
<g id="edge10" class="edge">
<title>107374182408&#45;&gt;141733920772</title>
<path fill="none" stroke="black" d="M1852.44,-511.3C1874.21,-493.81 1901,-465.67 1901,-433.12 1901,-433.12 1901,-433.12 1901,-201.25 1901,-181.64 1902.7,-159.69 1904.42,-142.46"/>
<polygon fill="black" stroke="black" points="1907.89,-142.94 1905.47,-132.62 1900.93,-142.2 1907.89,-142.94"/>
<text xml:space="preserve" text-anchor="middle" x="1917.88" y="-288.07" font-family="Times,serif" font-size="14.00">DDG: </text>
</g>
<!-- 90194313222 -->
<g id="node6" class="node">
<title>90194313222</title>
<polygon fill="none" stroke="black" points="1870.12,-386.5 1779.88,-386.5 1779.88,-331.25 1870.12,-331.25 1870.12,-386.5"/>
<text xml:space="preserve" text-anchor="start" x="1787.88" y="-369.2" font-family="Times,serif" font-size="14.00">LITERAL, 43</text>
<text xml:space="preserve" text-anchor="start" x="1811.5" y="-353.45" font-family="Times,serif" font-size="14.00">None</text>
<text xml:space="preserve" text-anchor="start" x="1787.88" y="-337.7" font-family="Times,serif" font-size="14.00">return None</text>
</g>
<!-- 107374182408&#45;&gt;90194313222 -->
<g id="edge11" class="edge">
<title>107374182408&#45;&gt;90194313222</title>
<path fill="none" stroke="black" d="M1825,-511.04C1825,-483.75 1825,-433.19 1825,-398.1"/>
<polygon fill="black" stroke="black" points="1828.5,-398.36 1825,-388.36 1821.5,-398.36 1828.5,-398.36"/>
<text xml:space="preserve" text-anchor="middle" x="1841.88" y="-480.2" font-family="Times,serif" font-size="14.00">DDG: </text>
</g>
<!-- 141733920771 -->
<g id="node7" class="node">
<title>141733920771</title>
<polygon fill="none" stroke="black" points="1844.5,-130.75 1639.5,-130.75 1639.5,-91.25 1844.5,-91.25 1844.5,-130.75"/>
<text xml:space="preserve" text-anchor="start" x="1708.25" y="-113.45" font-family="Times,serif" font-size="14.00">RETURN, 42</text>
<text xml:space="preserve" text-anchor="start" x="1647.5" y="-97.7" font-family="Times,serif" font-size="14.00">return self.source[self.pos]</text>
</g>
<!-- 107374182408&#45;&gt;141733920771 -->
<g id="edge14" class="edge">
<title>107374182408&#45;&gt;141733920771</title>
<path fill="none" stroke="black" d="M1797.56,-511.3C1775.79,-493.81 1749,-465.67 1749,-433.12 1749,-433.12 1749,-433.12 1749,-201.25 1749,-181.64 1747.3,-159.69 1745.58,-142.46"/>
<polygon fill="black" stroke="black" points="1749.07,-142.2 1744.53,-132.62 1742.11,-142.94 1749.07,-142.2"/>
<text xml:space="preserve" text-anchor="middle" x="1765.88" y="-288.07" font-family="Times,serif" font-size="14.00">DDG: </text>
</g>
<!-- 68719476779 -->
<g id="node8" class="node">
<title>68719476779</title>
<polygon fill="none" stroke="black" points="2053,-459.75 1929,-459.75 1929,-404.5 2053,-404.5 2053,-459.75"/>
<text xml:space="preserve" text-anchor="start" x="1943.75" y="-442.45" font-family="Times,serif" font-size="14.00">IDENTIFIER, 41</text>
<text xml:space="preserve" text-anchor="start" x="1980.88" y="-426.7" font-family="Times,serif" font-size="14.00">len</text>
<text xml:space="preserve" text-anchor="start" x="1937" y="-410.95" font-family="Times,serif" font-size="14.00">len(self.source)</text>
</g>
<!-- 107374182408&#45;&gt;68719476779 -->
<g id="edge16" class="edge">
<title>107374182408&#45;&gt;68719476779</title>
<path fill="none" stroke="black" d="M1867.19,-514.93C1881.77,-508.99 1897.96,-501.65 1912,-493.5 1925.2,-485.83 1938.71,-476.26 1950.74,-467"/>
<polygon fill="black" stroke="black" points="1952.73,-469.89 1958.43,-460.97 1948.41,-464.39 1952.73,-469.89"/>
<text xml:space="preserve" text-anchor="middle" x="1951.77" y="-480.2" font-family="Times,serif" font-size="14.00">DDG: </text>
</g>
<!-- 124554051592 -->
<g id="node2" class="node">
<title>124554051592</title>
<polygon fill="none" stroke="black" points="494.38,-39.5 363.62,-39.5 363.62,0 494.38,0 494.38,-39.5"/>
<text xml:space="preserve" text-anchor="start" x="371.62" y="-22.2" font-family="Times,serif" font-size="14.00">METHOD_RETURN, 40</text>
<text xml:space="preserve" text-anchor="start" x="418.88" y="-6.45" font-family="Times,serif" font-size="14.00">ANY</text>
</g>
<!-- 111669149712&#45;&gt;124554051592 -->
<g id="edge3" class="edge">
<title>111669149712&#45;&gt;124554051592</title>
<path fill="none" stroke="black" d="M849.27,-429.32C678.36,-420.85 0,-381.75 0,-294.5 0,-294.5 0,-294.5 0,-110 0,-38.9 228.7,-24.05 352.13,-21.21"/>
<polygon fill="black" stroke="black" points="351.94,-24.71 361.86,-21.01 351.79,-17.71 351.94,-24.71"/>
<text xml:space="preserve" text-anchor="middle" x="30.38" y="-196.82" font-family="Times,serif" font-size="14.00">DDG: self</text>
</g>
<!-- 30064771114 -->
<g id="node5" class="node">
<title>30064771114</title>
<polygon fill="none" stroke="black" points="1036.12,-222 837.88,-222 837.88,-182.5 1036.12,-182.5 1036.12,-222"/>
<text xml:space="preserve" text-anchor="start" x="859.38" y="-204.7" font-family="Times,serif" font-size="14.00">&lt;operator&gt;.lessThan, 41</text>
<text xml:space="preserve" text-anchor="start" x="845.88" y="-188.95" font-family="Times,serif" font-size="14.00">self.pos &lt; len(self.source)</text>
</g>
<!-- 111669149712&#45;&gt;30064771114 -->
<g id="edge12" class="edge">
<title>111669149712&#45;&gt;30064771114</title>
<path fill="none" stroke="black" d="M906.81,-412.27C913.07,-404.85 919.36,-395.86 923,-386.5 942.82,-335.51 942.37,-270.63 939.91,-233.33"/>
<polygon fill="black" stroke="black" points="943.43,-233.46 939.18,-223.75 936.45,-233.99 943.43,-233.46"/>
<text xml:space="preserve" text-anchor="middle" x="971.43" y="-288.07" font-family="Times,serif" font-size="14.00">DDG: self</text>
</g>
<!-- 30064771113 -->
<g id="node9" class="node">
<title>30064771113</title>
<polygon fill="none" stroke="black" points="876,-313.25 752,-313.25 752,-273.75 876,-273.75 876,-313.25"/>
<text xml:space="preserve" text-anchor="start" x="790.38" y="-295.95" font-family="Times,serif" font-size="14.00">len, 41</text>
<text xml:space="preserve" text-anchor="start" x="760" y="-280.2" font-family="Times,serif" font-size="14.00">len(self.source)</text>
</g>
<!-- 111669149712&#45;&gt;30064771113 -->
<g id="edge17" class="edge">
<title>111669149712&#45;&gt;30064771113</title>
<path fill="none" stroke="black" d="M876.8,-412.11C872.22,-404.23 866.91,-394.96 862.25,-386.5 850.76,-365.63 838.29,-341.81 828.9,-323.63"/>
<polygon fill="black" stroke="black" points="832.14,-322.28 824.45,-314.99 825.92,-325.49 832.14,-322.28"/>
<text xml:space="preserve" text-anchor="middle" x="892.62" y="-353.45" font-family="Times,serif" font-size="14.00">DDG: self</text>
</g>
<!-- 141733920772&#45;&gt;124554051592 -->
<g id="edge1" class="edge">
<title>141733920772&#45;&gt;124554051592</title>
<path fill="none" stroke="black" d="M1862.61,-93.62C1859.38,-92.74 1856.16,-91.93 1853,-91.25 1701.54,-58.53 1660.62,-67.65 1506,-57.5 1131.7,-32.94 683.08,-24.31 506.14,-21.72"/>
<polygon fill="black" stroke="black" points="506.2,-18.22 496.15,-21.58 506.1,-25.22 506.2,-18.22"/>
<text xml:space="preserve" text-anchor="middle" x="1787.09" y="-59.95" font-family="Times,serif" font-size="14.00">DDG: &lt;RET&gt;</text>
</g>
<!-- 30064771114&#45;&gt;124554051592 -->
<g id="edge4" class="edge">
<title>30064771114&#45;&gt;124554051592</title>
<path fill="none" stroke="black" d="M837.79,-202.13C731.97,-201.26 560,-194.58 415,-164.5 370.82,-155.33 345.32,-167.58 319.25,-130.75 296.07,-98.01 336.86,-66.18 375.11,-45.26"/>
<polygon fill="black" stroke="black" points="376.7,-48.38 383.92,-40.63 373.44,-42.19 376.7,-48.38"/>
<text xml:space="preserve" text-anchor="middle" x="363.12" y="-105.58" font-family="Times,serif" font-size="14.00">DDG: self.pos</text>
</g>
<!-- 30064771114&#45;&gt;124554051592 -->
<g id="edge6" class="edge">
<title>30064771114&#45;&gt;124554051592</title>
<path fill="none" stroke="black" d="M837.52,-201.4C708.7,-199.27 494.57,-187.07 443.25,-130.75 423.86,-109.47 422.26,-75.52 424.28,-50.96"/>
<polygon fill="black" stroke="black" points="427.73,-51.58 425.34,-41.26 420.77,-50.82 427.73,-51.58"/>
<text xml:space="preserve" text-anchor="middle" x="514.12" y="-105.58" font-family="Times,serif" font-size="14.00">DDG: len(self.source)</text>
</g>
<!-- 30064771114&#45;&gt;124554051592 -->
<g id="edge7" class="edge">
<title>30064771114&#45;&gt;124554051592</title>
<path fill="none" stroke="black" d="M837.41,-196.78C770.43,-189.78 682.56,-172.55 616,-130.75 597.1,-118.88 602.56,-105.02 585,-91.25 559.59,-71.33 527.66,-55.62 499.32,-44.14"/>
<polygon fill="black" stroke="black" points="500.64,-40.9 490.06,-40.5 498.08,-47.41 500.64,-40.9"/>
<text xml:space="preserve" text-anchor="middle" x="724" y="-105.58" font-family="Times,serif" font-size="14.00">DDG: self.pos &lt; len(self.source)</text>
</g>
<!-- 30064771114&#45;&gt;141733920772 -->
<g id="edge23" class="edge">
<title>30064771114&#45;&gt;141733920772</title>
<path fill="none" stroke="black" d="M1036.38,-196.85C1157.73,-191.13 1369.15,-179.98 1550,-164.5 1681.45,-153.25 1718.8,-159.91 1851.6,-130.78"/>
<polygon fill="black" stroke="black" points="1852.12,-134.24 1861.12,-128.66 1850.6,-127.41 1852.12,-134.24"/>
<text xml:space="preserve" text-anchor="middle" x="1771.62" y="-151.2" font-family="Times,serif" font-size="14.00">CDG: </text>
</g>
<!-- 30064771114&#45;&gt;141733920771 -->
<g id="edge20" class="edge">
<title>30064771114&#45;&gt;141733920771</title>
<path fill="none" stroke="black" d="M1036.35,-194.68C1127.23,-188.29 1265.34,-177.64 1385,-164.5 1490.74,-152.89 1519.51,-147.67 1628.06,-131.03"/>
<polygon fill="black" stroke="black" points="1628.33,-134.53 1637.68,-129.56 1627.27,-127.61 1628.33,-134.53"/>
<text xml:space="preserve" text-anchor="middle" x="1528.68" y="-151.2" font-family="Times,serif" font-size="14.00">CDG: </text>
</g>
<!-- 30064771117 -->
<g id="node10" class="node">
<title>30064771117</title>
<polygon fill="none" stroke="black" points="1032.75,-130.75 841.25,-130.75 841.25,-91.25 1032.75,-91.25 1032.75,-130.75"/>
<text xml:space="preserve" text-anchor="start" x="849.25" y="-113.45" font-family="Times,serif" font-size="14.00">&lt;operator&gt;.indexAccess, 42</text>
<text xml:space="preserve" text-anchor="start" x="866.12" y="-97.7" font-family="Times,serif" font-size="14.00">self.source[self.pos]</text>
</g>
<!-- 30064771114&#45;&gt;30064771117 -->
<g id="edge22" class="edge">
<title>30064771114&#45;&gt;30064771117</title>
<path fill="none" stroke="black" d="M937,-182.32C937,-170.8 937,-155.82 937,-142.65"/>
<polygon fill="black" stroke="black" points="940.5,-142.72 937,-132.72 933.5,-142.72 940.5,-142.72"/>
<text xml:space="preserve" text-anchor="middle" x="953.88" y="-151.2" font-family="Times,serif" font-size="14.00">CDG: </text>
</g>
<!-- 30064771115 -->
<g id="node11" class="node">
<title>30064771115</title>
<polygon fill="none" stroke="black" points="1242.75,-130.75 1051.25,-130.75 1051.25,-91.25 1242.75,-91.25 1242.75,-130.75"/>
<text xml:space="preserve" text-anchor="start" x="1059.25" y="-113.45" font-family="Times,serif" font-size="14.00">&lt;operator&gt;.fieldAccess, 42</text>
<text xml:space="preserve" text-anchor="start" x="1109.88" y="-97.7" font-family="Times,serif" font-size="14.00">self.source</text>
</g>
<!-- 30064771114&#45;&gt;30064771115 -->
<g id="edge24" class="edge">
<title>30064771114&#45;&gt;30064771115</title>
<path fill="none" stroke="black" d="M982.05,-182.1C1014.16,-168.46 1057.52,-150.03 1091.73,-135.49"/>
<polygon fill="black" stroke="black" points="1092.8,-138.84 1100.63,-131.71 1090.06,-132.4 1092.8,-138.84"/>
<text xml:space="preserve" text-anchor="middle" x="1071.45" y="-151.2" font-family="Times,serif" font-size="14.00">CDG: </text>
</g>
<!-- 30064771116 -->
<g id="node12" class="node">
<title>30064771116</title>
<polygon fill="none" stroke="black" points="1452.75,-130.75 1261.25,-130.75 1261.25,-91.25 1452.75,-91.25 1452.75,-130.75"/>
<text xml:space="preserve" text-anchor="start" x="1269.25" y="-113.45" font-family="Times,serif" font-size="14.00">&lt;operator&gt;.fieldAccess, 42</text>
<text xml:space="preserve" text-anchor="start" x="1330" y="-97.7" font-family="Times,serif" font-size="14.00">self.pos</text>
</g>
<!-- 30064771114&#45;&gt;30064771116 -->
<g id="edge21" class="edge">
<title>30064771114&#45;&gt;30064771116</title>
<path fill="none" stroke="black" d="M1027.36,-182.05C1094.41,-167.8 1185.89,-148.36 1255.46,-133.58"/>
<polygon fill="black" stroke="black" points="1255.9,-137.06 1264.95,-131.56 1254.45,-130.21 1255.9,-137.06"/>
<text xml:space="preserve" text-anchor="middle" x="1189.02" y="-151.2" font-family="Times,serif" font-size="14.00">CDG: </text>
</g>
<!-- 55834574856 -->
<g id="node13" class="node">
<title>55834574856</title>
<polygon fill="none" stroke="black" points="1621.5,-130.75 1470.5,-130.75 1470.5,-91.25 1621.5,-91.25 1621.5,-130.75"/>
<text xml:space="preserve" text-anchor="start" x="1478.5" y="-113.45" font-family="Times,serif" font-size="14.00">FIELD_IDENTIFIER, 42</text>
<text xml:space="preserve" text-anchor="start" x="1525.75" y="-97.7" font-family="Times,serif" font-size="14.00">source</text>
</g>
<!-- 30064771114&#45;&gt;55834574856 -->
<g id="edge18" class="edge">
<title>30064771114&#45;&gt;55834574856</title>
<path fill="none" stroke="black" d="M1036.58,-190.47C1139.99,-178.68 1306.62,-158.03 1459.1,-131.2"/>
<polygon fill="black" stroke="black" points="1459.33,-134.72 1468.56,-129.52 1458.11,-127.82 1459.33,-134.72"/>
<text xml:space="preserve" text-anchor="middle" x="1364.36" y="-151.2" font-family="Times,serif" font-size="14.00">CDG: </text>
</g>
<!-- 55834574857 -->
<g id="node14" class="node">
<title>55834574857</title>
<polygon fill="none" stroke="black" points="268.5,-130.75 117.5,-130.75 117.5,-91.25 268.5,-91.25 268.5,-130.75"/>
<text xml:space="preserve" text-anchor="start" x="125.5" y="-113.45" font-family="Times,serif" font-size="14.00">FIELD_IDENTIFIER, 42</text>
<text xml:space="preserve" text-anchor="start" x="182.88" y="-97.7" font-family="Times,serif" font-size="14.00">pos</text>
</g>
<!-- 30064771114&#45;&gt;55834574857 -->
<g id="edge19" class="edge">
<title>30064771114&#45;&gt;55834574857</title>
<path fill="none" stroke="black" d="M837.62,-199.28C661.9,-195.29 309.84,-184.87 257.25,-164.5 242.84,-158.92 229.22,-148.79 218.26,-138.91"/>
<polygon fill="black" stroke="black" points="220.83,-136.53 211.17,-132.17 216.01,-141.6 220.83,-136.53"/>
<text xml:space="preserve" text-anchor="middle" x="274.12" y="-151.2" font-family="Times,serif" font-size="14.00">CDG: </text>
</g>
<!-- 90194313222&#45;&gt;141733920772 -->
<g id="edge9" class="edge">
<title>90194313222&#45;&gt;141733920772</title>
<path fill="none" stroke="black" d="M1821.15,-331.03C1818.63,-306.73 1817.25,-270.21 1826.25,-240 1837.6,-201.91 1863.93,-164.29 1883.66,-139.8"/>
<polygon fill="black" stroke="black" points="1886.22,-142.19 1889.89,-132.25 1880.83,-137.74 1886.22,-142.19"/>
<text xml:space="preserve" text-anchor="middle" x="1856.62" y="-242.45" font-family="Times,serif" font-size="14.00">DDG: None</text>
</g>
<!-- 141733920771&#45;&gt;124554051592 -->
<g id="edge2" class="edge">
<title>141733920771&#45;&gt;124554051592</title>
<path fill="none" stroke="black" d="M1639.22,-92.35C1636.12,-91.96 1633.04,-91.59 1630,-91.25 1207.19,-43.59 696.78,-27.14 505.92,-22.41"/>
<polygon fill="black" stroke="black" points="506.23,-18.91 496.14,-22.17 506.05,-25.91 506.23,-18.91"/>
<text xml:space="preserve" text-anchor="middle" x="1467.89" y="-59.95" font-family="Times,serif" font-size="14.00">DDG: &lt;RET&gt;</text>
</g>
<!-- 30064771113&#45;&gt;124554051592 -->
<g id="edge5" class="edge">
<title>30064771113&#45;&gt;124554051592</title>
<path fill="none" stroke="black" d="M751.5,-288.84C599.34,-278.71 215.11,-245.56 120,-164.5 94.89,-143.1 87.33,-116.96 108,-91.25 138.04,-53.9 266.93,-35.2 351.97,-26.77"/>
<polygon fill="black" stroke="black" points="352.28,-30.26 361.9,-25.82 351.61,-23.29 352.28,-30.26"/>
<text xml:space="preserve" text-anchor="middle" x="174" y="-151.2" font-family="Times,serif" font-size="14.00">DDG: self.source</text>
</g>
<!-- 30064771113&#45;&gt;30064771114 -->
<g id="edge13" class="edge">
<title>30064771113&#45;&gt;30064771114</title>
<path fill="none" stroke="black" d="M809.25,-273.48C807.7,-262.63 807.9,-249.37 815,-240 818.8,-234.99 823.26,-230.63 828.19,-226.86"/>
<polygon fill="black" stroke="black" points="829.87,-229.94 836.26,-221.5 826,-224.11 829.87,-229.94"/>
<text xml:space="preserve" text-anchor="middle" x="869" y="-242.45" font-family="Times,serif" font-size="14.00">DDG: self.source</text>
</g>
<!-- 30064771074 -->
<g id="node15" class="node">
<title>30064771074</title>
<polygon fill="none" stroke="black" points="2036.12,-549.25 1945.88,-549.25 1945.88,-513.25 2036.12,-513.25 2036.12,-549.25"/>
<text xml:space="preserve" text-anchor="middle" x="1991" y="-525.83" font-family="Times,serif" font-size="14.00">30064771074</text>
</g>
<!-- 30064771074&#45;&gt;68719476779 -->
<g id="edge15" class="edge">
<title>30064771074&#45;&gt;68719476779</title>
<path fill="none" stroke="black" d="M1991,-512.89C1991,-501.35 1991,-485.73 1991,-471.38"/>
<polygon fill="black" stroke="black" points="1994.5,-471.75 1991,-461.75 1987.5,-471.75 1994.5,-471.75"/>
<text xml:space="preserve" text-anchor="middle" x="2018" y="-480.2" font-family="Times,serif" font-size="14.00">DDG: len</text>
</g>
</g>
</svg>
