<?xml version="1.0" encoding="UTF-8" standalone="no"?>
<!DOCTYPE svg PUBLIC "-//W3C//DTD SVG 1.1//EN"
 "http://www.w3.org/Graphics/SVG/1.1/DTD/svg11.dtd">
<!-- Generated by graphviz version 13.1.2 (20250809.0930)
 -->
<!-- Title: &lt;operator&gt;.tupleLiteral Pages: 1 -->
<svg width="278pt" height="220pt"
 viewBox="0.00 0.00 278.00 220.00" xmlns="http://www.w3.org/2000/svg" xmlns:xlink="http://www.w3.org/1999/xlink">
<g id="graph0" class="graph" transform="scale(1 1) rotate(0) translate(4 215.5)">
<title>&lt;operator&gt;.tupleLiteral</title>
<polygon fill="white" stroke="none" points="-4,4 -4,-215.5 274,-215.5 274,4 -4,4"/>
<!-- 107374182485 -->
<g id="node1" class="node">
<title>107374182485</title>
<polygon fill="none" stroke="black" points="158,-211.5 104,-211.5 104,-175.5 158,-175.5 158,-211.5"/>
</g>
<!-- 111669149837 -->
<g id="node3" class="node">
<title>111669149837</title>
<polygon fill="none" stroke="black" points="54,-123.75 0,-123.75 0,-87.75 54,-87.75 54,-123.75"/>
</g>
<!-- 107374182485&#45;&gt;111669149837 -->
<g id="edge5" class="edge">
<title>107374182485&#45;&gt;111669149837</title>
<path fill="none" stroke="black" d="M103.62,-180.1C92.06,-174.17 78.85,-166.4 68.25,-157.5 59.91,-150.5 52.03,-141.62 45.44,-133.25"/>
<polygon fill="black" stroke="black" points="48.3,-131.24 39.49,-125.36 42.71,-135.45 48.3,-131.24"/>
<text xml:space="preserve" text-anchor="middle" x="85.12" y="-144.2" font-family="Times,serif" font-size="14.00">DDG: </text>
</g>
<!-- 111669149838 -->
<g id="node4" class="node">
<title>111669149838</title>
<polygon fill="none" stroke="black" points="126,-123.75 72,-123.75 72,-87.75 126,-87.75 126,-123.75"/>
</g>
<!-- 107374182485&#45;&gt;111669149838 -->
<g id="edge6" class="edge">
<title>107374182485&#45;&gt;111669149838</title>
<path fill="none" stroke="black" d="M119.97,-175.16C116.82,-169.67 113.6,-163.47 111.25,-157.5 108.46,-150.42 106.18,-142.52 104.38,-135.1"/>
<polygon fill="black" stroke="black" points="107.84,-134.52 102.26,-125.51 101,-136.03 107.84,-134.52"/>
<text xml:space="preserve" text-anchor="middle" x="128.12" y="-144.2" font-family="Times,serif" font-size="14.00">DDG: </text>
</g>
<!-- 111669149839 -->
<g id="node5" class="node">
<title>111669149839</title>
<polygon fill="none" stroke="black" points="198,-123.75 144,-123.75 144,-87.75 198,-87.75 198,-123.75"/>
</g>
<!-- 107374182485&#45;&gt;111669149839 -->
<g id="edge7" class="edge">
<title>107374182485&#45;&gt;111669149839</title>
<path fill="none" stroke="black" d="M139.09,-175.15C144.57,-163.41 151.92,-147.66 158.18,-134.23"/>
<polygon fill="black" stroke="black" points="161.22,-135.99 162.28,-125.45 154.88,-133.03 161.22,-135.99"/>
<text xml:space="preserve" text-anchor="middle" x="171.46" y="-144.2" font-family="Times,serif" font-size="14.00">DDG: </text>
</g>
<!-- 111669149840 -->
<g id="node6" class="node">
<title>111669149840</title>
<polygon fill="none" stroke="black" points="270,-123.75 216,-123.75 216,-87.75 270,-87.75 270,-123.75"/>
</g>
<!-- 107374182485&#45;&gt;111669149840 -->
<g id="edge8" class="edge">
<title>107374182485&#45;&gt;111669149840</title>
<path fill="none" stroke="black" d="M158.38,-178.79C169.25,-172.84 181.61,-165.43 192,-157.5 201.83,-150 211.68,-140.71 220.07,-132.14"/>
<polygon fill="black" stroke="black" points="222.52,-134.65 226.88,-124.99 217.45,-129.82 222.52,-134.65"/>
<text xml:space="preserve" text-anchor="middle" x="226.85" y="-144.2" font-family="Times,serif" font-size="14.00">DDG: </text>
</g>
<!-- 124554051669 -->
<g id="node2" class="node">
<title>124554051669</title>
<polygon fill="none" stroke="black" points="161,-36 107,-36 107,0 161,0 161,-36"/>
</g>
<!-- 111669149837&#45;&gt;124554051669 -->
<g id="edge1" class="edge">
<title>111669149837&#45;&gt;124554051669</title>
<path fill="none" stroke="black" d="M29.72,-87.29C32.23,-76.49 36.96,-63 45.75,-54 59.16,-40.26 78.64,-31.78 95.89,-26.62"/>
<polygon fill="black" stroke="black" points="96.6,-30.05 105.35,-24.07 94.79,-23.29 96.6,-30.05"/>
<text xml:space="preserve" text-anchor="middle" x="69.38" y="-56.45" font-family="Times,serif" font-size="14.00">DDG: p1</text>
</g>
<!-- 111669149838&#45;&gt;124554051669 -->
<g id="edge2" class="edge">
<title>111669149838&#45;&gt;124554051669</title>
<path fill="none" stroke="black" d="M96.63,-87.65C95.94,-77.49 96.32,-64.57 100.75,-54 102.03,-50.96 103.7,-48.02 105.61,-45.23"/>
<polygon fill="black" stroke="black" points="108.27,-47.51 111.87,-37.55 102.84,-43.09 108.27,-47.51"/>
<text xml:space="preserve" text-anchor="middle" x="124.38" y="-56.45" font-family="Times,serif" font-size="14.00">DDG: p2</text>
</g>
<!-- 111669149839&#45;&gt;124554051669 -->
<g id="edge3" class="edge">
<title>111669149839&#45;&gt;124554051669</title>
<path fill="none" stroke="black" d="M163.51,-87.4C158.5,-75.77 151.78,-60.22 146.03,-46.88"/>
<polygon fill="black" stroke="black" points="149.25,-45.51 142.08,-37.72 142.82,-48.29 149.25,-45.51"/>
<text xml:space="preserve" text-anchor="middle" x="179.44" y="-56.45" font-family="Times,serif" font-size="14.00">DDG: p3</text>
</g>
<!-- 111669149840&#45;&gt;124554051669 -->
<g id="edge4" class="edge">
<title>111669149840&#45;&gt;124554051669</title>
<path fill="none" stroke="black" d="M233.81,-87.51C227.41,-76.8 218.07,-63.33 207,-54 196.61,-45.24 183.66,-38.11 171.56,-32.62"/>
<polygon fill="black" stroke="black" points="173.2,-29.51 162.62,-28.81 170.45,-35.95 173.2,-29.51"/>
<text xml:space="preserve" text-anchor="middle" x="244.64" y="-56.45" font-family="Times,serif" font-size="14.00">DDG: p4</text>
</g>
</g>
</svg>
