<?xml version="1.0" encoding="UTF-8" standalone="no"?>
<!DOCTYPE svg PUBLIC "-//W3C//DTD SVG 1.1//EN"
 "http://www.w3.org/Graphics/SVG/1.1/DTD/svg11.dtd">
<!-- Generated by graphviz version 13.1.2 (20250809.0930)
 -->
<!-- Title: normalize_text Pages: 1 -->
<svg width="1823pt" height="992pt"
 viewBox="0.00 0.00 1823.00 992.00" xmlns="http://www.w3.org/2000/svg" xmlns:xlink="http://www.w3.org/1999/xlink">
<g id="graph0" class="graph" transform="scale(1 1) rotate(0) translate(4 987.5)">
<title>normalize_text</title>
<polygon fill="white" stroke="none" points="-4,4 -4,-987.5 1818.75,-987.5 1818.75,4 -4,4"/>
<!-- 107374182401 -->
<g id="node1" class="node">
<title>107374182401</title>
<polygon fill="none" stroke="black" points="737.5,-983.5 627,-983.5 627,-944 737.5,-944 737.5,-983.5"/>
<text xml:space="preserve" text-anchor="start" x="645.12" y="-966.2" font-family="Times,serif" font-size="14.00">METHOD, 136</text>
<text xml:space="preserve" text-anchor="start" x="635" y="-950.45" font-family="Times,serif" font-size="14.00">normalize_text</text>
</g>
<!-- 111669149696 -->
<g id="node3" class="node">
<title>111669149696</title>
<polygon fill="none" stroke="black" points="874,-892.25 790.5,-892.25 790.5,-852.75 874,-852.75 874,-892.25"/>
<text xml:space="preserve" text-anchor="start" x="798.5" y="-874.95" font-family="Times,serif" font-size="14.00">PARAM, 136</text>
<text xml:space="preserve" text-anchor="start" x="815.38" y="-859.2" font-family="Times,serif" font-size="14.00">value</text>
</g>
<!-- 107374182401&#45;&gt;111669149696 -->
<g id="edge13" class="edge">
<title>107374182401&#45;&gt;111669149696</title>
<path fill="none" stroke="black" d="M737.64,-945.13C750.77,-939.87 764.4,-933.48 776.25,-926 787.38,-918.98 798.26,-909.56 807.42,-900.64"/>
<polygon fill="black" stroke="black" points="809.7,-903.31 814.25,-893.74 804.72,-898.39 809.7,-903.31"/>
<text xml:space="preserve" text-anchor="middle" x="813.25" y="-912.7" font-family="Times,serif" font-size="14.00">DDG: </text>
</g>
<!-- 90194313245 -->
<g id="node4" class="node">
<title>90194313245</title>
<polygon fill="none" stroke="black" points="1321,-892.25 967.5,-892.25 967.5,-852.75 1321,-852.75 1321,-892.25"/>
<text xml:space="preserve" text-anchor="start" x="1103.75" y="-874.95" font-family="Times,serif" font-size="14.00">LITERAL, 137</text>
<text xml:space="preserve" text-anchor="start" x="975.5" y="-859.2" font-family="Times,serif" font-size="14.00">&quot;&quot;&quot;Normalize a text value for comparison/search...</text>
</g>
<!-- 107374182401&#45;&gt;90194313245 -->
<g id="edge14" class="edge">
<title>107374182401&#45;&gt;90194313245</title>
<path fill="none" stroke="black" d="M737.93,-955.95C788.15,-949.47 863.94,-938.8 929.25,-926 973.37,-917.35 1022.07,-905.64 1061.94,-895.48"/>
<polygon fill="black" stroke="black" points="1062.66,-898.9 1071.48,-893.03 1060.92,-892.12 1062.66,-898.9"/>
<text xml:space="preserve" text-anchor="middle" x="1017.47" y="-912.7" font-family="Times,serif" font-size="14.00">DDG: </text>
</g>
<!-- 141733920768 -->
<g id="node5" class="node">
<title>141733920768</title>
<polygon fill="none" stroke="black" points="326.5,-130.75 0,-130.75 0,-91.25 326.5,-91.25 326.5,-130.75"/>
<text xml:space="preserve" text-anchor="start" x="126.12" y="-113.45" font-family="Times,serif" font-size="14.00">RETURN, 138</text>
<text xml:space="preserve" text-anchor="start" x="8" y="-97.7" font-family="Times,serif" font-size="14.00">return &quot; &quot;.join(value.strip().split()).lower()</text>
</g>
<!-- 107374182401&#45;&gt;141733920768 -->
<g id="edge17" class="edge">
<title>107374182401&#45;&gt;141733920768</title>
<path fill="none" stroke="black" d="M626.69,-960.59C473.99,-953.92 59.25,-930.56 59.25,-873.5 59.25,-873.5 59.25,-873.5 59.25,-232.75 59.25,-192.56 92.74,-159.09 121.71,-137.67"/>
<polygon fill="black" stroke="black" points="123.55,-140.66 129.68,-132.02 119.5,-134.95 123.55,-140.66"/>
<text xml:space="preserve" text-anchor="middle" x="76.12" y="-547.7" font-family="Times,serif" font-size="14.00">DDG: </text>
</g>
<!-- 25769803782 -->
<g id="node6" class="node">
<title>25769803782</title>
<polygon fill="none" stroke="black" points="441,-253.5 87.5,-253.5 87.5,-214 441,-214 441,-253.5"/>
<text xml:space="preserve" text-anchor="start" x="230.5" y="-236.2" font-family="Times,serif" font-size="14.00">BLOCK, 138</text>
<text xml:space="preserve" text-anchor="start" x="95.5" y="-220.45" font-family="Times,serif" font-size="14.00">tmp0 = tmp2 = &quot; &quot; &quot; &quot;.join(value.strip().split(...</text>
</g>
<!-- 107374182401&#45;&gt;25769803782 -->
<g id="edge19" class="edge">
<title>107374182401&#45;&gt;25769803782</title>
<path fill="none" stroke="black" d="M626.91,-961.78C517.55,-958.35 284.25,-942.9 284.25,-873.5 284.25,-873.5 284.25,-873.5 284.25,-324 284.25,-304 279.41,-282.08 274.49,-264.97"/>
<polygon fill="black" stroke="black" points="277.84,-263.96 271.58,-255.42 271.15,-266.01 277.84,-263.96"/>
<text xml:space="preserve" text-anchor="middle" x="301.12" y="-593.33" font-family="Times,serif" font-size="14.00">DDG: </text>
</g>
<!-- 30064771114 -->
<g id="node7" class="node">
<title>30064771114</title>
<polygon fill="none" stroke="black" points="857.62,-436 510.88,-436 510.88,-396.5 857.62,-396.5 857.62,-436"/>
<text xml:space="preserve" text-anchor="start" x="596.5" y="-418.7" font-family="Times,serif" font-size="14.00">&lt;operator&gt;.assignment, 138</text>
<text xml:space="preserve" text-anchor="start" x="518.88" y="-402.95" font-family="Times,serif" font-size="14.00">tmp0 = tmp2 = &quot; &quot; &quot; &quot;.join(value.strip().split())</text>
</g>
<!-- 107374182401&#45;&gt;30064771114 -->
<g id="edge21" class="edge">
<title>107374182401&#45;&gt;30064771114</title>
<path fill="none" stroke="black" d="M671.41,-943.57C662.47,-925.93 651.25,-898.76 651.25,-873.5 651.25,-873.5 651.25,-873.5 651.25,-506.5 651.25,-485.43 659.44,-463.21 667.66,-446.2"/>
<polygon fill="black" stroke="black" points="670.57,-448.19 672.02,-437.7 664.34,-445 670.57,-448.19"/>
<text xml:space="preserve" text-anchor="middle" x="668.12" y="-684.58" font-family="Times,serif" font-size="14.00">DDG: </text>
</g>
<!-- 30064771116 -->
<g id="node8" class="node">
<title>30064771116</title>
<polygon fill="none" stroke="black" points="823.88,-344.75 544.62,-344.75 544.62,-305.25 823.88,-305.25 823.88,-344.75"/>
<text xml:space="preserve" text-anchor="start" x="650.5" y="-327.45" font-family="Times,serif" font-size="14.00">lower, 138</text>
<text xml:space="preserve" text-anchor="start" x="552.62" y="-311.7" font-family="Times,serif" font-size="14.00">&quot; &quot;.join(value.strip().split()).lower()</text>
</g>
<!-- 107374182401&#45;&gt;30064771116 -->
<g id="edge23" class="edge">
<title>107374182401&#45;&gt;30064771116</title>
<path fill="none" stroke="black" d="M626.76,-957.38C541.31,-947.56 387.25,-922.99 387.25,-873.5 387.25,-873.5 387.25,-873.5 387.25,-415.25 387.25,-381.19 459.78,-359 533.15,-345.26"/>
<polygon fill="black" stroke="black" points="533.74,-348.71 542.96,-343.49 532.49,-341.83 533.74,-348.71"/>
<text xml:space="preserve" text-anchor="middle" x="404.12" y="-638.95" font-family="Times,serif" font-size="14.00">DDG: </text>
</g>
<!-- 30064771111 -->
<g id="node9" class="node">
<title>30064771111</title>
<polygon fill="none" stroke="black" points="623,-618.5 431.5,-618.5 431.5,-579 623,-579 623,-618.5"/>
<text xml:space="preserve" text-anchor="start" x="439.5" y="-601.2" font-family="Times,serif" font-size="14.00">&lt;operator&gt;.assignment, 138</text>
<text xml:space="preserve" text-anchor="start" x="493.5" y="-585.45" font-family="Times,serif" font-size="14.00">tmp2 = &quot; &quot;</text>
</g>
<!-- 107374182401&#45;&gt;30064771111 -->
<g id="edge24" class="edge">
<title>107374182401&#45;&gt;30064771111</title>
<path fill="none" stroke="black" d="M626.78,-946.38C593.76,-932.84 558.25,-909.84 558.25,-873.5 558.25,-873.5 558.25,-873.5 558.25,-689 558.25,-668.28 550.7,-646.27 543.05,-629.3"/>
<polygon fill="black" stroke="black" points="546.22,-627.81 538.75,-620.3 539.91,-630.83 546.22,-627.81"/>
<text xml:space="preserve" text-anchor="middle" x="575.12" y="-775.83" font-family="Times,serif" font-size="14.00">DDG: </text>
</g>
<!-- 30064771113 -->
<g id="node10" class="node">
<title>30064771113</title>
<polygon fill="none" stroke="black" points="979.88,-527.25 754.62,-527.25 754.62,-487.75 979.88,-487.75 979.88,-527.25"/>
<text xml:space="preserve" text-anchor="start" x="836.88" y="-509.95" font-family="Times,serif" font-size="14.00">join, 138</text>
<text xml:space="preserve" text-anchor="start" x="762.62" y="-494.2" font-family="Times,serif" font-size="14.00">&quot; &quot;.join(value.strip().split())</text>
</g>
<!-- 107374182401&#45;&gt;30064771113 -->
<g id="edge26" class="edge">
<title>107374182401&#45;&gt;30064771113</title>
<path fill="none" stroke="black" d="M693.09,-943.57C702.03,-925.93 713.25,-898.76 713.25,-873.5 713.25,-873.5 713.25,-873.5 713.25,-597.75 713.25,-565.96 738.12,-545.31 767.87,-531.98"/>
<polygon fill="black" stroke="black" points="768.82,-535.37 776.72,-528.31 766.14,-528.9 768.82,-535.37"/>
<text xml:space="preserve" text-anchor="middle" x="730.12" y="-730.2" font-family="Times,serif" font-size="14.00">DDG: </text>
</g>
<!-- 30064771110 -->
<g id="node12" class="node">
<title>30064771110</title>
<polygon fill="none" stroke="black" points="1271.12,-618.5 1113.38,-618.5 1113.38,-579 1271.12,-579 1271.12,-618.5"/>
<text xml:space="preserve" text-anchor="start" x="1158.5" y="-601.2" font-family="Times,serif" font-size="14.00">split, 138</text>
<text xml:space="preserve" text-anchor="start" x="1121.38" y="-585.45" font-family="Times,serif" font-size="14.00">value.strip().split()</text>
</g>
<!-- 107374182401&#45;&gt;30064771110 -->
<g id="edge30" class="edge">
<title>107374182401&#45;&gt;30064771110</title>
<path fill="none" stroke="black" d="M714.79,-943.65C736.94,-927.96 762.25,-903.46 762.25,-873.5 762.25,-873.5 762.25,-873.5 762.25,-689 762.25,-620.26 975.56,-604.08 1101.71,-600.52"/>
<polygon fill="black" stroke="black" points="1101.46,-604.02 1111.37,-600.27 1101.28,-597.03 1101.46,-604.02"/>
<text xml:space="preserve" text-anchor="middle" x="779.12" y="-775.83" font-family="Times,serif" font-size="14.00">DDG: </text>
</g>
<!-- 30064771107 -->
<g id="node13" class="node">
<title>30064771107</title>
<polygon fill="none" stroke="black" points="1023.12,-801 919.38,-801 919.38,-761.5 1023.12,-761.5 1023.12,-801"/>
<text xml:space="preserve" text-anchor="start" x="937.5" y="-783.7" font-family="Times,serif" font-size="14.00">strip, 138</text>
<text xml:space="preserve" text-anchor="start" x="927.38" y="-767.95" font-family="Times,serif" font-size="14.00">value.strip()</text>
</g>
<!-- 107374182401&#45;&gt;30064771107 -->
<g id="edge32" class="edge">
<title>107374182401&#45;&gt;30064771107</title>
<path fill="none" stroke="black" d="M737.65,-954.4C767.19,-948.71 803.64,-939.68 834.25,-926 888.25,-901.87 931.4,-845.52 953.99,-810.97"/>
<polygon fill="black" stroke="black" points="956.84,-813.02 959.26,-802.71 950.94,-809.26 956.84,-813.02"/>
<text xml:space="preserve" text-anchor="middle" x="939.64" y="-867.08" font-family="Times,serif" font-size="14.00">DDG: </text>
</g>
<!-- 124554051585 -->
<g id="node2" class="node">
<title>124554051585</title>
<polygon fill="none" stroke="black" points="1177,-39.5 1039.5,-39.5 1039.5,0 1177,0 1177,-39.5"/>
<text xml:space="preserve" text-anchor="start" x="1047.5" y="-22.2" font-family="Times,serif" font-size="14.00">METHOD_RETURN, 136</text>
<text xml:space="preserve" text-anchor="start" x="1064.38" y="-6.45" font-family="Times,serif" font-size="14.00">__builtin.str</text>
</g>
<!-- 111669149696&#45;&gt;30064771107 -->
<g id="edge31" class="edge">
<title>111669149696&#45;&gt;30064771107</title>
<path fill="none" stroke="black" d="M827.6,-852.37C826.13,-841.49 826.45,-828.23 833.75,-819 843.38,-806.82 876.7,-797.74 908.12,-791.66"/>
<polygon fill="black" stroke="black" points="908.43,-795.16 917.63,-789.9 907.16,-788.27 908.43,-795.16"/>
<text xml:space="preserve" text-anchor="middle" x="867.5" y="-821.45" font-family="Times,serif" font-size="14.00">DDG: value</text>
</g>
<!-- 141733920768&#45;&gt;124554051585 -->
<g id="edge1" class="edge">
<title>141733920768&#45;&gt;124554051585</title>
<path fill="none" stroke="black" d="M230.93,-90.84C275.18,-79.14 334.44,-65.03 387.75,-57.5 618.37,-24.92 894.11,-20.28 1027.74,-20.18"/>
<polygon fill="black" stroke="black" points="1027.55,-23.68 1037.55,-20.18 1027.55,-16.68 1027.55,-23.68"/>
<text xml:space="preserve" text-anchor="middle" x="421.5" y="-59.95" font-family="Times,serif" font-size="14.00">DDG: &lt;RET&gt;</text>
</g>
<!-- 25769803782&#45;&gt;141733920768 -->
<g id="edge15" class="edge">
<title>25769803782&#45;&gt;141733920768</title>
<path fill="none" stroke="black" d="M168.45,-213.54C153.1,-208.59 140.58,-202.73 135.5,-196 122.85,-179.24 128.83,-168.66 135.5,-148.75 136.41,-146.03 137.61,-143.35 139,-140.76"/>
<polygon fill="black" stroke="black" points="141.84,-142.82 144.29,-132.51 135.94,-139.04 141.84,-142.82"/>
<text xml:space="preserve" text-anchor="middle" x="152.38" y="-166.95" font-family="Times,serif" font-size="14.00">DDG: </text>
</g>
<!-- 25769803782&#45;&gt;141733920768 -->
<g id="edge16" class="edge">
<title>25769803782&#45;&gt;141733920768</title>
<path fill="none" stroke="black" d="M213.99,-213.66C205.84,-208.85 198.09,-203.01 192,-196 178.94,-180.96 171.74,-159.71 167.81,-142.35"/>
<polygon fill="black" stroke="black" points="171.25,-141.69 165.88,-132.55 164.38,-143.04 171.25,-141.69"/>
<text xml:space="preserve" text-anchor="middle" x="323.62" y="-182.7" font-family="Times,serif" font-size="14.00">DDG: tmp0 = tmp2 = &quot; &quot;</text>
<text xml:space="preserve" text-anchor="middle" x="323.62" y="-166.95" font-family="Times,serif" font-size="14.00">&quot; &quot;.join(value.strip().split())</text>
<text xml:space="preserve" text-anchor="middle" x="323.62" y="-151.2" font-family="Times,serif" font-size="14.00">&quot; &quot;.join(value.strip().split()).lower()</text>
</g>
<!-- 30064771114&#45;&gt;124554051585 -->
<g id="edge10" class="edge">
<title>30064771114&#45;&gt;124554051585</title>
<path fill="none" stroke="black" d="M755.64,-396.06C783.51,-385.22 813.46,-368.86 833.25,-344.75 871.25,-298.44 833.23,-264.15 866,-214 873.15,-203.06 878.98,-204.08 889.25,-196 955.91,-143.53 1033.27,-81.31 1075.89,-46.91"/>
<polygon fill="black" stroke="black" points="1077.93,-49.76 1083.51,-40.76 1073.53,-44.32 1077.93,-49.76"/>
<text xml:space="preserve" text-anchor="middle" x="970.62" y="-236.2" font-family="Times,serif" font-size="14.00">DDG: tmp0 = tmp2 = &quot; &quot;</text>
<text xml:space="preserve" text-anchor="middle" x="970.62" y="-220.45" font-family="Times,serif" font-size="14.00">&quot; &quot;.join(value.strip().split())</text>
</g>
<!-- 30064771114&#45;&gt;30064771116 -->
<g id="edge22" class="edge">
<title>30064771114&#45;&gt;30064771116</title>
<path fill="none" stroke="black" d="M684.25,-396.32C684.25,-384.8 684.25,-369.82 684.25,-356.65"/>
<polygon fill="black" stroke="black" points="687.75,-356.72 684.25,-346.72 680.75,-356.72 687.75,-356.72"/>
<text xml:space="preserve" text-anchor="middle" x="714.62" y="-365.2" font-family="Times,serif" font-size="14.00">DDG: tmp0</text>
</g>
<!-- 30064771116&#45;&gt;124554051585 -->
<g id="edge11" class="edge">
<title>30064771116&#45;&gt;124554051585</title>
<path fill="none" stroke="black" d="M760.12,-304.81C769.05,-300.16 777.4,-294.4 784.25,-287.25 828.95,-240.59 800.49,-206.99 828.5,-148.75 849.62,-104.84 848.36,-83.99 889.25,-57.5 911.86,-42.85 975.04,-33.25 1027.77,-27.54"/>
<polygon fill="black" stroke="black" points="1028.1,-31.03 1037.68,-26.51 1027.37,-24.06 1028.1,-31.03"/>
<text xml:space="preserve" text-anchor="middle" x="858.88" y="-166.95" font-family="Times,serif" font-size="14.00">DDG: tmp0</text>
</g>
<!-- 30064771116&#45;&gt;124554051585 -->
<g id="edge12" class="edge">
<title>30064771116&#45;&gt;124554051585</title>
<path fill="none" stroke="black" d="M739,-304.9C755.09,-296.19 766.06,-284.83 756.25,-271.5 684.79,-174.35 440.48,-244.15 514.25,-148.75 576.32,-68.48 880.5,-36.57 1027.89,-25.67"/>
<polygon fill="black" stroke="black" points="1027.85,-29.18 1037.57,-24.97 1027.35,-22.2 1027.85,-29.18"/>
<text xml:space="preserve" text-anchor="middle" x="662.75" y="-166.95" font-family="Times,serif" font-size="14.00">DDG: &quot; &quot;.join(value.strip().split()).lower()</text>
</g>
<!-- 30064771116&#45;&gt;25769803782 -->
<g id="edge18" class="edge">
<title>30064771116&#45;&gt;25769803782</title>
<path fill="none" stroke="black" d="M552.66,-304.8C521.9,-299.68 489.33,-293.74 459.25,-287.25 419.5,-278.67 375.73,-267.09 339.75,-256.99"/>
<polygon fill="black" stroke="black" points="340.88,-253.67 330.31,-254.32 338.98,-260.4 340.88,-253.67"/>
<text xml:space="preserve" text-anchor="middle" x="607.75" y="-273.95" font-family="Times,serif" font-size="14.00">DDG: &quot; &quot;.join(value.strip().split()).lower()</text>
</g>
<!-- 30064771111&#45;&gt;124554051585 -->
<g id="edge2" class="edge">
<title>30064771111&#45;&gt;124554051585</title>
<path fill="none" stroke="black" d="M481.32,-578.56C454.25,-563.86 425.25,-540.62 425.25,-508.5 425.25,-508.5 425.25,-508.5 425.25,-324 425.25,-299.85 429.74,-293.7 439.25,-271.5 442.94,-262.88 445.91,-261.81 450.25,-253.5 473.78,-208.43 473.05,-193.99 496.25,-148.75 509.8,-122.33 506.23,-108.7 530.25,-91.25 607.81,-34.9 887.72,-23.35 1027.56,-21.15"/>
<polygon fill="black" stroke="black" points="1027.56,-24.65 1037.51,-21 1027.46,-17.65 1027.56,-24.65"/>
<text xml:space="preserve" text-anchor="middle" x="475.88" y="-319.57" font-family="Times,serif" font-size="14.00">DDG: tmp2 = &quot; &quot;</text>
</g>
<!-- 30064771111&#45;&gt;30064771113 -->
<g id="edge25" class="edge">
<title>30064771111&#45;&gt;30064771113</title>
<path fill="none" stroke="black" d="M561.31,-578.6C582.83,-567.28 611.57,-553.58 638.5,-545.25 671.87,-534.92 708.93,-527.37 743.33,-521.9"/>
<polygon fill="black" stroke="black" points="743.55,-525.41 752.9,-520.43 742.49,-518.49 743.55,-525.41"/>
<text xml:space="preserve" text-anchor="middle" x="668.88" y="-547.7" font-family="Times,serif" font-size="14.00">DDG: tmp2</text>
</g>
<!-- 30064771113&#45;&gt;124554051585 -->
<g id="edge3" class="edge">
<title>30064771113&#45;&gt;124554051585</title>
<path fill="none" stroke="black" d="M911.1,-487.3C917.84,-482.5 923.97,-476.7 928.25,-469.75 974.64,-394.53 882.88,-335.8 943.5,-271.5 984.04,-228.5 1033.35,-295.18 1075.25,-253.5 1103.15,-225.74 1107.74,-107.72 1108.31,-51.19"/>
<polygon fill="black" stroke="black" points="1111.81,-51.33 1108.37,-41.31 1104.81,-51.29 1111.81,-51.33"/>
<text xml:space="preserve" text-anchor="middle" x="973.88" y="-273.95" font-family="Times,serif" font-size="14.00">DDG: tmp2</text>
</g>
<!-- 30064771113&#45;&gt;124554051585 -->
<g id="edge9" class="edge">
<title>30064771113&#45;&gt;124554051585</title>
<path fill="none" stroke="black" d="M922.63,-487.32C931.29,-482.56 939.57,-476.76 946.25,-469.75 1011.94,-400.87 955.42,-333.95 1027.25,-271.5 1051.82,-250.14 1075.15,-276.44 1098.25,-253.5 1151.92,-200.2 1132.51,-100.57 1118.16,-50.74"/>
<polygon fill="black" stroke="black" points="1121.52,-49.77 1115.28,-41.21 1114.82,-51.8 1121.52,-49.77"/>
<text xml:space="preserve" text-anchor="middle" x="1148.75" y="-273.95" font-family="Times,serif" font-size="14.00">DDG: &quot; &quot;.join(value.strip().split())</text>
</g>
<!-- 30064771113&#45;&gt;30064771114 -->
<g id="edge20" class="edge">
<title>30064771113&#45;&gt;30064771114</title>
<path fill="none" stroke="black" d="M754.45,-495.3C723.23,-489.77 695.16,-481.63 685.25,-469.75 680.15,-463.64 678.41,-455.58 678.34,-447.62"/>
<polygon fill="black" stroke="black" points="681.82,-448.02 679.1,-437.78 674.84,-447.48 681.82,-448.02"/>
<text xml:space="preserve" text-anchor="middle" x="806.75" y="-456.45" font-family="Times,serif" font-size="14.00">DDG: &quot; &quot;.join(value.strip().split())</text>
</g>
<!-- 30064771108 -->
<g id="node11" class="node">
<title>30064771108</title>
<polygon fill="none" stroke="black" points="1234,-709.75 1042.5,-709.75 1042.5,-670.25 1234,-670.25 1234,-709.75"/>
<text xml:space="preserve" text-anchor="start" x="1050.5" y="-692.45" font-family="Times,serif" font-size="14.00">&lt;operator&gt;.assignment, 138</text>
<text xml:space="preserve" text-anchor="start" x="1070.75" y="-676.7" font-family="Times,serif" font-size="14.00">tmp1 = value.strip()</text>
</g>
<!-- 30064771108&#45;&gt;124554051585 -->
<g id="edge5" class="edge">
<title>30064771108&#45;&gt;124554051585</title>
<path fill="none" stroke="black" d="M1234.34,-680.39C1372.34,-666.72 1610.25,-637.64 1610.25,-599.75 1610.25,-599.75 1610.25,-599.75 1610.25,-110 1610.25,-52.19 1547.18,-72.11 1491.25,-57.5 1389,-30.78 1266.84,-23.05 1188.44,-21.04"/>
<polygon fill="black" stroke="black" points="1188.79,-17.55 1178.71,-20.82 1188.63,-24.55 1188.79,-17.55"/>
<text xml:space="preserve" text-anchor="middle" x="1671" y="-365.2" font-family="Times,serif" font-size="14.00">DDG: value.strip()</text>
</g>
<!-- 30064771108&#45;&gt;124554051585 -->
<g id="edge6" class="edge">
<title>30064771108&#45;&gt;124554051585</title>
<path fill="none" stroke="black" d="M1126.74,-669.99C1118.98,-656.21 1109.29,-636.84 1104.25,-618.5 1074.03,-508.48 1060.42,-455.76 1126.5,-362.75 1170.33,-301.06 1291.14,-344.23 1270.25,-271.5 1244.08,-180.39 1172.61,-91.48 1133.93,-48.12"/>
<polygon fill="black" stroke="black" points="1136.75,-46.02 1127.45,-40.95 1131.56,-50.71 1136.75,-46.02"/>
<text xml:space="preserve" text-anchor="middle" x="1210.88" y="-365.2" font-family="Times,serif" font-size="14.00">DDG: tmp1 = value.strip()</text>
</g>
<!-- 30064771108&#45;&gt;30064771110 -->
<g id="edge29" class="edge">
<title>30064771108&#45;&gt;30064771110</title>
<path fill="none" stroke="black" d="M1149.7,-670.07C1156.96,-658.08 1166.48,-642.34 1174.68,-628.79"/>
<polygon fill="black" stroke="black" points="1177.66,-630.62 1179.84,-620.25 1171.67,-627 1177.66,-630.62"/>
<text xml:space="preserve" text-anchor="middle" x="1198.86" y="-638.95" font-family="Times,serif" font-size="14.00">DDG: tmp1</text>
</g>
<!-- 30064771110&#45;&gt;124554051585 -->
<g id="edge7" class="edge">
<title>30064771110&#45;&gt;124554051585</title>
<path fill="none" stroke="black" d="M1271.47,-592.03C1368.82,-582.78 1521.25,-560.06 1521.25,-508.5 1521.25,-508.5 1521.25,-508.5 1521.25,-110 1521.25,-42.67 1308.87,-26.01 1188.71,-21.97"/>
<polygon fill="black" stroke="black" points="1188.99,-18.48 1178.89,-21.67 1188.78,-25.47 1188.99,-18.48"/>
<text xml:space="preserve" text-anchor="middle" x="1551.62" y="-319.57" font-family="Times,serif" font-size="14.00">DDG: tmp1</text>
</g>
<!-- 30064771110&#45;&gt;124554051585 -->
<g id="edge8" class="edge">
<title>30064771110&#45;&gt;124554051585</title>
<path fill="none" stroke="black" d="M1248.69,-578.63C1278.61,-564.55 1309.25,-541.97 1309.25,-508.5 1309.25,-508.5 1309.25,-508.5 1309.25,-110 1309.25,-84.34 1305.31,-73.5 1285.25,-57.5 1270.03,-45.36 1228,-36.36 1188.72,-30.3"/>
<polygon fill="black" stroke="black" points="1189.37,-26.86 1178.96,-28.85 1188.34,-33.78 1189.37,-26.86"/>
<text xml:space="preserve" text-anchor="middle" x="1397" y="-319.57" font-family="Times,serif" font-size="14.00">DDG: value.strip().split()</text>
</g>
<!-- 30064771110&#45;&gt;30064771113 -->
<g id="edge27" class="edge">
<title>30064771110&#45;&gt;30064771113</title>
<path fill="none" stroke="black" d="M1122.53,-578.6C1071.32,-564.54 1001.61,-545.4 947.98,-530.67"/>
<polygon fill="black" stroke="black" points="949.16,-527.37 938.59,-528.09 947.31,-534.12 949.16,-527.37"/>
<text xml:space="preserve" text-anchor="middle" x="1136.96" y="-547.7" font-family="Times,serif" font-size="14.00">DDG: value.strip().split()</text>
</g>
<!-- 30064771107&#45;&gt;124554051585 -->
<g id="edge4" class="edge">
<title>30064771107&#45;&gt;124554051585</title>
<path fill="none" stroke="black" d="M1023.37,-779.74C1197.36,-777.36 1747.25,-764.06 1747.25,-691 1747.25,-691 1747.25,-691 1747.25,-110 1747.25,-54.22 1360.45,-31.21 1188.73,-23.75"/>
<polygon fill="black" stroke="black" points="1188.89,-20.25 1178.75,-23.32 1188.6,-27.24 1188.89,-20.25"/>
<text xml:space="preserve" text-anchor="middle" x="1781" y="-410.82" font-family="Times,serif" font-size="14.00">DDG: value</text>
</g>
<!-- 30064771107&#45;&gt;30064771108 -->
<g id="edge28" class="edge">
<title>30064771107&#45;&gt;30064771108</title>
<path fill="none" stroke="black" d="M1007.08,-761.1C1032.06,-747.75 1065.61,-729.82 1092.52,-715.44"/>
<polygon fill="black" stroke="black" points="1093.98,-718.63 1101.15,-710.83 1090.68,-712.45 1093.98,-718.63"/>
<text xml:space="preserve" text-anchor="middle" x="1098.5" y="-730.2" font-family="Times,serif" font-size="14.00">DDG: value</text>
</g>
</g>
</svg>
