<?xml version="1.0" encoding="UTF-8" standalone="no"?>
<!DOCTYPE svg PUBLIC "-//W3C//DTD SVG 1.1//EN"
 "http://www.w3.org/Graphics/SVG/1.1/DTD/svg11.dtd">
<!-- Generated by graphviz version 13.1.2 (20250809.0930)
 -->
<!-- Title: __init__&lt;metaClassAdapter&gt; Pages: 1 -->
<svg width="550pt" height="436pt"
 viewBox="0.00 0.00 550.00 436.00" xmlns="http://www.w3.org/2000/svg" xmlns:xlink="http://www.w3.org/1999/xlink">
<g id="graph0" class="graph" transform="scale(1 1) rotate(0) translate(4 432.25)">
<title>__init__&lt;metaClassAdapter&gt;</title>
<polygon fill="white" stroke="none" points="-4,4 -4,-432.25 545.62,-432.25 545.62,4 -4,4"/>
<!-- 107374182501 -->
<g id="node1" class="node">
<title>107374182501</title>
<polygon fill="none" stroke="black" points="285.5,-428.25 94,-428.25 94,-388.75 285.5,-388.75 285.5,-428.25"/>
<text xml:space="preserve" text-anchor="start" x="152.62" y="-410.95" font-family="Times,serif" font-size="14.00">METHOD, 409</text>
<text xml:space="preserve" text-anchor="start" x="102" y="-395.2" font-family="Times,serif" font-size="14.00">__init__&lt;metaClassAdapter&gt;</text>
</g>
<!-- 111669149863 -->
<g id="node3" class="node">
<title>111669149863</title>
<polygon fill="none" stroke="black" points="83.5,-279.5 0,-279.5 0,-240 83.5,-240 83.5,-279.5"/>
<text xml:space="preserve" text-anchor="start" x="8" y="-262.2" font-family="Times,serif" font-size="14.00">PARAM, 409</text>
<text xml:space="preserve" text-anchor="start" x="31.62" y="-246.45" font-family="Times,serif" font-size="14.00">cls</text>
</g>
<!-- 107374182501&#45;&gt;111669149863 -->
<g id="edge5" class="edge">
<title>107374182501&#45;&gt;111669149863</title>
<path fill="none" stroke="black" d="M170.11,-388.47C164.27,-382.79 157.86,-376.53 152,-370.75 123.48,-342.65 91.07,-310.25 68.81,-287.93"/>
<polygon fill="black" stroke="black" points="71.41,-285.58 61.87,-280.97 66.45,-290.52 71.41,-285.58"/>
<text xml:space="preserve" text-anchor="middle" x="168.88" y="-357.45" font-family="Times,serif" font-size="14.00">DDG: </text>
</g>
<!-- 111669149864 -->
<g id="node4" class="node">
<title>111669149864</title>
<polygon fill="none" stroke="black" points="231.5,-337 148,-337 148,-297.5 231.5,-297.5 231.5,-337"/>
<text xml:space="preserve" text-anchor="start" x="156" y="-319.7" font-family="Times,serif" font-size="14.00">PARAM, 409</text>
<text xml:space="preserve" text-anchor="start" x="176.25" y="-303.95" font-family="Times,serif" font-size="14.00">self</text>
</g>
<!-- 107374182501&#45;&gt;111669149864 -->
<g id="edge6" class="edge">
<title>107374182501&#45;&gt;111669149864</title>
<path fill="none" stroke="black" d="M189.75,-388.57C189.75,-377.05 189.75,-362.07 189.75,-348.9"/>
<polygon fill="black" stroke="black" points="193.25,-348.97 189.75,-338.97 186.25,-348.97 193.25,-348.97"/>
<text xml:space="preserve" text-anchor="middle" x="206.62" y="-357.45" font-family="Times,serif" font-size="14.00">DDG: </text>
</g>
<!-- 30064773382 -->
<g id="node6" class="node">
<title>30064773382</title>
<polygon fill="none" stroke="black" points="491.75,-222 43.75,-222 43.75,-182.5 491.75,-182.5 491.75,-222"/>
<text xml:space="preserve" text-anchor="start" x="51.75" y="-204.7" font-family="Times,serif" font-size="14.00">AI_generated_code_1.py:&lt;module&gt;.RegistrationSystem.__init__, 409</text>
<text xml:space="preserve" text-anchor="start" x="220.5" y="-188.95" font-family="Times,serif" font-size="14.00">__init__(self)</text>
</g>
<!-- 107374182501&#45;&gt;30064773382 -->
<g id="edge9" class="edge">
<title>107374182501&#45;&gt;30064773382</title>
<path fill="none" stroke="black" d="M212.79,-388.34C218.2,-383.05 223.59,-377.02 227.75,-370.75 255.71,-328.53 264.18,-268.87 266.71,-233.32"/>
<polygon fill="black" stroke="black" points="270.18,-233.94 267.27,-223.75 263.19,-233.53 270.18,-233.94"/>
<text xml:space="preserve" text-anchor="middle" x="273.78" y="-311.82" font-family="Times,serif" font-size="14.00">DDG: </text>
</g>
<!-- 124554051685 -->
<g id="node2" class="node">
<title>124554051685</title>
<polygon fill="none" stroke="black" points="257.5,-39.5 120,-39.5 120,0 257.5,0 257.5,-39.5"/>
<text xml:space="preserve" text-anchor="start" x="128" y="-22.2" font-family="Times,serif" font-size="14.00">METHOD_RETURN, 409</text>
<text xml:space="preserve" text-anchor="start" x="178.62" y="-6.45" font-family="Times,serif" font-size="14.00">ANY</text>
</g>
<!-- 111669149863&#45;&gt;124554051685 -->
<g id="edge2" class="edge">
<title>111669149863&#45;&gt;124554051685</title>
<path fill="none" stroke="black" d="M35.29,-239.58C31.04,-223.73 27.47,-200.92 34.75,-182.5 57.8,-124.15 113.22,-74.95 150.89,-46.64"/>
<polygon fill="black" stroke="black" points="152.86,-49.54 158.84,-40.8 148.71,-43.9 152.86,-49.54"/>
<text xml:space="preserve" text-anchor="middle" x="77.75" y="-151.2" font-family="Times,serif" font-size="14.00">DDG: cls</text>
</g>
<!-- 111669149864&#45;&gt;30064773382 -->
<g id="edge8" class="edge">
<title>111669149864&#45;&gt;30064773382</title>
<path fill="none" stroke="black" d="M185.47,-297.07C182.91,-280.58 181.99,-256.87 193,-240 195.62,-235.98 198.82,-232.39 202.4,-229.17"/>
<polygon fill="black" stroke="black" points="204.33,-232.11 210.16,-223.27 200.08,-226.54 204.33,-232.11"/>
<text xml:space="preserve" text-anchor="middle" x="223.38" y="-254.32" font-family="Times,serif" font-size="14.00">DDG: self</text>
</g>
<!-- 141733920915 -->
<g id="node5" class="node">
<title>141733920915</title>
<polygon fill="none" stroke="black" points="541.62,-130.75 383.88,-130.75 383.88,-91.25 541.62,-91.25 541.62,-130.75"/>
<text xml:space="preserve" text-anchor="start" x="425.62" y="-113.45" font-family="Times,serif" font-size="14.00">RETURN, 409</text>
<text xml:space="preserve" text-anchor="start" x="391.88" y="-97.7" font-family="Times,serif" font-size="14.00">return __init__(self)</text>
</g>
<!-- 141733920915&#45;&gt;124554051685 -->
<g id="edge1" class="edge">
<title>141733920915&#45;&gt;124554051685</title>
<path fill="none" stroke="black" d="M403.97,-90.85C361.26,-76.94 303.3,-58.06 258.29,-43.4"/>
<polygon fill="black" stroke="black" points="259.46,-40.1 248.87,-40.33 257.3,-46.76 259.46,-40.1"/>
<text xml:space="preserve" text-anchor="middle" x="375.9" y="-59.95" font-family="Times,serif" font-size="14.00">DDG: &lt;RET&gt;</text>
</g>
<!-- 30064773382&#45;&gt;124554051685 -->
<g id="edge3" class="edge">
<title>30064773382&#45;&gt;124554051685</title>
<path fill="none" stroke="black" d="M215.12,-182.07C192.35,-170.85 167.98,-154.17 155,-130.75 140.75,-105.03 154.05,-72.51 167.92,-49.52"/>
<polygon fill="black" stroke="black" points="170.77,-51.58 173.22,-41.27 164.87,-47.8 170.77,-51.58"/>
<text xml:space="preserve" text-anchor="middle" x="185.38" y="-105.58" font-family="Times,serif" font-size="14.00">DDG: self</text>
</g>
<!-- 30064773382&#45;&gt;124554051685 -->
<g id="edge4" class="edge">
<title>30064773382&#45;&gt;124554051685</title>
<path fill="none" stroke="black" d="M259.44,-182.27C245.64,-150.72 217.86,-87.26 201.54,-49.97"/>
<polygon fill="black" stroke="black" points="204.89,-48.89 197.67,-41.13 198.47,-51.69 204.89,-48.89"/>
<text xml:space="preserve" text-anchor="middle" x="300.23" y="-105.58" font-family="Times,serif" font-size="14.00">DDG: __init__(self)</text>
</g>
<!-- 30064773382&#45;&gt;141733920915 -->
<g id="edge7" class="edge">
<title>30064773382&#45;&gt;141733920915</title>
<path fill="none" stroke="black" d="M309.58,-182.1C339.14,-168.57 378.97,-150.35 410.6,-135.87"/>
<polygon fill="black" stroke="black" points="411.97,-139.09 419.61,-131.74 409.06,-132.72 411.97,-139.09"/>
<text xml:space="preserve" text-anchor="middle" x="441.05" y="-151.2" font-family="Times,serif" font-size="14.00">DDG: __init__(self)</text>
</g>
</g>
</svg>
