<?xml version="1.0" encoding="UTF-8" standalone="no"?>
<!DOCTYPE svg PUBLIC "-//W3C//DTD SVG 1.1//EN"
 "http://www.w3.org/Graphics/SVG/1.1/DTD/svg11.dtd">
<!-- Generated by graphviz version 13.1.2 (20250809.0930)
 -->
<!-- Title: _can_promote_waitlisted_student&lt;metaClassAdapter&gt; Pages: 1 -->
<svg width="1307pt" height="436pt"
 viewBox="0.00 0.00 1307.00 436.00" xmlns="http://www.w3.org/2000/svg" xmlns:xlink="http://www.w3.org/1999/xlink">
<g id="graph0" class="graph" transform="scale(1 1) rotate(0) translate(4 432.25)">
<title>_can_promote_waitlisted_student&lt;metaClassAdapter&gt;</title>
<polygon fill="white" stroke="none" points="-4,4 -4,-432.25 1302.5,-432.25 1302.5,4 -4,4"/>
<!-- 107374182502 -->
<g id="node1" class="node">
<title>107374182502</title>
<polygon fill="none" stroke="black" points="426.12,-428.25 79.38,-428.25 79.38,-388.75 426.12,-388.75 426.12,-428.25"/>
<text xml:space="preserve" text-anchor="start" x="215.62" y="-410.95" font-family="Times,serif" font-size="14.00">METHOD, 802</text>
<text xml:space="preserve" text-anchor="start" x="87.38" y="-395.2" font-family="Times,serif" font-size="14.00">_can_promote_waitlisted_student&lt;metaClassAdapter&gt;</text>
</g>
<!-- 111669149865 -->
<g id="node3" class="node">
<title>111669149865</title>
<polygon fill="none" stroke="black" points="83.5,-279.5 0,-279.5 0,-240 83.5,-240 83.5,-279.5"/>
<text xml:space="preserve" text-anchor="start" x="8" y="-262.2" font-family="Times,serif" font-size="14.00">PARAM, 802</text>
<text xml:space="preserve" text-anchor="start" x="31.62" y="-246.45" font-family="Times,serif" font-size="14.00">cls</text>
</g>
<!-- 107374182502&#45;&gt;111669149865 -->
<g id="edge7" class="edge">
<title>107374182502&#45;&gt;111669149865</title>
<path fill="none" stroke="black" d="M190.62,-388.32C160.75,-376.88 125.85,-360.02 99.75,-337 84.2,-323.28 70.04,-304.84 59.6,-289.53"/>
<polygon fill="black" stroke="black" points="62.57,-287.67 54.14,-281.26 56.73,-291.53 62.57,-287.67"/>
<text xml:space="preserve" text-anchor="middle" x="165.68" y="-357.45" font-family="Times,serif" font-size="14.00">DDG: </text>
</g>
<!-- 111669149866 -->
<g id="node4" class="node">
<title>111669149866</title>
<polygon fill="none" stroke="black" points="192.5,-337 109,-337 109,-297.5 192.5,-297.5 192.5,-337"/>
<text xml:space="preserve" text-anchor="start" x="117" y="-319.7" font-family="Times,serif" font-size="14.00">PARAM, 802</text>
<text xml:space="preserve" text-anchor="start" x="137.25" y="-303.95" font-family="Times,serif" font-size="14.00">self</text>
</g>
<!-- 107374182502&#45;&gt;111669149866 -->
<g id="edge8" class="edge">
<title>107374182502&#45;&gt;111669149866</title>
<path fill="none" stroke="black" d="M230.87,-388.35C216.35,-375.65 197.09,-358.8 181.1,-344.8"/>
<polygon fill="black" stroke="black" points="183.56,-342.31 173.73,-338.36 178.96,-347.58 183.56,-342.31"/>
<text xml:space="preserve" text-anchor="middle" x="224.73" y="-357.45" font-family="Times,serif" font-size="14.00">DDG: </text>
</g>
<!-- 111669149867 -->
<g id="node5" class="node">
<title>111669149867</title>
<polygon fill="none" stroke="black" points="294.5,-337 211,-337 211,-297.5 294.5,-297.5 294.5,-337"/>
<text xml:space="preserve" text-anchor="start" x="219" y="-319.7" font-family="Times,serif" font-size="14.00">PARAM, 802</text>
<text xml:space="preserve" text-anchor="start" x="219" y="-303.95" font-family="Times,serif" font-size="14.00">student_id</text>
</g>
<!-- 107374182502&#45;&gt;111669149867 -->
<g id="edge9" class="edge">
<title>107374182502&#45;&gt;111669149867</title>
<path fill="none" stroke="black" d="M252.75,-388.57C252.75,-377.05 252.75,-362.07 252.75,-348.9"/>
<polygon fill="black" stroke="black" points="256.25,-348.97 252.75,-338.97 249.25,-348.97 256.25,-348.97"/>
<text xml:space="preserve" text-anchor="middle" x="269.62" y="-357.45" font-family="Times,serif" font-size="14.00">DDG: </text>
</g>
<!-- 111669149868 -->
<g id="node6" class="node">
<title>111669149868</title>
<polygon fill="none" stroke="black" points="398.5,-337 315,-337 315,-297.5 398.5,-297.5 398.5,-337"/>
<text xml:space="preserve" text-anchor="start" x="323" y="-319.7" font-family="Times,serif" font-size="14.00">PARAM, 802</text>
<text xml:space="preserve" text-anchor="start" x="323" y="-303.95" font-family="Times,serif" font-size="14.00">section_id</text>
</g>
<!-- 107374182502&#45;&gt;111669149868 -->
<g id="edge10" class="edge">
<title>107374182502&#45;&gt;111669149868</title>
<path fill="none" stroke="black" d="M275.06,-388.35C289.87,-375.65 309.5,-358.8 325.81,-344.8"/>
<polygon fill="black" stroke="black" points="328.02,-347.52 333.33,-338.35 323.46,-342.21 328.02,-347.52"/>
<text xml:space="preserve" text-anchor="middle" x="327.85" y="-357.45" font-family="Times,serif" font-size="14.00">DDG: </text>
</g>
<!-- 30064773383 -->
<g id="node8" class="node">
<title>30064773383</title>
<polygon fill="none" stroke="black" points="660.38,-222 57.12,-222 57.12,-182.5 660.38,-182.5 660.38,-222"/>
<text xml:space="preserve" text-anchor="start" x="65.12" y="-204.7" font-family="Times,serif" font-size="14.00">AI_generated_code_1.py:&lt;module&gt;.RegistrationSystem._can_promote_waitlisted_student, 802</text>
<text xml:space="preserve" text-anchor="start" x="190" y="-188.95" font-family="Times,serif" font-size="14.00">_can_promote_waitlisted_student(self, student_i...</text>
</g>
<!-- 107374182502&#45;&gt;30064773383 -->
<g id="edge13" class="edge">
<title>107374182502&#45;&gt;30064773383</title>
<path fill="none" stroke="black" d="M324.07,-388.29C375.06,-370 438.46,-336.57 460.75,-279.5 467.14,-263.15 470.84,-254.36 460.75,-240 457.81,-235.82 454.34,-232.1 450.5,-228.82"/>
<polygon fill="black" stroke="black" points="452.89,-226.23 442.75,-223.16 448.76,-231.88 452.89,-226.23"/>
<text xml:space="preserve" text-anchor="middle" x="468.09" y="-311.82" font-family="Times,serif" font-size="14.00">DDG: </text>
</g>
<!-- 124554051686 -->
<g id="node2" class="node">
<title>124554051686</title>
<polygon fill="none" stroke="black" points="344.5,-39.5 207,-39.5 207,0 344.5,0 344.5,-39.5"/>
<text xml:space="preserve" text-anchor="start" x="215" y="-22.2" font-family="Times,serif" font-size="14.00">METHOD_RETURN, 802</text>
<text xml:space="preserve" text-anchor="start" x="235.25" y="-6.45" font-family="Times,serif" font-size="14.00">typing.Tuple</text>
</g>
<!-- 111669149865&#45;&gt;124554051686 -->
<g id="edge2" class="edge">
<title>111669149865&#45;&gt;124554051686</title>
<path fill="none" stroke="black" d="M40.42,-239.65C39.99,-223.84 40.89,-201.06 47.75,-182.5 71.56,-118.04 82.1,-96.4 138.75,-57.5 155.62,-45.91 175.98,-37.98 195.78,-32.54"/>
<polygon fill="black" stroke="black" points="196.39,-36 205.23,-30.14 194.67,-29.21 196.39,-36"/>
<text xml:space="preserve" text-anchor="middle" x="87.35" y="-151.2" font-family="Times,serif" font-size="14.00">DDG: cls</text>
</g>
<!-- 111669149866&#45;&gt;30064773383 -->
<g id="edge12" class="edge">
<title>111669149866&#45;&gt;30064773383</title>
<path fill="none" stroke="black" d="M152.61,-297.33C155.36,-279.84 162.17,-254.43 179,-240 185.52,-234.41 197.26,-229.55 211.74,-225.35"/>
<polygon fill="black" stroke="black" points="212.52,-228.76 221.28,-222.8 210.71,-222 212.52,-228.76"/>
<text xml:space="preserve" text-anchor="middle" x="209.38" y="-254.32" font-family="Times,serif" font-size="14.00">DDG: self</text>
</g>
<!-- 111669149867&#45;&gt;30064773383 -->
<g id="edge14" class="edge">
<title>111669149867&#45;&gt;30064773383</title>
<path fill="none" stroke="black" d="M246.95,-297.16C243.13,-280.51 240.75,-256.5 252.5,-240 255.37,-235.98 258.7,-232.39 262.39,-229.19"/>
<polygon fill="black" stroke="black" points="264.39,-232.06 270.36,-223.31 260.24,-226.43 264.39,-232.06"/>
<text xml:space="preserve" text-anchor="middle" x="303.12" y="-254.32" font-family="Times,serif" font-size="14.00">DDG: student_id</text>
</g>
<!-- 111669149868&#45;&gt;30064773383 -->
<g id="edge15" class="edge">
<title>111669149868&#45;&gt;30064773383</title>
<path fill="none" stroke="black" d="M357.09,-297.08C357.4,-279.69 357.86,-253.75 358.21,-233.55"/>
<polygon fill="black" stroke="black" points="361.71,-233.71 358.39,-223.65 354.71,-233.59 361.71,-233.71"/>
<text xml:space="preserve" text-anchor="middle" x="408.67" y="-254.32" font-family="Times,serif" font-size="14.00">DDG: section_id</text>
</g>
<!-- 141733920916 -->
<g id="node7" class="node">
<title>141733920916</title>
<polygon fill="none" stroke="black" points="1298.5,-130.75 945,-130.75 945,-91.25 1298.5,-91.25 1298.5,-130.75"/>
<text xml:space="preserve" text-anchor="start" x="1084.62" y="-113.45" font-family="Times,serif" font-size="14.00">RETURN, 802</text>
<text xml:space="preserve" text-anchor="start" x="953" y="-97.7" font-family="Times,serif" font-size="14.00">return _can_promote_waitlisted_student(self, st...</text>
</g>
<!-- 141733920916&#45;&gt;124554051686 -->
<g id="edge1" class="edge">
<title>141733920916&#45;&gt;124554051686</title>
<path fill="none" stroke="black" d="M944.66,-91.32C763.66,-72.22 490.64,-43.42 356.27,-29.24"/>
<polygon fill="black" stroke="black" points="356.7,-25.77 346.38,-28.2 355.96,-32.73 356.7,-25.77"/>
<text xml:space="preserve" text-anchor="middle" x="783.15" y="-59.95" font-family="Times,serif" font-size="14.00">DDG: &lt;RET&gt;</text>
</g>
<!-- 30064773383&#45;&gt;124554051686 -->
<g id="edge3" class="edge">
<title>30064773383&#45;&gt;124554051686</title>
<path fill="none" stroke="black" d="M247.16,-182.07C193.95,-170.22 138.87,-153.01 125,-130.75 100.82,-91.94 149.13,-62.49 197.34,-43.87"/>
<polygon fill="black" stroke="black" points="198.34,-47.23 206.5,-40.47 195.91,-40.67 198.34,-47.23"/>
<text xml:space="preserve" text-anchor="middle" x="155.38" y="-105.58" font-family="Times,serif" font-size="14.00">DDG: self</text>
</g>
<!-- 30064773383&#45;&gt;124554051686 -->
<g id="edge4" class="edge">
<title>30064773383&#45;&gt;124554051686</title>
<path fill="none" stroke="black" d="M288.21,-182.11C262.62,-171.39 236.37,-155.1 221.5,-130.75 204.97,-103.68 226.05,-70.86 246.56,-48.16"/>
<polygon fill="black" stroke="black" points="248.93,-50.75 253.28,-41.08 243.85,-45.93 248.93,-50.75"/>
<text xml:space="preserve" text-anchor="middle" x="272.12" y="-105.58" font-family="Times,serif" font-size="14.00">DDG: student_id</text>
</g>
<!-- 30064773383&#45;&gt;124554051686 -->
<g id="edge5" class="edge">
<title>30064773383&#45;&gt;124554051686</title>
<path fill="none" stroke="black" d="M354.24,-182.36C348.52,-159.95 337.59,-121.8 322.75,-91.25 315.63,-76.59 305.87,-61.42 297.09,-48.92"/>
<polygon fill="black" stroke="black" points="300.2,-47.24 291.51,-41.17 294.51,-51.33 300.2,-47.24"/>
<text xml:space="preserve" text-anchor="middle" x="389.36" y="-105.58" font-family="Times,serif" font-size="14.00">DDG: section_id</text>
</g>
<!-- 30064773383&#45;&gt;124554051686 -->
<g id="edge6" class="edge">
<title>30064773383&#45;&gt;124554051686</title>
<path fill="none" stroke="black" d="M391.69,-182C424.11,-160.52 465.8,-124.41 443.75,-91.25 423.84,-61.3 388.48,-44.05 355.32,-34.12"/>
<polygon fill="black" stroke="black" points="356.68,-30.87 346.11,-31.56 354.8,-37.61 356.68,-30.87"/>
<text xml:space="preserve" text-anchor="middle" x="672.66" y="-105.58" font-family="Times,serif" font-size="14.00">DDG: _can_promote_waitlisted_student(self, student_id, section_id)</text>
</g>
<!-- 30064773383&#45;&gt;141733920916 -->
<g id="edge11" class="edge">
<title>30064773383&#45;&gt;141733920916</title>
<path fill="none" stroke="black" d="M522.9,-182.05C647.47,-167.48 818.44,-147.48 945.81,-132.58"/>
<polygon fill="black" stroke="black" points="946.2,-136.06 955.72,-131.42 945.38,-129.11 946.2,-136.06"/>
<text xml:space="preserve" text-anchor="middle" x="1008.68" y="-151.2" font-family="Times,serif" font-size="14.00">DDG: _can_promote_waitlisted_student(self, student_id, section_id)</text>
</g>
</g>
</svg>
