<?xml version="1.0" encoding="UTF-8" standalone="no"?>
<!DOCTYPE svg PUBLIC "-//W3C//DTD SVG 1.1//EN"
 "http://www.w3.org/Graphics/SVG/1.1/DTD/svg11.dtd">
<!-- Generated by graphviz version 13.1.2 (20250809.0930)
 -->
<!-- Title: add_student&lt;metaClassAdapter&gt; Pages: 1 -->
<svg width="1323pt" height="436pt"
 viewBox="0.00 0.00 1323.00 436.00" xmlns="http://www.w3.org/2000/svg" xmlns:xlink="http://www.w3.org/1999/xlink">
<g id="graph0" class="graph" transform="scale(1 1) rotate(0) translate(4 432.25)">
<title>add_student&lt;metaClassAdapter&gt;</title>
<polygon fill="white" stroke="none" points="-4,4 -4,-432.25 1318.5,-432.25 1318.5,4 -4,4"/>
<!-- 107374182505 -->
<g id="node1" class="node">
<title>107374182505</title>
<polygon fill="none" stroke="black" points="399.62,-428.25 187.88,-428.25 187.88,-388.75 399.62,-388.75 399.62,-428.25"/>
<text xml:space="preserve" text-anchor="start" x="256.62" y="-410.95" font-family="Times,serif" font-size="14.00">METHOD, 420</text>
<text xml:space="preserve" text-anchor="start" x="195.88" y="-395.2" font-family="Times,serif" font-size="14.00">add_student&lt;metaClassAdapter&gt;</text>
</g>
<!-- 111669149880 -->
<g id="node3" class="node">
<title>111669149880</title>
<polygon fill="none" stroke="black" points="83.5,-279.5 0,-279.5 0,-240 83.5,-240 83.5,-279.5"/>
<text xml:space="preserve" text-anchor="start" x="8" y="-262.2" font-family="Times,serif" font-size="14.00">PARAM, 420</text>
<text xml:space="preserve" text-anchor="start" x="31.62" y="-246.45" font-family="Times,serif" font-size="14.00">cls</text>
</g>
<!-- 107374182505&#45;&gt;111669149880 -->
<g id="edge8" class="edge">
<title>107374182505&#45;&gt;111669149880</title>
<path fill="none" stroke="black" d="M187.45,-392.46C149.13,-382.33 108.14,-365.38 78.75,-337 65.63,-324.33 56.54,-306.06 50.66,-290.58"/>
<polygon fill="black" stroke="black" points="54.03,-289.63 47.43,-281.35 47.43,-291.95 54.03,-289.63"/>
<text xml:space="preserve" text-anchor="middle" x="141.84" y="-357.45" font-family="Times,serif" font-size="14.00">DDG: </text>
</g>
<!-- 111669149881 -->
<g id="node4" class="node">
<title>111669149881</title>
<polygon fill="none" stroke="black" points="171.5,-337 88,-337 88,-297.5 171.5,-297.5 171.5,-337"/>
<text xml:space="preserve" text-anchor="start" x="96" y="-319.7" font-family="Times,serif" font-size="14.00">PARAM, 420</text>
<text xml:space="preserve" text-anchor="start" x="116.25" y="-303.95" font-family="Times,serif" font-size="14.00">self</text>
</g>
<!-- 107374182505&#45;&gt;111669149881 -->
<g id="edge9" class="edge">
<title>107374182505&#45;&gt;111669149881</title>
<path fill="none" stroke="black" d="M255.04,-388.43C243.98,-382.86 231.96,-376.66 221,-370.75 204.77,-361.99 187.16,-351.98 171.78,-343.07"/>
<polygon fill="black" stroke="black" points="173.74,-340.16 163.34,-338.15 170.22,-346.21 173.74,-340.16"/>
<text xml:space="preserve" text-anchor="middle" x="237.88" y="-357.45" font-family="Times,serif" font-size="14.00">DDG: </text>
</g>
<!-- 111669149882 -->
<g id="node5" class="node">
<title>111669149882</title>
<polygon fill="none" stroke="black" points="273.5,-337 190,-337 190,-297.5 273.5,-297.5 273.5,-337"/>
<text xml:space="preserve" text-anchor="start" x="198" y="-319.7" font-family="Times,serif" font-size="14.00">PARAM, 420</text>
<text xml:space="preserve" text-anchor="start" x="198" y="-303.95" font-family="Times,serif" font-size="14.00">student_id</text>
</g>
<!-- 107374182505&#45;&gt;111669149882 -->
<g id="edge10" class="edge">
<title>107374182505&#45;&gt;111669149882</title>
<path fill="none" stroke="black" d="M280.6,-388.57C272.19,-376.47 261.12,-360.53 251.65,-346.9"/>
<polygon fill="black" stroke="black" points="254.54,-344.92 245.96,-338.7 248.79,-348.91 254.54,-344.92"/>
<text xml:space="preserve" text-anchor="middle" x="283.34" y="-357.45" font-family="Times,serif" font-size="14.00">DDG: </text>
</g>
<!-- 111669149883 -->
<g id="node6" class="node">
<title>111669149883</title>
<polygon fill="none" stroke="black" points="375.5,-337 292,-337 292,-297.5 375.5,-297.5 375.5,-337"/>
<text xml:space="preserve" text-anchor="start" x="300" y="-319.7" font-family="Times,serif" font-size="14.00">PARAM, 420</text>
<text xml:space="preserve" text-anchor="start" x="320.25" y="-303.95" font-family="Times,serif" font-size="14.00">name</text>
</g>
<!-- 107374182505&#45;&gt;111669149883 -->
<g id="edge11" class="edge">
<title>107374182505&#45;&gt;111669149883</title>
<path fill="none" stroke="black" d="M302.23,-388.57C307.55,-376.7 314.52,-361.15 320.55,-347.69"/>
<polygon fill="black" stroke="black" points="323.63,-349.4 324.52,-338.84 317.24,-346.53 323.63,-349.4"/>
<text xml:space="preserve" text-anchor="middle" x="333.02" y="-357.45" font-family="Times,serif" font-size="14.00">DDG: </text>
</g>
<!-- 111669149884 -->
<g id="node7" class="node">
<title>111669149884</title>
<polygon fill="none" stroke="black" points="483.88,-337 393.62,-337 393.62,-297.5 483.88,-297.5 483.88,-337"/>
<text xml:space="preserve" text-anchor="start" x="405" y="-319.7" font-family="Times,serif" font-size="14.00">PARAM, 420</text>
<text xml:space="preserve" text-anchor="start" x="401.62" y="-303.95" font-family="Times,serif" font-size="14.00">max_credits</text>
</g>
<!-- 107374182505&#45;&gt;111669149884 -->
<g id="edge12" class="edge">
<title>107374182505&#45;&gt;111669149884</title>
<path fill="none" stroke="black" d="M325.21,-388.26C334.42,-382.62 344.49,-376.45 353.75,-370.75 368.27,-361.82 384.18,-352 398.26,-343.3"/>
<polygon fill="black" stroke="black" points="399.73,-346.51 406.39,-338.27 396.05,-340.55 399.73,-346.51"/>
<text xml:space="preserve" text-anchor="middle" x="393.99" y="-357.45" font-family="Times,serif" font-size="14.00">DDG: </text>
</g>
<!-- 30064773386 -->
<g id="node9" class="node">
<title>30064773386</title>
<polygon fill="none" stroke="black" points="577.88,-222 109.62,-222 109.62,-182.5 577.88,-182.5 577.88,-222"/>
<text xml:space="preserve" text-anchor="start" x="117.62" y="-204.7" font-family="Times,serif" font-size="14.00">AI_generated_code_1.py:&lt;module&gt;.RegistrationSystem.add_student, 420</text>
<text xml:space="preserve" text-anchor="start" x="181.75" y="-188.95" font-family="Times,serif" font-size="14.00">add_student(self, student_id, name, max_credits)</text>
</g>
<!-- 107374182505&#45;&gt;30064773386 -->
<g id="edge15" class="edge">
<title>107374182505&#45;&gt;30064773386</title>
<path fill="none" stroke="black" d="M395.47,-388.3C452.47,-371.08 515.99,-338.92 535.75,-279.5 541.29,-262.84 546.94,-253.53 535.75,-240 531.33,-234.65 523.43,-230.08 513.27,-226.16"/>
<polygon fill="black" stroke="black" points="514.42,-222.86 503.83,-222.95 512.17,-229.49 514.42,-222.86"/>
<text xml:space="preserve" text-anchor="middle" x="544.76" y="-311.82" font-family="Times,serif" font-size="14.00">DDG: </text>
</g>
<!-- 124554051689 -->
<g id="node2" class="node">
<title>124554051689</title>
<polygon fill="none" stroke="black" points="412.5,-39.5 275,-39.5 275,0 412.5,0 412.5,-39.5"/>
<text xml:space="preserve" text-anchor="start" x="283" y="-22.2" font-family="Times,serif" font-size="14.00">METHOD_RETURN, 420</text>
<text xml:space="preserve" text-anchor="start" x="296.5" y="-6.45" font-family="Times,serif" font-size="14.00">__builtin.bool</text>
</g>
<!-- 111669149880&#45;&gt;124554051689 -->
<g id="edge2" class="edge">
<title>111669149880&#45;&gt;124554051689</title>
<path fill="none" stroke="black" d="M44.32,-239.75C51.25,-197.18 74.71,-94.94 143.75,-57.5 180.33,-37.67 225.62,-28.3 263.85,-23.98"/>
<polygon fill="black" stroke="black" points="263.85,-27.5 273.44,-22.99 263.14,-20.53 263.85,-27.5"/>
<text xml:space="preserve" text-anchor="middle" x="96.76" y="-151.2" font-family="Times,serif" font-size="14.00">DDG: cls</text>
</g>
<!-- 111669149881&#45;&gt;30064773386 -->
<g id="edge14" class="edge">
<title>111669149881&#45;&gt;30064773386</title>
<path fill="none" stroke="black" d="M131.85,-297.3C134.84,-279.78 141.98,-254.35 159,-240 165.64,-234.4 177.48,-229.55 192.07,-225.36"/>
<polygon fill="black" stroke="black" points="192.91,-228.76 201.68,-222.82 191.12,-221.99 192.91,-228.76"/>
<text xml:space="preserve" text-anchor="middle" x="189.38" y="-254.32" font-family="Times,serif" font-size="14.00">DDG: self</text>
</g>
<!-- 111669149882&#45;&gt;30064773386 -->
<g id="edge16" class="edge">
<title>111669149882&#45;&gt;30064773386</title>
<path fill="none" stroke="black" d="M226.22,-297.1C222.62,-280.4 220.55,-256.36 232.5,-240 235.44,-235.98 238.83,-232.39 242.56,-229.19"/>
<polygon fill="black" stroke="black" points="244.61,-232.03 250.61,-223.3 240.47,-226.38 244.61,-232.03"/>
<text xml:space="preserve" text-anchor="middle" x="283.12" y="-254.32" font-family="Times,serif" font-size="14.00">DDG: student_id</text>
</g>
<!-- 111669149883&#45;&gt;30064773386 -->
<g id="edge17" class="edge">
<title>111669149883&#45;&gt;30064773386</title>
<path fill="none" stroke="black" d="M335.45,-297.08C336.99,-279.69 339.28,-253.75 341.07,-233.55"/>
<polygon fill="black" stroke="black" points="344.55,-233.91 341.95,-223.64 337.58,-233.3 344.55,-233.91"/>
<text xml:space="preserve" text-anchor="middle" x="370.61" y="-254.32" font-family="Times,serif" font-size="14.00">DDG: name</text>
</g>
<!-- 111669149884&#45;&gt;30064773386 -->
<g id="edge18" class="edge">
<title>111669149884&#45;&gt;30064773386</title>
<path fill="none" stroke="black" d="M433.8,-297.22C428.71,-280.6 419.44,-256.61 404.75,-240 401.2,-235.99 397.1,-232.28 392.75,-228.89"/>
<polygon fill="black" stroke="black" points="394.96,-226.16 384.77,-223.25 390.92,-231.88 394.96,-226.16"/>
<text xml:space="preserve" text-anchor="middle" x="481.34" y="-254.32" font-family="Times,serif" font-size="14.00">DDG: max_credits</text>
</g>
<!-- 141733920919 -->
<g id="node8" class="node">
<title>141733920919</title>
<polygon fill="none" stroke="black" points="1314.5,-130.75 961,-130.75 961,-91.25 1314.5,-91.25 1314.5,-130.75"/>
<text xml:space="preserve" text-anchor="start" x="1100.62" y="-113.45" font-family="Times,serif" font-size="14.00">RETURN, 420</text>
<text xml:space="preserve" text-anchor="start" x="969" y="-97.7" font-family="Times,serif" font-size="14.00">return add_student(self, student_id, name, max_...</text>
</g>
<!-- 141733920919&#45;&gt;124554051689 -->
<g id="edge1" class="edge">
<title>141733920919&#45;&gt;124554051689</title>
<path fill="none" stroke="black" d="M966.93,-90.8C799.03,-71.93 550.13,-43.95 423.71,-29.74"/>
<polygon fill="black" stroke="black" points="424.44,-26.3 414.11,-28.66 423.65,-33.25 424.44,-26.3"/>
<text xml:space="preserve" text-anchor="middle" x="822.04" y="-59.95" font-family="Times,serif" font-size="14.00">DDG: &lt;RET&gt;</text>
</g>
<!-- 30064773386&#45;&gt;124554051689 -->
<g id="edge3" class="edge">
<title>30064773386&#45;&gt;124554051689</title>
<path fill="none" stroke="black" d="M216.23,-182.02C152.46,-166.27 94.5,-138.59 124,-91.25 139.3,-66.7 207.23,-47.42 263.57,-35.27"/>
<polygon fill="black" stroke="black" points="264.12,-38.73 273.18,-33.25 262.67,-31.88 264.12,-38.73"/>
<text xml:space="preserve" text-anchor="middle" x="154.38" y="-105.58" font-family="Times,serif" font-size="14.00">DDG: self</text>
</g>
<!-- 30064773386&#45;&gt;124554051689 -->
<g id="edge4" class="edge">
<title>30064773386&#45;&gt;124554051689</title>
<path fill="none" stroke="black" d="M283.78,-182.09C259.67,-171.11 234.35,-154.63 220.5,-130.75 211.69,-115.56 211.69,-106.44 220.5,-91.25 232.4,-70.73 252.78,-55.67 273.57,-44.87"/>
<polygon fill="black" stroke="black" points="274.96,-48.09 282.42,-40.57 271.89,-41.79 274.96,-48.09"/>
<text xml:space="preserve" text-anchor="middle" x="271.12" y="-105.58" font-family="Times,serif" font-size="14.00">DDG: student_id</text>
</g>
<!-- 30064773386&#45;&gt;124554051689 -->
<g id="edge5" class="edge">
<title>30064773386&#45;&gt;124554051689</title>
<path fill="none" stroke="black" d="M343.75,-182.27C343.75,-150.99 343.75,-88.35 343.75,-50.93"/>
<polygon fill="black" stroke="black" points="347.25,-51.26 343.75,-41.26 340.25,-51.26 347.25,-51.26"/>
<text xml:space="preserve" text-anchor="middle" x="374.12" y="-105.58" font-family="Times,serif" font-size="14.00">DDG: name</text>
</g>
<!-- 30064773386&#45;&gt;124554051689 -->
<g id="edge6" class="edge">
<title>30064773386&#45;&gt;124554051689</title>
<path fill="none" stroke="black" d="M369.1,-182.06C383.72,-169.32 400.75,-151.22 408.75,-130.75 415.14,-114.4 415.14,-107.6 408.75,-91.25 402.25,-74.62 389.79,-59.55 377.5,-47.65"/>
<polygon fill="black" stroke="black" points="379.95,-45.15 370.21,-40.96 375.22,-50.3 379.95,-45.15"/>
<text xml:space="preserve" text-anchor="middle" x="467.54" y="-105.58" font-family="Times,serif" font-size="14.00">DDG: max_credits</text>
</g>
<!-- 30064773386&#45;&gt;124554051689 -->
<g id="edge7" class="edge">
<title>30064773386&#45;&gt;124554051689</title>
<path fill="none" stroke="black" d="M453.29,-182.15C481.52,-171.73 508.71,-155.63 525.75,-130.75 557.69,-84.13 486.37,-53.94 423.86,-37.19"/>
<polygon fill="black" stroke="black" points="424.74,-33.8 414.18,-34.7 422.99,-40.58 424.74,-33.8"/>
<text xml:space="preserve" text-anchor="middle" x="712.51" y="-105.58" font-family="Times,serif" font-size="14.00">DDG: add_student(self, student_id, name, max_credits)</text>
</g>
<!-- 30064773386&#45;&gt;141733920919 -->
<g id="edge13" class="edge">
<title>30064773386&#45;&gt;141733920919</title>
<path fill="none" stroke="black" d="M514.57,-182.05C644.46,-167.45 822.83,-147.4 955.46,-132.49"/>
<polygon fill="black" stroke="black" points="955.49,-136.01 965.04,-131.41 954.71,-129.05 955.49,-136.01"/>
<text xml:space="preserve" text-anchor="middle" x="967.16" y="-151.2" font-family="Times,serif" font-size="14.00">DDG: add_student(self, student_id, name, max_credits)</text>
</g>
</g>
</svg>
