<?xml version="1.0" encoding="UTF-8" standalone="no"?>
<!DOCTYPE svg PUBLIC "-//W3C//DTD SVG 1.1//EN"
 "http://www.w3.org/Graphics/SVG/1.1/DTD/svg11.dtd">
<!-- Generated by graphviz version 13.1.2 (20250809.0930)
 -->
<!-- Title: create_section&lt;metaClassAdapter&gt; Pages: 1 -->
<svg width="2139pt" height="436pt"
 viewBox="0.00 0.00 2139.00 436.00" xmlns="http://www.w3.org/2000/svg" xmlns:xlink="http://www.w3.org/1999/xlink">
<g id="graph0" class="graph" transform="scale(1 1) rotate(0) translate(4 432.25)">
<title>create_section&lt;metaClassAdapter&gt;</title>
<polygon fill="white" stroke="none" points="-4,4 -4,-432.25 2134.69,-432.25 2134.69,4 -4,4"/>
<!-- 107374182513 -->
<g id="node1" class="node">
<title>107374182513</title>
<polygon fill="none" stroke="black" points="574.75,-428.25 342.75,-428.25 342.75,-388.75 574.75,-388.75 574.75,-428.25"/>
<text xml:space="preserve" text-anchor="start" x="421.62" y="-410.95" font-family="Times,serif" font-size="14.00">METHOD, 500</text>
<text xml:space="preserve" text-anchor="start" x="350.75" y="-395.2" font-family="Times,serif" font-size="14.00">create_section&lt;metaClassAdapter&gt;</text>
</g>
<!-- 111669149912 -->
<g id="node3" class="node">
<title>111669149912</title>
<polygon fill="none" stroke="black" points="83.5,-279.5 0,-279.5 0,-240 83.5,-240 83.5,-279.5"/>
<text xml:space="preserve" text-anchor="start" x="8" y="-262.2" font-family="Times,serif" font-size="14.00">PARAM, 500</text>
<text xml:space="preserve" text-anchor="start" x="31.62" y="-246.45" font-family="Times,serif" font-size="14.00">cls</text>
</g>
<!-- 107374182513&#45;&gt;111669149912 -->
<g id="edge11" class="edge">
<title>107374182513&#45;&gt;111669149912</title>
<path fill="none" stroke="black" d="M342.56,-397.11C248.68,-386.63 125.95,-367.57 86.75,-337 71.39,-325.02 60.21,-306.21 52.83,-290.27"/>
<polygon fill="black" stroke="black" points="56.1,-289 48.93,-281.2 49.67,-291.77 56.1,-289"/>
<text xml:space="preserve" text-anchor="middle" x="193.01" y="-357.45" font-family="Times,serif" font-size="14.00">DDG: </text>
</g>
<!-- 111669149913 -->
<g id="node4" class="node">
<title>111669149913</title>
<polygon fill="none" stroke="black" points="179.5,-337 96,-337 96,-297.5 179.5,-297.5 179.5,-337"/>
<text xml:space="preserve" text-anchor="start" x="104" y="-319.7" font-family="Times,serif" font-size="14.00">PARAM, 501</text>
<text xml:space="preserve" text-anchor="start" x="124.25" y="-303.95" font-family="Times,serif" font-size="14.00">self</text>
</g>
<!-- 107374182513&#45;&gt;111669149913 -->
<g id="edge12" class="edge">
<title>107374182513&#45;&gt;111669149913</title>
<path fill="none" stroke="black" d="M360.41,-388.32C336.88,-383.15 311.93,-377.19 289,-370.75 255.78,-361.42 219.21,-348.8 190.35,-338.26"/>
<polygon fill="black" stroke="black" points="191.71,-335.03 181.11,-334.86 189.29,-341.6 191.71,-335.03"/>
<text xml:space="preserve" text-anchor="middle" x="305.88" y="-357.45" font-family="Times,serif" font-size="14.00">DDG: </text>
</g>
<!-- 111669149914 -->
<g id="node5" class="node">
<title>111669149914</title>
<polygon fill="none" stroke="black" points="286.5,-337 203,-337 203,-297.5 286.5,-297.5 286.5,-337"/>
<text xml:space="preserve" text-anchor="start" x="211" y="-319.7" font-family="Times,serif" font-size="14.00">PARAM, 502</text>
<text xml:space="preserve" text-anchor="start" x="211" y="-303.95" font-family="Times,serif" font-size="14.00">section_id</text>
</g>
<!-- 107374182513&#45;&gt;111669149914 -->
<g id="edge13" class="edge">
<title>107374182513&#45;&gt;111669149914</title>
<path fill="none" stroke="black" d="M406.56,-388.31C392.07,-382.81 376.36,-376.69 362,-370.75 340.32,-361.79 316.67,-351.33 296.32,-342.12"/>
<polygon fill="black" stroke="black" points="297.94,-339.01 287.39,-338.05 295.04,-345.38 297.94,-339.01"/>
<text xml:space="preserve" text-anchor="middle" x="378.88" y="-357.45" font-family="Times,serif" font-size="14.00">DDG: </text>
</g>
<!-- 111669149915 -->
<g id="node6" class="node">
<title>111669149915</title>
<polygon fill="none" stroke="black" points="397.88,-337 307.62,-337 307.62,-297.5 397.88,-297.5 397.88,-337"/>
<text xml:space="preserve" text-anchor="start" x="319" y="-319.7" font-family="Times,serif" font-size="14.00">PARAM, 503</text>
<text xml:space="preserve" text-anchor="start" x="315.62" y="-303.95" font-family="Times,serif" font-size="14.00">course_code</text>
</g>
<!-- 107374182513&#45;&gt;111669149915 -->
<g id="edge14" class="edge">
<title>107374182513&#45;&gt;111669149915</title>
<path fill="none" stroke="black" d="M436.01,-388.35C420.78,-375.53 400.54,-358.49 383.82,-344.41"/>
<polygon fill="black" stroke="black" points="386.51,-342.1 376.61,-338.34 382.01,-347.46 386.51,-342.1"/>
<text xml:space="preserve" text-anchor="middle" x="428.97" y="-357.45" font-family="Times,serif" font-size="14.00">DDG: </text>
</g>
<!-- 111669149916 -->
<g id="node7" class="node">
<title>111669149916</title>
<polygon fill="none" stroke="black" points="500.5,-337 417,-337 417,-297.5 500.5,-297.5 500.5,-337"/>
<text xml:space="preserve" text-anchor="start" x="425" y="-319.7" font-family="Times,serif" font-size="14.00">PARAM, 504</text>
<text xml:space="preserve" text-anchor="start" x="431.75" y="-303.95" font-family="Times,serif" font-size="14.00">semester</text>
</g>
<!-- 107374182513&#45;&gt;111669149916 -->
<g id="edge15" class="edge">
<title>107374182513&#45;&gt;111669149916</title>
<path fill="none" stroke="black" d="M458.75,-388.57C458.75,-377.05 458.75,-362.07 458.75,-348.9"/>
<polygon fill="black" stroke="black" points="462.25,-348.97 458.75,-338.97 455.25,-348.97 462.25,-348.97"/>
<text xml:space="preserve" text-anchor="middle" x="475.62" y="-357.45" font-family="Times,serif" font-size="14.00">DDG: </text>
</g>
<!-- 111669149917 -->
<g id="node8" class="node">
<title>111669149917</title>
<polygon fill="none" stroke="black" points="622.62,-337 518.88,-337 518.88,-297.5 622.62,-297.5 622.62,-337"/>
<text xml:space="preserve" text-anchor="start" x="537" y="-319.7" font-family="Times,serif" font-size="14.00">PARAM, 505</text>
<text xml:space="preserve" text-anchor="start" x="526.88" y="-303.95" font-family="Times,serif" font-size="14.00">instructor_id</text>
</g>
<!-- 107374182513&#45;&gt;111669149917 -->
<g id="edge16" class="edge">
<title>107374182513&#45;&gt;111669149917</title>
<path fill="none" stroke="black" d="M482.78,-388.35C498.87,-375.53 520.26,-358.49 537.92,-344.41"/>
<polygon fill="black" stroke="black" points="539.94,-347.28 545.58,-338.31 535.58,-341.8 539.94,-347.28"/>
<text xml:space="preserve" text-anchor="middle" x="538.33" y="-357.45" font-family="Times,serif" font-size="14.00">DDG: </text>
</g>
<!-- 111669149918 -->
<g id="node9" class="node">
<title>111669149918</title>
<polygon fill="none" stroke="black" points="756.62,-337 652.88,-337 652.88,-297.5 756.62,-297.5 756.62,-337"/>
<text xml:space="preserve" text-anchor="start" x="671" y="-319.7" font-family="Times,serif" font-size="14.00">PARAM, 506</text>
<text xml:space="preserve" text-anchor="start" x="660.88" y="-303.95" font-family="Times,serif" font-size="14.00">meeting_times</text>
</g>
<!-- 107374182513&#45;&gt;111669149918 -->
<g id="edge17" class="edge">
<title>107374182513&#45;&gt;111669149918</title>
<path fill="none" stroke="black" d="M511.52,-388.35C549.67,-374.51 601.38,-355.75 641.7,-341.12"/>
<polygon fill="black" stroke="black" points="642.86,-344.43 651.06,-337.73 640.47,-337.85 642.86,-344.43"/>
<text xml:space="preserve" text-anchor="middle" x="613.35" y="-357.45" font-family="Times,serif" font-size="14.00">DDG: </text>
</g>
<!-- 111669149919 -->
<g id="node10" class="node">
<title>111669149919</title>
<polygon fill="none" stroke="black" points="880.5,-337 797,-337 797,-297.5 880.5,-297.5 880.5,-337"/>
<text xml:space="preserve" text-anchor="start" x="805" y="-319.7" font-family="Times,serif" font-size="14.00">PARAM, 507</text>
<text xml:space="preserve" text-anchor="start" x="811.75" y="-303.95" font-family="Times,serif" font-size="14.00">capacity</text>
</g>
<!-- 107374182513&#45;&gt;111669149919 -->
<g id="edge18" class="edge">
<title>107374182513&#45;&gt;111669149919</title>
<path fill="none" stroke="black" d="M553.83,-388.32C579.79,-382.86 607.9,-376.77 633.75,-370.75 692.73,-357.02 707.09,-352.03 765.75,-337 772.16,-335.36 778.9,-333.63 785.57,-331.92"/>
<polygon fill="black" stroke="black" points="786.39,-335.32 795.21,-329.44 784.65,-328.54 786.39,-335.32"/>
<text xml:space="preserve" text-anchor="middle" x="712.35" y="-357.45" font-family="Times,serif" font-size="14.00">DDG: </text>
</g>
<!-- 30064773394 -->
<g id="node12" class="node">
<title>30064773394</title>
<polygon fill="none" stroke="black" points="815,-222 326.5,-222 326.5,-182.5 815,-182.5 815,-222"/>
<text xml:space="preserve" text-anchor="start" x="334.5" y="-204.7" font-family="Times,serif" font-size="14.00">AI_generated_code_1.py:&lt;module&gt;.RegistrationSystem.create_section, 500</text>
<text xml:space="preserve" text-anchor="start" x="402" y="-188.95" font-family="Times,serif" font-size="14.00">create_section(self, section_id, course_code, s...</text>
</g>
<!-- 107374182513&#45;&gt;30064773394 -->
<g id="edge21" class="edge">
<title>107374182513&#45;&gt;30064773394</title>
<path fill="none" stroke="black" d="M575.08,-398.37C684.27,-388.05 838.28,-368.46 889.75,-337 917.91,-319.79 925.66,-310.59 936.75,-279.5 942.65,-262.96 948.53,-253.02 936.75,-240 927.44,-229.71 882.23,-222.16 826.58,-216.69"/>
<polygon fill="black" stroke="black" points="827.11,-213.23 816.82,-215.77 826.45,-220.2 827.11,-213.23"/>
<text xml:space="preserve" text-anchor="middle" x="946.11" y="-311.82" font-family="Times,serif" font-size="14.00">DDG: </text>
</g>
<!-- 124554051697 -->
<g id="node2" class="node">
<title>124554051697</title>
<polygon fill="none" stroke="black" points="591.5,-39.5 454,-39.5 454,0 591.5,0 591.5,-39.5"/>
<text xml:space="preserve" text-anchor="start" x="462" y="-22.2" font-family="Times,serif" font-size="14.00">METHOD_RETURN, 500</text>
<text xml:space="preserve" text-anchor="start" x="475.5" y="-6.45" font-family="Times,serif" font-size="14.00">__builtin.bool</text>
</g>
<!-- 111669149912&#45;&gt;124554051697 -->
<g id="edge2" class="edge">
<title>111669149912&#45;&gt;124554051697</title>
<path fill="none" stroke="black" d="M40.91,-239.66C40.23,-196.9 45.61,-94.29 109.75,-57.5 164.6,-26.05 338.64,-20.45 442.47,-20.04"/>
<polygon fill="black" stroke="black" points="442.33,-23.54 452.32,-20.02 442.32,-16.54 442.33,-23.54"/>
<text xml:space="preserve" text-anchor="middle" x="76.82" y="-151.2" font-family="Times,serif" font-size="14.00">DDG: cls</text>
</g>
<!-- 111669149913&#45;&gt;30064773394 -->
<g id="edge20" class="edge">
<title>111669149913&#45;&gt;30064773394</title>
<path fill="none" stroke="black" d="M138.43,-297.3C140.16,-279.53 145.74,-253.69 163,-240 176.81,-229.05 241.09,-221.07 314.68,-215.4"/>
<polygon fill="black" stroke="black" points="314.86,-218.9 324.57,-214.66 314.34,-211.92 314.86,-218.9"/>
<text xml:space="preserve" text-anchor="middle" x="193.38" y="-254.32" font-family="Times,serif" font-size="14.00">DDG: self</text>
</g>
<!-- 111669149914&#45;&gt;30064773394 -->
<g id="edge22" class="edge">
<title>111669149914&#45;&gt;30064773394</title>
<path fill="none" stroke="black" d="M235.12,-297.2C228.01,-280.1 221.7,-255.39 235.5,-240 242.75,-231.91 273.96,-225.43 314.63,-220.29"/>
<polygon fill="black" stroke="black" points="315.03,-223.77 324.54,-219.09 314.19,-216.82 315.03,-223.77"/>
<text xml:space="preserve" text-anchor="middle" x="286.12" y="-254.32" font-family="Times,serif" font-size="14.00">DDG: section_id</text>
</g>
<!-- 111669149915&#45;&gt;30064773394 -->
<g id="edge23" class="edge">
<title>111669149915&#45;&gt;30064773394</title>
<path fill="none" stroke="black" d="M345.52,-297.32C340.37,-280.31 336.47,-255.67 349.75,-240 354.32,-234.6 362.06,-230 371.97,-226.07"/>
<polygon fill="black" stroke="black" points="372.85,-229.47 381.13,-222.86 370.54,-222.86 372.85,-229.47"/>
<text xml:space="preserve" text-anchor="middle" x="403.75" y="-254.32" font-family="Times,serif" font-size="14.00">DDG: course_code</text>
</g>
<!-- 111669149916&#45;&gt;30064773394 -->
<g id="edge24" class="edge">
<title>111669149916&#45;&gt;30064773394</title>
<path fill="none" stroke="black" d="M459.17,-297.1C460.53,-280.18 465.02,-255.79 479,-240 482.88,-235.62 487.36,-231.75 492.2,-228.34"/>
<polygon fill="black" stroke="black" points="493.97,-231.36 500.63,-223.12 490.28,-225.41 493.97,-231.36"/>
<text xml:space="preserve" text-anchor="middle" x="522.88" y="-254.32" font-family="Times,serif" font-size="14.00">DDG: semester</text>
</g>
<!-- 111669149917&#45;&gt;30064773394 -->
<g id="edge25" class="edge">
<title>111669149917&#45;&gt;30064773394</title>
<path fill="none" stroke="black" d="M570.75,-297.08C570.75,-279.69 570.75,-253.75 570.75,-233.55"/>
<polygon fill="black" stroke="black" points="574.25,-233.65 570.75,-223.65 567.25,-233.65 574.25,-233.65"/>
<text xml:space="preserve" text-anchor="middle" x="631.5" y="-254.32" font-family="Times,serif" font-size="14.00">DDG: instructor_id</text>
</g>
<!-- 111669149918&#45;&gt;30064773394 -->
<g id="edge26" class="edge">
<title>111669149918&#45;&gt;30064773394</title>
<path fill="none" stroke="black" d="M707.31,-297.01C708.45,-280.02 707.21,-255.6 693.75,-240 690.12,-235.79 686.03,-232.05 681.6,-228.74"/>
<polygon fill="black" stroke="black" points="683.63,-225.88 673.35,-223.33 679.8,-231.74 683.63,-225.88"/>
<text xml:space="preserve" text-anchor="middle" x="768.03" y="-254.32" font-family="Times,serif" font-size="14.00">DDG: meeting_times</text>
</g>
<!-- 111669149919&#45;&gt;30064773394 -->
<g id="edge27" class="edge">
<title>111669149919&#45;&gt;30064773394</title>
<path fill="none" stroke="black" d="M843.27,-297.01C846.08,-279.78 846.85,-254.99 832.75,-240 827.79,-234.72 820.07,-230.19 810.35,-226.3"/>
<polygon fill="black" stroke="black" points="811.55,-223.01 800.95,-222.97 809.21,-229.61 811.55,-223.01"/>
<text xml:space="preserve" text-anchor="middle" x="888.8" y="-254.32" font-family="Times,serif" font-size="14.00">DDG: capacity</text>
</g>
<!-- 141733920927 -->
<g id="node11" class="node">
<title>141733920927</title>
<polygon fill="none" stroke="black" points="2071.5,-130.75 1718,-130.75 1718,-91.25 2071.5,-91.25 2071.5,-130.75"/>
<text xml:space="preserve" text-anchor="start" x="1857.62" y="-113.45" font-family="Times,serif" font-size="14.00">RETURN, 500</text>
<text xml:space="preserve" text-anchor="start" x="1726" y="-97.7" font-family="Times,serif" font-size="14.00">return create_section(self, section_id, course_...</text>
</g>
<!-- 141733920927&#45;&gt;124554051697 -->
<g id="edge1" class="edge">
<title>141733920927&#45;&gt;124554051697</title>
<path fill="none" stroke="black" d="M1717.61,-92.37C1712.94,-91.99 1708.32,-91.61 1703.75,-91.25 1290.13,-58.61 793.95,-33.59 603.02,-24.48"/>
<polygon fill="black" stroke="black" points="603.37,-20.99 593.21,-24.01 603.04,-27.99 603.37,-20.99"/>
<text xml:space="preserve" text-anchor="middle" x="1478.94" y="-59.95" font-family="Times,serif" font-size="14.00">DDG: &lt;RET&gt;</text>
</g>
<!-- 30064773394&#45;&gt;124554051697 -->
<g id="edge3" class="edge">
<title>30064773394&#45;&gt;124554051697</title>
<path fill="none" stroke="black" d="M326.24,-186.35C259.79,-180.68 197.45,-173.39 165.75,-164.5 132.98,-155.31 115,-159.64 97,-130.75 87.72,-115.85 87.72,-106.15 97,-91.25 115,-62.36 133.03,-66.89 165.75,-57.5 258.13,-30.99 368.79,-23.08 442.17,-20.99"/>
<polygon fill="black" stroke="black" points="442.19,-24.49 452.1,-20.74 442.02,-17.49 442.19,-24.49"/>
<text xml:space="preserve" text-anchor="middle" x="127.38" y="-105.58" font-family="Times,serif" font-size="14.00">DDG: self</text>
</g>
<!-- 30064773394&#45;&gt;124554051697 -->
<g id="edge4" class="edge">
<title>30064773394&#45;&gt;124554051697</title>
<path fill="none" stroke="black" d="M327.8,-182.01C265.97,-171.59 211.77,-155.51 193.5,-130.75 127.89,-41.81 325.25,-23.85 442.48,-20.81"/>
<polygon fill="black" stroke="black" points="442.48,-24.31 452.4,-20.59 442.33,-17.32 442.48,-24.31"/>
<text xml:space="preserve" text-anchor="middle" x="244.12" y="-105.58" font-family="Times,serif" font-size="14.00">DDG: section_id</text>
</g>
<!-- 30064773394&#45;&gt;124554051697 -->
<g id="edge5" class="edge">
<title>30064773394&#45;&gt;124554051697</title>
<path fill="none" stroke="black" d="M460.29,-182.05C405.31,-170 347.11,-152.61 330.75,-130.75 294.61,-82.46 375.02,-52.03 442.61,-35.71"/>
<polygon fill="black" stroke="black" points="443.34,-39.14 452.29,-33.46 441.75,-32.32 443.34,-39.14"/>
<text xml:space="preserve" text-anchor="middle" x="384.75" y="-105.58" font-family="Times,serif" font-size="14.00">DDG: course_code</text>
</g>
<!-- 30064773394&#45;&gt;124554051697 -->
<g id="edge6" class="edge">
<title>30064773394&#45;&gt;124554051697</title>
<path fill="none" stroke="black" d="M529.35,-182.28C509.01,-170.57 486.46,-153.41 475,-130.75 461.13,-103.32 479.15,-70.93 496.88,-48.44"/>
<polygon fill="black" stroke="black" points="499.44,-50.83 503.14,-40.91 494.06,-46.36 499.44,-50.83"/>
<text xml:space="preserve" text-anchor="middle" x="518.88" y="-105.58" font-family="Times,serif" font-size="14.00">DDG: semester</text>
</g>
<!-- 30064773394&#45;&gt;124554051697 -->
<g id="edge7" class="edge">
<title>30064773394&#45;&gt;124554051697</title>
<path fill="none" stroke="black" d="M571.87,-182.1C572.61,-159.79 572.08,-122.03 562.75,-91.25 558.32,-76.63 550.45,-61.72 542.85,-49.41"/>
<polygon fill="black" stroke="black" points="545.8,-47.52 537.44,-41.01 539.92,-51.31 545.8,-47.52"/>
<text xml:space="preserve" text-anchor="middle" x="631.02" y="-105.58" font-family="Times,serif" font-size="14.00">DDG: instructor_id</text>
</g>
<!-- 30064773394&#45;&gt;124554051697 -->
<g id="edge8" class="edge">
<title>30064773394&#45;&gt;124554051697</title>
<path fill="none" stroke="black" d="M622.46,-182.08C667.31,-162.38 721.31,-129.27 695.75,-91.25 674.85,-60.16 637.59,-42.78 602.99,-33.06"/>
<polygon fill="black" stroke="black" points="603.9,-29.68 593.34,-30.54 602.14,-36.45 603.9,-29.68"/>
<text xml:space="preserve" text-anchor="middle" x="763.09" y="-105.58" font-family="Times,serif" font-size="14.00">DDG: meeting_times</text>
</g>
<!-- 30064773394&#45;&gt;124554051697 -->
<g id="edge9" class="edge">
<title>30064773394&#45;&gt;124554051697</title>
<path fill="none" stroke="black" d="M731.62,-182.06C804.04,-166.6 865.7,-139.2 827.75,-91.25 800.21,-56.45 683.67,-37.36 602.9,-28.1"/>
<polygon fill="black" stroke="black" points="603.59,-24.65 593.26,-27.02 602.81,-31.61 603.59,-24.65"/>
<text xml:space="preserve" text-anchor="middle" x="883.17" y="-105.58" font-family="Times,serif" font-size="14.00">DDG: capacity</text>
</g>
<!-- 30064773394&#45;&gt;124554051697 -->
<g id="edge10" class="edge">
<title>30064773394&#45;&gt;124554051697</title>
<path fill="none" stroke="black" d="M794.58,-182.03C856.84,-171.56 912.48,-155.46 930.75,-130.75 941.19,-116.63 941.53,-105.11 930.75,-91.25 891.57,-40.89 710.52,-26.47 603.21,-22.37"/>
<polygon fill="black" stroke="black" points="603.41,-18.87 593.29,-22.01 603.16,-25.87 603.41,-18.87"/>
<text xml:space="preserve" text-anchor="middle" x="1276.21" y="-105.58" font-family="Times,serif" font-size="14.00">DDG: create_section(self, section_id, course_code, semester, instructor_id, meeting_times, capacity)</text>
</g>
<!-- 30064773394&#45;&gt;141733920927 -->
<g id="edge19" class="edge">
<title>30064773394&#45;&gt;141733920927</title>
<path fill="none" stroke="black" d="M815.42,-188.55C1045.02,-176.04 1397.9,-155.27 1703.75,-130.75 1704.61,-130.68 1705.46,-130.61 1706.33,-130.54"/>
<polygon fill="black" stroke="black" points="1706.43,-134.05 1716.1,-129.73 1705.85,-127.07 1706.43,-134.05"/>
<text xml:space="preserve" text-anchor="middle" x="1793.19" y="-151.2" font-family="Times,serif" font-size="14.00">DDG: create_section(self, section_id, course_code, semester, instructor_id, meeting_times, capacity)</text>
</g>
</g>
</svg>
