<?xml version="1.0" encoding="UTF-8" standalone="no"?>
<!DOCTYPE svg PUBLIC "-//W3C//DTD SVG 1.1//EN"
 "http://www.w3.org/Graphics/SVG/1.1/DTD/svg11.dtd">
<!-- Generated by graphviz version 13.1.2 (20250809.0930)
 -->
<!-- Title: list_sections_for_course&lt;metaClassAdapter&gt; Pages: 1 -->
<svg width="999pt" height="436pt"
 viewBox="0.00 0.00 999.00 436.00" xmlns="http://www.w3.org/2000/svg" xmlns:xlink="http://www.w3.org/1999/xlink">
<g id="graph0" class="graph" transform="scale(1 1) rotate(0) translate(4 432.25)">
<title>list_sections_for_course&lt;metaClassAdapter&gt;</title>
<polygon fill="white" stroke="none" points="-4,4 -4,-432.25 995.32,-432.25 995.32,4 -4,4"/>
<!-- 107374182516 -->
<g id="node1" class="node">
<title>107374182516</title>
<polygon fill="none" stroke="black" points="347.32,-428.25 47.82,-428.25 47.82,-388.75 347.32,-388.75 347.32,-428.25"/>
<text xml:space="preserve" text-anchor="start" x="160.45" y="-410.95" font-family="Times,serif" font-size="14.00">METHOD, 899</text>
<text xml:space="preserve" text-anchor="start" x="55.82" y="-395.2" font-family="Times,serif" font-size="14.00">list_sections_for_course&lt;metaClassAdapter&gt;</text>
</g>
<!-- 111669149930 -->
<g id="node3" class="node">
<title>111669149930</title>
<polygon fill="none" stroke="black" points="84.32,-279.5 0.82,-279.5 0.82,-240 84.32,-240 84.32,-279.5"/>
<text xml:space="preserve" text-anchor="start" x="8.82" y="-262.2" font-family="Times,serif" font-size="14.00">PARAM, 899</text>
<text xml:space="preserve" text-anchor="start" x="32.45" y="-246.45" font-family="Times,serif" font-size="14.00">cls</text>
</g>
<!-- 107374182516&#45;&gt;111669149930 -->
<g id="edge6" class="edge">
<title>107374182516&#45;&gt;111669149930</title>
<path fill="none" stroke="black" d="M151.45,-388.26C128.04,-376.47 100.78,-359.32 82.57,-337 71.09,-322.92 61.5,-305.03 54.59,-290.12"/>
<polygon fill="black" stroke="black" points="57.91,-288.98 50.66,-281.26 51.52,-291.82 57.91,-288.98"/>
<text xml:space="preserve" text-anchor="middle" x="136.64" y="-357.45" font-family="Times,serif" font-size="14.00">DDG: </text>
</g>
<!-- 111669149931 -->
<g id="node4" class="node">
<title>111669149931</title>
<polygon fill="none" stroke="black" points="175.32,-337 91.82,-337 91.82,-297.5 175.32,-297.5 175.32,-337"/>
<text xml:space="preserve" text-anchor="start" x="99.82" y="-319.7" font-family="Times,serif" font-size="14.00">PARAM, 899</text>
<text xml:space="preserve" text-anchor="start" x="120.07" y="-303.95" font-family="Times,serif" font-size="14.00">self</text>
</g>
<!-- 107374182516&#45;&gt;111669149931 -->
<g id="edge7" class="edge">
<title>107374182516&#45;&gt;111669149931</title>
<path fill="none" stroke="black" d="M184,-388.57C175.24,-376.35 163.67,-360.22 153.83,-346.5"/>
<polygon fill="black" stroke="black" points="156.9,-344.77 148.23,-338.69 151.21,-348.85 156.9,-344.77"/>
<text xml:space="preserve" text-anchor="middle" x="186.28" y="-357.45" font-family="Times,serif" font-size="14.00">DDG: </text>
</g>
<!-- 111669149932 -->
<g id="node5" class="node">
<title>111669149932</title>
<polygon fill="none" stroke="black" points="283.7,-337 193.45,-337 193.45,-297.5 283.7,-297.5 283.7,-337"/>
<text xml:space="preserve" text-anchor="start" x="204.82" y="-319.7" font-family="Times,serif" font-size="14.00">PARAM, 899</text>
<text xml:space="preserve" text-anchor="start" x="201.45" y="-303.95" font-family="Times,serif" font-size="14.00">course_code</text>
</g>
<!-- 107374182516&#45;&gt;111669149932 -->
<g id="edge8" class="edge">
<title>107374182516&#45;&gt;111669149932</title>
<path fill="none" stroke="black" d="M206.27,-388.57C211.72,-376.7 218.86,-361.15 225.05,-347.69"/>
<polygon fill="black" stroke="black" points="228.12,-349.38 229.12,-338.83 221.76,-346.46 228.12,-349.38"/>
<text xml:space="preserve" text-anchor="middle" x="237.4" y="-357.45" font-family="Times,serif" font-size="14.00">DDG: </text>
</g>
<!-- 30064773397 -->
<g id="node7" class="node">
<title>30064773397</title>
<polygon fill="none" stroke="black" points="569.57,-222 13.57,-222 13.57,-182.5 569.57,-182.5 569.57,-222"/>
<text xml:space="preserve" text-anchor="start" x="21.57" y="-204.7" font-family="Times,serif" font-size="14.00">AI_generated_code_1.py:&lt;module&gt;.RegistrationSystem.list_sections_for_course, 899</text>
<text xml:space="preserve" text-anchor="start" x="146.45" y="-188.95" font-family="Times,serif" font-size="14.00">list_sections_for_course(self, course_code)</text>
</g>
<!-- 107374182516&#45;&gt;30064773397 -->
<g id="edge11" class="edge">
<title>107374182516&#45;&gt;30064773397</title>
<path fill="none" stroke="black" d="M234.47,-388.26C270.05,-367.17 321.01,-329.57 338.57,-279.5 344.38,-262.93 346.27,-255.78 338.57,-240 336.84,-236.45 334.58,-233.14 331.99,-230.08"/>
<polygon fill="black" stroke="black" points="334.61,-227.74 325.04,-223.18 329.68,-232.71 334.61,-227.74"/>
<text xml:space="preserve" text-anchor="middle" x="347.46" y="-311.82" font-family="Times,serif" font-size="14.00">DDG: </text>
</g>
<!-- 124554051700 -->
<g id="node2" class="node">
<title>124554051700</title>
<polygon fill="none" stroke="black" points="220.32,-39.5 82.82,-39.5 82.82,0 220.32,0 220.32,-39.5"/>
<text xml:space="preserve" text-anchor="start" x="90.82" y="-22.2" font-family="Times,serif" font-size="14.00">METHOD_RETURN, 899</text>
<text xml:space="preserve" text-anchor="start" x="114.45" y="-6.45" font-family="Times,serif" font-size="14.00">typing.List</text>
</g>
<!-- 111669149930&#45;&gt;124554051700 -->
<g id="edge2" class="edge">
<title>111669149930&#45;&gt;124554051700</title>
<path fill="none" stroke="black" d="M17.06,-239.71C11.99,-234.58 7.37,-228.59 4.57,-222 -2.28,-205.84 -0.01,-199.45 4.57,-182.5 21.38,-120.4 30.57,-101.43 77.57,-57.5 82.27,-53.11 87.6,-49.13 93.18,-45.55"/>
<polygon fill="black" stroke="black" points="94.62,-48.76 101.46,-40.67 91.07,-42.73 94.62,-48.76"/>
<text xml:space="preserve" text-anchor="middle" x="41.11" y="-151.2" font-family="Times,serif" font-size="14.00">DDG: cls</text>
</g>
<!-- 111669149931&#45;&gt;30064773397 -->
<g id="edge10" class="edge">
<title>111669149931&#45;&gt;30064773397</title>
<path fill="none" stroke="black" d="M135.18,-297.29C137.66,-280.02 143.93,-254.98 159.82,-240 164.7,-235.41 170.09,-231.39 175.84,-227.86"/>
<polygon fill="black" stroke="black" points="177.4,-230.99 184.48,-223.1 174.03,-224.86 177.4,-230.99"/>
<text xml:space="preserve" text-anchor="middle" x="190.2" y="-254.32" font-family="Times,serif" font-size="14.00">DDG: self</text>
</g>
<!-- 111669149932&#45;&gt;30064773397 -->
<g id="edge12" class="edge">
<title>111669149932&#45;&gt;30064773397</title>
<path fill="none" stroke="black" d="M230.65,-297.12C225.25,-280.88 220.69,-257.5 230.57,-240 232.67,-236.28 235.32,-232.9 238.32,-229.83"/>
<polygon fill="black" stroke="black" points="240.51,-232.56 245.83,-223.4 235.96,-227.24 240.51,-232.56"/>
<text xml:space="preserve" text-anchor="middle" x="284.57" y="-254.32" font-family="Times,serif" font-size="14.00">DDG: course_code</text>
</g>
<!-- 141733920930 -->
<g id="node6" class="node">
<title>141733920930</title>
<polygon fill="none" stroke="black" points="991.32,-130.75 637.82,-130.75 637.82,-91.25 991.32,-91.25 991.32,-130.75"/>
<text xml:space="preserve" text-anchor="start" x="777.45" y="-113.45" font-family="Times,serif" font-size="14.00">RETURN, 899</text>
<text xml:space="preserve" text-anchor="start" x="645.82" y="-97.7" font-family="Times,serif" font-size="14.00">return list_sections_for_course(self, course_code)</text>
</g>
<!-- 141733920930&#45;&gt;124554051700 -->
<g id="edge1" class="edge">
<title>141733920930&#45;&gt;124554051700</title>
<path fill="none" stroke="black" d="M671.94,-90.8C537.4,-72.69 340.6,-46.2 231.63,-31.53"/>
<polygon fill="black" stroke="black" points="232.28,-28.08 221.9,-30.22 231.34,-35.02 232.28,-28.08"/>
<text xml:space="preserve" text-anchor="middle" x="556.52" y="-59.95" font-family="Times,serif" font-size="14.00">DDG: &lt;RET&gt;</text>
</g>
<!-- 30064773397&#45;&gt;124554051700 -->
<g id="edge3" class="edge">
<title>30064773397&#45;&gt;124554051700</title>
<path fill="none" stroke="black" d="M188.35,-182.02C136.72,-169.93 82.36,-152.48 68.82,-130.75 50.01,-100.55 81.07,-68.27 110.35,-46.55"/>
<polygon fill="black" stroke="black" points="112.38,-49.4 118.5,-40.76 108.32,-43.7 112.38,-49.4"/>
<text xml:space="preserve" text-anchor="middle" x="99.2" y="-105.58" font-family="Times,serif" font-size="14.00">DDG: self</text>
</g>
<!-- 30064773397&#45;&gt;124554051700 -->
<g id="edge4" class="edge">
<title>30064773397&#45;&gt;124554051700</title>
<path fill="none" stroke="black" d="M233.03,-182.1C208.29,-171.01 181.56,-154.44 165.57,-130.75 149.8,-107.38 147.49,-74.74 148.41,-51.09"/>
<polygon fill="black" stroke="black" points="151.9,-51.35 149.03,-41.15 144.91,-50.91 151.9,-51.35"/>
<text xml:space="preserve" text-anchor="middle" x="219.57" y="-105.58" font-family="Times,serif" font-size="14.00">DDG: course_code</text>
</g>
<!-- 30064773397&#45;&gt;124554051700 -->
<g id="edge5" class="edge">
<title>30064773397&#45;&gt;124554051700</title>
<path fill="none" stroke="black" d="M293.14,-182.34C294.11,-158.88 292.49,-118.64 273.57,-91.25 259.71,-71.19 238.15,-56.06 216.98,-45.06"/>
<polygon fill="black" stroke="black" points="218.53,-41.93 208.01,-40.66 215.45,-48.21 218.53,-41.93"/>
<text xml:space="preserve" text-anchor="middle" x="451.21" y="-105.58" font-family="Times,serif" font-size="14.00">DDG: list_sections_for_course(self, course_code)</text>
</g>
<!-- 30064773397&#45;&gt;141733920930 -->
<g id="edge9" class="edge">
<title>30064773397&#45;&gt;141733920930</title>
<path fill="none" stroke="black" d="M404.09,-182.05C488.36,-167.67 603.61,-148 690.54,-133.17"/>
<polygon fill="black" stroke="black" points="691.04,-136.63 700.31,-131.5 689.86,-129.73 691.04,-136.63"/>
<text xml:space="preserve" text-anchor="middle" x="746.39" y="-151.2" font-family="Times,serif" font-size="14.00">DDG: list_sections_for_course(self, course_code)</text>
</g>
</g>
</svg>
