<?xml version="1.0" encoding="UTF-8" standalone="no"?>
<!DOCTYPE svg PUBLIC "-//W3C//DTD SVG 1.1//EN"
 "http://www.w3.org/Graphics/SVG/1.1/DTD/svg11.dtd">
<!-- Generated by graphviz version 13.1.2 (20250809.0930)
 -->
<!-- Title: list_student_schedule&lt;metaClassAdapter&gt; Pages: 1 -->
<svg width="939pt" height="436pt"
 viewBox="0.00 0.00 939.00 436.00" xmlns="http://www.w3.org/2000/svg" xmlns:xlink="http://www.w3.org/1999/xlink">
<g id="graph0" class="graph" transform="scale(1 1) rotate(0) translate(4 432.25)">
<title>list_student_schedule&lt;metaClassAdapter&gt;</title>
<polygon fill="white" stroke="none" points="-4,4 -4,-432.25 935,-432.25 935,4 -4,4"/>
<!-- 107374182517 -->
<g id="node1" class="node">
<title>107374182517</title>
<polygon fill="none" stroke="black" points="332.38,-428.25 53.12,-428.25 53.12,-388.75 332.38,-388.75 332.38,-428.25"/>
<text xml:space="preserve" text-anchor="start" x="155.62" y="-410.95" font-family="Times,serif" font-size="14.00">METHOD, 907</text>
<text xml:space="preserve" text-anchor="start" x="61.12" y="-395.2" font-family="Times,serif" font-size="14.00">list_student_schedule&lt;metaClassAdapter&gt;</text>
</g>
<!-- 111669149933 -->
<g id="node3" class="node">
<title>111669149933</title>
<polygon fill="none" stroke="black" points="83.5,-279.5 0,-279.5 0,-240 83.5,-240 83.5,-279.5"/>
<text xml:space="preserve" text-anchor="start" x="8" y="-262.2" font-family="Times,serif" font-size="14.00">PARAM, 907</text>
<text xml:space="preserve" text-anchor="start" x="31.62" y="-246.45" font-family="Times,serif" font-size="14.00">cls</text>
</g>
<!-- 107374182517&#45;&gt;111669149933 -->
<g id="edge6" class="edge">
<title>107374182517&#45;&gt;111669149933</title>
<path fill="none" stroke="black" d="M147.2,-388.27C124.13,-376.48 97.36,-359.33 79.75,-337 68.62,-322.89 59.5,-304.99 52.98,-290.09"/>
<polygon fill="black" stroke="black" points="56.37,-289.13 49.29,-281.26 49.92,-291.83 56.37,-289.13"/>
<text xml:space="preserve" text-anchor="middle" x="132.92" y="-357.45" font-family="Times,serif" font-size="14.00">DDG: </text>
</g>
<!-- 111669149934 -->
<g id="node4" class="node">
<title>111669149934</title>
<polygon fill="none" stroke="black" points="172.5,-337 89,-337 89,-297.5 172.5,-297.5 172.5,-337"/>
<text xml:space="preserve" text-anchor="start" x="97" y="-319.7" font-family="Times,serif" font-size="14.00">PARAM, 907</text>
<text xml:space="preserve" text-anchor="start" x="117.25" y="-303.95" font-family="Times,serif" font-size="14.00">self</text>
</g>
<!-- 107374182517&#45;&gt;111669149934 -->
<g id="edge7" class="edge">
<title>107374182517&#45;&gt;111669149934</title>
<path fill="none" stroke="black" d="M179.6,-388.57C171.19,-376.47 160.12,-360.53 150.65,-346.9"/>
<polygon fill="black" stroke="black" points="153.54,-344.92 144.96,-338.7 147.79,-348.91 153.54,-344.92"/>
<text xml:space="preserve" text-anchor="middle" x="182.34" y="-357.45" font-family="Times,serif" font-size="14.00">DDG: </text>
</g>
<!-- 111669149935 -->
<g id="node5" class="node">
<title>111669149935</title>
<polygon fill="none" stroke="black" points="274.5,-337 191,-337 191,-297.5 274.5,-297.5 274.5,-337"/>
<text xml:space="preserve" text-anchor="start" x="199" y="-319.7" font-family="Times,serif" font-size="14.00">PARAM, 907</text>
<text xml:space="preserve" text-anchor="start" x="199" y="-303.95" font-family="Times,serif" font-size="14.00">student_id</text>
</g>
<!-- 107374182517&#45;&gt;111669149935 -->
<g id="edge8" class="edge">
<title>107374182517&#45;&gt;111669149935</title>
<path fill="none" stroke="black" d="M201.23,-388.57C206.55,-376.7 213.52,-361.15 219.55,-347.69"/>
<polygon fill="black" stroke="black" points="222.63,-349.4 223.52,-338.84 216.24,-346.53 222.63,-349.4"/>
<text xml:space="preserve" text-anchor="middle" x="232.02" y="-357.45" font-family="Times,serif" font-size="14.00">DDG: </text>
</g>
<!-- 30064773398 -->
<g id="node7" class="node">
<title>30064773398</title>
<polygon fill="none" stroke="black" points="550.62,-222 14.88,-222 14.88,-182.5 550.62,-182.5 550.62,-222"/>
<text xml:space="preserve" text-anchor="start" x="22.88" y="-204.7" font-family="Times,serif" font-size="14.00">AI_generated_code_1.py:&lt;module&gt;.RegistrationSystem.list_student_schedule, 907</text>
<text xml:space="preserve" text-anchor="start" x="151.12" y="-188.95" font-family="Times,serif" font-size="14.00">list_student_schedule(self, student_id)</text>
</g>
<!-- 107374182517&#45;&gt;30064773398 -->
<g id="edge11" class="edge">
<title>107374182517&#45;&gt;30064773398</title>
<path fill="none" stroke="black" d="M227.03,-388.4C261.01,-367.08 310.3,-328.96 326.75,-279.5 332.29,-262.84 334.19,-255.9 326.75,-240 325.19,-236.66 323.16,-233.53 320.83,-230.6"/>
<polygon fill="black" stroke="black" points="323.57,-228.4 314.16,-223.55 318.49,-233.21 323.57,-228.4"/>
<text xml:space="preserve" text-anchor="middle" x="334.88" y="-311.82" font-family="Times,serif" font-size="14.00">DDG: </text>
</g>
<!-- 124554051701 -->
<g id="node2" class="node">
<title>124554051701</title>
<polygon fill="none" stroke="black" points="221.5,-39.5 84,-39.5 84,0 221.5,0 221.5,-39.5"/>
<text xml:space="preserve" text-anchor="start" x="92" y="-22.2" font-family="Times,serif" font-size="14.00">METHOD_RETURN, 907</text>
<text xml:space="preserve" text-anchor="start" x="115.62" y="-6.45" font-family="Times,serif" font-size="14.00">typing.List</text>
</g>
<!-- 111669149933&#45;&gt;124554051701 -->
<g id="edge2" class="edge">
<title>111669149933&#45;&gt;124554051701</title>
<path fill="none" stroke="black" d="M17.56,-239.51C12.75,-234.38 8.38,-228.45 5.75,-222 -0.88,-205.75 1.16,-199.45 5.75,-182.5 22.56,-120.4 31.75,-101.43 78.75,-57.5 83.45,-53.11 88.77,-49.13 94.36,-45.55"/>
<polygon fill="black" stroke="black" points="95.8,-48.76 102.64,-40.67 92.24,-42.73 95.8,-48.76"/>
<text xml:space="preserve" text-anchor="middle" x="42.28" y="-151.2" font-family="Times,serif" font-size="14.00">DDG: cls</text>
</g>
<!-- 111669149934&#45;&gt;30064773398 -->
<g id="edge10" class="edge">
<title>111669149934&#45;&gt;30064773398</title>
<path fill="none" stroke="black" d="M131.89,-297.02C133.93,-279.8 139.56,-255.01 155,-240 159.72,-235.41 164.97,-231.39 170.57,-227.87"/>
<polygon fill="black" stroke="black" points="171.99,-231.09 178.99,-223.13 168.56,-224.98 171.99,-231.09"/>
<text xml:space="preserve" text-anchor="middle" x="185.38" y="-254.32" font-family="Times,serif" font-size="14.00">DDG: self</text>
</g>
<!-- 111669149935&#45;&gt;30064773398 -->
<g id="edge12" class="edge">
<title>111669149935&#45;&gt;30064773398</title>
<path fill="none" stroke="black" d="M225.23,-297.18C220.12,-280.98 215.87,-257.62 225.5,-240 227.52,-236.31 230.08,-232.94 232.99,-229.86"/>
<polygon fill="black" stroke="black" points="235.11,-232.66 240.28,-223.41 230.47,-227.42 235.11,-232.66"/>
<text xml:space="preserve" text-anchor="middle" x="276.12" y="-254.32" font-family="Times,serif" font-size="14.00">DDG: student_id</text>
</g>
<!-- 141733920931 -->
<g id="node6" class="node">
<title>141733920931</title>
<polygon fill="none" stroke="black" points="931,-130.75 604.5,-130.75 604.5,-91.25 931,-91.25 931,-130.75"/>
<text xml:space="preserve" text-anchor="start" x="730.62" y="-113.45" font-family="Times,serif" font-size="14.00">RETURN, 907</text>
<text xml:space="preserve" text-anchor="start" x="612.5" y="-97.7" font-family="Times,serif" font-size="14.00">return list_student_schedule(self, student_id)</text>
</g>
<!-- 141733920931&#45;&gt;124554051701 -->
<g id="edge1" class="edge">
<title>141733920931&#45;&gt;124554051701</title>
<path fill="none" stroke="black" d="M635.44,-90.8C513.11,-73.05 335.28,-47.24 233.09,-32.41"/>
<polygon fill="black" stroke="black" points="233.83,-28.98 223.43,-31.01 232.82,-35.91 233.83,-28.98"/>
<text xml:space="preserve" text-anchor="middle" x="530.82" y="-59.95" font-family="Times,serif" font-size="14.00">DDG: &lt;RET&gt;</text>
</g>
<!-- 30064773398&#45;&gt;124554051701 -->
<g id="edge3" class="edge">
<title>30064773398&#45;&gt;124554051701</title>
<path fill="none" stroke="black" d="M136.14,-182.07C109.43,-171.39 85.23,-155.19 70,-130.75 51.18,-100.55 82.24,-68.27 111.53,-46.55"/>
<polygon fill="black" stroke="black" points="113.55,-49.4 119.68,-40.76 109.5,-43.7 113.55,-49.4"/>
<text xml:space="preserve" text-anchor="middle" x="100.38" y="-105.58" font-family="Times,serif" font-size="14.00">DDG: self</text>
</g>
<!-- 30064773398&#45;&gt;124554051701 -->
<g id="edge4" class="edge">
<title>30064773398&#45;&gt;124554051701</title>
<path fill="none" stroke="black" d="M230.73,-182.11C207.31,-170.79 181.58,-154.02 166.5,-130.75 151.26,-107.23 148.91,-74.88 149.71,-51.35"/>
<polygon fill="black" stroke="black" points="153.2,-51.64 150.28,-41.45 146.21,-51.24 153.2,-51.64"/>
<text xml:space="preserve" text-anchor="middle" x="217.12" y="-105.58" font-family="Times,serif" font-size="14.00">DDG: student_id</text>
</g>
<!-- 30064773398&#45;&gt;124554051701 -->
<g id="edge5" class="edge">
<title>30064773398&#45;&gt;124554051701</title>
<path fill="none" stroke="black" d="M284.84,-182.05C286.4,-158.66 285.76,-118.85 267.75,-91.25 254.83,-71.45 234.22,-56.31 213.99,-45.22"/>
<polygon fill="black" stroke="black" points="215.64,-42.14 205.15,-40.64 212.42,-48.35 215.64,-42.14"/>
<text xml:space="preserve" text-anchor="middle" x="430.8" y="-105.58" font-family="Times,serif" font-size="14.00">DDG: list_student_schedule(self, student_id)</text>
</g>
<!-- 30064773398&#45;&gt;141733920931 -->
<g id="edge9" class="edge">
<title>30064773398&#45;&gt;141733920931</title>
<path fill="none" stroke="black" d="M387.09,-182.05C465,-167.71 571.46,-148.12 651.98,-133.3"/>
<polygon fill="black" stroke="black" points="652.48,-136.77 661.68,-131.52 651.21,-129.89 652.48,-136.77"/>
<text xml:space="preserve" text-anchor="middle" x="702.79" y="-151.2" font-family="Times,serif" font-size="14.00">DDG: list_student_schedule(self, student_id)</text>
</g>
</g>
</svg>
