<?xml version="1.0" encoding="UTF-8" standalone="no"?>
<!DOCTYPE svg PUBLIC "-//W3C//DTD SVG 1.1//EN"
 "http://www.w3.org/Graphics/SVG/1.1/DTD/svg11.dtd">
<!-- Generated by graphviz version 13.1.2 (20250809.0930)
 -->
<!-- Title: print_all_courses&lt;metaClassAdapter&gt; Pages: 1 -->
<svg width="693pt" height="436pt"
 viewBox="0.00 0.00 693.00 436.00" xmlns="http://www.w3.org/2000/svg" xmlns:xlink="http://www.w3.org/1999/xlink">
<g id="graph0" class="graph" transform="scale(1 1) rotate(0) translate(4 432.25)">
<title>print_all_courses&lt;metaClassAdapter&gt;</title>
<polygon fill="white" stroke="none" points="-4,4 -4,-432.25 689.38,-432.25 689.38,4 -4,4"/>
<!-- 107374182518 -->
<g id="node1" class="node">
<title>107374182518</title>
<polygon fill="none" stroke="black" points="343.25,-428.25 91,-428.25 91,-388.75 343.25,-388.75 343.25,-428.25"/>
<text xml:space="preserve" text-anchor="start" x="176.62" y="-410.95" font-family="Times,serif" font-size="14.00">METHOD, 1129</text>
<text xml:space="preserve" text-anchor="start" x="99" y="-395.2" font-family="Times,serif" font-size="14.00">print_all_courses&lt;metaClassAdapter&gt;</text>
</g>
<!-- 111669149936 -->
<g id="node3" class="node">
<title>111669149936</title>
<polygon fill="none" stroke="black" points="90.25,-279.5 0,-279.5 0,-240 90.25,-240 90.25,-279.5"/>
<text xml:space="preserve" text-anchor="start" x="8" y="-262.2" font-family="Times,serif" font-size="14.00">PARAM, 1129</text>
<text xml:space="preserve" text-anchor="start" x="35" y="-246.45" font-family="Times,serif" font-size="14.00">cls</text>
</g>
<!-- 107374182518&#45;&gt;111669149936 -->
<g id="edge5" class="edge">
<title>107374182518&#45;&gt;111669149936</title>
<path fill="none" stroke="black" d="M194.64,-388.32C164.38,-362.5 110.42,-316.46 76.27,-287.32"/>
<polygon fill="black" stroke="black" points="78.65,-284.75 68.77,-280.92 74.1,-290.08 78.65,-284.75"/>
<text xml:space="preserve" text-anchor="middle" x="190.5" y="-357.45" font-family="Times,serif" font-size="14.00">DDG: </text>
</g>
<!-- 111669149937 -->
<g id="node4" class="node">
<title>111669149937</title>
<polygon fill="none" stroke="black" points="262.25,-337 172,-337 172,-297.5 262.25,-297.5 262.25,-337"/>
<text xml:space="preserve" text-anchor="start" x="180" y="-319.7" font-family="Times,serif" font-size="14.00">PARAM, 1129</text>
<text xml:space="preserve" text-anchor="start" x="203.62" y="-303.95" font-family="Times,serif" font-size="14.00">self</text>
</g>
<!-- 107374182518&#45;&gt;111669149937 -->
<g id="edge6" class="edge">
<title>107374182518&#45;&gt;111669149937</title>
<path fill="none" stroke="black" d="M217.12,-388.57C217.12,-377.05 217.12,-362.07 217.12,-348.9"/>
<polygon fill="black" stroke="black" points="220.63,-348.97 217.13,-338.97 213.63,-348.97 220.63,-348.97"/>
<text xml:space="preserve" text-anchor="middle" x="234" y="-357.45" font-family="Times,serif" font-size="14.00">DDG: </text>
</g>
<!-- 30064773399 -->
<g id="node6" class="node">
<title>30064773399</title>
<polygon fill="none" stroke="black" points="555.88,-222 40.38,-222 40.38,-182.5 555.88,-182.5 555.88,-222"/>
<text xml:space="preserve" text-anchor="start" x="48.38" y="-204.7" font-family="Times,serif" font-size="14.00">AI_generated_code_1.py:&lt;module&gt;.RegistrationSystem.print_all_courses, 1129</text>
<text xml:space="preserve" text-anchor="start" x="220.5" y="-188.95" font-family="Times,serif" font-size="14.00">print_all_courses(self)</text>
</g>
<!-- 107374182518&#45;&gt;30064773399 -->
<g id="edge9" class="edge">
<title>107374182518&#45;&gt;30064773399</title>
<path fill="none" stroke="black" d="M239.45,-388.51C244.99,-383.12 250.63,-377.01 255.12,-370.75 284.77,-329.44 294.01,-269.48 296.87,-233.63"/>
<polygon fill="black" stroke="black" points="300.34,-234.18 297.51,-223.96 293.36,-233.71 300.34,-234.18"/>
<text xml:space="preserve" text-anchor="middle" x="303.06" y="-311.82" font-family="Times,serif" font-size="14.00">DDG: </text>
</g>
<!-- 124554051702 -->
<g id="node2" class="node">
<title>124554051702</title>
<polygon fill="none" stroke="black" points="283.25,-39.5 139,-39.5 139,0 283.25,0 283.25,-39.5"/>
<text xml:space="preserve" text-anchor="start" x="147" y="-22.2" font-family="Times,serif" font-size="14.00">METHOD_RETURN, 1129</text>
<text xml:space="preserve" text-anchor="start" x="201" y="-6.45" font-family="Times,serif" font-size="14.00">ANY</text>
</g>
<!-- 111669149936&#45;&gt;124554051702 -->
<g id="edge2" class="edge">
<title>111669149936&#45;&gt;124554051702</title>
<path fill="none" stroke="black" d="M35.55,-239.52C29.04,-223.64 22.96,-200.82 31.12,-182.5 58.58,-120.91 122.36,-72.97 166.13,-45.77"/>
<polygon fill="black" stroke="black" points="167.94,-48.77 174.67,-40.58 164.31,-42.78 167.94,-48.77"/>
<text xml:space="preserve" text-anchor="middle" x="77.15" y="-151.2" font-family="Times,serif" font-size="14.00">DDG: cls</text>
</g>
<!-- 111669149937&#45;&gt;30064773399 -->
<g id="edge8" class="edge">
<title>111669149937&#45;&gt;30064773399</title>
<path fill="none" stroke="black" d="M213.79,-297.31C211.94,-280.75 211.94,-256.8 223.38,-240 226.12,-235.97 229.44,-232.36 233.14,-229.13"/>
<polygon fill="black" stroke="black" points="235.21,-231.96 241.14,-223.18 231.03,-226.34 235.21,-231.96"/>
<text xml:space="preserve" text-anchor="middle" x="253.75" y="-254.32" font-family="Times,serif" font-size="14.00">DDG: self</text>
</g>
<!-- 141733920932 -->
<g id="node5" class="node">
<title>141733920932</title>
<polygon fill="none" stroke="black" points="685.38,-130.75 466.88,-130.75 466.88,-91.25 685.38,-91.25 685.38,-130.75"/>
<text xml:space="preserve" text-anchor="start" x="535.62" y="-113.45" font-family="Times,serif" font-size="14.00">RETURN, 1129</text>
<text xml:space="preserve" text-anchor="start" x="474.88" y="-97.7" font-family="Times,serif" font-size="14.00">return print_all_courses(self)</text>
</g>
<!-- 141733920932&#45;&gt;124554051702 -->
<g id="edge1" class="edge">
<title>141733920932&#45;&gt;124554051702</title>
<path fill="none" stroke="black" d="M497.82,-90.85C438.07,-76.24 355.91,-56.15 294.86,-41.22"/>
<polygon fill="black" stroke="black" points="295.73,-37.83 285.18,-38.86 294.07,-44.63 295.73,-37.83"/>
<text xml:space="preserve" text-anchor="middle" x="449.23" y="-59.95" font-family="Times,serif" font-size="14.00">DDG: &lt;RET&gt;</text>
</g>
<!-- 30064773399&#45;&gt;124554051702 -->
<g id="edge3" class="edge">
<title>30064773399&#45;&gt;124554051702</title>
<path fill="none" stroke="black" d="M239.97,-182.1C216.16,-171.06 191.03,-154.54 177.38,-130.75 162.65,-105.1 176.25,-72.31 190.34,-49.23"/>
<polygon fill="black" stroke="black" points="193.21,-51.24 195.71,-40.95 187.33,-47.44 193.21,-51.24"/>
<text xml:space="preserve" text-anchor="middle" x="207.75" y="-105.58" font-family="Times,serif" font-size="14.00">DDG: self</text>
</g>
<!-- 30064773399&#45;&gt;124554051702 -->
<g id="edge4" class="edge">
<title>30064773399&#45;&gt;124554051702</title>
<path fill="none" stroke="black" d="M288.98,-182.27C273.77,-150.72 243.18,-87.26 225.21,-49.97"/>
<polygon fill="black" stroke="black" points="228.43,-48.59 220.94,-41.11 222.13,-51.63 228.43,-48.59"/>
<text xml:space="preserve" text-anchor="middle" x="357.77" y="-105.58" font-family="Times,serif" font-size="14.00">DDG: print_all_courses(self)</text>
</g>
<!-- 30064773399&#45;&gt;141733920932 -->
<g id="edge7" class="edge">
<title>30064773399&#45;&gt;141733920932</title>
<path fill="none" stroke="black" d="M357.76,-182.1C401.19,-168.16 460.15,-149.23 505.86,-134.56"/>
<polygon fill="black" stroke="black" points="506.69,-137.97 515.14,-131.58 504.55,-131.3 506.69,-137.97"/>
<text xml:space="preserve" text-anchor="middle" x="548.27" y="-151.2" font-family="Times,serif" font-size="14.00">DDG: print_all_courses(self)</text>
</g>
</g>
</svg>
