<?xml version="1.0" encoding="UTF-8" standalone="no"?>
<!DOCTYPE svg PUBLIC "-//W3C//DTD SVG 1.1//EN"
 "http://www.w3.org/Graphics/SVG/1.1/DTD/svg11.dtd">
<!-- Generated by graphviz version 13.1.2 (20250809.0930)
 -->
<!-- Title: from_dict Pages: 1 -->
<svg width="5044pt" height="885pt"
 viewBox="0.00 0.00 5044.00 885.00" xmlns="http://www.w3.org/2000/svg" xmlns:xlink="http://www.w3.org/1999/xlink">
<g id="graph0" class="graph" transform="scale(1 1) rotate(0) translate(4 880.5)">
<title>from_dict</title>
<polygon fill="white" stroke="none" points="-4,4 -4,-880.5 5040.12,-880.5 5040.12,4 -4,4"/>
<!-- 107374182412 -->
<g id="node1" class="node">
<title>107374182412</title>
<polygon fill="none" stroke="black" points="1085.75,-876.5 995.5,-876.5 995.5,-837 1085.75,-837 1085.75,-876.5"/>
<text xml:space="preserve" text-anchor="start" x="1003.5" y="-859.2" font-family="Times,serif" font-size="14.00">METHOD, 267</text>
<text xml:space="preserve" text-anchor="start" x="1010.25" y="-843.45" font-family="Times,serif" font-size="14.00">from_dict</text>
</g>
<!-- 111669149712 -->
<g id="node3" class="node">
<title>111669149712</title>
<polygon fill="none" stroke="black" points="1259.38,-777.38 1175.88,-777.38 1175.88,-737.88 1259.38,-737.88 1259.38,-777.38"/>
<text xml:space="preserve" text-anchor="start" x="1183.88" y="-760.08" font-family="Times,serif" font-size="14.00">PARAM, 267</text>
<text xml:space="preserve" text-anchor="start" x="1204.12" y="-744.33" font-family="Times,serif" font-size="14.00">data</text>
</g>
<!-- 107374182412&#45;&gt;111669149712 -->
<g id="edge14" class="edge">
<title>107374182412&#45;&gt;111669149712</title>
<path fill="none" stroke="black" d="M1075.59,-836.56C1103.47,-821.26 1142.7,-799.74 1172.87,-783.18"/>
<polygon fill="black" stroke="black" points="1174.32,-786.38 1181.4,-778.5 1170.95,-780.24 1174.32,-786.38"/>
<text xml:space="preserve" text-anchor="middle" x="1151.31" y="-805.7" font-family="Times,serif" font-size="14.00">DDG: </text>
</g>
<!-- 68719476999 -->
<g id="node6" class="node">
<title>68719476999</title>
<polygon fill="none" stroke="black" points="1960.38,-785.25 1606.88,-785.25 1606.88,-730 1960.38,-730 1960.38,-785.25"/>
<text xml:space="preserve" text-anchor="start" x="1733" y="-767.95" font-family="Times,serif" font-size="14.00">IDENTIFIER, 268</text>
<text xml:space="preserve" text-anchor="start" x="1760" y="-752.2" font-family="Times,serif" font-size="14.00">Student</text>
<text xml:space="preserve" text-anchor="start" x="1614.88" y="-736.45" font-family="Times,serif" font-size="14.00">Student(student_id = data[&quot;student_id&quot;], name =...</text>
</g>
<!-- 107374182412&#45;&gt;68719476999 -->
<g id="edge18" class="edge">
<title>107374182412&#45;&gt;68719476999</title>
<path fill="none" stroke="black" d="M1086.16,-856.38C1181.19,-856.9 1407.16,-853.96 1592.62,-819 1629.01,-812.14 1668.17,-800.54 1701.51,-789.33"/>
<polygon fill="black" stroke="black" points="1702.35,-792.75 1710.68,-786.2 1700.08,-786.12 1702.35,-792.75"/>
<text xml:space="preserve" text-anchor="middle" x="1673.61" y="-805.7" font-family="Times,serif" font-size="14.00">DDG: </text>
</g>
<!-- 30064771327 -->
<g id="node7" class="node">
<title>30064771327</title>
<polygon fill="none" stroke="black" points="1490.75,-678.25 1292.5,-678.25 1292.5,-638.75 1490.75,-638.75 1490.75,-678.25"/>
<text xml:space="preserve" text-anchor="start" x="1364.62" y="-660.95" font-family="Times,serif" font-size="14.00">get, 271</text>
<text xml:space="preserve" text-anchor="start" x="1300.5" y="-645.2" font-family="Times,serif" font-size="14.00">data.get(&quot;max_credits&quot;, 18)</text>
</g>
<!-- 107374182412&#45;&gt;30064771327 -->
<g id="edge27" class="edge">
<title>107374182412&#45;&gt;30064771327</title>
<path fill="none" stroke="black" d="M1086.04,-849.05C1134.34,-840.31 1211.49,-821.65 1268.62,-785.25 1310.28,-758.71 1348.39,-715.52 1370.81,-687.31"/>
<polygon fill="black" stroke="black" points="1373.47,-689.59 1376.87,-679.55 1367.95,-685.28 1373.47,-689.59"/>
<text xml:space="preserve" text-anchor="middle" x="1350.3" y="-752.2" font-family="Times,serif" font-size="14.00">DDG: </text>
</g>
<!-- 68719476992 -->
<g id="node8" class="node">
<title>68719476992</title>
<polygon fill="none" stroke="black" points="279.25,-785.25 0,-785.25 0,-730 279.25,-730 279.25,-785.25"/>
<text xml:space="preserve" text-anchor="start" x="89" y="-767.95" font-family="Times,serif" font-size="14.00">IDENTIFIER, 272</text>
<text xml:space="preserve" text-anchor="start" x="126.12" y="-752.2" font-family="Times,serif" font-size="14.00">list</text>
<text xml:space="preserve" text-anchor="start" x="8" y="-736.45" font-family="Times,serif" font-size="14.00">list(data.get(&quot;completed_courses&quot;, []))</text>
</g>
<!-- 107374182412&#45;&gt;68719476992 -->
<g id="edge28" class="edge">
<title>107374182412&#45;&gt;68719476992</title>
<path fill="none" stroke="black" d="M995.12,-852.81C879.36,-845.05 564.09,-822.15 290.89,-785.51"/>
<polygon fill="black" stroke="black" points="291.43,-782.05 281.06,-784.18 290.5,-788.99 291.43,-782.05"/>
<text xml:space="preserve" text-anchor="middle" x="594.2" y="-805.7" font-family="Times,serif" font-size="14.00">DDG: </text>
</g>
<!-- 68719476995 -->
<g id="node10" class="node">
<title>68719476995</title>
<polygon fill="none" stroke="black" points="590,-785.25 297.25,-785.25 297.25,-730 590,-730 590,-785.25"/>
<text xml:space="preserve" text-anchor="start" x="393" y="-767.95" font-family="Times,serif" font-size="14.00">IDENTIFIER, 273</text>
<text xml:space="preserve" text-anchor="start" x="430.12" y="-752.2" font-family="Times,serif" font-size="14.00">list</text>
<text xml:space="preserve" text-anchor="start" x="305.25" y="-736.45" font-family="Times,serif" font-size="14.00">list(data.get(&quot;current_enrollments&quot;, []))</text>
</g>
<!-- 107374182412&#45;&gt;68719476995 -->
<g id="edge32" class="edge">
<title>107374182412&#45;&gt;68719476995</title>
<path fill="none" stroke="black" d="M995.22,-848.84C947.54,-841.55 870.41,-829.66 803.88,-819 716.49,-805 692.19,-800.81 601.3,-785.53"/>
<polygon fill="black" stroke="black" points="602.12,-782.12 591.67,-783.91 600.96,-789.02 602.12,-782.12"/>
<text xml:space="preserve" text-anchor="middle" x="820.75" y="-805.7" font-family="Times,serif" font-size="14.00">DDG: </text>
</g>
<!-- 68719476998 -->
<g id="node12" class="node">
<title>68719476998</title>
<polygon fill="none" stroke="black" points="901,-785.25 608.25,-785.25 608.25,-730 901,-730 901,-785.25"/>
<text xml:space="preserve" text-anchor="start" x="704" y="-767.95" font-family="Times,serif" font-size="14.00">IDENTIFIER, 274</text>
<text xml:space="preserve" text-anchor="start" x="741.12" y="-752.2" font-family="Times,serif" font-size="14.00">list</text>
<text xml:space="preserve" text-anchor="start" x="616.25" y="-736.45" font-family="Times,serif" font-size="14.00">list(data.get(&quot;waitlisted_sections&quot;, []))</text>
</g>
<!-- 107374182412&#45;&gt;68719476998 -->
<g id="edge36" class="edge">
<title>107374182412&#45;&gt;68719476998</title>
<path fill="none" stroke="black" d="M995.12,-848.05C962.74,-841.9 918.49,-832.14 880.88,-819 858.7,-811.25 835.27,-800.75 814.7,-790.67"/>
<polygon fill="black" stroke="black" points="816.4,-787.61 805.89,-786.29 813.28,-793.88 816.4,-787.61"/>
<text xml:space="preserve" text-anchor="middle" x="897.75" y="-805.7" font-family="Times,serif" font-size="14.00">DDG: </text>
</g>
<!-- 30064771330 -->
<g id="node14" class="node">
<title>30064771330</title>
<polygon fill="none" stroke="black" points="1736,-587 1497.25,-587 1497.25,-547.5 1736,-547.5 1736,-587"/>
<text xml:space="preserve" text-anchor="start" x="1589.62" y="-569.7" font-family="Times,serif" font-size="14.00">get, 272</text>
<text xml:space="preserve" text-anchor="start" x="1505.25" y="-553.95" font-family="Times,serif" font-size="14.00">data.get(&quot;completed_courses&quot;, [])</text>
</g>
<!-- 107374182412&#45;&gt;30064771330 -->
<g id="edge41" class="edge">
<title>107374182412&#45;&gt;30064771330</title>
<path fill="none" stroke="black" d="M1086.12,-853.35C1152.25,-848.3 1277.29,-832.74 1371.62,-785.25 1467.02,-737.22 1554.41,-642.73 1594.13,-595.9"/>
<polygon fill="black" stroke="black" points="1596.71,-598.27 1600.45,-588.36 1591.34,-593.78 1596.71,-598.27"/>
<text xml:space="preserve" text-anchor="middle" x="1511.43" y="-698.7" font-family="Times,serif" font-size="14.00">DDG: </text>
</g>
<!-- 30064771334 -->
<g id="node15" class="node">
<title>30064771334</title>
<polygon fill="none" stroke="black" points="1166.75,-495.75 914.5,-495.75 914.5,-456.25 1166.75,-456.25 1166.75,-495.75"/>
<text xml:space="preserve" text-anchor="start" x="1013.62" y="-478.45" font-family="Times,serif" font-size="14.00">get, 273</text>
<text xml:space="preserve" text-anchor="start" x="922.5" y="-462.7" font-family="Times,serif" font-size="14.00">data.get(&quot;current_enrollments&quot;, [])</text>
</g>
<!-- 107374182412&#45;&gt;30064771334 -->
<g id="edge43" class="edge">
<title>107374182412&#45;&gt;30064771334</title>
<path fill="none" stroke="black" d="M1040.62,-836.77C1040.62,-817.19 1040.62,-785.77 1040.62,-758.62 1040.62,-758.62 1040.62,-758.62 1040.62,-566.25 1040.62,-546.7 1040.62,-524.75 1040.62,-507.51"/>
<polygon fill="black" stroke="black" points="1044.13,-507.66 1040.63,-497.66 1037.13,-507.66 1044.13,-507.66"/>
<text xml:space="preserve" text-anchor="middle" x="1057.5" y="-653.08" font-family="Times,serif" font-size="14.00">DDG: </text>
</g>
<!-- 30064771338 -->
<g id="node16" class="node">
<title>30064771338</title>
<polygon fill="none" stroke="black" points="783.75,-404.5 531.5,-404.5 531.5,-365 783.75,-365 783.75,-404.5"/>
<text xml:space="preserve" text-anchor="start" x="630.62" y="-387.2" font-family="Times,serif" font-size="14.00">get, 274</text>
<text xml:space="preserve" text-anchor="start" x="539.5" y="-371.45" font-family="Times,serif" font-size="14.00">data.get(&quot;waitlisted_sections&quot;, [])</text>
</g>
<!-- 107374182412&#45;&gt;30064771338 -->
<g id="edge45" class="edge">
<title>107374182412&#45;&gt;30064771338</title>
<path fill="none" stroke="black" d="M1025.14,-836.74C965.59,-763.67 751.2,-500.58 680.45,-413.76"/>
<polygon fill="black" stroke="black" points="683.29,-411.71 674.26,-406.17 677.87,-416.13 683.29,-411.71"/>
<text xml:space="preserve" text-anchor="middle" x="866" y="-607.45" font-family="Times,serif" font-size="14.00">DDG: </text>
</g>
<!-- 124554051596 -->
<g id="node2" class="node">
<title>124554051596</title>
<polygon fill="none" stroke="black" points="3481.25,-39.5 3202,-39.5 3202,0 3481.25,0 3481.25,-39.5"/>
<text xml:space="preserve" text-anchor="start" x="3280.88" y="-22.2" font-family="Times,serif" font-size="14.00">METHOD_RETURN, 267</text>
<text xml:space="preserve" text-anchor="start" x="3210" y="-6.45" font-family="Times,serif" font-size="14.00">AI_generated_code_1.py:&lt;module&gt;.Student</text>
</g>
<!-- 111669149712&#45;&gt;30064771327 -->
<g id="edge26" class="edge">
<title>111669149712&#45;&gt;30064771327</title>
<path fill="none" stroke="black" d="M1224.21,-737.58C1229.82,-724.12 1239.16,-706.69 1252.88,-696.25 1261.57,-689.63 1271.37,-684.2 1281.62,-679.74"/>
<polygon fill="black" stroke="black" points="1282.61,-683.12 1290.61,-676.16 1280.02,-676.61 1282.61,-683.12"/>
<text xml:space="preserve" text-anchor="middle" x="1283.25" y="-698.7" font-family="Times,serif" font-size="14.00">DDG: data</text>
</g>
<!-- 141733920781 -->
<g id="node4" class="node">
<title>141733920781</title>
<polygon fill="none" stroke="black" points="3477.88,-130.75 3205.38,-130.75 3205.38,-91.25 3477.88,-91.25 3477.88,-130.75"/>
<text xml:space="preserve" text-anchor="start" x="3304.5" y="-113.45" font-family="Times,serif" font-size="14.00">RETURN, 268</text>
<text xml:space="preserve" text-anchor="start" x="3213.38" y="-97.7" font-family="Times,serif" font-size="14.00">return Student( student_id=data[&quot;st...</text>
</g>
<!-- 141733920781&#45;&gt;124554051596 -->
<g id="edge1" class="edge">
<title>141733920781&#45;&gt;124554051596</title>
<path fill="none" stroke="black" d="M3341.62,-91.07C3341.62,-79.55 3341.62,-64.57 3341.62,-51.4"/>
<polygon fill="black" stroke="black" points="3345.13,-51.47 3341.63,-41.47 3338.13,-51.47 3345.13,-51.47"/>
<text xml:space="preserve" text-anchor="middle" x="3375.38" y="-59.95" font-family="Times,serif" font-size="14.00">DDG: &lt;RET&gt;</text>
</g>
<!-- 30064771340 -->
<g id="node5" class="node">
<title>30064771340</title>
<polygon fill="none" stroke="black" points="1650.38,-222 1296.88,-222 1296.88,-182.5 1650.38,-182.5 1650.38,-222"/>
<text xml:space="preserve" text-anchor="start" x="1433.12" y="-204.7" font-family="Times,serif" font-size="14.00">Student, 268</text>
<text xml:space="preserve" text-anchor="start" x="1304.88" y="-188.95" font-family="Times,serif" font-size="14.00">Student(student_id = data[&quot;student_id&quot;], name =...</text>
</g>
<!-- 30064771340&#45;&gt;124554051596 -->
<g id="edge2" class="edge">
<title>30064771340&#45;&gt;124554051596</title>
<path fill="none" stroke="black" d="M1650.6,-201.3C2138.23,-201.03 3467.44,-197.28 3499.62,-164.5 3513.33,-150.54 3519.06,-132.17 3486.62,-91.25 3469.96,-70.23 3445.46,-55.07 3421.33,-44.33"/>
<polygon fill="black" stroke="black" points="3423,-41.24 3412.42,-40.58 3420.28,-47.69 3423,-41.24"/>
<text xml:space="preserve" text-anchor="middle" x="3586.79" y="-105.58" font-family="Times,serif" font-size="14.00">DDG: data[&quot;student_id&quot;]</text>
</g>
<!-- 30064771340&#45;&gt;124554051596 -->
<g id="edge3" class="edge">
<title>30064771340&#45;&gt;124554051596</title>
<path fill="none" stroke="black" d="M1650.49,-200.13C2113.19,-196.91 3336.29,-186.42 3518.62,-164.5 3586.47,-156.34 3625.94,-184.11 3668.62,-130.75 3724.65,-60.72 3603.27,-34.98 3492.85,-25.67"/>
<polygon fill="black" stroke="black" points="3493.27,-22.2 3483.03,-24.89 3492.72,-29.18 3493.27,-22.2"/>
<text xml:space="preserve" text-anchor="middle" x="3740.12" y="-105.58" font-family="Times,serif" font-size="14.00">DDG: data[&quot;name&quot;]</text>
</g>
<!-- 30064771340&#45;&gt;124554051596 -->
<g id="edge4" class="edge">
<title>30064771340&#45;&gt;124554051596</title>
<path fill="none" stroke="black" d="M1650.6,-201.55C2090.05,-201.75 3222.68,-198.81 3598.62,-164.5 3689.71,-156.19 3742.49,-200.52 3801.62,-130.75 3880.48,-37.71 3749.83,-71.81 3672.62,-57.5 3614.26,-46.69 3549.48,-38.63 3492.82,-32.87"/>
<polygon fill="black" stroke="black" points="3493.4,-29.41 3483.1,-31.9 3492.7,-36.38 3493.4,-29.41"/>
<text xml:space="preserve" text-anchor="middle" x="3933.29" y="-105.58" font-family="Times,serif" font-size="14.00">DDG: data.get(&quot;max_credits&quot;, 18)</text>
</g>
<!-- 30064771340&#45;&gt;124554051596 -->
<g id="edge6" class="edge">
<title>30064771340&#45;&gt;124554051596</title>
<path fill="none" stroke="black" d="M1650.53,-200.22C2105.13,-197.26 3306.41,-187.45 3704.62,-164.5 3856.67,-155.74 3943.38,-243.62 4045.62,-130.75 4057.41,-117.74 4057.29,-104.37 4045.62,-91.25 4009.63,-50.75 3688.8,-32.59 3492.89,-25.21"/>
<polygon fill="black" stroke="black" points="3493.26,-21.72 3483.13,-24.85 3493,-28.72 3493.26,-21.72"/>
<text xml:space="preserve" text-anchor="middle" x="4202.92" y="-105.58" font-family="Times,serif" font-size="14.00">DDG: list(data.get(&quot;completed_courses&quot;, []))</text>
</g>
<!-- 30064771340&#45;&gt;124554051596 -->
<g id="edge8" class="edge">
<title>30064771340&#45;&gt;124554051596</title>
<path fill="none" stroke="black" d="M1650.69,-200.3C2270.75,-196.54 4309.35,-180.41 4355.62,-130.75 4545.85,73.42 5271.49,-152.73 3982.62,-57.5 3815.06,-45.12 3622.6,-34.58 3492.65,-28"/>
<polygon fill="black" stroke="black" points="3493.12,-24.52 3482.96,-27.51 3492.77,-31.51 3493.12,-24.52"/>
<text xml:space="preserve" text-anchor="middle" x="4555.3" y="-105.58" font-family="Times,serif" font-size="14.00">DDG: list(data.get(&quot;current_enrollments&quot;, []))</text>
</g>
<!-- 30064771340&#45;&gt;124554051596 -->
<g id="edge12" class="edge">
<title>30064771340&#45;&gt;124554051596</title>
<path fill="none" stroke="black" d="M1296.72,-187.67C1111.64,-172.6 845.69,-148.11 830.12,-130.75 818.41,-117.68 818.38,-104.3 830.12,-91.25 925.33,14.58 1006.54,-66.2 1148.62,-57.5 1546.78,-33.12 2762.13,-24.03 3190.36,-21.53"/>
<polygon fill="black" stroke="black" points="3190.07,-25.03 3200.05,-21.48 3190.03,-18.04 3190.07,-25.03"/>
<text xml:space="preserve" text-anchor="middle" x="985.38" y="-105.58" font-family="Times,serif" font-size="14.00">DDG: list(data.get(&quot;waitlisted_sections&quot;, []))</text>
</g>
<!-- 30064771340&#45;&gt;124554051596 -->
<g id="edge13" class="edge">
<title>30064771340&#45;&gt;124554051596</title>
<path fill="none" stroke="black" d="M1296.5,-186.52C1204.01,-172.34 1119.86,-144.72 1171.62,-91.25 1206.74,-54.97 2703.87,-30.03 3190.53,-22.86"/>
<polygon fill="black" stroke="black" points="3190.38,-26.37 3200.32,-22.72 3190.27,-19.37 3190.38,-26.37"/>
<text xml:space="preserve" text-anchor="middle" x="2184.12" y="-105.58" font-family="Times,serif" font-size="14.00">DDG: Student(student_id = data[&quot;student_id&quot;], name = data[&quot;name&quot;], max_credits = data.get(&quot;max_credits&quot;, 18), completed_courses = list(data.get(&quot;completed_courses&quot;, [])), current_enrollments = list(data.get(&quot;current_enrollments&quot;, [])), waitlisted_sections = list(data.get(&quot;waitlisted_sections&quot;, [])))</text>
</g>
<!-- 30064771340&#45;&gt;141733920781 -->
<g id="edge15" class="edge">
<title>30064771340&#45;&gt;141733920781</title>
<path fill="none" stroke="black" d="M1468.09,-182.19C1466.08,-170.92 1466.08,-157.22 1474.62,-148.75 1491.56,-131.96 3167.83,-132.36 3191.62,-130.75 3192.32,-130.7 3193.02,-130.66 3193.72,-130.61"/>
<polygon fill="black" stroke="black" points="3193.95,-134.1 3203.65,-129.84 3193.41,-127.12 3193.95,-134.1"/>
<text xml:space="preserve" text-anchor="middle" x="2487.12" y="-151.2" font-family="Times,serif" font-size="14.00">DDG: Student(student_id = data[&quot;student_id&quot;], name = data[&quot;name&quot;], max_credits = data.get(&quot;max_credits&quot;, 18), completed_courses = list(data.get(&quot;completed_courses&quot;, [])), current_enrollments = list(data.get(&quot;current_enrollments&quot;, [])), waitlisted_sections = list(data.get(&quot;waitlisted_sections&quot;, [])))</text>
</g>
<!-- 30064771327&#45;&gt;30064771340 -->
<g id="edge20" class="edge">
<title>30064771327&#45;&gt;30064771340</title>
<path fill="none" stroke="black" d="M1365.14,-638.31C1346.05,-622.06 1323.62,-596.89 1323.62,-568.25 1323.62,-568.25 1323.62,-568.25 1323.62,-292.5 1323.62,-260.92 1348.48,-240.26 1377.96,-226.87"/>
<polygon fill="black" stroke="black" points="1379.28,-230.11 1387.15,-223.01 1376.57,-223.65 1379.28,-230.11"/>
<text xml:space="preserve" text-anchor="middle" x="1354" y="-424.95" font-family="Times,serif" font-size="14.00">DDG: data</text>
</g>
<!-- 30064771327&#45;&gt;30064771340 -->
<g id="edge21" class="edge">
<title>30064771327&#45;&gt;30064771340</title>
<path fill="none" stroke="black" d="M1397.04,-638.53C1401.68,-620.58 1407.62,-592.81 1407.62,-568.25 1407.62,-568.25 1407.62,-568.25 1407.62,-292.5 1407.62,-267.99 1423.92,-245.8 1440.31,-229.68"/>
<polygon fill="black" stroke="black" points="1442.24,-232.67 1447.19,-223.3 1437.48,-227.54 1442.24,-232.67"/>
<text xml:space="preserve" text-anchor="middle" x="1468.38" y="-424.95" font-family="Times,serif" font-size="14.00">DDG: &quot;max_credits&quot;</text>
</g>
<!-- 30064771327&#45;&gt;30064771340 -->
<g id="edge22" class="edge">
<title>30064771327&#45;&gt;30064771340</title>
<path fill="none" stroke="black" d="M1409.37,-638.28C1441.2,-602.32 1506.9,-521 1530.62,-438.25 1551.72,-364.65 1513.83,-276.65 1490.29,-232.12"/>
<polygon fill="black" stroke="black" points="1493.52,-230.72 1485.67,-223.6 1487.36,-234.06 1493.52,-230.72"/>
<text xml:space="preserve" text-anchor="middle" x="1557.71" y="-424.95" font-family="Times,serif" font-size="14.00">DDG: 18</text>
</g>
<!-- 30064771327&#45;&gt;30064771330 -->
<g id="edge40" class="edge">
<title>30064771327&#45;&gt;30064771330</title>
<path fill="none" stroke="black" d="M1443.28,-638.26C1455.74,-633.05 1468.85,-627.09 1480.62,-620.75 1491.62,-614.84 1492.67,-610.49 1503.88,-605 1514.24,-599.92 1525.48,-595.31 1536.71,-591.19"/>
<polygon fill="black" stroke="black" points="1537.75,-594.54 1546.01,-587.91 1535.42,-587.94 1537.75,-594.54"/>
<text xml:space="preserve" text-anchor="middle" x="1534.25" y="-607.45" font-family="Times,serif" font-size="14.00">DDG: data</text>
</g>
<!-- 30064771331 -->
<g id="node9" class="node">
<title>30064771331</title>
<polygon fill="none" stroke="black" points="1824.25,-495.75 1545,-495.75 1545,-456.25 1824.25,-456.25 1824.25,-495.75"/>
<text xml:space="preserve" text-anchor="start" x="1654.25" y="-478.45" font-family="Times,serif" font-size="14.00">list, 272</text>
<text xml:space="preserve" text-anchor="start" x="1553" y="-462.7" font-family="Times,serif" font-size="14.00">list(data.get(&quot;completed_courses&quot;, []))</text>
</g>
<!-- 30064771331&#45;&gt;124554051596 -->
<g id="edge5" class="edge">
<title>30064771331&#45;&gt;124554051596</title>
<path fill="none" stroke="black" d="M1824.64,-474.67C2428.49,-472.8 4779.62,-460.71 4779.62,-385.75 4779.62,-385.75 4779.62,-385.75 4779.62,-110 4779.62,-46.06 3861.94,-27.32 3492.76,-22.37"/>
<polygon fill="black" stroke="black" points="3493.03,-18.87 3482.98,-22.24 3492.93,-25.87 3493.03,-18.87"/>
<text xml:space="preserve" text-anchor="middle" x="4907.88" y="-242.45" font-family="Times,serif" font-size="14.00">DDG: data.get(&quot;completed_courses&quot;, [])</text>
</g>
<!-- 30064771331&#45;&gt;30064771340 -->
<g id="edge23" class="edge">
<title>30064771331&#45;&gt;30064771340</title>
<path fill="none" stroke="black" d="M1680.09,-456.02C1668.63,-412.03 1634.5,-302.09 1566.62,-240 1561.5,-235.31 1555.7,-231.19 1549.57,-227.57"/>
<polygon fill="black" stroke="black" points="1551.5,-224.64 1541.03,-223.01 1548.2,-230.81 1551.5,-224.64"/>
<text xml:space="preserve" text-anchor="middle" x="1768.12" y="-333.7" font-family="Times,serif" font-size="14.00">DDG: data.get(&quot;completed_courses&quot;, [])</text>
</g>
<!-- 30064771335 -->
<g id="node11" class="node">
<title>30064771335</title>
<polygon fill="none" stroke="black" points="1172,-404.5 879.25,-404.5 879.25,-365 1172,-365 1172,-404.5"/>
<text xml:space="preserve" text-anchor="start" x="995.25" y="-387.2" font-family="Times,serif" font-size="14.00">list, 273</text>
<text xml:space="preserve" text-anchor="start" x="887.25" y="-371.45" font-family="Times,serif" font-size="14.00">list(data.get(&quot;current_enrollments&quot;, []))</text>
</g>
<!-- 30064771335&#45;&gt;124554051596 -->
<g id="edge7" class="edge">
<title>30064771335&#45;&gt;124554051596</title>
<path fill="none" stroke="black" d="M1017.45,-364.81C1007.14,-342.02 988.03,-303.17 965.62,-273.75 910.2,-200.99 853.35,-214.95 817.62,-130.75 804.07,-98.81 813.46,-72.76 844.62,-57.5 897.48,-31.61 2658.12,-23.2 3190.59,-21.24"/>
<polygon fill="black" stroke="black" points="3190.29,-24.74 3200.27,-21.21 3190.26,-17.74 3190.29,-24.74"/>
<text xml:space="preserve" text-anchor="middle" x="1043.35" y="-196.82" font-family="Times,serif" font-size="14.00">DDG: data.get(&quot;current_enrollments&quot;, [])</text>
</g>
<!-- 30064771335&#45;&gt;30064771340 -->
<g id="edge24" class="edge">
<title>30064771335&#45;&gt;30064771340</title>
<path fill="none" stroke="black" d="M1021.85,-364.54C1018.25,-340 1016.35,-297.84 1039.62,-273.75 1073.94,-238.23 1184.45,-220.61 1285.36,-211.86"/>
<polygon fill="black" stroke="black" points="1285.48,-215.36 1295.16,-211.04 1284.9,-208.39 1285.48,-215.36"/>
<text xml:space="preserve" text-anchor="middle" x="1174.62" y="-288.07" font-family="Times,serif" font-size="14.00">DDG: data.get(&quot;current_enrollments&quot;, [])</text>
</g>
<!-- 30064771339 -->
<g id="node13" class="node">
<title>30064771339</title>
<polygon fill="none" stroke="black" points="790,-313.25 497.25,-313.25 497.25,-273.75 790,-273.75 790,-313.25"/>
<text xml:space="preserve" text-anchor="start" x="613.25" y="-295.95" font-family="Times,serif" font-size="14.00">list, 274</text>
<text xml:space="preserve" text-anchor="start" x="505.25" y="-280.2" font-family="Times,serif" font-size="14.00">list(data.get(&quot;waitlisted_sections&quot;, []))</text>
</g>
<!-- 30064771339&#45;&gt;124554051596 -->
<g id="edge11" class="edge">
<title>30064771339&#45;&gt;124554051596</title>
<path fill="none" stroke="black" d="M613.99,-273.35C575.37,-245.94 516.06,-193.83 545.62,-148.75 601.43,-63.65 656.14,-78.92 755.62,-57.5 874.87,-31.83 2655.33,-23.26 3190.56,-21.26"/>
<polygon fill="black" stroke="black" points="3190.32,-24.76 3200.31,-21.22 3190.29,-17.76 3190.32,-24.76"/>
<text xml:space="preserve" text-anchor="middle" x="680.62" y="-151.2" font-family="Times,serif" font-size="14.00">DDG: data.get(&quot;waitlisted_sections&quot;, [])</text>
</g>
<!-- 30064771339&#45;&gt;30064771340 -->
<g id="edge25" class="edge">
<title>30064771339&#45;&gt;30064771340</title>
<path fill="none" stroke="black" d="M617.13,-273.45C605.67,-262.97 596.86,-250.1 606.62,-240 627.57,-218.35 1118.53,-223.37 1148.62,-222 1192.87,-219.99 1240.47,-217.45 1285.24,-214.9"/>
<polygon fill="black" stroke="black" points="1285.26,-218.41 1295.05,-214.34 1284.86,-211.42 1285.26,-218.41"/>
<text xml:space="preserve" text-anchor="middle" x="741.62" y="-242.45" font-family="Times,serif" font-size="14.00">DDG: data.get(&quot;waitlisted_sections&quot;, [])</text>
</g>
<!-- 30064771330&#45;&gt;30064771331 -->
<g id="edge29" class="edge">
<title>30064771330&#45;&gt;30064771331</title>
<path fill="none" stroke="black" d="M1623.54,-547.21C1627.88,-536.74 1634.12,-523.86 1641.88,-513.75 1644.55,-510.27 1647.59,-506.88 1650.8,-503.66"/>
<polygon fill="black" stroke="black" points="1652.95,-506.44 1657.89,-497.06 1648.18,-501.31 1652.95,-506.44"/>
<text xml:space="preserve" text-anchor="middle" x="1672.25" y="-516.2" font-family="Times,serif" font-size="14.00">DDG: data</text>
</g>
<!-- 30064771330&#45;&gt;30064771331 -->
<g id="edge30" class="edge">
<title>30064771330&#45;&gt;30064771331</title>
<path fill="none" stroke="black" d="M1684.15,-547.12C1691.42,-542.46 1697.88,-536.68 1702.62,-529.5 1707.22,-522.53 1706.65,-514.27 1703.88,-506.39"/>
<polygon fill="black" stroke="black" points="1707.07,-504.96 1699.65,-497.4 1700.74,-507.94 1707.07,-504.96"/>
<text xml:space="preserve" text-anchor="middle" x="1787.02" y="-516.2" font-family="Times,serif" font-size="14.00">DDG: &quot;completed_courses&quot;</text>
</g>
<!-- 30064771330&#45;&gt;30064771331 -->
<g id="edge31" class="edge">
<title>30064771330&#45;&gt;30064771331</title>
<path fill="none" stroke="black" d="M1591.42,-547.15C1581.3,-537.13 1573.65,-524.69 1581.38,-513.75 1584.21,-509.73 1587.53,-506.14 1591.21,-502.95"/>
<polygon fill="black" stroke="black" points="1593.19,-505.84 1599.15,-497.08 1589.02,-500.21 1593.19,-505.84"/>
<text xml:space="preserve" text-anchor="middle" x="1605" y="-516.2" font-family="Times,serif" font-size="14.00">DDG: []</text>
</g>
<!-- 30064771330&#45;&gt;30064771334 -->
<g id="edge42" class="edge">
<title>30064771330&#45;&gt;30064771334</title>
<path fill="none" stroke="black" d="M1496.93,-547.7C1403.3,-533.2 1273.11,-513.02 1175.75,-497.94"/>
<polygon fill="black" stroke="black" points="1176.56,-494.52 1166.14,-496.45 1175.49,-501.44 1176.56,-494.52"/>
<text xml:space="preserve" text-anchor="middle" x="1393.49" y="-516.2" font-family="Times,serif" font-size="14.00">DDG: data</text>
</g>
<!-- 30064771334&#45;&gt;30064771335 -->
<g id="edge33" class="edge">
<title>30064771334&#45;&gt;30064771335</title>
<path fill="none" stroke="black" d="M1037.44,-456.07C1035.49,-444.44 1032.94,-429.27 1030.71,-415.99"/>
<polygon fill="black" stroke="black" points="1034.21,-415.73 1029.1,-406.45 1027.31,-416.89 1034.21,-415.73"/>
<text xml:space="preserve" text-anchor="middle" x="1064.4" y="-424.95" font-family="Times,serif" font-size="14.00">DDG: data</text>
</g>
<!-- 30064771334&#45;&gt;30064771335 -->
<g id="edge34" class="edge">
<title>30064771334&#45;&gt;30064771335</title>
<path fill="none" stroke="black" d="M1082.98,-455.9C1096.68,-446.91 1106.53,-435.34 1098.62,-422.5 1096.22,-418.6 1093.27,-415.1 1089.94,-411.96"/>
<polygon fill="black" stroke="black" points="1092.18,-409.28 1082.17,-405.82 1087.84,-414.77 1092.18,-409.28"/>
<text xml:space="preserve" text-anchor="middle" x="1189.18" y="-424.95" font-family="Times,serif" font-size="14.00">DDG: &quot;current_enrollments&quot;</text>
</g>
<!-- 30064771334&#45;&gt;30064771335 -->
<g id="edge35" class="edge">
<title>30064771334&#45;&gt;30064771335</title>
<path fill="none" stroke="black" d="M997.58,-455.85C991.08,-451.05 985.26,-445.23 981.38,-438.25 976.44,-429.38 979.69,-420.6 986.22,-412.83"/>
<polygon fill="black" stroke="black" points="988.59,-415.4 993.28,-405.9 983.69,-410.4 988.59,-415.4"/>
<text xml:space="preserve" text-anchor="middle" x="1005" y="-424.95" font-family="Times,serif" font-size="14.00">DDG: []</text>
</g>
<!-- 30064771334&#45;&gt;30064771338 -->
<g id="edge44" class="edge">
<title>30064771334&#45;&gt;30064771338</title>
<path fill="none" stroke="black" d="M973.1,-455.79C953.93,-450.24 933.05,-444.1 913.88,-438.25 891.89,-431.55 886.93,-428.02 864.62,-422.5 841.5,-416.78 816.72,-411.59 792.62,-407.02"/>
<polygon fill="black" stroke="black" points="793.57,-403.64 783.1,-405.25 792.29,-410.52 793.57,-403.64"/>
<text xml:space="preserve" text-anchor="middle" x="944.25" y="-424.95" font-family="Times,serif" font-size="14.00">DDG: data</text>
</g>
<!-- 30064771338&#45;&gt;124554051596 -->
<g id="edge9" class="edge">
<title>30064771338&#45;&gt;124554051596</title>
<path fill="none" stroke="black" d="M531.38,-367.07C455.14,-353.33 372.62,-330.21 372.62,-294.5 372.62,-294.5 372.62,-294.5 372.62,-110 372.62,-66.35 413.78,-69.91 455.62,-57.5 587.42,-18.4 2614.57,-19.33 3190.24,-20.39"/>
<polygon fill="black" stroke="black" points="3189.99,-23.89 3199.99,-20.41 3190,-16.89 3189.99,-23.89"/>
<text xml:space="preserve" text-anchor="middle" x="403" y="-196.82" font-family="Times,serif" font-size="14.00">DDG: data</text>
</g>
<!-- 30064771338&#45;&gt;124554051596 -->
<g id="edge10" class="edge">
<title>30064771338&#45;&gt;124554051596</title>
<path fill="none" stroke="black" d="M532.23,-364.58C497.74,-351.72 469.62,-330.27 469.62,-294.5 469.62,-294.5 469.62,-294.5 469.62,-110 469.62,-23.25 571.76,-69.86 657.62,-57.5 907.8,-21.48 2661.62,-20.12 3190.81,-20.54"/>
<polygon fill="black" stroke="black" points="3190.42,-24.04 3200.43,-20.55 3190.43,-17.04 3190.42,-24.04"/>
<text xml:space="preserve" text-anchor="middle" x="493.25" y="-196.82" font-family="Times,serif" font-size="14.00">DDG: []</text>
</g>
<!-- 30064771338&#45;&gt;30064771340 -->
<g id="edge19" class="edge">
<title>30064771338&#45;&gt;30064771340</title>
<path fill="none" stroke="black" d="M784.11,-369.78C809.43,-364.46 835.37,-357.13 858.62,-347 908.56,-325.25 908.37,-298.52 956.88,-273.75 1001.57,-250.93 1015.41,-249.8 1064.62,-240 1136.05,-225.77 1215.61,-217.05 1285.43,-211.7"/>
<polygon fill="black" stroke="black" points="1285.32,-215.22 1295.04,-210.99 1284.8,-208.24 1285.32,-215.22"/>
<text xml:space="preserve" text-anchor="middle" x="987.25" y="-288.07" font-family="Times,serif" font-size="14.00">DDG: data</text>
</g>
<!-- 30064771338&#45;&gt;30064771339 -->
<g id="edge37" class="edge">
<title>30064771338&#45;&gt;30064771339</title>
<path fill="none" stroke="black" d="M629.88,-364.61C624.6,-359.54 619.82,-353.62 616.88,-347 613.41,-339.2 615.04,-330.91 618.82,-323.27"/>
<polygon fill="black" stroke="black" points="621.66,-325.33 623.97,-315 615.72,-321.63 621.66,-325.33"/>
<text xml:space="preserve" text-anchor="middle" x="647.25" y="-333.7" font-family="Times,serif" font-size="14.00">DDG: data</text>
</g>
<!-- 30064771338&#45;&gt;30064771339 -->
<g id="edge38" class="edge">
<title>30064771338&#45;&gt;30064771339</title>
<path fill="none" stroke="black" d="M671.89,-364.76C677.63,-354.77 681.96,-342.33 677.62,-331.25 676.44,-328.21 674.87,-325.28 673.05,-322.48"/>
<polygon fill="black" stroke="black" points="675.95,-320.51 667.07,-314.74 670.42,-324.8 675.95,-320.51"/>
<text xml:space="preserve" text-anchor="middle" x="767.14" y="-333.7" font-family="Times,serif" font-size="14.00">DDG: &quot;waitlisted_sections&quot;</text>
</g>
<!-- 30064771338&#45;&gt;30064771339 -->
<g id="edge39" class="edge">
<title>30064771338&#45;&gt;30064771339</title>
<path fill="none" stroke="black" d="M582.38,-364.74C574.94,-360.07 568.33,-354.25 563.38,-347 555.96,-336.15 560.74,-327.01 570.91,-319.54"/>
<polygon fill="black" stroke="black" points="572.54,-322.64 579.27,-314.45 568.9,-316.66 572.54,-322.64"/>
<text xml:space="preserve" text-anchor="middle" x="587" y="-333.7" font-family="Times,serif" font-size="14.00">DDG: []</text>
</g>
<!-- 30064771353 -->
<g id="node17" class="node">
<title>30064771353</title>
<polygon fill="none" stroke="black" points="1882.75,-874.75 1792.5,-874.75 1792.5,-838.75 1882.75,-838.75 1882.75,-874.75"/>
<text xml:space="preserve" text-anchor="middle" x="1837.62" y="-851.33" font-family="Times,serif" font-size="14.00">30064771353</text>
</g>
<!-- 30064771353&#45;&gt;68719476999 -->
<g id="edge16" class="edge">
<title>30064771353&#45;&gt;68719476999</title>
<path fill="none" stroke="black" d="M1830.98,-838.32C1826.77,-827.9 1820.94,-814.54 1814.62,-803.25 1813.07,-800.47 1811.39,-797.65 1809.64,-794.85"/>
<polygon fill="black" stroke="black" points="1812.73,-793.19 1804.34,-786.73 1806.87,-797.01 1812.73,-793.19"/>
<text xml:space="preserve" text-anchor="middle" x="1862.97" y="-805.7" font-family="Times,serif" font-size="14.00">DDG: Student</text>
</g>
<!-- 30064771354 -->
<g id="node18" class="node">
<title>30064771354</title>
<polygon fill="none" stroke="black" points="1774.75,-874.75 1684.5,-874.75 1684.5,-838.75 1774.75,-838.75 1774.75,-874.75"/>
<text xml:space="preserve" text-anchor="middle" x="1729.62" y="-851.33" font-family="Times,serif" font-size="14.00">30064771354</text>
</g>
<!-- 30064771354&#45;&gt;68719476999 -->
<g id="edge17" class="edge">
<title>30064771354&#45;&gt;68719476999</title>
<path fill="none" stroke="black" d="M1726.02,-838.39C1724.66,-827.75 1724.5,-814.13 1729.62,-803.25 1731.11,-800.11 1732.93,-797.11 1735,-794.26"/>
<polygon fill="black" stroke="black" points="1737.5,-796.72 1741.35,-786.85 1732.19,-792.16 1737.5,-796.72"/>
<text xml:space="preserve" text-anchor="middle" x="1770.12" y="-805.7" font-family="Times,serif" font-size="14.00">DDG: Student</text>
</g>
</g>
</svg>
