<?xml version="1.0" encoding="UTF-8" standalone="no"?>
<!DOCTYPE svg PUBLIC "-//W3C//DTD SVG 1.1//EN"
 "http://www.w3.org/Graphics/SVG/1.1/DTD/svg11.dtd">
<!-- Generated by graphviz version 13.1.2 (20250809.0930)
 -->
<!-- Title: print_all_sections&lt;metaClassAdapter&gt; Pages: 1 -->
<svg width="708pt" height="436pt"
 viewBox="0.00 0.00 708.00 436.00" xmlns="http://www.w3.org/2000/svg" xmlns:xlink="http://www.w3.org/1999/xlink">
<g id="graph0" class="graph" transform="scale(1 1) rotate(0) translate(4 432.25)">
<title>print_all_sections&lt;metaClassAdapter&gt;</title>
<polygon fill="white" stroke="none" points="-4,4 -4,-432.25 703.75,-432.25 703.75,4 -4,4"/>
<!-- 107374182520 -->
<g id="node1" class="node">
<title>107374182520</title>
<polygon fill="none" stroke="black" points="348.62,-428.25 89.62,-428.25 89.62,-388.75 348.62,-388.75 348.62,-428.25"/>
<text xml:space="preserve" text-anchor="start" x="178.62" y="-410.95" font-family="Times,serif" font-size="14.00">METHOD, 1141</text>
<text xml:space="preserve" text-anchor="start" x="97.62" y="-395.2" font-family="Times,serif" font-size="14.00">print_all_sections&lt;metaClassAdapter&gt;</text>
</g>
<!-- 111669149940 -->
<g id="node3" class="node">
<title>111669149940</title>
<polygon fill="none" stroke="black" points="90.25,-279.5 0,-279.5 0,-240 90.25,-240 90.25,-279.5"/>
<text xml:space="preserve" text-anchor="start" x="8" y="-262.2" font-family="Times,serif" font-size="14.00">PARAM, 1141</text>
<text xml:space="preserve" text-anchor="start" x="35" y="-246.45" font-family="Times,serif" font-size="14.00">cls</text>
</g>
<!-- 107374182520&#45;&gt;111669149940 -->
<g id="edge5" class="edge">
<title>107374182520&#45;&gt;111669149940</title>
<path fill="none" stroke="black" d="M196.38,-388.32C165.77,-362.5 111.18,-316.46 76.63,-287.32"/>
<polygon fill="black" stroke="black" points="78.94,-284.69 69.04,-280.92 74.42,-290.04 78.94,-284.69"/>
<text xml:space="preserve" text-anchor="middle" x="191.99" y="-357.45" font-family="Times,serif" font-size="14.00">DDG: </text>
</g>
<!-- 111669149941 -->
<g id="node4" class="node">
<title>111669149941</title>
<polygon fill="none" stroke="black" points="264.25,-337 174,-337 174,-297.5 264.25,-297.5 264.25,-337"/>
<text xml:space="preserve" text-anchor="start" x="182" y="-319.7" font-family="Times,serif" font-size="14.00">PARAM, 1141</text>
<text xml:space="preserve" text-anchor="start" x="205.62" y="-303.95" font-family="Times,serif" font-size="14.00">self</text>
</g>
<!-- 107374182520&#45;&gt;111669149941 -->
<g id="edge6" class="edge">
<title>107374182520&#45;&gt;111669149941</title>
<path fill="none" stroke="black" d="M219.12,-388.57C219.12,-377.05 219.12,-362.07 219.12,-348.9"/>
<polygon fill="black" stroke="black" points="222.63,-348.97 219.13,-338.97 215.63,-348.97 222.63,-348.97"/>
<text xml:space="preserve" text-anchor="middle" x="236" y="-357.45" font-family="Times,serif" font-size="14.00">DDG: </text>
</g>
<!-- 30064773401 -->
<g id="node6" class="node">
<title>30064773401</title>
<polygon fill="none" stroke="black" points="561.25,-222 39,-222 39,-182.5 561.25,-182.5 561.25,-222"/>
<text xml:space="preserve" text-anchor="start" x="47" y="-204.7" font-family="Times,serif" font-size="14.00">AI_generated_code_1.py:&lt;module&gt;.RegistrationSystem.print_all_sections, 1141</text>
<text xml:space="preserve" text-anchor="start" x="219.12" y="-188.95" font-family="Times,serif" font-size="14.00">print_all_sections(self)</text>
</g>
<!-- 107374182520&#45;&gt;30064773401 -->
<g id="edge9" class="edge">
<title>107374182520&#45;&gt;30064773401</title>
<path fill="none" stroke="black" d="M241.45,-388.51C246.99,-383.12 252.63,-377.01 257.12,-370.75 286.77,-329.44 296.01,-269.48 298.87,-233.63"/>
<polygon fill="black" stroke="black" points="302.34,-234.18 299.51,-223.96 295.36,-233.71 302.34,-234.18"/>
<text xml:space="preserve" text-anchor="middle" x="305.06" y="-311.82" font-family="Times,serif" font-size="14.00">DDG: </text>
</g>
<!-- 124554051704 -->
<g id="node2" class="node">
<title>124554051704</title>
<polygon fill="none" stroke="black" points="284.25,-39.5 140,-39.5 140,0 284.25,0 284.25,-39.5"/>
<text xml:space="preserve" text-anchor="start" x="148" y="-22.2" font-family="Times,serif" font-size="14.00">METHOD_RETURN, 1141</text>
<text xml:space="preserve" text-anchor="start" x="202" y="-6.45" font-family="Times,serif" font-size="14.00">ANY</text>
</g>
<!-- 111669149940&#45;&gt;124554051704 -->
<g id="edge2" class="edge">
<title>111669149940&#45;&gt;124554051704</title>
<path fill="none" stroke="black" d="M35.14,-239.53C28.32,-223.66 21.89,-200.84 30.12,-182.5 57.9,-120.66 122.3,-72.82 166.54,-45.71"/>
<polygon fill="black" stroke="black" points="168.13,-48.84 174.9,-40.7 164.53,-42.83 168.13,-48.84"/>
<text xml:space="preserve" text-anchor="middle" x="76.37" y="-151.2" font-family="Times,serif" font-size="14.00">DDG: cls</text>
</g>
<!-- 111669149941&#45;&gt;30064773401 -->
<g id="edge8" class="edge">
<title>111669149941&#45;&gt;30064773401</title>
<path fill="none" stroke="black" d="M215.79,-297.31C213.94,-280.75 213.94,-256.8 225.38,-240 228.12,-235.97 231.44,-232.36 235.14,-229.13"/>
<polygon fill="black" stroke="black" points="237.21,-231.96 243.14,-223.18 233.03,-226.34 237.21,-231.96"/>
<text xml:space="preserve" text-anchor="middle" x="255.75" y="-254.32" font-family="Times,serif" font-size="14.00">DDG: self</text>
</g>
<!-- 141733920934 -->
<g id="node5" class="node">
<title>141733920934</title>
<polygon fill="none" stroke="black" points="699.75,-130.75 474.5,-130.75 474.5,-91.25 699.75,-91.25 699.75,-130.75"/>
<text xml:space="preserve" text-anchor="start" x="546.62" y="-113.45" font-family="Times,serif" font-size="14.00">RETURN, 1141</text>
<text xml:space="preserve" text-anchor="start" x="482.5" y="-97.7" font-family="Times,serif" font-size="14.00">return print_all_sections(self)</text>
</g>
<!-- 141733920934&#45;&gt;124554051704 -->
<g id="edge1" class="edge">
<title>141733920934&#45;&gt;124554051704</title>
<path fill="none" stroke="black" d="M506.68,-90.85C444.45,-76.04 358.57,-55.6 295.6,-40.62"/>
<polygon fill="black" stroke="black" points="296.52,-37.24 285.98,-38.33 294.9,-44.05 296.52,-37.24"/>
<text xml:space="preserve" text-anchor="middle" x="455.83" y="-59.95" font-family="Times,serif" font-size="14.00">DDG: &lt;RET&gt;</text>
</g>
<!-- 30064773401&#45;&gt;124554051704 -->
<g id="edge3" class="edge">
<title>30064773401&#45;&gt;124554051704</title>
<path fill="none" stroke="black" d="M241.18,-182.07C217.27,-171.05 192.1,-154.56 178.38,-130.75 163.6,-105.12 177.21,-72.34 191.31,-49.25"/>
<polygon fill="black" stroke="black" points="194.18,-51.25 196.69,-40.96 188.31,-47.44 194.18,-51.25"/>
<text xml:space="preserve" text-anchor="middle" x="208.75" y="-105.58" font-family="Times,serif" font-size="14.00">DDG: self</text>
</g>
<!-- 30064773401&#45;&gt;124554051704 -->
<g id="edge4" class="edge">
<title>30064773401&#45;&gt;124554051704</title>
<path fill="none" stroke="black" d="M290.87,-182.27C275.49,-150.72 244.55,-87.26 226.37,-49.97"/>
<polygon fill="black" stroke="black" points="229.58,-48.56 222.05,-41.1 223.28,-51.63 229.58,-48.56"/>
<text xml:space="preserve" text-anchor="middle" x="362.75" y="-105.58" font-family="Times,serif" font-size="14.00">DDG: print_all_sections(self)</text>
</g>
<!-- 30064773401&#45;&gt;141733920934 -->
<g id="edge7" class="edge">
<title>30064773401&#45;&gt;141733920934</title>
<path fill="none" stroke="black" d="M361.69,-182.1C406.62,-168.13 467.65,-149.15 514.89,-134.46"/>
<polygon fill="black" stroke="black" points="515.7,-137.88 524.21,-131.56 513.62,-131.19 515.7,-137.88"/>
<text xml:space="preserve" text-anchor="middle" x="558.68" y="-151.2" font-family="Times,serif" font-size="14.00">DDG: print_all_sections(self)</text>
</g>
</g>
</svg>
