<?xml version="1.0" encoding="UTF-8" standalone="no"?>
<!DOCTYPE svg PUBLIC "-//W3C//DTD SVG 1.1//EN"
 "http://www.w3.org/Graphics/SVG/1.1/DTD/svg11.dtd">
<!-- Generated by graphviz version 13.1.2 (20250809.0930)
 -->
<!-- Title: promote_waitlist&lt;metaClassAdapter&gt; Pages: 1 -->
<svg width="875pt" height="436pt"
 viewBox="0.00 0.00 875.00 436.00" xmlns="http://www.w3.org/2000/svg" xmlns:xlink="http://www.w3.org/1999/xlink">
<g id="graph0" class="graph" transform="scale(1 1) rotate(0) translate(4 432.25)">
<title>promote_waitlist&lt;metaClassAdapter&gt;</title>
<polygon fill="white" stroke="none" points="-4,4 -4,-432.25 871.12,-432.25 871.12,4 -4,4"/>
<!-- 107374182522 -->
<g id="node1" class="node">
<title>107374182522</title>
<polygon fill="none" stroke="black" points="302.5,-428.25 57,-428.25 57,-388.75 302.5,-388.75 302.5,-428.25"/>
<text xml:space="preserve" text-anchor="start" x="142.62" y="-410.95" font-family="Times,serif" font-size="14.00">METHOD, 750</text>
<text xml:space="preserve" text-anchor="start" x="65" y="-395.2" font-family="Times,serif" font-size="14.00">promote_waitlist&lt;metaClassAdapter&gt;</text>
</g>
<!-- 111669149944 -->
<g id="node3" class="node">
<title>111669149944</title>
<polygon fill="none" stroke="black" points="83.5,-279.5 0,-279.5 0,-240 83.5,-240 83.5,-279.5"/>
<text xml:space="preserve" text-anchor="start" x="8" y="-262.2" font-family="Times,serif" font-size="14.00">PARAM, 750</text>
<text xml:space="preserve" text-anchor="start" x="31.62" y="-246.45" font-family="Times,serif" font-size="14.00">cls</text>
</g>
<!-- 107374182522&#45;&gt;111669149944 -->
<g id="edge6" class="edge">
<title>107374182522&#45;&gt;111669149944</title>
<path fill="none" stroke="black" d="M130.84,-388.26C107.89,-376.77 82.24,-359.88 66.75,-337 57.45,-323.25 51.39,-305.79 47.57,-291.04"/>
<polygon fill="black" stroke="black" points="51,-290.33 45.31,-281.39 44.18,-291.93 51,-290.33"/>
<text xml:space="preserve" text-anchor="middle" x="116.32" y="-357.45" font-family="Times,serif" font-size="14.00">DDG: </text>
</g>
<!-- 111669149945 -->
<g id="node4" class="node">
<title>111669149945</title>
<polygon fill="none" stroke="black" points="159.5,-337 76,-337 76,-297.5 159.5,-297.5 159.5,-337"/>
<text xml:space="preserve" text-anchor="start" x="84" y="-319.7" font-family="Times,serif" font-size="14.00">PARAM, 750</text>
<text xml:space="preserve" text-anchor="start" x="104.25" y="-303.95" font-family="Times,serif" font-size="14.00">self</text>
</g>
<!-- 107374182522&#45;&gt;111669149945 -->
<g id="edge7" class="edge">
<title>107374182522&#45;&gt;111669149945</title>
<path fill="none" stroke="black" d="M166.6,-388.57C158.19,-376.47 147.12,-360.53 137.65,-346.9"/>
<polygon fill="black" stroke="black" points="140.54,-344.92 131.96,-338.7 134.79,-348.91 140.54,-344.92"/>
<text xml:space="preserve" text-anchor="middle" x="169.34" y="-357.45" font-family="Times,serif" font-size="14.00">DDG: </text>
</g>
<!-- 111669149946 -->
<g id="node5" class="node">
<title>111669149946</title>
<polygon fill="none" stroke="black" points="261.5,-337 178,-337 178,-297.5 261.5,-297.5 261.5,-337"/>
<text xml:space="preserve" text-anchor="start" x="186" y="-319.7" font-family="Times,serif" font-size="14.00">PARAM, 750</text>
<text xml:space="preserve" text-anchor="start" x="186" y="-303.95" font-family="Times,serif" font-size="14.00">section_id</text>
</g>
<!-- 107374182522&#45;&gt;111669149946 -->
<g id="edge8" class="edge">
<title>107374182522&#45;&gt;111669149946</title>
<path fill="none" stroke="black" d="M188.23,-388.57C193.55,-376.7 200.52,-361.15 206.55,-347.69"/>
<polygon fill="black" stroke="black" points="209.63,-349.4 210.52,-338.84 203.24,-346.53 209.63,-349.4"/>
<text xml:space="preserve" text-anchor="middle" x="219.02" y="-357.45" font-family="Times,serif" font-size="14.00">DDG: </text>
</g>
<!-- 30064773403 -->
<g id="node7" class="node">
<title>30064773403</title>
<polygon fill="none" stroke="black" points="519.75,-222 17.75,-222 17.75,-182.5 519.75,-182.5 519.75,-222"/>
<text xml:space="preserve" text-anchor="start" x="25.75" y="-204.7" font-family="Times,serif" font-size="14.00">AI_generated_code_1.py:&lt;module&gt;.RegistrationSystem.promote_waitlist, 750</text>
<text xml:space="preserve" text-anchor="start" x="154" y="-188.95" font-family="Times,serif" font-size="14.00">promote_waitlist(self, section_id)</text>
</g>
<!-- 107374182522&#45;&gt;30064773403 -->
<g id="edge11" class="edge">
<title>107374182522&#45;&gt;30064773403</title>
<path fill="none" stroke="black" d="M214.82,-388.27C223.3,-383.03 232.11,-377.04 239.75,-370.75 279.85,-337.74 296.64,-328.87 312.75,-279.5 318.2,-262.81 320.19,-255.9 312.75,-240 311.19,-236.66 309.16,-233.53 306.83,-230.6"/>
<polygon fill="black" stroke="black" points="309.57,-228.4 300.16,-223.55 304.49,-233.21 309.57,-228.4"/>
<text xml:space="preserve" text-anchor="middle" x="322.53" y="-311.82" font-family="Times,serif" font-size="14.00">DDG: </text>
</g>
<!-- 124554051706 -->
<g id="node2" class="node">
<title>124554051706</title>
<polygon fill="none" stroke="black" points="224.5,-39.5 87,-39.5 87,0 224.5,0 224.5,-39.5"/>
<text xml:space="preserve" text-anchor="start" x="95" y="-22.2" font-family="Times,serif" font-size="14.00">METHOD_RETURN, 750</text>
<text xml:space="preserve" text-anchor="start" x="111.88" y="-6.45" font-family="Times,serif" font-size="14.00">__builtin.str</text>
</g>
<!-- 111669149944&#45;&gt;124554051706 -->
<g id="edge2" class="edge">
<title>111669149944&#45;&gt;124554051706</title>
<path fill="none" stroke="black" d="M19.88,-239.61C15.35,-234.4 11.2,-228.41 8.75,-222 2.47,-205.61 4.16,-199.45 8.75,-182.5 25.56,-120.4 34.75,-101.43 81.75,-57.5 86.45,-53.11 91.77,-49.13 97.36,-45.55"/>
<polygon fill="black" stroke="black" points="98.8,-48.76 105.64,-40.67 95.24,-42.73 98.8,-48.76"/>
<text xml:space="preserve" text-anchor="middle" x="45.28" y="-151.2" font-family="Times,serif" font-size="14.00">DDG: cls</text>
</g>
<!-- 111669149945&#45;&gt;30064773403 -->
<g id="edge10" class="edge">
<title>111669149945&#45;&gt;30064773403</title>
<path fill="none" stroke="black" d="M118.61,-297.04C120.41,-279.83 125.71,-255.05 141,-240 145.64,-235.44 150.8,-231.43 156.32,-227.92"/>
<polygon fill="black" stroke="black" points="157.64,-231.2 164.6,-223.21 154.18,-225.11 157.64,-231.2"/>
<text xml:space="preserve" text-anchor="middle" x="171.38" y="-254.32" font-family="Times,serif" font-size="14.00">DDG: self</text>
</g>
<!-- 111669149946&#45;&gt;30064773403 -->
<g id="edge12" class="edge">
<title>111669149946&#45;&gt;30064773403</title>
<path fill="none" stroke="black" d="M211.86,-297.19C206.46,-281 201.86,-257.64 211.5,-240 213.52,-236.31 216.08,-232.94 218.99,-229.86"/>
<polygon fill="black" stroke="black" points="221.11,-232.66 226.28,-223.41 216.47,-227.42 221.11,-232.66"/>
<text xml:space="preserve" text-anchor="middle" x="262.12" y="-254.32" font-family="Times,serif" font-size="14.00">DDG: section_id</text>
</g>
<!-- 141733920936 -->
<g id="node6" class="node">
<title>141733920936</title>
<polygon fill="none" stroke="black" points="867.12,-130.75 574.38,-130.75 574.38,-91.25 867.12,-91.25 867.12,-130.75"/>
<text xml:space="preserve" text-anchor="start" x="683.62" y="-113.45" font-family="Times,serif" font-size="14.00">RETURN, 750</text>
<text xml:space="preserve" text-anchor="start" x="582.38" y="-97.7" font-family="Times,serif" font-size="14.00">return promote_waitlist(self, section_id)</text>
</g>
<!-- 141733920936&#45;&gt;124554051706 -->
<g id="edge1" class="edge">
<title>141733920936&#45;&gt;124554051706</title>
<path fill="none" stroke="black" d="M599.2,-90.8C489.34,-73.44 330.75,-48.39 235.99,-33.42"/>
<polygon fill="black" stroke="black" points="236.68,-29.99 226.25,-31.89 235.58,-36.9 236.68,-29.99"/>
<text xml:space="preserve" text-anchor="middle" x="505.83" y="-59.95" font-family="Times,serif" font-size="14.00">DDG: &lt;RET&gt;</text>
</g>
<!-- 30064773403&#45;&gt;124554051706 -->
<g id="edge3" class="edge">
<title>30064773403&#45;&gt;124554051706</title>
<path fill="none" stroke="black" d="M140.58,-182.07C113.44,-171.56 88.38,-155.43 73,-130.75 54.18,-100.55 85.24,-68.27 114.53,-46.55"/>
<polygon fill="black" stroke="black" points="116.55,-49.4 122.68,-40.76 112.5,-43.7 116.55,-49.4"/>
<text xml:space="preserve" text-anchor="middle" x="103.38" y="-105.58" font-family="Times,serif" font-size="14.00">DDG: self</text>
</g>
<!-- 30064773403&#45;&gt;124554051706 -->
<g id="edge4" class="edge">
<title>30064773403&#45;&gt;124554051706</title>
<path fill="none" stroke="black" d="M227.02,-182C206.27,-170.21 182.84,-153.06 169.5,-130.75 155.12,-106.69 152.65,-74.41 153.19,-51.05"/>
<polygon fill="black" stroke="black" points="156.68,-51.39 153.64,-41.25 149.69,-51.08 156.68,-51.39"/>
<text xml:space="preserve" text-anchor="middle" x="220.12" y="-105.58" font-family="Times,serif" font-size="14.00">DDG: section_id</text>
</g>
<!-- 30064773403&#45;&gt;124554051706 -->
<g id="edge5" class="edge">
<title>30064773403&#45;&gt;124554051706</title>
<path fill="none" stroke="black" d="M274.54,-182.35C280.45,-159.25 286.71,-119.75 270.75,-91.25 259.49,-71.15 239.91,-56.08 220.05,-45.16"/>
<polygon fill="black" stroke="black" points="221.84,-42.14 211.35,-40.66 218.63,-48.36 221.84,-42.14"/>
<text xml:space="preserve" text-anchor="middle" x="412.38" y="-105.58" font-family="Times,serif" font-size="14.00">DDG: promote_waitlist(self, section_id)</text>
</g>
<!-- 30064773403&#45;&gt;141733920936 -->
<g id="edge9" class="edge">
<title>30064773403&#45;&gt;141733920936</title>
<path fill="none" stroke="black" d="M365.99,-182.05C438.45,-167.74 537.41,-148.2 612.4,-133.39"/>
<polygon fill="black" stroke="black" points="612.67,-136.91 621.8,-131.54 611.31,-130.04 612.67,-136.91"/>
<text xml:space="preserve" text-anchor="middle" x="653.44" y="-151.2" font-family="Times,serif" font-size="14.00">DDG: promote_waitlist(self, section_id)</text>
</g>
</g>
</svg>
