<?xml version="1.0" encoding="UTF-8" standalone="no"?>
<!DOCTYPE svg PUBLIC "-//W3C//DTD SVG 1.1//EN"
 "http://www.w3.org/Graphics/SVG/1.1/DTD/svg11.dtd">
<!-- Generated by graphviz version 13.1.2 (20250809.0930)
 -->
<!-- Title: record_completed_course&lt;metaClassAdapter&gt; Pages: 1 -->
<svg width="1260pt" height="436pt"
 viewBox="0.00 0.00 1260.00 436.00" xmlns="http://www.w3.org/2000/svg" xmlns:xlink="http://www.w3.org/1999/xlink">
<g id="graph0" class="graph" transform="scale(1 1) rotate(0) translate(4 432.25)">
<title>record_completed_course&lt;metaClassAdapter&gt;</title>
<polygon fill="white" stroke="none" points="-4,4 -4,-432.25 1255.5,-432.25 1255.5,4 -4,4"/>
<!-- 107374182523 -->
<g id="node1" class="node">
<title>107374182523</title>
<polygon fill="none" stroke="black" points="378.12,-428.25 85.38,-428.25 85.38,-388.75 378.12,-388.75 378.12,-428.25"/>
<text xml:space="preserve" text-anchor="start" x="194.62" y="-410.95" font-family="Times,serif" font-size="14.00">METHOD, 870</text>
<text xml:space="preserve" text-anchor="start" x="93.38" y="-395.2" font-family="Times,serif" font-size="14.00">record_completed_course&lt;metaClassAdapter&gt;</text>
</g>
<!-- 111669149947 -->
<g id="node3" class="node">
<title>111669149947</title>
<polygon fill="none" stroke="black" points="83.5,-279.5 0,-279.5 0,-240 83.5,-240 83.5,-279.5"/>
<text xml:space="preserve" text-anchor="start" x="8" y="-262.2" font-family="Times,serif" font-size="14.00">PARAM, 870</text>
<text xml:space="preserve" text-anchor="start" x="31.62" y="-246.45" font-family="Times,serif" font-size="14.00">cls</text>
</g>
<!-- 107374182523&#45;&gt;111669149947 -->
<g id="edge7" class="edge">
<title>107374182523&#45;&gt;111669149947</title>
<path fill="none" stroke="black" d="M161.76,-388.31C132.83,-377.34 100.95,-360.89 78.75,-337 66.42,-323.73 57.39,-305.59 51.34,-290.33"/>
<polygon fill="black" stroke="black" points="54.74,-289.42 47.98,-281.26 48.17,-291.85 54.74,-289.42"/>
<text xml:space="preserve" text-anchor="middle" x="139.6" y="-357.45" font-family="Times,serif" font-size="14.00">DDG: </text>
</g>
<!-- 111669149948 -->
<g id="node4" class="node">
<title>111669149948</title>
<polygon fill="none" stroke="black" points="171.5,-337 88,-337 88,-297.5 171.5,-297.5 171.5,-337"/>
<text xml:space="preserve" text-anchor="start" x="96" y="-319.7" font-family="Times,serif" font-size="14.00">PARAM, 870</text>
<text xml:space="preserve" text-anchor="start" x="116.25" y="-303.95" font-family="Times,serif" font-size="14.00">self</text>
</g>
<!-- 107374182523&#45;&gt;111669149948 -->
<g id="edge8" class="edge">
<title>107374182523&#45;&gt;111669149948</title>
<path fill="none" stroke="black" d="M209.87,-388.35C195.35,-375.65 176.09,-358.8 160.1,-344.8"/>
<polygon fill="black" stroke="black" points="162.56,-342.31 152.73,-338.36 157.96,-347.58 162.56,-342.31"/>
<text xml:space="preserve" text-anchor="middle" x="203.73" y="-357.45" font-family="Times,serif" font-size="14.00">DDG: </text>
</g>
<!-- 111669149949 -->
<g id="node5" class="node">
<title>111669149949</title>
<polygon fill="none" stroke="black" points="273.5,-337 190,-337 190,-297.5 273.5,-297.5 273.5,-337"/>
<text xml:space="preserve" text-anchor="start" x="198" y="-319.7" font-family="Times,serif" font-size="14.00">PARAM, 870</text>
<text xml:space="preserve" text-anchor="start" x="198" y="-303.95" font-family="Times,serif" font-size="14.00">student_id</text>
</g>
<!-- 107374182523&#45;&gt;111669149949 -->
<g id="edge9" class="edge">
<title>107374182523&#45;&gt;111669149949</title>
<path fill="none" stroke="black" d="M231.75,-388.57C231.75,-377.05 231.75,-362.07 231.75,-348.9"/>
<polygon fill="black" stroke="black" points="235.25,-348.97 231.75,-338.97 228.25,-348.97 235.25,-348.97"/>
<text xml:space="preserve" text-anchor="middle" x="248.62" y="-357.45" font-family="Times,serif" font-size="14.00">DDG: </text>
</g>
<!-- 111669149950 -->
<g id="node6" class="node">
<title>111669149950</title>
<polygon fill="none" stroke="black" points="382.88,-337 292.62,-337 292.62,-297.5 382.88,-297.5 382.88,-337"/>
<text xml:space="preserve" text-anchor="start" x="304" y="-319.7" font-family="Times,serif" font-size="14.00">PARAM, 870</text>
<text xml:space="preserve" text-anchor="start" x="300.62" y="-303.95" font-family="Times,serif" font-size="14.00">course_code</text>
</g>
<!-- 107374182523&#45;&gt;111669149950 -->
<g id="edge10" class="edge">
<title>107374182523&#45;&gt;111669149950</title>
<path fill="none" stroke="black" d="M254.49,-388.35C269.72,-375.53 289.96,-358.49 306.68,-344.41"/>
<polygon fill="black" stroke="black" points="308.49,-347.46 313.89,-338.34 303.99,-342.1 308.49,-347.46"/>
<text xml:space="preserve" text-anchor="middle" x="307.97" y="-357.45" font-family="Times,serif" font-size="14.00">DDG: </text>
</g>
<!-- 30064773404 -->
<g id="node8" class="node">
<title>30064773404</title>
<polygon fill="none" stroke="black" points="612.38,-222 63.12,-222 63.12,-182.5 612.38,-182.5 612.38,-222"/>
<text xml:space="preserve" text-anchor="start" x="71.12" y="-204.7" font-family="Times,serif" font-size="14.00">AI_generated_code_1.py:&lt;module&gt;.RegistrationSystem.record_completed_course, 870</text>
<text xml:space="preserve" text-anchor="start" x="169" y="-188.95" font-family="Times,serif" font-size="14.00">record_completed_course(self, student_id, cours...</text>
</g>
<!-- 107374182523&#45;&gt;30064773404 -->
<g id="edge13" class="edge">
<title>107374182523&#45;&gt;30064773404</title>
<path fill="none" stroke="black" d="M307.19,-388.3C359.47,-370.22 423.66,-337.05 446.75,-279.5 453.29,-263.21 456.99,-254.26 446.75,-240 443.87,-235.99 440.52,-232.4 436.83,-229.21"/>
<polygon fill="black" stroke="black" points="438.99,-226.45 428.87,-223.33 434.84,-232.09 438.99,-226.45"/>
<text xml:space="preserve" text-anchor="middle" x="453.67" y="-311.82" font-family="Times,serif" font-size="14.00">DDG: </text>
</g>
<!-- 124554051707 -->
<g id="node2" class="node">
<title>124554051707</title>
<polygon fill="none" stroke="black" points="337.5,-39.5 200,-39.5 200,0 337.5,0 337.5,-39.5"/>
<text xml:space="preserve" text-anchor="start" x="208" y="-22.2" font-family="Times,serif" font-size="14.00">METHOD_RETURN, 870</text>
<text xml:space="preserve" text-anchor="start" x="228.25" y="-6.45" font-family="Times,serif" font-size="14.00">typing.Tuple</text>
</g>
<!-- 111669149947&#45;&gt;124554051707 -->
<g id="edge2" class="edge">
<title>111669149947&#45;&gt;124554051707</title>
<path fill="none" stroke="black" d="M42.75,-239.77C44.04,-224.04 46.99,-201.29 53.75,-182.5 75.91,-120.88 77.98,-94.87 131.75,-57.5 148.56,-45.82 168.89,-37.85 188.69,-32.41"/>
<polygon fill="black" stroke="black" points="189.31,-35.87 198.14,-30.02 187.59,-29.08 189.31,-35.87"/>
<text xml:space="preserve" text-anchor="middle" x="92.21" y="-151.2" font-family="Times,serif" font-size="14.00">DDG: cls</text>
</g>
<!-- 111669149948&#45;&gt;30064773404 -->
<g id="edge12" class="edge">
<title>111669149948&#45;&gt;30064773404</title>
<path fill="none" stroke="black" d="M131.87,-297.32C134.87,-279.82 142.03,-254.4 159,-240 165.56,-234.43 177.38,-229.57 191.94,-225.37"/>
<polygon fill="black" stroke="black" points="192.77,-228.78 201.53,-222.82 190.96,-222.01 192.77,-228.78"/>
<text xml:space="preserve" text-anchor="middle" x="189.38" y="-254.32" font-family="Times,serif" font-size="14.00">DDG: self</text>
</g>
<!-- 111669149949&#45;&gt;30064773404 -->
<g id="edge14" class="edge">
<title>111669149949&#45;&gt;30064773404</title>
<path fill="none" stroke="black" d="M226.28,-297.14C222.73,-280.48 220.69,-256.46 232.5,-240 235.5,-235.82 239.01,-232.11 242.9,-228.82"/>
<polygon fill="black" stroke="black" points="244.68,-231.85 250.72,-223.15 240.57,-226.18 244.68,-231.85"/>
<text xml:space="preserve" text-anchor="middle" x="283.12" y="-254.32" font-family="Times,serif" font-size="14.00">DDG: student_id</text>
</g>
<!-- 111669149950&#45;&gt;30064773404 -->
<g id="edge15" class="edge">
<title>111669149950&#45;&gt;30064773404</title>
<path fill="none" stroke="black" d="M337.75,-297.08C337.75,-279.69 337.75,-253.75 337.75,-233.55"/>
<polygon fill="black" stroke="black" points="341.25,-233.65 337.75,-223.65 334.25,-233.65 341.25,-233.65"/>
<text xml:space="preserve" text-anchor="middle" x="391.75" y="-254.32" font-family="Times,serif" font-size="14.00">DDG: course_code</text>
</g>
<!-- 141733920937 -->
<g id="node7" class="node">
<title>141733920937</title>
<polygon fill="none" stroke="black" points="1251.5,-130.75 898,-130.75 898,-91.25 1251.5,-91.25 1251.5,-130.75"/>
<text xml:space="preserve" text-anchor="start" x="1037.62" y="-113.45" font-family="Times,serif" font-size="14.00">RETURN, 870</text>
<text xml:space="preserve" text-anchor="start" x="906" y="-97.7" font-family="Times,serif" font-size="14.00">return record_completed_course(self, student_id...</text>
</g>
<!-- 141733920937&#45;&gt;124554051707 -->
<g id="edge1" class="edge">
<title>141733920937&#45;&gt;124554051707</title>
<path fill="none" stroke="black" d="M901.35,-90.8C730.46,-71.88 476.92,-43.8 348.91,-29.63"/>
<polygon fill="black" stroke="black" points="349.49,-26.17 339.17,-28.55 348.72,-33.13 349.49,-26.17"/>
<text xml:space="preserve" text-anchor="middle" x="753.76" y="-59.95" font-family="Times,serif" font-size="14.00">DDG: &lt;RET&gt;</text>
</g>
<!-- 30064773404&#45;&gt;124554051707 -->
<g id="edge3" class="edge">
<title>30064773404&#45;&gt;124554051707</title>
<path fill="none" stroke="black" d="M236.84,-182.04C185.64,-169.86 131.45,-152.34 118,-130.75 93.82,-91.94 142.13,-62.49 190.34,-43.87"/>
<polygon fill="black" stroke="black" points="191.34,-47.23 199.5,-40.47 188.91,-40.67 191.34,-47.23"/>
<text xml:space="preserve" text-anchor="middle" x="148.38" y="-105.58" font-family="Times,serif" font-size="14.00">DDG: self</text>
</g>
<!-- 30064773404&#45;&gt;124554051707 -->
<g id="edge4" class="edge">
<title>30064773404&#45;&gt;124554051707</title>
<path fill="none" stroke="black" d="M277.78,-182.09C253.67,-171.11 228.35,-154.63 214.5,-130.75 198.58,-103.31 219.56,-70.56 239.88,-47.97"/>
<polygon fill="black" stroke="black" points="242.2,-50.61 246.52,-40.94 237.11,-45.8 242.2,-50.61"/>
<text xml:space="preserve" text-anchor="middle" x="265.12" y="-105.58" font-family="Times,serif" font-size="14.00">DDG: student_id</text>
</g>
<!-- 30064773404&#45;&gt;124554051707 -->
<g id="edge5" class="edge">
<title>30064773404&#45;&gt;124554051707</title>
<path fill="none" stroke="black" d="M336.22,-182.31C333.9,-159.86 328.35,-121.66 315.75,-91.25 309.62,-76.45 300.2,-61.49 291.4,-49.17"/>
<polygon fill="black" stroke="black" points="294.21,-47.09 285.45,-41.14 288.59,-51.26 294.21,-47.09"/>
<text xml:space="preserve" text-anchor="middle" x="381.82" y="-105.58" font-family="Times,serif" font-size="14.00">DDG: course_code</text>
</g>
<!-- 30064773404&#45;&gt;124554051707 -->
<g id="edge6" class="edge">
<title>30064773404&#45;&gt;124554051707</title>
<path fill="none" stroke="black" d="M378.05,-182.02C415.85,-161.26 463.29,-126.42 439.75,-91.25 419.28,-60.67 382.87,-43.34 348.89,-33.53"/>
<polygon fill="black" stroke="black" points="350,-30.2 339.43,-30.99 348.19,-36.96 350,-30.2"/>
<text xml:space="preserve" text-anchor="middle" x="645.15" y="-105.58" font-family="Times,serif" font-size="14.00">DDG: record_completed_course(self, student_id, course_code)</text>
</g>
<!-- 30064773404&#45;&gt;141733920937 -->
<g id="edge11" class="edge">
<title>30064773404&#45;&gt;141733920937</title>
<path fill="none" stroke="black" d="M496.31,-182.05C616.51,-167.49 781.44,-147.52 904.44,-132.62"/>
<polygon fill="black" stroke="black" points="904.82,-136.1 914.33,-131.43 903.98,-129.15 904.82,-136.1"/>
<text xml:space="preserve" text-anchor="middle" x="949.5" y="-151.2" font-family="Times,serif" font-size="14.00">DDG: record_completed_course(self, student_id, course_code)</text>
</g>
</g>
</svg>
