<?xml version="1.0" encoding="UTF-8" standalone="no"?>
<!DOCTYPE svg PUBLIC "-//W3C//DTD SVG 1.1//EN"
 "http://www.w3.org/Graphics/SVG/1.1/DTD/svg11.dtd">
<!-- Generated by graphviz version 13.1.2 (20250809.0930)
 -->
<!-- Title: register_student&lt;metaClassAdapter&gt; Pages: 1 -->
<svg width="1193pt" height="436pt"
 viewBox="0.00 0.00 1193.00 436.00" xmlns="http://www.w3.org/2000/svg" xmlns:xlink="http://www.w3.org/1999/xlink">
<g id="graph0" class="graph" transform="scale(1 1) rotate(0) translate(4 432.25)">
<title>register_student&lt;metaClassAdapter&gt;</title>
<polygon fill="white" stroke="none" points="-4,4 -4,-432.25 1188.5,-432.25 1188.5,4 -4,4"/>
<!-- 107374182524 -->
<g id="node1" class="node">
<title>107374182524</title>
<polygon fill="none" stroke="black" points="336.5,-428.25 91,-428.25 91,-388.75 336.5,-388.75 336.5,-428.25"/>
<text xml:space="preserve" text-anchor="start" x="176.62" y="-410.95" font-family="Times,serif" font-size="14.00">METHOD, 680</text>
<text xml:space="preserve" text-anchor="start" x="99" y="-395.2" font-family="Times,serif" font-size="14.00">register_student&lt;metaClassAdapter&gt;</text>
</g>
<!-- 111669149951 -->
<g id="node3" class="node">
<title>111669149951</title>
<polygon fill="none" stroke="black" points="83.5,-279.5 0,-279.5 0,-240 83.5,-240 83.5,-279.5"/>
<text xml:space="preserve" text-anchor="start" x="8" y="-262.2" font-family="Times,serif" font-size="14.00">PARAM, 680</text>
<text xml:space="preserve" text-anchor="start" x="31.62" y="-246.45" font-family="Times,serif" font-size="14.00">cls</text>
</g>
<!-- 107374182524&#45;&gt;111669149951 -->
<g id="edge7" class="edge">
<title>107374182524&#45;&gt;111669149951</title>
<path fill="none" stroke="black" d="M135.72,-388.31C107.99,-377.66 79.12,-361.42 60.75,-337 50.85,-323.84 46.06,-306.13 43.77,-291.1"/>
<polygon fill="black" stroke="black" points="47.25,-290.76 42.59,-281.25 40.3,-291.59 47.25,-290.76"/>
<text xml:space="preserve" text-anchor="middle" x="113.55" y="-357.45" font-family="Times,serif" font-size="14.00">DDG: </text>
</g>
<!-- 111669149952 -->
<g id="node4" class="node">
<title>111669149952</title>
<polygon fill="none" stroke="black" points="153.5,-337 70,-337 70,-297.5 153.5,-297.5 153.5,-337"/>
<text xml:space="preserve" text-anchor="start" x="78" y="-319.7" font-family="Times,serif" font-size="14.00">PARAM, 680</text>
<text xml:space="preserve" text-anchor="start" x="98.25" y="-303.95" font-family="Times,serif" font-size="14.00">self</text>
</g>
<!-- 107374182524&#45;&gt;111669149952 -->
<g id="edge8" class="edge">
<title>107374182524&#45;&gt;111669149952</title>
<path fill="none" stroke="black" d="M191.87,-388.35C177.35,-375.65 158.09,-358.8 142.1,-344.8"/>
<polygon fill="black" stroke="black" points="144.56,-342.31 134.73,-338.36 139.96,-347.58 144.56,-342.31"/>
<text xml:space="preserve" text-anchor="middle" x="185.73" y="-357.45" font-family="Times,serif" font-size="14.00">DDG: </text>
</g>
<!-- 111669149953 -->
<g id="node5" class="node">
<title>111669149953</title>
<polygon fill="none" stroke="black" points="255.5,-337 172,-337 172,-297.5 255.5,-297.5 255.5,-337"/>
<text xml:space="preserve" text-anchor="start" x="180" y="-319.7" font-family="Times,serif" font-size="14.00">PARAM, 680</text>
<text xml:space="preserve" text-anchor="start" x="180" y="-303.95" font-family="Times,serif" font-size="14.00">student_id</text>
</g>
<!-- 107374182524&#45;&gt;111669149953 -->
<g id="edge9" class="edge">
<title>107374182524&#45;&gt;111669149953</title>
<path fill="none" stroke="black" d="M213.75,-388.57C213.75,-377.05 213.75,-362.07 213.75,-348.9"/>
<polygon fill="black" stroke="black" points="217.25,-348.97 213.75,-338.97 210.25,-348.97 217.25,-348.97"/>
<text xml:space="preserve" text-anchor="middle" x="230.62" y="-357.45" font-family="Times,serif" font-size="14.00">DDG: </text>
</g>
<!-- 111669149954 -->
<g id="node6" class="node">
<title>111669149954</title>
<polygon fill="none" stroke="black" points="359.5,-337 276,-337 276,-297.5 359.5,-297.5 359.5,-337"/>
<text xml:space="preserve" text-anchor="start" x="284" y="-319.7" font-family="Times,serif" font-size="14.00">PARAM, 680</text>
<text xml:space="preserve" text-anchor="start" x="284" y="-303.95" font-family="Times,serif" font-size="14.00">section_id</text>
</g>
<!-- 107374182524&#45;&gt;111669149954 -->
<g id="edge10" class="edge">
<title>107374182524&#45;&gt;111669149954</title>
<path fill="none" stroke="black" d="M236.06,-388.35C250.87,-375.65 270.5,-358.8 286.81,-344.8"/>
<polygon fill="black" stroke="black" points="289.02,-347.52 294.33,-338.35 284.46,-342.21 289.02,-347.52"/>
<text xml:space="preserve" text-anchor="middle" x="288.85" y="-357.45" font-family="Times,serif" font-size="14.00">DDG: </text>
</g>
<!-- 30064773405 -->
<g id="node8" class="node">
<title>30064773405</title>
<polygon fill="none" stroke="black" points="570.75,-222 68.75,-222 68.75,-182.5 570.75,-182.5 570.75,-222"/>
<text xml:space="preserve" text-anchor="start" x="76.75" y="-204.7" font-family="Times,serif" font-size="14.00">AI_generated_code_1.py:&lt;module&gt;.RegistrationSystem.register_student, 680</text>
<text xml:space="preserve" text-anchor="start" x="164.5" y="-188.95" font-family="Times,serif" font-size="14.00">register_student(self, student_id, section_id)</text>
</g>
<!-- 107374182524&#45;&gt;30064773405 -->
<g id="edge13" class="edge">
<title>107374182524&#45;&gt;30064773405</title>
<path fill="none" stroke="black" d="M285.07,-388.29C336.06,-370 399.46,-336.57 421.75,-279.5 428.14,-263.15 431.84,-254.36 421.75,-240 418.81,-235.82 415.34,-232.1 411.5,-228.82"/>
<polygon fill="black" stroke="black" points="413.89,-226.23 403.75,-223.16 409.76,-231.88 413.89,-226.23"/>
<text xml:space="preserve" text-anchor="middle" x="429.09" y="-311.82" font-family="Times,serif" font-size="14.00">DDG: </text>
</g>
<!-- 124554051708 -->
<g id="node2" class="node">
<title>124554051708</title>
<polygon fill="none" stroke="black" points="331.5,-39.5 194,-39.5 194,0 331.5,0 331.5,-39.5"/>
<text xml:space="preserve" text-anchor="start" x="202" y="-22.2" font-family="Times,serif" font-size="14.00">METHOD_RETURN, 680</text>
<text xml:space="preserve" text-anchor="start" x="222.25" y="-6.45" font-family="Times,serif" font-size="14.00">typing.Tuple</text>
</g>
<!-- 111669149951&#45;&gt;124554051708 -->
<g id="edge2" class="edge">
<title>111669149951&#45;&gt;124554051708</title>
<path fill="none" stroke="black" d="M43.19,-239.66C47.44,-198.26 63.88,-100.5 125.75,-57.5 142.56,-45.82 162.89,-37.85 182.69,-32.41"/>
<polygon fill="black" stroke="black" points="183.31,-35.87 192.14,-30.02 181.59,-29.08 183.31,-35.87"/>
<text xml:space="preserve" text-anchor="middle" x="89.65" y="-151.2" font-family="Times,serif" font-size="14.00">DDG: cls</text>
</g>
<!-- 111669149952&#45;&gt;30064773405 -->
<g id="edge12" class="edge">
<title>111669149952&#45;&gt;30064773405</title>
<path fill="none" stroke="black" d="M113.61,-297.33C116.36,-279.84 123.17,-254.43 140,-240 146.52,-234.41 158.26,-229.55 172.74,-225.35"/>
<polygon fill="black" stroke="black" points="173.52,-228.76 182.28,-222.8 171.71,-222 173.52,-228.76"/>
<text xml:space="preserve" text-anchor="middle" x="170.38" y="-254.32" font-family="Times,serif" font-size="14.00">DDG: self</text>
</g>
<!-- 111669149953&#45;&gt;30064773405 -->
<g id="edge14" class="edge">
<title>111669149953&#45;&gt;30064773405</title>
<path fill="none" stroke="black" d="M207.95,-297.16C204.13,-280.51 201.75,-256.5 213.5,-240 216.37,-235.98 219.7,-232.39 223.39,-229.19"/>
<polygon fill="black" stroke="black" points="225.39,-232.06 231.36,-223.31 221.24,-226.43 225.39,-232.06"/>
<text xml:space="preserve" text-anchor="middle" x="264.12" y="-254.32" font-family="Times,serif" font-size="14.00">DDG: student_id</text>
</g>
<!-- 111669149954&#45;&gt;30064773405 -->
<g id="edge15" class="edge">
<title>111669149954&#45;&gt;30064773405</title>
<path fill="none" stroke="black" d="M318.09,-297.08C318.4,-279.69 318.86,-253.75 319.21,-233.55"/>
<polygon fill="black" stroke="black" points="322.71,-233.71 319.39,-223.65 315.71,-233.59 322.71,-233.71"/>
<text xml:space="preserve" text-anchor="middle" x="369.67" y="-254.32" font-family="Times,serif" font-size="14.00">DDG: section_id</text>
</g>
<!-- 141733920938 -->
<g id="node7" class="node">
<title>141733920938</title>
<polygon fill="none" stroke="black" points="1184.5,-130.75 831,-130.75 831,-91.25 1184.5,-91.25 1184.5,-130.75"/>
<text xml:space="preserve" text-anchor="start" x="970.62" y="-113.45" font-family="Times,serif" font-size="14.00">RETURN, 680</text>
<text xml:space="preserve" text-anchor="start" x="839" y="-97.7" font-family="Times,serif" font-size="14.00">return register_student(self, student_id, secti...</text>
</g>
<!-- 141733920938&#45;&gt;124554051708 -->
<g id="edge1" class="edge">
<title>141733920938&#45;&gt;124554051708</title>
<path fill="none" stroke="black" d="M847.47,-90.8C692.32,-72.21 463.46,-44.79 343.25,-30.39"/>
<polygon fill="black" stroke="black" points="343.81,-26.94 333.46,-29.22 342.98,-33.89 343.81,-26.94"/>
<text xml:space="preserve" text-anchor="middle" x="713.6" y="-59.95" font-family="Times,serif" font-size="14.00">DDG: &lt;RET&gt;</text>
</g>
<!-- 30064773405&#45;&gt;124554051708 -->
<g id="edge3" class="edge">
<title>30064773405&#45;&gt;124554051708</title>
<path fill="none" stroke="black" d="M178.5,-182.03C151.68,-171.41 127.26,-155.24 112,-130.75 87.82,-91.94 136.13,-62.49 184.34,-43.87"/>
<polygon fill="black" stroke="black" points="185.34,-47.23 193.5,-40.47 182.91,-40.67 185.34,-47.23"/>
<text xml:space="preserve" text-anchor="middle" x="142.38" y="-105.58" font-family="Times,serif" font-size="14.00">DDG: self</text>
</g>
<!-- 30064773405&#45;&gt;124554051708 -->
<g id="edge4" class="edge">
<title>30064773405&#45;&gt;124554051708</title>
<path fill="none" stroke="black" d="M268.09,-182.05C245.53,-170.79 221.34,-154.09 208.5,-130.75 193.28,-103.08 213.9,-70.55 233.95,-48.08"/>
<polygon fill="black" stroke="black" points="236.49,-50.49 240.78,-40.8 231.38,-45.7 236.49,-50.49"/>
<text xml:space="preserve" text-anchor="middle" x="259.12" y="-105.58" font-family="Times,serif" font-size="14.00">DDG: student_id</text>
</g>
<!-- 30064773405&#45;&gt;124554051708 -->
<g id="edge5" class="edge">
<title>30064773405&#45;&gt;124554051708</title>
<path fill="none" stroke="black" d="M320.81,-182.36C321.44,-159.96 320.54,-121.81 309.75,-91.25 304.46,-76.25 295.25,-61.35 286.39,-49.14"/>
<polygon fill="black" stroke="black" points="289.18,-47.03 280.34,-41.18 283.6,-51.26 289.18,-47.03"/>
<text xml:space="preserve" text-anchor="middle" x="369.16" y="-105.58" font-family="Times,serif" font-size="14.00">DDG: section_id</text>
</g>
<!-- 30064773405&#45;&gt;124554051708 -->
<g id="edge6" class="edge">
<title>30064773405&#45;&gt;124554051708</title>
<path fill="none" stroke="black" d="M360.94,-182.06C399.21,-161.47 447.05,-126.89 423.75,-91.25 405.45,-63.26 373.32,-46.32 342.55,-36.09"/>
<polygon fill="black" stroke="black" points="343.78,-32.81 333.19,-33.19 341.71,-39.49 343.78,-32.81"/>
<text xml:space="preserve" text-anchor="middle" x="602.01" y="-105.58" font-family="Times,serif" font-size="14.00">DDG: register_student(self, student_id, section_id)</text>
</g>
<!-- 30064773405&#45;&gt;141733920938 -->
<g id="edge11" class="edge">
<title>30064773405&#45;&gt;141733920938</title>
<path fill="none" stroke="black" d="M467.77,-182.05C579.75,-167.52 733.32,-147.6 848.07,-132.71"/>
<polygon fill="black" stroke="black" points="848.43,-136.2 857.9,-131.44 847.53,-129.26 848.43,-136.2"/>
<text xml:space="preserve" text-anchor="middle" x="877.07" y="-151.2" font-family="Times,serif" font-size="14.00">DDG: register_student(self, student_id, section_id)</text>
</g>
</g>
</svg>
