<?xml version="1.0" encoding="UTF-8" standalone="no"?>
<!DOCTYPE svg PUBLIC "-//W3C//DTD SVG 1.1//EN"
 "http://www.w3.org/Graphics/SVG/1.1/DTD/svg11.dtd">
<!-- Generated by graphviz version 13.1.2 (20250809.0930)
 -->
<!-- Title: remove_section&lt;metaClassAdapter&gt; Pages: 1 -->
<svg width="849pt" height="436pt"
 viewBox="0.00 0.00 849.00 436.00" xmlns="http://www.w3.org/2000/svg" xmlns:xlink="http://www.w3.org/1999/xlink">
<g id="graph0" class="graph" transform="scale(1 1) rotate(0) translate(4 432.25)">
<title>remove_section&lt;metaClassAdapter&gt;</title>
<polygon fill="white" stroke="none" points="-4,4 -4,-432.25 845.38,-432.25 845.38,4 -4,4"/>
<!-- 107374182527 -->
<g id="node1" class="node">
<title>107374182527</title>
<polygon fill="none" stroke="black" points="290.75,-428.25 58.75,-428.25 58.75,-388.75 290.75,-388.75 290.75,-428.25"/>
<text xml:space="preserve" text-anchor="start" x="137.62" y="-410.95" font-family="Times,serif" font-size="14.00">METHOD, 540</text>
<text xml:space="preserve" text-anchor="start" x="66.75" y="-395.2" font-family="Times,serif" font-size="14.00">remove_section&lt;metaClassAdapter&gt;</text>
</g>
<!-- 111669149961 -->
<g id="node3" class="node">
<title>111669149961</title>
<polygon fill="none" stroke="black" points="83.5,-279.5 0,-279.5 0,-240 83.5,-240 83.5,-279.5"/>
<text xml:space="preserve" text-anchor="start" x="8" y="-262.2" font-family="Times,serif" font-size="14.00">PARAM, 540</text>
<text xml:space="preserve" text-anchor="start" x="31.62" y="-246.45" font-family="Times,serif" font-size="14.00">cls</text>
</g>
<!-- 107374182527&#45;&gt;111669149961 -->
<g id="edge6" class="edge">
<title>107374182527&#45;&gt;111669149961</title>
<path fill="none" stroke="black" d="M124.66,-388.36C101.72,-376.97 76.42,-360.15 61.75,-337 53.02,-323.23 48.09,-305.76 45.3,-291.01"/>
<polygon fill="black" stroke="black" points="48.8,-290.7 43.74,-281.39 41.89,-291.83 48.8,-290.7"/>
<text xml:space="preserve" text-anchor="middle" x="110.69" y="-357.45" font-family="Times,serif" font-size="14.00">DDG: </text>
</g>
<!-- 111669149962 -->
<g id="node4" class="node">
<title>111669149962</title>
<polygon fill="none" stroke="black" points="154.5,-337 71,-337 71,-297.5 154.5,-297.5 154.5,-337"/>
<text xml:space="preserve" text-anchor="start" x="79" y="-319.7" font-family="Times,serif" font-size="14.00">PARAM, 540</text>
<text xml:space="preserve" text-anchor="start" x="99.25" y="-303.95" font-family="Times,serif" font-size="14.00">self</text>
</g>
<!-- 107374182527&#45;&gt;111669149962 -->
<g id="edge7" class="edge">
<title>107374182527&#45;&gt;111669149962</title>
<path fill="none" stroke="black" d="M161.6,-388.57C153.19,-376.47 142.12,-360.53 132.65,-346.9"/>
<polygon fill="black" stroke="black" points="135.54,-344.92 126.96,-338.7 129.79,-348.91 135.54,-344.92"/>
<text xml:space="preserve" text-anchor="middle" x="164.34" y="-357.45" font-family="Times,serif" font-size="14.00">DDG: </text>
</g>
<!-- 111669149963 -->
<g id="node5" class="node">
<title>111669149963</title>
<polygon fill="none" stroke="black" points="256.5,-337 173,-337 173,-297.5 256.5,-297.5 256.5,-337"/>
<text xml:space="preserve" text-anchor="start" x="181" y="-319.7" font-family="Times,serif" font-size="14.00">PARAM, 540</text>
<text xml:space="preserve" text-anchor="start" x="181" y="-303.95" font-family="Times,serif" font-size="14.00">section_id</text>
</g>
<!-- 107374182527&#45;&gt;111669149963 -->
<g id="edge8" class="edge">
<title>107374182527&#45;&gt;111669149963</title>
<path fill="none" stroke="black" d="M183.23,-388.57C188.55,-376.7 195.52,-361.15 201.55,-347.69"/>
<polygon fill="black" stroke="black" points="204.63,-349.4 205.52,-338.84 198.24,-346.53 204.63,-349.4"/>
<text xml:space="preserve" text-anchor="middle" x="214.02" y="-357.45" font-family="Times,serif" font-size="14.00">DDG: </text>
</g>
<!-- 30064773408 -->
<g id="node7" class="node">
<title>30064773408</title>
<polygon fill="none" stroke="black" points="508,-222 19.5,-222 19.5,-182.5 508,-182.5 508,-222"/>
<text xml:space="preserve" text-anchor="start" x="27.5" y="-204.7" font-family="Times,serif" font-size="14.00">AI_generated_code_1.py:&lt;module&gt;.RegistrationSystem.remove_section, 540</text>
<text xml:space="preserve" text-anchor="start" x="155.75" y="-188.95" font-family="Times,serif" font-size="14.00">remove_section(self, section_id)</text>
</g>
<!-- 107374182527&#45;&gt;30064773408 -->
<g id="edge11" class="edge">
<title>107374182527&#45;&gt;30064773408</title>
<path fill="none" stroke="black" d="M209.82,-388.27C218.3,-383.03 227.11,-377.04 234.75,-370.75 274.85,-337.74 291.64,-328.87 307.75,-279.5 313.2,-262.81 315.19,-255.9 307.75,-240 306.19,-236.66 304.16,-233.53 301.83,-230.6"/>
<polygon fill="black" stroke="black" points="304.57,-228.4 295.16,-223.55 299.49,-233.21 304.57,-228.4"/>
<text xml:space="preserve" text-anchor="middle" x="317.53" y="-311.82" font-family="Times,serif" font-size="14.00">DDG: </text>
</g>
<!-- 124554051711 -->
<g id="node2" class="node">
<title>124554051711</title>
<polygon fill="none" stroke="black" points="226.5,-39.5 89,-39.5 89,0 226.5,0 226.5,-39.5"/>
<text xml:space="preserve" text-anchor="start" x="97" y="-22.2" font-family="Times,serif" font-size="14.00">METHOD_RETURN, 540</text>
<text xml:space="preserve" text-anchor="start" x="110.5" y="-6.45" font-family="Times,serif" font-size="14.00">__builtin.bool</text>
</g>
<!-- 111669149961&#45;&gt;124554051711 -->
<g id="edge2" class="edge">
<title>111669149961&#45;&gt;124554051711</title>
<path fill="none" stroke="black" d="M21.51,-239.81C17.12,-234.51 13.1,-228.43 10.75,-222 4.72,-205.51 6.16,-199.45 10.75,-182.5 27.56,-120.4 36.75,-101.43 83.75,-57.5 88.45,-53.11 93.77,-49.13 99.36,-45.55"/>
<polygon fill="black" stroke="black" points="100.8,-48.76 107.64,-40.67 97.24,-42.73 100.8,-48.76"/>
<text xml:space="preserve" text-anchor="middle" x="47.28" y="-151.2" font-family="Times,serif" font-size="14.00">DDG: cls</text>
</g>
<!-- 111669149962&#45;&gt;30064773408 -->
<g id="edge10" class="edge">
<title>111669149962&#45;&gt;30064773408</title>
<path fill="none" stroke="black" d="M113.61,-297.04C115.41,-279.83 120.71,-255.05 136,-240 140.64,-235.44 145.8,-231.43 151.32,-227.92"/>
<polygon fill="black" stroke="black" points="152.64,-231.2 159.6,-223.21 149.18,-225.11 152.64,-231.2"/>
<text xml:space="preserve" text-anchor="middle" x="166.38" y="-254.32" font-family="Times,serif" font-size="14.00">DDG: self</text>
</g>
<!-- 111669149963&#45;&gt;30064773408 -->
<g id="edge12" class="edge">
<title>111669149963&#45;&gt;30064773408</title>
<path fill="none" stroke="black" d="M206.86,-297.19C201.46,-281 196.86,-257.64 206.5,-240 208.52,-236.31 211.08,-232.94 213.99,-229.86"/>
<polygon fill="black" stroke="black" points="216.11,-232.66 221.28,-223.41 211.47,-227.42 216.11,-232.66"/>
<text xml:space="preserve" text-anchor="middle" x="257.12" y="-254.32" font-family="Times,serif" font-size="14.00">DDG: section_id</text>
</g>
<!-- 141733920941 -->
<g id="node6" class="node">
<title>141733920941</title>
<polygon fill="none" stroke="black" points="841.38,-130.75 562.12,-130.75 562.12,-91.25 841.38,-91.25 841.38,-130.75"/>
<text xml:space="preserve" text-anchor="start" x="664.62" y="-113.45" font-family="Times,serif" font-size="14.00">RETURN, 540</text>
<text xml:space="preserve" text-anchor="start" x="570.12" y="-97.7" font-family="Times,serif" font-size="14.00">return remove_section(self, section_id)</text>
</g>
<!-- 141733920941&#45;&gt;124554051711 -->
<g id="edge1" class="edge">
<title>141733920941&#45;&gt;124554051711</title>
<path fill="none" stroke="black" d="M584.71,-90.8C480.09,-73.63 329.58,-48.94 238.02,-33.92"/>
<polygon fill="black" stroke="black" points="238.81,-30.5 228.37,-32.34 237.68,-37.41 238.81,-30.5"/>
<text xml:space="preserve" text-anchor="middle" x="496.07" y="-59.95" font-family="Times,serif" font-size="14.00">DDG: &lt;RET&gt;</text>
</g>
<!-- 30064773408&#45;&gt;124554051711 -->
<g id="edge3" class="edge">
<title>30064773408&#45;&gt;124554051711</title>
<path fill="none" stroke="black" d="M143.18,-182.13C115.9,-171.66 90.45,-155.54 75,-130.75 56.18,-100.55 87.24,-68.27 116.53,-46.55"/>
<polygon fill="black" stroke="black" points="118.55,-49.4 124.68,-40.76 114.5,-43.7 118.55,-49.4"/>
<text xml:space="preserve" text-anchor="middle" x="105.38" y="-105.58" font-family="Times,serif" font-size="14.00">DDG: self</text>
</g>
<!-- 30064773408&#45;&gt;124554051711 -->
<g id="edge4" class="edge">
<title>30064773408&#45;&gt;124554051711</title>
<path fill="none" stroke="black" d="M226.33,-182.21C206.69,-170.2 184.15,-152.77 171.5,-130.75 157.54,-106.45 155.02,-74.2 155.43,-50.91"/>
<polygon fill="black" stroke="black" points="158.92,-51.28 155.81,-41.15 151.92,-51.01 158.92,-51.28"/>
<text xml:space="preserve" text-anchor="middle" x="222.12" y="-105.58" font-family="Times,serif" font-size="14.00">DDG: section_id</text>
</g>
<!-- 30064773408&#45;&gt;124554051711 -->
<g id="edge5" class="edge">
<title>30064773408&#45;&gt;124554051711</title>
<path fill="none" stroke="black" d="M271.36,-182.38C279.36,-159.31 288.76,-119.84 272.75,-91.25 261.49,-71.15 241.91,-56.08 222.05,-45.16"/>
<polygon fill="black" stroke="black" points="223.84,-42.14 213.35,-40.66 220.63,-48.36 223.84,-42.14"/>
<text xml:space="preserve" text-anchor="middle" x="406.36" y="-105.58" font-family="Times,serif" font-size="14.00">DDG: remove_section(self, section_id)</text>
</g>
<!-- 30064773408&#45;&gt;141733920941 -->
<g id="edge9" class="edge">
<title>30064773408&#45;&gt;141733920941</title>
<path fill="none" stroke="black" d="M357.98,-182.05C428.05,-167.77 523.69,-148.28 596.31,-133.49"/>
<polygon fill="black" stroke="black" points="596.72,-136.97 605.82,-131.55 595.32,-130.11 596.72,-136.97"/>
<text xml:space="preserve" text-anchor="middle" x="633.85" y="-151.2" font-family="Times,serif" font-size="14.00">DDG: remove_section(self, section_id)</text>
</g>
</g>
</svg>
