<?xml version="1.0" encoding="UTF-8" standalone="no"?>
<!DOCTYPE svg PUBLIC "-//W3C//DTD SVG 1.1//EN"
 "http://www.w3.org/Graphics/SVG/1.1/DTD/svg11.dtd">
<!-- Generated by graphviz version 13.1.2 (20250809.0930)
 -->
<!-- Title: report_open_sections&lt;metaClassAdapter&gt; Pages: 1 -->
<svg width="739pt" height="436pt"
 viewBox="0.00 0.00 739.00 436.00" xmlns="http://www.w3.org/2000/svg" xmlns:xlink="http://www.w3.org/1999/xlink">
<g id="graph0" class="graph" transform="scale(1 1) rotate(0) translate(4 432.25)">
<title>report_open_sections&lt;metaClassAdapter&gt;</title>
<polygon fill="white" stroke="none" points="-4,4 -4,-432.25 734.5,-432.25 734.5,4 -4,4"/>
<!-- 107374182530 -->
<g id="node1" class="node">
<title>107374182530</title>
<polygon fill="none" stroke="black" points="360.38,-428.25 87.88,-428.25 87.88,-388.75 360.38,-388.75 360.38,-428.25"/>
<text xml:space="preserve" text-anchor="start" x="183.62" y="-410.95" font-family="Times,serif" font-size="14.00">METHOD, 1004</text>
<text xml:space="preserve" text-anchor="start" x="95.88" y="-395.2" font-family="Times,serif" font-size="14.00">report_open_sections&lt;metaClassAdapter&gt;</text>
</g>
<!-- 111669149970 -->
<g id="node3" class="node">
<title>111669149970</title>
<polygon fill="none" stroke="black" points="90.25,-279.5 0,-279.5 0,-240 90.25,-240 90.25,-279.5"/>
<text xml:space="preserve" text-anchor="start" x="8" y="-262.2" font-family="Times,serif" font-size="14.00">PARAM, 1004</text>
<text xml:space="preserve" text-anchor="start" x="35" y="-246.45" font-family="Times,serif" font-size="14.00">cls</text>
</g>
<!-- 107374182530&#45;&gt;111669149970 -->
<g id="edge5" class="edge">
<title>107374182530&#45;&gt;111669149970</title>
<path fill="none" stroke="black" d="M200.72,-388.32C169.1,-362.39 112.6,-316.06 77.08,-286.95"/>
<polygon fill="black" stroke="black" points="79.65,-284.53 69.7,-280.9 75.22,-289.95 79.65,-284.53"/>
<text xml:space="preserve" text-anchor="middle" x="195.73" y="-357.45" font-family="Times,serif" font-size="14.00">DDG: </text>
</g>
<!-- 111669149971 -->
<g id="node4" class="node">
<title>111669149971</title>
<polygon fill="none" stroke="black" points="269.25,-337 179,-337 179,-297.5 269.25,-297.5 269.25,-337"/>
<text xml:space="preserve" text-anchor="start" x="187" y="-319.7" font-family="Times,serif" font-size="14.00">PARAM, 1004</text>
<text xml:space="preserve" text-anchor="start" x="210.62" y="-303.95" font-family="Times,serif" font-size="14.00">self</text>
</g>
<!-- 107374182530&#45;&gt;111669149971 -->
<g id="edge6" class="edge">
<title>107374182530&#45;&gt;111669149971</title>
<path fill="none" stroke="black" d="M224.12,-388.57C224.12,-377.05 224.12,-362.07 224.12,-348.9"/>
<polygon fill="black" stroke="black" points="227.63,-348.97 224.13,-338.97 220.63,-348.97 227.63,-348.97"/>
<text xml:space="preserve" text-anchor="middle" x="241" y="-357.45" font-family="Times,serif" font-size="14.00">DDG: </text>
</g>
<!-- 30064773411 -->
<g id="node6" class="node">
<title>30064773411</title>
<polygon fill="none" stroke="black" points="573,-222 37.25,-222 37.25,-182.5 573,-182.5 573,-222"/>
<text xml:space="preserve" text-anchor="start" x="45.25" y="-204.7" font-family="Times,serif" font-size="14.00">AI_generated_code_1.py:&lt;module&gt;.RegistrationSystem.report_open_sections, 1004</text>
<text xml:space="preserve" text-anchor="start" x="217.38" y="-188.95" font-family="Times,serif" font-size="14.00">report_open_sections(self)</text>
</g>
<!-- 107374182530&#45;&gt;30064773411 -->
<g id="edge9" class="edge">
<title>107374182530&#45;&gt;30064773411</title>
<path fill="none" stroke="black" d="M246.45,-388.51C251.99,-383.12 257.63,-377.01 262.12,-370.75 291.77,-329.44 301.01,-269.48 303.87,-233.63"/>
<polygon fill="black" stroke="black" points="307.34,-234.18 304.51,-223.96 300.36,-233.71 307.34,-234.18"/>
<text xml:space="preserve" text-anchor="middle" x="310.06" y="-311.82" font-family="Times,serif" font-size="14.00">DDG: </text>
</g>
<!-- 124554051714 -->
<g id="node2" class="node">
<title>124554051714</title>
<polygon fill="none" stroke="black" points="287.25,-39.5 143,-39.5 143,0 287.25,0 287.25,-39.5"/>
<text xml:space="preserve" text-anchor="start" x="151" y="-22.2" font-family="Times,serif" font-size="14.00">METHOD_RETURN, 1004</text>
<text xml:space="preserve" text-anchor="start" x="171.25" y="-6.45" font-family="Times,serif" font-size="14.00">__builtin.str</text>
</g>
<!-- 111669149970&#45;&gt;124554051714 -->
<g id="edge2" class="edge">
<title>111669149970&#45;&gt;124554051714</title>
<path fill="none" stroke="black" d="M34.29,-239.56C26.86,-223.69 19.72,-200.88 28.12,-182.5 56.67,-120.08 122.51,-72.53 167.93,-45.63"/>
<polygon fill="black" stroke="black" points="169.64,-48.68 176.54,-40.64 166.14,-42.62 169.64,-48.68"/>
<text xml:space="preserve" text-anchor="middle" x="73.19" y="-151.2" font-family="Times,serif" font-size="14.00">DDG: cls</text>
</g>
<!-- 111669149971&#45;&gt;30064773411 -->
<g id="edge8" class="edge">
<title>111669149971&#45;&gt;30064773411</title>
<path fill="none" stroke="black" d="M220.79,-297.31C218.94,-280.75 218.94,-256.8 230.38,-240 233.12,-235.97 236.44,-232.36 240.14,-229.13"/>
<polygon fill="black" stroke="black" points="242.21,-231.96 248.14,-223.18 238.03,-226.34 242.21,-231.96"/>
<text xml:space="preserve" text-anchor="middle" x="260.75" y="-254.32" font-family="Times,serif" font-size="14.00">DDG: self</text>
</g>
<!-- 141733920944 -->
<g id="node5" class="node">
<title>141733920944</title>
<polygon fill="none" stroke="black" points="730.5,-130.75 491.75,-130.75 491.75,-91.25 730.5,-91.25 730.5,-130.75"/>
<text xml:space="preserve" text-anchor="start" x="570.62" y="-113.45" font-family="Times,serif" font-size="14.00">RETURN, 1004</text>
<text xml:space="preserve" text-anchor="start" x="499.75" y="-97.7" font-family="Times,serif" font-size="14.00">return report_open_sections(self)</text>
</g>
<!-- 141733920944&#45;&gt;124554051714 -->
<g id="edge1" class="edge">
<title>141733920944&#45;&gt;124554051714</title>
<path fill="none" stroke="black" d="M526.17,-90.85C458.9,-75.69 365.44,-54.63 298.56,-39.56"/>
<polygon fill="black" stroke="black" points="299.65,-36.21 289.13,-37.43 298.11,-43.04 299.65,-36.21"/>
<text xml:space="preserve" text-anchor="middle" x="470.58" y="-59.95" font-family="Times,serif" font-size="14.00">DDG: &lt;RET&gt;</text>
</g>
<!-- 30064773411&#45;&gt;124554051714 -->
<g id="edge3" class="edge">
<title>30064773411&#45;&gt;124554051714</title>
<path fill="none" stroke="black" d="M244.59,-182.01C220.49,-171.03 195.23,-154.59 181.38,-130.75 166.51,-105.17 180.14,-72.38 194.27,-49.28"/>
<polygon fill="black" stroke="black" points="197.14,-51.27 199.66,-40.98 191.27,-47.46 197.14,-51.27"/>
<text xml:space="preserve" text-anchor="middle" x="211.75" y="-105.58" font-family="Times,serif" font-size="14.00">DDG: self</text>
</g>
<!-- 30064773411&#45;&gt;124554051714 -->
<g id="edge4" class="edge">
<title>30064773411&#45;&gt;124554051714</title>
<path fill="none" stroke="black" d="M295.66,-182.27C279.93,-150.72 248.29,-87.26 229.69,-49.97"/>
<polygon fill="black" stroke="black" points="232.86,-48.48 225.27,-41.1 226.6,-51.61 232.86,-48.48"/>
<text xml:space="preserve" text-anchor="middle" x="373.7" y="-105.58" font-family="Times,serif" font-size="14.00">DDG: report_open_sections(self)</text>
</g>
<!-- 30064773411&#45;&gt;141733920944 -->
<g id="edge7" class="edge">
<title>30064773411&#45;&gt;141733920944</title>
<path fill="none" stroke="black" d="M370.77,-182.1C418.79,-168.1 484.07,-149.06 534.48,-134.35"/>
<polygon fill="black" stroke="black" points="535.25,-137.78 543.87,-131.62 533.29,-131.06 535.25,-137.78"/>
<text xml:space="preserve" text-anchor="middle" x="581.07" y="-151.2" font-family="Times,serif" font-size="14.00">DDG: report_open_sections(self)</text>
</g>
</g>
</svg>
