<?xml version="1.0" encoding="UTF-8" standalone="no"?>
<!DOCTYPE svg PUBLIC "-//W3C//DTD SVG 1.1//EN"
 "http://www.w3.org/Graphics/SVG/1.1/DTD/svg11.dtd">
<!-- Generated by graphviz version 13.1.2 (20250809.0930)
 -->
<!-- Title: report_student_schedule&lt;metaClassAdapter&gt; Pages: 1 -->
<svg width="966pt" height="436pt"
 viewBox="0.00 0.00 966.00 436.00" xmlns="http://www.w3.org/2000/svg" xmlns:xlink="http://www.w3.org/1999/xlink">
<g id="graph0" class="graph" transform="scale(1 1) rotate(0) translate(4 432.25)">
<title>report_student_schedule&lt;metaClassAdapter&gt;</title>
<polygon fill="white" stroke="none" points="-4,4 -4,-432.25 961.75,-432.25 961.75,4 -4,4"/>
<!-- 107374182532 -->
<g id="node1" class="node">
<title>107374182532</title>
<polygon fill="none" stroke="black" points="344.12,-428.25 51.38,-428.25 51.38,-388.75 344.12,-388.75 344.12,-428.25"/>
<text xml:space="preserve" text-anchor="start" x="160.62" y="-410.95" font-family="Times,serif" font-size="14.00">METHOD, 923</text>
<text xml:space="preserve" text-anchor="start" x="59.38" y="-395.2" font-family="Times,serif" font-size="14.00">report_student_schedule&lt;metaClassAdapter&gt;</text>
</g>
<!-- 111669149974 -->
<g id="node3" class="node">
<title>111669149974</title>
<polygon fill="none" stroke="black" points="83.5,-279.5 0,-279.5 0,-240 83.5,-240 83.5,-279.5"/>
<text xml:space="preserve" text-anchor="start" x="8" y="-262.2" font-family="Times,serif" font-size="14.00">PARAM, 923</text>
<text xml:space="preserve" text-anchor="start" x="31.62" y="-246.45" font-family="Times,serif" font-size="14.00">cls</text>
</g>
<!-- 107374182532&#45;&gt;111669149974 -->
<g id="edge6" class="edge">
<title>107374182532&#45;&gt;111669149974</title>
<path fill="none" stroke="black" d="M153.5,-388.33C130.38,-376.42 103.15,-359.14 84.75,-337 72.95,-322.8 62.66,-304.9 55.11,-290.01"/>
<polygon fill="black" stroke="black" points="58.32,-288.6 50.78,-281.16 52.03,-291.68 58.32,-288.6"/>
<text xml:space="preserve" text-anchor="middle" x="138.43" y="-357.45" font-family="Times,serif" font-size="14.00">DDG: </text>
</g>
<!-- 111669149975 -->
<g id="node4" class="node">
<title>111669149975</title>
<polygon fill="none" stroke="black" points="177.5,-337 94,-337 94,-297.5 177.5,-297.5 177.5,-337"/>
<text xml:space="preserve" text-anchor="start" x="102" y="-319.7" font-family="Times,serif" font-size="14.00">PARAM, 923</text>
<text xml:space="preserve" text-anchor="start" x="122.25" y="-303.95" font-family="Times,serif" font-size="14.00">self</text>
</g>
<!-- 107374182532&#45;&gt;111669149975 -->
<g id="edge7" class="edge">
<title>107374182532&#45;&gt;111669149975</title>
<path fill="none" stroke="black" d="M184.6,-388.57C176.19,-376.47 165.12,-360.53 155.65,-346.9"/>
<polygon fill="black" stroke="black" points="158.54,-344.92 149.96,-338.7 152.79,-348.91 158.54,-344.92"/>
<text xml:space="preserve" text-anchor="middle" x="187.34" y="-357.45" font-family="Times,serif" font-size="14.00">DDG: </text>
</g>
<!-- 111669149976 -->
<g id="node5" class="node">
<title>111669149976</title>
<polygon fill="none" stroke="black" points="279.5,-337 196,-337 196,-297.5 279.5,-297.5 279.5,-337"/>
<text xml:space="preserve" text-anchor="start" x="204" y="-319.7" font-family="Times,serif" font-size="14.00">PARAM, 923</text>
<text xml:space="preserve" text-anchor="start" x="204" y="-303.95" font-family="Times,serif" font-size="14.00">student_id</text>
</g>
<!-- 107374182532&#45;&gt;111669149976 -->
<g id="edge8" class="edge">
<title>107374182532&#45;&gt;111669149976</title>
<path fill="none" stroke="black" d="M206.23,-388.57C211.55,-376.7 218.52,-361.15 224.55,-347.69"/>
<polygon fill="black" stroke="black" points="227.63,-349.4 228.52,-338.84 221.24,-346.53 227.63,-349.4"/>
<text xml:space="preserve" text-anchor="middle" x="237.02" y="-357.45" font-family="Times,serif" font-size="14.00">DDG: </text>
</g>
<!-- 30064773413 -->
<g id="node7" class="node">
<title>30064773413</title>
<polygon fill="none" stroke="black" points="563.38,-222 14.12,-222 14.12,-182.5 563.38,-182.5 563.38,-222"/>
<text xml:space="preserve" text-anchor="start" x="22.12" y="-204.7" font-family="Times,serif" font-size="14.00">AI_generated_code_1.py:&lt;module&gt;.RegistrationSystem.report_student_schedule, 923</text>
<text xml:space="preserve" text-anchor="start" x="150.38" y="-188.95" font-family="Times,serif" font-size="14.00">report_student_schedule(self, student_id)</text>
</g>
<!-- 107374182532&#45;&gt;30064773413 -->
<g id="edge11" class="edge">
<title>107374182532&#45;&gt;30064773413</title>
<path fill="none" stroke="black" d="M232.2,-388.44C266.36,-367.15 315.96,-329.06 332.75,-279.5 338.38,-262.87 340.19,-255.9 332.75,-240 331.19,-236.66 329.16,-233.53 326.83,-230.6"/>
<polygon fill="black" stroke="black" points="329.57,-228.4 320.16,-223.55 324.49,-233.21 329.57,-228.4"/>
<text xml:space="preserve" text-anchor="middle" x="340.74" y="-311.82" font-family="Times,serif" font-size="14.00">DDG: </text>
</g>
<!-- 124554051716 -->
<g id="node2" class="node">
<title>124554051716</title>
<polygon fill="none" stroke="black" points="220.5,-39.5 83,-39.5 83,0 220.5,0 220.5,-39.5"/>
<text xml:space="preserve" text-anchor="start" x="91" y="-22.2" font-family="Times,serif" font-size="14.00">METHOD_RETURN, 923</text>
<text xml:space="preserve" text-anchor="start" x="107.88" y="-6.45" font-family="Times,serif" font-size="14.00">__builtin.str</text>
</g>
<!-- 111669149974&#45;&gt;124554051716 -->
<g id="edge2" class="edge">
<title>111669149974&#45;&gt;124554051716</title>
<path fill="none" stroke="black" d="M16.9,-239.61C11.96,-234.48 7.46,-228.52 4.75,-222 -2,-205.79 0.16,-199.45 4.75,-182.5 21.56,-120.4 30.75,-101.43 77.75,-57.5 82.45,-53.11 87.77,-49.13 93.36,-45.55"/>
<polygon fill="black" stroke="black" points="94.8,-48.76 101.64,-40.67 91.24,-42.73 94.8,-48.76"/>
<text xml:space="preserve" text-anchor="middle" x="41.28" y="-151.2" font-family="Times,serif" font-size="14.00">DDG: cls</text>
</g>
<!-- 111669149975&#45;&gt;30064773413 -->
<g id="edge10" class="edge">
<title>111669149975&#45;&gt;30064773413</title>
<path fill="none" stroke="black" d="M137.16,-297C139.45,-279.77 145.42,-254.98 161,-240 165.74,-235.44 171.01,-231.44 176.64,-227.93"/>
<polygon fill="black" stroke="black" points="178.05,-231.15 185.08,-223.22 174.64,-225.04 178.05,-231.15"/>
<text xml:space="preserve" text-anchor="middle" x="191.38" y="-254.32" font-family="Times,serif" font-size="14.00">DDG: self</text>
</g>
<!-- 111669149976&#45;&gt;30064773413 -->
<g id="edge12" class="edge">
<title>111669149976&#45;&gt;30064773413</title>
<path fill="none" stroke="black" d="M230.6,-297.17C225.79,-280.97 221.88,-257.6 231.5,-240 233.52,-236.31 236.08,-232.94 238.99,-229.86"/>
<polygon fill="black" stroke="black" points="241.11,-232.66 246.28,-223.41 236.47,-227.42 241.11,-232.66"/>
<text xml:space="preserve" text-anchor="middle" x="282.12" y="-254.32" font-family="Times,serif" font-size="14.00">DDG: student_id</text>
</g>
<!-- 141733920946 -->
<g id="node6" class="node">
<title>141733920946</title>
<polygon fill="none" stroke="black" points="957.75,-130.75 617.75,-130.75 617.75,-91.25 957.75,-91.25 957.75,-130.75"/>
<text xml:space="preserve" text-anchor="start" x="750.62" y="-113.45" font-family="Times,serif" font-size="14.00">RETURN, 923</text>
<text xml:space="preserve" text-anchor="start" x="625.75" y="-97.7" font-family="Times,serif" font-size="14.00">return report_student_schedule(self, student_id)</text>
</g>
<!-- 141733920946&#45;&gt;124554051716 -->
<g id="edge1" class="edge">
<title>141733920946&#45;&gt;124554051716</title>
<path fill="none" stroke="black" d="M650.92,-90.8C523.23,-72.88 337.06,-46.75 231.89,-32"/>
<polygon fill="black" stroke="black" points="232.61,-28.56 222.22,-30.64 231.64,-35.5 232.61,-28.56"/>
<text xml:space="preserve" text-anchor="middle" x="541.58" y="-59.95" font-family="Times,serif" font-size="14.00">DDG: &lt;RET&gt;</text>
</g>
<!-- 30064773413&#45;&gt;124554051716 -->
<g id="edge3" class="edge">
<title>30064773413&#45;&gt;124554051716</title>
<path fill="none" stroke="black" d="M187.84,-182.04C136.64,-169.86 82.45,-152.34 69,-130.75 50.18,-100.55 81.24,-68.27 110.53,-46.55"/>
<polygon fill="black" stroke="black" points="112.55,-49.4 118.68,-40.76 108.5,-43.7 112.55,-49.4"/>
<text xml:space="preserve" text-anchor="middle" x="99.38" y="-105.58" font-family="Times,serif" font-size="14.00">DDG: self</text>
</g>
<!-- 30064773413&#45;&gt;124554051716 -->
<g id="edge4" class="edge">
<title>30064773413&#45;&gt;124554051716</title>
<path fill="none" stroke="black" d="M232.08,-182.12C207.69,-170.96 181.22,-154.34 165.5,-130.75 149.87,-107.29 147.62,-74.67 148.56,-51.05"/>
<polygon fill="black" stroke="black" points="152.05,-51.32 149.19,-41.12 145.07,-50.88 152.05,-51.32"/>
<text xml:space="preserve" text-anchor="middle" x="216.12" y="-105.58" font-family="Times,serif" font-size="14.00">DDG: student_id</text>
</g>
<!-- 30064773413&#45;&gt;124554051716 -->
<g id="edge5" class="edge">
<title>30064773413&#45;&gt;124554051716</title>
<path fill="none" stroke="black" d="M289.39,-182.37C289.26,-158.94 285.92,-118.72 266.75,-91.25 252.99,-71.53 231.76,-56.28 211.28,-45.1"/>
<polygon fill="black" stroke="black" points="213.14,-42.12 202.66,-40.63 209.92,-48.34 213.14,-42.12"/>
<text xml:space="preserve" text-anchor="middle" x="438.55" y="-105.58" font-family="Times,serif" font-size="14.00">DDG: report_student_schedule(self, student_id)</text>
</g>
<!-- 30064773413&#45;&gt;141733920946 -->
<g id="edge9" class="edge">
<title>30064773413&#45;&gt;141733920946</title>
<path fill="none" stroke="black" d="M396.1,-182.05C476.34,-167.7 586.02,-148.08 668.9,-133.26"/>
<polygon fill="black" stroke="black" points="669.43,-136.72 678.66,-131.51 668.2,-129.83 669.43,-136.72"/>
<text xml:space="preserve" text-anchor="middle" x="723.38" y="-151.2" font-family="Times,serif" font-size="14.00">DDG: report_student_schedule(self, student_id)</text>
</g>
</g>
</svg>
