<?xml version="1.0" encoding="UTF-8" standalone="no"?>
<!DOCTYPE svg PUBLIC "-//W3C//DTD SVG 1.1//EN"
 "http://www.w3.org/Graphics/SVG/1.1/DTD/svg11.dtd">
<!-- Generated by graphviz version 13.1.2 (20250809.0930)
 -->
<!-- Title: report_waitlisted_students&lt;metaClassAdapter&gt; Pages: 1 -->
<svg width="829pt" height="436pt"
 viewBox="0.00 0.00 829.00 436.00" xmlns="http://www.w3.org/2000/svg" xmlns:xlink="http://www.w3.org/1999/xlink">
<g id="graph0" class="graph" transform="scale(1 1) rotate(0) translate(4 432.25)">
<title>report_waitlisted_students&lt;metaClassAdapter&gt;</title>
<polygon fill="white" stroke="none" points="-4,4 -4,-432.25 824.75,-432.25 824.75,4 -4,4"/>
<!-- 107374182534 -->
<g id="node1" class="node">
<title>107374182534</title>
<polygon fill="none" stroke="black" points="395.62,-428.25 82.62,-428.25 82.62,-388.75 395.62,-388.75 395.62,-428.25"/>
<text xml:space="preserve" text-anchor="start" x="198.62" y="-410.95" font-family="Times,serif" font-size="14.00">METHOD, 1032</text>
<text xml:space="preserve" text-anchor="start" x="90.62" y="-395.2" font-family="Times,serif" font-size="14.00">report_waitlisted_students&lt;metaClassAdapter&gt;</text>
</g>
<!-- 111669149979 -->
<g id="node3" class="node">
<title>111669149979</title>
<polygon fill="none" stroke="black" points="90.25,-279.5 0,-279.5 0,-240 90.25,-240 90.25,-279.5"/>
<text xml:space="preserve" text-anchor="start" x="8" y="-262.2" font-family="Times,serif" font-size="14.00">PARAM, 1032</text>
<text xml:space="preserve" text-anchor="start" x="35" y="-246.45" font-family="Times,serif" font-size="14.00">cls</text>
</g>
<!-- 107374182534&#45;&gt;111669149979 -->
<g id="edge5" class="edge">
<title>107374182534&#45;&gt;111669149979</title>
<path fill="none" stroke="black" d="M213.76,-388.32C179.34,-362.28 117.73,-315.67 79.27,-286.58"/>
<polygon fill="black" stroke="black" points="81.79,-284.09 71.7,-280.85 77.56,-289.68 81.79,-284.09"/>
<text xml:space="preserve" text-anchor="middle" x="206.93" y="-357.45" font-family="Times,serif" font-size="14.00">DDG: </text>
</g>
<!-- 111669149980 -->
<g id="node4" class="node">
<title>111669149980</title>
<polygon fill="none" stroke="black" points="284.25,-337 194,-337 194,-297.5 284.25,-297.5 284.25,-337"/>
<text xml:space="preserve" text-anchor="start" x="202" y="-319.7" font-family="Times,serif" font-size="14.00">PARAM, 1032</text>
<text xml:space="preserve" text-anchor="start" x="225.62" y="-303.95" font-family="Times,serif" font-size="14.00">self</text>
</g>
<!-- 107374182534&#45;&gt;111669149980 -->
<g id="edge6" class="edge">
<title>107374182534&#45;&gt;111669149980</title>
<path fill="none" stroke="black" d="M239.12,-388.57C239.12,-377.05 239.12,-362.07 239.12,-348.9"/>
<polygon fill="black" stroke="black" points="242.63,-348.97 239.13,-338.97 235.63,-348.97 242.63,-348.97"/>
<text xml:space="preserve" text-anchor="middle" x="256" y="-357.45" font-family="Times,serif" font-size="14.00">DDG: </text>
</g>
<!-- 30064773415 -->
<g id="node6" class="node">
<title>30064773415</title>
<polygon fill="none" stroke="black" points="608.25,-222 32,-222 32,-182.5 608.25,-182.5 608.25,-222"/>
<text xml:space="preserve" text-anchor="start" x="40" y="-204.7" font-family="Times,serif" font-size="14.00">AI_generated_code_1.py:&lt;module&gt;.RegistrationSystem.report_waitlisted_students, 1032</text>
<text xml:space="preserve" text-anchor="start" x="212.12" y="-188.95" font-family="Times,serif" font-size="14.00">report_waitlisted_students(self)</text>
</g>
<!-- 107374182534&#45;&gt;30064773415 -->
<g id="edge9" class="edge">
<title>107374182534&#45;&gt;30064773415</title>
<path fill="none" stroke="black" d="M261.45,-388.51C266.99,-383.12 272.63,-377.01 277.12,-370.75 306.77,-329.44 316.01,-269.48 318.87,-233.63"/>
<polygon fill="black" stroke="black" points="322.34,-234.18 319.51,-223.96 315.36,-233.71 322.34,-234.18"/>
<text xml:space="preserve" text-anchor="middle" x="325.06" y="-311.82" font-family="Times,serif" font-size="14.00">DDG: </text>
</g>
<!-- 124554051718 -->
<g id="node2" class="node">
<title>124554051718</title>
<polygon fill="none" stroke="black" points="297.25,-39.5 153,-39.5 153,0 297.25,0 297.25,-39.5"/>
<text xml:space="preserve" text-anchor="start" x="161" y="-22.2" font-family="Times,serif" font-size="14.00">METHOD_RETURN, 1032</text>
<text xml:space="preserve" text-anchor="start" x="181.25" y="-6.45" font-family="Times,serif" font-size="14.00">__builtin.str</text>
</g>
<!-- 111669149979&#45;&gt;124554051718 -->
<g id="edge2" class="edge">
<title>111669149979&#45;&gt;124554051718</title>
<path fill="none" stroke="black" d="M31.16,-239.81C27.87,-234.33 24.83,-228.16 23.12,-222 18.45,-205.08 15.52,-198.32 23.12,-182.5 54,-118.23 124.23,-71.48 173.15,-45.23"/>
<polygon fill="black" stroke="black" points="174.67,-48.38 181.91,-40.64 171.43,-42.18 174.67,-48.38"/>
<text xml:space="preserve" text-anchor="middle" x="69.75" y="-151.2" font-family="Times,serif" font-size="14.00">DDG: cls</text>
</g>
<!-- 111669149980&#45;&gt;30064773415 -->
<g id="edge8" class="edge">
<title>111669149980&#45;&gt;30064773415</title>
<path fill="none" stroke="black" d="M235.79,-297.31C233.94,-280.75 233.94,-256.8 245.38,-240 248.12,-235.97 251.44,-232.36 255.14,-229.13"/>
<polygon fill="black" stroke="black" points="257.21,-231.96 263.14,-223.18 253.03,-226.34 257.21,-231.96"/>
<text xml:space="preserve" text-anchor="middle" x="275.75" y="-254.32" font-family="Times,serif" font-size="14.00">DDG: self</text>
</g>
<!-- 141733920948 -->
<g id="node5" class="node">
<title>141733920948</title>
<polygon fill="none" stroke="black" points="820.75,-130.75 541.5,-130.75 541.5,-91.25 820.75,-91.25 820.75,-130.75"/>
<text xml:space="preserve" text-anchor="start" x="640.62" y="-113.45" font-family="Times,serif" font-size="14.00">RETURN, 1032</text>
<text xml:space="preserve" text-anchor="start" x="549.5" y="-97.7" font-family="Times,serif" font-size="14.00">return report_waitlisted_students(self)</text>
</g>
<!-- 141733920948&#45;&gt;124554051718 -->
<g id="edge1" class="edge">
<title>141733920948&#45;&gt;124554051718</title>
<path fill="none" stroke="black" d="M583.02,-90.8C501.31,-74.81 386.21,-52.28 308.8,-37.13"/>
<polygon fill="black" stroke="black" points="309.63,-33.72 299.14,-35.24 308.28,-40.59 309.63,-33.72"/>
<text xml:space="preserve" text-anchor="middle" x="514.18" y="-59.95" font-family="Times,serif" font-size="14.00">DDG: &lt;RET&gt;</text>
</g>
<!-- 30064773415&#45;&gt;124554051718 -->
<g id="edge3" class="edge">
<title>30064773415&#45;&gt;124554051718</title>
<path fill="none" stroke="black" d="M256.2,-182.15C231.45,-171.27 205.66,-154.87 191.38,-130.75 176.3,-105.3 189.96,-72.49 204.15,-49.34"/>
<polygon fill="black" stroke="black" points="207.04,-51.32 209.57,-41.03 201.18,-47.49 207.04,-51.32"/>
<text xml:space="preserve" text-anchor="middle" x="221.75" y="-105.58" font-family="Times,serif" font-size="14.00">DDG: self</text>
</g>
<!-- 30064773415&#45;&gt;124554051718 -->
<g id="edge4" class="edge">
<title>30064773415&#45;&gt;124554051718</title>
<path fill="none" stroke="black" d="M309.81,-182.13C302.19,-167.97 291.58,-148.18 282.38,-130.75 267.95,-103.43 251.71,-72.17 240.22,-49.97"/>
<polygon fill="black" stroke="black" points="243.38,-48.48 235.68,-41.21 237.17,-51.7 243.38,-48.48"/>
<text xml:space="preserve" text-anchor="middle" x="407.25" y="-105.58" font-family="Times,serif" font-size="14.00">DDG: report_waitlisted_students(self)</text>
</g>
<!-- 30064773415&#45;&gt;141733920948 -->
<g id="edge7" class="edge">
<title>30064773415&#45;&gt;141733920948</title>
<path fill="none" stroke="black" d="M397.57,-182.1C454.81,-167.95 532.85,-148.66 592.57,-133.89"/>
<polygon fill="black" stroke="black" points="593.16,-137.35 602.03,-131.55 591.48,-130.56 593.16,-137.35"/>
<text xml:space="preserve" text-anchor="middle" x="647.11" y="-151.2" font-family="Times,serif" font-size="14.00">DDG: report_waitlisted_students(self)</text>
</g>
</g>
</svg>
