<?xml version="1.0" encoding="UTF-8" standalone="no"?>
<!DOCTYPE svg PUBLIC "-//W3C//DTD SVG 1.1//EN"
 "http://www.w3.org/Graphics/SVG/1.1/DTD/svg11.dtd">
<!-- Generated by graphviz version 13.1.2 (20250809.0930)
 -->
<!-- Title: cli_remove_student Pages: 1 -->
<svg width="2472pt" height="765pt"
 viewBox="0.00 0.00 2472.00 765.00" xmlns="http://www.w3.org/2000/svg" xmlns:xlink="http://www.w3.org/1999/xlink">
<g id="graph0" class="graph" transform="scale(1 1) rotate(0) translate(4 761.25)">
<title>cli_remove_student</title>
<polygon fill="white" stroke="none" points="-4,4 -4,-761.25 2468,-761.25 2468,4 -4,4"/>
<!-- 107374182543 -->
<g id="node1" class="node">
<title>107374182543</title>
<polygon fill="none" stroke="black" points="1174.75,-757.25 1037.25,-757.25 1037.25,-717.75 1174.75,-717.75 1174.75,-757.25"/>
<text xml:space="preserve" text-anchor="start" x="1065.5" y="-739.95" font-family="Times,serif" font-size="14.00">METHOD, 1260</text>
<text xml:space="preserve" text-anchor="start" x="1045.25" y="-724.2" font-family="Times,serif" font-size="14.00">cli_remove_student</text>
</g>
<!-- 111669149996 -->
<g id="node3" class="node">
<title>111669149996</title>
<polygon fill="none" stroke="black" points="1151.12,-592.75 1060.88,-592.75 1060.88,-553.25 1151.12,-553.25 1151.12,-592.75"/>
<text xml:space="preserve" text-anchor="start" x="1068.88" y="-575.45" font-family="Times,serif" font-size="14.00">PARAM, 1260</text>
<text xml:space="preserve" text-anchor="start" x="1085.75" y="-559.7" font-family="Times,serif" font-size="14.00">system</text>
</g>
<!-- 107374182543&#45;&gt;111669149996 -->
<g id="edge13" class="edge">
<title>107374182543&#45;&gt;111669149996</title>
<path fill="none" stroke="black" d="M1106,-717.54C1106,-689.73 1106,-637.58 1106,-604.38"/>
<polygon fill="black" stroke="black" points="1109.5,-604.6 1106,-594.6 1102.5,-604.6 1109.5,-604.6"/>
<text xml:space="preserve" text-anchor="middle" x="1122.88" y="-686.45" font-family="Times,serif" font-size="14.00">DDG: </text>
</g>
<!-- 30064773547 -->
<g id="node4" class="node">
<title>30064773547</title>
<polygon fill="none" stroke="black" points="1043.75,-329 690.25,-329 690.25,-289.5 1043.75,-289.5 1043.75,-329"/>
<text xml:space="preserve" text-anchor="start" x="775.88" y="-311.7" font-family="Times,serif" font-size="14.00">&lt;operator&gt;.assignment, 1261</text>
<text xml:space="preserve" text-anchor="start" x="698.25" y="-295.95" font-family="Times,serif" font-size="14.00">student_id = tmp255 = input(&quot;Student ID to remo...</text>
</g>
<!-- 107374182543&#45;&gt;30064773547 -->
<g id="edge15" class="edge">
<title>107374182543&#45;&gt;30064773547</title>
<path fill="none" stroke="black" d="M1084.66,-717.55C1066.73,-699.45 1044,-670.38 1044,-639.38 1044,-639.38 1044,-639.38 1044,-399.5 1044,-375.35 1047.4,-363.74 1030,-347 1024.35,-341.57 1013.82,-336.79 1000.72,-332.63"/>
<polygon fill="black" stroke="black" points="1001.74,-329.28 991.16,-329.85 999.79,-336 1001.74,-329.28"/>
<text xml:space="preserve" text-anchor="middle" x="1060.88" y="-510.07" font-family="Times,serif" font-size="14.00">DDG: </text>
</g>
<!-- 30064773552 -->
<g id="node6" class="node">
<title>30064773552</title>
<polygon fill="none" stroke="black" points="1832.75,-130.75 1479.25,-130.75 1479.25,-91.25 1832.75,-91.25 1832.75,-130.75"/>
<text xml:space="preserve" text-anchor="start" x="1618.88" y="-113.45" font-family="Times,serif" font-size="14.00">print, 1263</text>
<text xml:space="preserve" text-anchor="start" x="1487.25" y="-97.7" font-family="Times,serif" font-size="14.00">print(&quot;Student removed.&quot; if success else &quot;Faile...</text>
</g>
<!-- 107374182543&#45;&gt;30064773552 -->
<g id="edge22" class="edge">
<title>107374182543&#45;&gt;30064773552</title>
<path fill="none" stroke="black" d="M1174.97,-726.48C1257.59,-712.5 1385,-683.74 1385,-639.38 1385,-639.38 1385,-639.38 1385,-217 1385,-180.63 1470.94,-151.93 1546.02,-133.79"/>
<polygon fill="black" stroke="black" points="1546.61,-137.24 1555.54,-131.54 1545,-130.43 1546.61,-137.24"/>
<text xml:space="preserve" text-anchor="middle" x="1401.88" y="-395.07" font-family="Times,serif" font-size="14.00">DDG: </text>
</g>
<!-- 68719479174 -->
<g id="node7" class="node">
<title>68719479174</title>
<polygon fill="none" stroke="black" points="1836.75,-666 1483.25,-666 1483.25,-610.75 1836.75,-610.75 1836.75,-666"/>
<text xml:space="preserve" text-anchor="start" x="1606" y="-648.7" font-family="Times,serif" font-size="14.00">IDENTIFIER, 1263</text>
<text xml:space="preserve" text-anchor="start" x="1643.12" y="-632.95" font-family="Times,serif" font-size="14.00">print</text>
<text xml:space="preserve" text-anchor="start" x="1491.25" y="-617.2" font-family="Times,serif" font-size="14.00">print(&quot;Student removed.&quot; if success else &quot;Faile...</text>
</g>
<!-- 107374182543&#45;&gt;68719479174 -->
<g id="edge21" class="edge">
<title>107374182543&#45;&gt;68719479174</title>
<path fill="none" stroke="black" d="M1175,-732.38C1243.85,-727.49 1352.44,-717.64 1445,-699.75 1484.84,-692.05 1528.05,-680.56 1565.2,-669.65"/>
<polygon fill="black" stroke="black" points="1565.98,-673.08 1574.57,-666.88 1563.99,-666.36 1565.98,-673.08"/>
<text xml:space="preserve" text-anchor="middle" x="1527.64" y="-686.45" font-family="Times,serif" font-size="14.00">DDG: </text>
</g>
<!-- 30064773546 -->
<g id="node9" class="node">
<title>30064773546</title>
<polygon fill="none" stroke="black" points="784.62,-420.25 505.38,-420.25 505.38,-380.75 784.62,-380.75 784.62,-420.25"/>
<text xml:space="preserve" text-anchor="start" x="607.88" y="-402.95" font-family="Times,serif" font-size="14.00">strip, 1261</text>
<text xml:space="preserve" text-anchor="start" x="513.38" y="-387.2" font-family="Times,serif" font-size="14.00">input(&quot;Student ID to remove: &quot;).strip()</text>
</g>
<!-- 107374182543&#45;&gt;30064773546 -->
<g id="edge29" class="edge">
<title>107374182543&#45;&gt;30064773546</title>
<path fill="none" stroke="black" d="M1055.96,-717.42C1046.71,-712.53 1037.59,-706.65 1030,-699.75 995.77,-668.62 1008.41,-643.77 976,-610.75 892.64,-525.85 768.56,-459.23 698.39,-425.58"/>
<polygon fill="black" stroke="black" points="699.93,-422.44 689.39,-421.31 696.92,-428.76 699.93,-422.44"/>
<text xml:space="preserve" text-anchor="middle" x="972.47" y="-567.58" font-family="Times,serif" font-size="14.00">DDG: </text>
</g>
<!-- 30064773549 -->
<g id="node10" class="node">
<title>30064773549</title>
<polygon fill="none" stroke="black" points="1242.38,-237.75 1003.62,-237.75 1003.62,-198.25 1242.38,-198.25 1242.38,-237.75"/>
<text xml:space="preserve" text-anchor="start" x="1055.5" y="-220.45" font-family="Times,serif" font-size="14.00">remove_student, 1262</text>
<text xml:space="preserve" text-anchor="start" x="1011.62" y="-204.7" font-family="Times,serif" font-size="14.00">system.remove_student(student_id)</text>
</g>
<!-- 107374182543&#45;&gt;30064773549 -->
<g id="edge25" class="edge">
<title>107374182543&#45;&gt;30064773549</title>
<path fill="none" stroke="black" d="M1147.19,-717.38C1175.5,-701.1 1208,-674.71 1208,-639.38 1208,-639.38 1208,-639.38 1208,-308.25 1208,-281.6 1187.87,-259.75 1167.21,-244.34"/>
<polygon fill="black" stroke="black" points="1169.5,-241.67 1159.3,-238.8 1165.48,-247.41 1169.5,-241.67"/>
<text xml:space="preserve" text-anchor="middle" x="1224.88" y="-452.57" font-family="Times,serif" font-size="14.00">DDG: </text>
</g>
<!-- 30064773551 -->
<g id="node11" class="node">
<title>30064773551</title>
<polygon fill="none" stroke="black" points="2156.75,-477.75 1803.25,-477.75 1803.25,-438.25 2156.75,-438.25 2156.75,-477.75"/>
<text xml:space="preserve" text-anchor="start" x="1885.5" y="-460.45" font-family="Times,serif" font-size="14.00">&lt;operator&gt;.conditional, 1263</text>
<text xml:space="preserve" text-anchor="start" x="1811.25" y="-444.7" font-family="Times,serif" font-size="14.00">&quot;Student removed.&quot; if success else &quot;Failed to r...</text>
</g>
<!-- 107374182543&#45;&gt;30064773551 -->
<g id="edge27" class="edge">
<title>107374182543&#45;&gt;30064773551</title>
<path fill="none" stroke="black" d="M1175.08,-735.42C1250.28,-732.94 1364.43,-725 1399,-699.75 1434.21,-674.04 1407.06,-639.02 1440.25,-610.75 1538.06,-527.46 1678.48,-489.71 1791.57,-472.69"/>
<polygon fill="black" stroke="black" points="1791.89,-476.18 1801.28,-471.28 1790.88,-469.26 1791.89,-476.18"/>
<text xml:space="preserve" text-anchor="middle" x="1457.12" y="-632.95" font-family="Times,serif" font-size="14.00">DDG: </text>
</g>
<!-- 68719479164 -->
<g id="node12" class="node">
<title>68719479164</title>
<polygon fill="none" stroke="black" points="723.62,-666 498.38,-666 498.38,-610.75 723.62,-610.75 723.62,-666"/>
<text xml:space="preserve" text-anchor="start" x="557" y="-648.7" font-family="Times,serif" font-size="14.00">IDENTIFIER, 1261</text>
<text xml:space="preserve" text-anchor="start" x="594.12" y="-632.95" font-family="Times,serif" font-size="14.00">input</text>
<text xml:space="preserve" text-anchor="start" x="506.38" y="-617.2" font-family="Times,serif" font-size="14.00">input(&quot;Student ID to remove: &quot;)</text>
</g>
<!-- 107374182543&#45;&gt;68719479164 -->
<g id="edge31" class="edge">
<title>107374182543&#45;&gt;68719479164</title>
<path fill="none" stroke="black" d="M1036.84,-726.41C991.83,-719.56 931.91,-709.93 879.25,-699.75 831.95,-690.6 780.25,-679.28 734.97,-668.93"/>
<polygon fill="black" stroke="black" points="735.91,-665.55 725.38,-666.73 734.35,-672.37 735.91,-665.55"/>
<text xml:space="preserve" text-anchor="middle" x="896.12" y="-686.45" font-family="Times,serif" font-size="14.00">DDG: </text>
</g>
<!-- 30064773543 -->
<g id="node13" class="node">
<title>30064773543</title>
<polygon fill="none" stroke="black" points="966.62,-658.12 741.38,-658.12 741.38,-618.62 966.62,-618.62 966.62,-658.12"/>
<text xml:space="preserve" text-anchor="start" x="816.88" y="-640.83" font-family="Times,serif" font-size="14.00">input, 1261</text>
<text xml:space="preserve" text-anchor="start" x="749.38" y="-625.08" font-family="Times,serif" font-size="14.00">input(&quot;Student ID to remove: &quot;)</text>
</g>
<!-- 107374182543&#45;&gt;30064773543 -->
<g id="edge32" class="edge">
<title>107374182543&#45;&gt;30064773543</title>
<path fill="none" stroke="black" d="M1036.77,-725.89C1008.33,-720.16 975.51,-711.73 947.25,-699.75 926.13,-690.79 904.5,-677.12 887.39,-665.05"/>
<polygon fill="black" stroke="black" points="889.77,-662.45 879.62,-659.44 885.68,-668.13 889.77,-662.45"/>
<text xml:space="preserve" text-anchor="middle" x="964.12" y="-686.45" font-family="Times,serif" font-size="14.00">DDG: </text>
</g>
<!-- 124554051727 -->
<g id="node2" class="node">
<title>124554051727</title>
<polygon fill="none" stroke="black" points="796.12,-39.5 651.88,-39.5 651.88,0 796.12,0 796.12,-39.5"/>
<text xml:space="preserve" text-anchor="start" x="659.88" y="-22.2" font-family="Times,serif" font-size="14.00">METHOD_RETURN, 1260</text>
<text xml:space="preserve" text-anchor="start" x="713.88" y="-6.45" font-family="Times,serif" font-size="14.00">ANY</text>
</g>
<!-- 111669149996&#45;&gt;30064773549 -->
<g id="edge24" class="edge">
<title>111669149996&#45;&gt;30064773549</title>
<path fill="none" stroke="black" d="M1106,-552.81C1106,-530.32 1106,-491.96 1106,-459 1106,-459 1106,-459 1106,-308.25 1106,-288.26 1110.17,-266.18 1114.38,-248.99"/>
<polygon fill="black" stroke="black" points="1117.74,-249.98 1116.86,-239.42 1110.96,-248.21 1117.74,-249.98"/>
<text xml:space="preserve" text-anchor="middle" x="1143.12" y="-395.07" font-family="Times,serif" font-size="14.00">DDG: system</text>
</g>
<!-- 30064773547&#45;&gt;124554051727 -->
<g id="edge5" class="edge">
<title>30064773547&#45;&gt;124554051727</title>
<path fill="none" stroke="black" d="M845.77,-289.27C818.71,-265.75 769.78,-225.44 723,-198.25 705.26,-187.94 691.83,-197.35 680.5,-180.25 653.59,-139.63 681.49,-82.75 703.35,-49.04"/>
<polygon fill="black" stroke="black" points="706.06,-51.27 708.74,-41.02 700.25,-47.37 706.06,-51.27"/>
<text xml:space="preserve" text-anchor="middle" x="876.25" y="-166.95" font-family="Times,serif" font-size="14.00">DDG: student_id = tmp255 = input(&quot;Student ID to remove: &quot;)</text>
<text xml:space="preserve" text-anchor="middle" x="876.25" y="-151.2" font-family="Times,serif" font-size="14.00">input(&quot;Student ID to remove: &quot;).strip()</text>
</g>
<!-- 30064773547&#45;&gt;30064773549 -->
<g id="edge26" class="edge">
<title>30064773547&#45;&gt;30064773549</title>
<path fill="none" stroke="black" d="M908.57,-289.01C932.34,-278.42 962.88,-265.49 990.75,-255.75 1005.32,-250.66 1020.99,-245.79 1036.26,-241.36"/>
<polygon fill="black" stroke="black" points="1037.18,-244.74 1045.83,-238.63 1035.26,-238.01 1037.18,-244.74"/>
<text xml:space="preserve" text-anchor="middle" x="1041.38" y="-258.2" font-family="Times,serif" font-size="14.00">DDG: student_id</text>
</g>
<!-- 30064773550 -->
<g id="node5" class="node">
<title>30064773550</title>
<polygon fill="none" stroke="black" points="1258.12,-130.75 951.88,-130.75 951.88,-91.25 1258.12,-91.25 1258.12,-130.75"/>
<text xml:space="preserve" text-anchor="start" x="1013.88" y="-113.45" font-family="Times,serif" font-size="14.00">&lt;operator&gt;.assignment, 1262</text>
<text xml:space="preserve" text-anchor="start" x="959.88" y="-97.7" font-family="Times,serif" font-size="14.00">success = system.remove_student(student_id)</text>
</g>
<!-- 30064773550&#45;&gt;124554051727 -->
<g id="edge8" class="edge">
<title>30064773550&#45;&gt;124554051727</title>
<path fill="none" stroke="black" d="M1096.02,-91C1089.42,-79.29 1079.31,-65.11 1066,-57.5 1023.4,-33.14 894.51,-24.91 807.7,-22.14"/>
<polygon fill="black" stroke="black" points="807.89,-18.64 797.79,-21.84 807.68,-25.64 807.89,-18.64"/>
<text xml:space="preserve" text-anchor="middle" x="1211.57" y="-59.95" font-family="Times,serif" font-size="14.00">DDG: system.remove_student(student_id)</text>
</g>
<!-- 30064773550&#45;&gt;124554051727 -->
<g id="edge9" class="edge">
<title>30064773550&#45;&gt;124554051727</title>
<path fill="none" stroke="black" d="M951.44,-96.58C852.8,-87.65 742.29,-76.9 738,-73.25 731.43,-67.66 727.77,-59.37 725.77,-51.01"/>
<polygon fill="black" stroke="black" points="729.26,-50.64 724.21,-41.33 722.35,-51.76 729.26,-50.64"/>
<text xml:space="preserve" text-anchor="middle" x="900" y="-59.95" font-family="Times,serif" font-size="14.00">DDG: success = system.remove_student(student_id)</text>
</g>
<!-- 30064773552&#45;&gt;124554051727 -->
<g id="edge11" class="edge">
<title>30064773552&#45;&gt;124554051727</title>
<path fill="none" stroke="black" d="M1478.86,-91.26C1442.91,-86.04 1410.88,-79.94 1393.75,-73.25 1382.3,-68.78 1382.63,-61.5 1371,-57.5 1269.32,-22.54 958.77,-19.3 807.96,-19.9"/>
<polygon fill="black" stroke="black" points="808,-16.4 798.01,-19.95 808.03,-23.4 808,-16.4"/>
<text xml:space="preserve" text-anchor="middle" x="1619.88" y="-59.95" font-family="Times,serif" font-size="14.00">DDG: &quot;Student removed.&quot; if success else &quot;Failed to remove student.&quot;</text>
</g>
<!-- 30064773552&#45;&gt;124554051727 -->
<g id="edge12" class="edge">
<title>30064773552&#45;&gt;124554051727</title>
<path fill="none" stroke="black" d="M1832.97,-96.2C1854.81,-88.25 1863.97,-76.07 1846,-57.5 1810.04,-20.35 1062.52,-19.54 808,-20.35"/>
<polygon fill="black" stroke="black" points="808.12,-16.85 798.13,-20.38 808.14,-23.85 808.12,-16.85"/>
<text xml:space="preserve" text-anchor="middle" x="2104.67" y="-59.95" font-family="Times,serif" font-size="14.00">DDG: print(&quot;Student removed.&quot; if success else &quot;Failed to remove student.&quot;)</text>
</g>
<!-- 30064773544 -->
<g id="node8" class="node">
<title>30064773544</title>
<polygon fill="none" stroke="black" points="504,-535.25 218,-535.25 218,-495.75 504,-495.75 504,-535.25"/>
<text xml:space="preserve" text-anchor="start" x="269.88" y="-517.95" font-family="Times,serif" font-size="14.00">&lt;operator&gt;.assignment, 1261</text>
<text xml:space="preserve" text-anchor="start" x="226" y="-502.2" font-family="Times,serif" font-size="14.00">tmp255 = input(&quot;Student ID to remove: &quot;)</text>
</g>
<!-- 30064773544&#45;&gt;124554051727 -->
<g id="edge1" class="edge">
<title>30064773544&#45;&gt;124554051727</title>
<path fill="none" stroke="black" d="M217.55,-496.26C116.82,-479.3 0,-449.32 0,-401.5 0,-401.5 0,-401.5 0,-110 0,-46.12 449.68,-27.5 640.25,-22.47"/>
<polygon fill="black" stroke="black" points="640.18,-25.97 650.09,-22.22 640,-18.97 640.18,-25.97"/>
<text xml:space="preserve" text-anchor="middle" x="121.5" y="-258.2" font-family="Times,serif" font-size="14.00">DDG: input(&quot;Student ID to remove: &quot;)</text>
</g>
<!-- 30064773544&#45;&gt;124554051727 -->
<g id="edge2" class="edge">
<title>30064773544&#45;&gt;124554051727</title>
<path fill="none" stroke="black" d="M329.89,-495.3C302.19,-475.55 266,-442 266,-401.5 266,-401.5 266,-401.5 266,-110 266,-34.63 507.97,-21.67 640.16,-20.22"/>
<polygon fill="black" stroke="black" points="639.95,-23.72 649.92,-20.13 639.88,-16.72 639.95,-23.72"/>
<text xml:space="preserve" text-anchor="middle" x="417.88" y="-258.2" font-family="Times,serif" font-size="14.00">DDG: tmp255 = input(&quot;Student ID to remove: &quot;)</text>
</g>
<!-- 30064773544&#45;&gt;30064773546 -->
<g id="edge28" class="edge">
<title>30064773544&#45;&gt;30064773546</title>
<path fill="none" stroke="black" d="M409.18,-495.33C458.18,-475.83 534.17,-445.6 586.58,-424.74"/>
<polygon fill="black" stroke="black" points="587.66,-428.08 595.66,-421.13 585.07,-421.58 587.66,-428.08"/>
<text xml:space="preserve" text-anchor="middle" x="582.16" y="-452.57" font-family="Times,serif" font-size="14.00">DDG: tmp255</text>
</g>
<!-- 30064773546&#45;&gt;124554051727 -->
<g id="edge3" class="edge">
<title>30064773546&#45;&gt;124554051727</title>
<path fill="none" stroke="black" d="M645,-380.35C645,-362.28 645,-334.42 645,-310.25 645,-310.25 645,-310.25 645,-110 645,-84.28 663.63,-62.49 682.79,-46.88"/>
<polygon fill="black" stroke="black" points="684.85,-49.72 690.67,-40.86 680.6,-44.16 684.85,-49.72"/>
<text xml:space="preserve" text-anchor="middle" x="682.12" y="-212.57" font-family="Times,serif" font-size="14.00">DDG: tmp255</text>
</g>
<!-- 30064773546&#45;&gt;124554051727 -->
<g id="edge4" class="edge">
<title>30064773546&#45;&gt;124554051727</title>
<path fill="none" stroke="black" d="M641.37,-380.37C634.19,-348.4 614.9,-284.78 571,-255.75 525.47,-225.63 363.16,-277.74 326,-237.75 314.05,-224.89 316.44,-212.98 326,-198.25 395.36,-91.37 545.7,-48.3 640.46,-31.33"/>
<polygon fill="black" stroke="black" points="640.98,-34.8 650.24,-29.65 639.79,-27.9 640.98,-34.8"/>
<text xml:space="preserve" text-anchor="middle" x="474.5" y="-212.57" font-family="Times,serif" font-size="14.00">DDG: input(&quot;Student ID to remove: &quot;).strip()</text>
</g>
<!-- 30064773546&#45;&gt;30064773547 -->
<g id="edge14" class="edge">
<title>30064773546&#45;&gt;30064773547</title>
<path fill="none" stroke="black" d="M672.51,-380.45C689.36,-369.46 711.72,-356.07 733,-347 745.52,-341.67 759.03,-336.9 772.49,-332.7"/>
<polygon fill="black" stroke="black" points="773.23,-336.14 781.8,-329.9 771.21,-329.43 773.23,-336.14"/>
<text xml:space="preserve" text-anchor="middle" x="881.5" y="-349.45" font-family="Times,serif" font-size="14.00">DDG: input(&quot;Student ID to remove: &quot;).strip()</text>
</g>
<!-- 30064773549&#45;&gt;124554051727 -->
<g id="edge6" class="edge">
<title>30064773549&#45;&gt;124554051727</title>
<path fill="none" stroke="black" d="M1115.39,-197.81C1107.92,-181.75 1094.9,-159.75 1076,-148.75 1036.05,-125.49 913.74,-141.4 868.75,-130.75 801.39,-114.81 762.88,-130.53 724,-73.25 719.65,-66.84 718.19,-58.9 718.18,-51.15"/>
<polygon fill="black" stroke="black" points="721.66,-51.52 718.97,-41.27 714.68,-50.96 721.66,-51.52"/>
<text xml:space="preserve" text-anchor="middle" x="905.88" y="-105.58" font-family="Times,serif" font-size="14.00">DDG: system</text>
</g>
<!-- 30064773549&#45;&gt;124554051727 -->
<g id="edge7" class="edge">
<title>30064773549&#45;&gt;124554051727</title>
<path fill="none" stroke="black" d="M1242.55,-202.26C1270.51,-196.76 1295.28,-189.53 1306,-180.25 1349.17,-142.86 1383.17,-99.06 1344,-57.5 1325.89,-38.29 972.53,-26.96 807.54,-22.7"/>
<polygon fill="black" stroke="black" points="808.07,-19.21 797.98,-22.46 807.89,-26.21 808.07,-19.21"/>
<text xml:space="preserve" text-anchor="middle" x="1411.86" y="-105.58" font-family="Times,serif" font-size="14.00">DDG: student_id</text>
</g>
<!-- 30064773549&#45;&gt;30064773550 -->
<g id="edge16" class="edge">
<title>30064773549&#45;&gt;30064773550</title>
<path fill="none" stroke="black" d="M1119.78,-198.23C1117.11,-182.65 1113.26,-160.19 1110.16,-142.1"/>
<polygon fill="black" stroke="black" points="1113.65,-141.72 1108.51,-132.46 1106.75,-142.9 1113.65,-141.72"/>
<text xml:space="preserve" text-anchor="middle" x="1153.79" y="-159.07" font-family="Times,serif" font-size="14.00">DDG: system</text>
</g>
<!-- 30064773549&#45;&gt;30064773550 -->
<g id="edge17" class="edge">
<title>30064773549&#45;&gt;30064773550</title>
<path fill="none" stroke="black" d="M1177.61,-197.75C1184.52,-193.07 1190.68,-187.31 1195,-180.25 1202.31,-168.31 1202.81,-160.37 1195,-148.75 1192.3,-144.73 1189.07,-141.15 1185.48,-137.96"/>
<polygon fill="black" stroke="black" points="1187.78,-135.32 1177.68,-132.12 1183.58,-140.92 1187.78,-135.32"/>
<text xml:space="preserve" text-anchor="middle" x="1251.29" y="-159.07" font-family="Times,serif" font-size="14.00">DDG: student_id</text>
</g>
<!-- 30064773551&#45;&gt;124554051727 -->
<g id="edge10" class="edge">
<title>30064773551&#45;&gt;124554051727</title>
<path fill="none" stroke="black" d="M2157.05,-444.18C2265.26,-431.28 2383,-405.78 2383,-355.88 2383,-355.88 2383,-355.88 2383,-110 2383,-84.16 2379.7,-71.54 2358,-57.5 2325.18,-36.26 1137.21,-24.35 807.89,-21.45"/>
<polygon fill="black" stroke="black" points="808.08,-17.95 798.05,-21.36 808.02,-24.95 808.08,-17.95"/>
<text xml:space="preserve" text-anchor="middle" x="2423.5" y="-258.2" font-family="Times,serif" font-size="14.00">DDG: success</text>
</g>
<!-- 30064773543&#45;&gt;30064773544 -->
<g id="edge23" class="edge">
<title>30064773543&#45;&gt;30064773544</title>
<path fill="none" stroke="black" d="M775.61,-618.16C687.11,-596.46 543.39,-561.22 450.54,-538.45"/>
<polygon fill="black" stroke="black" points="451.49,-535.08 440.94,-536.1 449.82,-541.88 451.49,-535.08"/>
<text xml:space="preserve" text-anchor="middle" x="764.03" y="-567.58" font-family="Times,serif" font-size="14.00">DDG: &quot;Student ID to remove: &quot;</text>
</g>
<!-- 30064771076 -->
<g id="node14" class="node">
<title>30064771076</title>
<polygon fill="none" stroke="black" points="1597.12,-755.5 1506.88,-755.5 1506.88,-719.5 1597.12,-719.5 1597.12,-755.5"/>
<text xml:space="preserve" text-anchor="middle" x="1552" y="-732.08" font-family="Times,serif" font-size="14.00">30064771076</text>
</g>
<!-- 30064771076&#45;&gt;68719479174 -->
<g id="edge18" class="edge">
<title>30064771076&#45;&gt;68719479174</title>
<path fill="none" stroke="black" d="M1561.63,-719.08C1568.23,-708.16 1577.72,-694.25 1588.5,-684 1592.57,-680.13 1597.03,-676.41 1601.66,-672.9"/>
<polygon fill="black" stroke="black" points="1603.43,-675.94 1609.52,-667.27 1599.35,-670.25 1603.43,-675.94"/>
<text xml:space="preserve" text-anchor="middle" x="1622.25" y="-686.45" font-family="Times,serif" font-size="14.00">DDG: print</text>
</g>
<!-- 68719479589 -->
<g id="node15" class="node">
<title>68719479589</title>
<polygon fill="none" stroke="black" points="1705.12,-755.5 1614.88,-755.5 1614.88,-719.5 1705.12,-719.5 1705.12,-755.5"/>
<text xml:space="preserve" text-anchor="middle" x="1660" y="-732.08" font-family="Times,serif" font-size="14.00">68719479589</text>
</g>
<!-- 68719479589&#45;&gt;68719479174 -->
<g id="edge19" class="edge">
<title>68719479589&#45;&gt;68719479174</title>
<path fill="none" stroke="black" d="M1660,-719.14C1660,-707.6 1660,-691.98 1660,-677.63"/>
<polygon fill="black" stroke="black" points="1663.5,-678 1660,-668 1656.5,-678 1663.5,-678"/>
<text xml:space="preserve" text-anchor="middle" x="1693.75" y="-686.45" font-family="Times,serif" font-size="14.00">DDG: print</text>
</g>
<!-- 68719479592 -->
<g id="node16" class="node">
<title>68719479592</title>
<polygon fill="none" stroke="black" points="1813.12,-755.5 1722.88,-755.5 1722.88,-719.5 1813.12,-719.5 1813.12,-755.5"/>
<text xml:space="preserve" text-anchor="middle" x="1768" y="-732.08" font-family="Times,serif" font-size="14.00">68719479592</text>
</g>
<!-- 68719479592&#45;&gt;68719479174 -->
<g id="edge20" class="edge">
<title>68719479592&#45;&gt;68719479174</title>
<path fill="none" stroke="black" d="M1758.56,-719.06C1752.07,-708.13 1742.71,-694.23 1732,-684 1727.92,-680.1 1723.44,-676.37 1718.78,-672.84"/>
<polygon fill="black" stroke="black" points="1721.04,-670.16 1710.87,-667.19 1716.97,-675.85 1721.04,-670.16"/>
<text xml:space="preserve" text-anchor="middle" x="1779.49" y="-686.45" font-family="Times,serif" font-size="14.00">DDG: print</text>
</g>
<!-- 30064771073 -->
<g id="node17" class="node">
<title>30064771073</title>
<polygon fill="none" stroke="black" points="656.12,-755.5 565.88,-755.5 565.88,-719.5 656.12,-719.5 656.12,-755.5"/>
<text xml:space="preserve" text-anchor="middle" x="611" y="-732.08" font-family="Times,serif" font-size="14.00">30064771073</text>
</g>
<!-- 30064771073&#45;&gt;68719479164 -->
<g id="edge30" class="edge">
<title>30064771073&#45;&gt;68719479164</title>
<path fill="none" stroke="black" d="M611,-719.14C611,-707.6 611,-691.98 611,-677.63"/>
<polygon fill="black" stroke="black" points="614.5,-678 611,-668 607.5,-678 614.5,-678"/>
<text xml:space="preserve" text-anchor="middle" x="644.75" y="-686.45" font-family="Times,serif" font-size="14.00">DDG: input</text>
</g>
</g>
</svg>
