<?xml version="1.0" encoding="UTF-8" standalone="no"?>
<!DOCTYPE svg PUBLIC "-//W3C//DTD SVG 1.1//EN"
 "http://www.w3.org/Graphics/SVG/1.1/DTD/svg11.dtd">
<!-- Generated by graphviz version 13.1.2 (20250809.0930)
 -->
<!-- Title: cli_remove_course Pages: 1 -->
<svg width="2125pt" height="742pt"
 viewBox="0.00 0.00 2125.00 742.00" xmlns="http://www.w3.org/2000/svg" xmlns:xlink="http://www.w3.org/1999/xlink">
<g id="graph0" class="graph" transform="scale(1 1) rotate(0) translate(4 737.5)">
<title>cli_remove_course</title>
<polygon fill="white" stroke="none" points="-4,4 -4,-737.5 2121.24,-737.5 2121.24,4 -4,4"/>
<!-- 107374182545 -->
<g id="node1" class="node">
<title>107374182545</title>
<polygon fill="none" stroke="black" points="1204.38,-733.5 1073.62,-733.5 1073.62,-694 1204.38,-694 1204.38,-733.5"/>
<text xml:space="preserve" text-anchor="start" x="1098.5" y="-716.2" font-family="Times,serif" font-size="14.00">METHOD, 1279</text>
<text xml:space="preserve" text-anchor="start" x="1081.62" y="-700.45" font-family="Times,serif" font-size="14.00">cli_remove_course</text>
</g>
<!-- 111669149998 -->
<g id="node3" class="node">
<title>111669149998</title>
<polygon fill="none" stroke="black" points="306.12,-569 215.88,-569 215.88,-529.5 306.12,-529.5 306.12,-569"/>
<text xml:space="preserve" text-anchor="start" x="223.88" y="-551.7" font-family="Times,serif" font-size="14.00">PARAM, 1279</text>
<text xml:space="preserve" text-anchor="start" x="240.75" y="-535.95" font-family="Times,serif" font-size="14.00">system</text>
</g>
<!-- 107374182545&#45;&gt;111669149998 -->
<g id="edge12" class="edge">
<title>107374182545&#45;&gt;111669149998</title>
<path fill="none" stroke="black" d="M1073.32,-712.07C903.28,-709.93 457.66,-701.91 396.25,-676 346.99,-655.22 304.52,-608.16 280.89,-577.87"/>
<polygon fill="black" stroke="black" points="283.94,-576.09 275.1,-570.26 278.37,-580.33 283.94,-576.09"/>
<text xml:space="preserve" text-anchor="middle" x="413.12" y="-662.7" font-family="Times,serif" font-size="14.00">DDG: </text>
</g>
<!-- 30064773604 -->
<g id="node4" class="node">
<title>30064773604</title>
<polygon fill="none" stroke="black" points="549.75,-329 196.25,-329 196.25,-289.5 549.75,-289.5 549.75,-329"/>
<text xml:space="preserve" text-anchor="start" x="281.88" y="-311.7" font-family="Times,serif" font-size="14.00">&lt;operator&gt;.assignment, 1280</text>
<text xml:space="preserve" text-anchor="start" x="204.25" y="-295.95" font-family="Times,serif" font-size="14.00">course_code = tmp262 = input(&quot;Course code to re...</text>
</g>
<!-- 107374182545&#45;&gt;30064773604 -->
<g id="edge14" class="edge">
<title>107374182545&#45;&gt;30064773604</title>
<path fill="none" stroke="black" d="M1073.15,-711.84C943.21,-709.52 658.25,-701.58 564,-676 506.38,-660.36 444,-675.33 444,-615.62 444,-615.62 444,-615.62 444,-399.5 444,-374.49 426.71,-352.43 409.2,-336.5"/>
<polygon fill="black" stroke="black" points="411.68,-334.01 401.8,-330.17 407.12,-339.33 411.68,-334.01"/>
<text xml:space="preserve" text-anchor="middle" x="460.88" y="-486.32" font-family="Times,serif" font-size="14.00">DDG: </text>
</g>
<!-- 68719479233 -->
<g id="node6" class="node">
<title>68719479233</title>
<polygon fill="none" stroke="black" points="1533,-642.25 1409,-642.25 1409,-587 1533,-587 1533,-642.25"/>
<text xml:space="preserve" text-anchor="start" x="1417" y="-624.95" font-family="Times,serif" font-size="14.00">IDENTIFIER, 1282</text>
<text xml:space="preserve" text-anchor="start" x="1447.38" y="-609.2" font-family="Times,serif" font-size="14.00">success</text>
<text xml:space="preserve" text-anchor="start" x="1430.5" y="-593.45" font-family="Times,serif" font-size="14.00">if ... : ...</text>
</g>
<!-- 107374182545&#45;&gt;68719479233 -->
<g id="edge17" class="edge">
<title>107374182545&#45;&gt;68719479233</title>
<path fill="none" stroke="black" d="M1204.69,-709.11C1252.09,-704.87 1316.99,-695.72 1371,-676 1389.63,-669.2 1408.62,-658.78 1424.98,-648.5"/>
<polygon fill="black" stroke="black" points="1426.51,-651.68 1433.01,-643.32 1422.71,-645.8 1426.51,-651.68"/>
<text xml:space="preserve" text-anchor="middle" x="1419.85" y="-662.7" font-family="Times,serif" font-size="14.00">DDG: </text>
</g>
<!-- 30064773603 -->
<g id="node8" class="node">
<title>30064773603</title>
<polygon fill="none" stroke="black" points="1117,-420.25 831,-420.25 831,-380.75 1117,-380.75 1117,-420.25"/>
<text xml:space="preserve" text-anchor="start" x="936.88" y="-402.95" font-family="Times,serif" font-size="14.00">strip, 1280</text>
<text xml:space="preserve" text-anchor="start" x="839" y="-387.2" font-family="Times,serif" font-size="14.00">input(&quot;Course code to remove: &quot;).strip()</text>
</g>
<!-- 107374182545&#45;&gt;30064773603 -->
<g id="edge23" class="edge">
<title>107374182545&#45;&gt;30064773603</title>
<path fill="none" stroke="black" d="M1081.97,-693.51C1057.33,-682.33 1030.44,-665.72 1014,-642.25 969.07,-578.1 968.17,-481.08 971.14,-432.1"/>
<polygon fill="black" stroke="black" points="974.62,-432.46 971.85,-422.24 967.64,-431.96 974.62,-432.46"/>
<text xml:space="preserve" text-anchor="middle" x="998.69" y="-543.83" font-family="Times,serif" font-size="14.00">DDG: </text>
</g>
<!-- 30064773606 -->
<g id="node9" class="node">
<title>30064773606</title>
<polygon fill="none" stroke="black" points="597.38,-237.75 358.62,-237.75 358.62,-198.25 597.38,-198.25 597.38,-237.75"/>
<text xml:space="preserve" text-anchor="start" x="413.88" y="-220.45" font-family="Times,serif" font-size="14.00">remove_course, 1281</text>
<text xml:space="preserve" text-anchor="start" x="366.62" y="-204.7" font-family="Times,serif" font-size="14.00">system.remove_course(course_code)</text>
</g>
<!-- 107374182545&#45;&gt;30064773606 -->
<g id="edge20" class="edge">
<title>107374182545&#45;&gt;30064773606</title>
<path fill="none" stroke="black" d="M1073.4,-710.7C947.19,-705.71 676.04,-689.65 597,-642.25 584.53,-634.77 578,-630.16 578,-615.62 578,-615.62 578,-615.62 578,-308.25 578,-280.13 555.72,-258.67 532.19,-243.85"/>
<polygon fill="black" stroke="black" points="534.14,-240.94 523.75,-238.87 530.58,-246.96 534.14,-240.94"/>
<text xml:space="preserve" text-anchor="middle" x="594.88" y="-440.7" font-family="Times,serif" font-size="14.00">DDG: </text>
</g>
<!-- 30064773608 -->
<g id="node10" class="node">
<title>30064773608</title>
<polygon fill="none" stroke="black" points="1862,-511.5 1684,-511.5 1684,-472 1862,-472 1862,-511.5"/>
<text xml:space="preserve" text-anchor="start" x="1735.88" y="-494.2" font-family="Times,serif" font-size="14.00">print, 1283</text>
<text xml:space="preserve" text-anchor="start" x="1692" y="-478.45" font-family="Times,serif" font-size="14.00">print(&quot;Course removed.&quot;)</text>
</g>
<!-- 107374182545&#45;&gt;30064773608 -->
<g id="edge28" class="edge">
<title>107374182545&#45;&gt;30064773608</title>
<path fill="none" stroke="black" d="M1204.6,-708.28C1304.65,-700.33 1489.34,-680.79 1542,-642.25 1566.52,-624.31 1559.01,-606.57 1582.25,-587 1619.2,-555.87 1668.2,-531.94 1707.28,-515.99"/>
<polygon fill="black" stroke="black" points="1708.11,-519.43 1716.1,-512.47 1705.51,-512.93 1708.11,-519.43"/>
<text xml:space="preserve" text-anchor="middle" x="1599.12" y="-609.2" font-family="Times,serif" font-size="14.00">DDG: </text>
</g>
<!-- 30064773609 -->
<g id="node11" class="node">
<title>30064773609</title>
<polygon fill="none" stroke="black" points="1665.75,-511.5 1312.25,-511.5 1312.25,-472 1665.75,-472 1665.75,-511.5"/>
<text xml:space="preserve" text-anchor="start" x="1451.88" y="-494.2" font-family="Times,serif" font-size="14.00">print, 1285</text>
<text xml:space="preserve" text-anchor="start" x="1320.25" y="-478.45" font-family="Times,serif" font-size="14.00">print(&quot;Failed to remove course. It may not exis...</text>
</g>
<!-- 107374182545&#45;&gt;30064773609 -->
<g id="edge30" class="edge">
<title>107374182545&#45;&gt;30064773609</title>
<path fill="none" stroke="black" d="M1174.69,-693.52C1199.91,-679.72 1234.37,-660.42 1264,-642.25 1331.65,-600.77 1408.17,-548.81 1452.28,-518.35"/>
<polygon fill="black" stroke="black" points="1454.23,-521.25 1460.46,-512.68 1450.25,-515.49 1454.23,-521.25"/>
<text xml:space="preserve" text-anchor="middle" x="1364.38" y="-609.2" font-family="Times,serif" font-size="14.00">DDG: </text>
</g>
<!-- 68719479234 -->
<g id="node12" class="node">
<title>68719479234</title>
<polygon fill="none" stroke="black" points="2053,-642.25 1875,-642.25 1875,-587 2053,-587 2053,-642.25"/>
<text xml:space="preserve" text-anchor="start" x="1910" y="-624.95" font-family="Times,serif" font-size="14.00">IDENTIFIER, 1283</text>
<text xml:space="preserve" text-anchor="start" x="1947.12" y="-609.2" font-family="Times,serif" font-size="14.00">print</text>
<text xml:space="preserve" text-anchor="start" x="1883" y="-593.45" font-family="Times,serif" font-size="14.00">print(&quot;Course removed.&quot;)</text>
</g>
<!-- 107374182545&#45;&gt;68719479234 -->
<g id="edge27" class="edge">
<title>107374182545&#45;&gt;68719479234</title>
<path fill="none" stroke="black" d="M1204.73,-713.46C1303.8,-713.34 1496.83,-708.39 1657,-676 1678.28,-671.7 1682.05,-664.97 1703.25,-660.25 1770.81,-645.2 1792.41,-654.78 1863.35,-642.57"/>
<polygon fill="black" stroke="black" points="1863.97,-646.01 1873.18,-640.78 1862.72,-639.12 1863.97,-646.01"/>
<text xml:space="preserve" text-anchor="middle" x="1720.12" y="-662.7" font-family="Times,serif" font-size="14.00">DDG: </text>
</g>
<!-- 68719479235 -->
<g id="node13" class="node">
<title>68719479235</title>
<polygon fill="none" stroke="black" points="959.75,-642.25 606.25,-642.25 606.25,-587 959.75,-587 959.75,-642.25"/>
<text xml:space="preserve" text-anchor="start" x="729" y="-624.95" font-family="Times,serif" font-size="14.00">IDENTIFIER, 1285</text>
<text xml:space="preserve" text-anchor="start" x="766.12" y="-609.2" font-family="Times,serif" font-size="14.00">print</text>
<text xml:space="preserve" text-anchor="start" x="614.25" y="-593.45" font-family="Times,serif" font-size="14.00">print(&quot;Failed to remove course. It may not exis...</text>
</g>
<!-- 107374182545&#45;&gt;68719479235 -->
<g id="edge29" class="edge">
<title>107374182545&#45;&gt;68719479235</title>
<path fill="none" stroke="black" d="M1073.41,-703.73C1034.33,-697.59 983.99,-688.33 940.25,-676 912.3,-668.12 882.36,-657.27 856.2,-646.94"/>
<polygon fill="black" stroke="black" points="857.6,-643.73 847.01,-643.27 855,-650.23 857.6,-643.73"/>
<text xml:space="preserve" text-anchor="middle" x="957.12" y="-662.7" font-family="Times,serif" font-size="14.00">DDG: </text>
</g>
<!-- 68719479224 -->
<g id="node14" class="node">
<title>68719479224</title>
<polygon fill="none" stroke="black" points="1857,-642.25 1625,-642.25 1625,-587 1857,-587 1857,-642.25"/>
<text xml:space="preserve" text-anchor="start" x="1687" y="-624.95" font-family="Times,serif" font-size="14.00">IDENTIFIER, 1280</text>
<text xml:space="preserve" text-anchor="start" x="1724.12" y="-609.2" font-family="Times,serif" font-size="14.00">input</text>
<text xml:space="preserve" text-anchor="start" x="1633" y="-593.45" font-family="Times,serif" font-size="14.00">input(&quot;Course code to remove: &quot;)</text>
</g>
<!-- 107374182545&#45;&gt;68719479224 -->
<g id="edge32" class="edge">
<title>107374182545&#45;&gt;68719479224</title>
<path fill="none" stroke="black" d="M1204.52,-710.01C1310.91,-705.12 1516.42,-693.71 1587,-676 1604.04,-671.72 1606.98,-666.86 1623.25,-660.25 1634.26,-655.78 1645.9,-651.19 1657.41,-646.74"/>
<polygon fill="black" stroke="black" points="1658.43,-650.1 1666.51,-643.24 1655.92,-643.56 1658.43,-650.1"/>
<text xml:space="preserve" text-anchor="middle" x="1640.12" y="-662.7" font-family="Times,serif" font-size="14.00">DDG: </text>
</g>
<!-- 30064773600 -->
<g id="node15" class="node">
<title>30064773600</title>
<polygon fill="none" stroke="black" points="1255,-634.38 1023,-634.38 1023,-594.88 1255,-594.88 1255,-634.38"/>
<text xml:space="preserve" text-anchor="start" x="1101.88" y="-617.08" font-family="Times,serif" font-size="14.00">input, 1280</text>
<text xml:space="preserve" text-anchor="start" x="1031" y="-601.33" font-family="Times,serif" font-size="14.00">input(&quot;Course code to remove: &quot;)</text>
</g>
<!-- 107374182545&#45;&gt;30064773600 -->
<g id="edge33" class="edge">
<title>107374182545&#45;&gt;30064773600</title>
<path fill="none" stroke="black" d="M1139,-693.56C1139,-679.99 1139,-661.52 1139,-645.97"/>
<polygon fill="black" stroke="black" points="1142.5,-646.29 1139,-636.29 1135.5,-646.29 1142.5,-646.29"/>
<text xml:space="preserve" text-anchor="middle" x="1155.88" y="-662.7" font-family="Times,serif" font-size="14.00">DDG: </text>
</g>
<!-- 124554051729 -->
<g id="node2" class="node">
<title>124554051729</title>
<polygon fill="none" stroke="black" points="1057.12,-39.5 912.88,-39.5 912.88,0 1057.12,0 1057.12,-39.5"/>
<text xml:space="preserve" text-anchor="start" x="920.88" y="-22.2" font-family="Times,serif" font-size="14.00">METHOD_RETURN, 1279</text>
<text xml:space="preserve" text-anchor="start" x="974.88" y="-6.45" font-family="Times,serif" font-size="14.00">ANY</text>
</g>
<!-- 111669149998&#45;&gt;30064773606 -->
<g id="edge19" class="edge">
<title>111669149998&#45;&gt;30064773606</title>
<path fill="none" stroke="black" d="M215.54,-540.3C140.76,-525.93 0,-492.8 0,-447.12 0,-447.12 0,-447.12 0,-308.25 0,-272.83 205.44,-245.49 346.95,-230.86"/>
<polygon fill="black" stroke="black" points="347.21,-234.36 356.8,-229.86 346.5,-227.39 347.21,-234.36"/>
<text xml:space="preserve" text-anchor="middle" x="37.12" y="-395.07" font-family="Times,serif" font-size="14.00">DDG: system</text>
</g>
<!-- 30064773604&#45;&gt;124554051729 -->
<g id="edge5" class="edge">
<title>30064773604&#45;&gt;124554051729</title>
<path fill="none" stroke="black" d="M197.43,-289.03C84.8,-268.86 -31.2,-228.42 22,-148.75 80.79,-60.72 138.73,-80.73 242,-57.5 365.33,-29.75 734.48,-22.95 901.41,-21.29"/>
<polygon fill="black" stroke="black" points="901.11,-24.79 911.07,-21.2 901.04,-17.79 901.11,-24.79"/>
<text xml:space="preserve" text-anchor="middle" x="224.5" y="-166.95" font-family="Times,serif" font-size="14.00">DDG: course_code = tmp262 = input(&quot;Course code to remove: &quot;)</text>
<text xml:space="preserve" text-anchor="middle" x="224.5" y="-151.2" font-family="Times,serif" font-size="14.00">input(&quot;Course code to remove: &quot;).strip()</text>
</g>
<!-- 30064773604&#45;&gt;30064773606 -->
<g id="edge21" class="edge">
<title>30064773604&#45;&gt;30064773606</title>
<path fill="none" stroke="black" d="M395.53,-289.1C410.47,-276.4 430.3,-259.55 446.76,-245.55"/>
<polygon fill="black" stroke="black" points="449.01,-248.24 454.36,-239.09 444.47,-242.9 449.01,-248.24"/>
<text xml:space="preserve" text-anchor="middle" x="485.79" y="-258.2" font-family="Times,serif" font-size="14.00">DDG: course_code</text>
</g>
<!-- 30064773607 -->
<g id="node5" class="node">
<title>30064773607</title>
<polygon fill="none" stroke="black" points="695.12,-130.75 388.88,-130.75 388.88,-91.25 695.12,-91.25 695.12,-130.75"/>
<text xml:space="preserve" text-anchor="start" x="450.88" y="-113.45" font-family="Times,serif" font-size="14.00">&lt;operator&gt;.assignment, 1281</text>
<text xml:space="preserve" text-anchor="start" x="396.88" y="-97.7" font-family="Times,serif" font-size="14.00">success = system.remove_course(course_code)</text>
</g>
<!-- 30064773607&#45;&gt;124554051729 -->
<g id="edge6" class="edge">
<title>30064773607&#45;&gt;124554051729</title>
<path fill="none" stroke="black" d="M695.27,-99.75C763.49,-93.74 835.47,-84.99 867,-73.25 878.61,-68.93 879.04,-63.27 890,-57.5 899.08,-52.72 908.92,-48.22 918.71,-44.11"/>
<polygon fill="black" stroke="black" points="919.93,-47.4 927.88,-40.39 917.3,-40.91 919.93,-47.4"/>
<text xml:space="preserve" text-anchor="middle" x="930.5" y="-59.95" font-family="Times,serif" font-size="14.00">DDG: success</text>
</g>
<!-- 30064773607&#45;&gt;124554051729 -->
<g id="edge9" class="edge">
<title>30064773607&#45;&gt;124554051729</title>
<path fill="none" stroke="black" d="M388.6,-93.96C326.53,-86.72 268.19,-78.6 263.5,-73.25 258.89,-67.99 258.68,-62.57 263.5,-57.5 285.16,-34.71 715.68,-25.07 901.17,-21.97"/>
<polygon fill="black" stroke="black" points="901.03,-25.47 910.97,-21.81 900.92,-18.47 901.03,-25.47"/>
<text xml:space="preserve" text-anchor="middle" x="391.75" y="-59.95" font-family="Times,serif" font-size="14.00">DDG: system.remove_course(course_code)</text>
</g>
<!-- 30064773607&#45;&gt;124554051729 -->
<g id="edge10" class="edge">
<title>30064773607&#45;&gt;124554051729</title>
<path fill="none" stroke="black" d="M534.76,-90.96C531.87,-79.84 530.9,-66.3 539,-57.5 562.99,-31.45 779,-23.87 901.37,-21.66"/>
<polygon fill="black" stroke="black" points="901.1,-25.16 911.04,-21.49 900.98,-18.16 901.1,-25.16"/>
<text xml:space="preserve" text-anchor="middle" x="701" y="-59.95" font-family="Times,serif" font-size="14.00">DDG: success = system.remove_course(course_code)</text>
</g>
<!-- 68719479233&#45;&gt;30064773608 -->
<g id="edge34" class="edge">
<title>68719479233&#45;&gt;30064773608</title>
<path fill="none" stroke="black" d="M1490.02,-586.94C1494.06,-581.09 1498.24,-574.88 1502,-569 1512.99,-551.84 1508.2,-540.65 1525.25,-529.5 1551,-512.66 1627.76,-515.91 1672.43,-511.51"/>
<polygon fill="black" stroke="black" points="1672.59,-515.01 1682.08,-510.31 1671.73,-508.07 1672.59,-515.01"/>
<text xml:space="preserve" text-anchor="middle" x="1542.12" y="-543.83" font-family="Times,serif" font-size="14.00">CDG: </text>
</g>
<!-- 68719479233&#45;&gt;30064773609 -->
<g id="edge35" class="edge">
<title>68719479233&#45;&gt;30064773609</title>
<path fill="none" stroke="black" d="M1466.24,-586.66C1464.23,-569.94 1463.35,-548.16 1468.25,-529.5 1468.9,-527.02 1469.76,-524.54 1470.76,-522.09"/>
<polygon fill="black" stroke="black" points="1473.89,-523.66 1475.15,-513.14 1467.61,-520.58 1473.89,-523.66"/>
<text xml:space="preserve" text-anchor="middle" x="1485.12" y="-543.83" font-family="Times,serif" font-size="14.00">CDG: </text>
</g>
<!-- 30064773601 -->
<g id="node7" class="node">
<title>30064773601</title>
<polygon fill="none" stroke="black" points="1294.38,-511.5 1001.62,-511.5 1001.62,-472 1294.38,-472 1294.38,-511.5"/>
<text xml:space="preserve" text-anchor="start" x="1056.88" y="-494.2" font-family="Times,serif" font-size="14.00">&lt;operator&gt;.assignment, 1280</text>
<text xml:space="preserve" text-anchor="start" x="1009.62" y="-478.45" font-family="Times,serif" font-size="14.00">tmp262 = input(&quot;Course code to remove: &quot;)</text>
</g>
<!-- 30064773601&#45;&gt;124554051729 -->
<g id="edge1" class="edge">
<title>30064773601&#45;&gt;124554051729</title>
<path fill="none" stroke="black" d="M1149.22,-471.88C1152.84,-416.74 1163.46,-259.59 1167.25,-255.75 1196.84,-225.76 1327.66,-268.93 1356,-237.75 1367.81,-224.76 1365.36,-213.1 1356,-198.25 1293.21,-98.61 1157.32,-53.68 1068.59,-34.33"/>
<polygon fill="black" stroke="black" points="1069.46,-30.93 1058.95,-32.29 1068.01,-37.78 1069.46,-30.93"/>
<text xml:space="preserve" text-anchor="middle" x="1292.12" y="-258.2" font-family="Times,serif" font-size="14.00">DDG: input(&quot;Course code to remove: &quot;)</text>
</g>
<!-- 30064773601&#45;&gt;124554051729 -->
<g id="edge2" class="edge">
<title>30064773601&#45;&gt;124554051729</title>
<path fill="none" stroke="black" d="M1293.07,-471.57C1365.97,-457.72 1439,-435.39 1439,-401.5 1439,-401.5 1439,-401.5 1439,-110 1439,-35.36 1199.76,-22.05 1068.62,-20.37"/>
<polygon fill="black" stroke="black" points="1068.99,-16.87 1058.95,-20.26 1068.92,-23.87 1068.99,-16.87"/>
<text xml:space="preserve" text-anchor="middle" x="1594.25" y="-258.2" font-family="Times,serif" font-size="14.00">DDG: tmp262 = input(&quot;Course code to remove: &quot;)</text>
</g>
<!-- 30064773601&#45;&gt;30064773603 -->
<g id="edge22" class="edge">
<title>30064773601&#45;&gt;30064773603</title>
<path fill="none" stroke="black" d="M1110.67,-471.6C1084.53,-458.19 1049.38,-440.16 1021.27,-425.75"/>
<polygon fill="black" stroke="black" points="1023.11,-422.76 1012.61,-421.31 1019.91,-428.98 1023.11,-422.76"/>
<text xml:space="preserve" text-anchor="middle" x="1108.54" y="-440.7" font-family="Times,serif" font-size="14.00">DDG: tmp262</text>
</g>
<!-- 30064773603&#45;&gt;124554051729 -->
<g id="edge3" class="edge">
<title>30064773603&#45;&gt;124554051729</title>
<path fill="none" stroke="black" d="M970.56,-380.66C965.25,-350.58 955.31,-289.78 951.75,-237.75 950.55,-220.24 946.73,-215.07 951.75,-198.25 962.01,-163.88 985.74,-165.12 996,-130.75 1001.02,-113.93 997.36,-108.75 996,-91.25 994.97,-77.96 992.86,-63.39 990.76,-50.96"/>
<polygon fill="black" stroke="black" points="994.24,-50.53 989.06,-41.3 987.35,-51.75 994.24,-50.53"/>
<text xml:space="preserve" text-anchor="middle" x="988.88" y="-212.57" font-family="Times,serif" font-size="14.00">DDG: tmp262</text>
</g>
<!-- 30064773603&#45;&gt;124554051729 -->
<g id="edge4" class="edge">
<title>30064773603&#45;&gt;124554051729</title>
<path fill="none" stroke="black" d="M1003.25,-380.5C1023.93,-364.53 1048,-339.64 1048,-310.25 1048,-310.25 1048,-310.25 1048,-110 1048,-85.94 1032.52,-63.8 1016.91,-47.59"/>
<polygon fill="black" stroke="black" points="1019.5,-45.23 1009.9,-40.74 1014.6,-50.23 1019.5,-45.23"/>
<text xml:space="preserve" text-anchor="middle" x="1199.88" y="-212.57" font-family="Times,serif" font-size="14.00">DDG: input(&quot;Course code to remove: &quot;).strip()</text>
</g>
<!-- 30064773603&#45;&gt;30064773604 -->
<g id="edge13" class="edge">
<title>30064773603&#45;&gt;30064773604</title>
<path fill="none" stroke="black" d="M830.69,-388.08C766.17,-382.05 689.17,-373.62 620.25,-362.75 568.18,-354.54 510.54,-342.48 464.02,-331.98"/>
<polygon fill="black" stroke="black" points="465.06,-328.63 454.53,-329.83 463.51,-335.46 465.06,-328.63"/>
<text xml:space="preserve" text-anchor="middle" x="772.12" y="-349.45" font-family="Times,serif" font-size="14.00">DDG: input(&quot;Course code to remove: &quot;).strip()</text>
</g>
<!-- 30064773606&#45;&gt;124554051729 -->
<g id="edge7" class="edge">
<title>30064773606&#45;&gt;124554051729</title>
<path fill="none" stroke="black" d="M594.76,-197.78C620.06,-192.77 646.56,-186.89 671,-180.25 672.07,-179.96 970.25,-74.06 971,-73.25 976.65,-67.12 980.06,-58.97 982.12,-50.92"/>
<polygon fill="black" stroke="black" points="985.51,-51.79 983.92,-41.32 978.63,-50.5 985.51,-51.79"/>
<text xml:space="preserve" text-anchor="middle" x="955.35" y="-105.58" font-family="Times,serif" font-size="14.00">DDG: system</text>
</g>
<!-- 30064773606&#45;&gt;124554051729 -->
<g id="edge8" class="edge">
<title>30064773606&#45;&gt;124554051729</title>
<path fill="none" stroke="black" d="M470.32,-197.93C462.81,-181.95 449.75,-160 431,-148.75 370.01,-112.17 326.12,-176.89 272,-130.75 246.64,-109.13 233.04,-81.65 256,-57.5 277.92,-34.45 713.95,-24.95 900.98,-21.92"/>
<polygon fill="black" stroke="black" points="900.94,-25.43 910.88,-21.77 900.83,-18.43 900.94,-25.43"/>
<text xml:space="preserve" text-anchor="middle" x="326" y="-105.58" font-family="Times,serif" font-size="14.00">DDG: course_code</text>
</g>
<!-- 30064773606&#45;&gt;30064773607 -->
<g id="edge15" class="edge">
<title>30064773606&#45;&gt;30064773607</title>
<path fill="none" stroke="black" d="M567.9,-197.82C575.29,-193.16 581.87,-187.39 587,-180.25 595.17,-168.88 593,-161.4 587,-148.75 585.4,-145.38 583.32,-142.21 580.94,-139.27"/>
<polygon fill="black" stroke="black" points="583.56,-136.94 574.09,-132.18 578.52,-141.8 583.56,-136.94"/>
<text xml:space="preserve" text-anchor="middle" x="629.47" y="-159.07" font-family="Times,serif" font-size="14.00">DDG: system</text>
</g>
<!-- 30064773606&#45;&gt;30064773607 -->
<g id="edge16" class="edge">
<title>30064773606&#45;&gt;30064773607</title>
<path fill="none" stroke="black" d="M471.86,-197.98C468.36,-183.48 466.24,-163.55 475,-148.75 477.29,-144.88 480.15,-141.39 483.39,-138.25"/>
<polygon fill="black" stroke="black" points="485.4,-141.12 490.93,-132.09 480.97,-135.7 485.4,-141.12"/>
<text xml:space="preserve" text-anchor="middle" x="529" y="-159.07" font-family="Times,serif" font-size="14.00">DDG: course_code</text>
</g>
<!-- 30064773608&#45;&gt;124554051729 -->
<g id="edge11" class="edge">
<title>30064773608&#45;&gt;124554051729</title>
<path fill="none" stroke="black" d="M1773,-471.6C1773,-453.53 1773,-425.67 1773,-401.5 1773,-401.5 1773,-401.5 1773,-110 1773,-39.73 1271.82,-24.78 1068.85,-21.6"/>
<polygon fill="black" stroke="black" points="1068.93,-18.1 1058.88,-21.45 1068.83,-25.1 1068.93,-18.1"/>
<text xml:space="preserve" text-anchor="middle" x="1870.88" y="-258.2" font-family="Times,serif" font-size="14.00">DDG: print(&quot;Course removed.&quot;)</text>
</g>
<!-- 30064773600&#45;&gt;30064773601 -->
<g id="edge18" class="edge">
<title>30064773600&#45;&gt;30064773601</title>
<path fill="none" stroke="black" d="M1138.35,-594.52C1138,-577.43 1138.06,-551.72 1140.5,-529.5 1140.74,-527.32 1141.05,-525.07 1141.4,-522.81"/>
<polygon fill="black" stroke="black" points="1144.8,-523.68 1143.16,-513.21 1137.92,-522.41 1144.8,-523.68"/>
<text xml:space="preserve" text-anchor="middle" x="1241.75" y="-543.83" font-family="Times,serif" font-size="14.00">DDG: &quot;Course code to remove: &quot;</text>
</g>
<!-- 30064771076 -->
<g id="node16" class="node">
<title>30064771076</title>
<polygon fill="none" stroke="black" points="2117.12,-731.75 2026.88,-731.75 2026.88,-695.75 2117.12,-695.75 2117.12,-731.75"/>
<text xml:space="preserve" text-anchor="middle" x="2072" y="-708.33" font-family="Times,serif" font-size="14.00">30064771076</text>
</g>
<!-- 30064771076&#45;&gt;68719479234 -->
<g id="edge24" class="edge">
<title>30064771076&#45;&gt;68719479234</title>
<path fill="none" stroke="black" d="M2062.56,-695.31C2056.07,-684.38 2046.71,-670.48 2036,-660.25 2031.92,-656.35 2027.44,-652.62 2022.78,-649.09"/>
<polygon fill="black" stroke="black" points="2025.04,-646.41 2014.87,-643.44 2020.97,-652.1 2025.04,-646.41"/>
<text xml:space="preserve" text-anchor="middle" x="2083.49" y="-662.7" font-family="Times,serif" font-size="14.00">DDG: print</text>
</g>
<!-- 68719479589 -->
<g id="node17" class="node">
<title>68719479589</title>
<polygon fill="none" stroke="black" points="1901.12,-731.75 1810.88,-731.75 1810.88,-695.75 1901.12,-695.75 1901.12,-731.75"/>
<text xml:space="preserve" text-anchor="middle" x="1856" y="-708.33" font-family="Times,serif" font-size="14.00">68719479589</text>
</g>
<!-- 68719479589&#45;&gt;68719479234 -->
<g id="edge25" class="edge">
<title>68719479589&#45;&gt;68719479234</title>
<path fill="none" stroke="black" d="M1865.63,-695.33C1872.23,-684.41 1881.72,-670.5 1892.5,-660.25 1896.57,-656.38 1901.03,-652.66 1905.66,-649.15"/>
<polygon fill="black" stroke="black" points="1907.43,-652.19 1913.52,-643.52 1903.35,-646.5 1907.43,-652.19"/>
<text xml:space="preserve" text-anchor="middle" x="1926.25" y="-662.7" font-family="Times,serif" font-size="14.00">DDG: print</text>
</g>
<!-- 68719479592 -->
<g id="node18" class="node">
<title>68719479592</title>
<polygon fill="none" stroke="black" points="2009.12,-731.75 1918.88,-731.75 1918.88,-695.75 2009.12,-695.75 2009.12,-731.75"/>
<text xml:space="preserve" text-anchor="middle" x="1964" y="-708.33" font-family="Times,serif" font-size="14.00">68719479592</text>
</g>
<!-- 68719479592&#45;&gt;68719479234 -->
<g id="edge26" class="edge">
<title>68719479592&#45;&gt;68719479234</title>
<path fill="none" stroke="black" d="M1964,-695.39C1964,-683.85 1964,-668.23 1964,-653.88"/>
<polygon fill="black" stroke="black" points="1967.5,-654.25 1964,-644.25 1960.5,-654.25 1967.5,-654.25"/>
<text xml:space="preserve" text-anchor="middle" x="1997.75" y="-662.7" font-family="Times,serif" font-size="14.00">DDG: print</text>
</g>
<!-- 30064771073 -->
<g id="node19" class="node">
<title>30064771073</title>
<polygon fill="none" stroke="black" points="1786.12,-731.75 1695.88,-731.75 1695.88,-695.75 1786.12,-695.75 1786.12,-731.75"/>
<text xml:space="preserve" text-anchor="middle" x="1741" y="-708.33" font-family="Times,serif" font-size="14.00">30064771073</text>
</g>
<!-- 30064771073&#45;&gt;68719479224 -->
<g id="edge31" class="edge">
<title>30064771073&#45;&gt;68719479224</title>
<path fill="none" stroke="black" d="M1741,-695.39C1741,-683.85 1741,-668.23 1741,-653.88"/>
<polygon fill="black" stroke="black" points="1744.5,-654.25 1741,-644.25 1737.5,-654.25 1744.5,-654.25"/>
<text xml:space="preserve" text-anchor="middle" x="1774.75" y="-662.7" font-family="Times,serif" font-size="14.00">DDG: input</text>
</g>
</g>
</svg>
