<?xml version="1.0" encoding="UTF-8" standalone="no"?>
<!DOCTYPE svg PUBLIC "-//W3C//DTD SVG 1.1//EN"
 "http://www.w3.org/Graphics/SVG/1.1/DTD/svg11.dtd">
<!-- Generated by graphviz version 13.1.2 (20250809.0930)
 -->
<!-- Title: cli_add_instructor Pages: 1 -->
<svg width="4138pt" height="765pt"
 viewBox="0.00 0.00 4138.00 765.00" xmlns="http://www.w3.org/2000/svg" xmlns:xlink="http://www.w3.org/1999/xlink">
<g id="graph0" class="graph" transform="scale(1 1) rotate(0) translate(4 761.25)">
<title>cli_add_instructor</title>
<polygon fill="white" stroke="none" points="-4,4 -4,-761.25 4133.5,-761.25 4133.5,4 -4,4"/>
<!-- 107374182546 -->
<g id="node1" class="node">
<title>107374182546</title>
<polygon fill="none" stroke="black" points="2096.75,-757.25 1959.25,-757.25 1959.25,-717.75 2096.75,-717.75 2096.75,-757.25"/>
<text xml:space="preserve" text-anchor="start" x="1987.5" y="-739.95" font-family="Times,serif" font-size="14.00">METHOD, 1288</text>
<text xml:space="preserve" text-anchor="start" x="1967.25" y="-724.2" font-family="Times,serif" font-size="14.00">cli_add_instructor</text>
</g>
<!-- 111669149999 -->
<g id="node3" class="node">
<title>111669149999</title>
<polygon fill="none" stroke="black" points="1962.12,-592.75 1871.88,-592.75 1871.88,-553.25 1962.12,-553.25 1962.12,-592.75"/>
<text xml:space="preserve" text-anchor="start" x="1879.88" y="-575.45" font-family="Times,serif" font-size="14.00">PARAM, 1288</text>
<text xml:space="preserve" text-anchor="start" x="1896.75" y="-559.7" font-family="Times,serif" font-size="14.00">system</text>
</g>
<!-- 107374182546&#45;&gt;111669149999 -->
<g id="edge25" class="edge">
<title>107374182546&#45;&gt;111669149999</title>
<path fill="none" stroke="black" d="M1958.98,-721.7C1947.92,-716.46 1937.68,-709.36 1930.25,-699.75 1909.32,-672.67 1908.97,-631.93 1911.89,-604.21"/>
<polygon fill="black" stroke="black" points="1915.36,-604.71 1913.16,-594.35 1908.41,-603.82 1915.36,-604.71"/>
<text xml:space="preserve" text-anchor="middle" x="1947.12" y="-686.45" font-family="Times,serif" font-size="14.00">DDG: </text>
</g>
<!-- 30064773615 -->
<g id="node4" class="node">
<title>30064773615</title>
<polygon fill="none" stroke="black" points="2644.75,-329 2291.25,-329 2291.25,-289.5 2644.75,-289.5 2644.75,-329"/>
<text xml:space="preserve" text-anchor="start" x="2376.88" y="-311.7" font-family="Times,serif" font-size="14.00">&lt;operator&gt;.assignment, 1289</text>
<text xml:space="preserve" text-anchor="start" x="2299.25" y="-295.95" font-family="Times,serif" font-size="14.00">instructor_id = tmp263 = input(&quot;Instructor ID: ...</text>
</g>
<!-- 107374182546&#45;&gt;30064773615 -->
<g id="edge27" class="edge">
<title>107374182546&#45;&gt;30064773615</title>
<path fill="none" stroke="black" d="M2036.11,-717.28C2038.25,-711.69 2040.4,-705.54 2042,-699.75 2073.37,-585.99 2011.08,-527.74 2088,-438.25 2136.88,-381.38 2211.91,-349.71 2282.42,-332.1"/>
<polygon fill="black" stroke="black" points="2282.87,-335.59 2291.77,-329.85 2281.23,-328.78 2282.87,-335.59"/>
<text xml:space="preserve" text-anchor="middle" x="2071.1" y="-510.07" font-family="Times,serif" font-size="14.00">DDG: </text>
</g>
<!-- 30064773620 -->
<g id="node5" class="node">
<title>30064773620</title>
<polygon fill="none" stroke="black" points="1356.75,-329 1003.25,-329 1003.25,-289.5 1356.75,-289.5 1356.75,-329"/>
<text xml:space="preserve" text-anchor="start" x="1088.88" y="-311.7" font-family="Times,serif" font-size="14.00">&lt;operator&gt;.assignment, 1290</text>
<text xml:space="preserve" text-anchor="start" x="1011.25" y="-295.95" font-family="Times,serif" font-size="14.00">name = tmp264 = input(&quot;Instructor name: &quot;) inpu...</text>
</g>
<!-- 107374182546&#45;&gt;30064773620 -->
<g id="edge29" class="edge">
<title>107374182546&#45;&gt;30064773620</title>
<path fill="none" stroke="black" d="M1958.78,-731.87C1854.46,-722.96 1669,-698.78 1669,-639.38 1669,-639.38 1669,-639.38 1669,-399.5 1669,-374.2 1667.53,-361.79 1647,-347 1625.21,-331.3 1432.77,-331.11 1406,-329 1393.71,-328.03 1381.04,-327.02 1368.27,-325.99"/>
<polygon fill="black" stroke="black" points="1368.79,-322.52 1358.54,-325.2 1368.22,-329.49 1368.79,-322.52"/>
<text xml:space="preserve" text-anchor="middle" x="1685.88" y="-510.07" font-family="Times,serif" font-size="14.00">DDG: </text>
</g>
<!-- 30064773625 -->
<g id="node6" class="node">
<title>30064773625</title>
<polygon fill="none" stroke="black" points="1768.75,-329 1415.25,-329 1415.25,-289.5 1768.75,-289.5 1768.75,-329"/>
<text xml:space="preserve" text-anchor="start" x="1500.88" y="-311.7" font-family="Times,serif" font-size="14.00">&lt;operator&gt;.assignment, 1291</text>
<text xml:space="preserve" text-anchor="start" x="1423.25" y="-295.95" font-family="Times,serif" font-size="14.00">department = tmp265 = input(&quot;Department: &quot;) inp...</text>
</g>
<!-- 107374182546&#45;&gt;30064773625 -->
<g id="edge31" class="edge">
<title>107374182546&#45;&gt;30064773625</title>
<path fill="none" stroke="black" d="M1959.06,-724.32C1883.24,-708.92 1772,-679.48 1772,-639.38 1772,-639.38 1772,-639.38 1772,-399.5 1772,-367.38 1748.71,-346.82 1718.88,-333.66"/>
<polygon fill="black" stroke="black" points="1720.52,-330.55 1709.94,-330.04 1717.9,-337.04 1720.52,-330.55"/>
<text xml:space="preserve" text-anchor="middle" x="1788.88" y="-510.07" font-family="Times,serif" font-size="14.00">DDG: </text>
</g>
<!-- 30064773630 -->
<g id="node8" class="node">
<title>30064773630</title>
<polygon fill="none" stroke="black" points="2404.75,-130.75 2051.25,-130.75 2051.25,-91.25 2404.75,-91.25 2404.75,-130.75"/>
<text xml:space="preserve" text-anchor="start" x="2190.88" y="-113.45" font-family="Times,serif" font-size="14.00">print, 1293</text>
<text xml:space="preserve" text-anchor="start" x="2059.25" y="-97.7" font-family="Times,serif" font-size="14.00">print(&quot;Instructor added.&quot; if success else &quot;Fail...</text>
</g>
<!-- 107374182546&#45;&gt;30064773630 -->
<g id="edge40" class="edge">
<title>107374182546&#45;&gt;30064773630</title>
<path fill="none" stroke="black" d="M2028,-717.52C2028,-697.94 2028,-666.52 2028,-639.38 2028,-639.38 2028,-639.38 2028,-399.5 2028,-335.26 2011.8,-311.9 2043,-255.75 2073.27,-201.27 2133.57,-160.51 2177.12,-136.56"/>
<polygon fill="black" stroke="black" points="2178.75,-139.66 2185.91,-131.85 2175.44,-133.49 2178.75,-139.66"/>
<text xml:space="preserve" text-anchor="middle" x="2044.88" y="-395.07" font-family="Times,serif" font-size="14.00">DDG: </text>
</g>
<!-- 68719479259 -->
<g id="node9" class="node">
<title>68719479259</title>
<polygon fill="none" stroke="black" points="3357.75,-666 3004.25,-666 3004.25,-610.75 3357.75,-610.75 3357.75,-666"/>
<text xml:space="preserve" text-anchor="start" x="3127" y="-648.7" font-family="Times,serif" font-size="14.00">IDENTIFIER, 1293</text>
<text xml:space="preserve" text-anchor="start" x="3164.12" y="-632.95" font-family="Times,serif" font-size="14.00">print</text>
<text xml:space="preserve" text-anchor="start" x="3012.25" y="-617.2" font-family="Times,serif" font-size="14.00">print(&quot;Instructor added.&quot; if success else &quot;Fail...</text>
</g>
<!-- 107374182546&#45;&gt;68719479259 -->
<g id="edge39" class="edge">
<title>107374182546&#45;&gt;68719479259</title>
<path fill="none" stroke="black" d="M2097.17,-734.64C2223.62,-730.85 2500.47,-720.76 2733,-699.75 2760.01,-697.31 2935.9,-673.95 2992.41,-666.34"/>
<polygon fill="black" stroke="black" points="2992.86,-669.81 3002.3,-665 2991.92,-662.87 2992.86,-669.81"/>
<text xml:space="preserve" text-anchor="middle" x="2873.95" y="-686.45" font-family="Times,serif" font-size="14.00">DDG: </text>
</g>
<!-- 30064773614 -->
<g id="node11" class="node">
<title>30064773614</title>
<polygon fill="none" stroke="black" points="3382,-420.25 3150,-420.25 3150,-380.75 3382,-380.75 3382,-420.25"/>
<text xml:space="preserve" text-anchor="start" x="3228.88" y="-402.95" font-family="Times,serif" font-size="14.00">strip, 1289</text>
<text xml:space="preserve" text-anchor="start" x="3158" y="-387.2" font-family="Times,serif" font-size="14.00">input(&quot;Instructor ID: &quot;).strip()</text>
</g>
<!-- 107374182546&#45;&gt;30064773614 -->
<g id="edge51" class="edge">
<title>107374182546&#45;&gt;30064773614</title>
<path fill="none" stroke="black" d="M2092.69,-717.34C2122.94,-706.01 2157.94,-689.25 2184,-666 2205.34,-646.96 2193.67,-627.3 2217,-610.75 2364.21,-506.31 2892.69,-439.83 3138.54,-413.88"/>
<polygon fill="black" stroke="black" points="3138.59,-417.39 3148.17,-412.87 3137.86,-410.43 3138.59,-417.39"/>
<text xml:space="preserve" text-anchor="middle" x="2356.52" y="-567.58" font-family="Times,serif" font-size="14.00">DDG: </text>
</g>
<!-- 30064773619 -->
<g id="node13" class="node">
<title>30064773619</title>
<polygon fill="none" stroke="black" points="424.75,-420.25 179.25,-420.25 179.25,-380.75 424.75,-380.75 424.75,-420.25"/>
<text xml:space="preserve" text-anchor="start" x="264.88" y="-402.95" font-family="Times,serif" font-size="14.00">strip, 1290</text>
<text xml:space="preserve" text-anchor="start" x="187.25" y="-387.2" font-family="Times,serif" font-size="14.00">input(&quot;Instructor name: &quot;).strip()</text>
</g>
<!-- 107374182546&#45;&gt;30064773619 -->
<g id="edge53" class="edge">
<title>107374182546&#45;&gt;30064773619</title>
<path fill="none" stroke="black" d="M1959.11,-734.42C1842.81,-730.47 1600.21,-720.38 1396,-699.75 957.31,-655.44 862.31,-561.64 439,-438.25 422.06,-433.31 403.88,-428.26 386.47,-423.55"/>
<polygon fill="black" stroke="black" points="387.78,-420.27 377.21,-421.05 385.96,-427.03 387.78,-420.27"/>
<text xml:space="preserve" text-anchor="middle" x="910.4" y="-567.58" font-family="Times,serif" font-size="14.00">DDG: </text>
</g>
<!-- 30064773624 -->
<g id="node15" class="node">
<title>30064773624</title>
<polygon fill="none" stroke="black" points="1080.88,-420.25 869.12,-420.25 869.12,-380.75 1080.88,-380.75 1080.88,-420.25"/>
<text xml:space="preserve" text-anchor="start" x="937.88" y="-402.95" font-family="Times,serif" font-size="14.00">strip, 1291</text>
<text xml:space="preserve" text-anchor="start" x="877.12" y="-387.2" font-family="Times,serif" font-size="14.00">input(&quot;Department: &quot;).strip()</text>
</g>
<!-- 107374182546&#45;&gt;30064773624 -->
<g id="edge55" class="edge">
<title>107374182546&#45;&gt;30064773624</title>
<path fill="none" stroke="black" d="M1958.84,-733.34C1804.18,-725.67 1434.63,-703.87 1316,-666 1195.05,-627.39 1156.21,-620.37 1062,-535.25 1028.87,-505.31 1002.96,-460.04 988.32,-430.62"/>
<polygon fill="black" stroke="black" points="991.62,-429.39 984.11,-421.92 985.32,-432.45 991.62,-429.39"/>
<text xml:space="preserve" text-anchor="middle" x="1150.73" y="-567.58" font-family="Times,serif" font-size="14.00">DDG: </text>
</g>
<!-- 30064773627 -->
<g id="node16" class="node">
<title>30064773627</title>
<polygon fill="none" stroke="black" points="1771.75,-237.75 1418.25,-237.75 1418.25,-198.25 1771.75,-198.25 1771.75,-237.75"/>
<text xml:space="preserve" text-anchor="start" x="1527.5" y="-220.45" font-family="Times,serif" font-size="14.00">add_instructor, 1292</text>
<text xml:space="preserve" text-anchor="start" x="1426.25" y="-204.7" font-family="Times,serif" font-size="14.00">system.add_instructor(instructor_id, name, depa...</text>
</g>
<!-- 107374182546&#45;&gt;30064773627 -->
<g id="edge45" class="edge">
<title>107374182546&#45;&gt;30064773627</title>
<path fill="none" stroke="black" d="M2011.35,-717.52C1996.81,-698.93 1978,-669.15 1978,-639.38 1978,-639.38 1978,-639.38 1978,-308.25 1978,-264.08 1880.16,-241.76 1783.38,-230.49"/>
<polygon fill="black" stroke="black" points="1784.04,-227.04 1773.71,-229.4 1783.26,-233.99 1784.04,-227.04"/>
<text xml:space="preserve" text-anchor="middle" x="1994.88" y="-452.57" font-family="Times,serif" font-size="14.00">DDG: </text>
</g>
<!-- 30064773629 -->
<g id="node17" class="node">
<title>30064773629</title>
<polygon fill="none" stroke="black" points="2442.75,-477.75 2089.25,-477.75 2089.25,-438.25 2442.75,-438.25 2442.75,-477.75"/>
<text xml:space="preserve" text-anchor="start" x="2171.5" y="-460.45" font-family="Times,serif" font-size="14.00">&lt;operator&gt;.conditional, 1293</text>
<text xml:space="preserve" text-anchor="start" x="2097.25" y="-444.7" font-family="Times,serif" font-size="14.00">&quot;Instructor added.&quot; if success else &quot;Failed to ...</text>
</g>
<!-- 107374182546&#45;&gt;30064773629 -->
<g id="edge49" class="edge">
<title>107374182546&#45;&gt;30064773629</title>
<path fill="none" stroke="black" d="M2064.62,-717.38C2072.78,-712.24 2081.06,-706.28 2088,-699.75 2123.15,-666.67 2121.77,-649.73 2150.25,-610.75 2182.31,-566.86 2220.81,-516.92 2244.33,-486.69"/>
<polygon fill="black" stroke="black" points="2246.81,-489.21 2250.2,-479.17 2241.29,-484.9 2246.81,-489.21"/>
<text xml:space="preserve" text-anchor="middle" x="2167.12" y="-632.95" font-family="Times,serif" font-size="14.00">DDG: </text>
</g>
<!-- 68719479237 -->
<g id="node18" class="node">
<title>68719479237</title>
<polygon fill="none" stroke="black" points="2986,-666 2808,-666 2808,-610.75 2986,-610.75 2986,-666"/>
<text xml:space="preserve" text-anchor="start" x="2843" y="-648.7" font-family="Times,serif" font-size="14.00">IDENTIFIER, 1289</text>
<text xml:space="preserve" text-anchor="start" x="2880.12" y="-632.95" font-family="Times,serif" font-size="14.00">input</text>
<text xml:space="preserve" text-anchor="start" x="2816" y="-617.2" font-family="Times,serif" font-size="14.00">input(&quot;Instructor ID: &quot;)</text>
</g>
<!-- 107374182546&#45;&gt;68719479237 -->
<g id="edge57" class="edge">
<title>107374182546&#45;&gt;68719479237</title>
<path fill="none" stroke="black" d="M2097.1,-735.4C2231.03,-732.14 2535.06,-719.23 2796.41,-666.43"/>
<polygon fill="black" stroke="black" points="2797.07,-669.87 2806.17,-664.44 2795.67,-663.01 2797.07,-669.87"/>
<text xml:space="preserve" text-anchor="middle" x="2712.41" y="-686.45" font-family="Times,serif" font-size="14.00">DDG: </text>
</g>
<!-- 30064773611 -->
<g id="node19" class="node">
<title>30064773611</title>
<polygon fill="none" stroke="black" points="2404,-658.12 2226,-658.12 2226,-618.62 2404,-618.62 2404,-658.12"/>
<text xml:space="preserve" text-anchor="start" x="2277.88" y="-640.83" font-family="Times,serif" font-size="14.00">input, 1289</text>
<text xml:space="preserve" text-anchor="start" x="2234" y="-625.08" font-family="Times,serif" font-size="14.00">input(&quot;Instructor ID: &quot;)</text>
</g>
<!-- 107374182546&#45;&gt;30064773611 -->
<g id="edge58" class="edge">
<title>107374182546&#45;&gt;30064773611</title>
<path fill="none" stroke="black" d="M2097.24,-728.25C2132.4,-722.67 2175.31,-713.71 2212,-699.75 2235.42,-690.83 2259.7,-676.87 2278.8,-664.62"/>
<polygon fill="black" stroke="black" points="2280.57,-667.64 2287.01,-659.23 2276.73,-661.79 2280.57,-667.64"/>
<text xml:space="preserve" text-anchor="middle" x="2261.55" y="-686.45" font-family="Times,serif" font-size="14.00">DDG: </text>
</g>
<!-- 68719479242 -->
<g id="node20" class="node">
<title>68719479242</title>
<polygon fill="none" stroke="black" points="2613.75,-666 2422.25,-666 2422.25,-610.75 2613.75,-610.75 2613.75,-666"/>
<text xml:space="preserve" text-anchor="start" x="2464" y="-648.7" font-family="Times,serif" font-size="14.00">IDENTIFIER, 1290</text>
<text xml:space="preserve" text-anchor="start" x="2501.12" y="-632.95" font-family="Times,serif" font-size="14.00">input</text>
<text xml:space="preserve" text-anchor="start" x="2430.25" y="-617.2" font-family="Times,serif" font-size="14.00">input(&quot;Instructor name: &quot;)</text>
</g>
<!-- 107374182546&#45;&gt;68719479242 -->
<g id="edge59" class="edge">
<title>107374182546&#45;&gt;68719479242</title>
<path fill="none" stroke="black" d="M2097.07,-728.53C2148.34,-722.13 2219.85,-712.16 2282,-699.75 2324.45,-691.27 2370.69,-679.92 2410.9,-669.35"/>
<polygon fill="black" stroke="black" points="2411.56,-672.8 2420.33,-666.85 2409.77,-666.03 2411.56,-672.8"/>
<text xml:space="preserve" text-anchor="middle" x="2364.19" y="-686.45" font-family="Times,serif" font-size="14.00">DDG: </text>
</g>
<!-- 30064773616 -->
<g id="node21" class="node">
<title>30064773616</title>
<polygon fill="none" stroke="black" points="585.75,-658.12 394.25,-658.12 394.25,-618.62 585.75,-618.62 585.75,-658.12"/>
<text xml:space="preserve" text-anchor="start" x="452.88" y="-640.83" font-family="Times,serif" font-size="14.00">input, 1290</text>
<text xml:space="preserve" text-anchor="start" x="402.25" y="-625.08" font-family="Times,serif" font-size="14.00">input(&quot;Instructor name: &quot;)</text>
</g>
<!-- 107374182546&#45;&gt;30064773616 -->
<g id="edge60" class="edge">
<title>107374182546&#45;&gt;30064773616</title>
<path fill="none" stroke="black" d="M1959.12,-736.48C1693.16,-736.15 741.53,-732.66 610.25,-699.75 581.23,-692.48 551.16,-677.37 528.34,-664.09"/>
<polygon fill="black" stroke="black" points="530.4,-661.24 520.02,-659.12 526.81,-667.26 530.4,-661.24"/>
<text xml:space="preserve" text-anchor="middle" x="627.12" y="-686.45" font-family="Times,serif" font-size="14.00">DDG: </text>
</g>
<!-- 68719479247 -->
<g id="node22" class="node">
<title>68719479247</title>
<polygon fill="none" stroke="black" points="2789.88,-666 2632.12,-666 2632.12,-610.75 2789.88,-610.75 2789.88,-666"/>
<text xml:space="preserve" text-anchor="start" x="2657" y="-648.7" font-family="Times,serif" font-size="14.00">IDENTIFIER, 1291</text>
<text xml:space="preserve" text-anchor="start" x="2694.12" y="-632.95" font-family="Times,serif" font-size="14.00">input</text>
<text xml:space="preserve" text-anchor="start" x="2640.12" y="-617.2" font-family="Times,serif" font-size="14.00">input(&quot;Department: &quot;)</text>
</g>
<!-- 107374182546&#45;&gt;68719479247 -->
<g id="edge61" class="edge">
<title>107374182546&#45;&gt;68719479247</title>
<path fill="none" stroke="black" d="M2097.01,-732.79C2206.58,-725.91 2426.97,-708.12 2621.02,-666.3"/>
<polygon fill="black" stroke="black" points="2621.5,-669.78 2630.52,-664.22 2620,-662.94 2621.5,-669.78"/>
<text xml:space="preserve" text-anchor="middle" x="2543.74" y="-686.45" font-family="Times,serif" font-size="14.00">DDG: </text>
</g>
<!-- 30064773621 -->
<g id="node23" class="node">
<title>30064773621</title>
<polygon fill="none" stroke="black" points="1482.88,-658.12 1325.12,-658.12 1325.12,-618.62 1482.88,-618.62 1482.88,-658.12"/>
<text xml:space="preserve" text-anchor="start" x="1366.88" y="-640.83" font-family="Times,serif" font-size="14.00">input, 1291</text>
<text xml:space="preserve" text-anchor="start" x="1333.12" y="-625.08" font-family="Times,serif" font-size="14.00">input(&quot;Department: &quot;)</text>
</g>
<!-- 107374182546&#45;&gt;30064773621 -->
<g id="edge62" class="edge">
<title>107374182546&#45;&gt;30064773621</title>
<path fill="none" stroke="black" d="M1958.76,-734.06C1877.4,-730.31 1738.61,-721.18 1621.25,-699.75 1570.77,-690.53 1515.02,-674.92 1472.64,-661.89"/>
<polygon fill="black" stroke="black" points="1473.92,-658.62 1463.33,-659 1471.84,-665.31 1473.92,-658.62"/>
<text xml:space="preserve" text-anchor="middle" x="1638.12" y="-686.45" font-family="Times,serif" font-size="14.00">DDG: </text>
</g>
<!-- 124554051730 -->
<g id="node2" class="node">
<title>124554051730</title>
<polygon fill="none" stroke="black" points="1304.12,-39.5 1159.88,-39.5 1159.88,0 1304.12,0 1304.12,-39.5"/>
<text xml:space="preserve" text-anchor="start" x="1167.88" y="-22.2" font-family="Times,serif" font-size="14.00">METHOD_RETURN, 1288</text>
<text xml:space="preserve" text-anchor="start" x="1221.88" y="-6.45" font-family="Times,serif" font-size="14.00">ANY</text>
</g>
<!-- 111669149999&#45;&gt;30064773627 -->
<g id="edge44" class="edge">
<title>111669149999&#45;&gt;30064773627</title>
<path fill="none" stroke="black" d="M1897.2,-552.76C1877.76,-531.72 1851,-496.03 1851,-459 1851,-459 1851,-459 1851,-308.25 1851,-277.88 1785.96,-255.45 1721.45,-240.68"/>
<polygon fill="black" stroke="black" points="1722.27,-237.27 1711.75,-238.52 1720.75,-244.11 1722.27,-237.27"/>
<text xml:space="preserve" text-anchor="middle" x="1888.12" y="-395.07" font-family="Times,serif" font-size="14.00">DDG: system</text>
</g>
<!-- 30064773615&#45;&gt;124554051730 -->
<g id="edge5" class="edge">
<title>30064773615&#45;&gt;124554051730</title>
<path fill="none" stroke="black" d="M2507.23,-289.13C2575.43,-256.51 2720.89,-189.67 2849.5,-148.75 2997.57,-101.64 3295.84,-168.4 3187,-57.5 3153.76,-23.63 1685.96,-20.89 1315.98,-20.74"/>
<polygon fill="black" stroke="black" points="1316.09,-17.24 1306.09,-20.74 1316.09,-24.24 1316.09,-17.24"/>
<text xml:space="preserve" text-anchor="middle" x="3031.75" y="-166.95" font-family="Times,serif" font-size="14.00">DDG: instructor_id = tmp263 = input(&quot;Instructor ID: &quot;)</text>
<text xml:space="preserve" text-anchor="middle" x="3031.75" y="-151.2" font-family="Times,serif" font-size="14.00">input(&quot;Instructor ID: &quot;).strip()</text>
</g>
<!-- 30064773615&#45;&gt;30064773627 -->
<g id="edge46" class="edge">
<title>30064773615&#45;&gt;30064773627</title>
<path fill="none" stroke="black" d="M2300.1,-289.01C2208.99,-278.74 2094.36,-266.13 1992,-255.75 1923.97,-248.85 1849.33,-241.8 1783.31,-235.75"/>
<polygon fill="black" stroke="black" points="1783.73,-232.27 1773.45,-234.85 1783.09,-239.24 1783.73,-232.27"/>
<text xml:space="preserve" text-anchor="middle" x="2196.76" y="-258.2" font-family="Times,serif" font-size="14.00">DDG: instructor_id</text>
</g>
<!-- 30064773620&#45;&gt;124554051730 -->
<g id="edge10" class="edge">
<title>30064773620&#45;&gt;124554051730</title>
<path fill="none" stroke="black" d="M1119.73,-289.12C1110.11,-284.36 1100.78,-278.54 1093,-271.5 1065.49,-246.62 1084.25,-218.23 1053,-198.25 1002.48,-165.95 824.71,-224.04 783.75,-180.25 774.19,-170.03 775.35,-159.95 783.75,-148.75 827.45,-90.5 1031.19,-50.9 1148.39,-32.51"/>
<polygon fill="black" stroke="black" points="1148.61,-36.01 1157.96,-31.03 1147.54,-29.1 1148.61,-36.01"/>
<text xml:space="preserve" text-anchor="middle" x="942.38" y="-166.95" font-family="Times,serif" font-size="14.00">DDG: name = tmp264 = input(&quot;Instructor name: &quot;)</text>
<text xml:space="preserve" text-anchor="middle" x="942.38" y="-151.2" font-family="Times,serif" font-size="14.00">input(&quot;Instructor name: &quot;).strip()</text>
</g>
<!-- 30064773620&#45;&gt;30064773627 -->
<g id="edge47" class="edge">
<title>30064773620&#45;&gt;30064773627</title>
<path fill="none" stroke="black" d="M1270.17,-289.02C1296.55,-283.39 1325.43,-277.21 1352,-271.5 1399.07,-261.39 1451.26,-250.12 1495.16,-240.62"/>
<polygon fill="black" stroke="black" points="1495.63,-244.1 1504.66,-238.57 1494.15,-237.26 1495.63,-244.1"/>
<text xml:space="preserve" text-anchor="middle" x="1449.13" y="-258.2" font-family="Times,serif" font-size="14.00">DDG: name</text>
</g>
<!-- 30064773625&#45;&gt;124554051730 -->
<g id="edge15" class="edge">
<title>30064773625&#45;&gt;124554051730</title>
<path fill="none" stroke="black" d="M1538.15,-289.08C1508.23,-278.69 1470.24,-265.94 1436,-255.75 1307.93,-217.64 1226.76,-285.93 1145,-180.25 1111.85,-137.41 1162.33,-80.27 1199.15,-47.29"/>
<polygon fill="black" stroke="black" points="1201.31,-50.05 1206.55,-40.84 1196.71,-44.77 1201.31,-50.05"/>
<text xml:space="preserve" text-anchor="middle" x="1307" y="-166.95" font-family="Times,serif" font-size="14.00">DDG: department = tmp265 = input(&quot;Department: &quot;)</text>
<text xml:space="preserve" text-anchor="middle" x="1307" y="-151.2" font-family="Times,serif" font-size="14.00">input(&quot;Department: &quot;).strip()</text>
</g>
<!-- 30064773625&#45;&gt;30064773627 -->
<g id="edge48" class="edge">
<title>30064773625&#45;&gt;30064773627</title>
<path fill="none" stroke="black" d="M1592.64,-289.32C1593.02,-277.8 1593.53,-262.82 1593.97,-249.65"/>
<polygon fill="black" stroke="black" points="1597.47,-249.83 1594.3,-239.72 1590.47,-249.6 1597.47,-249.83"/>
<text xml:space="preserve" text-anchor="middle" x="1644.3" y="-258.2" font-family="Times,serif" font-size="14.00">DDG: department</text>
</g>
<!-- 30064773628 -->
<g id="node7" class="node">
<title>30064773628</title>
<polygon fill="none" stroke="black" points="2032.75,-130.75 1679.25,-130.75 1679.25,-91.25 2032.75,-91.25 2032.75,-130.75"/>
<text xml:space="preserve" text-anchor="start" x="1764.88" y="-113.45" font-family="Times,serif" font-size="14.00">&lt;operator&gt;.assignment, 1292</text>
<text xml:space="preserve" text-anchor="start" x="1687.25" y="-97.7" font-family="Times,serif" font-size="14.00">success = system.add_instructor(instructor_id, ...</text>
</g>
<!-- 30064773628&#45;&gt;124554051730 -->
<g id="edge20" class="edge">
<title>30064773628&#45;&gt;124554051730</title>
<path fill="none" stroke="black" d="M1821.89,-90.84C1812.37,-85.32 1802.08,-79.17 1792.75,-73.25 1782.37,-66.66 1781.61,-61.56 1770,-57.5 1688.63,-29 1445.84,-22.49 1316.04,-21.08"/>
<polygon fill="black" stroke="black" points="1316.15,-17.58 1306.11,-20.98 1316.08,-24.58 1316.15,-17.58"/>
<text xml:space="preserve" text-anchor="middle" x="1991.88" y="-59.95" font-family="Times,serif" font-size="14.00">DDG: system.add_instructor(instructor_id, name, department)</text>
</g>
<!-- 30064773628&#45;&gt;124554051730 -->
<g id="edge21" class="edge">
<title>30064773628&#45;&gt;124554051730</title>
<path fill="none" stroke="black" d="M1678.87,-92.31C1674.2,-91.94 1669.57,-91.59 1665,-91.25 1584.07,-85.28 1375.98,-102.41 1300.25,-73.25 1289.93,-69.28 1289.7,-64.32 1281,-57.5 1276.46,-53.94 1271.65,-50.24 1266.87,-46.62"/>
<polygon fill="black" stroke="black" points="1269.14,-43.95 1259.05,-40.72 1264.93,-49.54 1269.14,-43.95"/>
<text xml:space="preserve" text-anchor="middle" x="1533.12" y="-59.95" font-family="Times,serif" font-size="14.00">DDG: success = system.add_instructor(instructor_id, name, department)</text>
</g>
<!-- 30064773630&#45;&gt;124554051730 -->
<g id="edge23" class="edge">
<title>30064773630&#45;&gt;124554051730</title>
<path fill="none" stroke="black" d="M2404.97,-108.31C2537.1,-105.15 2698.42,-96.5 2720,-73.25 2724.76,-68.12 2724.89,-62.51 2720,-57.5 2695.32,-32.21 1625.9,-23.3 1315.58,-21.25"/>
<polygon fill="black" stroke="black" points="1315.97,-17.75 1305.94,-21.19 1315.92,-24.75 1315.97,-17.75"/>
<text xml:space="preserve" text-anchor="middle" x="2953.12" y="-59.95" font-family="Times,serif" font-size="14.00">DDG: &quot;Instructor added.&quot; if success else &quot;Failed to add instructor.&quot;</text>
</g>
<!-- 30064773630&#45;&gt;124554051730 -->
<g id="edge24" class="edge">
<title>30064773630&#45;&gt;124554051730</title>
<path fill="none" stroke="black" d="M2220.02,-90.98C2213.94,-79.1 2204.33,-64.74 2191,-57.5 2152.91,-36.81 1542.87,-25.47 1316.06,-21.95"/>
<polygon fill="black" stroke="black" points="1316.15,-18.46 1306.09,-21.8 1316.04,-25.45 1316.15,-18.46"/>
<text xml:space="preserve" text-anchor="middle" x="2461.04" y="-59.95" font-family="Times,serif" font-size="14.00">DDG: print(&quot;Instructor added.&quot; if success else &quot;Failed to add instructor.&quot;)</text>
</g>
<!-- 30064773612 -->
<g id="node10" class="node">
<title>30064773612</title>
<polygon fill="none" stroke="black" points="3676.38,-535.25 3437.62,-535.25 3437.62,-495.75 3676.38,-495.75 3676.38,-535.25"/>
<text xml:space="preserve" text-anchor="start" x="3465.88" y="-517.95" font-family="Times,serif" font-size="14.00">&lt;operator&gt;.assignment, 1289</text>
<text xml:space="preserve" text-anchor="start" x="3445.62" y="-502.2" font-family="Times,serif" font-size="14.00">tmp263 = input(&quot;Instructor ID: &quot;)</text>
</g>
<!-- 30064773612&#45;&gt;124554051730 -->
<g id="edge1" class="edge">
<title>30064773612&#45;&gt;124554051730</title>
<path fill="none" stroke="black" d="M3589.03,-495.27C3617.28,-475.61 3654,-442.22 3654,-401.5 3654,-401.5 3654,-401.5 3654,-110 3654,37.19 3473.62,-70.49 3327,-57.5 2926.49,-22.02 1655.53,-20.41 1316.05,-20.63"/>
<polygon fill="black" stroke="black" points="1316.12,-17.13 1306.12,-20.64 1316.12,-24.13 1316.12,-17.13"/>
<text xml:space="preserve" text-anchor="middle" x="3751.88" y="-258.2" font-family="Times,serif" font-size="14.00">DDG: input(&quot;Instructor ID: &quot;)</text>
</g>
<!-- 30064773612&#45;&gt;124554051730 -->
<g id="edge2" class="edge">
<title>30064773612&#45;&gt;124554051730</title>
<path fill="none" stroke="black" d="M3672.87,-495.27C3763.06,-476.9 3873,-445.49 3873,-401.5 3873,-401.5 3873,-401.5 3873,-110 3873,56.53 3668.02,-70.54 3502,-57.5 3064.8,-23.16 1672.47,-20.75 1315.85,-20.71"/>
<polygon fill="black" stroke="black" points="1315.87,-17.21 1305.87,-20.71 1315.86,-24.21 1315.87,-17.21"/>
<text xml:space="preserve" text-anchor="middle" x="4001.25" y="-258.2" font-family="Times,serif" font-size="14.00">DDG: tmp263 = input(&quot;Instructor ID: &quot;)</text>
</g>
<!-- 30064773612&#45;&gt;30064773614 -->
<g id="edge50" class="edge">
<title>30064773612&#45;&gt;30064773614</title>
<path fill="none" stroke="black" d="M3507.64,-495.33C3457.32,-475.79 3379.23,-445.47 3325.52,-424.61"/>
<polygon fill="black" stroke="black" points="3327.12,-421.48 3316.53,-421.12 3324.59,-428 3327.12,-421.48"/>
<text xml:space="preserve" text-anchor="middle" x="3491.69" y="-452.57" font-family="Times,serif" font-size="14.00">DDG: tmp263</text>
</g>
<!-- 30064773614&#45;&gt;124554051730 -->
<g id="edge3" class="edge">
<title>30064773614&#45;&gt;124554051730</title>
<path fill="none" stroke="black" d="M3266,-380.35C3266,-362.28 3266,-334.42 3266,-310.25 3266,-310.25 3266,-310.25 3266,-110 3266,-85.85 3271.02,-72.39 3252,-57.5 3213.29,-27.2 1692.53,-21.78 1315.77,-20.91"/>
<polygon fill="black" stroke="black" points="1315.96,-17.41 1305.95,-20.89 1315.94,-24.41 1315.96,-17.41"/>
<text xml:space="preserve" text-anchor="middle" x="3303.12" y="-212.57" font-family="Times,serif" font-size="14.00">DDG: tmp263</text>
</g>
<!-- 30064773614&#45;&gt;124554051730 -->
<g id="edge4" class="edge">
<title>30064773614&#45;&gt;124554051730</title>
<path fill="none" stroke="black" d="M3317.46,-380.3C3346.09,-365.94 3376,-343.08 3376,-310.25 3376,-310.25 3376,-310.25 3376,-110 3376,-58.22 3322.26,-69.95 3272,-57.5 3175.81,-33.68 1688.54,-23.42 1316.07,-21.22"/>
<polygon fill="black" stroke="black" points="1316.13,-17.72 1306.11,-21.16 1316.09,-24.72 1316.13,-17.72"/>
<text xml:space="preserve" text-anchor="middle" x="3500.88" y="-212.57" font-family="Times,serif" font-size="14.00">DDG: input(&quot;Instructor ID: &quot;).strip()</text>
</g>
<!-- 30064773614&#45;&gt;30064773615 -->
<g id="edge26" class="edge">
<title>30064773614&#45;&gt;30064773615</title>
<path fill="none" stroke="black" d="M3149.54,-386.47C3018.71,-371.84 2804.64,-347.9 2651.32,-330.75"/>
<polygon fill="black" stroke="black" points="2651.76,-327.28 2641.43,-329.65 2650.98,-334.24 2651.76,-327.28"/>
<text xml:space="preserve" text-anchor="middle" x="3039.65" y="-349.45" font-family="Times,serif" font-size="14.00">DDG: input(&quot;Instructor ID: &quot;).strip()</text>
</g>
<!-- 30064773617 -->
<g id="node12" class="node">
<title>30064773617</title>
<polygon fill="none" stroke="black" points="519.12,-535.25 266.88,-535.25 266.88,-495.75 519.12,-495.75 519.12,-535.25"/>
<text xml:space="preserve" text-anchor="start" x="301.88" y="-517.95" font-family="Times,serif" font-size="14.00">&lt;operator&gt;.assignment, 1290</text>
<text xml:space="preserve" text-anchor="start" x="274.88" y="-502.2" font-family="Times,serif" font-size="14.00">tmp264 = input(&quot;Instructor name: &quot;)</text>
</g>
<!-- 30064773617&#45;&gt;124554051730 -->
<g id="edge6" class="edge">
<title>30064773617&#45;&gt;124554051730</title>
<path fill="none" stroke="black" d="M266.49,-502.43C151.6,-487.86 0,-457.94 0,-401.5 0,-401.5 0,-401.5 0,-110 0,0.93 133.93,-71.28 244,-57.5 417.84,-35.73 942.69,-25.31 1148.2,-21.98"/>
<polygon fill="black" stroke="black" points="1148.05,-25.49 1157.99,-21.83 1147.94,-18.49 1148.05,-25.49"/>
<text xml:space="preserve" text-anchor="middle" x="104.62" y="-258.2" font-family="Times,serif" font-size="14.00">DDG: input(&quot;Instructor name: &quot;)</text>
</g>
<!-- 30064773617&#45;&gt;124554051730 -->
<g id="edge7" class="edge">
<title>30064773617&#45;&gt;124554051730</title>
<path fill="none" stroke="black" d="M424.47,-495.4C430.26,-490.39 435.55,-484.48 439,-477.75 484.01,-389.81 382.6,-327.98 450,-255.75 473.06,-231.04 572.03,-255.14 601,-237.75 688.68,-185.12 649.11,-95.61 744,-57.5 815.13,-28.93 1028.4,-22.38 1148.13,-21"/>
<polygon fill="black" stroke="black" points="1147.94,-24.5 1157.9,-20.9 1147.86,-17.5 1147.94,-24.5"/>
<text xml:space="preserve" text-anchor="middle" x="585" y="-258.2" font-family="Times,serif" font-size="14.00">DDG: tmp264 = input(&quot;Instructor name: &quot;)</text>
</g>
<!-- 30064773617&#45;&gt;30064773619 -->
<g id="edge52" class="edge">
<title>30064773617&#45;&gt;30064773619</title>
<path fill="none" stroke="black" d="M377.56,-495.33C362.96,-477.2 340.89,-449.79 324.36,-429.27"/>
<polygon fill="black" stroke="black" points="327.16,-427.16 318.16,-421.56 321.7,-431.55 327.16,-427.16"/>
<text xml:space="preserve" text-anchor="middle" x="398.09" y="-452.57" font-family="Times,serif" font-size="14.00">DDG: tmp264</text>
</g>
<!-- 30064773619&#45;&gt;124554051730 -->
<g id="edge8" class="edge">
<title>30064773619&#45;&gt;124554051730</title>
<path fill="none" stroke="black" d="M270.72,-380.54C249.02,-364.76 224,-340.09 224,-310.25 224,-310.25 224,-310.25 224,-110 224,-61.37 273.14,-70.49 320,-57.5 398.39,-35.77 937.82,-25.26 1148.22,-21.95"/>
<polygon fill="black" stroke="black" points="1148.04,-25.45 1157.98,-21.79 1147.93,-18.45 1148.04,-25.45"/>
<text xml:space="preserve" text-anchor="middle" x="261.12" y="-212.57" font-family="Times,serif" font-size="14.00">DDG: tmp264</text>
</g>
<!-- 30064773619&#45;&gt;124554051730 -->
<g id="edge9" class="edge">
<title>30064773619&#45;&gt;124554051730</title>
<path fill="none" stroke="black" d="M313.19,-380.36C322.42,-362.75 334,-335.6 334,-310.25 334,-310.25 334,-310.25 334,-110 334,-28.62 925.47,-20.55 1148.37,-20.39"/>
<polygon fill="black" stroke="black" points="1148.14,-23.89 1158.14,-20.39 1148.14,-16.89 1148.14,-23.89"/>
<text xml:space="preserve" text-anchor="middle" x="465.62" y="-212.57" font-family="Times,serif" font-size="14.00">DDG: input(&quot;Instructor name: &quot;).strip()</text>
</g>
<!-- 30064773619&#45;&gt;30064773620 -->
<g id="edge28" class="edge">
<title>30064773619&#45;&gt;30064773620</title>
<path fill="none" stroke="black" d="M425.01,-387C572.13,-372.04 820,-346.84 991.38,-329.42"/>
<polygon fill="black" stroke="black" points="991.71,-332.91 1001.31,-328.41 991,-325.94 991.71,-332.91"/>
<text xml:space="preserve" text-anchor="middle" x="925.19" y="-349.45" font-family="Times,serif" font-size="14.00">DDG: input(&quot;Instructor name: &quot;).strip()</text>
</g>
<!-- 30064773622 -->
<g id="node14" class="node">
<title>30064773622</title>
<polygon fill="none" stroke="black" points="1289.25,-535.25 1070.75,-535.25 1070.75,-495.75 1289.25,-495.75 1289.25,-535.25"/>
<text xml:space="preserve" text-anchor="start" x="1088.88" y="-517.95" font-family="Times,serif" font-size="14.00">&lt;operator&gt;.assignment, 1291</text>
<text xml:space="preserve" text-anchor="start" x="1078.75" y="-502.2" font-family="Times,serif" font-size="14.00">tmp265 = input(&quot;Department: &quot;)</text>
</g>
<!-- 30064773622&#45;&gt;124554051730 -->
<g id="edge11" class="edge">
<title>30064773622&#45;&gt;124554051730</title>
<path fill="none" stroke="black" d="M1070.27,-499.25C1004.95,-486.2 922.83,-462.52 860,-420.25 781.29,-367.3 793.88,-319.91 724,-255.75 713.65,-246.24 704.52,-250.2 698,-237.75 689.85,-222.2 695.92,-215.68 698,-198.25 703.87,-149.09 697.67,-129.59 729,-91.25 748.12,-67.86 759.15,-66.46 788,-57.5 853.01,-37.31 1038.53,-27.51 1148.1,-23.36"/>
<polygon fill="black" stroke="black" points="1148.07,-26.86 1157.93,-22.99 1147.81,-19.87 1148.07,-26.86"/>
<text xml:space="preserve" text-anchor="middle" x="827.19" y="-258.2" font-family="Times,serif" font-size="14.00">DDG: input(&quot;Department: &quot;)</text>
</g>
<!-- 30064773622&#45;&gt;124554051730 -->
<g id="edge12" class="edge">
<title>30064773622&#45;&gt;124554051730</title>
<path fill="none" stroke="black" d="M1216.75,-495.34C1288.34,-455.7 1433.8,-362.27 1366,-289.5 1327.39,-248.06 1150.36,-312.94 1111.75,-271.5 1108.47,-267.98 1102.12,-150.59 1133,-91.25 1142.95,-72.14 1160.7,-57.06 1178.46,-45.84"/>
<polygon fill="black" stroke="black" points="1180.17,-48.89 1186.98,-40.77 1176.59,-42.87 1180.17,-48.89"/>
<text xml:space="preserve" text-anchor="middle" x="1229.88" y="-258.2" font-family="Times,serif" font-size="14.00">DDG: tmp265 = input(&quot;Department: &quot;)</text>
</g>
<!-- 30064773622&#45;&gt;30064773624 -->
<g id="edge54" class="edge">
<title>30064773622&#45;&gt;30064773624</title>
<path fill="none" stroke="black" d="M1145.22,-495.33C1110.52,-476.2 1057.05,-446.73 1019.32,-425.93"/>
<polygon fill="black" stroke="black" points="1021.38,-423.07 1010.93,-421.3 1018,-429.2 1021.38,-423.07"/>
<text xml:space="preserve" text-anchor="middle" x="1144.96" y="-452.57" font-family="Times,serif" font-size="14.00">DDG: tmp265</text>
</g>
<!-- 30064773624&#45;&gt;124554051730 -->
<g id="edge13" class="edge">
<title>30064773624&#45;&gt;124554051730</title>
<path fill="none" stroke="black" d="M978.58,-380.3C984.87,-339.98 992.82,-246.28 942,-198.25 914.55,-172.31 798.25,-208.33 773,-180.25 750.74,-155.5 797.07,-93.62 800,-91.25 852.14,-49.07 1037.74,-31.54 1147.98,-24.72"/>
<polygon fill="black" stroke="black" points="1148.11,-28.22 1157.88,-24.13 1147.69,-21.23 1148.11,-28.22"/>
<text xml:space="preserve" text-anchor="middle" x="1005.5" y="-212.57" font-family="Times,serif" font-size="14.00">DDG: tmp265</text>
</g>
<!-- 30064773624&#45;&gt;124554051730 -->
<g id="edge14" class="edge">
<title>30064773624&#45;&gt;124554051730</title>
<path fill="none" stroke="black" d="M974.29,-380.38C971.98,-348.72 962.4,-285.93 923,-255.75 885.03,-226.66 740.88,-272.96 708.5,-237.75 696.62,-224.83 703.91,-215.2 708.5,-198.25 730.17,-118.2 751.82,-82.16 831,-57.5 888.2,-39.69 1048.55,-29.25 1148.3,-24.3"/>
<polygon fill="black" stroke="black" points="1148.22,-27.81 1158.04,-23.83 1147.88,-20.82 1148.22,-27.81"/>
<text xml:space="preserve" text-anchor="middle" x="823.25" y="-212.57" font-family="Times,serif" font-size="14.00">DDG: input(&quot;Department: &quot;).strip()</text>
</g>
<!-- 30064773624&#45;&gt;30064773625 -->
<g id="edge30" class="edge">
<title>30064773624&#45;&gt;30064773625</title>
<path fill="none" stroke="black" d="M1080.99,-390.86C1150.56,-384.57 1243.44,-375.03 1325,-362.75 1381.03,-354.32 1443.16,-342.26 1493.38,-331.83"/>
<polygon fill="black" stroke="black" points="1494,-335.28 1503.08,-329.81 1492.57,-328.42 1494,-335.28"/>
<text xml:space="preserve" text-anchor="middle" x="1528.24" y="-349.45" font-family="Times,serif" font-size="14.00">DDG: input(&quot;Department: &quot;).strip()</text>
</g>
<!-- 30064773627&#45;&gt;124554051730 -->
<g id="edge16" class="edge">
<title>30064773627&#45;&gt;124554051730</title>
<path fill="none" stroke="black" d="M1533.69,-197.88C1522.32,-193.02 1510.92,-187.16 1501,-180.25 1485.63,-169.54 1489.82,-157 1473,-148.75 1446.58,-135.79 1228.84,-152.26 1208.75,-130.75 1186.53,-106.96 1199.9,-88.76 1209,-57.5 1209.76,-54.88 1210.77,-52.26 1211.94,-49.7"/>
<polygon fill="black" stroke="black" points="1215,-51.41 1216.71,-40.95 1208.85,-48.06 1215,-51.41"/>
<text xml:space="preserve" text-anchor="middle" x="1245.88" y="-105.58" font-family="Times,serif" font-size="14.00">DDG: system</text>
</g>
<!-- 30064773627&#45;&gt;124554051730 -->
<g id="edge17" class="edge">
<title>30064773627&#45;&gt;124554051730</title>
<path fill="none" stroke="black" d="M1553.38,-197.9C1543.97,-192.77 1534.32,-186.8 1526,-180.25 1511.28,-168.67 1514.68,-157.27 1498,-148.75 1426.99,-112.47 1390.85,-166.34 1319.5,-130.75 1298.11,-120.08 1302.88,-104.52 1283,-91.25 1263.7,-78.37 1247.64,-92.02 1234,-73.25 1229.44,-66.98 1227.69,-59.08 1227.38,-51.33"/>
<polygon fill="black" stroke="black" points="1230.88,-51.56 1227.79,-41.43 1223.88,-51.28 1230.88,-51.56"/>
<text xml:space="preserve" text-anchor="middle" x="1380.25" y="-105.58" font-family="Times,serif" font-size="14.00">DDG: instructor_id</text>
</g>
<!-- 30064773627&#45;&gt;124554051730 -->
<g id="edge18" class="edge">
<title>30064773627&#45;&gt;124554051730</title>
<path fill="none" stroke="black" d="M1570.69,-197.79C1564.13,-192.31 1557.14,-186.21 1551,-180.25 1537.55,-167.21 1538.36,-159.47 1523,-148.75 1505.08,-136.24 1495.26,-143.12 1477.25,-130.75 1457.61,-117.27 1462.31,-101.9 1441,-91.25 1368.29,-54.91 1326.22,-118.96 1259,-73.25 1250.93,-67.76 1245.12,-59.09 1241.02,-50.36"/>
<polygon fill="black" stroke="black" points="1244.35,-49.27 1237.38,-41.3 1237.86,-51.88 1244.35,-49.27"/>
<text xml:space="preserve" text-anchor="middle" x="1507.62" y="-105.58" font-family="Times,serif" font-size="14.00">DDG: name</text>
</g>
<!-- 30064773627&#45;&gt;124554051730 -->
<g id="edge19" class="edge">
<title>30064773627&#45;&gt;124554051730</title>
<path fill="none" stroke="black" d="M1587.56,-197.8C1574.36,-164.22 1547.37,-97.77 1538,-91.25 1491.55,-58.93 1335.42,-96.86 1284,-73.25 1271.86,-67.68 1260.99,-57.95 1252.37,-48.37"/>
<polygon fill="black" stroke="black" points="1255.2,-46.3 1246.09,-40.9 1249.85,-50.81 1255.2,-46.3"/>
<text xml:space="preserve" text-anchor="middle" x="1609.85" y="-105.58" font-family="Times,serif" font-size="14.00">DDG: department</text>
</g>
<!-- 30064773627&#45;&gt;30064773628 -->
<g id="edge32" class="edge">
<title>30064773627&#45;&gt;30064773628</title>
<path fill="none" stroke="black" d="M1771.81,-207.41C1844.61,-201.61 1914.72,-192.85 1926,-180.25 1935.34,-169.82 1933.24,-160.73 1926,-148.75 1923.67,-144.9 1920.79,-141.43 1917.53,-138.3"/>
<polygon fill="black" stroke="black" points="1919.94,-135.75 1909.95,-132.2 1915.54,-141.2 1919.94,-135.75"/>
<text xml:space="preserve" text-anchor="middle" x="1969.36" y="-159.07" font-family="Times,serif" font-size="14.00">DDG: system</text>
</g>
<!-- 30064773627&#45;&gt;30064773628 -->
<g id="edge33" class="edge">
<title>30064773627&#45;&gt;30064773628</title>
<path fill="none" stroke="black" d="M1589.36,-197.81C1586.17,-182.63 1584.85,-161.87 1596.5,-148.75 1600.04,-144.76 1635.83,-138.76 1679.75,-132.76"/>
<polygon fill="black" stroke="black" points="1680.14,-136.24 1689.58,-131.44 1679.2,-129.3 1680.14,-136.24"/>
<text xml:space="preserve" text-anchor="middle" x="1657.25" y="-159.07" font-family="Times,serif" font-size="14.00">DDG: instructor_id</text>
</g>
<!-- 30064773627&#45;&gt;30064773628 -->
<g id="edge34" class="edge">
<title>30064773627&#45;&gt;30064773628</title>
<path fill="none" stroke="black" d="M1684.54,-197.77C1696.37,-193.12 1707.88,-187.36 1718,-180.25 1732.24,-170.24 1727.11,-158.89 1741.25,-148.75 1748.16,-143.79 1755.78,-139.48 1763.69,-135.73"/>
<polygon fill="black" stroke="black" points="1765.09,-138.94 1772.85,-131.74 1762.29,-132.53 1765.09,-138.94"/>
<text xml:space="preserve" text-anchor="middle" x="1771.62" y="-159.07" font-family="Times,serif" font-size="14.00">DDG: name</text>
</g>
<!-- 30064773627&#45;&gt;30064773628 -->
<g id="edge35" class="edge">
<title>30064773627&#45;&gt;30064773628</title>
<path fill="none" stroke="black" d="M1750.69,-197.8C1773.11,-192.99 1791.98,-187.18 1802,-180.25 1815.4,-170.99 1810.88,-161.71 1820.75,-148.75 1823.12,-145.63 1825.73,-142.49 1828.43,-139.43"/>
<polygon fill="black" stroke="black" points="1830.88,-141.93 1835.08,-132.2 1825.73,-137.19 1830.88,-141.93"/>
<text xml:space="preserve" text-anchor="middle" x="1871.38" y="-159.07" font-family="Times,serif" font-size="14.00">DDG: department</text>
</g>
<!-- 30064773629&#45;&gt;124554051730 -->
<g id="edge22" class="edge">
<title>30064773629&#45;&gt;124554051730</title>
<path fill="none" stroke="black" d="M2399.78,-437.8C2637.04,-400.71 3115.84,-311.17 3214,-180.25 3231.29,-157.19 3246.83,-95.08 3207,-57.5 3172.1,-24.57 1687.82,-21.13 1315.85,-20.79"/>
<polygon fill="black" stroke="black" points="1315.91,-17.29 1305.9,-20.78 1315.9,-24.29 1315.91,-17.29"/>
<text xml:space="preserve" text-anchor="middle" x="3146.84" y="-258.2" font-family="Times,serif" font-size="14.00">DDG: success</text>
</g>
<!-- 30064773611&#45;&gt;30064773612 -->
<g id="edge41" class="edge">
<title>30064773611&#45;&gt;30064773612</title>
<path fill="none" stroke="black" d="M2379.2,-618.13C2390.39,-615.3 2401.97,-612.69 2413,-610.75 2776.49,-546.95 3212.73,-526.14 3426.26,-519.5"/>
<polygon fill="black" stroke="black" points="3426.11,-523.01 3436,-519.2 3425.89,-516.01 3426.11,-523.01"/>
<text xml:space="preserve" text-anchor="middle" x="2924.9" y="-567.58" font-family="Times,serif" font-size="14.00">DDG: &quot;Instructor ID: &quot;</text>
</g>
<!-- 30064773616&#45;&gt;30064773617 -->
<g id="edge42" class="edge">
<title>30064773616&#45;&gt;30064773617</title>
<path fill="none" stroke="black" d="M474.63,-618.22C458.67,-598.33 433.53,-567.01 415.37,-544.37"/>
<polygon fill="black" stroke="black" points="418.23,-542.35 409.25,-536.74 412.77,-546.73 418.23,-542.35"/>
<text xml:space="preserve" text-anchor="middle" x="534.04" y="-567.58" font-family="Times,serif" font-size="14.00">DDG: &quot;Instructor name: &quot;</text>
</g>
<!-- 30064773621&#45;&gt;30064773622 -->
<g id="edge43" class="edge">
<title>30064773621&#45;&gt;30064773622</title>
<path fill="none" stroke="black" d="M1368.51,-618.22C1329.76,-597.31 1267.61,-563.77 1225.35,-540.97"/>
<polygon fill="black" stroke="black" points="1227.12,-537.95 1216.66,-536.28 1223.8,-544.11 1227.12,-537.95"/>
<text xml:space="preserve" text-anchor="middle" x="1382.78" y="-567.58" font-family="Times,serif" font-size="14.00">DDG: &quot;Department: &quot;</text>
</g>
<!-- 30064771076 -->
<g id="node24" class="node">
<title>30064771076</title>
<polygon fill="none" stroke="black" points="3118.12,-755.5 3027.88,-755.5 3027.88,-719.5 3118.12,-719.5 3118.12,-755.5"/>
<text xml:space="preserve" text-anchor="middle" x="3073" y="-732.08" font-family="Times,serif" font-size="14.00">30064771076</text>
</g>
<!-- 30064771076&#45;&gt;68719479259 -->
<g id="edge36" class="edge">
<title>30064771076&#45;&gt;68719479259</title>
<path fill="none" stroke="black" d="M3082.63,-719.08C3089.23,-708.16 3098.72,-694.25 3109.5,-684 3113.57,-680.13 3118.03,-676.41 3122.66,-672.9"/>
<polygon fill="black" stroke="black" points="3124.43,-675.94 3130.52,-667.27 3120.35,-670.25 3124.43,-675.94"/>
<text xml:space="preserve" text-anchor="middle" x="3143.25" y="-686.45" font-family="Times,serif" font-size="14.00">DDG: print</text>
</g>
<!-- 68719479589 -->
<g id="node25" class="node">
<title>68719479589</title>
<polygon fill="none" stroke="black" points="3226.12,-755.5 3135.88,-755.5 3135.88,-719.5 3226.12,-719.5 3226.12,-755.5"/>
<text xml:space="preserve" text-anchor="middle" x="3181" y="-732.08" font-family="Times,serif" font-size="14.00">68719479589</text>
</g>
<!-- 68719479589&#45;&gt;68719479259 -->
<g id="edge37" class="edge">
<title>68719479589&#45;&gt;68719479259</title>
<path fill="none" stroke="black" d="M3181,-719.14C3181,-707.6 3181,-691.98 3181,-677.63"/>
<polygon fill="black" stroke="black" points="3184.5,-678 3181,-668 3177.5,-678 3184.5,-678"/>
<text xml:space="preserve" text-anchor="middle" x="3214.75" y="-686.45" font-family="Times,serif" font-size="14.00">DDG: print</text>
</g>
<!-- 68719479592 -->
<g id="node26" class="node">
<title>68719479592</title>
<polygon fill="none" stroke="black" points="3334.12,-755.5 3243.88,-755.5 3243.88,-719.5 3334.12,-719.5 3334.12,-755.5"/>
<text xml:space="preserve" text-anchor="middle" x="3289" y="-732.08" font-family="Times,serif" font-size="14.00">68719479592</text>
</g>
<!-- 68719479592&#45;&gt;68719479259 -->
<g id="edge38" class="edge">
<title>68719479592&#45;&gt;68719479259</title>
<path fill="none" stroke="black" d="M3279.56,-719.06C3273.07,-708.13 3263.71,-694.23 3253,-684 3248.92,-680.1 3244.44,-676.37 3239.78,-672.84"/>
<polygon fill="black" stroke="black" points="3242.04,-670.16 3231.87,-667.19 3237.97,-675.85 3242.04,-670.16"/>
<text xml:space="preserve" text-anchor="middle" x="3300.49" y="-686.45" font-family="Times,serif" font-size="14.00">DDG: print</text>
</g>
<!-- 30064771073 -->
<g id="node27" class="node">
<title>30064771073</title>
<polygon fill="none" stroke="black" points="2942.12,-755.5 2851.88,-755.5 2851.88,-719.5 2942.12,-719.5 2942.12,-755.5"/>
<text xml:space="preserve" text-anchor="middle" x="2897" y="-732.08" font-family="Times,serif" font-size="14.00">30064771073</text>
</g>
<!-- 30064771073&#45;&gt;68719479237 -->
<g id="edge56" class="edge">
<title>30064771073&#45;&gt;68719479237</title>
<path fill="none" stroke="black" d="M2897,-719.14C2897,-707.6 2897,-691.98 2897,-677.63"/>
<polygon fill="black" stroke="black" points="2900.5,-678 2897,-668 2893.5,-678 2900.5,-678"/>
<text xml:space="preserve" text-anchor="middle" x="2930.75" y="-686.45" font-family="Times,serif" font-size="14.00">DDG: input</text>
</g>
</g>
</svg>
