<?xml version="1.0" encoding="UTF-8" standalone="no"?>
<!DOCTYPE svg PUBLIC "-//W3C//DTD SVG 1.1//EN"
 "http://www.w3.org/Graphics/SVG/1.1/DTD/svg11.dtd">
<!-- Generated by graphviz version 13.1.2 (20250809.0930)
 -->
<!-- Title: cli_remove_instructor Pages: 1 -->
<svg width="2207pt" height="742pt"
 viewBox="0.00 0.00 2207.00 742.00" xmlns="http://www.w3.org/2000/svg" xmlns:xlink="http://www.w3.org/1999/xlink">
<g id="graph0" class="graph" transform="scale(1 1) rotate(0) translate(4 737.5)">
<title>cli_remove_instructor</title>
<polygon fill="white" stroke="none" points="-4,4 -4,-737.5 2203.24,-737.5 2203.24,4 -4,4"/>
<!-- 107374182547 -->
<g id="node1" class="node">
<title>107374182547</title>
<polygon fill="none" stroke="black" points="1259.88,-733.5 1102.12,-733.5 1102.12,-694 1259.88,-694 1259.88,-733.5"/>
<text xml:space="preserve" text-anchor="start" x="1140.5" y="-716.2" font-family="Times,serif" font-size="14.00">METHOD, 1296</text>
<text xml:space="preserve" text-anchor="start" x="1110.12" y="-700.45" font-family="Times,serif" font-size="14.00">cli_remove_instructor</text>
</g>
<!-- 111669150000 -->
<g id="node3" class="node">
<title>111669150000</title>
<polygon fill="none" stroke="black" points="234.12,-569 143.88,-569 143.88,-529.5 234.12,-529.5 234.12,-569"/>
<text xml:space="preserve" text-anchor="start" x="151.88" y="-551.7" font-family="Times,serif" font-size="14.00">PARAM, 1296</text>
<text xml:space="preserve" text-anchor="start" x="168.75" y="-535.95" font-family="Times,serif" font-size="14.00">system</text>
</g>
<!-- 107374182547&#45;&gt;111669150000 -->
<g id="edge12" class="edge">
<title>107374182547&#45;&gt;111669150000</title>
<path fill="none" stroke="black" d="M1101.92,-713.31C934.45,-713.78 549.06,-710.89 423.25,-676 347.37,-654.95 268.6,-606.11 224.48,-575.87"/>
<polygon fill="black" stroke="black" points="226.54,-573.04 216.33,-570.21 222.55,-578.79 226.54,-573.04"/>
<text xml:space="preserve" text-anchor="middle" x="440.12" y="-662.7" font-family="Times,serif" font-size="14.00">DDG: </text>
</g>
<!-- 30064773636 -->
<g id="node4" class="node">
<title>30064773636</title>
<polygon fill="none" stroke="black" points="576.75,-329 223.25,-329 223.25,-289.5 576.75,-289.5 576.75,-329"/>
<text xml:space="preserve" text-anchor="start" x="308.88" y="-311.7" font-family="Times,serif" font-size="14.00">&lt;operator&gt;.assignment, 1297</text>
<text xml:space="preserve" text-anchor="start" x="231.25" y="-295.95" font-family="Times,serif" font-size="14.00">instructor_id = tmp266 = input(&quot;Instructor ID t...</text>
</g>
<!-- 107374182547&#45;&gt;30064773636 -->
<g id="edge14" class="edge">
<title>107374182547&#45;&gt;30064773636</title>
<path fill="none" stroke="black" d="M1101.8,-711.75C963.79,-709.35 684.99,-701.42 591,-676 533.37,-660.41 471,-675.33 471,-615.62 471,-615.62 471,-615.62 471,-399.5 471,-374.49 453.71,-352.43 436.2,-336.5"/>
<polygon fill="black" stroke="black" points="438.68,-334.01 428.8,-330.17 434.12,-339.33 438.68,-334.01"/>
<text xml:space="preserve" text-anchor="middle" x="487.88" y="-486.32" font-family="Times,serif" font-size="14.00">DDG: </text>
</g>
<!-- 68719479270 -->
<g id="node6" class="node">
<title>68719479270</title>
<polygon fill="none" stroke="black" points="1588,-642.25 1464,-642.25 1464,-587 1588,-587 1588,-642.25"/>
<text xml:space="preserve" text-anchor="start" x="1472" y="-624.95" font-family="Times,serif" font-size="14.00">IDENTIFIER, 1299</text>
<text xml:space="preserve" text-anchor="start" x="1502.38" y="-609.2" font-family="Times,serif" font-size="14.00">success</text>
<text xml:space="preserve" text-anchor="start" x="1485.5" y="-593.45" font-family="Times,serif" font-size="14.00">if ... : ...</text>
</g>
<!-- 107374182547&#45;&gt;68719479270 -->
<g id="edge17" class="edge">
<title>107374182547&#45;&gt;68719479270</title>
<path fill="none" stroke="black" d="M1260.17,-708.79C1309.12,-704.42 1372.59,-695.26 1426,-676 1444.66,-669.27 1463.66,-658.87 1480.01,-648.59"/>
<polygon fill="black" stroke="black" points="1481.54,-651.77 1488.04,-643.4 1477.74,-645.89 1481.54,-651.77"/>
<text xml:space="preserve" text-anchor="middle" x="1474.88" y="-662.7" font-family="Times,serif" font-size="14.00">DDG: </text>
</g>
<!-- 30064773635 -->
<g id="node8" class="node">
<title>30064773635</title>
<polygon fill="none" stroke="black" points="1153.75,-420.25 854.25,-420.25 854.25,-380.75 1153.75,-380.75 1153.75,-420.25"/>
<text xml:space="preserve" text-anchor="start" x="966.88" y="-402.95" font-family="Times,serif" font-size="14.00">strip, 1297</text>
<text xml:space="preserve" text-anchor="start" x="862.25" y="-387.2" font-family="Times,serif" font-size="14.00">input(&quot;Instructor ID to remove: &quot;).strip()</text>
</g>
<!-- 107374182547&#45;&gt;30064773635 -->
<g id="edge23" class="edge">
<title>107374182547&#45;&gt;30064773635</title>
<path fill="none" stroke="black" d="M1120.16,-693.55C1094.51,-682.47 1066.57,-665.93 1049,-642.25 1002.06,-578.97 999.49,-481.17 1001.66,-431.97"/>
<polygon fill="black" stroke="black" points="1005.15,-432.25 1002.2,-422.07 998.16,-431.86 1005.15,-432.25"/>
<text xml:space="preserve" text-anchor="middle" x="1031.82" y="-543.83" font-family="Times,serif" font-size="14.00">DDG: </text>
</g>
<!-- 30064773638 -->
<g id="node9" class="node">
<title>30064773638</title>
<polygon fill="none" stroke="black" points="644.62,-237.75 365.38,-237.75 365.38,-198.25 644.62,-198.25 644.62,-237.75"/>
<text xml:space="preserve" text-anchor="start" x="427.38" y="-220.45" font-family="Times,serif" font-size="14.00">remove_instructor, 1298</text>
<text xml:space="preserve" text-anchor="start" x="373.38" y="-204.7" font-family="Times,serif" font-size="14.00">system.remove_instructor(instructor_id)</text>
</g>
<!-- 107374182547&#45;&gt;30064773638 -->
<g id="edge20" class="edge">
<title>107374182547&#45;&gt;30064773638</title>
<path fill="none" stroke="black" d="M1101.7,-710.46C967.59,-705.32 702.87,-689.36 624,-642.25 611.52,-634.8 605,-630.16 605,-615.62 605,-615.62 605,-615.62 605,-308.25 605,-283.12 601.28,-274 584,-255.75 579.84,-251.36 575.05,-247.44 569.93,-243.95"/>
<polygon fill="black" stroke="black" points="572.08,-241.16 561.72,-238.93 568.42,-247.13 572.08,-241.16"/>
<text xml:space="preserve" text-anchor="middle" x="621.88" y="-440.7" font-family="Times,serif" font-size="14.00">DDG: </text>
</g>
<!-- 30064773640 -->
<g id="node10" class="node">
<title>30064773640</title>
<polygon fill="none" stroke="black" points="1932.5,-511.5 1727.5,-511.5 1727.5,-472 1932.5,-472 1932.5,-511.5"/>
<text xml:space="preserve" text-anchor="start" x="1792.88" y="-494.2" font-family="Times,serif" font-size="14.00">print, 1300</text>
<text xml:space="preserve" text-anchor="start" x="1735.5" y="-478.45" font-family="Times,serif" font-size="14.00">print(&quot;Instructor removed.&quot;)</text>
</g>
<!-- 107374182547&#45;&gt;30064773640 -->
<g id="edge28" class="edge">
<title>107374182547&#45;&gt;30064773640</title>
<path fill="none" stroke="black" d="M1260.01,-707.73C1365.34,-699.64 1544.61,-680.59 1597,-642.25 1621.52,-624.31 1613.97,-606.53 1637.25,-587 1674.37,-555.86 1723.53,-532.03 1762.91,-516.13"/>
<polygon fill="black" stroke="black" points="1764.06,-519.44 1772.07,-512.51 1761.49,-512.93 1764.06,-519.44"/>
<text xml:space="preserve" text-anchor="middle" x="1654.12" y="-609.2" font-family="Times,serif" font-size="14.00">DDG: </text>
</g>
<!-- 30064773641 -->
<g id="node11" class="node">
<title>30064773641</title>
<polygon fill="none" stroke="black" points="1709.75,-511.5 1356.25,-511.5 1356.25,-472 1709.75,-472 1709.75,-511.5"/>
<text xml:space="preserve" text-anchor="start" x="1495.88" y="-494.2" font-family="Times,serif" font-size="14.00">print, 1302</text>
<text xml:space="preserve" text-anchor="start" x="1364.25" y="-478.45" font-family="Times,serif" font-size="14.00">print(&quot;Failed to remove instructor. It may not ...</text>
</g>
<!-- 107374182547&#45;&gt;30064773641 -->
<g id="edge30" class="edge">
<title>107374182547&#45;&gt;30064773641</title>
<path fill="none" stroke="black" d="M1219.44,-693.59C1246.1,-679.97 1282.21,-660.86 1313,-642.25 1380.05,-601.72 1454.86,-549.24 1497.69,-518.46"/>
<polygon fill="black" stroke="black" points="1499.55,-521.44 1505.62,-512.75 1495.46,-515.76 1499.55,-521.44"/>
<text xml:space="preserve" text-anchor="middle" x="1415.35" y="-609.2" font-family="Times,serif" font-size="14.00">DDG: </text>
</g>
<!-- 68719479271 -->
<g id="node12" class="node">
<title>68719479271</title>
<polygon fill="none" stroke="black" points="2148.5,-642.25 1943.5,-642.25 1943.5,-587 2148.5,-587 2148.5,-642.25"/>
<text xml:space="preserve" text-anchor="start" x="1992" y="-624.95" font-family="Times,serif" font-size="14.00">IDENTIFIER, 1300</text>
<text xml:space="preserve" text-anchor="start" x="2029.12" y="-609.2" font-family="Times,serif" font-size="14.00">print</text>
<text xml:space="preserve" text-anchor="start" x="1951.5" y="-593.45" font-family="Times,serif" font-size="14.00">print(&quot;Instructor removed.&quot;)</text>
</g>
<!-- 107374182547&#45;&gt;68719479271 -->
<g id="edge27" class="edge">
<title>107374182547&#45;&gt;68719479271</title>
<path fill="none" stroke="black" d="M1260.35,-713.39C1365.68,-712.87 1557,-707.1 1717,-676 1739.14,-671.7 1743.19,-664.97 1765.25,-660.25 1835.96,-645.13 1858.17,-654.18 1932.01,-642.62"/>
<polygon fill="black" stroke="black" points="1932.5,-646.08 1941.8,-641 1931.36,-639.18 1932.5,-646.08"/>
<text xml:space="preserve" text-anchor="middle" x="1782.12" y="-662.7" font-family="Times,serif" font-size="14.00">DDG: </text>
</g>
<!-- 68719479272 -->
<g id="node13" class="node">
<title>68719479272</title>
<polygon fill="none" stroke="black" points="986.75,-642.25 633.25,-642.25 633.25,-587 986.75,-587 986.75,-642.25"/>
<text xml:space="preserve" text-anchor="start" x="756" y="-624.95" font-family="Times,serif" font-size="14.00">IDENTIFIER, 1302</text>
<text xml:space="preserve" text-anchor="start" x="793.12" y="-609.2" font-family="Times,serif" font-size="14.00">print</text>
<text xml:space="preserve" text-anchor="start" x="641.25" y="-593.45" font-family="Times,serif" font-size="14.00">print(&quot;Failed to remove instructor. It may not ...</text>
</g>
<!-- 107374182547&#45;&gt;68719479272 -->
<g id="edge29" class="edge">
<title>107374182547&#45;&gt;68719479272</title>
<path fill="none" stroke="black" d="M1101.76,-702.91C1061.13,-696.92 1011.09,-688.06 967.25,-676 939.12,-668.26 909.04,-657.39 882.79,-647"/>
<polygon fill="black" stroke="black" points="884.17,-643.78 873.58,-643.3 881.56,-650.27 884.17,-643.78"/>
<text xml:space="preserve" text-anchor="middle" x="984.12" y="-662.7" font-family="Times,serif" font-size="14.00">DDG: </text>
</g>
<!-- 68719479261 -->
<g id="node14" class="node">
<title>68719479261</title>
<polygon fill="none" stroke="black" points="1925.75,-642.25 1680.25,-642.25 1680.25,-587 1925.75,-587 1925.75,-642.25"/>
<text xml:space="preserve" text-anchor="start" x="1749" y="-624.95" font-family="Times,serif" font-size="14.00">IDENTIFIER, 1297</text>
<text xml:space="preserve" text-anchor="start" x="1786.12" y="-609.2" font-family="Times,serif" font-size="14.00">input</text>
<text xml:space="preserve" text-anchor="start" x="1688.25" y="-593.45" font-family="Times,serif" font-size="14.00">input(&quot;Instructor ID to remove: &quot;)</text>
</g>
<!-- 107374182547&#45;&gt;68719479261 -->
<g id="edge32" class="edge">
<title>107374182547&#45;&gt;68719479261</title>
<path fill="none" stroke="black" d="M1260.33,-713.24C1353.01,-712.26 1510.43,-705.72 1642,-676 1661.14,-671.68 1664.89,-667.18 1683.25,-660.25 1694.97,-655.83 1707.35,-651.19 1719.52,-646.64"/>
<polygon fill="black" stroke="black" points="1720.58,-649.98 1728.72,-643.2 1718.13,-643.42 1720.58,-649.98"/>
<text xml:space="preserve" text-anchor="middle" x="1700.12" y="-662.7" font-family="Times,serif" font-size="14.00">DDG: </text>
</g>
<!-- 30064773632 -->
<g id="node15" class="node">
<title>30064773632</title>
<polygon fill="none" stroke="black" points="1303.75,-634.38 1058.25,-634.38 1058.25,-594.88 1303.75,-594.88 1303.75,-634.38"/>
<text xml:space="preserve" text-anchor="start" x="1143.88" y="-617.08" font-family="Times,serif" font-size="14.00">input, 1297</text>
<text xml:space="preserve" text-anchor="start" x="1066.25" y="-601.33" font-family="Times,serif" font-size="14.00">input(&quot;Instructor ID to remove: &quot;)</text>
</g>
<!-- 107374182547&#45;&gt;30064773632 -->
<g id="edge33" class="edge">
<title>107374182547&#45;&gt;30064773632</title>
<path fill="none" stroke="black" d="M1181,-693.56C1181,-679.99 1181,-661.52 1181,-645.97"/>
<polygon fill="black" stroke="black" points="1184.5,-646.29 1181,-636.29 1177.5,-646.29 1184.5,-646.29"/>
<text xml:space="preserve" text-anchor="middle" x="1197.88" y="-662.7" font-family="Times,serif" font-size="14.00">DDG: </text>
</g>
<!-- 124554051731 -->
<g id="node2" class="node">
<title>124554051731</title>
<polygon fill="none" stroke="black" points="1098.12,-39.5 953.88,-39.5 953.88,0 1098.12,0 1098.12,-39.5"/>
<text xml:space="preserve" text-anchor="start" x="961.88" y="-22.2" font-family="Times,serif" font-size="14.00">METHOD_RETURN, 1296</text>
<text xml:space="preserve" text-anchor="start" x="1015.88" y="-6.45" font-family="Times,serif" font-size="14.00">ANY</text>
</g>
<!-- 111669150000&#45;&gt;30064773638 -->
<g id="edge19" class="edge">
<title>111669150000&#45;&gt;30064773638</title>
<path fill="none" stroke="black" d="M143.73,-543.77C87.82,-535.46 0,-512.06 0,-447.12 0,-447.12 0,-447.12 0,-308.25 0,-271.93 205.15,-245.65 353.94,-231.37"/>
<polygon fill="black" stroke="black" points="353.87,-234.89 363.49,-230.46 353.21,-227.92 353.87,-234.89"/>
<text xml:space="preserve" text-anchor="middle" x="37.12" y="-395.07" font-family="Times,serif" font-size="14.00">DDG: system</text>
</g>
<!-- 30064773636&#45;&gt;124554051731 -->
<g id="edge5" class="edge">
<title>30064773636&#45;&gt;124554051731</title>
<path fill="none" stroke="black" d="M222.97,-294.65C99.97,-277.32 -32.8,-237.97 22,-148.75 68.94,-72.32 115.25,-80.29 202,-57.5 339.79,-21.3 761.21,-19.17 942.09,-20.02"/>
<polygon fill="black" stroke="black" points="941.86,-23.52 951.88,-20.07 941.89,-16.52 941.86,-23.52"/>
<text xml:space="preserve" text-anchor="middle" x="238" y="-166.95" font-family="Times,serif" font-size="14.00">DDG: instructor_id = tmp266 = input(&quot;Instructor ID to remove: &quot;)</text>
<text xml:space="preserve" text-anchor="middle" x="238" y="-151.2" font-family="Times,serif" font-size="14.00">input(&quot;Instructor ID to remove: &quot;).strip()</text>
</g>
<!-- 30064773636&#45;&gt;30064773638 -->
<g id="edge21" class="edge">
<title>30064773636&#45;&gt;30064773638</title>
<path fill="none" stroke="black" d="M422.53,-289.1C437.47,-276.4 457.3,-259.55 473.76,-245.55"/>
<polygon fill="black" stroke="black" points="476.01,-248.24 481.36,-239.09 471.47,-242.9 476.01,-248.24"/>
<text xml:space="preserve" text-anchor="middle" x="519.54" y="-258.2" font-family="Times,serif" font-size="14.00">DDG: instructor_id</text>
</g>
<!-- 30064773639 -->
<g id="node5" class="node">
<title>30064773639</title>
<polygon fill="none" stroke="black" points="715.38,-130.75 368.62,-130.75 368.62,-91.25 715.38,-91.25 715.38,-130.75"/>
<text xml:space="preserve" text-anchor="start" x="450.88" y="-113.45" font-family="Times,serif" font-size="14.00">&lt;operator&gt;.assignment, 1298</text>
<text xml:space="preserve" text-anchor="start" x="376.62" y="-97.7" font-family="Times,serif" font-size="14.00">success = system.remove_instructor(instructor_id)</text>
</g>
<!-- 30064773639&#45;&gt;124554051731 -->
<g id="edge6" class="edge">
<title>30064773639&#45;&gt;124554051731</title>
<path fill="none" stroke="black" d="M715.55,-100.75C792.08,-95 872.61,-86.18 908,-73.25 919.64,-69 920.04,-63.27 931,-57.5 940.08,-52.72 949.92,-48.22 959.71,-44.11"/>
<polygon fill="black" stroke="black" points="960.93,-47.4 968.88,-40.39 958.3,-40.91 960.93,-47.4"/>
<text xml:space="preserve" text-anchor="middle" x="971.5" y="-59.95" font-family="Times,serif" font-size="14.00">DDG: success</text>
</g>
<!-- 30064773639&#45;&gt;124554051731 -->
<g id="edge9" class="edge">
<title>30064773639&#45;&gt;124554051731</title>
<path fill="none" stroke="black" d="M368.54,-92.4C295.17,-84.54 225.76,-76.35 223,-73.25 218.34,-68.02 218.16,-62.56 223,-57.5 247.54,-31.81 741.3,-23.74 942.14,-21.51"/>
<polygon fill="black" stroke="black" points="942.02,-25.01 951.98,-21.4 941.95,-18.01 942.02,-25.01"/>
<text xml:space="preserve" text-anchor="middle" x="371.5" y="-59.95" font-family="Times,serif" font-size="14.00">DDG: system.remove_instructor(instructor_id)</text>
</g>
<!-- 30064773639&#45;&gt;124554051731 -->
<g id="edge10" class="edge">
<title>30064773639&#45;&gt;124554051731</title>
<path fill="none" stroke="black" d="M534.98,-90.94C532.22,-79.81 531.37,-66.27 539.5,-57.5 566.24,-28.66 810.21,-22.33 942.16,-21.02"/>
<polygon fill="black" stroke="black" points="941.93,-24.52 951.89,-20.93 941.86,-17.52 941.93,-24.52"/>
<text xml:space="preserve" text-anchor="middle" x="721.75" y="-59.95" font-family="Times,serif" font-size="14.00">DDG: success = system.remove_instructor(instructor_id)</text>
</g>
<!-- 68719479270&#45;&gt;30064773640 -->
<g id="edge34" class="edge">
<title>68719479270&#45;&gt;30064773640</title>
<path fill="none" stroke="black" d="M1545.02,-586.94C1549.06,-581.09 1553.24,-574.88 1557,-569 1567.99,-551.84 1563.25,-540.73 1580.25,-529.5 1603.91,-513.87 1674.26,-515.6 1716.01,-511.59"/>
<polygon fill="black" stroke="black" points="1716.2,-515.1 1725.71,-510.43 1715.37,-508.14 1716.2,-515.1"/>
<text xml:space="preserve" text-anchor="middle" x="1597.12" y="-543.83" font-family="Times,serif" font-size="14.00">CDG: </text>
</g>
<!-- 68719479270&#45;&gt;30064773641 -->
<g id="edge35" class="edge">
<title>68719479270&#45;&gt;30064773641</title>
<path fill="none" stroke="black" d="M1522.9,-586.62C1521.55,-570.07 1520.77,-548.48 1523.25,-529.5 1523.54,-527.29 1523.92,-525.03 1524.37,-522.76"/>
<polygon fill="black" stroke="black" points="1527.75,-523.65 1526.64,-513.11 1520.94,-522.04 1527.75,-523.65"/>
<text xml:space="preserve" text-anchor="middle" x="1540.12" y="-543.83" font-family="Times,serif" font-size="14.00">CDG: </text>
</g>
<!-- 30064773633 -->
<g id="node7" class="node">
<title>30064773633</title>
<polygon fill="none" stroke="black" points="1338.12,-511.5 1031.88,-511.5 1031.88,-472 1338.12,-472 1338.12,-511.5"/>
<text xml:space="preserve" text-anchor="start" x="1093.88" y="-494.2" font-family="Times,serif" font-size="14.00">&lt;operator&gt;.assignment, 1297</text>
<text xml:space="preserve" text-anchor="start" x="1039.88" y="-478.45" font-family="Times,serif" font-size="14.00">tmp266 = input(&quot;Instructor ID to remove: &quot;)</text>
</g>
<!-- 30064773633&#45;&gt;124554051731 -->
<g id="edge1" class="edge">
<title>30064773633&#45;&gt;124554051731</title>
<path fill="none" stroke="black" d="M1184.63,-471.83C1183.8,-418.71 1182.85,-271.11 1197.75,-255.75 1230.71,-221.77 1377.97,-272.61 1410,-237.75 1421.88,-224.82 1419.46,-213.04 1410,-198.25 1344.1,-95.19 1201.41,-51.1 1109.74,-32.87"/>
<polygon fill="black" stroke="black" points="1110.52,-29.46 1100.04,-31.01 1109.2,-36.33 1110.52,-29.46"/>
<text xml:space="preserve" text-anchor="middle" x="1329.38" y="-258.2" font-family="Times,serif" font-size="14.00">DDG: input(&quot;Instructor ID to remove: &quot;)</text>
</g>
<!-- 30064773633&#45;&gt;124554051731 -->
<g id="edge2" class="edge">
<title>30064773633&#45;&gt;124554051731</title>
<path fill="none" stroke="black" d="M1336.62,-471.56C1410.24,-457.85 1483,-435.66 1483,-401.5 1483,-401.5 1483,-401.5 1483,-110 1483,-34.79 1241.55,-21.76 1109.66,-20.25"/>
<polygon fill="black" stroke="black" points="1109.96,-16.76 1099.93,-20.17 1109.89,-23.76 1109.96,-16.76"/>
<text xml:space="preserve" text-anchor="middle" x="1645" y="-258.2" font-family="Times,serif" font-size="14.00">DDG: tmp266 = input(&quot;Instructor ID to remove: &quot;)</text>
</g>
<!-- 30064773633&#45;&gt;30064773635 -->
<g id="edge22" class="edge">
<title>30064773633&#45;&gt;30064773635</title>
<path fill="none" stroke="black" d="M1144.97,-471.6C1133.28,-465.97 1120.49,-459.77 1108.75,-454 1090.13,-444.85 1069.72,-434.66 1051.91,-425.71"/>
<polygon fill="black" stroke="black" points="1053.61,-422.64 1043.1,-421.28 1050.46,-428.9 1053.61,-422.64"/>
<text xml:space="preserve" text-anchor="middle" x="1145.88" y="-440.7" font-family="Times,serif" font-size="14.00">DDG: tmp266</text>
</g>
<!-- 30064773635&#45;&gt;124554051731 -->
<g id="edge3" class="edge">
<title>30064773635&#45;&gt;124554051731</title>
<path fill="none" stroke="black" d="M998.71,-380.41C989.55,-344.07 973.48,-262.8 992.75,-198.25 1003.01,-163.88 1026.74,-165.12 1037,-130.75 1042.02,-113.93 1038.36,-108.75 1037,-91.25 1035.97,-77.96 1033.86,-63.39 1031.76,-50.96"/>
<polygon fill="black" stroke="black" points="1035.24,-50.53 1030.06,-41.3 1028.35,-51.75 1035.24,-50.53"/>
<text xml:space="preserve" text-anchor="middle" x="1029.88" y="-212.57" font-family="Times,serif" font-size="14.00">DDG: tmp266</text>
</g>
<!-- 30064773635&#45;&gt;124554051731 -->
<g id="edge4" class="edge">
<title>30064773635&#45;&gt;124554051731</title>
<path fill="none" stroke="black" d="M1039.06,-380.57C1062.48,-365.11 1089,-340.85 1089,-310.25 1089,-310.25 1089,-310.25 1089,-110 1089,-85.94 1073.52,-63.8 1057.91,-47.59"/>
<polygon fill="black" stroke="black" points="1060.5,-45.23 1050.9,-40.74 1055.6,-50.23 1060.5,-45.23"/>
<text xml:space="preserve" text-anchor="middle" x="1247.62" y="-212.57" font-family="Times,serif" font-size="14.00">DDG: input(&quot;Instructor ID to remove: &quot;).strip()</text>
</g>
<!-- 30064773635&#45;&gt;30064773636 -->
<g id="edge13" class="edge">
<title>30064773635&#45;&gt;30064773636</title>
<path fill="none" stroke="black" d="M854.04,-387.59C790.25,-381.6 715.16,-373.34 647.75,-362.75 595.48,-354.54 537.6,-342.44 490.93,-331.93"/>
<polygon fill="black" stroke="black" points="491.94,-328.57 481.41,-329.77 490.39,-335.4 491.94,-328.57"/>
<text xml:space="preserve" text-anchor="middle" x="806.38" y="-349.45" font-family="Times,serif" font-size="14.00">DDG: input(&quot;Instructor ID to remove: &quot;).strip()</text>
</g>
<!-- 30064773638&#45;&gt;124554051731 -->
<g id="edge7" class="edge">
<title>30064773638&#45;&gt;124554051731</title>
<path fill="none" stroke="black" d="M632.72,-197.77C659.11,-192.84 686.6,-186.98 712,-180.25 713.07,-179.97 1011.25,-74.06 1012,-73.25 1017.65,-67.12 1021.06,-58.97 1023.12,-50.92"/>
<polygon fill="black" stroke="black" points="1026.51,-51.79 1024.92,-41.32 1019.63,-50.5 1026.51,-51.79"/>
<text xml:space="preserve" text-anchor="middle" x="996.35" y="-105.58" font-family="Times,serif" font-size="14.00">DDG: system</text>
</g>
<!-- 30064773638&#45;&gt;124554051731 -->
<g id="edge8" class="edge">
<title>30064773638&#45;&gt;124554051731</title>
<path fill="none" stroke="black" d="M497.4,-197.78C489.95,-181.71 476.93,-159.71 458,-148.75 415.64,-124.23 277.98,-159.68 238.5,-130.75 210.92,-110.54 191.38,-82.22 215,-57.5 239.82,-31.53 739.67,-23.61 942.03,-21.47"/>
<polygon fill="black" stroke="black" points="942,-24.97 951.96,-21.37 941.93,-17.97 942,-24.97"/>
<text xml:space="preserve" text-anchor="middle" x="299.25" y="-105.58" font-family="Times,serif" font-size="14.00">DDG: instructor_id</text>
</g>
<!-- 30064773638&#45;&gt;30064773639 -->
<g id="edge15" class="edge">
<title>30064773638&#45;&gt;30064773639</title>
<path fill="none" stroke="black" d="M608.83,-197.75C616.18,-193.07 622.74,-187.31 628,-180.25 636.36,-169.02 635.71,-160.43 628,-148.75 625.33,-144.71 622.12,-141.11 618.53,-137.91"/>
<polygon fill="black" stroke="black" points="620.83,-135.26 610.73,-132.04 616.62,-140.85 620.83,-135.26"/>
<text xml:space="preserve" text-anchor="middle" x="671.15" y="-159.07" font-family="Times,serif" font-size="14.00">DDG: system</text>
</g>
<!-- 30064773638&#45;&gt;30064773639 -->
<g id="edge16" class="edge">
<title>30064773638&#45;&gt;30064773639</title>
<path fill="none" stroke="black" d="M500.01,-197.93C497.3,-183.77 495.73,-164.3 502.5,-148.75 503.91,-145.51 505.77,-142.42 507.91,-139.51"/>
<polygon fill="black" stroke="black" points="510.52,-141.84 514.5,-132.02 505.27,-137.21 510.52,-141.84"/>
<text xml:space="preserve" text-anchor="middle" x="563.25" y="-159.07" font-family="Times,serif" font-size="14.00">DDG: instructor_id</text>
</g>
<!-- 30064773640&#45;&gt;124554051731 -->
<g id="edge11" class="edge">
<title>30064773640&#45;&gt;124554051731</title>
<path fill="none" stroke="black" d="M1830,-471.6C1830,-453.53 1830,-425.67 1830,-401.5 1830,-401.5 1830,-401.5 1830,-110 1830,-38.11 1315.67,-24.12 1109.75,-21.41"/>
<polygon fill="black" stroke="black" points="1109.97,-17.91 1099.93,-21.28 1109.88,-24.91 1109.97,-17.91"/>
<text xml:space="preserve" text-anchor="middle" x="1941.38" y="-258.2" font-family="Times,serif" font-size="14.00">DDG: print(&quot;Instructor removed.&quot;)</text>
</g>
<!-- 30064773632&#45;&gt;30064773633 -->
<g id="edge18" class="edge">
<title>30064773632&#45;&gt;30064773633</title>
<path fill="none" stroke="black" d="M1180.85,-594.57C1180.8,-577.51 1180.96,-551.82 1182,-529.5 1182.1,-527.43 1182.22,-525.3 1182.35,-523.15"/>
<polygon fill="black" stroke="black" points="1185.83,-523.55 1183.08,-513.32 1178.85,-523.03 1185.83,-523.55"/>
<text xml:space="preserve" text-anchor="middle" x="1290" y="-543.83" font-family="Times,serif" font-size="14.00">DDG: &quot;Instructor ID to remove: &quot;</text>
</g>
<!-- 30064771076 -->
<g id="node16" class="node">
<title>30064771076</title>
<polygon fill="none" stroke="black" points="2199.12,-731.75 2108.88,-731.75 2108.88,-695.75 2199.12,-695.75 2199.12,-731.75"/>
<text xml:space="preserve" text-anchor="middle" x="2154" y="-708.33" font-family="Times,serif" font-size="14.00">30064771076</text>
</g>
<!-- 30064771076&#45;&gt;68719479271 -->
<g id="edge24" class="edge">
<title>30064771076&#45;&gt;68719479271</title>
<path fill="none" stroke="black" d="M2144.56,-695.31C2138.07,-684.38 2128.71,-670.48 2118,-660.25 2113.92,-656.35 2109.44,-652.62 2104.78,-649.09"/>
<polygon fill="black" stroke="black" points="2107.04,-646.41 2096.87,-643.44 2102.97,-652.1 2107.04,-646.41"/>
<text xml:space="preserve" text-anchor="middle" x="2165.49" y="-662.7" font-family="Times,serif" font-size="14.00">DDG: print</text>
</g>
<!-- 68719479589 -->
<g id="node17" class="node">
<title>68719479589</title>
<polygon fill="none" stroke="black" points="1983.12,-731.75 1892.88,-731.75 1892.88,-695.75 1983.12,-695.75 1983.12,-731.75"/>
<text xml:space="preserve" text-anchor="middle" x="1938" y="-708.33" font-family="Times,serif" font-size="14.00">68719479589</text>
</g>
<!-- 68719479589&#45;&gt;68719479271 -->
<g id="edge25" class="edge">
<title>68719479589&#45;&gt;68719479271</title>
<path fill="none" stroke="black" d="M1947.63,-695.33C1954.23,-684.41 1963.72,-670.5 1974.5,-660.25 1978.57,-656.38 1983.03,-652.66 1987.66,-649.15"/>
<polygon fill="black" stroke="black" points="1989.43,-652.19 1995.52,-643.52 1985.35,-646.5 1989.43,-652.19"/>
<text xml:space="preserve" text-anchor="middle" x="2008.25" y="-662.7" font-family="Times,serif" font-size="14.00">DDG: print</text>
</g>
<!-- 68719479592 -->
<g id="node18" class="node">
<title>68719479592</title>
<polygon fill="none" stroke="black" points="2091.12,-731.75 2000.88,-731.75 2000.88,-695.75 2091.12,-695.75 2091.12,-731.75"/>
<text xml:space="preserve" text-anchor="middle" x="2046" y="-708.33" font-family="Times,serif" font-size="14.00">68719479592</text>
</g>
<!-- 68719479592&#45;&gt;68719479271 -->
<g id="edge26" class="edge">
<title>68719479592&#45;&gt;68719479271</title>
<path fill="none" stroke="black" d="M2046,-695.39C2046,-683.85 2046,-668.23 2046,-653.88"/>
<polygon fill="black" stroke="black" points="2049.5,-654.25 2046,-644.25 2042.5,-654.25 2049.5,-654.25"/>
<text xml:space="preserve" text-anchor="middle" x="2079.75" y="-662.7" font-family="Times,serif" font-size="14.00">DDG: print</text>
</g>
<!-- 30064771073 -->
<g id="node19" class="node">
<title>30064771073</title>
<polygon fill="none" stroke="black" points="1848.12,-731.75 1757.88,-731.75 1757.88,-695.75 1848.12,-695.75 1848.12,-731.75"/>
<text xml:space="preserve" text-anchor="middle" x="1803" y="-708.33" font-family="Times,serif" font-size="14.00">30064771073</text>
</g>
<!-- 30064771073&#45;&gt;68719479261 -->
<g id="edge31" class="edge">
<title>30064771073&#45;&gt;68719479261</title>
<path fill="none" stroke="black" d="M1803,-695.39C1803,-683.85 1803,-668.23 1803,-653.88"/>
<polygon fill="black" stroke="black" points="1806.5,-654.25 1803,-644.25 1799.5,-654.25 1806.5,-654.25"/>
<text xml:space="preserve" text-anchor="middle" x="1836.75" y="-662.7" font-family="Times,serif" font-size="14.00">DDG: input</text>
</g>
</g>
</svg>
