<?xml version="1.0" encoding="UTF-8" standalone="no"?>
<!DOCTYPE svg PUBLIC "-//W3C//DTD SVG 1.1//EN"
 "http://www.w3.org/Graphics/SVG/1.1/DTD/svg11.dtd">
<!-- Generated by graphviz version 13.1.2 (20250809.0930)
 -->
<!-- Title: current_credit_load&lt;metaClassAdapter&gt; Pages: 1 -->
<svg width="879pt" height="436pt"
 viewBox="0.00 0.00 879.00 436.00" xmlns="http://www.w3.org/2000/svg" xmlns:xlink="http://www.w3.org/1999/xlink">
<g id="graph0" class="graph" transform="scale(1 1) rotate(0) translate(4 432.25)">
<title>current_credit_load&lt;metaClassAdapter&gt;</title>
<polygon fill="white" stroke="none" points="-4,4 -4,-432.25 874.5,-432.25 874.5,4 -4,4"/>
<!-- 107374182415 -->
<g id="node1" class="node">
<title>107374182415</title>
<polygon fill="none" stroke="black" points="342.62,-428.25 76.88,-428.25 76.88,-388.75 342.62,-388.75 342.62,-428.25"/>
<text xml:space="preserve" text-anchor="start" x="172.62" y="-410.95" font-family="Times,serif" font-size="14.00">METHOD, 235</text>
<text xml:space="preserve" text-anchor="start" x="84.88" y="-395.2" font-family="Times,serif" font-size="14.00">current_credit_load&lt;metaClassAdapter&gt;</text>
</g>
<!-- 111669149714 -->
<g id="node3" class="node">
<title>111669149714</title>
<polygon fill="none" stroke="black" points="83.5,-279.5 0,-279.5 0,-240 83.5,-240 83.5,-279.5"/>
<text xml:space="preserve" text-anchor="start" x="8" y="-262.2" font-family="Times,serif" font-size="14.00">PARAM, 235</text>
<text xml:space="preserve" text-anchor="start" x="31.62" y="-246.45" font-family="Times,serif" font-size="14.00">cls</text>
</g>
<!-- 107374182415&#45;&gt;111669149714 -->
<g id="edge6" class="edge">
<title>107374182415&#45;&gt;111669149714</title>
<path fill="none" stroke="black" d="M167.66,-388.3C157.37,-383.05 146.57,-377.06 137,-370.75 117.51,-357.9 112.65,-354.1 96.75,-337 83.08,-322.29 69.84,-304.11 59.78,-289.18"/>
<polygon fill="black" stroke="black" points="62.92,-287.59 54.49,-281.18 57.09,-291.45 62.92,-287.59"/>
<text xml:space="preserve" text-anchor="middle" x="153.88" y="-357.45" font-family="Times,serif" font-size="14.00">DDG: </text>
</g>
<!-- 111669149715 -->
<g id="node4" class="node">
<title>111669149715</title>
<polygon fill="none" stroke="black" points="189.5,-337 106,-337 106,-297.5 189.5,-297.5 189.5,-337"/>
<text xml:space="preserve" text-anchor="start" x="114" y="-319.7" font-family="Times,serif" font-size="14.00">PARAM, 235</text>
<text xml:space="preserve" text-anchor="start" x="134.25" y="-303.95" font-family="Times,serif" font-size="14.00">self</text>
</g>
<!-- 107374182415&#45;&gt;111669149715 -->
<g id="edge7" class="edge">
<title>107374182415&#45;&gt;111669149715</title>
<path fill="none" stroke="black" d="M196.6,-388.57C188.19,-376.47 177.12,-360.53 167.65,-346.9"/>
<polygon fill="black" stroke="black" points="170.54,-344.92 161.96,-338.7 164.79,-348.91 170.54,-344.92"/>
<text xml:space="preserve" text-anchor="middle" x="199.34" y="-357.45" font-family="Times,serif" font-size="14.00">DDG: </text>
</g>
<!-- 111669149716 -->
<g id="node5" class="node">
<title>111669149716</title>
<polygon fill="none" stroke="black" points="291.5,-337 208,-337 208,-297.5 291.5,-297.5 291.5,-337"/>
<text xml:space="preserve" text-anchor="start" x="216" y="-319.7" font-family="Times,serif" font-size="14.00">PARAM, 235</text>
<text xml:space="preserve" text-anchor="start" x="222.75" y="-303.95" font-family="Times,serif" font-size="14.00">sections</text>
</g>
<!-- 107374182415&#45;&gt;111669149716 -->
<g id="edge8" class="edge">
<title>107374182415&#45;&gt;111669149716</title>
<path fill="none" stroke="black" d="M218.23,-388.57C223.55,-376.7 230.52,-361.15 236.55,-347.69"/>
<polygon fill="black" stroke="black" points="239.63,-349.4 240.52,-338.84 233.24,-346.53 239.63,-349.4"/>
<text xml:space="preserve" text-anchor="middle" x="249.02" y="-357.45" font-family="Times,serif" font-size="14.00">DDG: </text>
</g>
<!-- 30064771349 -->
<g id="node7" class="node">
<title>30064771349</title>
<polygon fill="none" stroke="black" points="468.75,-222 20.75,-222 20.75,-182.5 468.75,-182.5 468.75,-222"/>
<text xml:space="preserve" text-anchor="start" x="28.75" y="-204.7" font-family="Times,serif" font-size="14.00">AI_generated_code_1.py:&lt;module&gt;.Student.current_credit_load, 235</text>
<text xml:space="preserve" text-anchor="start" x="126.62" y="-188.95" font-family="Times,serif" font-size="14.00">current_credit_load(self, sections)</text>
</g>
<!-- 107374182415&#45;&gt;30064771349 -->
<g id="edge11" class="edge">
<title>107374182415&#45;&gt;30064771349</title>
<path fill="none" stroke="black" d="M244.82,-388.27C253.3,-383.03 262.11,-377.04 269.75,-370.75 307.22,-339.9 318.52,-326.72 329.75,-279.5 333.81,-262.42 339.39,-254.67 329.75,-240 327.12,-235.99 323.95,-232.42 320.4,-229.24"/>
<polygon fill="black" stroke="black" points="322.79,-226.66 312.71,-223.41 318.56,-232.24 322.79,-226.66"/>
<text xml:space="preserve" text-anchor="middle" x="341.67" y="-311.82" font-family="Times,serif" font-size="14.00">DDG: </text>
</g>
<!-- 124554051599 -->
<g id="node2" class="node">
<title>124554051599</title>
<polygon fill="none" stroke="black" points="227.5,-39.5 90,-39.5 90,0 227.5,0 227.5,-39.5"/>
<text xml:space="preserve" text-anchor="start" x="98" y="-22.2" font-family="Times,serif" font-size="14.00">METHOD_RETURN, 235</text>
<text xml:space="preserve" text-anchor="start" x="114.88" y="-6.45" font-family="Times,serif" font-size="14.00">__builtin.int</text>
</g>
<!-- 111669149714&#45;&gt;124554051599 -->
<g id="edge2" class="edge">
<title>111669149714&#45;&gt;124554051599</title>
<path fill="none" stroke="black" d="M22.15,-239.71C17.91,-234.42 14.02,-228.36 11.75,-222 5.86,-205.46 7.16,-199.45 11.75,-182.5 28.56,-120.4 37.75,-101.43 84.75,-57.5 89.45,-53.11 94.77,-49.13 100.36,-45.55"/>
<polygon fill="black" stroke="black" points="101.8,-48.76 108.64,-40.67 98.24,-42.73 101.8,-48.76"/>
<text xml:space="preserve" text-anchor="middle" x="48.28" y="-151.2" font-family="Times,serif" font-size="14.00">DDG: cls</text>
</g>
<!-- 111669149715&#45;&gt;30064771349 -->
<g id="edge10" class="edge">
<title>111669149715&#45;&gt;30064771349</title>
<path fill="none" stroke="black" d="M150.89,-297.06C154.48,-280.33 161.8,-256.28 176,-240 179.59,-235.88 183.76,-232.15 188.24,-228.78"/>
<polygon fill="black" stroke="black" points="190.16,-231.71 196.51,-223.22 186.26,-225.9 190.16,-231.71"/>
<text xml:space="preserve" text-anchor="middle" x="206.38" y="-254.32" font-family="Times,serif" font-size="14.00">DDG: self</text>
</g>
<!-- 111669149716&#45;&gt;30064771349 -->
<g id="edge12" class="edge">
<title>111669149716&#45;&gt;30064771349</title>
<path fill="none" stroke="black" d="M244.97,-297.3C243.75,-291.61 242.61,-285.34 242,-279.5 240.44,-264.52 240.81,-247.81 241.7,-233.85"/>
<polygon fill="black" stroke="black" points="245.18,-234.16 242.46,-223.92 238.2,-233.63 245.18,-234.16"/>
<text xml:space="preserve" text-anchor="middle" x="285.88" y="-254.32" font-family="Times,serif" font-size="14.00">DDG: sections</text>
</g>
<!-- 141733920784 -->
<g id="node6" class="node">
<title>141733920784</title>
<polygon fill="none" stroke="black" points="870.5,-130.75 571,-130.75 571,-91.25 870.5,-91.25 870.5,-130.75"/>
<text xml:space="preserve" text-anchor="start" x="683.62" y="-113.45" font-family="Times,serif" font-size="14.00">RETURN, 235</text>
<text xml:space="preserve" text-anchor="start" x="579" y="-97.7" font-family="Times,serif" font-size="14.00">return current_credit_load(self, sections)</text>
</g>
<!-- 141733920784&#45;&gt;124554051599 -->
<g id="edge1" class="edge">
<title>141733920784&#45;&gt;124554051599</title>
<path fill="none" stroke="black" d="M599.84,-90.8C490.72,-73.47 333.27,-48.46 238.96,-33.49"/>
<polygon fill="black" stroke="black" points="239.71,-30.06 229.28,-31.95 238.61,-36.98 239.71,-30.06"/>
<text xml:space="preserve" text-anchor="middle" x="507.15" y="-59.95" font-family="Times,serif" font-size="14.00">DDG: &lt;RET&gt;</text>
</g>
<!-- 30064771349&#45;&gt;124554051599 -->
<g id="edge3" class="edge">
<title>30064771349&#45;&gt;124554051599</title>
<path fill="none" stroke="black" d="M144.74,-182.04C117.59,-171.62 91.45,-155.54 76,-130.75 57.18,-100.55 88.24,-68.27 117.53,-46.55"/>
<polygon fill="black" stroke="black" points="119.55,-49.4 125.68,-40.76 115.5,-43.7 119.55,-49.4"/>
<text xml:space="preserve" text-anchor="middle" x="106.38" y="-105.58" font-family="Times,serif" font-size="14.00">DDG: self</text>
</g>
<!-- 30064771349&#45;&gt;124554051599 -->
<g id="edge4" class="edge">
<title>30064771349&#45;&gt;124554051599</title>
<path fill="none" stroke="black" d="M217.78,-182.18C202.02,-169.49 183.26,-151.39 173,-130.75 160.64,-105.9 157.68,-74.18 157.46,-51.19"/>
<polygon fill="black" stroke="black" points="160.95,-51.27 157.54,-41.24 153.95,-51.21 160.95,-51.27"/>
<text xml:space="preserve" text-anchor="middle" x="216.88" y="-105.58" font-family="Times,serif" font-size="14.00">DDG: sections</text>
</g>
<!-- 30064771349&#45;&gt;124554051599 -->
<g id="edge5" class="edge">
<title>30064771349&#45;&gt;124554051599</title>
<path fill="none" stroke="black" d="M254.11,-182.19C263.93,-159.28 275.99,-120.3 260.75,-91.25 250.58,-71.86 232.39,-56.75 214.16,-45.57"/>
<polygon fill="black" stroke="black" points="216.09,-42.65 205.68,-40.69 212.59,-48.71 216.09,-42.65"/>
<text xml:space="preserve" text-anchor="middle" x="402.98" y="-105.58" font-family="Times,serif" font-size="14.00">DDG: current_credit_load(self, sections)</text>
</g>
<!-- 30064771349&#45;&gt;141733920784 -->
<g id="edge9" class="edge">
<title>30064771349&#45;&gt;141733920784</title>
<path fill="none" stroke="black" d="M347.16,-182.05C423.62,-167.71 528.1,-148.12 607.13,-133.3"/>
<polygon fill="black" stroke="black" points="607.44,-136.81 616.62,-131.52 606.15,-129.93 607.44,-136.81"/>
<text xml:space="preserve" text-anchor="middle" x="646.25" y="-151.2" font-family="Times,serif" font-size="14.00">DDG: current_credit_load(self, sections)</text>
</g>
</g>
</svg>
