<?xml version="1.0" encoding="UTF-8" standalone="no"?>
<!DOCTYPE svg PUBLIC "-//W3C//DTD SVG 1.1//EN"
 "http://www.w3.org/Graphics/SVG/1.1/DTD/svg11.dtd">
<!-- Generated by graphviz version 13.1.2 (20250809.0930)
 -->
<!-- Title: cli_student_schedule_report Pages: 1 -->
<svg width="1487pt" height="742pt"
 viewBox="0.00 0.00 1487.00 742.00" xmlns="http://www.w3.org/2000/svg" xmlns:xlink="http://www.w3.org/1999/xlink">
<g id="graph0" class="graph" transform="scale(1 1) rotate(0) translate(4 737.5)">
<title>cli_student_schedule_report</title>
<polygon fill="white" stroke="none" points="-4,4 -4,-737.5 1483.38,-737.5 1483.38,4 -4,4"/>
<!-- 107374182554 -->
<g id="node1" class="node">
<title>107374182554</title>
<polygon fill="none" stroke="black" points="983.12,-733.5 784.88,-733.5 784.88,-694 983.12,-694 983.12,-733.5"/>
<text xml:space="preserve" text-anchor="start" x="843.5" y="-716.2" font-family="Times,serif" font-size="14.00">METHOD, 1373</text>
<text xml:space="preserve" text-anchor="start" x="792.88" y="-700.45" font-family="Times,serif" font-size="14.00">cli_student_schedule_report</text>
</g>
<!-- 111669150007 -->
<g id="node3" class="node">
<title>111669150007</title>
<polygon fill="none" stroke="black" points="989.12,-569 898.88,-569 898.88,-529.5 989.12,-529.5 989.12,-569"/>
<text xml:space="preserve" text-anchor="start" x="906.88" y="-551.7" font-family="Times,serif" font-size="14.00">PARAM, 1373</text>
<text xml:space="preserve" text-anchor="start" x="923.75" y="-535.95" font-family="Times,serif" font-size="14.00">system</text>
</g>
<!-- 107374182554&#45;&gt;111669150007 -->
<g id="edge10" class="edge">
<title>107374182554&#45;&gt;111669150007</title>
<path fill="none" stroke="black" d="M891.31,-693.69C893.48,-688.01 895.85,-681.76 898,-676 910.2,-643.33 923.9,-605.76 933.15,-580.26"/>
<polygon fill="black" stroke="black" points="936.43,-581.47 936.55,-570.88 929.85,-579.09 936.43,-581.47"/>
<text xml:space="preserve" text-anchor="middle" x="920.31" y="-662.7" font-family="Times,serif" font-size="14.00">DDG: </text>
</g>
<!-- 30064773799 -->
<g id="node4" class="node">
<title>30064773799</title>
<polygon fill="none" stroke="black" points="869.75,-329 516.25,-329 516.25,-289.5 869.75,-289.5 869.75,-329"/>
<text xml:space="preserve" text-anchor="start" x="601.88" y="-311.7" font-family="Times,serif" font-size="14.00">&lt;operator&gt;.assignment, 1374</text>
<text xml:space="preserve" text-anchor="start" x="524.25" y="-295.95" font-family="Times,serif" font-size="14.00">student_id = tmp285 = input(&quot;Student ID: &quot;) inp...</text>
</g>
<!-- 107374182554&#45;&gt;30064773799 -->
<g id="edge12" class="edge">
<title>107374182554&#45;&gt;30064773799</title>
<path fill="none" stroke="black" d="M853.09,-693.7C829.5,-676.52 801,-648.9 801,-615.62 801,-615.62 801,-615.62 801,-399.5 801,-375.35 803.09,-365.01 787,-347 783.09,-342.62 778.59,-338.76 773.72,-335.35"/>
<polygon fill="black" stroke="black" points="775.61,-332.41 765.26,-330.14 771.94,-338.37 775.61,-332.41"/>
<text xml:space="preserve" text-anchor="middle" x="817.88" y="-486.32" font-family="Times,serif" font-size="14.00">DDG: </text>
</g>
<!-- 68719479443 -->
<g id="node6" class="node">
<title>68719479443</title>
<polygon fill="none" stroke="black" points="1479.38,-642.25 1132.62,-642.25 1132.62,-587 1479.38,-587 1479.38,-642.25"/>
<text xml:space="preserve" text-anchor="start" x="1252" y="-624.95" font-family="Times,serif" font-size="14.00">IDENTIFIER, 1375</text>
<text xml:space="preserve" text-anchor="start" x="1289.12" y="-609.2" font-family="Times,serif" font-size="14.00">print</text>
<text xml:space="preserve" text-anchor="start" x="1140.62" y="-593.45" font-family="Times,serif" font-size="14.00">print(system.report_student_schedule(student_id))</text>
</g>
<!-- 107374182554&#45;&gt;68719479443 -->
<g id="edge16" class="edge">
<title>107374182554&#45;&gt;68719479443</title>
<path fill="none" stroke="black" d="M970.88,-693.56C985.68,-688.8 1000.59,-682.99 1014,-676 1023.8,-670.89 1023.17,-664.8 1033.25,-660.25 1038.34,-657.95 1075.75,-651.43 1121.33,-644.06"/>
<polygon fill="black" stroke="black" points="1121.62,-647.56 1130.94,-642.51 1120.51,-640.65 1121.62,-647.56"/>
<text xml:space="preserve" text-anchor="middle" x="1050.12" y="-662.7" font-family="Times,serif" font-size="14.00">DDG: </text>
</g>
<!-- 30064773798 -->
<g id="node8" class="node">
<title>30064773798</title>
<polygon fill="none" stroke="black" points="593.88,-420.25 382.12,-420.25 382.12,-380.75 593.88,-380.75 593.88,-420.25"/>
<text xml:space="preserve" text-anchor="start" x="450.88" y="-402.95" font-family="Times,serif" font-size="14.00">strip, 1374</text>
<text xml:space="preserve" text-anchor="start" x="390.12" y="-387.2" font-family="Times,serif" font-size="14.00">input(&quot;Student ID: &quot;).strip()</text>
</g>
<!-- 107374182554&#45;&gt;30064773798 -->
<g id="edge24" class="edge">
<title>107374182554&#45;&gt;30064773798</title>
<path fill="none" stroke="black" d="M822.55,-693.53C810.37,-688.61 797.96,-682.76 787,-676 670.47,-604.16 558.62,-483.29 511.45,-429.16"/>
<polygon fill="black" stroke="black" points="514.1,-426.88 504.91,-421.6 508.81,-431.46 514.1,-426.88"/>
<text xml:space="preserve" text-anchor="middle" x="662.21" y="-543.83" font-family="Times,serif" font-size="14.00">DDG: </text>
</g>
<!-- 30064773801 -->
<g id="node9" class="node">
<title>30064773801</title>
<polygon fill="none" stroke="black" points="1073.75,-237.75 774.25,-237.75 774.25,-198.25 1073.75,-198.25 1073.75,-237.75"/>
<text xml:space="preserve" text-anchor="start" x="826.12" y="-220.45" font-family="Times,serif" font-size="14.00">report_student_schedule, 1375</text>
<text xml:space="preserve" text-anchor="start" x="782.25" y="-204.7" font-family="Times,serif" font-size="14.00">system.report_student_schedule(student_id)</text>
</g>
<!-- 107374182554&#45;&gt;30064773801 -->
<g id="edge21" class="edge">
<title>107374182554&#45;&gt;30064773801</title>
<path fill="none" stroke="black" d="M884.93,-693.76C887.16,-649.14 893.27,-534.13 901.25,-438.25 906.87,-370.74 915.6,-291.76 920.45,-249.45"/>
<polygon fill="black" stroke="black" points="923.92,-249.88 921.59,-239.54 916.97,-249.07 923.92,-249.88"/>
<text xml:space="preserve" text-anchor="middle" x="918.12" y="-440.7" font-family="Times,serif" font-size="14.00">DDG: </text>
</g>
<!-- 68719479435 -->
<g id="node10" class="node">
<title>68719479435</title>
<polygon fill="none" stroke="black" points="1112.88,-642.25 955.12,-642.25 955.12,-587 1112.88,-587 1112.88,-642.25"/>
<text xml:space="preserve" text-anchor="start" x="980" y="-624.95" font-family="Times,serif" font-size="14.00">IDENTIFIER, 1374</text>
<text xml:space="preserve" text-anchor="start" x="1017.12" y="-609.2" font-family="Times,serif" font-size="14.00">input</text>
<text xml:space="preserve" text-anchor="start" x="963.12" y="-593.45" font-family="Times,serif" font-size="14.00">input(&quot;Student ID: &quot;)</text>
</g>
<!-- 107374182554&#45;&gt;68719479435 -->
<g id="edge26" class="edge">
<title>107374182554&#45;&gt;68719479435</title>
<path fill="none" stroke="black" d="M925.72,-693.54C936.16,-688.25 947.18,-682.24 957,-676 969.33,-668.17 982.07,-658.79 993.55,-649.78"/>
<polygon fill="black" stroke="black" points="995.64,-652.59 1001.27,-643.61 991.27,-647.12 995.64,-652.59"/>
<text xml:space="preserve" text-anchor="middle" x="995.98" y="-662.7" font-family="Times,serif" font-size="14.00">DDG: </text>
</g>
<!-- 30064773795 -->
<g id="node11" class="node">
<title>30064773795</title>
<polygon fill="none" stroke="black" points="585.88,-634.38 428.12,-634.38 428.12,-594.88 585.88,-594.88 585.88,-634.38"/>
<text xml:space="preserve" text-anchor="start" x="469.88" y="-617.08" font-family="Times,serif" font-size="14.00">input, 1374</text>
<text xml:space="preserve" text-anchor="start" x="436.12" y="-601.33" font-family="Times,serif" font-size="14.00">input(&quot;Student ID: &quot;)</text>
</g>
<!-- 107374182554&#45;&gt;30064773795 -->
<g id="edge27" class="edge">
<title>107374182554&#45;&gt;30064773795</title>
<path fill="none" stroke="black" d="M784.65,-701.35C744.92,-695.56 699,-687.3 658.25,-676 624.04,-666.51 586.99,-651.8 558.13,-639.28"/>
<polygon fill="black" stroke="black" points="559.84,-636.21 549.27,-635.39 557.02,-642.61 559.84,-636.21"/>
<text xml:space="preserve" text-anchor="middle" x="675.12" y="-662.7" font-family="Times,serif" font-size="14.00">DDG: </text>
</g>
<!-- 124554051738 -->
<g id="node2" class="node">
<title>124554051738</title>
<polygon fill="none" stroke="black" points="608.12,-39.5 463.88,-39.5 463.88,0 608.12,0 608.12,-39.5"/>
<text xml:space="preserve" text-anchor="start" x="471.88" y="-22.2" font-family="Times,serif" font-size="14.00">METHOD_RETURN, 1373</text>
<text xml:space="preserve" text-anchor="start" x="525.88" y="-6.45" font-family="Times,serif" font-size="14.00">ANY</text>
</g>
<!-- 111669150007&#45;&gt;30064773801 -->
<g id="edge20" class="edge">
<title>111669150007&#45;&gt;30064773801</title>
<path fill="none" stroke="black" d="M942.5,-529.25C941.03,-508.94 939,-475.78 939,-447.12 939,-447.12 939,-447.12 939,-308.25 939,-288.33 935.32,-266.26 931.61,-249.05"/>
<polygon fill="black" stroke="black" points="935.06,-248.44 929.42,-239.47 928.24,-250 935.06,-248.44"/>
<text xml:space="preserve" text-anchor="middle" x="976.12" y="-395.07" font-family="Times,serif" font-size="14.00">DDG: system</text>
</g>
<!-- 30064773799&#45;&gt;124554051738 -->
<g id="edge5" class="edge">
<title>30064773799&#45;&gt;124554051738</title>
<path fill="none" stroke="black" d="M707.15,-289.02C723.08,-264.84 743.93,-223.48 721,-198.25 692.77,-167.19 561.23,-211.31 533,-180.25 501.23,-145.3 513.12,-86.13 524.6,-50.52"/>
<polygon fill="black" stroke="black" points="527.84,-51.87 527.77,-41.28 521.21,-49.6 527.84,-51.87"/>
<text xml:space="preserve" text-anchor="middle" x="695" y="-166.95" font-family="Times,serif" font-size="14.00">DDG: student_id = tmp285 = input(&quot;Student ID: &quot;)</text>
<text xml:space="preserve" text-anchor="middle" x="695" y="-151.2" font-family="Times,serif" font-size="14.00">input(&quot;Student ID: &quot;).strip()</text>
</g>
<!-- 30064773799&#45;&gt;30064773801 -->
<g id="edge22" class="edge">
<title>30064773799&#45;&gt;30064773801</title>
<path fill="none" stroke="black" d="M728.57,-289.11C738.51,-283.58 749.25,-277.43 759,-271.5 769.82,-264.91 771.19,-260.92 782.75,-255.75 794.86,-250.34 807.92,-245.61 821.04,-241.5"/>
<polygon fill="black" stroke="black" points="822.04,-244.86 830.61,-238.63 820.02,-238.15 822.04,-244.86"/>
<text xml:space="preserve" text-anchor="middle" x="833.38" y="-258.2" font-family="Times,serif" font-size="14.00">DDG: student_id</text>
</g>
<!-- 30064773802 -->
<g id="node5" class="node">
<title>30064773802</title>
<polygon fill="none" stroke="black" points="1094.38,-130.75 747.62,-130.75 747.62,-91.25 1094.38,-91.25 1094.38,-130.75"/>
<text xml:space="preserve" text-anchor="start" x="883.88" y="-113.45" font-family="Times,serif" font-size="14.00">print, 1375</text>
<text xml:space="preserve" text-anchor="start" x="755.62" y="-97.7" font-family="Times,serif" font-size="14.00">print(system.report_student_schedule(student_id))</text>
</g>
<!-- 30064773802&#45;&gt;124554051738 -->
<g id="edge8" class="edge">
<title>30064773802&#45;&gt;124554051738</title>
<path fill="none" stroke="black" d="M747.18,-94.97C677.36,-88.07 609.74,-79.96 594.75,-73.25 587.45,-69.98 574.55,-58.73 562.69,-47.48"/>
<polygon fill="black" stroke="black" points="565.45,-45.28 555.82,-40.85 560.58,-50.31 565.45,-45.28"/>
<text xml:space="preserve" text-anchor="middle" x="753.38" y="-59.95" font-family="Times,serif" font-size="14.00">DDG: system.report_student_schedule(student_id)</text>
</g>
<!-- 30064773802&#45;&gt;124554051738 -->
<g id="edge9" class="edge">
<title>30064773802&#45;&gt;124554051738</title>
<path fill="none" stroke="black" d="M923,-90.83C923.05,-79.51 920.94,-65.81 912,-57.5 891.05,-38.02 724.03,-28.02 619.76,-23.63"/>
<polygon fill="black" stroke="black" points="619.96,-20.14 609.82,-23.22 619.67,-27.13 619.96,-20.14"/>
<text xml:space="preserve" text-anchor="middle" x="1103.16" y="-59.95" font-family="Times,serif" font-size="14.00">DDG: print(system.report_student_schedule(student_id))</text>
</g>
<!-- 30064773796 -->
<g id="node7" class="node">
<title>30064773796</title>
<polygon fill="none" stroke="black" points="452.25,-511.5 233.75,-511.5 233.75,-472 452.25,-472 452.25,-511.5"/>
<text xml:space="preserve" text-anchor="start" x="251.88" y="-494.2" font-family="Times,serif" font-size="14.00">&lt;operator&gt;.assignment, 1374</text>
<text xml:space="preserve" text-anchor="start" x="241.75" y="-478.45" font-family="Times,serif" font-size="14.00">tmp285 = input(&quot;Student ID: &quot;)</text>
</g>
<!-- 30064773796&#45;&gt;124554051738 -->
<g id="edge1" class="edge">
<title>30064773796&#45;&gt;124554051738</title>
<path fill="none" stroke="black" d="M233.53,-483.18C133.15,-473.14 0,-450.57 0,-401.5 0,-401.5 0,-401.5 0,-110 0,-64.75 301.11,-37.19 451.96,-26.23"/>
<polygon fill="black" stroke="black" points="452.2,-29.72 461.92,-25.51 451.7,-22.74 452.2,-29.72"/>
<text xml:space="preserve" text-anchor="middle" x="87.75" y="-258.2" font-family="Times,serif" font-size="14.00">DDG: input(&quot;Student ID: &quot;)</text>
</g>
<!-- 30064773796&#45;&gt;124554051738 -->
<g id="edge2" class="edge">
<title>30064773796&#45;&gt;124554051738</title>
<path fill="none" stroke="black" d="M263.84,-471.66C230.38,-458.43 199,-436.65 199,-401.5 199,-401.5 199,-401.5 199,-110 199,-57.7 352.61,-35.34 452.42,-26.33"/>
<polygon fill="black" stroke="black" points="452.54,-29.83 462.2,-25.48 451.93,-22.86 452.54,-29.83"/>
<text xml:space="preserve" text-anchor="middle" x="317.12" y="-258.2" font-family="Times,serif" font-size="14.00">DDG: tmp285 = input(&quot;Student ID: &quot;)</text>
</g>
<!-- 30064773796&#45;&gt;30064773798 -->
<g id="edge23" class="edge">
<title>30064773796&#45;&gt;30064773798</title>
<path fill="none" stroke="black" d="M374.11,-471.6C395.51,-458.43 424.16,-440.79 447.37,-426.51"/>
<polygon fill="black" stroke="black" points="448.97,-429.63 455.66,-421.41 445.31,-423.67 448.97,-429.63"/>
<text xml:space="preserve" text-anchor="middle" x="461.31" y="-440.7" font-family="Times,serif" font-size="14.00">DDG: tmp285</text>
</g>
<!-- 30064773798&#45;&gt;124554051738 -->
<g id="edge3" class="edge">
<title>30064773798&#45;&gt;124554051738</title>
<path fill="none" stroke="black" d="M480.65,-380.46C478.48,-374.77 476.12,-368.52 474,-362.75 456.57,-315.39 470.87,-292.23 436,-255.75 421.33,-240.4 403.6,-255.37 391.75,-237.75 381.95,-223.18 387.16,-215.2 391.75,-198.25 410.69,-128.31 422.93,-108.89 474,-57.5 478.03,-53.44 482.6,-49.66 487.38,-46.19"/>
<polygon fill="black" stroke="black" points="489.15,-49.22 495.51,-40.75 485.25,-43.41 489.15,-49.22"/>
<text xml:space="preserve" text-anchor="middle" x="428.88" y="-212.57" font-family="Times,serif" font-size="14.00">DDG: tmp285</text>
</g>
<!-- 30064773798&#45;&gt;124554051738 -->
<g id="edge4" class="edge">
<title>30064773798&#45;&gt;124554051738</title>
<path fill="none" stroke="black" d="M488,-380.35C488,-362.28 488,-334.42 488,-310.25 488,-310.25 488,-310.25 488,-110 488,-87.65 499.82,-65.49 511.74,-48.85"/>
<polygon fill="black" stroke="black" points="514.49,-51.01 517.75,-40.94 508.92,-46.78 514.49,-51.01"/>
<text xml:space="preserve" text-anchor="middle" x="602.75" y="-212.57" font-family="Times,serif" font-size="14.00">DDG: input(&quot;Student ID: &quot;).strip()</text>
</g>
<!-- 30064773798&#45;&gt;30064773799 -->
<g id="edge11" class="edge">
<title>30064773798&#45;&gt;30064773799</title>
<path fill="none" stroke="black" d="M508.81,-380.41C521.93,-369.26 539.71,-355.72 557.5,-347 568.39,-341.66 580.17,-337.01 592.08,-332.98"/>
<polygon fill="black" stroke="black" points="593.14,-336.31 601.59,-329.91 590.99,-329.65 593.14,-336.31"/>
<text xml:space="preserve" text-anchor="middle" x="672.25" y="-349.45" font-family="Times,serif" font-size="14.00">DDG: input(&quot;Student ID: &quot;).strip()</text>
</g>
<!-- 30064773801&#45;&gt;124554051738 -->
<g id="edge6" class="edge">
<title>30064773801&#45;&gt;124554051738</title>
<path fill="none" stroke="black" d="M1074.16,-199.95C1205.66,-179.37 1364.83,-137.12 1289,-57.5 1266.22,-33.58 811.11,-24.53 619.69,-21.78"/>
<polygon fill="black" stroke="black" points="619.86,-18.28 609.81,-21.64 619.76,-25.28 619.86,-18.28"/>
<text xml:space="preserve" text-anchor="middle" x="1345.76" y="-105.58" font-family="Times,serif" font-size="14.00">DDG: system</text>
</g>
<!-- 30064773801&#45;&gt;124554051738 -->
<g id="edge7" class="edge">
<title>30064773801&#45;&gt;124554051738</title>
<path fill="none" stroke="black" d="M912.38,-197.99C901.35,-181.82 883.18,-159.55 861,-148.75 771.49,-105.19 729,-170.53 637.75,-130.75 599.9,-114.25 569.87,-75.92 552.51,-49.18"/>
<polygon fill="black" stroke="black" points="555.57,-47.47 547.3,-40.85 549.64,-51.18 555.57,-47.47"/>
<text xml:space="preserve" text-anchor="middle" x="688.38" y="-105.58" font-family="Times,serif" font-size="14.00">DDG: student_id</text>
</g>
<!-- 30064773801&#45;&gt;30064773802 -->
<g id="edge17" class="edge">
<title>30064773801&#45;&gt;30064773802</title>
<path fill="none" stroke="black" d="M997.04,-198.02C1004.47,-193.34 1011.08,-187.51 1016,-180.25 1023.85,-168.66 1023.91,-160.3 1016,-148.75 1013.24,-144.73 1009.98,-141.15 1006.35,-137.96"/>
<polygon fill="black" stroke="black" points="1008.61,-135.28 998.5,-132.11 1004.43,-140.89 1008.61,-135.28"/>
<text xml:space="preserve" text-anchor="middle" x="1059.04" y="-159.07" font-family="Times,serif" font-size="14.00">DDG: system</text>
</g>
<!-- 30064773801&#45;&gt;30064773802 -->
<g id="edge18" class="edge">
<title>30064773801&#45;&gt;30064773802</title>
<path fill="none" stroke="black" d="M915.7,-197.89C913.66,-192.31 911.78,-186.13 910.75,-180.25 908.34,-166.46 908.85,-162.62 910.75,-148.75 911.03,-146.67 911.4,-144.55 911.84,-142.42"/>
<polygon fill="black" stroke="black" points="915.23,-143.26 914.21,-132.72 908.43,-141.6 915.23,-143.26"/>
<text xml:space="preserve" text-anchor="middle" x="961.38" y="-159.07" font-family="Times,serif" font-size="14.00">DDG: student_id</text>
</g>
<!-- 30064773795&#45;&gt;30064773796 -->
<g id="edge19" class="edge">
<title>30064773795&#45;&gt;30064773796</title>
<path fill="none" stroke="black" d="M481.01,-594.47C453.18,-573.96 408.87,-541.3 377.98,-518.53"/>
<polygon fill="black" stroke="black" points="380.21,-515.83 370.08,-512.71 376.06,-521.46 380.21,-515.83"/>
<text xml:space="preserve" text-anchor="middle" x="508.64" y="-543.83" font-family="Times,serif" font-size="14.00">DDG: &quot;Student ID: &quot;</text>
</g>
<!-- 30064771076 -->
<g id="node12" class="node">
<title>30064771076</title>
<polygon fill="none" stroke="black" points="1354.12,-731.75 1263.88,-731.75 1263.88,-695.75 1354.12,-695.75 1354.12,-731.75"/>
<text xml:space="preserve" text-anchor="middle" x="1309" y="-708.33" font-family="Times,serif" font-size="14.00">30064771076</text>
</g>
<!-- 30064771076&#45;&gt;68719479443 -->
<g id="edge13" class="edge">
<title>30064771076&#45;&gt;68719479443</title>
<path fill="none" stroke="black" d="M1308.46,-695.39C1308.11,-683.85 1307.62,-668.23 1307.18,-653.88"/>
<polygon fill="black" stroke="black" points="1310.69,-654.14 1306.88,-644.25 1303.69,-654.36 1310.69,-654.14"/>
<text xml:space="preserve" text-anchor="middle" x="1341.61" y="-662.7" font-family="Times,serif" font-size="14.00">DDG: print</text>
</g>
<!-- 68719479589 -->
<g id="node13" class="node">
<title>68719479589</title>
<polygon fill="none" stroke="black" points="1462.12,-731.75 1371.88,-731.75 1371.88,-695.75 1462.12,-695.75 1462.12,-731.75"/>
<text xml:space="preserve" text-anchor="middle" x="1417" y="-708.33" font-family="Times,serif" font-size="14.00">68719479589</text>
</g>
<!-- 68719479589&#45;&gt;68719479443 -->
<g id="edge14" class="edge">
<title>68719479589&#45;&gt;68719479443</title>
<path fill="none" stroke="black" d="M1406.88,-695.32C1399.96,-684.39 1390.07,-670.49 1379,-660.25 1374.81,-656.38 1370.24,-652.66 1365.49,-649.15"/>
<polygon fill="black" stroke="black" points="1367.64,-646.38 1357.44,-643.51 1363.62,-652.11 1367.64,-646.38"/>
<text xml:space="preserve" text-anchor="middle" x="1425.95" y="-662.7" font-family="Times,serif" font-size="14.00">DDG: print</text>
</g>
<!-- 68719479592 -->
<g id="node14" class="node">
<title>68719479592</title>
<polygon fill="none" stroke="black" points="1246.12,-731.75 1155.88,-731.75 1155.88,-695.75 1246.12,-695.75 1246.12,-731.75"/>
<text xml:space="preserve" text-anchor="middle" x="1201" y="-708.33" font-family="Times,serif" font-size="14.00">68719479592</text>
</g>
<!-- 68719479592&#45;&gt;68719479443 -->
<g id="edge15" class="edge">
<title>68719479592&#45;&gt;68719479443</title>
<path fill="none" stroke="black" d="M1209.94,-695.33C1216.11,-684.4 1225.08,-670.5 1235.5,-660.25 1239.36,-656.45 1243.6,-652.81 1248.03,-649.36"/>
<polygon fill="black" stroke="black" points="1250.09,-652.19 1256.08,-643.46 1245.95,-646.55 1250.09,-652.19"/>
<text xml:space="preserve" text-anchor="middle" x="1269.25" y="-662.7" font-family="Times,serif" font-size="14.00">DDG: print</text>
</g>
<!-- 30064771073 -->
<g id="node15" class="node">
<title>30064771073</title>
<polygon fill="none" stroke="black" points="1138.12,-731.75 1047.88,-731.75 1047.88,-695.75 1138.12,-695.75 1138.12,-731.75"/>
<text xml:space="preserve" text-anchor="middle" x="1093" y="-708.33" font-family="Times,serif" font-size="14.00">30064771073</text>
</g>
<!-- 30064771073&#45;&gt;68719479435 -->
<g id="edge25" class="edge">
<title>30064771073&#45;&gt;68719479435</title>
<path fill="none" stroke="black" d="M1087.27,-695.58C1083.4,-685.02 1077.76,-671.41 1071,-660.25 1069.23,-657.33 1067.28,-654.4 1065.23,-651.52"/>
<polygon fill="black" stroke="black" points="1068.17,-649.6 1059.35,-643.73 1062.58,-653.82 1068.17,-649.6"/>
<text xml:space="preserve" text-anchor="middle" x="1112.74" y="-662.7" font-family="Times,serif" font-size="14.00">DDG: input</text>
</g>
</g>
</svg>
