<?xml version="1.0" encoding="UTF-8" standalone="no"?>
<!DOCTYPE svg PUBLIC "-//W3C//DTD SVG 1.1//EN"
 "http://www.w3.org/Graphics/SVG/1.1/DTD/svg11.dtd">
<!-- Generated by graphviz version 13.1.2 (20250809.0930)
 -->
<!-- Title: cli_load Pages: 1 -->
<svg width="3232pt" height="992pt"
 viewBox="0.00 0.00 3232.00 992.00" xmlns="http://www.w3.org/2000/svg" xmlns:xlink="http://www.w3.org/1999/xlink">
<g id="graph0" class="graph" transform="scale(1 1) rotate(0) translate(4 987.5)">
<title>cli_load</title>
<polygon fill="white" stroke="none" points="-4,4 -4,-987.5 3228.48,-987.5 3228.48,4 -4,4"/>
<!-- 107374182557 -->
<g id="node1" class="node">
<title>107374182557</title>
<polygon fill="none" stroke="black" points="2054.23,-983.5 1957.23,-983.5 1957.23,-944 2054.23,-944 2054.23,-983.5"/>
<text xml:space="preserve" text-anchor="start" x="1965.23" y="-966.2" font-family="Times,serif" font-size="14.00">METHOD, 1389</text>
<text xml:space="preserve" text-anchor="start" x="1978.73" y="-950.45" font-family="Times,serif" font-size="14.00">cli_load</text>
</g>
<!-- 30064773834 -->
<g id="node3" class="node">
<title>30064773834</title>
<polygon fill="none" stroke="black" points="2133.48,-602.75 1779.98,-602.75 1779.98,-563.25 2133.48,-563.25 2133.48,-602.75"/>
<text xml:space="preserve" text-anchor="start" x="1865.6" y="-585.45" font-family="Times,serif" font-size="14.00">&lt;operator&gt;.assignment, 1390</text>
<text xml:space="preserve" text-anchor="start" x="1787.98" y="-569.7" font-family="Times,serif" font-size="14.00">filename = tmp289 = input(&quot;Filename to load JSO...</text>
</g>
<!-- 107374182557&#45;&gt;30064773834 -->
<g id="edge20" class="edge">
<title>107374182557&#45;&gt;30064773834</title>
<path fill="none" stroke="black" d="M1956.89,-960.41C1896.25,-954.57 1800.73,-934.45 1800.73,-865.62 1800.73,-865.62 1800.73,-865.62 1800.73,-673.25 1800.73,-641.29 1825.7,-620.62 1855.66,-607.32"/>
<polygon fill="black" stroke="black" points="1856.66,-610.69 1864.58,-603.66 1854,-604.21 1856.66,-610.69"/>
<text xml:space="preserve" text-anchor="middle" x="1817.6" y="-760.08" font-family="Times,serif" font-size="14.00">DDG: </text>
</g>
<!-- 25769804409 -->
<g id="node4" class="node">
<title>25769804409</title>
<polygon fill="none" stroke="black" points="2182.48,-884.38 1828.98,-884.38 1828.98,-844.88 2182.48,-844.88 2182.48,-884.38"/>
<text xml:space="preserve" text-anchor="start" x="1968.6" y="-867.08" font-family="Times,serif" font-size="14.00">BLOCK, 1391</text>
<text xml:space="preserve" text-anchor="start" x="1836.98" y="-851.33" font-family="Times,serif" font-size="14.00">tmp290 = RegistrationSystem.load_from_file(file...</text>
</g>
<!-- 107374182557&#45;&gt;25769804409 -->
<g id="edge21" class="edge">
<title>107374182557&#45;&gt;25769804409</title>
<path fill="none" stroke="black" d="M2005.73,-943.56C2005.73,-929.99 2005.73,-911.52 2005.73,-895.97"/>
<polygon fill="black" stroke="black" points="2009.23,-896.29 2005.73,-886.29 2002.23,-896.29 2009.23,-896.29"/>
<text xml:space="preserve" text-anchor="middle" x="2022.6" y="-912.7" font-family="Times,serif" font-size="14.00">DDG: </text>
</g>
<!-- 30064773842 -->
<g id="node5" class="node">
<title>30064773842</title>
<polygon fill="none" stroke="black" points="1683.98,-130.75 1573.48,-130.75 1573.48,-91.25 1683.98,-91.25 1683.98,-130.75"/>
<text xml:space="preserve" text-anchor="start" x="1591.6" y="-113.45" font-family="Times,serif" font-size="14.00">print, 1392</text>
<text xml:space="preserve" text-anchor="start" x="1581.48" y="-97.7" font-family="Times,serif" font-size="14.00">print(message)</text>
</g>
<!-- 107374182557&#45;&gt;30064773842 -->
<g id="edge32" class="edge">
<title>107374182557&#45;&gt;30064773842</title>
<path fill="none" stroke="black" d="M1956.94,-960.97C1916.79,-957.76 1859.42,-949.1 1814.73,-926 1780.28,-908.19 1751.73,-904.41 1751.73,-865.62 1751.73,-865.62 1751.73,-865.62 1751.73,-582 1751.73,-509.47 1788.18,-323.29 1761.73,-255.75 1742.35,-206.27 1697.05,-163.62 1664.71,-137.91"/>
<polygon fill="black" stroke="black" points="1667.21,-135.41 1657.16,-132.04 1662.91,-140.94 1667.21,-135.41"/>
<text xml:space="preserve" text-anchor="middle" x="1771.88" y="-531.95" font-family="Times,serif" font-size="14.00">DDG: </text>
</g>
<!-- 68719479487 -->
<g id="node10" class="node">
<title>68719479487</title>
<polygon fill="none" stroke="black" points="2887.73,-892.25 2763.73,-892.25 2763.73,-837 2887.73,-837 2887.73,-892.25"/>
<text xml:space="preserve" text-anchor="start" x="2771.73" y="-874.95" font-family="Times,serif" font-size="14.00">IDENTIFIER, 1392</text>
<text xml:space="preserve" text-anchor="start" x="2808.85" y="-859.2" font-family="Times,serif" font-size="14.00">print</text>
<text xml:space="preserve" text-anchor="start" x="2778.48" y="-843.45" font-family="Times,serif" font-size="14.00">print(message)</text>
</g>
<!-- 107374182557&#45;&gt;68719479487 -->
<g id="edge30" class="edge">
<title>107374182557&#45;&gt;68719479487</title>
<path fill="none" stroke="black" d="M2054.41,-961.87C2185.69,-959.21 2544.86,-949.9 2660.73,-926 2679.08,-922.21 2717.83,-908.15 2753.16,-894.55"/>
<polygon fill="black" stroke="black" points="2754.03,-897.97 2762.09,-891.1 2751.5,-891.44 2754.03,-897.97"/>
<text xml:space="preserve" text-anchor="middle" x="2725.82" y="-912.7" font-family="Times,serif" font-size="14.00">DDG: </text>
</g>
<!-- 68719479488 -->
<g id="node11" class="node">
<title>68719479488</title>
<polygon fill="none" stroke="black" points="931.73,-237.75 807.73,-237.75 807.73,-182.5 931.73,-182.5 931.73,-237.75"/>
<text xml:space="preserve" text-anchor="start" x="815.73" y="-220.45" font-family="Times,serif" font-size="14.00">IDENTIFIER, 1393</text>
<text xml:space="preserve" text-anchor="start" x="849.48" y="-204.7" font-family="Times,serif" font-size="14.00">system</text>
<text xml:space="preserve" text-anchor="start" x="825.85" y="-188.95" font-family="Times,serif" font-size="14.00">return system</text>
</g>
<!-- 107374182557&#45;&gt;68719479488 -->
<g id="edge34" class="edge">
<title>107374182557&#45;&gt;68719479488</title>
<path fill="none" stroke="black" d="M1956.93,-962.97C1652.95,-964.05 31.73,-965.13 31.73,-865.62 31.73,-865.62 31.73,-865.62 31.73,-308.25 31.73,-227.43 675.98,-250.89 755.73,-237.75 768.89,-235.58 782.79,-232.78 796.2,-229.8"/>
<polygon fill="black" stroke="black" points="796.86,-233.24 805.83,-227.61 795.31,-226.41 796.86,-233.24"/>
<text xml:space="preserve" text-anchor="middle" x="48.6" y="-577.58" font-family="Times,serif" font-size="14.00">DDG: </text>
</g>
<!-- 30064773833 -->
<g id="node13" class="node">
<title>30064773833</title>
<polygon fill="none" stroke="black" points="2354.73,-694 2068.73,-694 2068.73,-654.5 2354.73,-654.5 2354.73,-694"/>
<text xml:space="preserve" text-anchor="start" x="2174.6" y="-676.7" font-family="Times,serif" font-size="14.00">strip, 1390</text>
<text xml:space="preserve" text-anchor="start" x="2076.73" y="-660.95" font-family="Times,serif" font-size="14.00">input(&quot;Filename to load JSON: &quot;).strip()</text>
</g>
<!-- 107374182557&#45;&gt;30064773833 -->
<g id="edge37" class="edge">
<title>107374182557&#45;&gt;30064773833</title>
<path fill="none" stroke="black" d="M2054.61,-958.38C2097.97,-951.71 2159.33,-934.86 2191.73,-892.25 2233.35,-837.52 2225.95,-751.12 2218.16,-705.61"/>
<polygon fill="black" stroke="black" points="2221.63,-705.12 2216.37,-695.93 2214.75,-706.4 2221.63,-705.12"/>
<text xml:space="preserve" text-anchor="middle" x="2239.56" y="-805.7" font-family="Times,serif" font-size="14.00">DDG: </text>
</g>
<!-- 30064773836 -->
<g id="node14" class="node">
<title>30064773836</title>
<polygon fill="none" stroke="black" points="1675.85,-511.5 1369.6,-511.5 1369.6,-472 1675.85,-472 1675.85,-511.5"/>
<text xml:space="preserve" text-anchor="start" x="1455.23" y="-494.2" font-family="Times,serif" font-size="14.00">load_from_file, 1391</text>
<text xml:space="preserve" text-anchor="start" x="1377.6" y="-478.45" font-family="Times,serif" font-size="14.00">RegistrationSystem.load_from_file(filename)</text>
</g>
<!-- 107374182557&#45;&gt;30064773836 -->
<g id="edge38" class="edge">
<title>107374182557&#45;&gt;30064773836</title>
<path fill="none" stroke="black" d="M1956.86,-962.87C1836.74,-961.84 1536.73,-950.75 1536.73,-865.62 1536.73,-865.62 1536.73,-865.62 1536.73,-582 1536.73,-562.12 1533.3,-540.05 1529.83,-522.83"/>
<polygon fill="black" stroke="black" points="1533.3,-522.29 1527.78,-513.25 1526.45,-523.76 1533.3,-522.29"/>
<text xml:space="preserve" text-anchor="middle" x="1553.6" y="-714.45" font-family="Times,serif" font-size="14.00">DDG: </text>
</g>
<!-- 68719479473 -->
<g id="node15" class="node">
<title>68719479473</title>
<polygon fill="none" stroke="black" points="2720.73,-892.25 2488.73,-892.25 2488.73,-837 2720.73,-837 2720.73,-892.25"/>
<text xml:space="preserve" text-anchor="start" x="2550.73" y="-874.95" font-family="Times,serif" font-size="14.00">IDENTIFIER, 1390</text>
<text xml:space="preserve" text-anchor="start" x="2587.85" y="-859.2" font-family="Times,serif" font-size="14.00">input</text>
<text xml:space="preserve" text-anchor="start" x="2496.73" y="-843.45" font-family="Times,serif" font-size="14.00">input(&quot;Filename to load JSON: &quot;)</text>
</g>
<!-- 107374182557&#45;&gt;68719479473 -->
<g id="edge41" class="edge">
<title>107374182557&#45;&gt;68719479473</title>
<path fill="none" stroke="black" d="M2054.48,-957.71C2113.43,-951.38 2215.6,-939.68 2302.73,-926 2378.44,-914.11 2399.45,-908.58 2477.45,-892.71"/>
<polygon fill="black" stroke="black" points="2477.72,-896.23 2486.82,-890.81 2476.33,-889.37 2477.72,-896.23"/>
<text xml:space="preserve" text-anchor="middle" x="2408.33" y="-912.7" font-family="Times,serif" font-size="14.00">DDG: </text>
</g>
<!-- 30064773830 -->
<g id="node16" class="node">
<title>30064773830</title>
<polygon fill="none" stroke="black" points="2470.73,-884.38 2238.73,-884.38 2238.73,-844.88 2470.73,-844.88 2470.73,-884.38"/>
<text xml:space="preserve" text-anchor="start" x="2317.6" y="-867.08" font-family="Times,serif" font-size="14.00">input, 1390</text>
<text xml:space="preserve" text-anchor="start" x="2246.73" y="-851.33" font-family="Times,serif" font-size="14.00">input(&quot;Filename to load JSON: &quot;)</text>
</g>
<!-- 107374182557&#45;&gt;30064773830 -->
<g id="edge42" class="edge">
<title>107374182557&#45;&gt;30064773830</title>
<path fill="none" stroke="black" d="M2054.44,-958.36C2099.41,-953.43 2167.65,-943.69 2224.73,-926 2254.16,-916.88 2285.53,-902.46 2310.08,-890"/>
<polygon fill="black" stroke="black" points="2311.53,-893.19 2318.81,-885.49 2308.32,-886.97 2311.53,-893.19"/>
<text xml:space="preserve" text-anchor="middle" x="2282.14" y="-912.7" font-family="Times,serif" font-size="14.00">DDG: </text>
</g>
<!-- 124554051741 -->
<g id="node2" class="node">
<title>124554051741</title>
<polygon fill="none" stroke="black" points="1547.85,-39.5 1403.6,-39.5 1403.6,0 1547.85,0 1547.85,-39.5"/>
<text xml:space="preserve" text-anchor="start" x="1411.6" y="-22.2" font-family="Times,serif" font-size="14.00">METHOD_RETURN, 1389</text>
<text xml:space="preserve" text-anchor="start" x="1425.1" y="-6.45" font-family="Times,serif" font-size="14.00">typing.Optional</text>
</g>
<!-- 30064773834&#45;&gt;124554051741 -->
<g id="edge6" class="edge">
<title>30064773834&#45;&gt;124554051741</title>
<path fill="none" stroke="black" d="M1865.98,-562.92C1831.66,-549.91 1800.73,-528.32 1800.73,-492.75 1800.73,-492.75 1800.73,-492.75 1800.73,-110 1800.73,-79.84 1784.09,-72.15 1757.73,-57.5 1724.6,-39.09 1629.77,-29.55 1559.17,-24.85"/>
<polygon fill="black" stroke="black" points="1559.77,-21.38 1549.57,-24.24 1559.33,-28.37 1559.77,-21.38"/>
<text xml:space="preserve" text-anchor="middle" x="1993.1" y="-311.7" font-family="Times,serif" font-size="14.00">DDG: filename = tmp289 = input(&quot;Filename to load JSON: &quot;)</text>
<text xml:space="preserve" text-anchor="middle" x="1993.1" y="-295.95" font-family="Times,serif" font-size="14.00">input(&quot;Filename to load JSON: &quot;).strip()</text>
</g>
<!-- 30064773834&#45;&gt;30064773836 -->
<g id="edge39" class="edge">
<title>30064773834&#45;&gt;30064773836</title>
<path fill="none" stroke="black" d="M1779.74,-570.7C1734.33,-565.26 1685.91,-557.19 1641.98,-545.25 1617.03,-538.47 1590.59,-527.28 1568.96,-516.96"/>
<polygon fill="black" stroke="black" points="1570.64,-513.89 1560.12,-512.66 1567.58,-520.18 1570.64,-513.89"/>
<text xml:space="preserve" text-anchor="middle" x="1685.85" y="-531.95" font-family="Times,serif" font-size="14.00">DDG: filename</text>
</g>
<!-- 30064773842&#45;&gt;124554051741 -->
<g id="edge17" class="edge">
<title>30064773842&#45;&gt;124554051741</title>
<path fill="none" stroke="black" d="M1645.88,-90.87C1653.29,-80.24 1658.64,-67.24 1650.73,-57.5 1638.77,-42.77 1598.34,-33.73 1559.35,-28.3"/>
<polygon fill="black" stroke="black" points="1560.02,-24.86 1549.65,-27.03 1559.11,-31.8 1560.02,-24.86"/>
<text xml:space="preserve" text-anchor="middle" x="1695.14" y="-59.95" font-family="Times,serif" font-size="14.00">DDG: message</text>
</g>
<!-- 30064773842&#45;&gt;124554051741 -->
<g id="edge18" class="edge">
<title>30064773842&#45;&gt;124554051741</title>
<path fill="none" stroke="black" d="M1573.17,-98.13C1554.72,-92.51 1534.75,-84.49 1518.48,-73.25 1509.17,-66.82 1500.83,-57.81 1494.03,-49.07"/>
<polygon fill="black" stroke="black" points="1496.9,-47.06 1488.18,-41.04 1491.24,-51.18 1496.9,-47.06"/>
<text xml:space="preserve" text-anchor="middle" x="1582.6" y="-59.95" font-family="Times,serif" font-size="14.00">DDG: print(message)</text>
</g>
<!-- 141733920959 -->
<g id="node6" class="node">
<title>141733920959</title>
<polygon fill="none" stroke="black" points="918.6,-130.75 814.85,-130.75 814.85,-91.25 918.6,-91.25 918.6,-130.75"/>
<text xml:space="preserve" text-anchor="start" x="826.23" y="-113.45" font-family="Times,serif" font-size="14.00">RETURN, 1393</text>
<text xml:space="preserve" text-anchor="start" x="822.85" y="-97.7" font-family="Times,serif" font-size="14.00">return system</text>
</g>
<!-- 141733920959&#45;&gt;124554051741 -->
<g id="edge1" class="edge">
<title>141733920959&#45;&gt;124554051741</title>
<path fill="none" stroke="black" d="M865.61,-90.88C866.07,-79.43 868.8,-65.57 878.23,-57.5 916.32,-24.87 1236.72,-20.55 1392.01,-20.4"/>
<polygon fill="black" stroke="black" points="1391.84,-23.9 1401.83,-20.4 1391.83,-16.9 1391.84,-23.9"/>
<text xml:space="preserve" text-anchor="middle" x="911.98" y="-59.95" font-family="Times,serif" font-size="14.00">DDG: &lt;RET&gt;</text>
</g>
<!-- 30064773837 -->
<g id="node7" class="node">
<title>30064773837</title>
<polygon fill="none" stroke="black" points="1390.48,-420.25 1036.98,-420.25 1036.98,-380.75 1390.48,-380.75 1390.48,-420.25"/>
<text xml:space="preserve" text-anchor="start" x="1122.6" y="-402.95" font-family="Times,serif" font-size="14.00">&lt;operator&gt;.assignment, 1391</text>
<text xml:space="preserve" text-anchor="start" x="1044.98" y="-387.2" font-family="Times,serif" font-size="14.00">tmp290 = RegistrationSystem.load_from_file(file...</text>
</g>
<!-- 30064773837&#45;&gt;124554051741 -->
<g id="edge7" class="edge">
<title>30064773837&#45;&gt;124554051741</title>
<path fill="none" stroke="black" d="M1251.39,-380.32C1273.6,-367.77 1301.26,-349.86 1321.73,-329 1375.54,-274.17 1356.54,-234.08 1413.48,-182.5 1426.81,-170.42 1438.92,-178.88 1449.73,-164.5 1462.89,-146.98 1470.13,-87.62 1473.45,-50.88"/>
<polygon fill="black" stroke="black" points="1476.9,-51.6 1474.26,-41.34 1469.92,-51.01 1476.9,-51.6"/>
<text xml:space="preserve" text-anchor="middle" x="1450.6" y="-204.7" font-family="Times,serif" font-size="14.00">DDG: tmp290</text>
</g>
<!-- 30064773837&#45;&gt;124554051741 -->
<g id="edge10" class="edge">
<title>30064773837&#45;&gt;124554051741</title>
<path fill="none" stroke="black" d="M1036.72,-398.53C823.63,-396.22 478.71,-388.47 352.73,-362.75 188.22,-329.17 -74.82,-320.56 20.73,-182.5 110.45,-52.85 198.09,-88.27 352.73,-57.5 453.48,-37.45 1148.83,-25.51 1392,-21.91"/>
<polygon fill="black" stroke="black" points="1391.77,-25.42 1401.72,-21.77 1391.67,-18.42 1391.77,-25.42"/>
<text xml:space="preserve" text-anchor="middle" x="182.73" y="-204.7" font-family="Times,serif" font-size="14.00">DDG: RegistrationSystem.load_from_file(filename)</text>
</g>
<!-- 30064773837&#45;&gt;124554051741 -->
<g id="edge11" class="edge">
<title>30064773837&#45;&gt;124554051741</title>
<path fill="none" stroke="black" d="M1036.69,-398.21C788.39,-394 366.73,-377.02 366.73,-310.25 366.73,-310.25 366.73,-310.25 366.73,-110 366.73,-58.58 1134.17,-30.95 1392.22,-23.11"/>
<polygon fill="black" stroke="black" points="1391.99,-26.62 1401.88,-22.82 1391.78,-19.62 1391.99,-26.62"/>
<text xml:space="preserve" text-anchor="middle" x="559.1" y="-204.7" font-family="Times,serif" font-size="14.00">DDG: tmp290 = RegistrationSystem.load_from_file(filename)</text>
</g>
<!-- 30064773839 -->
<g id="node8" class="node">
<title>30064773839</title>
<polygon fill="none" stroke="black" points="1058.85,-329 860.6,-329 860.6,-289.5 1058.85,-289.5 1058.85,-329"/>
<text xml:space="preserve" text-anchor="start" x="868.6" y="-311.7" font-family="Times,serif" font-size="14.00">&lt;operator&gt;.assignment, 1391</text>
<text xml:space="preserve" text-anchor="start" x="898.98" y="-295.95" font-family="Times,serif" font-size="14.00">system = tmp290[0]</text>
</g>
<!-- 30064773837&#45;&gt;30064773839 -->
<g id="edge25" class="edge">
<title>30064773837&#45;&gt;30064773839</title>
<path fill="none" stroke="black" d="M1159.24,-380.35C1119.9,-366.53 1066.6,-347.8 1024.99,-333.18"/>
<polygon fill="black" stroke="black" points="1026.15,-329.88 1015.56,-329.87 1023.83,-336.48 1026.15,-329.88"/>
<text xml:space="preserve" text-anchor="middle" x="1139.06" y="-349.45" font-family="Times,serif" font-size="14.00">DDG: tmp290</text>
</g>
<!-- 30064773841 -->
<g id="node9" class="node">
<title>30064773841</title>
<polygon fill="none" stroke="black" points="1363.85,-229.88 1165.6,-229.88 1165.6,-190.38 1363.85,-190.38 1363.85,-229.88"/>
<text xml:space="preserve" text-anchor="start" x="1173.6" y="-212.57" font-family="Times,serif" font-size="14.00">&lt;operator&gt;.assignment, 1391</text>
<text xml:space="preserve" text-anchor="start" x="1200.6" y="-196.82" font-family="Times,serif" font-size="14.00">message = tmp290[1]</text>
</g>
<!-- 30064773837&#45;&gt;30064773841 -->
<g id="edge26" class="edge">
<title>30064773837&#45;&gt;30064773841</title>
<path fill="none" stroke="black" d="M1218.9,-380.4C1227.78,-347.61 1245.98,-280.36 1256.58,-241.22"/>
<polygon fill="black" stroke="black" points="1259.91,-242.3 1259.15,-231.74 1253.16,-240.47 1259.91,-242.3"/>
<text xml:space="preserve" text-anchor="middle" x="1280.59" y="-303.82" font-family="Times,serif" font-size="14.00">DDG: tmp290</text>
</g>
<!-- 30064773839&#45;&gt;124554051741 -->
<g id="edge12" class="edge">
<title>30064773839&#45;&gt;124554051741</title>
<path fill="none" stroke="black" d="M988.03,-289.19C1022.82,-264.36 1081.47,-217.78 1115.73,-164.5 1134.26,-135.68 1121.74,-120.4 1139.73,-91.25 1150.91,-73.13 1154.57,-66.79 1173.73,-57.5 1211.02,-39.42 1316.09,-29.7 1391.82,-24.88"/>
<polygon fill="black" stroke="black" points="1391.96,-28.38 1401.73,-24.27 1391.53,-21.39 1391.96,-28.38"/>
<text xml:space="preserve" text-anchor="middle" x="1160.54" y="-151.2" font-family="Times,serif" font-size="14.00">DDG: system</text>
</g>
<!-- 30064773839&#45;&gt;124554051741 -->
<g id="edge13" class="edge">
<title>30064773839&#45;&gt;124554051741</title>
<path fill="none" stroke="black" d="M884.09,-289.07C854.22,-278.23 821.63,-261.87 798.73,-237.75 769.51,-206.99 751.18,-189.12 764.23,-148.75 773.92,-118.76 782.3,-112.33 805.73,-91.25 828.19,-71.05 835.78,-66.13 864.73,-57.5 960.97,-28.8 1248.15,-22.45 1391.87,-21.09"/>
<polygon fill="black" stroke="black" points="1391.74,-24.59 1401.71,-21 1391.68,-17.59 1391.74,-24.59"/>
<text xml:space="preserve" text-anchor="middle" x="811.48" y="-151.2" font-family="Times,serif" font-size="14.00">DDG: tmp290[0]</text>
</g>
<!-- 30064773839&#45;&gt;124554051741 -->
<g id="edge14" class="edge">
<title>30064773839&#45;&gt;124554051741</title>
<path fill="none" stroke="black" d="M956.77,-289C951.45,-251.77 942.11,-171.53 956.48,-148.75 1006.73,-69.1 1057.17,-83.38 1147.73,-57.5 1228.72,-34.35 1324.84,-25.67 1392.02,-22.48"/>
<polygon fill="black" stroke="black" points="1392.03,-25.98 1401.87,-22.04 1391.72,-18.99 1392.03,-25.98"/>
<text xml:space="preserve" text-anchor="middle" x="1034.1" y="-151.2" font-family="Times,serif" font-size="14.00">DDG: system = tmp290[0]</text>
</g>
<!-- 30064773839&#45;&gt;68719479488 -->
<g id="edge33" class="edge">
<title>30064773839&#45;&gt;68719479488</title>
<path fill="none" stroke="black" d="M890.66,-289.24C883.17,-284.57 876.46,-278.75 871.48,-271.5 867.05,-265.06 865.05,-257.24 864.44,-249.41"/>
<polygon fill="black" stroke="black" points="867.94,-249.57 864.43,-239.58 860.94,-249.58 867.94,-249.57"/>
<text xml:space="preserve" text-anchor="middle" x="908.6" y="-258.2" font-family="Times,serif" font-size="14.00">DDG: system</text>
</g>
<!-- 30064773841&#45;&gt;124554051741 -->
<g id="edge15" class="edge">
<title>30064773841&#45;&gt;124554051741</title>
<path fill="none" stroke="black" d="M1276,-190.16C1291.51,-165.23 1321.36,-121.11 1355.23,-91.25 1375.8,-73.11 1401.73,-57.23 1424.27,-45.16"/>
<polygon fill="black" stroke="black" points="1425.77,-48.32 1433.01,-40.59 1422.52,-42.12 1425.77,-48.32"/>
<text xml:space="preserve" text-anchor="middle" x="1402.48" y="-105.58" font-family="Times,serif" font-size="14.00">DDG: tmp290[1]</text>
</g>
<!-- 30064773841&#45;&gt;124554051741 -->
<g id="edge16" class="edge">
<title>30064773841&#45;&gt;124554051741</title>
<path fill="none" stroke="black" d="M1252.6,-189.93C1243.22,-176.57 1229.11,-159.33 1212.73,-148.75 1188.98,-133.42 1168.65,-153.39 1151.73,-130.75 1141.22,-116.69 1140.71,-104.92 1151.73,-91.25 1181.37,-54.46 1306.19,-35.87 1391.95,-27.26"/>
<polygon fill="black" stroke="black" points="1392.13,-30.76 1401.75,-26.31 1391.46,-23.79 1392.13,-30.76"/>
<text xml:space="preserve" text-anchor="middle" x="1232.73" y="-105.58" font-family="Times,serif" font-size="14.00">DDG: message = tmp290[1]</text>
</g>
<!-- 30064773841&#45;&gt;30064773842 -->
<g id="edge31" class="edge">
<title>30064773841&#45;&gt;30064773842</title>
<path fill="none" stroke="black" d="M1336.64,-189.94C1402.26,-172.43 1498.44,-146.76 1562.28,-129.73"/>
<polygon fill="black" stroke="black" points="1562.8,-133.21 1571.56,-127.25 1561,-126.45 1562.8,-133.21"/>
<text xml:space="preserve" text-anchor="middle" x="1530.54" y="-151.2" font-family="Times,serif" font-size="14.00">DDG: message</text>
</g>
<!-- 68719479488&#45;&gt;141733920959 -->
<g id="edge22" class="edge">
<title>68719479488&#45;&gt;141733920959</title>
<path fill="none" stroke="black" d="M865.35,-182.29C864.57,-176.44 863.88,-170.28 863.48,-164.5 862.99,-157.52 863.17,-155.74 863.48,-148.75 863.57,-146.68 863.69,-144.55 863.83,-142.4"/>
<polygon fill="black" stroke="black" points="867.31,-142.81 864.6,-132.56 860.33,-142.26 867.31,-142.81"/>
<text xml:space="preserve" text-anchor="middle" x="900.6" y="-151.2" font-family="Times,serif" font-size="14.00">DDG: system</text>
</g>
<!-- 30064773831 -->
<g id="node12" class="node">
<title>30064773831</title>
<polygon fill="none" stroke="black" points="2656.1,-785.25 2363.35,-785.25 2363.35,-745.75 2656.1,-745.75 2656.1,-785.25"/>
<text xml:space="preserve" text-anchor="start" x="2418.6" y="-767.95" font-family="Times,serif" font-size="14.00">&lt;operator&gt;.assignment, 1390</text>
<text xml:space="preserve" text-anchor="start" x="2371.35" y="-752.2" font-family="Times,serif" font-size="14.00">tmp289 = input(&quot;Filename to load JSON: &quot;)</text>
</g>
<!-- 30064773831&#45;&gt;124554051741 -->
<g id="edge2" class="edge">
<title>30064773831&#45;&gt;124554051741</title>
<path fill="none" stroke="black" d="M2656.54,-764.01C2792.8,-759.46 2974.73,-741.06 2974.73,-675.25 2974.73,-675.25 2974.73,-675.25 2974.73,-110 2974.73,-38.56 1875.43,-24.02 1559.63,-21.32"/>
<polygon fill="black" stroke="black" points="1559.82,-17.82 1549.79,-21.24 1559.77,-24.82 1559.82,-17.82"/>
<text xml:space="preserve" text-anchor="middle" x="3099.6" y="-395.07" font-family="Times,serif" font-size="14.00">DDG: input(&quot;Filename to load JSON: &quot;)</text>
</g>
<!-- 30064773831&#45;&gt;124554051741 -->
<g id="edge3" class="edge">
<title>30064773831&#45;&gt;124554051741</title>
<path fill="none" stroke="black" d="M2567,-745.35C2597.06,-731.31 2627.73,-708.77 2627.73,-675.25 2627.73,-675.25 2627.73,-675.25 2627.73,-110 2627.73,-56.42 1824.99,-30.1 1559.7,-22.87"/>
<polygon fill="black" stroke="black" points="1559.83,-19.37 1549.74,-22.6 1559.64,-26.37 1559.83,-19.37"/>
<text xml:space="preserve" text-anchor="middle" x="2782.98" y="-395.07" font-family="Times,serif" font-size="14.00">DDG: tmp289 = input(&quot;Filename to load JSON: &quot;)</text>
</g>
<!-- 30064773831&#45;&gt;30064773833 -->
<g id="edge36" class="edge">
<title>30064773831&#45;&gt;30064773833</title>
<path fill="none" stroke="black" d="M2445.8,-745.35C2399.13,-731.38 2335.73,-712.39 2286.68,-697.7"/>
<polygon fill="black" stroke="black" points="2287.84,-694.39 2277.26,-694.88 2285.83,-701.1 2287.84,-694.39"/>
<text xml:space="preserve" text-anchor="middle" x="2415.7" y="-714.45" font-family="Times,serif" font-size="14.00">DDG: tmp289</text>
</g>
<!-- 30064773833&#45;&gt;124554051741 -->
<g id="edge4" class="edge">
<title>30064773833&#45;&gt;124554051741</title>
<path fill="none" stroke="black" d="M2211.73,-654.1C2211.73,-636.03 2211.73,-608.17 2211.73,-584 2211.73,-584 2211.73,-584 2211.73,-399.5 2211.73,-339.55 2213.73,-324.58 2213.73,-264.62 2213.73,-264.62 2213.73,-264.62 2213.73,-110 2213.73,-44.71 1752.67,-26.87 1559.4,-22.26"/>
<polygon fill="black" stroke="black" points="1559.76,-18.77 1549.69,-22.04 1559.6,-25.77 1559.76,-18.77"/>
<text xml:space="preserve" text-anchor="middle" x="2249.44" y="-349.45" font-family="Times,serif" font-size="14.00">DDG: tmp289</text>
</g>
<!-- 30064773833&#45;&gt;124554051741 -->
<g id="edge5" class="edge">
<title>30064773833&#45;&gt;124554051741</title>
<path fill="none" stroke="black" d="M2254.27,-654.13C2280.34,-639.22 2308.73,-615.69 2308.73,-584 2308.73,-584 2308.73,-584 2308.73,-110 2308.73,-35.2 1770.83,-22.98 1559.52,-21.07"/>
<polygon fill="black" stroke="black" points="1559.74,-17.57 1549.71,-20.99 1559.68,-24.57 1559.74,-17.57"/>
<text xml:space="preserve" text-anchor="middle" x="2460.6" y="-349.45" font-family="Times,serif" font-size="14.00">DDG: input(&quot;Filename to load JSON: &quot;).strip()</text>
</g>
<!-- 30064773833&#45;&gt;30064773834 -->
<g id="edge19" class="edge">
<title>30064773833&#45;&gt;30064773834</title>
<path fill="none" stroke="black" d="M2068.43,-665.33C1989.95,-659.49 1906.15,-650.16 1893.98,-636.5 1885.4,-626.88 1890.79,-617.48 1901.32,-609.36"/>
<polygon fill="black" stroke="black" points="1903.04,-612.42 1909.44,-603.97 1899.17,-606.58 1903.04,-612.42"/>
<text xml:space="preserve" text-anchor="middle" x="2045.85" y="-623.2" font-family="Times,serif" font-size="14.00">DDG: input(&quot;Filename to load JSON: &quot;).strip()</text>
</g>
<!-- 30064773836&#45;&gt;124554051741 -->
<g id="edge8" class="edge">
<title>30064773836&#45;&gt;124554051741</title>
<path fill="none" stroke="black" d="M1520.07,-471.72C1514.83,-433.72 1503.01,-345.72 1495.48,-271.5 1491.22,-229.52 1482.14,-108.03 1477.94,-50.99"/>
<polygon fill="black" stroke="black" points="1481.45,-51.08 1477.23,-41.36 1474.47,-51.59 1481.45,-51.08"/>
<text xml:space="preserve" text-anchor="middle" x="1573.1" y="-258.2" font-family="Times,serif" font-size="14.00">DDG: RegistrationSystem</text>
</g>
<!-- 30064773836&#45;&gt;124554051741 -->
<g id="edge9" class="edge">
<title>30064773836&#45;&gt;124554051741</title>
<path fill="none" stroke="black" d="M1538,-471.6C1596.56,-397.1 1800.48,-127.3 1739.73,-57.5 1716.6,-30.92 1627.58,-22.96 1559.24,-20.87"/>
<polygon fill="black" stroke="black" points="1559.63,-17.38 1549.54,-20.62 1559.45,-24.38 1559.63,-17.38"/>
<text xml:space="preserve" text-anchor="middle" x="1731.22" y="-258.2" font-family="Times,serif" font-size="14.00">DDG: filename</text>
</g>
<!-- 30064773836&#45;&gt;30064773837 -->
<g id="edge23" class="edge">
<title>30064773836&#45;&gt;30064773837</title>
<path fill="none" stroke="black" d="M1379.75,-471.54C1361.13,-466.89 1342.6,-461.14 1325.48,-454 1314.13,-449.27 1313.53,-444.13 1302.73,-438.25 1294.19,-433.6 1284.95,-429.17 1275.75,-425.1"/>
<polygon fill="black" stroke="black" points="1277.39,-421.99 1266.82,-421.26 1274.62,-428.42 1277.39,-421.99"/>
<text xml:space="preserve" text-anchor="middle" x="1403.1" y="-440.7" font-family="Times,serif" font-size="14.00">DDG: RegistrationSystem</text>
</g>
<!-- 30064773836&#45;&gt;30064773837 -->
<g id="edge24" class="edge">
<title>30064773836&#45;&gt;30064773837</title>
<path fill="none" stroke="black" d="M1369.38,-481.66C1296.29,-475.72 1222.25,-466.68 1210.98,-454 1205.62,-447.97 1204.29,-439.85 1204.84,-431.8"/>
<polygon fill="black" stroke="black" points="1208.25,-432.62 1206.41,-422.18 1201.35,-431.49 1208.25,-432.62"/>
<text xml:space="preserve" text-anchor="middle" x="1254.85" y="-440.7" font-family="Times,serif" font-size="14.00">DDG: filename</text>
</g>
<!-- 30064773830&#45;&gt;30064773831 -->
<g id="edge35" class="edge">
<title>30064773830&#45;&gt;30064773831</title>
<path fill="none" stroke="black" d="M2385.35,-844.44C2409.45,-829.34 2443.23,-808.17 2469.5,-791.71"/>
<polygon fill="black" stroke="black" points="2471.27,-794.73 2477.89,-786.45 2467.55,-788.8 2471.27,-794.73"/>
<text xml:space="preserve" text-anchor="middle" x="2551.92" y="-805.7" font-family="Times,serif" font-size="14.00">DDG: &quot;Filename to load JSON: &quot;</text>
</g>
<!-- 30064771076 -->
<g id="node17" class="node">
<title>30064771076</title>
<polygon fill="none" stroke="black" points="2775.85,-981.75 2685.6,-981.75 2685.6,-945.75 2775.85,-945.75 2775.85,-981.75"/>
<text xml:space="preserve" text-anchor="middle" x="2730.73" y="-958.33" font-family="Times,serif" font-size="14.00">30064771076</text>
</g>
<!-- 30064771076&#45;&gt;68719479487 -->
<g id="edge27" class="edge">
<title>30064771076&#45;&gt;68719479487</title>
<path fill="none" stroke="black" d="M2737.99,-945.38C2743.12,-934.47 2750.76,-920.57 2760.23,-910.25 2763.62,-906.56 2767.37,-903.01 2771.31,-899.65"/>
<polygon fill="black" stroke="black" points="2773.35,-902.49 2778.99,-893.52 2768.98,-897.02 2773.35,-902.49"/>
<text xml:space="preserve" text-anchor="middle" x="2793.98" y="-912.7" font-family="Times,serif" font-size="14.00">DDG: print</text>
</g>
<!-- 68719479589 -->
<g id="node18" class="node">
<title>68719479589</title>
<polygon fill="none" stroke="black" points="2883.85,-981.75 2793.6,-981.75 2793.6,-945.75 2883.85,-945.75 2883.85,-981.75"/>
<text xml:space="preserve" text-anchor="middle" x="2838.73" y="-958.33" font-family="Times,serif" font-size="14.00">68719479589</text>
</g>
<!-- 68719479589&#45;&gt;68719479487 -->
<g id="edge28" class="edge">
<title>68719479589&#45;&gt;68719479487</title>
<path fill="none" stroke="black" d="M2836.4,-945.39C2834.86,-933.85 2832.77,-918.23 2830.85,-903.88"/>
<polygon fill="black" stroke="black" points="2834.35,-903.69 2829.56,-894.24 2827.42,-904.62 2834.35,-903.69"/>
<text xml:space="preserve" text-anchor="middle" x="2867.53" y="-912.7" font-family="Times,serif" font-size="14.00">DDG: print</text>
</g>
<!-- 68719479592 -->
<g id="node19" class="node">
<title>68719479592</title>
<polygon fill="none" stroke="black" points="2991.85,-981.75 2901.6,-981.75 2901.6,-945.75 2991.85,-945.75 2991.85,-981.75"/>
<text xml:space="preserve" text-anchor="middle" x="2946.73" y="-958.33" font-family="Times,serif" font-size="14.00">68719479592</text>
</g>
<!-- 68719479592&#45;&gt;68719479487 -->
<g id="edge29" class="edge">
<title>68719479592&#45;&gt;68719479487</title>
<path fill="none" stroke="black" d="M2936.02,-945.7C2928.5,-934.66 2917.67,-920.48 2905.73,-910.25 2901.05,-906.24 2895.95,-902.42 2890.67,-898.83"/>
<polygon fill="black" stroke="black" points="2892.6,-895.91 2882.29,-893.43 2888.81,-901.79 2892.6,-895.91"/>
<text xml:space="preserve" text-anchor="middle" x="2954.78" y="-912.7" font-family="Times,serif" font-size="14.00">DDG: print</text>
</g>
<!-- 30064771073 -->
<g id="node20" class="node">
<title>30064771073</title>
<polygon fill="none" stroke="black" points="2636.85,-981.75 2546.6,-981.75 2546.6,-945.75 2636.85,-945.75 2636.85,-981.75"/>
<text xml:space="preserve" text-anchor="middle" x="2591.73" y="-958.33" font-family="Times,serif" font-size="14.00">30064771073</text>
</g>
<!-- 30064771073&#45;&gt;68719479473 -->
<g id="edge40" class="edge">
<title>30064771073&#45;&gt;68719479473</title>
<path fill="none" stroke="black" d="M2591.26,-945.65C2591.21,-935.34 2591.57,-921.99 2593.23,-910.25 2593.54,-908.05 2593.92,-905.81 2594.35,-903.55"/>
<polygon fill="black" stroke="black" points="2597.76,-904.33 2596.49,-893.81 2590.92,-902.82 2597.76,-904.33"/>
<text xml:space="preserve" text-anchor="middle" x="2626.98" y="-912.7" font-family="Times,serif" font-size="14.00">DDG: input</text>
</g>
</g>
</svg>
