<?xml version="1.0" encoding="UTF-8" standalone="no"?>
<!DOCTYPE svg PUBLIC "-//W3C//DTD SVG 1.1//EN"
 "http://www.w3.org/Graphics/SVG/1.1/DTD/svg11.dtd">
<!-- Generated by graphviz version 13.1.2 (20250809.0930)
 -->
<!-- Title: &lt;operator&gt;.listLiteral Pages: 1 -->
<svg width="710pt" height="220pt"
 viewBox="0.00 0.00 710.00 220.00" xmlns="http://www.w3.org/2000/svg" xmlns:xlink="http://www.w3.org/1999/xlink">
<g id="graph0" class="graph" transform="scale(1 1) rotate(0) translate(4 215.5)">
<title>&lt;operator&gt;.listLiteral</title>
<polygon fill="white" stroke="none" points="-4,4 -4,-215.5 706,-215.5 706,4 -4,4"/>
<!-- 107374182559 -->
<g id="node1" class="node">
<title>107374182559</title>
<polygon fill="none" stroke="black" points="374,-211.5 320,-211.5 320,-175.5 374,-175.5 374,-211.5"/>
</g>
<!-- 111669150011 -->
<g id="node3" class="node">
<title>111669150011</title>
<polygon fill="none" stroke="black" points="54,-123.75 0,-123.75 0,-87.75 54,-87.75 54,-123.75"/>
</g>
<!-- 107374182559&#45;&gt;111669150011 -->
<g id="edge11" class="edge">
<title>107374182559&#45;&gt;111669150011</title>
<path fill="none" stroke="black" d="M319.59,-192.32C273.75,-191.19 179.28,-185.33 105.25,-157.5 88.26,-151.11 71.14,-140.58 57.26,-130.77"/>
<polygon fill="black" stroke="black" points="59.58,-128.12 49.44,-125.04 55.44,-133.77 59.58,-128.12"/>
<text xml:space="preserve" text-anchor="middle" x="122.12" y="-144.2" font-family="Times,serif" font-size="14.00">DDG: </text>
</g>
<!-- 111669150012 -->
<g id="node4" class="node">
<title>111669150012</title>
<polygon fill="none" stroke="black" points="126,-123.75 72,-123.75 72,-87.75 126,-87.75 126,-123.75"/>
</g>
<!-- 107374182559&#45;&gt;111669150012 -->
<g id="edge12" class="edge">
<title>107374182559&#45;&gt;111669150012</title>
<path fill="none" stroke="black" d="M319.6,-190.66C283.92,-187.48 220.23,-179.06 170.25,-157.5 155.03,-150.93 139.83,-140.74 127.4,-131.2"/>
<polygon fill="black" stroke="black" points="129.68,-128.54 119.67,-125.05 125.32,-134.02 129.68,-128.54"/>
<text xml:space="preserve" text-anchor="middle" x="187.12" y="-144.2" font-family="Times,serif" font-size="14.00">DDG: </text>
</g>
<!-- 111669150013 -->
<g id="node5" class="node">
<title>111669150013</title>
<polygon fill="none" stroke="black" points="198,-123.75 144,-123.75 144,-87.75 198,-87.75 198,-123.75"/>
</g>
<!-- 107374182559&#45;&gt;111669150013 -->
<g id="edge13" class="edge">
<title>107374182559&#45;&gt;111669150013</title>
<path fill="none" stroke="black" d="M319.58,-187.5C295.32,-182.32 259.49,-172.81 231.25,-157.5 218.7,-150.69 206.36,-141 196.15,-131.9"/>
<polygon fill="black" stroke="black" points="198.6,-129.4 188.89,-125.18 193.85,-134.54 198.6,-129.4"/>
<text xml:space="preserve" text-anchor="middle" x="248.12" y="-144.2" font-family="Times,serif" font-size="14.00">DDG: </text>
</g>
<!-- 111669150014 -->
<g id="node6" class="node">
<title>111669150014</title>
<polygon fill="none" stroke="black" points="270,-123.75 216,-123.75 216,-87.75 270,-87.75 270,-123.75"/>
</g>
<!-- 107374182559&#45;&gt;111669150014 -->
<g id="edge14" class="edge">
<title>107374182559&#45;&gt;111669150014</title>
<path fill="none" stroke="black" d="M319.62,-180.1C308.06,-174.17 294.85,-166.4 284.25,-157.5 275.91,-150.5 268.03,-141.62 261.44,-133.25"/>
<polygon fill="black" stroke="black" points="264.3,-131.24 255.49,-125.36 258.71,-135.45 264.3,-131.24"/>
<text xml:space="preserve" text-anchor="middle" x="301.12" y="-144.2" font-family="Times,serif" font-size="14.00">DDG: </text>
</g>
<!-- 111669150015 -->
<g id="node7" class="node">
<title>111669150015</title>
<polygon fill="none" stroke="black" points="342,-123.75 288,-123.75 288,-87.75 342,-87.75 342,-123.75"/>
</g>
<!-- 107374182559&#45;&gt;111669150015 -->
<g id="edge15" class="edge">
<title>107374182559&#45;&gt;111669150015</title>
<path fill="none" stroke="black" d="M335.97,-175.16C332.82,-169.67 329.6,-163.47 327.25,-157.5 324.46,-150.42 322.18,-142.52 320.38,-135.1"/>
<polygon fill="black" stroke="black" points="323.84,-134.52 318.26,-125.51 317,-136.03 323.84,-134.52"/>
<text xml:space="preserve" text-anchor="middle" x="344.12" y="-144.2" font-family="Times,serif" font-size="14.00">DDG: </text>
</g>
<!-- 111669150016 -->
<g id="node8" class="node">
<title>111669150016</title>
<polygon fill="none" stroke="black" points="414,-123.75 360,-123.75 360,-87.75 414,-87.75 414,-123.75"/>
</g>
<!-- 107374182559&#45;&gt;111669150016 -->
<g id="edge16" class="edge">
<title>107374182559&#45;&gt;111669150016</title>
<path fill="none" stroke="black" d="M355.09,-175.15C360.57,-163.41 367.92,-147.66 374.18,-134.23"/>
<polygon fill="black" stroke="black" points="377.22,-135.99 378.28,-125.45 370.88,-133.03 377.22,-135.99"/>
<text xml:space="preserve" text-anchor="middle" x="387.46" y="-144.2" font-family="Times,serif" font-size="14.00">DDG: </text>
</g>
<!-- 111669150017 -->
<g id="node9" class="node">
<title>111669150017</title>
<polygon fill="none" stroke="black" points="486,-123.75 432,-123.75 432,-87.75 486,-87.75 486,-123.75"/>
</g>
<!-- 107374182559&#45;&gt;111669150017 -->
<g id="edge17" class="edge">
<title>107374182559&#45;&gt;111669150017</title>
<path fill="none" stroke="black" d="M374.38,-178.79C385.25,-172.84 397.61,-165.43 408,-157.5 417.83,-150 427.68,-140.71 436.07,-132.14"/>
<polygon fill="black" stroke="black" points="438.52,-134.65 442.88,-124.99 433.45,-129.82 438.52,-134.65"/>
<text xml:space="preserve" text-anchor="middle" x="442.85" y="-144.2" font-family="Times,serif" font-size="14.00">DDG: </text>
</g>
<!-- 111669150018 -->
<g id="node10" class="node">
<title>111669150018</title>
<polygon fill="none" stroke="black" points="558,-123.75 504,-123.75 504,-87.75 558,-87.75 558,-123.75"/>
</g>
<!-- 107374182559&#45;&gt;111669150018 -->
<g id="edge18" class="edge">
<title>107374182559&#45;&gt;111669150018</title>
<path fill="none" stroke="black" d="M374.05,-187.29C398.46,-181.94 434.88,-172.27 464,-157.5 477.86,-150.47 491.79,-140.5 503.33,-131.26"/>
<polygon fill="black" stroke="black" points="505.38,-134.11 510.85,-125.04 500.92,-128.71 505.38,-134.11"/>
<text xml:space="preserve" text-anchor="middle" x="506.34" y="-144.2" font-family="Times,serif" font-size="14.00">DDG: </text>
</g>
<!-- 111669150019 -->
<g id="node11" class="node">
<title>111669150019</title>
<polygon fill="none" stroke="black" points="630,-123.75 576,-123.75 576,-87.75 630,-87.75 630,-123.75"/>
</g>
<!-- 107374182559&#45;&gt;111669150019 -->
<g id="edge19" class="edge">
<title>107374182559&#45;&gt;111669150019</title>
<path fill="none" stroke="black" d="M374.49,-190.54C410.66,-187.22 475.63,-178.64 527,-157.5 543.17,-150.84 559.51,-140.51 572.87,-130.9"/>
<polygon fill="black" stroke="black" points="574.88,-133.77 580.82,-124.99 570.7,-128.15 574.88,-133.77"/>
<text xml:space="preserve" text-anchor="middle" x="572.66" y="-144.2" font-family="Times,serif" font-size="14.00">DDG: </text>
</g>
<!-- 111669150020 -->
<g id="node12" class="node">
<title>111669150020</title>
<polygon fill="none" stroke="black" points="702,-123.75 648,-123.75 648,-87.75 702,-87.75 702,-123.75"/>
</g>
<!-- 107374182559&#45;&gt;111669150020 -->
<g id="edge20" class="edge">
<title>107374182559&#45;&gt;111669150020</title>
<path fill="none" stroke="black" d="M374.21,-192.31C420.68,-191.19 517.72,-185.36 594,-157.5 611.48,-151.12 629.18,-140.59 643.57,-130.77"/>
<polygon fill="black" stroke="black" points="645.56,-133.65 651.71,-125.02 641.52,-127.93 645.56,-133.65"/>
<text xml:space="preserve" text-anchor="middle" x="641.5" y="-144.2" font-family="Times,serif" font-size="14.00">DDG: </text>
</g>
<!-- 124554051743 -->
<g id="node2" class="node">
<title>124554051743</title>
<polygon fill="none" stroke="black" points="377,-36 323,-36 323,0 377,0 377,-36"/>
</g>
<!-- 111669150011&#45;&gt;124554051743 -->
<g id="edge1" class="edge">
<title>111669150011&#45;&gt;124554051743</title>
<path fill="none" stroke="black" d="M36.01,-87.68C43.04,-76.16 53.93,-61.71 67.75,-54 108.63,-31.2 243.8,-22.97 311.15,-20.24"/>
<polygon fill="black" stroke="black" points="311.14,-23.74 321,-19.86 310.88,-16.75 311.14,-23.74"/>
<text xml:space="preserve" text-anchor="middle" x="91.38" y="-56.45" font-family="Times,serif" font-size="14.00">DDG: p0</text>
</g>
<!-- 111669150012&#45;&gt;124554051743 -->
<g id="edge2" class="edge">
<title>111669150012&#45;&gt;124554051743</title>
<path fill="none" stroke="black" d="M107.08,-87.37C113.29,-76.02 122.98,-61.88 135.75,-54 164.45,-36.29 257.73,-26.23 311.27,-21.79"/>
<polygon fill="black" stroke="black" points="311.49,-25.28 321.18,-21 310.93,-18.3 311.49,-25.28"/>
<text xml:space="preserve" text-anchor="middle" x="159.38" y="-56.45" font-family="Times,serif" font-size="14.00">DDG: p1</text>
</g>
<!-- 111669150013&#45;&gt;124554051743 -->
<g id="edge3" class="edge">
<title>111669150013&#45;&gt;124554051743</title>
<path fill="none" stroke="black" d="M176.91,-87.67C181.65,-76.46 189.41,-62.37 200.75,-54 232.99,-30.22 278.91,-22.31 311.28,-19.82"/>
<polygon fill="black" stroke="black" points="311.27,-23.33 321.04,-19.22 310.84,-16.34 311.27,-23.33"/>
<text xml:space="preserve" text-anchor="middle" x="224.38" y="-56.45" font-family="Times,serif" font-size="14.00">DDG: p2</text>
</g>
<!-- 111669150014&#45;&gt;124554051743 -->
<g id="edge4" class="edge">
<title>111669150014&#45;&gt;124554051743</title>
<path fill="none" stroke="black" d="M245.72,-87.29C248.23,-76.49 252.96,-63 261.75,-54 275.16,-40.26 294.64,-31.78 311.89,-26.62"/>
<polygon fill="black" stroke="black" points="312.6,-30.05 321.35,-24.07 310.79,-23.29 312.6,-30.05"/>
<text xml:space="preserve" text-anchor="middle" x="285.38" y="-56.45" font-family="Times,serif" font-size="14.00">DDG: p3</text>
</g>
<!-- 111669150015&#45;&gt;124554051743 -->
<g id="edge5" class="edge">
<title>111669150015&#45;&gt;124554051743</title>
<path fill="none" stroke="black" d="M312.63,-87.65C311.94,-77.49 312.32,-64.57 316.75,-54 318.03,-50.96 319.7,-48.02 321.61,-45.23"/>
<polygon fill="black" stroke="black" points="324.27,-47.51 327.87,-37.55 318.84,-43.09 324.27,-47.51"/>
<text xml:space="preserve" text-anchor="middle" x="340.38" y="-56.45" font-family="Times,serif" font-size="14.00">DDG: p4</text>
</g>
<!-- 111669150016&#45;&gt;124554051743 -->
<g id="edge6" class="edge">
<title>111669150016&#45;&gt;124554051743</title>
<path fill="none" stroke="black" d="M379.51,-87.4C374.5,-75.77 367.78,-60.22 362.03,-46.88"/>
<polygon fill="black" stroke="black" points="365.25,-45.51 358.08,-37.72 358.82,-48.29 365.25,-45.51"/>
<text xml:space="preserve" text-anchor="middle" x="395.44" y="-56.45" font-family="Times,serif" font-size="14.00">DDG: p5</text>
</g>
<!-- 111669150017&#45;&gt;124554051743 -->
<g id="edge7" class="edge">
<title>111669150017&#45;&gt;124554051743</title>
<path fill="none" stroke="black" d="M449.81,-87.51C443.41,-76.8 434.07,-63.33 423,-54 412.61,-45.24 399.66,-38.11 387.56,-32.62"/>
<polygon fill="black" stroke="black" points="389.2,-29.51 378.62,-28.81 386.45,-35.95 389.2,-29.51"/>
<text xml:space="preserve" text-anchor="middle" x="460.64" y="-56.45" font-family="Times,serif" font-size="14.00">DDG: p6</text>
</g>
<!-- 111669150018&#45;&gt;124554051743 -->
<g id="edge8" class="edge">
<title>111669150018&#45;&gt;124554051743</title>
<path fill="none" stroke="black" d="M520.63,-87.72C512.96,-76.53 501.52,-62.44 488,-54 457.78,-35.13 417.84,-26.42 388.71,-22.4"/>
<polygon fill="black" stroke="black" points="389.19,-18.93 378.84,-21.18 388.33,-25.88 389.19,-18.93"/>
<text xml:space="preserve" text-anchor="middle" x="529.54" y="-56.45" font-family="Times,serif" font-size="14.00">DDG: p7</text>
</g>
<!-- 111669150019&#45;&gt;124554051743 -->
<g id="edge9" class="edge">
<title>111669150019&#45;&gt;124554051743</title>
<path fill="none" stroke="black" d="M591.86,-87.37C583.64,-76.01 571.39,-61.88 557,-54 503.82,-24.88 432.34,-18.83 388.8,-18.16"/>
<polygon fill="black" stroke="black" points="388.84,-14.66 378.82,-18.1 388.8,-21.66 388.84,-14.66"/>
<text xml:space="preserve" text-anchor="middle" x="599.74" y="-56.45" font-family="Times,serif" font-size="14.00">DDG: p8</text>
</g>
<!-- 111669150020&#45;&gt;124554051743 -->
<g id="edge10" class="edge">
<title>111669150020&#45;&gt;124554051743</title>
<path fill="none" stroke="black" d="M663.69,-87.66C655.08,-76.14 642.14,-61.68 627,-54 586.12,-33.26 454.44,-24.06 388.44,-20.67"/>
<polygon fill="black" stroke="black" points="388.97,-17.19 378.81,-20.2 388.63,-24.18 388.97,-17.19"/>
<text xml:space="preserve" text-anchor="middle" x="670.5" y="-56.45" font-family="Times,serif" font-size="14.00">DDG: p9</text>
</g>
</g>
</svg>
