<?xml version="1.0" encoding="UTF-8" standalone="no"?>
<!DOCTYPE svg PUBLIC "-//W3C//DTD SVG 1.1//EN"
 "http://www.w3.org/Graphics/SVG/1.1/DTD/svg11.dtd">
<!-- Generated by graphviz version 13.1.2 (20250809.0930)
 -->
<!-- Title: has_completed&lt;metaClassAdapter&gt; Pages: 1 -->
<svg width="867pt" height="436pt"
 viewBox="0.00 0.00 867.00 436.00" xmlns="http://www.w3.org/2000/svg" xmlns:xlink="http://www.w3.org/1999/xlink">
<g id="graph0" class="graph" transform="scale(1 1) rotate(0) translate(4 432.25)">
<title>has_completed&lt;metaClassAdapter&gt;</title>
<polygon fill="white" stroke="none" points="-4,4 -4,-432.25 863.38,-432.25 863.38,4 -4,4"/>
<!-- 107374182416 -->
<g id="node1" class="node">
<title>107374182416</title>
<polygon fill="none" stroke="black" points="317.38,-428.25 92.12,-428.25 92.12,-388.75 317.38,-388.75 317.38,-428.25"/>
<text xml:space="preserve" text-anchor="start" x="167.62" y="-410.95" font-family="Times,serif" font-size="14.00">METHOD, 244</text>
<text xml:space="preserve" text-anchor="start" x="100.12" y="-395.2" font-family="Times,serif" font-size="14.00">has_completed&lt;metaClassAdapter&gt;</text>
</g>
<!-- 111669149717 -->
<g id="node3" class="node">
<title>111669149717</title>
<polygon fill="none" stroke="black" points="83.5,-279.5 0,-279.5 0,-240 83.5,-240 83.5,-279.5"/>
<text xml:space="preserve" text-anchor="start" x="8" y="-262.2" font-family="Times,serif" font-size="14.00">PARAM, 244</text>
<text xml:space="preserve" text-anchor="start" x="31.62" y="-246.45" font-family="Times,serif" font-size="14.00">cls</text>
</g>
<!-- 107374182416&#45;&gt;111669149717 -->
<g id="edge6" class="edge">
<title>107374182416&#45;&gt;111669149717</title>
<path fill="none" stroke="black" d="M160.73,-388.39C137.22,-376.4 109.21,-359.03 89.75,-337 77.05,-322.62 65.49,-304.51 56.91,-289.54"/>
<polygon fill="black" stroke="black" points="60.12,-288.13 52.2,-281.1 54.01,-291.54 60.12,-288.13"/>
<text xml:space="preserve" text-anchor="middle" x="146.78" y="-357.45" font-family="Times,serif" font-size="14.00">DDG: </text>
</g>
<!-- 111669149718 -->
<g id="node4" class="node">
<title>111669149718</title>
<polygon fill="none" stroke="black" points="182.5,-337 99,-337 99,-297.5 182.5,-297.5 182.5,-337"/>
<text xml:space="preserve" text-anchor="start" x="107" y="-319.7" font-family="Times,serif" font-size="14.00">PARAM, 244</text>
<text xml:space="preserve" text-anchor="start" x="127.25" y="-303.95" font-family="Times,serif" font-size="14.00">self</text>
</g>
<!-- 107374182416&#45;&gt;111669149718 -->
<g id="edge7" class="edge">
<title>107374182416&#45;&gt;111669149718</title>
<path fill="none" stroke="black" d="M191.18,-388.57C182.41,-376.35 170.85,-360.22 161.01,-346.5"/>
<polygon fill="black" stroke="black" points="164.08,-344.77 155.41,-338.69 158.39,-348.85 164.08,-344.77"/>
<text xml:space="preserve" text-anchor="middle" x="193.46" y="-357.45" font-family="Times,serif" font-size="14.00">DDG: </text>
</g>
<!-- 111669149719 -->
<g id="node5" class="node">
<title>111669149719</title>
<polygon fill="none" stroke="black" points="290.88,-337 200.62,-337 200.62,-297.5 290.88,-297.5 290.88,-337"/>
<text xml:space="preserve" text-anchor="start" x="212" y="-319.7" font-family="Times,serif" font-size="14.00">PARAM, 244</text>
<text xml:space="preserve" text-anchor="start" x="208.62" y="-303.95" font-family="Times,serif" font-size="14.00">course_code</text>
</g>
<!-- 107374182416&#45;&gt;111669149719 -->
<g id="edge8" class="edge">
<title>107374182416&#45;&gt;111669149719</title>
<path fill="none" stroke="black" d="M213.45,-388.57C218.9,-376.7 226.04,-361.15 232.22,-347.69"/>
<polygon fill="black" stroke="black" points="235.3,-349.38 236.29,-338.83 228.94,-346.46 235.3,-349.38"/>
<text xml:space="preserve" text-anchor="middle" x="244.58" y="-357.45" font-family="Times,serif" font-size="14.00">DDG: </text>
</g>
<!-- 30064771350 -->
<g id="node7" class="node">
<title>30064771350</title>
<polygon fill="none" stroke="black" points="438.5,-222 31,-222 31,-182.5 438.5,-182.5 438.5,-222"/>
<text xml:space="preserve" text-anchor="start" x="39" y="-204.7" font-family="Times,serif" font-size="14.00">AI_generated_code_1.py:&lt;module&gt;.Student.has_completed, 244</text>
<text xml:space="preserve" text-anchor="start" x="126.75" y="-188.95" font-family="Times,serif" font-size="14.00">has_completed(self, course_code)</text>
</g>
<!-- 107374182416&#45;&gt;30064771350 -->
<g id="edge11" class="edge">
<title>107374182416&#45;&gt;30064771350</title>
<path fill="none" stroke="black" d="M240.14,-388.44C274.84,-367.26 324.79,-329.37 340.75,-279.5 346.1,-262.78 350.93,-254.3 340.75,-240 337.89,-235.98 334.56,-232.4 330.88,-229.21"/>
<polygon fill="black" stroke="black" points="333.06,-226.46 322.94,-223.34 328.9,-232.1 333.06,-226.46"/>
<text xml:space="preserve" text-anchor="middle" x="348.99" y="-311.82" font-family="Times,serif" font-size="14.00">DDG: </text>
</g>
<!-- 124554051600 -->
<g id="node2" class="node">
<title>124554051600</title>
<polygon fill="none" stroke="black" points="237.5,-39.5 100,-39.5 100,0 237.5,0 237.5,-39.5"/>
<text xml:space="preserve" text-anchor="start" x="108" y="-22.2" font-family="Times,serif" font-size="14.00">METHOD_RETURN, 244</text>
<text xml:space="preserve" text-anchor="start" x="121.5" y="-6.45" font-family="Times,serif" font-size="14.00">__builtin.bool</text>
</g>
<!-- 111669149717&#45;&gt;124554051600 -->
<g id="edge2" class="edge">
<title>111669149717&#45;&gt;124554051600</title>
<path fill="none" stroke="black" d="M29.04,-239.66C26.05,-234.19 23.29,-228.05 21.75,-222 17.42,-204.99 17.16,-199.45 21.75,-182.5 38.56,-120.4 47.75,-101.43 94.75,-57.5 99.45,-53.11 104.77,-49.13 110.36,-45.55"/>
<polygon fill="black" stroke="black" points="111.8,-48.76 118.64,-40.67 108.24,-42.73 111.8,-48.76"/>
<text xml:space="preserve" text-anchor="middle" x="58.28" y="-151.2" font-family="Times,serif" font-size="14.00">DDG: cls</text>
</g>
<!-- 111669149718&#45;&gt;30064771350 -->
<g id="edge10" class="edge">
<title>111669149718&#45;&gt;30064771350</title>
<path fill="none" stroke="black" d="M143.05,-297.08C145.92,-280.37 152.26,-256.32 166,-240 169.47,-235.88 173.52,-232.16 177.89,-228.8"/>
<polygon fill="black" stroke="black" points="179.68,-231.81 185.96,-223.28 175.73,-226.03 179.68,-231.81"/>
<text xml:space="preserve" text-anchor="middle" x="196.38" y="-254.32" font-family="Times,serif" font-size="14.00">DDG: self</text>
</g>
<!-- 111669149719&#45;&gt;30064771350 -->
<g id="edge12" class="edge">
<title>111669149719&#45;&gt;30064771350</title>
<path fill="none" stroke="black" d="M237.6,-297.13C235.61,-291.55 233.76,-285.37 232.75,-279.5 230.16,-264.41 230.32,-247.4 231.27,-233.27"/>
<polygon fill="black" stroke="black" points="234.72,-233.97 232.08,-223.71 227.75,-233.37 234.72,-233.97"/>
<text xml:space="preserve" text-anchor="middle" x="286.75" y="-254.32" font-family="Times,serif" font-size="14.00">DDG: course_code</text>
</g>
<!-- 141733920785 -->
<g id="node6" class="node">
<title>141733920785</title>
<polygon fill="none" stroke="black" points="859.38,-130.75 580.12,-130.75 580.12,-91.25 859.38,-91.25 859.38,-130.75"/>
<text xml:space="preserve" text-anchor="start" x="682.62" y="-113.45" font-family="Times,serif" font-size="14.00">RETURN, 244</text>
<text xml:space="preserve" text-anchor="start" x="588.12" y="-97.7" font-family="Times,serif" font-size="14.00">return has_completed(self, course_code)</text>
</g>
<!-- 141733920785&#45;&gt;124554051600 -->
<g id="edge1" class="edge">
<title>141733920785&#45;&gt;124554051600</title>
<path fill="none" stroke="black" d="M601.21,-90.8C494.94,-73.59 341.91,-48.8 249.26,-33.79"/>
<polygon fill="black" stroke="black" points="249.91,-30.35 239.48,-32.21 248.79,-37.26 249.91,-30.35"/>
<text xml:space="preserve" text-anchor="middle" x="510.99" y="-59.95" font-family="Times,serif" font-size="14.00">DDG: &lt;RET&gt;</text>
</g>
<!-- 30064771350&#45;&gt;124554051600 -->
<g id="edge3" class="edge">
<title>30064771350&#45;&gt;124554051600</title>
<path fill="none" stroke="black" d="M154.37,-182.11C127.9,-171.55 101.34,-155.37 86,-130.75 67.18,-100.55 98.24,-68.27 127.53,-46.55"/>
<polygon fill="black" stroke="black" points="129.55,-49.4 135.68,-40.76 125.5,-43.7 129.55,-49.4"/>
<text xml:space="preserve" text-anchor="middle" x="116.38" y="-105.58" font-family="Times,serif" font-size="14.00">DDG: self</text>
</g>
<!-- 30064771350&#45;&gt;124554051600 -->
<g id="edge4" class="edge">
<title>30064771350&#45;&gt;124554051600</title>
<path fill="none" stroke="black" d="M216.51,-182.25C204.85,-168.92 190.5,-150.09 182.75,-130.75 172.49,-105.15 169.33,-73.76 168.54,-51.07"/>
<polygon fill="black" stroke="black" points="172.04,-51.2 168.34,-41.28 165.04,-51.35 172.04,-51.2"/>
<text xml:space="preserve" text-anchor="middle" x="236.75" y="-105.58" font-family="Times,serif" font-size="14.00">DDG: course_code</text>
</g>
<!-- 30064771350&#45;&gt;124554051600 -->
<g id="edge5" class="edge">
<title>30064771350&#45;&gt;124554051600</title>
<path fill="none" stroke="black" d="M256.43,-182.25C279,-160.06 308.74,-122.43 290.75,-91.25 278.93,-70.77 258.64,-55.7 237.96,-44.88"/>
<polygon fill="black" stroke="black" points="239.69,-41.83 229.17,-40.57 236.61,-48.11 239.69,-41.83"/>
<text xml:space="preserve" text-anchor="middle" x="421.15" y="-105.58" font-family="Times,serif" font-size="14.00">DDG: has_completed(self, course_code)</text>
</g>
<!-- 30064771350&#45;&gt;141733920785 -->
<g id="edge9" class="edge">
<title>30064771350&#45;&gt;141733920785</title>
<path fill="none" stroke="black" d="M339.09,-182.05C417,-167.71 523.46,-148.12 603.98,-133.3"/>
<polygon fill="black" stroke="black" points="604.48,-136.77 613.68,-131.52 603.21,-129.89 604.48,-136.77"/>
<text xml:space="preserve" text-anchor="middle" x="631.16" y="-151.2" font-family="Times,serif" font-size="14.00">DDG: has_completed(self, course_code)</text>
</g>
</g>
</svg>
