<?xml version="1.0" encoding="UTF-8" standalone="no"?>
<!DOCTYPE svg PUBLIC "-//W3C//DTD SVG 1.1//EN"
 "http://www.w3.org/Graphics/SVG/1.1/DTD/svg11.dtd">
<!-- Generated by graphviz version 13.1.2 (20250809.0930)
 -->
<!-- Title: &lt;operator&gt;.setLiteral Pages: 1 -->
<svg width="494pt" height="220pt"
 viewBox="0.00 0.00 494.00 220.00" xmlns="http://www.w3.org/2000/svg" xmlns:xlink="http://www.w3.org/1999/xlink">
<g id="graph0" class="graph" transform="scale(1 1) rotate(0) translate(4 215.5)">
<title>&lt;operator&gt;.setLiteral</title>
<polygon fill="white" stroke="none" points="-4,4 -4,-215.5 490,-215.5 490,4 -4,4"/>
<!-- 107374182563 -->
<g id="node1" class="node">
<title>107374182563</title>
<polygon fill="none" stroke="black" points="270,-211.5 216,-211.5 216,-175.5 270,-175.5 270,-211.5"/>
</g>
<!-- 111669150027 -->
<g id="node3" class="node">
<title>111669150027</title>
<polygon fill="none" stroke="black" points="54,-123.75 0,-123.75 0,-87.75 54,-87.75 54,-123.75"/>
</g>
<!-- 107374182563&#45;&gt;111669150027 -->
<g id="edge8" class="edge">
<title>107374182563&#45;&gt;111669150027</title>
<path fill="none" stroke="black" d="M215.57,-189.05C185.68,-184.57 136.94,-175.16 98.25,-157.5 83.28,-150.67 68.21,-140.52 55.82,-131.1"/>
<polygon fill="black" stroke="black" points="58.12,-128.46 48.09,-125.03 53.8,-133.96 58.12,-128.46"/>
<text xml:space="preserve" text-anchor="middle" x="115.12" y="-144.2" font-family="Times,serif" font-size="14.00">DDG: </text>
</g>
<!-- 111669150028 -->
<g id="node4" class="node">
<title>111669150028</title>
<polygon fill="none" stroke="black" points="126,-123.75 72,-123.75 72,-87.75 126,-87.75 126,-123.75"/>
</g>
<!-- 107374182563&#45;&gt;111669150028 -->
<g id="edge9" class="edge">
<title>107374182563&#45;&gt;111669150028</title>
<path fill="none" stroke="black" d="M215.67,-184.17C198,-178.14 174.89,-169.04 156.25,-157.5 144.66,-150.33 133.17,-140.75 123.55,-131.85"/>
<polygon fill="black" stroke="black" points="126.04,-129.39 116.4,-125 121.2,-134.45 126.04,-129.39"/>
<text xml:space="preserve" text-anchor="middle" x="173.12" y="-144.2" font-family="Times,serif" font-size="14.00">DDG: </text>
</g>
<!-- 111669150029 -->
<g id="node5" class="node">
<title>111669150029</title>
<polygon fill="none" stroke="black" points="198,-123.75 144,-123.75 144,-87.75 198,-87.75 198,-123.75"/>
</g>
<!-- 107374182563&#45;&gt;111669150029 -->
<g id="edge10" class="edge">
<title>107374182563&#45;&gt;111669150029</title>
<path fill="none" stroke="black" d="M222.57,-175.14C216.7,-169.75 210.48,-163.61 205.25,-157.5 198.93,-150.12 192.75,-141.54 187.43,-133.56"/>
<polygon fill="black" stroke="black" points="190.38,-131.68 182.01,-125.18 184.5,-135.47 190.38,-131.68"/>
<text xml:space="preserve" text-anchor="middle" x="222.12" y="-144.2" font-family="Times,serif" font-size="14.00">DDG: </text>
</g>
<!-- 111669150030 -->
<g id="node6" class="node">
<title>111669150030</title>
<polygon fill="none" stroke="black" points="270,-123.75 216,-123.75 216,-87.75 270,-87.75 270,-123.75"/>
</g>
<!-- 107374182563&#45;&gt;111669150030 -->
<g id="edge11" class="edge">
<title>107374182563&#45;&gt;111669150030</title>
<path fill="none" stroke="black" d="M243,-175.15C243,-163.76 243,-148.59 243,-135.43"/>
<polygon fill="black" stroke="black" points="246.5,-135.59 243,-125.59 239.5,-135.59 246.5,-135.59"/>
<text xml:space="preserve" text-anchor="middle" x="259.88" y="-144.2" font-family="Times,serif" font-size="14.00">DDG: </text>
</g>
<!-- 111669150031 -->
<g id="node7" class="node">
<title>111669150031</title>
<polygon fill="none" stroke="black" points="342,-123.75 288,-123.75 288,-87.75 342,-87.75 342,-123.75"/>
</g>
<!-- 107374182563&#45;&gt;111669150031 -->
<g id="edge12" class="edge">
<title>107374182563&#45;&gt;111669150031</title>
<path fill="none" stroke="black" d="M263.59,-175.17C269.49,-169.78 275.75,-163.63 281,-157.5 287.31,-150.14 293.44,-141.56 298.73,-133.58"/>
<polygon fill="black" stroke="black" points="301.65,-135.5 304.1,-125.2 295.76,-131.73 301.65,-135.5"/>
<text xml:space="preserve" text-anchor="middle" x="309.18" y="-144.2" font-family="Times,serif" font-size="14.00">DDG: </text>
</g>
<!-- 111669150032 -->
<g id="node8" class="node">
<title>111669150032</title>
<polygon fill="none" stroke="black" points="414,-123.75 360,-123.75 360,-87.75 414,-87.75 414,-123.75"/>
</g>
<!-- 107374182563&#45;&gt;111669150032 -->
<g id="edge13" class="edge">
<title>107374182563&#45;&gt;111669150032</title>
<path fill="none" stroke="black" d="M270.42,-184.2C288.15,-178.18 311.32,-169.08 330,-157.5 341.55,-150.34 353,-140.76 362.57,-131.86"/>
<polygon fill="black" stroke="black" points="364.91,-134.47 369.69,-125.02 360.06,-129.43 364.91,-134.47"/>
<text xml:space="preserve" text-anchor="middle" x="367.14" y="-144.2" font-family="Times,serif" font-size="14.00">DDG: </text>
</g>
<!-- 111669150033 -->
<g id="node9" class="node">
<title>111669150033</title>
<polygon fill="none" stroke="black" points="486,-123.75 432,-123.75 432,-87.75 486,-87.75 486,-123.75"/>
</g>
<!-- 107374182563&#45;&gt;111669150033 -->
<g id="edge14" class="edge">
<title>107374182563&#45;&gt;111669150033</title>
<path fill="none" stroke="black" d="M270.48,-189.07C300.43,-184.61 349.26,-175.21 388,-157.5 402.93,-150.67 417.95,-140.53 430.3,-131.11"/>
<polygon fill="black" stroke="black" points="432.3,-133.98 437.99,-125.04 427.97,-128.48 432.3,-133.98"/>
<text xml:space="preserve" text-anchor="middle" x="431.85" y="-144.2" font-family="Times,serif" font-size="14.00">DDG: </text>
</g>
<!-- 124554051747 -->
<g id="node2" class="node">
<title>124554051747</title>
<polygon fill="none" stroke="black" points="270,-36 216,-36 216,0 270,0 270,-36"/>
</g>
<!-- 111669150027&#45;&gt;124554051747 -->
<g id="edge1" class="edge">
<title>111669150027&#45;&gt;124554051747</title>
<path fill="none" stroke="black" d="M35.5,-87.49C41.96,-76.2 51.93,-62.08 64.75,-54 107.42,-27.09 166.36,-20.15 204.57,-18.72"/>
<polygon fill="black" stroke="black" points="204.31,-22.23 214.22,-18.48 204.13,-15.23 204.31,-22.23"/>
<text xml:space="preserve" text-anchor="middle" x="88.38" y="-56.45" font-family="Times,serif" font-size="14.00">DDG: p1</text>
</g>
<!-- 111669150028&#45;&gt;124554051747 -->
<g id="edge2" class="edge">
<title>111669150028&#45;&gt;124554051747</title>
<path fill="none" stroke="black" d="M106.01,-87.44C111.3,-76.42 119.56,-62.63 130.75,-54 152.04,-37.58 181.15,-28.79 204.39,-24.12"/>
<polygon fill="black" stroke="black" points="204.89,-27.59 214.11,-22.37 203.64,-20.7 204.89,-27.59"/>
<text xml:space="preserve" text-anchor="middle" x="154.38" y="-56.45" font-family="Times,serif" font-size="14.00">DDG: p2</text>
</g>
<!-- 111669150029&#45;&gt;124554051747 -->
<g id="edge3" class="edge">
<title>111669150029&#45;&gt;124554051747</title>
<path fill="none" stroke="black" d="M175.33,-87.44C178.58,-76.96 183.85,-63.77 191.75,-54 195.92,-48.85 201.04,-44.15 206.42,-39.99"/>
<polygon fill="black" stroke="black" points="208.21,-43.01 214.35,-34.37 204.17,-37.29 208.21,-43.01"/>
<text xml:space="preserve" text-anchor="middle" x="215.38" y="-56.45" font-family="Times,serif" font-size="14.00">DDG: p3</text>
</g>
<!-- 111669150030&#45;&gt;124554051747 -->
<g id="edge4" class="edge">
<title>111669150030&#45;&gt;124554051747</title>
<path fill="none" stroke="black" d="M243,-87.4C243,-76.01 243,-60.84 243,-47.68"/>
<polygon fill="black" stroke="black" points="246.5,-47.84 243,-37.84 239.5,-47.84 246.5,-47.84"/>
<text xml:space="preserve" text-anchor="middle" x="266.62" y="-56.45" font-family="Times,serif" font-size="14.00">DDG: p4</text>
</g>
<!-- 111669150031&#45;&gt;124554051747 -->
<g id="edge5" class="edge">
<title>111669150031&#45;&gt;124554051747</title>
<path fill="none" stroke="black" d="M309.75,-87.51C305.97,-77.05 300.11,-63.86 292,-54 288.32,-49.52 283.93,-45.34 279.32,-41.54"/>
<polygon fill="black" stroke="black" points="281.59,-38.87 271.51,-35.63 277.37,-44.45 281.59,-38.87"/>
<text xml:space="preserve" text-anchor="middle" x="325.5" y="-56.45" font-family="Times,serif" font-size="14.00">DDG: p5</text>
</g>
<!-- 111669150032&#45;&gt;124554051747 -->
<g id="edge6" class="edge">
<title>111669150032&#45;&gt;124554051747</title>
<path fill="none" stroke="black" d="M379.19,-87.46C373.41,-76.44 364.53,-62.66 353,-54 332.12,-38.32 304,-29.53 281.42,-24.69"/>
<polygon fill="black" stroke="black" points="282.16,-21.26 271.67,-22.78 280.82,-28.13 282.16,-21.26"/>
<text xml:space="preserve" text-anchor="middle" x="391.6" y="-56.45" font-family="Times,serif" font-size="14.00">DDG: p6</text>
</g>
<!-- 111669150033&#45;&gt;124554051747 -->
<g id="edge7" class="edge">
<title>111669150033&#45;&gt;124554051747</title>
<path fill="none" stroke="black" d="M449.75,-87.5C442.79,-76.2 432.2,-62.09 419,-54 376.94,-28.22 319.56,-20.94 281.92,-19.14"/>
<polygon fill="black" stroke="black" points="282.07,-15.64 271.95,-18.79 281.82,-22.64 282.07,-15.64"/>
<text xml:space="preserve" text-anchor="middle" x="459.79" y="-56.45" font-family="Times,serif" font-size="14.00">DDG: p7</text>
</g>
</g>
</svg>
