<?xml version="1.0" encoding="UTF-8" standalone="no"?>
<!DOCTYPE svg PUBLIC "-//W3C//DTD SVG 1.1//EN"
 "http://www.w3.org/Graphics/SVG/1.1/DTD/svg11.dtd">
<!-- Generated by graphviz version 13.1.2 (20250809.0930)
 -->
<!-- Title: to_dict&lt;metaClassAdapter&gt; Pages: 1 -->
<svg width="516pt" height="436pt"
 viewBox="0.00 0.00 516.00 436.00" xmlns="http://www.w3.org/2000/svg" xmlns:xlink="http://www.w3.org/1999/xlink">
<g id="graph0" class="graph" transform="scale(1 1) rotate(0) translate(4 432.25)">
<title>to_dict&lt;metaClassAdapter&gt;</title>
<polygon fill="white" stroke="none" points="-4,4 -4,-432.25 512.25,-432.25 512.25,4 -4,4"/>
<!-- 107374182418 -->
<g id="node1" class="node">
<title>107374182418</title>
<polygon fill="none" stroke="black" points="252.12,-428.25 67.38,-428.25 67.38,-388.75 252.12,-388.75 252.12,-428.25"/>
<text xml:space="preserve" text-anchor="start" x="122.62" y="-410.95" font-family="Times,serif" font-size="14.00">METHOD, 256</text>
<text xml:space="preserve" text-anchor="start" x="75.38" y="-395.2" font-family="Times,serif" font-size="14.00">to_dict&lt;metaClassAdapter&gt;</text>
</g>
<!-- 111669149724 -->
<g id="node3" class="node">
<title>111669149724</title>
<polygon fill="none" stroke="black" points="83.5,-279.5 0,-279.5 0,-240 83.5,-240 83.5,-279.5"/>
<text xml:space="preserve" text-anchor="start" x="8" y="-262.2" font-family="Times,serif" font-size="14.00">PARAM, 256</text>
<text xml:space="preserve" text-anchor="start" x="31.62" y="-246.45" font-family="Times,serif" font-size="14.00">cls</text>
</g>
<!-- 107374182418&#45;&gt;111669149724 -->
<g id="edge5" class="edge">
<title>107374182418&#45;&gt;111669149724</title>
<path fill="none" stroke="black" d="M138.74,-388.27C133.11,-382.79 127.15,-376.69 122,-370.75 99.2,-344.46 76.08,-312.03 60.55,-289.22"/>
<polygon fill="black" stroke="black" points="63.52,-287.36 55.03,-281.03 57.72,-291.27 63.52,-287.36"/>
<text xml:space="preserve" text-anchor="middle" x="138.88" y="-357.45" font-family="Times,serif" font-size="14.00">DDG: </text>
</g>
<!-- 111669149725 -->
<g id="node4" class="node">
<title>111669149725</title>
<polygon fill="none" stroke="black" points="201.5,-337 118,-337 118,-297.5 201.5,-297.5 201.5,-337"/>
<text xml:space="preserve" text-anchor="start" x="126" y="-319.7" font-family="Times,serif" font-size="14.00">PARAM, 256</text>
<text xml:space="preserve" text-anchor="start" x="146.25" y="-303.95" font-family="Times,serif" font-size="14.00">self</text>
</g>
<!-- 107374182418&#45;&gt;111669149725 -->
<g id="edge6" class="edge">
<title>107374182418&#45;&gt;111669149725</title>
<path fill="none" stroke="black" d="M159.75,-388.57C159.75,-377.05 159.75,-362.07 159.75,-348.9"/>
<polygon fill="black" stroke="black" points="163.25,-348.97 159.75,-338.97 156.25,-348.97 163.25,-348.97"/>
<text xml:space="preserve" text-anchor="middle" x="176.62" y="-357.45" font-family="Times,serif" font-size="14.00">DDG: </text>
</g>
<!-- 30064771352 -->
<g id="node6" class="node">
<title>30064771352</title>
<polygon fill="none" stroke="black" points="421.25,-222 54.25,-222 54.25,-182.5 421.25,-182.5 421.25,-222"/>
<text xml:space="preserve" text-anchor="start" x="62.25" y="-204.7" font-family="Times,serif" font-size="14.00">AI_generated_code_1.py:&lt;module&gt;.Student.to_dict, 256</text>
<text xml:space="preserve" text-anchor="start" x="193.88" y="-188.95" font-family="Times,serif" font-size="14.00">to_dict(self)</text>
</g>
<!-- 107374182418&#45;&gt;30064771352 -->
<g id="edge9" class="edge">
<title>107374182418&#45;&gt;30064771352</title>
<path fill="none" stroke="black" d="M182.79,-388.34C188.2,-383.05 193.59,-377.02 197.75,-370.75 225.71,-328.53 234.18,-268.87 236.71,-233.32"/>
<polygon fill="black" stroke="black" points="240.18,-233.94 237.27,-223.75 233.19,-233.53 240.18,-233.94"/>
<text xml:space="preserve" text-anchor="middle" x="243.78" y="-311.82" font-family="Times,serif" font-size="14.00">DDG: </text>
</g>
<!-- 124554051602 -->
<g id="node2" class="node">
<title>124554051602</title>
<polygon fill="none" stroke="black" points="237.5,-39.5 100,-39.5 100,0 237.5,0 237.5,-39.5"/>
<text xml:space="preserve" text-anchor="start" x="108" y="-22.2" font-family="Times,serif" font-size="14.00">METHOD_RETURN, 256</text>
<text xml:space="preserve" text-anchor="start" x="131.62" y="-6.45" font-family="Times,serif" font-size="14.00">typing.Dict</text>
</g>
<!-- 111669149724&#45;&gt;124554051602 -->
<g id="edge2" class="edge">
<title>111669149724&#45;&gt;124554051602</title>
<path fill="none" stroke="black" d="M39.57,-239.72C38.44,-223.96 38.42,-201.2 44.75,-182.5 63.26,-127.82 108.54,-77.13 138.96,-47.56"/>
<polygon fill="black" stroke="black" points="141.18,-50.27 146.01,-40.84 136.36,-45.21 141.18,-50.27"/>
<text xml:space="preserve" text-anchor="middle" x="85.71" y="-151.2" font-family="Times,serif" font-size="14.00">DDG: cls</text>
</g>
<!-- 111669149725&#45;&gt;30064771352 -->
<g id="edge8" class="edge">
<title>111669149725&#45;&gt;30064771352</title>
<path fill="none" stroke="black" d="M155.47,-297.07C152.91,-280.58 151.99,-256.87 163,-240 165.62,-235.98 168.82,-232.39 172.4,-229.17"/>
<polygon fill="black" stroke="black" points="174.33,-232.11 180.16,-223.27 170.08,-226.54 174.33,-232.11"/>
<text xml:space="preserve" text-anchor="middle" x="193.38" y="-254.32" font-family="Times,serif" font-size="14.00">DDG: self</text>
</g>
<!-- 141733920787 -->
<g id="node5" class="node">
<title>141733920787</title>
<polygon fill="none" stroke="black" points="508.25,-130.75 357.25,-130.75 357.25,-91.25 508.25,-91.25 508.25,-130.75"/>
<text xml:space="preserve" text-anchor="start" x="395.62" y="-113.45" font-family="Times,serif" font-size="14.00">RETURN, 256</text>
<text xml:space="preserve" text-anchor="start" x="365.25" y="-97.7" font-family="Times,serif" font-size="14.00">return to_dict(self)</text>
</g>
<!-- 141733920787&#45;&gt;124554051602 -->
<g id="edge1" class="edge">
<title>141733920787&#45;&gt;124554051602</title>
<path fill="none" stroke="black" d="M376.12,-90.85C335.05,-76.97 279.36,-58.14 236.02,-43.49"/>
<polygon fill="black" stroke="black" points="237.32,-40.24 226.72,-40.35 235.08,-46.87 237.32,-40.24"/>
<text xml:space="preserve" text-anchor="middle" x="350.31" y="-59.95" font-family="Times,serif" font-size="14.00">DDG: &lt;RET&gt;</text>
</g>
<!-- 30064771352&#45;&gt;124554051602 -->
<g id="edge3" class="edge">
<title>30064771352&#45;&gt;124554051602</title>
<path fill="none" stroke="black" d="M191.54,-182C170.24,-170.51 147.05,-153.62 135,-130.75 121.3,-104.73 134.52,-72.26 148.22,-49.36"/>
<polygon fill="black" stroke="black" points="151.03,-51.47 153.44,-41.16 145.12,-47.72 151.03,-51.47"/>
<text xml:space="preserve" text-anchor="middle" x="165.38" y="-105.58" font-family="Times,serif" font-size="14.00">DDG: self</text>
</g>
<!-- 30064771352&#45;&gt;124554051602 -->
<g id="edge4" class="edge">
<title>30064771352&#45;&gt;124554051602</title>
<path fill="none" stroke="black" d="M230.47,-182.17C222.1,-160.23 207.94,-123.14 195.75,-91.25 190.61,-77.8 184.91,-62.92 180.08,-50.31"/>
<polygon fill="black" stroke="black" points="183.48,-49.4 176.63,-41.31 176.94,-51.9 183.48,-49.4"/>
<text xml:space="preserve" text-anchor="middle" x="271.27" y="-105.58" font-family="Times,serif" font-size="14.00">DDG: to_dict(self)</text>
</g>
<!-- 30064771352&#45;&gt;141733920787 -->
<g id="edge7" class="edge">
<title>30064771352&#45;&gt;141733920787</title>
<path fill="none" stroke="black" d="M279.58,-182.1C309.14,-168.57 348.97,-150.35 380.6,-135.87"/>
<polygon fill="black" stroke="black" points="381.97,-139.09 389.61,-131.74 379.06,-132.72 381.97,-139.09"/>
<text xml:space="preserve" text-anchor="middle" x="407.68" y="-151.2" font-family="Times,serif" font-size="14.00">DDG: to_dict(self)</text>
</g>
</g>
</svg>
