<?xml version="1.0" encoding="UTF-8" standalone="no"?>
<!DOCTYPE svg PUBLIC "-//W3C//DTD SVG 1.1//EN"
 "http://www.w3.org/Graphics/SVG/1.1/DTD/svg11.dtd">
<!-- Generated by graphviz version 13.1.2 (20250809.0930)
 -->
<!-- Title: &lt;operator&gt;.formatString Pages: 1 -->
<svg width="566pt" height="220pt"
 viewBox="0.00 0.00 566.00 220.00" xmlns="http://www.w3.org/2000/svg" xmlns:xlink="http://www.w3.org/1999/xlink">
<g id="graph0" class="graph" transform="scale(1 1) rotate(0) translate(4 215.5)">
<title>&lt;operator&gt;.formatString</title>
<polygon fill="white" stroke="none" points="-4,4 -4,-215.5 562,-215.5 562,4 -4,4"/>
<!-- 107374182583 -->
<g id="node1" class="node">
<title>107374182583</title>
<polygon fill="none" stroke="black" points="302,-211.5 248,-211.5 248,-175.5 302,-175.5 302,-211.5"/>
</g>
<!-- 111669150072 -->
<g id="node3" class="node">
<title>111669150072</title>
<polygon fill="none" stroke="black" points="54,-123.75 0,-123.75 0,-87.75 54,-87.75 54,-123.75"/>
</g>
<!-- 107374182583&#45;&gt;111669150072 -->
<g id="edge9" class="edge">
<title>107374182583&#45;&gt;111669150072</title>
<path fill="none" stroke="black" d="M247.6,-190.66C211.92,-187.48 148.23,-179.06 98.25,-157.5 83.03,-150.93 67.83,-140.74 55.4,-131.2"/>
<polygon fill="black" stroke="black" points="57.68,-128.54 47.67,-125.05 53.32,-134.02 57.68,-128.54"/>
<text xml:space="preserve" text-anchor="middle" x="115.12" y="-144.2" font-family="Times,serif" font-size="14.00">DDG: </text>
</g>
<!-- 111669150073 -->
<g id="node4" class="node">
<title>111669150073</title>
<polygon fill="none" stroke="black" points="126,-123.75 72,-123.75 72,-87.75 126,-87.75 126,-123.75"/>
</g>
<!-- 107374182583&#45;&gt;111669150073 -->
<g id="edge10" class="edge">
<title>107374182583&#45;&gt;111669150073</title>
<path fill="none" stroke="black" d="M247.58,-187.5C223.32,-182.32 187.49,-172.81 159.25,-157.5 146.7,-150.69 134.36,-141 124.15,-131.9"/>
<polygon fill="black" stroke="black" points="126.6,-129.4 116.89,-125.18 121.85,-134.54 126.6,-129.4"/>
<text xml:space="preserve" text-anchor="middle" x="176.12" y="-144.2" font-family="Times,serif" font-size="14.00">DDG: </text>
</g>
<!-- 111669150074 -->
<g id="node5" class="node">
<title>111669150074</title>
<polygon fill="none" stroke="black" points="198,-123.75 144,-123.75 144,-87.75 198,-87.75 198,-123.75"/>
</g>
<!-- 107374182583&#45;&gt;111669150074 -->
<g id="edge11" class="edge">
<title>107374182583&#45;&gt;111669150074</title>
<path fill="none" stroke="black" d="M247.62,-180.1C236.06,-174.17 222.85,-166.4 212.25,-157.5 203.91,-150.5 196.03,-141.62 189.44,-133.25"/>
<polygon fill="black" stroke="black" points="192.3,-131.24 183.49,-125.36 186.71,-135.45 192.3,-131.24"/>
<text xml:space="preserve" text-anchor="middle" x="229.12" y="-144.2" font-family="Times,serif" font-size="14.00">DDG: </text>
</g>
<!-- 111669150075 -->
<g id="node6" class="node">
<title>111669150075</title>
<polygon fill="none" stroke="black" points="270,-123.75 216,-123.75 216,-87.75 270,-87.75 270,-123.75"/>
</g>
<!-- 107374182583&#45;&gt;111669150075 -->
<g id="edge12" class="edge">
<title>107374182583&#45;&gt;111669150075</title>
<path fill="none" stroke="black" d="M263.97,-175.16C260.82,-169.67 257.6,-163.47 255.25,-157.5 252.46,-150.42 250.18,-142.52 248.38,-135.1"/>
<polygon fill="black" stroke="black" points="251.84,-134.52 246.26,-125.51 245,-136.03 251.84,-134.52"/>
<text xml:space="preserve" text-anchor="middle" x="272.12" y="-144.2" font-family="Times,serif" font-size="14.00">DDG: </text>
</g>
<!-- 111669150076 -->
<g id="node7" class="node">
<title>111669150076</title>
<polygon fill="none" stroke="black" points="342,-123.75 288,-123.75 288,-87.75 342,-87.75 342,-123.75"/>
</g>
<!-- 107374182583&#45;&gt;111669150076 -->
<g id="edge13" class="edge">
<title>107374182583&#45;&gt;111669150076</title>
<path fill="none" stroke="black" d="M283.09,-175.15C288.57,-163.41 295.92,-147.66 302.18,-134.23"/>
<polygon fill="black" stroke="black" points="305.22,-135.99 306.28,-125.45 298.88,-133.03 305.22,-135.99"/>
<text xml:space="preserve" text-anchor="middle" x="315.46" y="-144.2" font-family="Times,serif" font-size="14.00">DDG: </text>
</g>
<!-- 111669150077 -->
<g id="node8" class="node">
<title>111669150077</title>
<polygon fill="none" stroke="black" points="414,-123.75 360,-123.75 360,-87.75 414,-87.75 414,-123.75"/>
</g>
<!-- 107374182583&#45;&gt;111669150077 -->
<g id="edge14" class="edge">
<title>107374182583&#45;&gt;111669150077</title>
<path fill="none" stroke="black" d="M302.38,-178.79C313.25,-172.84 325.61,-165.43 336,-157.5 345.83,-150 355.68,-140.71 364.07,-132.14"/>
<polygon fill="black" stroke="black" points="366.52,-134.65 370.88,-124.99 361.45,-129.82 366.52,-134.65"/>
<text xml:space="preserve" text-anchor="middle" x="370.85" y="-144.2" font-family="Times,serif" font-size="14.00">DDG: </text>
</g>
<!-- 111669150078 -->
<g id="node9" class="node">
<title>111669150078</title>
<polygon fill="none" stroke="black" points="486,-123.75 432,-123.75 432,-87.75 486,-87.75 486,-123.75"/>
</g>
<!-- 107374182583&#45;&gt;111669150078 -->
<g id="edge15" class="edge">
<title>107374182583&#45;&gt;111669150078</title>
<path fill="none" stroke="black" d="M302.05,-187.29C326.46,-181.94 362.88,-172.27 392,-157.5 405.86,-150.47 419.79,-140.5 431.33,-131.26"/>
<polygon fill="black" stroke="black" points="433.38,-134.11 438.85,-125.04 428.92,-128.71 433.38,-134.11"/>
<text xml:space="preserve" text-anchor="middle" x="434.34" y="-144.2" font-family="Times,serif" font-size="14.00">DDG: </text>
</g>
<!-- 111669150079 -->
<g id="node10" class="node">
<title>111669150079</title>
<polygon fill="none" stroke="black" points="558,-123.75 504,-123.75 504,-87.75 558,-87.75 558,-123.75"/>
</g>
<!-- 107374182583&#45;&gt;111669150079 -->
<g id="edge16" class="edge">
<title>107374182583&#45;&gt;111669150079</title>
<path fill="none" stroke="black" d="M302.49,-190.54C338.66,-187.22 403.63,-178.64 455,-157.5 471.17,-150.84 487.51,-140.51 500.87,-130.9"/>
<polygon fill="black" stroke="black" points="502.88,-133.77 508.82,-124.99 498.7,-128.15 502.88,-133.77"/>
<text xml:space="preserve" text-anchor="middle" x="500.66" y="-144.2" font-family="Times,serif" font-size="14.00">DDG: </text>
</g>
<!-- 124554051767 -->
<g id="node2" class="node">
<title>124554051767</title>
<polygon fill="none" stroke="black" points="305,-36 251,-36 251,0 305,0 305,-36"/>
</g>
<!-- 111669150072&#45;&gt;124554051767 -->
<g id="edge1" class="edge">
<title>111669150072&#45;&gt;124554051767</title>
<path fill="none" stroke="black" d="M35.08,-87.37C41.29,-76.02 50.98,-61.88 63.75,-54 92.45,-36.29 185.73,-26.23 239.27,-21.79"/>
<polygon fill="black" stroke="black" points="239.49,-25.28 249.18,-21 238.93,-18.3 239.49,-25.28"/>
<text xml:space="preserve" text-anchor="middle" x="87.38" y="-56.45" font-family="Times,serif" font-size="14.00">DDG: p1</text>
</g>
<!-- 111669150073&#45;&gt;124554051767 -->
<g id="edge2" class="edge">
<title>111669150073&#45;&gt;124554051767</title>
<path fill="none" stroke="black" d="M104.91,-87.67C109.65,-76.46 117.41,-62.37 128.75,-54 160.99,-30.22 206.91,-22.31 239.28,-19.82"/>
<polygon fill="black" stroke="black" points="239.27,-23.33 249.04,-19.22 238.84,-16.34 239.27,-23.33"/>
<text xml:space="preserve" text-anchor="middle" x="152.38" y="-56.45" font-family="Times,serif" font-size="14.00">DDG: p2</text>
</g>
<!-- 111669150074&#45;&gt;124554051767 -->
<g id="edge3" class="edge">
<title>111669150074&#45;&gt;124554051767</title>
<path fill="none" stroke="black" d="M173.72,-87.29C176.23,-76.49 180.96,-63 189.75,-54 203.16,-40.26 222.64,-31.78 239.89,-26.62"/>
<polygon fill="black" stroke="black" points="240.6,-30.05 249.35,-24.07 238.79,-23.29 240.6,-30.05"/>
<text xml:space="preserve" text-anchor="middle" x="213.38" y="-56.45" font-family="Times,serif" font-size="14.00">DDG: p3</text>
</g>
<!-- 111669150075&#45;&gt;124554051767 -->
<g id="edge4" class="edge">
<title>111669150075&#45;&gt;124554051767</title>
<path fill="none" stroke="black" d="M240.63,-87.65C239.94,-77.49 240.32,-64.57 244.75,-54 246.03,-50.96 247.7,-48.02 249.61,-45.23"/>
<polygon fill="black" stroke="black" points="252.27,-47.51 255.87,-37.55 246.84,-43.09 252.27,-47.51"/>
<text xml:space="preserve" text-anchor="middle" x="268.38" y="-56.45" font-family="Times,serif" font-size="14.00">DDG: p4</text>
</g>
<!-- 111669150076&#45;&gt;124554051767 -->
<g id="edge5" class="edge">
<title>111669150076&#45;&gt;124554051767</title>
<path fill="none" stroke="black" d="M307.51,-87.4C302.5,-75.77 295.78,-60.22 290.03,-46.88"/>
<polygon fill="black" stroke="black" points="293.25,-45.51 286.08,-37.72 286.82,-48.29 293.25,-45.51"/>
<text xml:space="preserve" text-anchor="middle" x="323.44" y="-56.45" font-family="Times,serif" font-size="14.00">DDG: p5</text>
</g>
<!-- 111669150077&#45;&gt;124554051767 -->
<g id="edge6" class="edge">
<title>111669150077&#45;&gt;124554051767</title>
<path fill="none" stroke="black" d="M377.81,-87.51C371.41,-76.8 362.07,-63.33 351,-54 340.61,-45.24 327.66,-38.11 315.56,-32.62"/>
<polygon fill="black" stroke="black" points="317.2,-29.51 306.62,-28.81 314.45,-35.95 317.2,-29.51"/>
<text xml:space="preserve" text-anchor="middle" x="388.64" y="-56.45" font-family="Times,serif" font-size="14.00">DDG: p6</text>
</g>
<!-- 111669150078&#45;&gt;124554051767 -->
<g id="edge7" class="edge">
<title>111669150078&#45;&gt;124554051767</title>
<path fill="none" stroke="black" d="M448.63,-87.72C440.96,-76.53 429.52,-62.44 416,-54 385.78,-35.13 345.84,-26.42 316.71,-22.4"/>
<polygon fill="black" stroke="black" points="317.19,-18.93 306.84,-21.18 316.33,-25.88 317.19,-18.93"/>
<text xml:space="preserve" text-anchor="middle" x="457.54" y="-56.45" font-family="Times,serif" font-size="14.00">DDG: p7</text>
</g>
<!-- 111669150079&#45;&gt;124554051767 -->
<g id="edge8" class="edge">
<title>111669150079&#45;&gt;124554051767</title>
<path fill="none" stroke="black" d="M519.86,-87.37C511.64,-76.01 499.39,-61.88 485,-54 431.82,-24.88 360.34,-18.83 316.8,-18.16"/>
<polygon fill="black" stroke="black" points="316.84,-14.66 306.82,-18.1 316.8,-21.66 316.84,-14.66"/>
<text xml:space="preserve" text-anchor="middle" x="527.74" y="-56.45" font-family="Times,serif" font-size="14.00">DDG: p8</text>
</g>
</g>
</svg>
