<?xml version="1.0" encoding="UTF-8" standalone="no"?>
<!DOCTYPE svg PUBLIC "-//W3C//DTD SVG 1.1//EN"
 "http://www.w3.org/Graphics/SVG/1.1/DTD/svg11.dtd">
<!-- Generated by graphviz version 13.1.2 (20250809.0930)
 -->
<!-- Title: &lt;operator&gt;.lessEqualsThan Pages: 1 -->
<svg width="139pt" height="220pt"
 viewBox="0.00 0.00 139.00 220.00" xmlns="http://www.w3.org/2000/svg" xmlns:xlink="http://www.w3.org/1999/xlink">
<g id="graph0" class="graph" transform="scale(1 1) rotate(0) translate(4 215.5)">
<title>&lt;operator&gt;.lessEqualsThan</title>
<polygon fill="white" stroke="none" points="-4,4 -4,-215.5 135.47,-215.5 135.47,4 -4,4"/>
<!-- 107374182587 -->
<g id="node1" class="node">
<title>107374182587</title>
<polygon fill="none" stroke="black" points="89,-211.5 35,-211.5 35,-175.5 89,-175.5 89,-211.5"/>
</g>
<!-- 111669150087 -->
<g id="node3" class="node">
<title>111669150087</title>
<polygon fill="none" stroke="black" points="54,-123.75 0,-123.75 0,-87.75 54,-87.75 54,-123.75"/>
</g>
<!-- 107374182587&#45;&gt;111669150087 -->
<g id="edge3" class="edge">
<title>107374182587&#45;&gt;111669150087</title>
<path fill="none" stroke="black" d="M49.2,-175.35C45.57,-169.87 41.89,-163.62 39.25,-157.5 36.24,-150.51 33.88,-142.64 32.08,-135.22"/>
<polygon fill="black" stroke="black" points="35.54,-134.65 30,-125.61 28.7,-136.13 35.54,-134.65"/>
<text xml:space="preserve" text-anchor="middle" x="56.12" y="-144.2" font-family="Times,serif" font-size="14.00">DDG: </text>
</g>
<!-- 111669150088 -->
<g id="node4" class="node">
<title>111669150088</title>
<polygon fill="none" stroke="black" points="126,-123.75 72,-123.75 72,-87.75 126,-87.75 126,-123.75"/>
</g>
<!-- 107374182587&#45;&gt;111669150088 -->
<g id="edge4" class="edge">
<title>107374182587&#45;&gt;111669150088</title>
<path fill="none" stroke="black" d="M69.49,-175.15C74.5,-163.52 81.22,-147.97 86.97,-134.63"/>
<polygon fill="black" stroke="black" points="90.18,-136.04 90.92,-125.47 83.75,-133.26 90.18,-136.04"/>
<text xml:space="preserve" text-anchor="middle" x="100.69" y="-144.2" font-family="Times,serif" font-size="14.00">DDG: </text>
</g>
<!-- 124554051771 -->
<g id="node2" class="node">
<title>124554051771</title>
<polygon fill="none" stroke="black" points="90,-36 36,-36 36,0 90,0 90,-36"/>
</g>
<!-- 111669150087&#45;&gt;124554051771 -->
<g id="edge1" class="edge">
<title>111669150087&#45;&gt;124554051771</title>
<path fill="none" stroke="black" d="M24.58,-87.63C23.86,-77.46 24.24,-64.54 28.75,-54 30.11,-50.82 31.91,-47.77 33.96,-44.88"/>
<polygon fill="black" stroke="black" points="36.46,-47.34 40.22,-37.44 31.11,-42.83 36.46,-47.34"/>
<text xml:space="preserve" text-anchor="middle" x="52.38" y="-56.45" font-family="Times,serif" font-size="14.00">DDG: p1</text>
</g>
<!-- 111669150088&#45;&gt;124554051771 -->
<g id="edge2" class="edge">
<title>111669150088&#45;&gt;124554051771</title>
<path fill="none" stroke="black" d="M91.71,-87.4C86.84,-75.77 80.3,-60.22 74.7,-46.88"/>
<polygon fill="black" stroke="black" points="77.96,-45.59 70.86,-37.72 71.5,-48.3 77.96,-45.59"/>
<text xml:space="preserve" text-anchor="middle" x="107.85" y="-56.45" font-family="Times,serif" font-size="14.00">DDG: p2</text>
</g>
</g>
</svg>
