<?xml version="1.0" encoding="UTF-8" standalone="no"?>
<!DOCTYPE svg PUBLIC "-//W3C//DTD SVG 1.1//EN"
 "http://www.w3.org/Graphics/SVG/1.1/DTD/svg11.dtd">
<!-- Generated by graphviz version 13.1.2 (20250809.0930)
 -->
<!-- Title: &lt;operator&gt;.alloc Pages: 1 -->
<svg width="82pt" height="220pt"
 viewBox="0.00 0.00 82.00 220.00" xmlns="http://www.w3.org/2000/svg" xmlns:xlink="http://www.w3.org/1999/xlink">
<g id="graph0" class="graph" transform="scale(1 1) rotate(0) translate(4 215.5)">
<title>&lt;operator&gt;.alloc</title>
<polygon fill="white" stroke="none" points="-4,4 -4,-215.5 78.25,-215.5 78.25,4 -4,4"/>
<!-- 107374182589 -->
<g id="node1" class="node">
<title>107374182589</title>
<polygon fill="none" stroke="black" points="54,-211.5 0,-211.5 0,-175.5 54,-175.5 54,-211.5"/>
</g>
<!-- 111669150090 -->
<g id="node3" class="node">
<title>111669150090</title>
<polygon fill="none" stroke="black" points="54,-123.75 0,-123.75 0,-87.75 54,-87.75 54,-123.75"/>
</g>
<!-- 107374182589&#45;&gt;111669150090 -->
<g id="edge2" class="edge">
<title>107374182589&#45;&gt;111669150090</title>
<path fill="none" stroke="black" d="M27,-175.15C27,-163.76 27,-148.59 27,-135.43"/>
<polygon fill="black" stroke="black" points="30.5,-135.59 27,-125.59 23.5,-135.59 30.5,-135.59"/>
<text xml:space="preserve" text-anchor="middle" x="43.88" y="-144.2" font-family="Times,serif" font-size="14.00">DDG: </text>
</g>
<!-- 124554051773 -->
<g id="node2" class="node">
<title>124554051773</title>
<polygon fill="none" stroke="black" points="54,-36 0,-36 0,0 54,0 54,-36"/>
</g>
<!-- 111669150090&#45;&gt;124554051773 -->
<g id="edge1" class="edge">
<title>111669150090&#45;&gt;124554051773</title>
<path fill="none" stroke="black" d="M27,-87.4C27,-76.01 27,-60.84 27,-47.68"/>
<polygon fill="black" stroke="black" points="30.5,-47.84 27,-37.84 23.5,-47.84 30.5,-47.84"/>
<text xml:space="preserve" text-anchor="middle" x="50.62" y="-56.45" font-family="Times,serif" font-size="14.00">DDG: p0</text>
</g>
</g>
</svg>
