<?xml version="1.0" encoding="UTF-8" standalone="no"?>
<!DOCTYPE svg PUBLIC "-//W3C//DTD SVG 1.1//EN"
 "http://www.w3.org/Graphics/SVG/1.1/DTD/svg11.dtd">
<!-- Generated by graphviz version 13.1.2 (20250809.0930)
 -->
<!-- Title: &lt;body&gt; Pages: 1 -->
<svg width="2349pt" height="361pt"
 viewBox="0.00 0.00 2349.00 361.00" xmlns="http://www.w3.org/2000/svg" xmlns:xlink="http://www.w3.org/1999/xlink">
<g id="graph0" class="graph" transform="scale(1 1) rotate(0) translate(4 356.75)">
<title>&lt;body&gt;</title>
<polygon fill="white" stroke="none" points="-4,4 -4,-356.75 2345.07,-356.75 2345.07,4 -4,4"/>
<!-- 107374182419 -->
<g id="node1" class="node">
<title>107374182419</title>
<polygon fill="none" stroke="black" points="1256.2,-352.75 1165.95,-352.75 1165.95,-313.25 1256.2,-313.25 1256.2,-352.75"/>
<text xml:space="preserve" text-anchor="start" x="1173.95" y="-335.45" font-family="Times,serif" font-size="14.00">METHOD, 279</text>
<text xml:space="preserve" text-anchor="start" x="1190.82" y="-319.7" font-family="Times,serif" font-size="14.00">&lt;body&gt;</text>
</g>
<!-- 111669149726 -->
<g id="node3" class="node">
<title>111669149726</title>
<polygon fill="none" stroke="black" points="874.82,-188.25 791.32,-188.25 791.32,-148.75 874.82,-148.75 874.82,-188.25"/>
<text xml:space="preserve" text-anchor="start" x="799.32" y="-170.95" font-family="Times,serif" font-size="14.00">PARAM, 279</text>
<text xml:space="preserve" text-anchor="start" x="822.95" y="-155.2" font-family="Times,serif" font-size="14.00">cls</text>
</g>
<!-- 107374182419&#45;&gt;111669149726 -->
<g id="edge13" class="edge">
<title>107374182419&#45;&gt;111669149726</title>
<path fill="none" stroke="black" d="M1165.52,-332.27C1093.91,-331.71 959.61,-326.4 925.32,-295.25 895.3,-267.97 929.99,-238.27 905.07,-206.25 899.74,-199.4 892.78,-193.71 885.29,-189.02"/>
<polygon fill="black" stroke="black" points="886.99,-185.97 876.55,-184.16 883.59,-192.08 886.99,-185.97"/>
<text xml:space="preserve" text-anchor="middle" x="942.2" y="-281.95" font-family="Times,serif" font-size="14.00">DDG: </text>
</g>
<!-- 90194313311 -->
<g id="node4" class="node">
<title>90194313311</title>
<polygon fill="none" stroke="black" points="1590.82,-253.62 1345.32,-253.62 1345.32,-214.12 1590.82,-214.12 1590.82,-253.62"/>
<text xml:space="preserve" text-anchor="start" x="1427.57" y="-236.32" font-family="Times,serif" font-size="14.00">LITERAL, 280</text>
<text xml:space="preserve" text-anchor="start" x="1353.32" y="-220.57" font-family="Times,serif" font-size="14.00">&quot;&quot;&quot;Represents a catalog course.&quot;&quot;&quot;</text>
</g>
<!-- 107374182419&#45;&gt;90194313311 -->
<g id="edge14" class="edge">
<title>107374182419&#45;&gt;90194313311</title>
<path fill="none" stroke="black" d="M1256.43,-314.86C1298.27,-299.05 1360.73,-275.44 1406.96,-257.97"/>
<polygon fill="black" stroke="black" points="1407.92,-261.35 1416.04,-254.54 1405.44,-254.8 1407.92,-261.35"/>
<text xml:space="preserve" text-anchor="middle" x="1364.15" y="-281.95" font-family="Times,serif" font-size="14.00">DDG: </text>
</g>
<!-- 68719477016 -->
<g id="node5" class="node">
<title>68719477016</title>
<polygon fill="none" stroke="black" points="1725.7,-253.62 1608.45,-253.62 1608.45,-214.12 1725.7,-214.12 1725.7,-253.62"/>
<text xml:space="preserve" text-anchor="start" x="1616.45" y="-236.32" font-family="Times,serif" font-size="14.00">IDENTIFIER, 281</text>
<text xml:space="preserve" text-anchor="start" x="1629.95" y="-220.57" font-family="Times,serif" font-size="14.00">course_code</text>
</g>
<!-- 107374182419&#45;&gt;68719477016 -->
<g id="edge15" class="edge">
<title>107374182419&#45;&gt;68719477016</title>
<path fill="none" stroke="black" d="M1256.67,-326.73C1330.02,-317.58 1478.33,-296.35 1600.07,-261.5 1603.97,-260.38 1607.96,-259.12 1611.95,-257.77"/>
<polygon fill="black" stroke="black" points="1612.78,-261.19 1621.02,-254.54 1610.43,-254.6 1612.78,-261.19"/>
<text xml:space="preserve" text-anchor="middle" x="1543.74" y="-281.95" font-family="Times,serif" font-size="14.00">DDG: </text>
</g>
<!-- 68719477017 -->
<g id="node6" class="node">
<title>68719477017</title>
<polygon fill="none" stroke="black" points="1860.7,-253.62 1743.45,-253.62 1743.45,-214.12 1860.7,-214.12 1860.7,-253.62"/>
<text xml:space="preserve" text-anchor="start" x="1751.45" y="-236.32" font-family="Times,serif" font-size="14.00">IDENTIFIER, 282</text>
<text xml:space="preserve" text-anchor="start" x="1785.2" y="-220.57" font-family="Times,serif" font-size="14.00">title</text>
</g>
<!-- 107374182419&#45;&gt;68719477017 -->
<g id="edge16" class="edge">
<title>107374182419&#45;&gt;68719477017</title>
<path fill="none" stroke="black" d="M1256.56,-330.55C1348.68,-326.6 1563.19,-312.25 1735.07,-261.5 1738.79,-260.4 1742.58,-259.18 1746.38,-257.88"/>
<polygon fill="black" stroke="black" points="1747.4,-261.24 1755.63,-254.57 1745.04,-254.65 1747.4,-261.24"/>
<text xml:space="preserve" text-anchor="middle" x="1682.51" y="-281.95" font-family="Times,serif" font-size="14.00">DDG: </text>
</g>
<!-- 68719477018 -->
<g id="node7" class="node">
<title>68719477018</title>
<polygon fill="none" stroke="black" points="895.7,-253.62 778.45,-253.62 778.45,-214.12 895.7,-214.12 895.7,-253.62"/>
<text xml:space="preserve" text-anchor="start" x="786.45" y="-236.32" font-family="Times,serif" font-size="14.00">IDENTIFIER, 283</text>
<text xml:space="preserve" text-anchor="start" x="813.45" y="-220.57" font-family="Times,serif" font-size="14.00">credits</text>
</g>
<!-- 107374182419&#45;&gt;68719477018 -->
<g id="edge17" class="edge">
<title>107374182419&#45;&gt;68719477018</title>
<path fill="none" stroke="black" d="M1165.45,-332.34C1083.51,-332.11 915.56,-327.56 868.32,-295.25 857.69,-287.98 850.45,-275.93 845.63,-264.51"/>
<polygon fill="black" stroke="black" points="849,-263.51 842.25,-255.34 842.43,-265.93 849,-263.51"/>
<text xml:space="preserve" text-anchor="middle" x="885.2" y="-281.95" font-family="Times,serif" font-size="14.00">DDG: </text>
</g>
<!-- 30064771357 -->
<g id="node9" class="node">
<title>30064771357</title>
<polygon fill="none" stroke="black" points="1041.82,-130.75 850.32,-130.75 850.32,-91.25 1041.82,-91.25 1041.82,-130.75"/>
<text xml:space="preserve" text-anchor="start" x="858.32" y="-113.45" font-family="Times,serif" font-size="14.00">&lt;operator&gt;.assignment, 285</text>
<text xml:space="preserve" text-anchor="start" x="902.2" y="-97.7" font-family="Times,serif" font-size="14.00">active = True</text>
</g>
<!-- 107374182419&#45;&gt;30064771357 -->
<g id="edge19" class="edge">
<title>107374182419&#45;&gt;30064771357</title>
<path fill="none" stroke="black" d="M1165.57,-329.15C1118.56,-323.67 1046.56,-307.72 1006.32,-261.5 976.05,-226.72 959.79,-174.78 952.04,-142.18"/>
<polygon fill="black" stroke="black" points="955.49,-141.58 949.89,-132.59 948.66,-143.11 955.49,-141.58"/>
<text xml:space="preserve" text-anchor="middle" x="1023.2" y="-228.45" font-family="Times,serif" font-size="14.00">DDG: </text>
</g>
<!-- 30064771376 -->
<g id="node10" class="node">
<title>30064771376</title>
<polygon fill="none" stroke="black" points="1251.82,-130.75 1060.32,-130.75 1060.32,-91.25 1251.82,-91.25 1251.82,-130.75"/>
<text xml:space="preserve" text-anchor="start" x="1068.32" y="-113.45" font-family="Times,serif" font-size="14.00">&lt;operator&gt;.assignment, 287</text>
<text xml:space="preserve" text-anchor="start" x="1068.32" y="-97.7" font-family="Times,serif" font-size="14.00">to_dict = def to_dict(...)</text>
</g>
<!-- 107374182419&#45;&gt;30064771376 -->
<g id="edge20" class="edge">
<title>107374182419&#45;&gt;30064771376</title>
<path fill="none" stroke="black" d="M1165.76,-325.5C1128.25,-317.46 1077.22,-299.8 1052.32,-261.5 1023.57,-217.27 1076.48,-167.13 1116.74,-137.61"/>
<polygon fill="black" stroke="black" points="1118.53,-140.63 1124.64,-131.98 1114.47,-134.93 1118.53,-140.63"/>
<text xml:space="preserve" text-anchor="middle" x="1069.2" y="-228.45" font-family="Times,serif" font-size="14.00">DDG: </text>
</g>
<!-- 68719477021 -->
<g id="node12" class="node">
<title>68719477021</title>
<polygon fill="none" stroke="black" points="2090.95,-261.5 1879.2,-261.5 1879.2,-206.25 2090.95,-206.25 2090.95,-261.5"/>
<text xml:space="preserve" text-anchor="start" x="1934.45" y="-244.2" font-family="Times,serif" font-size="14.00">IDENTIFIER, 284</text>
<text xml:space="preserve" text-anchor="start" x="1968.2" y="-228.45" font-family="Times,serif" font-size="14.00">field</text>
<text xml:space="preserve" text-anchor="start" x="1887.2" y="-212.7" font-family="Times,serif" font-size="14.00">field(default_factory = list)</text>
</g>
<!-- 107374182419&#45;&gt;68719477021 -->
<g id="edge23" class="edge">
<title>107374182419&#45;&gt;68719477021</title>
<path fill="none" stroke="black" d="M1256.38,-330.51C1343.34,-327.22 1539.52,-317.8 1703.07,-295.25 1774.57,-285.39 1794.26,-278.24 1867.66,-262.03"/>
<polygon fill="black" stroke="black" points="1868.39,-265.45 1877.41,-259.9 1866.9,-258.62 1868.39,-265.45"/>
<text xml:space="preserve" text-anchor="middle" x="1806.6" y="-281.95" font-family="Times,serif" font-size="14.00">DDG: </text>
</g>
<!-- 30064771355 -->
<g id="node13" class="node">
<title>30064771355</title>
<polygon fill="none" stroke="black" points="759.95,-253.62 548.2,-253.62 548.2,-214.12 759.95,-214.12 759.95,-253.62"/>
<text xml:space="preserve" text-anchor="start" x="620.32" y="-236.32" font-family="Times,serif" font-size="14.00">field, 284</text>
<text xml:space="preserve" text-anchor="start" x="556.2" y="-220.57" font-family="Times,serif" font-size="14.00">field(default_factory = list)</text>
</g>
<!-- 107374182419&#45;&gt;30064771355 -->
<g id="edge25" class="edge">
<title>107374182419&#45;&gt;30064771355</title>
<path fill="none" stroke="black" d="M1165.47,-331.63C1091.33,-330.17 940.46,-323.6 816.32,-295.25 778.55,-286.62 737.67,-271.37 706.39,-258.36"/>
<polygon fill="black" stroke="black" points="708.14,-255.3 697.57,-254.63 705.42,-261.75 708.14,-255.3"/>
<text xml:space="preserve" text-anchor="middle" x="833.2" y="-281.95" font-family="Times,serif" font-size="14.00">DDG: </text>
</g>
<!-- 68719477047 -->
<g id="node14" class="node">
<title>68719477047</title>
<polygon fill="none" stroke="black" points="2341.07,-261.5 2109.07,-261.5 2109.07,-206.25 2341.07,-206.25 2341.07,-261.5"/>
<text xml:space="preserve" text-anchor="start" x="2174.45" y="-244.2" font-family="Times,serif" font-size="14.00">IDENTIFIER, 296</text>
<text xml:space="preserve" text-anchor="start" x="2184.57" y="-228.45" font-family="Times,serif" font-size="14.00">staticmethod</text>
<text xml:space="preserve" text-anchor="start" x="2117.07" y="-212.7" font-family="Times,serif" font-size="14.00">staticmethod(def from_dict(...))</text>
</g>
<!-- 107374182419&#45;&gt;68719477047 -->
<g id="edge27" class="edge">
<title>107374182419&#45;&gt;68719477047</title>
<path fill="none" stroke="black" d="M1256.37,-330.39C1358.42,-326.54 1614.04,-315.53 1827.07,-295.25 1880.73,-290.14 1893.84,-286.15 1947.32,-279.5 2011.71,-271.49 2030.72,-272.5 2097.55,-261.84"/>
<polygon fill="black" stroke="black" points="2097.9,-265.33 2107.21,-260.27 2096.77,-258.42 2097.9,-265.33"/>
<text xml:space="preserve" text-anchor="middle" x="1964.2" y="-281.95" font-family="Times,serif" font-size="14.00">DDG: </text>
</g>
<!-- 30064771387 -->
<g id="node15" class="node">
<title>30064771387</title>
<polygon fill="none" stroke="black" points="1327.07,-253.62 1095.07,-253.62 1095.07,-214.12 1327.07,-214.12 1327.07,-253.62"/>
<text xml:space="preserve" text-anchor="start" x="1153.7" y="-236.32" font-family="Times,serif" font-size="14.00">staticmethod, 296</text>
<text xml:space="preserve" text-anchor="start" x="1103.07" y="-220.57" font-family="Times,serif" font-size="14.00">staticmethod(def from_dict(...))</text>
</g>
<!-- 107374182419&#45;&gt;30064771387 -->
<g id="edge28" class="edge">
<title>107374182419&#45;&gt;30064771387</title>
<path fill="none" stroke="black" d="M1211.07,-312.81C1211.07,-299.24 1211.07,-280.77 1211.07,-265.22"/>
<polygon fill="black" stroke="black" points="1214.57,-265.54 1211.07,-255.54 1207.57,-265.54 1214.57,-265.54"/>
<text xml:space="preserve" text-anchor="middle" x="1227.95" y="-281.95" font-family="Times,serif" font-size="14.00">DDG: </text>
</g>
<!-- 124554051603 -->
<g id="node2" class="node">
<title>124554051603</title>
<polygon fill="none" stroke="black" points="951.82,-39.5 814.32,-39.5 814.32,0 951.82,0 951.82,-39.5"/>
<text xml:space="preserve" text-anchor="start" x="822.32" y="-22.2" font-family="Times,serif" font-size="14.00">METHOD_RETURN, 279</text>
<text xml:space="preserve" text-anchor="start" x="872.95" y="-6.45" font-family="Times,serif" font-size="14.00">ANY</text>
</g>
<!-- 111669149726&#45;&gt;124554051603 -->
<g id="edge1" class="edge">
<title>111669149726&#45;&gt;124554051603</title>
<path fill="none" stroke="black" d="M801.35,-148.52C795.58,-143.51 790.35,-137.57 787.07,-130.75 779.46,-114.93 783.64,-108.47 787.07,-91.25 790.25,-75.32 789.75,-69.14 801.07,-57.5 805.36,-53.1 810.26,-49.18 815.5,-45.7"/>
<polygon fill="black" stroke="black" points="817.12,-48.81 823.91,-40.68 813.53,-42.8 817.12,-48.81"/>
<text xml:space="preserve" text-anchor="middle" x="814.07" y="-105.58" font-family="Times,serif" font-size="14.00">DDG: cls</text>
</g>
<!-- 30064771356 -->
<g id="node8" class="node">
<title>30064771356</title>
<polygon fill="none" stroke="black" points="433.95,-130.75 114.2,-130.75 114.2,-91.25 433.95,-91.25 433.95,-130.75"/>
<text xml:space="preserve" text-anchor="start" x="186.32" y="-113.45" font-family="Times,serif" font-size="14.00">&lt;operator&gt;.assignment, 284</text>
<text xml:space="preserve" text-anchor="start" x="122.2" y="-97.7" font-family="Times,serif" font-size="14.00">prerequisites = field(default_factory = list)</text>
</g>
<!-- 30064771356&#45;&gt;124554051603 -->
<g id="edge2" class="edge">
<title>30064771356&#45;&gt;124554051603</title>
<path fill="none" stroke="black" d="M113.98,-105.72C64.74,-100.8 19.32,-91.28 3.57,-73.25 -1.03,-67.98 -1.27,-62.55 3.57,-57.5 30.99,-28.92 590.77,-22.53 802.71,-21.13"/>
<polygon fill="black" stroke="black" points="802.56,-24.63 812.53,-21.07 802.51,-17.63 802.56,-24.63"/>
<text xml:space="preserve" text-anchor="middle" x="64.32" y="-59.95" font-family="Times,serif" font-size="14.00">DDG: prerequisites</text>
</g>
<!-- 30064771356&#45;&gt;124554051603 -->
<g id="edge4" class="edge">
<title>30064771356&#45;&gt;124554051603</title>
<path fill="none" stroke="black" d="M163.03,-90.76C144.14,-82.97 134.57,-72.22 148.57,-57.5 170.82,-34.11 616.43,-24.74 802.52,-21.84"/>
<polygon fill="black" stroke="black" points="802.4,-25.34 812.34,-21.69 802.29,-18.34 802.4,-25.34"/>
<text xml:space="preserve" text-anchor="middle" x="263.32" y="-59.95" font-family="Times,serif" font-size="14.00">DDG: field(default_factory = list)</text>
</g>
<!-- 30064771356&#45;&gt;124554051603 -->
<g id="edge5" class="edge">
<title>30064771356&#45;&gt;124554051603</title>
<path fill="none" stroke="black" d="M336.45,-90.82C350.42,-85.75 364.98,-79.82 378.07,-73.25 389.31,-67.61 389.69,-61.61 401.57,-57.5 473.45,-32.61 685.35,-24.54 802.66,-21.95"/>
<polygon fill="black" stroke="black" points="802.62,-25.45 812.54,-21.74 802.47,-18.46 802.62,-25.45"/>
<text xml:space="preserve" text-anchor="middle" x="570.32" y="-59.95" font-family="Times,serif" font-size="14.00">DDG: prerequisites = field(default_factory = list)</text>
</g>
<!-- 30064771357&#45;&gt;124554051603 -->
<g id="edge6" class="edge">
<title>30064771357&#45;&gt;124554051603</title>
<path fill="none" stroke="black" d="M945,-90.98C943.64,-80.39 940.64,-67.4 934.07,-57.5 931.63,-53.82 928.69,-50.38 925.46,-47.21"/>
<polygon fill="black" stroke="black" points="927.98,-44.76 918.13,-40.85 923.39,-50.04 927.98,-44.76"/>
<text xml:space="preserve" text-anchor="middle" x="978" y="-59.95" font-family="Times,serif" font-size="14.00">DDG: active</text>
</g>
<!-- 30064771357&#45;&gt;124554051603 -->
<g id="edge7" class="edge">
<title>30064771357&#45;&gt;124554051603</title>
<path fill="none" stroke="black" d="M850.06,-93.18C830.87,-87.86 814.71,-81.24 808.57,-73.25 800.51,-62.75 805.67,-53.51 816.27,-45.82"/>
<polygon fill="black" stroke="black" points="817.8,-48.99 824.5,-40.79 814.15,-43.02 817.8,-48.99"/>
<text xml:space="preserve" text-anchor="middle" x="869.32" y="-59.95" font-family="Times,serif" font-size="14.00">DDG: active = True</text>
</g>
<!-- 30064771376&#45;&gt;124554051603 -->
<g id="edge8" class="edge">
<title>30064771376&#45;&gt;124554051603</title>
<path fill="none" stroke="black" d="M1100.46,-90.84C1085.32,-85.39 1068.99,-79.28 1054.07,-73.25 1038.26,-66.85 1035.14,-63.24 1019.07,-57.5 1001.25,-51.13 981.78,-45.25 963.28,-40.15"/>
<polygon fill="black" stroke="black" points="964.25,-36.79 953.68,-37.55 962.42,-43.54 964.25,-36.79"/>
<text xml:space="preserve" text-anchor="middle" x="1094.57" y="-59.95" font-family="Times,serif" font-size="14.00">DDG: to_dict</text>
</g>
<!-- 30064771376&#45;&gt;124554051603 -->
<g id="edge9" class="edge">
<title>30064771376&#45;&gt;124554051603</title>
<path fill="none" stroke="black" d="M1153.29,-90.88C1150.6,-79.44 1145.33,-65.58 1135.07,-57.5 1109.03,-36.97 1027,-27.88 963.52,-23.88"/>
<polygon fill="black" stroke="black" points="964.01,-20.4 953.82,-23.3 963.59,-27.39 964.01,-20.4"/>
<text xml:space="preserve" text-anchor="middle" x="1251.65" y="-59.95" font-family="Times,serif" font-size="14.00">DDG: to_dict = def to_dict(...)</text>
</g>
<!-- 30064771388 -->
<g id="node11" class="node">
<title>30064771388</title>
<polygon fill="none" stroke="black" points="1622.57,-130.75 1309.57,-130.75 1309.57,-91.25 1622.57,-91.25 1622.57,-130.75"/>
<text xml:space="preserve" text-anchor="start" x="1378.32" y="-113.45" font-family="Times,serif" font-size="14.00">&lt;operator&gt;.assignment, 297</text>
<text xml:space="preserve" text-anchor="start" x="1317.57" y="-97.7" font-family="Times,serif" font-size="14.00">from_dict = staticmethod(def from_dict(...))</text>
</g>
<!-- 30064771388&#45;&gt;124554051603 -->
<g id="edge10" class="edge">
<title>30064771388&#45;&gt;124554051603</title>
<path fill="none" stroke="black" d="M1426.41,-90.91C1414.83,-85.28 1402.17,-79.07 1390.57,-73.25 1376.94,-66.41 1374.75,-61.67 1360.07,-57.5 1287.78,-36.96 1079.32,-27.1 963.34,-23.08"/>
<polygon fill="black" stroke="black" points="963.7,-19.59 953.58,-22.75 963.46,-26.58 963.7,-19.59"/>
<text xml:space="preserve" text-anchor="middle" x="1437.82" y="-59.95" font-family="Times,serif" font-size="14.00">DDG: from_dict</text>
</g>
<!-- 30064771388&#45;&gt;124554051603 -->
<g id="edge11" class="edge">
<title>30064771388&#45;&gt;124554051603</title>
<path fill="none" stroke="black" d="M1481.79,-90.78C1488.75,-79.87 1493.64,-66.61 1485.07,-57.5 1467.48,-38.8 1123.37,-27.18 963.47,-22.77"/>
<polygon fill="black" stroke="black" points="963.89,-19.28 953.8,-22.51 963.7,-26.28 963.89,-19.28"/>
<text xml:space="preserve" text-anchor="middle" x="1614.5" y="-59.95" font-family="Times,serif" font-size="14.00">DDG: staticmethod(def from_dict(...))</text>
</g>
<!-- 30064771388&#45;&gt;124554051603 -->
<g id="edge12" class="edge">
<title>30064771388&#45;&gt;124554051603</title>
<path fill="none" stroke="black" d="M1623.01,-100.49C1696.84,-92.99 1764.53,-79.9 1743.07,-57.5 1716.36,-29.62 1172.04,-22.8 963.45,-21.21"/>
<polygon fill="black" stroke="black" points="963.52,-17.71 953.5,-21.14 963.47,-24.71 963.52,-17.71"/>
<text xml:space="preserve" text-anchor="middle" x="1912.47" y="-59.95" font-family="Times,serif" font-size="14.00">DDG: from_dict = staticmethod(def from_dict(...))</text>
</g>
<!-- 30064771355&#45;&gt;124554051603 -->
<g id="edge3" class="edge">
<title>30064771355&#45;&gt;124554051603</title>
<path fill="none" stroke="black" d="M658.25,-214.03C665.68,-184.47 683.73,-126.91 718.32,-91.25 741.28,-67.58 773.47,-51.43 803.31,-40.62"/>
<polygon fill="black" stroke="black" points="804.43,-43.94 812.74,-37.37 802.15,-37.32 804.43,-43.94"/>
<text xml:space="preserve" text-anchor="middle" x="748.7" y="-105.58" font-family="Times,serif" font-size="14.00">DDG: list</text>
</g>
<!-- 30064771355&#45;&gt;30064771356 -->
<g id="edge18" class="edge">
<title>30064771355&#45;&gt;30064771356</title>
<path fill="none" stroke="black" d="M593.86,-213.72C526.28,-192.23 416.74,-157.38 345.05,-134.58"/>
<polygon fill="black" stroke="black" points="346.35,-131.32 335.76,-131.62 344.23,-137.99 346.35,-131.32"/>
<text xml:space="preserve" text-anchor="middle" x="539.66" y="-163.07" font-family="Times,serif" font-size="14.00">DDG: list</text>
</g>
<!-- 30064771387&#45;&gt;30064771388 -->
<g id="edge21" class="edge">
<title>30064771387&#45;&gt;30064771388</title>
<path fill="none" stroke="black" d="M1251.48,-213.72C1295.96,-192.64 1367.54,-158.71 1415.66,-135.9"/>
<polygon fill="black" stroke="black" points="1416.95,-139.16 1424.49,-131.71 1413.95,-132.83 1416.95,-139.16"/>
<text xml:space="preserve" text-anchor="middle" x="1461.22" y="-163.07" font-family="Times,serif" font-size="14.00">DDG: def from_dict(...)</text>
</g>
<!-- 30064771091 -->
<g id="node16" class="node">
<title>30064771091</title>
<polygon fill="none" stroke="black" points="2030.2,-351 1939.95,-351 1939.95,-315 2030.2,-315 2030.2,-351"/>
<text xml:space="preserve" text-anchor="middle" x="1985.07" y="-327.57" font-family="Times,serif" font-size="14.00">30064771091</text>
</g>
<!-- 30064771091&#45;&gt;68719477021 -->
<g id="edge22" class="edge">
<title>30064771091&#45;&gt;68719477021</title>
<path fill="none" stroke="black" d="M1985.07,-314.64C1985.07,-303.1 1985.07,-287.48 1985.07,-273.13"/>
<polygon fill="black" stroke="black" points="1988.57,-273.5 1985.07,-263.5 1981.57,-273.5 1988.57,-273.5"/>
<text xml:space="preserve" text-anchor="middle" x="2018.82" y="-281.95" font-family="Times,serif" font-size="14.00">DDG: field</text>
</g>
<!-- 30064771082 -->
<g id="node17" class="node">
<title>30064771082</title>
<polygon fill="none" stroke="black" points="699.2,-351 608.95,-351 608.95,-315 699.2,-315 699.2,-351"/>
<text xml:space="preserve" text-anchor="middle" x="654.07" y="-327.57" font-family="Times,serif" font-size="14.00">30064771082</text>
</g>
<!-- 30064771082&#45;&gt;30064771355 -->
<g id="edge24" class="edge">
<title>30064771082&#45;&gt;30064771355</title>
<path fill="none" stroke="black" d="M654.07,-314.64C654.07,-300.94 654.07,-281.49 654.07,-265.23"/>
<polygon fill="black" stroke="black" points="657.57,-265.6 654.07,-255.6 650.57,-265.6 657.57,-265.6"/>
<text xml:space="preserve" text-anchor="middle" x="684.45" y="-281.95" font-family="Times,serif" font-size="14.00">DDG: list</text>
</g>
<!-- 30064771078 -->
<g id="node18" class="node">
<title>30064771078</title>
<polygon fill="none" stroke="black" points="2270.2,-351 2179.95,-351 2179.95,-315 2270.2,-315 2270.2,-351"/>
<text xml:space="preserve" text-anchor="middle" x="2225.07" y="-327.57" font-family="Times,serif" font-size="14.00">30064771078</text>
</g>
<!-- 30064771078&#45;&gt;68719477047 -->
<g id="edge26" class="edge">
<title>30064771078&#45;&gt;68719477047</title>
<path fill="none" stroke="black" d="M2225.07,-314.64C2225.07,-303.1 2225.07,-287.48 2225.07,-273.13"/>
<polygon fill="black" stroke="black" points="2228.57,-273.5 2225.07,-263.5 2221.57,-273.5 2228.57,-273.5"/>
<text xml:space="preserve" text-anchor="middle" x="2282.45" y="-281.95" font-family="Times,serif" font-size="14.00">DDG: staticmethod</text>
</g>
</g>
</svg>
