<?xml version="1.0" encoding="UTF-8" standalone="no"?>
<!DOCTYPE svg PUBLIC "-//W3C//DTD SVG 1.1//EN"
 "http://www.w3.org/Graphics/SVG/1.1/DTD/svg11.dtd">
<!-- Generated by graphviz version 13.1.2 (20250809.0930)
 -->
<!-- Title: from_dict Pages: 1 -->
<svg width="2996pt" height="611pt"
 viewBox="0.00 0.00 2996.00 611.00" xmlns="http://www.w3.org/2000/svg" xmlns:xlink="http://www.w3.org/1999/xlink">
<g id="graph0" class="graph" transform="scale(1 1) rotate(0) translate(4 606.75)">
<title>from_dict</title>
<polygon fill="white" stroke="none" points="-4,4 -4,-606.75 2991.79,-606.75 2991.79,4 -4,4"/>
<!-- 107374182421 -->
<g id="node1" class="node">
<title>107374182421</title>
<polygon fill="none" stroke="black" points="466.12,-602.75 375.88,-602.75 375.88,-563.25 466.12,-563.25 466.12,-602.75"/>
<text xml:space="preserve" text-anchor="start" x="383.88" y="-585.45" font-family="Times,serif" font-size="14.00">METHOD, 297</text>
<text xml:space="preserve" text-anchor="start" x="390.62" y="-569.7" font-family="Times,serif" font-size="14.00">from_dict</text>
</g>
<!-- 111669149728 -->
<g id="node3" class="node">
<title>111669149728</title>
<polygon fill="none" stroke="black" points="315.75,-503.62 232.25,-503.62 232.25,-464.12 315.75,-464.12 315.75,-503.62"/>
<text xml:space="preserve" text-anchor="start" x="240.25" y="-486.32" font-family="Times,serif" font-size="14.00">PARAM, 297</text>
<text xml:space="preserve" text-anchor="start" x="260.5" y="-470.57" font-family="Times,serif" font-size="14.00">data</text>
</g>
<!-- 107374182421&#45;&gt;111669149728 -->
<g id="edge11" class="edge">
<title>107374182421&#45;&gt;111669149728</title>
<path fill="none" stroke="black" d="M375.48,-574.82C353.62,-569.55 328.15,-560.53 309.25,-545.25 299.17,-537.09 291.36,-525.23 285.68,-514.17"/>
<polygon fill="black" stroke="black" points="288.95,-512.9 281.54,-505.33 282.62,-515.87 288.95,-512.9"/>
<text xml:space="preserve" text-anchor="middle" x="326.12" y="-531.95" font-family="Times,serif" font-size="14.00">DDG: </text>
</g>
<!-- 68719477046 -->
<g id="node6" class="node">
<title>68719477046</title>
<polygon fill="none" stroke="black" points="1072.75,-511.5 719.25,-511.5 719.25,-456.25 1072.75,-456.25 1072.75,-511.5"/>
<text xml:space="preserve" text-anchor="start" x="845.38" y="-494.2" font-family="Times,serif" font-size="14.00">IDENTIFIER, 298</text>
<text xml:space="preserve" text-anchor="start" x="875.75" y="-478.45" font-family="Times,serif" font-size="14.00">Course</text>
<text xml:space="preserve" text-anchor="start" x="727.25" y="-462.7" font-family="Times,serif" font-size="14.00">Course(course_code = data[&quot;course_code&quot;], title...</text>
</g>
<!-- 107374182421&#45;&gt;68719477046 -->
<g id="edge15" class="edge">
<title>107374182421&#45;&gt;68719477046</title>
<path fill="none" stroke="black" d="M466.54,-572.69C531.78,-559.35 654.71,-534.21 752.39,-514.24"/>
<polygon fill="black" stroke="black" points="752.99,-517.69 762.09,-512.26 751.59,-510.83 752.99,-517.69"/>
<text xml:space="preserve" text-anchor="middle" x="689.62" y="-531.95" font-family="Times,serif" font-size="14.00">DDG: </text>
</g>
<!-- 68719477043 -->
<g id="node7" class="node">
<title>68719477043</title>
<polygon fill="none" stroke="black" points="701.12,-511.5 448.88,-511.5 448.88,-456.25 701.12,-456.25 701.12,-511.5"/>
<text xml:space="preserve" text-anchor="start" x="524.38" y="-494.2" font-family="Times,serif" font-size="14.00">IDENTIFIER, 302</text>
<text xml:space="preserve" text-anchor="start" x="561.5" y="-478.45" font-family="Times,serif" font-size="14.00">list</text>
<text xml:space="preserve" text-anchor="start" x="456.88" y="-462.7" font-family="Times,serif" font-size="14.00">list(data.get(&quot;prerequisites&quot;, []))</text>
</g>
<!-- 107374182421&#45;&gt;68719477043 -->
<g id="edge20" class="edge">
<title>107374182421&#45;&gt;68719477043</title>
<path fill="none" stroke="black" d="M451.43,-562.81C471.69,-550.03 498.84,-532.91 522.53,-517.96"/>
<polygon fill="black" stroke="black" points="524.23,-521.03 530.82,-512.74 520.5,-515.11 524.23,-521.03"/>
<text xml:space="preserve" text-anchor="middle" x="519.49" y="-531.95" font-family="Times,serif" font-size="14.00">DDG: </text>
</g>
<!-- 30064771385 -->
<g id="node9" class="node">
<title>30064771385</title>
<polygon fill="none" stroke="black" points="510,-313.25 332,-313.25 332,-273.75 510,-273.75 510,-313.25"/>
<text xml:space="preserve" text-anchor="start" x="394" y="-295.95" font-family="Times,serif" font-size="14.00">get, 303</text>
<text xml:space="preserve" text-anchor="start" x="340" y="-280.2" font-family="Times,serif" font-size="14.00">data.get(&quot;active&quot;, True)</text>
</g>
<!-- 107374182421&#45;&gt;30064771385 -->
<g id="edge25" class="edge">
<title>107374182421&#45;&gt;30064771385</title>
<path fill="none" stroke="black" d="M421,-563.14C421,-514.4 421,-383.97 421,-324.63"/>
<polygon fill="black" stroke="black" points="424.5,-324.95 421,-314.95 417.5,-324.95 424.5,-324.95"/>
<text xml:space="preserve" text-anchor="middle" x="437.88" y="-424.95" font-family="Times,serif" font-size="14.00">DDG: </text>
</g>
<!-- 30064771382 -->
<g id="node10" class="node">
<title>30064771382</title>
<polygon fill="none" stroke="black" points="366.88,-404.5 155.12,-404.5 155.12,-365 366.88,-365 366.88,-404.5"/>
<text xml:space="preserve" text-anchor="start" x="234" y="-387.2" font-family="Times,serif" font-size="14.00">get, 302</text>
<text xml:space="preserve" text-anchor="start" x="163.12" y="-371.45" font-family="Times,serif" font-size="14.00">data.get(&quot;prerequisites&quot;, [])</text>
</g>
<!-- 107374182421&#45;&gt;30064771382 -->
<g id="edge27" class="edge">
<title>107374182421&#45;&gt;30064771382</title>
<path fill="none" stroke="black" d="M406.7,-562.82C396.69,-548.95 383.35,-529.56 373.25,-511.5 352.06,-473.61 362.96,-453.91 333,-422.5 328.99,-418.29 324.39,-414.48 319.49,-411.06"/>
<polygon fill="black" stroke="black" points="321.4,-408.12 311.08,-405.74 317.66,-414.04 321.4,-408.12"/>
<text xml:space="preserve" text-anchor="middle" x="390.12" y="-478.45" font-family="Times,serif" font-size="14.00">DDG: </text>
</g>
<!-- 124554051605 -->
<g id="node2" class="node">
<title>124554051605</title>
<polygon fill="none" stroke="black" points="770.25,-39.5 497.75,-39.5 497.75,0 770.25,0 770.25,-39.5"/>
<text xml:space="preserve" text-anchor="start" x="573.25" y="-22.2" font-family="Times,serif" font-size="14.00">METHOD_RETURN, 297</text>
<text xml:space="preserve" text-anchor="start" x="505.75" y="-6.45" font-family="Times,serif" font-size="14.00">AI_generated_code_1.py:&lt;module&gt;.Course</text>
</g>
<!-- 111669149728&#45;&gt;30064771382 -->
<g id="edge26" class="edge">
<title>111669149728&#45;&gt;30064771382</title>
<path fill="none" stroke="black" d="M271.43,-463.69C269.62,-450.12 267.14,-431.65 265.06,-416.09"/>
<polygon fill="black" stroke="black" points="268.56,-415.85 263.76,-406.4 261.62,-416.78 268.56,-415.85"/>
<text xml:space="preserve" text-anchor="middle" x="298.26" y="-424.95" font-family="Times,serif" font-size="14.00">DDG: data</text>
</g>
<!-- 141733920789 -->
<g id="node4" class="node">
<title>141733920789</title>
<polygon fill="none" stroke="black" points="2790.25,-130.75 2517.75,-130.75 2517.75,-91.25 2790.25,-91.25 2790.25,-130.75"/>
<text xml:space="preserve" text-anchor="start" x="2616.88" y="-113.45" font-family="Times,serif" font-size="14.00">RETURN, 298</text>
<text xml:space="preserve" text-anchor="start" x="2525.75" y="-97.7" font-family="Times,serif" font-size="14.00">return Course( course_code=data[&quot;co...</text>
</g>
<!-- 141733920789&#45;&gt;124554051605 -->
<g id="edge1" class="edge">
<title>141733920789&#45;&gt;124554051605</title>
<path fill="none" stroke="black" d="M2517.52,-92.43C2512.96,-92.01 2508.45,-91.61 2504,-91.25 1864.15,-39.3 1097.98,-25.54 781.68,-21.97"/>
<polygon fill="black" stroke="black" points="782.17,-18.48 772.13,-21.87 782.09,-25.48 782.17,-18.48"/>
<text xml:space="preserve" text-anchor="middle" x="2283.95" y="-59.95" font-family="Times,serif" font-size="14.00">DDG: &lt;RET&gt;</text>
</g>
<!-- 30064771386 -->
<g id="node5" class="node">
<title>30064771386</title>
<polygon fill="none" stroke="black" points="765.75,-222 412.25,-222 412.25,-182.5 765.75,-182.5 765.75,-222"/>
<text xml:space="preserve" text-anchor="start" x="551.88" y="-204.7" font-family="Times,serif" font-size="14.00">Course, 298</text>
<text xml:space="preserve" text-anchor="start" x="420.25" y="-188.95" font-family="Times,serif" font-size="14.00">Course(course_code = data[&quot;course_code&quot;], title...</text>
</g>
<!-- 30064771386&#45;&gt;124554051605 -->
<g id="edge2" class="edge">
<title>30064771386&#45;&gt;124554051605</title>
<path fill="none" stroke="black" d="M766.22,-201.6C1286.64,-202.23 2776.27,-200.82 2812,-164.5 2827.58,-148.66 2838.45,-125.13 2799,-91.25 2637.76,47.21 2534.3,-67.32 2322,-57.5 1753.03,-31.19 1075.27,-23.65 781.69,-21.54"/>
<polygon fill="black" stroke="black" points="782.09,-18.04 772.07,-21.47 782.04,-25.04 782.09,-18.04"/>
<text xml:space="preserve" text-anchor="middle" x="2906.79" y="-105.58" font-family="Times,serif" font-size="14.00">DDG: data[&quot;course_code&quot;]</text>
</g>
<!-- 30064771386&#45;&gt;124554051605 -->
<g id="edge3" class="edge">
<title>30064771386&#45;&gt;124554051605</title>
<path fill="none" stroke="black" d="M498.95,-182.03C437.73,-164.63 373.24,-134.96 405.5,-91.25 420.2,-71.33 470.79,-54.67 520.64,-42.56"/>
<polygon fill="black" stroke="black" points="521.19,-46.03 530.11,-40.31 519.57,-39.21 521.19,-46.03"/>
<text xml:space="preserve" text-anchor="middle" x="466.25" y="-105.58" font-family="Times,serif" font-size="14.00">DDG: data[&quot;title&quot;]</text>
</g>
<!-- 30064771386&#45;&gt;124554051605 -->
<g id="edge4" class="edge">
<title>30064771386&#45;&gt;124554051605</title>
<path fill="none" stroke="black" d="M577.62,-182.38C565.67,-160 550.25,-121.87 563,-91.25 570.17,-74.02 583.84,-58.83 597.27,-47.01"/>
<polygon fill="black" stroke="black" points="599.4,-49.79 604.84,-40.7 594.92,-44.41 599.4,-49.79"/>
<text xml:space="preserve" text-anchor="middle" x="630.5" y="-105.58" font-family="Times,serif" font-size="14.00">DDG: data[&quot;credits&quot;]</text>
</g>
<!-- 30064771386&#45;&gt;124554051605 -->
<g id="edge7" class="edge">
<title>30064771386&#45;&gt;124554051605</title>
<path fill="none" stroke="black" d="M639.08,-182.1C661.34,-170.77 685.34,-154.01 698,-130.75 713.71,-101.88 689.56,-69.43 666.57,-47.3"/>
<polygon fill="black" stroke="black" points="669.07,-44.85 659.34,-40.66 664.34,-50 669.07,-44.85"/>
<text xml:space="preserve" text-anchor="middle" x="838.01" y="-105.58" font-family="Times,serif" font-size="14.00">DDG: list(data.get(&quot;prerequisites&quot;, []))</text>
</g>
<!-- 30064771386&#45;&gt;124554051605 -->
<g id="edge9" class="edge">
<title>30064771386&#45;&gt;124554051605</title>
<path fill="none" stroke="black" d="M766.16,-190.79C854.94,-181.46 949.36,-163.86 977,-130.75 1038.92,-56.57 901.14,-31.86 782.16,-23.93"/>
<polygon fill="black" stroke="black" points="782.43,-20.44 772.23,-23.31 781.99,-27.43 782.43,-20.44"/>
<text xml:space="preserve" text-anchor="middle" x="1090.2" y="-105.58" font-family="Times,serif" font-size="14.00">DDG: data.get(&quot;active&quot;, True)</text>
</g>
<!-- 30064771386&#45;&gt;124554051605 -->
<g id="edge10" class="edge">
<title>30064771386&#45;&gt;124554051605</title>
<path fill="none" stroke="black" d="M766.15,-192.47C933.89,-182.28 1164.2,-162.66 1192,-130.75 1203.53,-117.51 1203.37,-104.63 1192,-91.25 1165.69,-60.31 937.88,-39.8 781.6,-29.24"/>
<polygon fill="black" stroke="black" points="782.2,-25.78 771.98,-28.6 781.73,-32.76 782.2,-25.78"/>
<text xml:space="preserve" text-anchor="middle" x="1821.59" y="-105.58" font-family="Times,serif" font-size="14.00">DDG: Course(course_code = data[&quot;course_code&quot;], title = data[&quot;title&quot;], credits = data[&quot;credits&quot;], prerequisites = list(data.get(&quot;prerequisites&quot;, [])), active = data.get(&quot;active&quot;, True))</text>
</g>
<!-- 30064771386&#45;&gt;141733920789 -->
<g id="edge12" class="edge">
<title>30064771386&#45;&gt;141733920789</title>
<path fill="none" stroke="black" d="M766.14,-191.73C1046.03,-176.7 1560.09,-149.11 1570,-148.75 1984.91,-133.65 2089.88,-160.54 2504,-130.75 2504.7,-130.7 2505.39,-130.65 2506.09,-130.6"/>
<polygon fill="black" stroke="black" points="2506.34,-134.09 2516.02,-129.8 2505.78,-127.11 2506.34,-134.09"/>
<text xml:space="preserve" text-anchor="middle" x="2191" y="-151.2" font-family="Times,serif" font-size="14.00">DDG: Course(course_code = data[&quot;course_code&quot;], title = data[&quot;title&quot;], credits = data[&quot;credits&quot;], prerequisites = list(data.get(&quot;prerequisites&quot;, [])), active = data.get(&quot;active&quot;, True))</text>
</g>
<!-- 30064771383 -->
<g id="node8" class="node">
<title>30064771383</title>
<polygon fill="none" stroke="black" points="280.12,-313.25 27.88,-313.25 27.88,-273.75 280.12,-273.75 280.12,-313.25"/>
<text xml:space="preserve" text-anchor="start" x="123.62" y="-295.95" font-family="Times,serif" font-size="14.00">list, 302</text>
<text xml:space="preserve" text-anchor="start" x="35.88" y="-280.2" font-family="Times,serif" font-size="14.00">list(data.get(&quot;prerequisites&quot;, []))</text>
</g>
<!-- 30064771383&#45;&gt;124554051605 -->
<g id="edge6" class="edge">
<title>30064771383&#45;&gt;124554051605</title>
<path fill="none" stroke="black" d="M140.44,-273.36C121.36,-243.86 91.84,-186.71 119.5,-148.75 162.5,-89.73 349.84,-54.7 486.07,-36.6"/>
<polygon fill="black" stroke="black" points="486.48,-40.07 495.94,-35.31 485.57,-33.13 486.48,-40.07"/>
<text xml:space="preserve" text-anchor="middle" x="234.25" y="-151.2" font-family="Times,serif" font-size="14.00">DDG: data.get(&quot;prerequisites&quot;, [])</text>
</g>
<!-- 30064771383&#45;&gt;30064771386 -->
<g id="edge17" class="edge">
<title>30064771383&#45;&gt;30064771386</title>
<path fill="none" stroke="black" d="M158.24,-273.35C161.86,-261.74 168.32,-247.71 179.5,-240 198.43,-226.93 302.13,-217.71 400.42,-211.77"/>
<polygon fill="black" stroke="black" points="400.47,-215.27 410.25,-211.19 400.06,-208.28 400.47,-215.27"/>
<text xml:space="preserve" text-anchor="middle" x="294.25" y="-242.45" font-family="Times,serif" font-size="14.00">DDG: data.get(&quot;prerequisites&quot;, [])</text>
</g>
<!-- 30064771385&#45;&gt;124554051605 -->
<g id="edge8" class="edge">
<title>30064771385&#45;&gt;124554051605</title>
<path fill="none" stroke="black" d="M407.39,-273.27C391.25,-249.19 365.29,-206.02 355.25,-164.5 346.64,-128.9 369.83,-119.61 393,-91.25 406.47,-74.76 408.1,-67.31 427,-57.5 445.33,-47.99 465.67,-40.88 486.23,-35.59"/>
<polygon fill="black" stroke="black" points="486.97,-39.01 495.86,-33.26 485.32,-32.21 486.97,-39.01"/>
<text xml:space="preserve" text-anchor="middle" x="385.62" y="-151.2" font-family="Times,serif" font-size="14.00">DDG: data</text>
</g>
<!-- 30064771385&#45;&gt;30064771386 -->
<g id="edge16" class="edge">
<title>30064771385&#45;&gt;30064771386</title>
<path fill="none" stroke="black" d="M454.04,-273.41C463.47,-267.83 473.7,-261.65 483,-255.75 493.54,-249.06 495.34,-246.06 506.25,-240 514.26,-235.55 522.92,-231.23 531.51,-227.19"/>
<polygon fill="black" stroke="black" points="532.89,-230.41 540.53,-223.06 529.98,-224.04 532.89,-230.41"/>
<text xml:space="preserve" text-anchor="middle" x="536.62" y="-242.45" font-family="Times,serif" font-size="14.00">DDG: data</text>
</g>
<!-- 30064771385&#45;&gt;30064771386 -->
<g id="edge18" class="edge">
<title>30064771385&#45;&gt;30064771386</title>
<path fill="none" stroke="black" d="M510.28,-283.71C530.69,-278.19 551.05,-269.47 567,-255.75 573.88,-249.84 578.65,-241.41 581.95,-233.04"/>
<polygon fill="black" stroke="black" points="585.21,-234.31 585,-223.72 578.56,-232.13 585.21,-234.31"/>
<text xml:space="preserve" text-anchor="middle" x="622.05" y="-242.45" font-family="Times,serif" font-size="14.00">DDG: &quot;active&quot;</text>
</g>
<!-- 30064771385&#45;&gt;30064771386 -->
<g id="edge19" class="edge">
<title>30064771385&#45;&gt;30064771386</title>
<path fill="none" stroke="black" d="M414.18,-273.32C411.61,-262.42 410.85,-249.16 418.25,-240 422.58,-234.64 430.76,-230.02 441.28,-226.05"/>
<polygon fill="black" stroke="black" points="442.24,-229.42 450.61,-222.93 440.01,-222.79 442.24,-229.42"/>
<text xml:space="preserve" text-anchor="middle" x="448.62" y="-242.45" font-family="Times,serif" font-size="14.00">DDG: True</text>
</g>
<!-- 30064771382&#45;&gt;124554051605 -->
<g id="edge5" class="edge">
<title>30064771382&#45;&gt;124554051605</title>
<path fill="none" stroke="black" d="M154.63,-377.07C101.74,-371.84 44.75,-362.71 24,-347 3.54,-331.52 0,-320.16 0,-294.5 0,-294.5 0,-294.5 0,-110 0,-61.15 298.93,-37.31 486.26,-27.16"/>
<polygon fill="black" stroke="black" points="486.29,-30.66 496.09,-26.63 485.92,-23.67 486.29,-30.66"/>
<text xml:space="preserve" text-anchor="middle" x="23.62" y="-196.82" font-family="Times,serif" font-size="14.00">DDG: []</text>
</g>
<!-- 30064771382&#45;&gt;30064771383 -->
<g id="edge21" class="edge">
<title>30064771382&#45;&gt;30064771383</title>
<path fill="none" stroke="black" d="M256.75,-364.5C253.48,-353.58 247.96,-340.32 239,-331.25 234.62,-326.82 229.62,-322.89 224.28,-319.41"/>
<polygon fill="black" stroke="black" points="226.09,-316.41 215.69,-314.38 222.55,-322.45 226.09,-316.41"/>
<text xml:space="preserve" text-anchor="middle" x="279.97" y="-333.7" font-family="Times,serif" font-size="14.00">DDG: data</text>
</g>
<!-- 30064771382&#45;&gt;30064771383 -->
<g id="edge22" class="edge">
<title>30064771382&#45;&gt;30064771383</title>
<path fill="none" stroke="black" d="M154.67,-379.52C103.59,-375.02 50.01,-365.81 34,-347 24.06,-335.32 27.69,-326.15 38.43,-318.97"/>
<polygon fill="black" stroke="black" points="39.93,-322.14 47.11,-314.35 36.64,-315.96 39.93,-322.14"/>
<text xml:space="preserve" text-anchor="middle" x="101.5" y="-333.7" font-family="Times,serif" font-size="14.00">DDG: &quot;prerequisites&quot;</text>
</g>
<!-- 30064771382&#45;&gt;30064771383 -->
<g id="edge23" class="edge">
<title>30064771382&#45;&gt;30064771383</title>
<path fill="none" stroke="black" d="M213.68,-364.7C204.5,-359.75 195.37,-353.85 187.75,-347 180.36,-340.36 173.93,-331.74 168.73,-323.41"/>
<polygon fill="black" stroke="black" points="171.81,-321.74 163.76,-314.85 165.76,-325.26 171.81,-321.74"/>
<text xml:space="preserve" text-anchor="middle" x="211.38" y="-333.7" font-family="Times,serif" font-size="14.00">DDG: []</text>
</g>
<!-- 30064771382&#45;&gt;30064771385 -->
<g id="edge24" class="edge">
<title>30064771382&#45;&gt;30064771385</title>
<path fill="none" stroke="black" d="M290.57,-364.58C306.79,-354.31 327.38,-341.67 346.25,-331.25 353.91,-327.02 362.11,-322.74 370.19,-318.67"/>
<polygon fill="black" stroke="black" points="371.54,-321.91 378.94,-314.32 368.43,-315.64 371.54,-321.91"/>
<text xml:space="preserve" text-anchor="middle" x="376.62" y="-333.7" font-family="Times,serif" font-size="14.00">DDG: data</text>
</g>
<!-- 30064771396 -->
<g id="node11" class="node">
<title>30064771396</title>
<polygon fill="none" stroke="black" points="887.12,-601 796.88,-601 796.88,-565 887.12,-565 887.12,-601"/>
<text xml:space="preserve" text-anchor="middle" x="842" y="-577.58" font-family="Times,serif" font-size="14.00">30064771396</text>
</g>
<!-- 30064771396&#45;&gt;68719477046 -->
<g id="edge13" class="edge">
<title>30064771396&#45;&gt;68719477046</title>
<path fill="none" stroke="black" d="M843.52,-564.64C845.01,-554 847.96,-540.38 853.75,-529.5 855.35,-526.49 857.21,-523.53 859.24,-520.67"/>
<polygon fill="black" stroke="black" points="861.81,-523.07 865.26,-513.05 856.31,-518.73 861.81,-523.07"/>
<text xml:space="preserve" text-anchor="middle" x="890.88" y="-531.95" font-family="Times,serif" font-size="14.00">DDG: Course</text>
</g>
<!-- 30064771397 -->
<g id="node12" class="node">
<title>30064771397</title>
<polygon fill="none" stroke="black" points="995.12,-601 904.88,-601 904.88,-565 995.12,-565 995.12,-601"/>
<text xml:space="preserve" text-anchor="middle" x="950" y="-577.58" font-family="Times,serif" font-size="14.00">30064771397</text>
</g>
<!-- 30064771397&#45;&gt;68719477046 -->
<g id="edge14" class="edge">
<title>30064771397&#45;&gt;68719477046</title>
<path fill="none" stroke="black" d="M943.81,-564.52C939.84,-554.08 934.27,-540.72 928,-529.5 926.43,-526.69 924.72,-523.85 922.93,-521.03"/>
<polygon fill="black" stroke="black" points="925.95,-519.24 917.48,-512.87 920.12,-523.13 925.95,-519.24"/>
<text xml:space="preserve" text-anchor="middle" x="972.81" y="-531.95" font-family="Times,serif" font-size="14.00">DDG: Course</text>
</g>
</g>
</svg>
