<?xml version="1.0" encoding="UTF-8" standalone="no"?>
<!DOCTYPE svg PUBLIC "-//W3C//DTD SVG 1.1//EN"
 "http://www.w3.org/Graphics/SVG/1.1/DTD/svg11.dtd">
<!-- Generated by graphviz version 13.1.2 (20250809.0930)
 -->
<!-- Title: &lt;metaClassCallHandler&gt; Pages: 1 -->
<svg width="716pt" height="321pt"
 viewBox="0.00 0.00 716.00 321.00" xmlns="http://www.w3.org/2000/svg" xmlns:xlink="http://www.w3.org/1999/xlink">
<g id="graph0" class="graph" transform="scale(1 1) rotate(0) translate(4 317.25)">
<title>&lt;metaClassCallHandler&gt;</title>
<polygon fill="white" stroke="none" points="-4,4 -4,-317.25 712,-317.25 712,4 -4,4"/>
<!-- 107374182422 -->
<g id="node1" class="node">
<title>107374182422</title>
<polygon fill="none" stroke="black" points="218.5,-313.25 54,-313.25 54,-273.75 218.5,-273.75 218.5,-313.25"/>
<text xml:space="preserve" text-anchor="start" x="99.12" y="-295.95" font-family="Times,serif" font-size="14.00">METHOD, 279</text>
<text xml:space="preserve" text-anchor="start" x="62" y="-280.2" font-family="Times,serif" font-size="14.00">&lt;metaClassCallHandler&gt;</text>
</g>
<!-- 30064771390 -->
<g id="node4" class="node">
<title>30064771390</title>
<polygon fill="none" stroke="black" points="262.38,-222 10.12,-222 10.12,-182.5 262.38,-182.5 262.38,-222"/>
<text xml:space="preserve" text-anchor="start" x="119.38" y="-204.7" font-family="Times,serif" font-size="14.00">, 279</text>
<text xml:space="preserve" text-anchor="start" x="18.12" y="-188.95" font-family="Times,serif" font-size="14.00">class Course&lt;meta&gt;(...).&lt;fakeNew&gt;()</text>
</g>
<!-- 107374182422&#45;&gt;30064771390 -->
<g id="edge4" class="edge">
<title>107374182422&#45;&gt;30064771390</title>
<path fill="none" stroke="black" d="M136.25,-273.57C136.25,-262.05 136.25,-247.07 136.25,-233.9"/>
<polygon fill="black" stroke="black" points="139.75,-233.97 136.25,-223.97 132.75,-233.97 139.75,-233.97"/>
<text xml:space="preserve" text-anchor="middle" x="153.12" y="-242.45" font-family="Times,serif" font-size="14.00">DDG: </text>
</g>
<!-- 124554051606 -->
<g id="node2" class="node">
<title>124554051606</title>
<polygon fill="none" stroke="black" points="272.5,-39.5 0,-39.5 0,0 272.5,0 272.5,-39.5"/>
<text xml:space="preserve" text-anchor="start" x="75.5" y="-22.2" font-family="Times,serif" font-size="14.00">METHOD_RETURN, 279</text>
<text xml:space="preserve" text-anchor="start" x="8" y="-6.45" font-family="Times,serif" font-size="14.00">AI_generated_code_1.py:&lt;module&gt;.Course</text>
</g>
<!-- 141733920790 -->
<g id="node3" class="node">
<title>141733920790</title>
<polygon fill="none" stroke="black" points="708,-130.75 408.5,-130.75 408.5,-91.25 708,-91.25 708,-130.75"/>
<text xml:space="preserve" text-anchor="start" x="521.12" y="-113.45" font-family="Times,serif" font-size="14.00">RETURN, 279</text>
<text xml:space="preserve" text-anchor="start" x="416.5" y="-97.7" font-family="Times,serif" font-size="14.00">return class Course&lt;meta&gt;(...).&lt;fakeNew&gt;()</text>
</g>
<!-- 141733920790&#45;&gt;124554051606 -->
<g id="edge1" class="edge">
<title>141733920790&#45;&gt;124554051606</title>
<path fill="none" stroke="black" d="M467.46,-90.8C400.09,-76.55 308.18,-57.11 238.27,-42.33"/>
<polygon fill="black" stroke="black" points="239.23,-38.95 228.73,-40.31 237.79,-45.8 239.23,-38.95"/>
<text xml:space="preserve" text-anchor="middle" x="406.27" y="-59.95" font-family="Times,serif" font-size="14.00">DDG: &lt;RET&gt;</text>
</g>
<!-- 30064771390&#45;&gt;124554051606 -->
<g id="edge2" class="edge">
<title>30064771390&#45;&gt;124554051606</title>
<path fill="none" stroke="black" d="M133.84,-182.14C132.17,-167.98 130.11,-148.19 129.25,-130.75 128.38,-113.22 128.38,-108.78 129.25,-91.25 129.9,-78.03 131.25,-63.47 132.58,-51.03"/>
<polygon fill="black" stroke="black" points="136.03,-51.69 133.67,-41.37 129.07,-50.91 136.03,-51.69"/>
<text xml:space="preserve" text-anchor="middle" x="264.25" y="-105.58" font-family="Times,serif" font-size="14.00">DDG: class Course&lt;meta&gt;(...).&lt;fakeNew&gt;()</text>
</g>
<!-- 30064771390&#45;&gt;141733920790 -->
<g id="edge3" class="edge">
<title>30064771390&#45;&gt;141733920790</title>
<path fill="none" stroke="black" d="M227.04,-182.05C294.41,-167.8 386.32,-148.36 456.23,-133.58"/>
<polygon fill="black" stroke="black" points="456.71,-137.05 465.77,-131.56 455.27,-130.2 456.71,-137.05"/>
<text xml:space="preserve" text-anchor="middle" x="507.52" y="-151.2" font-family="Times,serif" font-size="14.00">DDG: class Course&lt;meta&gt;(...).&lt;fakeNew&gt;()</text>
</g>
</g>
</svg>
