<?xml version="1.0" encoding="UTF-8" standalone="no"?>
<!DOCTYPE svg PUBLIC "-//W3C//DTD SVG 1.1//EN"
 "http://www.w3.org/Graphics/SVG/1.1/DTD/svg11.dtd">
<!-- Generated by graphviz version 13.1.2 (20250809.0930)
 -->
<!-- Title: &lt;body&gt; Pages: 1 -->
<svg width="1356pt" height="361pt"
 viewBox="0.00 0.00 1356.00 361.00" xmlns="http://www.w3.org/2000/svg" xmlns:xlink="http://www.w3.org/1999/xlink">
<g id="graph0" class="graph" transform="scale(1 1) rotate(0) translate(4 356.75)">
<title>&lt;body&gt;</title>
<polygon fill="white" stroke="none" points="-4,4 -4,-356.75 1352.47,-356.75 1352.47,4 -4,4"/>
<!-- 107374182425 -->
<g id="node1" class="node">
<title>107374182425</title>
<polygon fill="none" stroke="black" points="720.6,-352.75 630.35,-352.75 630.35,-313.25 720.6,-313.25 720.6,-352.75"/>
<text xml:space="preserve" text-anchor="start" x="638.35" y="-335.45" font-family="Times,serif" font-size="14.00">METHOD, 308</text>
<text xml:space="preserve" text-anchor="start" x="655.22" y="-319.7" font-family="Times,serif" font-size="14.00">&lt;body&gt;</text>
</g>
<!-- 111669149732 -->
<g id="node3" class="node">
<title>111669149732</title>
<polygon fill="none" stroke="black" points="95.22,-188.25 11.72,-188.25 11.72,-148.75 95.22,-148.75 95.22,-188.25"/>
<text xml:space="preserve" text-anchor="start" x="19.72" y="-170.95" font-family="Times,serif" font-size="14.00">PARAM, 308</text>
<text xml:space="preserve" text-anchor="start" x="43.35" y="-155.2" font-family="Times,serif" font-size="14.00">cls</text>
</g>
<!-- 107374182425&#45;&gt;111669149732 -->
<g id="edge7" class="edge">
<title>107374182425&#45;&gt;111669149732</title>
<path fill="none" stroke="black" d="M630.26,-331.56C505.03,-329.98 160.08,-323.13 117.72,-295.25 84.64,-273.47 67.72,-229.1 59.75,-199.33"/>
<polygon fill="black" stroke="black" points="63.19,-198.66 57.39,-189.8 56.39,-200.34 63.19,-198.66"/>
<text xml:space="preserve" text-anchor="middle" x="134.6" y="-281.95" font-family="Times,serif" font-size="14.00">DDG: </text>
</g>
<!-- 90194313324 -->
<g id="node4" class="node">
<title>90194313324</title>
<polygon fill="none" stroke="black" points="693.1,-253.62 467.85,-253.62 467.85,-214.12 693.1,-214.12 693.1,-253.62"/>
<text xml:space="preserve" text-anchor="start" x="539.97" y="-236.32" font-family="Times,serif" font-size="14.00">LITERAL, 309</text>
<text xml:space="preserve" text-anchor="start" x="475.85" y="-220.57" font-family="Times,serif" font-size="14.00">&quot;&quot;&quot;Represents an instructor.&quot;&quot;&quot;</text>
</g>
<!-- 107374182425&#45;&gt;90194313324 -->
<g id="edge8" class="edge">
<title>107374182425&#45;&gt;90194313324</title>
<path fill="none" stroke="black" d="M656.7,-312.81C642.52,-298.31 622.87,-278.22 607.07,-262.06"/>
<polygon fill="black" stroke="black" points="609.76,-259.81 600.26,-255.11 604.75,-264.7 609.76,-259.81"/>
<text xml:space="preserve" text-anchor="middle" x="656.15" y="-281.95" font-family="Times,serif" font-size="14.00">DDG: </text>
</g>
<!-- 68719477056 -->
<g id="node5" class="node">
<title>68719477056</title>
<polygon fill="none" stroke="black" points="828.1,-253.62 710.85,-253.62 710.85,-214.12 828.1,-214.12 828.1,-253.62"/>
<text xml:space="preserve" text-anchor="start" x="718.85" y="-236.32" font-family="Times,serif" font-size="14.00">IDENTIFIER, 310</text>
<text xml:space="preserve" text-anchor="start" x="725.6" y="-220.57" font-family="Times,serif" font-size="14.00">instructor_id</text>
</g>
<!-- 107374182425&#45;&gt;68719477056 -->
<g id="edge9" class="edge">
<title>107374182425&#45;&gt;68719477056</title>
<path fill="none" stroke="black" d="M694.05,-312.81C708.08,-298.31 727.53,-278.22 743.16,-262.06"/>
<polygon fill="black" stroke="black" points="745.45,-264.73 749.89,-255.11 740.42,-259.86 745.45,-264.73"/>
<text xml:space="preserve" text-anchor="middle" x="742.17" y="-281.95" font-family="Times,serif" font-size="14.00">DDG: </text>
</g>
<!-- 68719477057 -->
<g id="node6" class="node">
<title>68719477057</title>
<polygon fill="none" stroke="black" points="963.1,-253.62 845.85,-253.62 845.85,-214.12 963.1,-214.12 963.1,-253.62"/>
<text xml:space="preserve" text-anchor="start" x="853.85" y="-236.32" font-family="Times,serif" font-size="14.00">IDENTIFIER, 311</text>
<text xml:space="preserve" text-anchor="start" x="890.97" y="-220.57" font-family="Times,serif" font-size="14.00">name</text>
</g>
<!-- 107374182425&#45;&gt;68719477057 -->
<g id="edge10" class="edge">
<title>107374182425&#45;&gt;68719477057</title>
<path fill="none" stroke="black" d="M720.73,-313.19C734.47,-307.46 749.6,-301.12 763.47,-295.25 791.93,-283.22 823.55,-269.69 849.63,-258.5"/>
<polygon fill="black" stroke="black" points="850.87,-261.77 858.67,-254.61 848.1,-255.34 850.87,-261.77"/>
<text xml:space="preserve" text-anchor="middle" x="815.21" y="-281.95" font-family="Times,serif" font-size="14.00">DDG: </text>
</g>
<!-- 68719477058 -->
<g id="node7" class="node">
<title>68719477058</title>
<polygon fill="none" stroke="black" points="1098.1,-253.62 980.85,-253.62 980.85,-214.12 1098.1,-214.12 1098.1,-253.62"/>
<text xml:space="preserve" text-anchor="start" x="988.85" y="-236.32" font-family="Times,serif" font-size="14.00">IDENTIFIER, 312</text>
<text xml:space="preserve" text-anchor="start" x="1005.72" y="-220.57" font-family="Times,serif" font-size="14.00">department</text>
</g>
<!-- 107374182425&#45;&gt;68719477058 -->
<g id="edge11" class="edge">
<title>107374182425&#45;&gt;68719477058</title>
<path fill="none" stroke="black" d="M720.85,-323.51C779.63,-312 884.93,-289.61 972.47,-261.5 975.93,-260.39 979.46,-259.19 983.01,-257.93"/>
<polygon fill="black" stroke="black" points="984.03,-261.29 992.22,-254.56 981.62,-254.72 984.03,-261.29"/>
<text xml:space="preserve" text-anchor="middle" x="925.22" y="-281.95" font-family="Times,serif" font-size="14.00">DDG: </text>
</g>
<!-- 30064771409 -->
<g id="node8" class="node">
<title>30064771409</title>
<polygon fill="none" stroke="black" points="261.22,-130.75 69.72,-130.75 69.72,-91.25 261.22,-91.25 261.22,-130.75"/>
<text xml:space="preserve" text-anchor="start" x="77.72" y="-113.45" font-family="Times,serif" font-size="14.00">&lt;operator&gt;.assignment, 314</text>
<text xml:space="preserve" text-anchor="start" x="77.72" y="-97.7" font-family="Times,serif" font-size="14.00">to_dict = def to_dict(...)</text>
</g>
<!-- 107374182425&#45;&gt;30064771409 -->
<g id="edge12" class="edge">
<title>107374182425&#45;&gt;30064771409</title>
<path fill="none" stroke="black" d="M630.23,-332.59C518.79,-333 235.67,-327.4 174.72,-261.5 145.27,-229.65 150.28,-175.82 157.34,-142.19"/>
<polygon fill="black" stroke="black" points="160.69,-143.21 159.53,-132.68 153.87,-141.63 160.69,-143.21"/>
<text xml:space="preserve" text-anchor="middle" x="191.6" y="-228.45" font-family="Times,serif" font-size="14.00">DDG: </text>
</g>
<!-- 68719477073 -->
<g id="node10" class="node">
<title>68719477073</title>
<polygon fill="none" stroke="black" points="1348.47,-261.5 1116.47,-261.5 1116.47,-206.25 1348.47,-206.25 1348.47,-261.5"/>
<text xml:space="preserve" text-anchor="start" x="1181.85" y="-244.2" font-family="Times,serif" font-size="14.00">IDENTIFIER, 321</text>
<text xml:space="preserve" text-anchor="start" x="1191.97" y="-228.45" font-family="Times,serif" font-size="14.00">staticmethod</text>
<text xml:space="preserve" text-anchor="start" x="1124.47" y="-212.7" font-family="Times,serif" font-size="14.00">staticmethod(def from_dict(...))</text>
</g>
<!-- 107374182425&#45;&gt;68719477073 -->
<g id="edge15" class="edge">
<title>107374182425&#45;&gt;68719477073</title>
<path fill="none" stroke="black" d="M720.7,-326.87C774.62,-320.53 867.4,-308.88 946.47,-295.25 1015.14,-283.41 1034.19,-277.21 1105.17,-262"/>
<polygon fill="black" stroke="black" points="1105.5,-265.51 1114.56,-260 1104.05,-258.66 1105.5,-265.51"/>
<text xml:space="preserve" text-anchor="middle" x="1041.37" y="-281.95" font-family="Times,serif" font-size="14.00">DDG: </text>
</g>
<!-- 30064771414 -->
<g id="node11" class="node">
<title>30064771414</title>
<polygon fill="none" stroke="black" points="449.47,-253.62 217.47,-253.62 217.47,-214.12 449.47,-214.12 449.47,-253.62"/>
<text xml:space="preserve" text-anchor="start" x="276.1" y="-236.32" font-family="Times,serif" font-size="14.00">staticmethod, 321</text>
<text xml:space="preserve" text-anchor="start" x="225.47" y="-220.57" font-family="Times,serif" font-size="14.00">staticmethod(def from_dict(...))</text>
</g>
<!-- 107374182425&#45;&gt;30064771414 -->
<g id="edge16" class="edge">
<title>107374182425&#45;&gt;30064771414</title>
<path fill="none" stroke="black" d="M630.06,-319.1C574.55,-303.34 479.69,-276.4 412.21,-257.23"/>
<polygon fill="black" stroke="black" points="413.23,-253.89 402.66,-254.52 411.32,-260.62 413.23,-253.89"/>
<text xml:space="preserve" text-anchor="middle" x="562.04" y="-281.95" font-family="Times,serif" font-size="14.00">DDG: </text>
</g>
<!-- 124554051609 -->
<g id="node2" class="node">
<title>124554051609</title>
<polygon fill="none" stroke="black" points="334.22,-39.5 196.72,-39.5 196.72,0 334.22,0 334.22,-39.5"/>
<text xml:space="preserve" text-anchor="start" x="204.72" y="-22.2" font-family="Times,serif" font-size="14.00">METHOD_RETURN, 308</text>
<text xml:space="preserve" text-anchor="start" x="255.35" y="-6.45" font-family="Times,serif" font-size="14.00">ANY</text>
</g>
<!-- 111669149732&#45;&gt;124554051609 -->
<g id="edge1" class="edge">
<title>111669149732&#45;&gt;124554051609</title>
<path fill="none" stroke="black" d="M21.08,-148.63C15.18,-143.62 9.83,-137.64 6.47,-130.75 -8.94,-99.13 5.63,-74.42 36.47,-57.5 61.62,-43.71 129.67,-33.89 185.11,-27.89"/>
<polygon fill="black" stroke="black" points="185.28,-31.39 194.86,-26.86 184.55,-24.43 185.28,-31.39"/>
<text xml:space="preserve" text-anchor="middle" x="33.47" y="-105.58" font-family="Times,serif" font-size="14.00">DDG: cls</text>
</g>
<!-- 30064771409&#45;&gt;124554051609 -->
<g id="edge2" class="edge">
<title>30064771409&#45;&gt;124554051609</title>
<path fill="none" stroke="black" d="M69.45,-94.12C46.41,-86.16 32.11,-74.48 46.47,-57.5 64.24,-36.51 130.22,-27.5 185.16,-23.64"/>
<polygon fill="black" stroke="black" points="185.08,-27.15 194.83,-23.01 184.62,-20.16 185.08,-27.15"/>
<text xml:space="preserve" text-anchor="middle" x="86.97" y="-59.95" font-family="Times,serif" font-size="14.00">DDG: to_dict</text>
</g>
<!-- 30064771409&#45;&gt;124554051609 -->
<g id="edge3" class="edge">
<title>30064771409&#45;&gt;124554051609</title>
<path fill="none" stroke="black" d="M152.34,-90.86C146.81,-80.23 143.11,-67.23 150.22,-57.5 159.01,-45.47 171.78,-37.29 185.64,-31.74"/>
<polygon fill="black" stroke="black" points="186.68,-35.09 194.98,-28.49 184.38,-28.48 186.68,-35.09"/>
<text xml:space="preserve" text-anchor="middle" x="254.85" y="-59.95" font-family="Times,serif" font-size="14.00">DDG: to_dict = def to_dict(...)</text>
</g>
<!-- 30064771415 -->
<g id="node9" class="node">
<title>30064771415</title>
<polygon fill="none" stroke="black" points="615.97,-130.75 302.97,-130.75 302.97,-91.25 615.97,-91.25 615.97,-130.75"/>
<text xml:space="preserve" text-anchor="start" x="371.72" y="-113.45" font-family="Times,serif" font-size="14.00">&lt;operator&gt;.assignment, 322</text>
<text xml:space="preserve" text-anchor="start" x="310.97" y="-97.7" font-family="Times,serif" font-size="14.00">from_dict = staticmethod(def from_dict(...))</text>
</g>
<!-- 30064771415&#45;&gt;124554051609 -->
<g id="edge4" class="edge">
<title>30064771415&#45;&gt;124554051609</title>
<path fill="none" stroke="black" d="M416.83,-90.84C405.65,-85.46 393.72,-79.39 382.97,-73.25 372.06,-67.01 370.62,-63.32 359.47,-57.5 350.46,-52.79 340.71,-48.33 331.01,-44.24"/>
<polygon fill="black" stroke="black" points="332.53,-41.08 321.95,-40.54 329.88,-47.56 332.53,-41.08"/>
<text xml:space="preserve" text-anchor="middle" x="430.22" y="-59.95" font-family="Times,serif" font-size="14.00">DDG: from_dict</text>
</g>
<!-- 30064771415&#45;&gt;124554051609 -->
<g id="edge5" class="edge">
<title>30064771415&#45;&gt;124554051609</title>
<path fill="none" stroke="black" d="M474.43,-90.83C480.92,-80.06 485.42,-66.94 477.47,-57.5 460.61,-37.46 398.62,-28.35 346,-24.21"/>
<polygon fill="black" stroke="black" points="346.33,-20.72 336.1,-23.48 345.82,-27.7 346.33,-20.72"/>
<text xml:space="preserve" text-anchor="middle" x="606.58" y="-59.95" font-family="Times,serif" font-size="14.00">DDG: staticmethod(def from_dict(...))</text>
</g>
<!-- 30064771415&#45;&gt;124554051609 -->
<g id="edge6" class="edge">
<title>30064771415&#45;&gt;124554051609</title>
<path fill="none" stroke="black" d="M616.44,-106.69C669.08,-102 718.71,-92.39 735.47,-73.25 740.09,-67.98 740.23,-62.64 735.47,-57.5 709.61,-29.54 472.9,-22.81 345.61,-21.22"/>
<polygon fill="black" stroke="black" points="345.95,-17.72 335.91,-21.11 345.87,-24.72 345.95,-17.72"/>
<text xml:space="preserve" text-anchor="middle" x="904.36" y="-59.95" font-family="Times,serif" font-size="14.00">DDG: from_dict = staticmethod(def from_dict(...))</text>
</g>
<!-- 30064771414&#45;&gt;30064771415 -->
<g id="edge13" class="edge">
<title>30064771414&#45;&gt;30064771415</title>
<path fill="none" stroke="black" d="M353.44,-213.72C374.45,-193.56 407.7,-161.67 431.36,-138.97"/>
<polygon fill="black" stroke="black" points="433.72,-141.56 438.51,-132.11 428.87,-136.51 433.72,-141.56"/>
<text xml:space="preserve" text-anchor="middle" x="496.34" y="-163.07" font-family="Times,serif" font-size="14.00">DDG: def from_dict(...)</text>
</g>
<!-- 30064771078 -->
<g id="node12" class="node">
<title>30064771078</title>
<polygon fill="none" stroke="black" points="1277.6,-351 1187.35,-351 1187.35,-315 1277.6,-315 1277.6,-351"/>
<text xml:space="preserve" text-anchor="middle" x="1232.47" y="-327.57" font-family="Times,serif" font-size="14.00">30064771078</text>
</g>
<!-- 30064771078&#45;&gt;68719477073 -->
<g id="edge14" class="edge">
<title>30064771078&#45;&gt;68719477073</title>
<path fill="none" stroke="black" d="M1232.47,-314.64C1232.47,-303.1 1232.47,-287.48 1232.47,-273.13"/>
<polygon fill="black" stroke="black" points="1235.97,-273.5 1232.47,-263.5 1228.97,-273.5 1235.97,-273.5"/>
<text xml:space="preserve" text-anchor="middle" x="1289.85" y="-281.95" font-family="Times,serif" font-size="14.00">DDG: staticmethod</text>
</g>
</g>
</svg>
