<?xml version="1.0" encoding="UTF-8" standalone="no"?>
<!DOCTYPE svg PUBLIC "-//W3C//DTD SVG 1.1//EN"
 "http://www.w3.org/Graphics/SVG/1.1/DTD/svg11.dtd">
<!-- Generated by graphviz version 13.1.2 (20250809.0930)
 -->
<!-- Title: from_dict Pages: 1 -->
<svg width="1889pt" height="428pt"
 viewBox="0.00 0.00 1889.00 428.00" xmlns="http://www.w3.org/2000/svg" xmlns:xlink="http://www.w3.org/1999/xlink">
<g id="graph0" class="graph" transform="scale(1 1) rotate(0) translate(4 424.25)">
<title>from_dict</title>
<polygon fill="white" stroke="none" points="-4,4 -4,-424.25 1884.63,-424.25 1884.63,4 -4,4"/>
<!-- 107374182427 -->
<g id="node1" class="node">
<title>107374182427</title>
<polygon fill="none" stroke="black" points="196.88,-420.25 106.62,-420.25 106.62,-380.75 196.88,-380.75 196.88,-420.25"/>
<text xml:space="preserve" text-anchor="start" x="114.62" y="-402.95" font-family="Times,serif" font-size="14.00">METHOD, 322</text>
<text xml:space="preserve" text-anchor="start" x="121.38" y="-387.2" font-family="Times,serif" font-size="14.00">from_dict</text>
</g>
<!-- 111669149734 -->
<g id="node3" class="node">
<title>111669149734</title>
<polygon fill="none" stroke="black" points="83.5,-321.12 0,-321.12 0,-281.62 83.5,-281.62 83.5,-321.12"/>
<text xml:space="preserve" text-anchor="start" x="8" y="-303.82" font-family="Times,serif" font-size="14.00">PARAM, 322</text>
<text xml:space="preserve" text-anchor="start" x="28.25" y="-288.07" font-family="Times,serif" font-size="14.00">data</text>
</g>
<!-- 107374182427&#45;&gt;111669149734 -->
<g id="edge7" class="edge">
<title>107374182427&#45;&gt;111669149734</title>
<path fill="none" stroke="black" d="M130.02,-380.31C113.44,-365.68 90.42,-345.35 72.04,-329.12"/>
<polygon fill="black" stroke="black" points="74.38,-326.52 64.57,-322.53 69.75,-331.77 74.38,-326.52"/>
<text xml:space="preserve" text-anchor="middle" x="126.71" y="-349.45" font-family="Times,serif" font-size="14.00">DDG: </text>
</g>
<!-- 68719477072 -->
<g id="node6" class="node">
<title>68719477072</title>
<polygon fill="none" stroke="black" points="455.5,-329 102,-329 102,-273.75 455.5,-273.75 455.5,-329"/>
<text xml:space="preserve" text-anchor="start" x="228.12" y="-311.7" font-family="Times,serif" font-size="14.00">IDENTIFIER, 323</text>
<text xml:space="preserve" text-anchor="start" x="245" y="-295.95" font-family="Times,serif" font-size="14.00">Instructor</text>
<text xml:space="preserve" text-anchor="start" x="110" y="-280.2" font-family="Times,serif" font-size="14.00">Instructor(instructor_id = data[&quot;instructor_id&quot;...</text>
</g>
<!-- 107374182427&#45;&gt;68719477072 -->
<g id="edge11" class="edge">
<title>107374182427&#45;&gt;68719477072</title>
<path fill="none" stroke="black" d="M176.84,-380.31C193.32,-367.71 215.32,-350.89 234.66,-336.09"/>
<polygon fill="black" stroke="black" points="236.6,-339.02 242.41,-330.16 232.34,-333.46 236.6,-339.02"/>
<text xml:space="preserve" text-anchor="middle" x="235.93" y="-349.45" font-family="Times,serif" font-size="14.00">DDG: </text>
</g>
<!-- 124554051611 -->
<g id="node2" class="node">
<title>124554051611</title>
<polygon fill="none" stroke="black" points="538.5,-39.5 239,-39.5 239,0 538.5,0 538.5,-39.5"/>
<text xml:space="preserve" text-anchor="start" x="328" y="-22.2" font-family="Times,serif" font-size="14.00">METHOD_RETURN, 322</text>
<text xml:space="preserve" text-anchor="start" x="247" y="-6.45" font-family="Times,serif" font-size="14.00">AI_generated_code_1.py:&lt;module&gt;.Instructor</text>
</g>
<!-- 111669149734&#45;&gt;124554051611 -->
<g id="edge2" class="edge">
<title>111669149734&#45;&gt;124554051611</title>
<path fill="none" stroke="black" d="M40.79,-281.31C39.58,-233.91 43.89,-110.76 116.75,-57.5 135.62,-43.71 179.98,-35.09 227.51,-29.7"/>
<polygon fill="black" stroke="black" points="227.59,-33.21 237.16,-28.66 226.84,-26.25 227.59,-33.21"/>
<text xml:space="preserve" text-anchor="middle" x="87.4" y="-151.2" font-family="Times,serif" font-size="14.00">DDG: data</text>
</g>
<!-- 30064771413 -->
<g id="node5" class="node">
<title>30064771413</title>
<polygon fill="none" stroke="black" points="566.5,-222 213,-222 213,-182.5 566.5,-182.5 566.5,-222"/>
<text xml:space="preserve" text-anchor="start" x="339.12" y="-204.7" font-family="Times,serif" font-size="14.00">Instructor, 323</text>
<text xml:space="preserve" text-anchor="start" x="221" y="-188.95" font-family="Times,serif" font-size="14.00">Instructor(instructor_id = data[&quot;instructor_id&quot;...</text>
</g>
<!-- 111669149734&#45;&gt;30064771413 -->
<g id="edge12" class="edge">
<title>111669149734&#45;&gt;30064771413</title>
<path fill="none" stroke="black" d="M75.78,-281.14C81.35,-278.42 87.14,-275.84 92.75,-273.75 149.31,-252.65 214.33,-236.37 269.09,-224.8"/>
<polygon fill="black" stroke="black" points="269.7,-228.25 278.77,-222.78 268.27,-221.39 269.7,-228.25"/>
<text xml:space="preserve" text-anchor="middle" x="227.21" y="-242.45" font-family="Times,serif" font-size="14.00">DDG: data</text>
</g>
<!-- 141733920794 -->
<g id="node4" class="node">
<title>141733920794</title>
<polygon fill="none" stroke="black" points="1675,-130.75 1402.5,-130.75 1402.5,-91.25 1675,-91.25 1675,-130.75"/>
<text xml:space="preserve" text-anchor="start" x="1501.62" y="-113.45" font-family="Times,serif" font-size="14.00">RETURN, 323</text>
<text xml:space="preserve" text-anchor="start" x="1410.5" y="-97.7" font-family="Times,serif" font-size="14.00">return Instructor( instructor_id=da...</text>
</g>
<!-- 141733920794&#45;&gt;124554051611 -->
<g id="edge1" class="edge">
<title>141733920794&#45;&gt;124554051611</title>
<path fill="none" stroke="black" d="M1402.26,-92.62C1397.7,-92.14 1393.19,-91.68 1388.75,-91.25 1093.52,-62.41 748.14,-40.72 550.25,-29.45"/>
<polygon fill="black" stroke="black" points="550.59,-25.96 540.41,-28.89 550.19,-32.95 550.59,-25.96"/>
<text xml:space="preserve" text-anchor="middle" x="1203.71" y="-59.95" font-family="Times,serif" font-size="14.00">DDG: &lt;RET&gt;</text>
</g>
<!-- 30064771413&#45;&gt;124554051611 -->
<g id="edge3" class="edge">
<title>30064771413&#45;&gt;124554051611</title>
<path fill="none" stroke="black" d="M253.58,-182.03C194.22,-170.6 134.08,-153.76 116.25,-130.75 75.44,-78.08 147.19,-50.52 227.28,-36.16"/>
<polygon fill="black" stroke="black" points="227.87,-39.61 237.14,-34.48 226.69,-32.71 227.87,-39.61"/>
<text xml:space="preserve" text-anchor="middle" x="204" y="-105.58" font-family="Times,serif" font-size="14.00">DDG: data[&quot;instructor_id&quot;]</text>
</g>
<!-- 30064771413&#45;&gt;124554051611 -->
<g id="edge4" class="edge">
<title>30064771413&#45;&gt;124554051611</title>
<path fill="none" stroke="black" d="M365.96,-182.09C351.99,-169.24 335.62,-151.01 328,-130.75 321.82,-114.32 321.89,-107.71 328,-91.25 334.08,-74.88 345.85,-59.77 357.43,-47.77"/>
<polygon fill="black" stroke="black" points="359.59,-50.56 364.26,-41.05 354.68,-45.57 359.59,-50.56"/>
<text xml:space="preserve" text-anchor="middle" x="385.38" y="-105.58" font-family="Times,serif" font-size="14.00">DDG: data[&quot;name&quot;]</text>
</g>
<!-- 30064771413&#45;&gt;124554051611 -->
<g id="edge5" class="edge">
<title>30064771413&#45;&gt;124554051611</title>
<path fill="none" stroke="black" d="M409.69,-182.03C421.82,-168.89 436.2,-150.36 442.75,-130.75 448.31,-114.1 448.39,-107.88 442.75,-91.25 437.37,-75.39 426.84,-60.29 416.49,-48.17"/>
<polygon fill="black" stroke="black" points="419.36,-46.13 410.07,-41.03 414.15,-50.81 419.36,-46.13"/>
<text xml:space="preserve" text-anchor="middle" x="524.57" y="-105.58" font-family="Times,serif" font-size="14.00">DDG: data[&quot;department&quot;]</text>
</g>
<!-- 30064771413&#45;&gt;124554051611 -->
<g id="edge6" class="edge">
<title>30064771413&#45;&gt;124554051611</title>
<path fill="none" stroke="black" d="M509.45,-182.01C576.1,-165.81 639.45,-137.64 605.75,-91.25 590.16,-69.8 567.89,-54.75 543.5,-44.21"/>
<polygon fill="black" stroke="black" points="544.92,-41.01 534.33,-40.53 542.31,-47.5 544.92,-41.01"/>
<text xml:space="preserve" text-anchor="middle" x="979.59" y="-105.58" font-family="Times,serif" font-size="14.00">DDG: Instructor(instructor_id = data[&quot;instructor_id&quot;], name = data[&quot;name&quot;], department = data[&quot;department&quot;])</text>
</g>
<!-- 30064771413&#45;&gt;141733920794 -->
<g id="edge8" class="edge">
<title>30064771413&#45;&gt;141733920794</title>
<path fill="none" stroke="black" d="M566.78,-189.91C809.84,-174.14 1234.36,-145.84 1388.75,-130.75 1389.44,-130.68 1390.14,-130.61 1390.84,-130.54"/>
<polygon fill="black" stroke="black" points="1391.16,-134.03 1400.75,-129.53 1390.45,-127.07 1391.16,-134.03"/>
<text xml:space="preserve" text-anchor="middle" x="1516.13" y="-151.2" font-family="Times,serif" font-size="14.00">DDG: Instructor(instructor_id = data[&quot;instructor_id&quot;], name = data[&quot;name&quot;], department = data[&quot;department&quot;])</text>
</g>
<!-- 30064771423 -->
<g id="node7" class="node">
<title>30064771423</title>
<polygon fill="none" stroke="black" points="307.88,-418.5 217.62,-418.5 217.62,-382.5 307.88,-382.5 307.88,-418.5"/>
<text xml:space="preserve" text-anchor="middle" x="262.75" y="-395.07" font-family="Times,serif" font-size="14.00">30064771423</text>
</g>
<!-- 30064771423&#45;&gt;68719477072 -->
<g id="edge9" class="edge">
<title>30064771423&#45;&gt;68719477072</title>
<path fill="none" stroke="black" d="M261.64,-382.35C261.31,-372.03 261.47,-358.68 263.5,-347 263.88,-344.82 264.35,-342.61 264.88,-340.39"/>
<polygon fill="black" stroke="black" points="268.22,-341.43 267.59,-330.85 261.49,-339.51 268.22,-341.43"/>
<text xml:space="preserve" text-anchor="middle" x="314.12" y="-349.45" font-family="Times,serif" font-size="14.00">DDG: Instructor</text>
</g>
<!-- 30064771424 -->
<g id="node8" class="node">
<title>30064771424</title>
<polygon fill="none" stroke="black" points="431.88,-418.5 341.62,-418.5 341.62,-382.5 431.88,-382.5 431.88,-418.5"/>
<text xml:space="preserve" text-anchor="middle" x="386.75" y="-395.07" font-family="Times,serif" font-size="14.00">30064771424</text>
</g>
<!-- 30064771424&#45;&gt;68719477072 -->
<g id="edge10" class="edge">
<title>30064771424&#45;&gt;68719477072</title>
<path fill="none" stroke="black" d="M382.78,-382.22C379.5,-371.08 373.86,-356.88 364.75,-347 361.1,-343.03 357.01,-339.36 352.65,-335.97"/>
<polygon fill="black" stroke="black" points="354.81,-333.21 344.62,-330.28 350.76,-338.92 354.81,-333.21"/>
<text xml:space="preserve" text-anchor="middle" x="425.7" y="-349.45" font-family="Times,serif" font-size="14.00">DDG: Instructor</text>
</g>
</g>
</svg>
