<?xml version="1.0" encoding="UTF-8" standalone="no"?>
<!DOCTYPE svg PUBLIC "-//W3C//DTD SVG 1.1//EN"
 "http://www.w3.org/Graphics/SVG/1.1/DTD/svg11.dtd">
<!-- Generated by graphviz version 13.1.2 (20250809.0930)
 -->
<!-- Title: to_dict&lt;metaClassAdapter&gt; Pages: 1 -->
<svg width="521pt" height="436pt"
 viewBox="0.00 0.00 521.00 436.00" xmlns="http://www.w3.org/2000/svg" xmlns:xlink="http://www.w3.org/1999/xlink">
<g id="graph0" class="graph" transform="scale(1 1) rotate(0) translate(4 432.25)">
<title>to_dict&lt;metaClassAdapter&gt;</title>
<polygon fill="white" stroke="none" points="-4,4 -4,-432.25 517.25,-432.25 517.25,4 -4,4"/>
<!-- 107374182430 -->
<g id="node1" class="node">
<title>107374182430</title>
<polygon fill="none" stroke="black" points="259.12,-428.25 74.38,-428.25 74.38,-388.75 259.12,-388.75 259.12,-428.25"/>
<text xml:space="preserve" text-anchor="start" x="129.62" y="-410.95" font-family="Times,serif" font-size="14.00">METHOD, 314</text>
<text xml:space="preserve" text-anchor="start" x="82.38" y="-395.2" font-family="Times,serif" font-size="14.00">to_dict&lt;metaClassAdapter&gt;</text>
</g>
<!-- 111669149736 -->
<g id="node3" class="node">
<title>111669149736</title>
<polygon fill="none" stroke="black" points="83.5,-279.5 0,-279.5 0,-240 83.5,-240 83.5,-279.5"/>
<text xml:space="preserve" text-anchor="start" x="8" y="-262.2" font-family="Times,serif" font-size="14.00">PARAM, 314</text>
<text xml:space="preserve" text-anchor="start" x="31.62" y="-246.45" font-family="Times,serif" font-size="14.00">cls</text>
</g>
<!-- 107374182430&#45;&gt;111669149736 -->
<g id="edge5" class="edge">
<title>107374182430&#45;&gt;111669149736</title>
<path fill="none" stroke="black" d="M146.29,-388.51C140.54,-382.93 134.4,-376.72 129,-370.75 104.84,-344 79.48,-311.45 62.36,-288.73"/>
<polygon fill="black" stroke="black" points="65.26,-286.76 56.47,-280.85 59.66,-290.95 65.26,-286.76"/>
<text xml:space="preserve" text-anchor="middle" x="145.88" y="-357.45" font-family="Times,serif" font-size="14.00">DDG: </text>
</g>
<!-- 111669149737 -->
<g id="node4" class="node">
<title>111669149737</title>
<polygon fill="none" stroke="black" points="208.5,-337 125,-337 125,-297.5 208.5,-297.5 208.5,-337"/>
<text xml:space="preserve" text-anchor="start" x="133" y="-319.7" font-family="Times,serif" font-size="14.00">PARAM, 314</text>
<text xml:space="preserve" text-anchor="start" x="153.25" y="-303.95" font-family="Times,serif" font-size="14.00">self</text>
</g>
<!-- 107374182430&#45;&gt;111669149737 -->
<g id="edge6" class="edge">
<title>107374182430&#45;&gt;111669149737</title>
<path fill="none" stroke="black" d="M166.75,-388.57C166.75,-377.05 166.75,-362.07 166.75,-348.9"/>
<polygon fill="black" stroke="black" points="170.25,-348.97 166.75,-338.97 163.25,-348.97 170.25,-348.97"/>
<text xml:space="preserve" text-anchor="middle" x="183.62" y="-357.45" font-family="Times,serif" font-size="14.00">DDG: </text>
</g>
<!-- 30064771422 -->
<g id="node6" class="node">
<title>30064771422</title>
<polygon fill="none" stroke="black" points="438.38,-222 51.12,-222 51.12,-182.5 438.38,-182.5 438.38,-222"/>
<text xml:space="preserve" text-anchor="start" x="59.12" y="-204.7" font-family="Times,serif" font-size="14.00">AI_generated_code_1.py:&lt;module&gt;.Instructor.to_dict, 314</text>
<text xml:space="preserve" text-anchor="start" x="200.88" y="-188.95" font-family="Times,serif" font-size="14.00">to_dict(self)</text>
</g>
<!-- 107374182430&#45;&gt;30064771422 -->
<g id="edge9" class="edge">
<title>107374182430&#45;&gt;30064771422</title>
<path fill="none" stroke="black" d="M189.79,-388.34C195.2,-383.05 200.59,-377.02 204.75,-370.75 232.71,-328.53 241.18,-268.87 243.71,-233.32"/>
<polygon fill="black" stroke="black" points="247.18,-233.94 244.27,-223.75 240.19,-233.53 247.18,-233.94"/>
<text xml:space="preserve" text-anchor="middle" x="250.78" y="-311.82" font-family="Times,serif" font-size="14.00">DDG: </text>
</g>
<!-- 124554051614 -->
<g id="node2" class="node">
<title>124554051614</title>
<polygon fill="none" stroke="black" points="242.5,-39.5 105,-39.5 105,0 242.5,0 242.5,-39.5"/>
<text xml:space="preserve" text-anchor="start" x="113" y="-22.2" font-family="Times,serif" font-size="14.00">METHOD_RETURN, 314</text>
<text xml:space="preserve" text-anchor="start" x="136.62" y="-6.45" font-family="Times,serif" font-size="14.00">typing.Dict</text>
</g>
<!-- 111669149736&#45;&gt;124554051614 -->
<g id="edge2" class="edge">
<title>111669149736&#45;&gt;124554051614</title>
<path fill="none" stroke="black" d="M38.43,-239.71C36.45,-223.94 35.41,-201.18 41.75,-182.5 60.75,-126.58 109.03,-76.32 141.63,-47.16"/>
<polygon fill="black" stroke="black" points="143.61,-50.09 148.83,-40.86 139,-44.82 143.61,-50.09"/>
<text xml:space="preserve" text-anchor="middle" x="83.3" y="-151.2" font-family="Times,serif" font-size="14.00">DDG: cls</text>
</g>
<!-- 111669149737&#45;&gt;30064771422 -->
<g id="edge8" class="edge">
<title>111669149737&#45;&gt;30064771422</title>
<path fill="none" stroke="black" d="M162.47,-297.07C159.91,-280.58 158.99,-256.87 170,-240 172.62,-235.98 175.82,-232.39 179.4,-229.17"/>
<polygon fill="black" stroke="black" points="181.33,-232.11 187.16,-223.27 177.08,-226.54 181.33,-232.11"/>
<text xml:space="preserve" text-anchor="middle" x="200.38" y="-254.32" font-family="Times,serif" font-size="14.00">DDG: self</text>
</g>
<!-- 141733920797 -->
<g id="node5" class="node">
<title>141733920797</title>
<polygon fill="none" stroke="black" points="513.25,-130.75 362.25,-130.75 362.25,-91.25 513.25,-91.25 513.25,-130.75"/>
<text xml:space="preserve" text-anchor="start" x="400.62" y="-113.45" font-family="Times,serif" font-size="14.00">RETURN, 314</text>
<text xml:space="preserve" text-anchor="start" x="370.25" y="-97.7" font-family="Times,serif" font-size="14.00">return to_dict(self)</text>
</g>
<!-- 141733920797&#45;&gt;124554051614 -->
<g id="edge1" class="edge">
<title>141733920797&#45;&gt;124554051614</title>
<path fill="none" stroke="black" d="M381.12,-90.85C340.05,-76.97 284.36,-58.14 241.02,-43.49"/>
<polygon fill="black" stroke="black" points="242.32,-40.24 231.72,-40.35 240.08,-46.87 242.32,-40.24"/>
<text xml:space="preserve" text-anchor="middle" x="355.31" y="-59.95" font-family="Times,serif" font-size="14.00">DDG: &lt;RET&gt;</text>
</g>
<!-- 30064771422&#45;&gt;124554051614 -->
<g id="edge3" class="edge">
<title>30064771422&#45;&gt;124554051614</title>
<path fill="none" stroke="black" d="M197.39,-182.07C175.75,-170.63 152.26,-153.78 140,-130.75 126.18,-104.79 139.42,-72.31 153.16,-49.4"/>
<polygon fill="black" stroke="black" points="155.97,-51.49 158.4,-41.18 150.07,-47.73 155.97,-51.49"/>
<text xml:space="preserve" text-anchor="middle" x="170.38" y="-105.58" font-family="Times,serif" font-size="14.00">DDG: self</text>
</g>
<!-- 30064771422&#45;&gt;124554051614 -->
<g id="edge4" class="edge">
<title>30064771422&#45;&gt;124554051614</title>
<path fill="none" stroke="black" d="M237.29,-182.27C224.93,-150.86 200.13,-87.8 185.43,-50.45"/>
<polygon fill="black" stroke="black" points="188.69,-49.18 181.77,-41.15 182.18,-51.74 188.69,-49.18"/>
<text xml:space="preserve" text-anchor="middle" x="277.06" y="-105.58" font-family="Times,serif" font-size="14.00">DDG: to_dict(self)</text>
</g>
<!-- 30064771422&#45;&gt;141733920797 -->
<g id="edge7" class="edge">
<title>30064771422&#45;&gt;141733920797</title>
<path fill="none" stroke="black" d="M286.15,-182.1C315.41,-168.57 354.83,-150.35 386.14,-135.87"/>
<polygon fill="black" stroke="black" points="387.43,-139.12 395.04,-131.75 384.5,-132.77 387.43,-139.12"/>
<text xml:space="preserve" text-anchor="middle" x="413.56" y="-151.2" font-family="Times,serif" font-size="14.00">DDG: to_dict(self)</text>
</g>
</g>
</svg>
