<?xml version="1.0" encoding="UTF-8" standalone="no"?>
<!DOCTYPE svg PUBLIC "-//W3C//DTD SVG 1.1//EN"
 "http://www.w3.org/Graphics/SVG/1.1/DTD/svg11.dtd">
<!-- Generated by graphviz version 13.1.2 (20250809.0930)
 -->
<!-- Title: &lt;body&gt; Pages: 1 -->
<svg width="3410pt" height="452pt"
 viewBox="0.00 0.00 3410.00 452.00" xmlns="http://www.w3.org/2000/svg" xmlns:xlink="http://www.w3.org/1999/xlink">
<g id="graph0" class="graph" transform="scale(1 1) rotate(0) translate(4 448)">
<title>&lt;body&gt;</title>
<polygon fill="white" stroke="none" points="-4,4 -4,-448 3405.84,-448 3405.84,4 -4,4"/>
<!-- 107374182431 -->
<g id="node1" class="node">
<title>107374182431</title>
<polygon fill="none" stroke="black" points="1935.97,-444 1845.72,-444 1845.72,-404.5 1935.97,-404.5 1935.97,-444"/>
<text xml:space="preserve" text-anchor="start" x="1853.72" y="-426.7" font-family="Times,serif" font-size="14.00">METHOD, 331</text>
<text xml:space="preserve" text-anchor="start" x="1870.59" y="-410.95" font-family="Times,serif" font-size="14.00">&lt;body&gt;</text>
</g>
<!-- 111669149738 -->
<g id="node3" class="node">
<title>111669149738</title>
<polygon fill="none" stroke="black" points="1335.59,-279.5 1252.09,-279.5 1252.09,-240 1335.59,-240 1335.59,-279.5"/>
<text xml:space="preserve" text-anchor="start" x="1260.09" y="-262.2" font-family="Times,serif" font-size="14.00">PARAM, 331</text>
<text xml:space="preserve" text-anchor="start" x="1283.72" y="-246.45" font-family="Times,serif" font-size="14.00">cls</text>
</g>
<!-- 107374182431&#45;&gt;111669149738 -->
<g id="edge17" class="edge">
<title>107374182431&#45;&gt;111669149738</title>
<path fill="none" stroke="black" d="M1845.29,-422.12C1709.22,-418.52 1313.98,-406.39 1295.09,-386.5 1271.31,-361.45 1276.44,-319.34 1283.84,-290.82"/>
<polygon fill="black" stroke="black" points="1287.17,-291.92 1286.54,-281.34 1280.43,-290 1287.17,-291.92"/>
<text xml:space="preserve" text-anchor="middle" x="1311.97" y="-373.2" font-family="Times,serif" font-size="14.00">DDG: </text>
</g>
<!-- 90194313331 -->
<g id="node4" class="node">
<title>90194313331</title>
<polygon fill="none" stroke="black" points="1746.59,-344.88 1393.09,-344.88 1393.09,-305.38 1746.59,-305.38 1746.59,-344.88"/>
<text xml:space="preserve" text-anchor="start" x="1529.34" y="-327.57" font-family="Times,serif" font-size="14.00">LITERAL, 332</text>
<text xml:space="preserve" text-anchor="start" x="1401.09" y="-311.82" font-family="Times,serif" font-size="14.00">&quot;&quot;&quot;Represents a section/class offering of a cou...</text>
</g>
<!-- 107374182431&#45;&gt;90194313331 -->
<g id="edge18" class="edge">
<title>107374182431&#45;&gt;90194313331</title>
<path fill="none" stroke="black" d="M1845.53,-409.54C1793.28,-393.73 1706.6,-367.5 1644.38,-348.68"/>
<polygon fill="black" stroke="black" points="1645.48,-345.35 1634.9,-345.81 1643.46,-352.05 1645.48,-345.35"/>
<text xml:space="preserve" text-anchor="middle" x="1785.41" y="-373.2" font-family="Times,serif" font-size="14.00">DDG: </text>
</g>
<!-- 68719477082 -->
<g id="node5" class="node">
<title>68719477082</title>
<polygon fill="none" stroke="black" points="1881.47,-344.88 1764.22,-344.88 1764.22,-305.38 1881.47,-305.38 1881.47,-344.88"/>
<text xml:space="preserve" text-anchor="start" x="1772.22" y="-327.57" font-family="Times,serif" font-size="14.00">IDENTIFIER, 333</text>
<text xml:space="preserve" text-anchor="start" x="1789.09" y="-311.82" font-family="Times,serif" font-size="14.00">section_id</text>
</g>
<!-- 107374182431&#45;&gt;68719477082 -->
<g id="edge19" class="edge">
<title>107374182431&#45;&gt;68719477082</title>
<path fill="none" stroke="black" d="M1877.41,-404.06C1867.54,-389.96 1853.96,-370.57 1842.82,-354.65"/>
<polygon fill="black" stroke="black" points="1845.72,-352.7 1837.12,-346.51 1839.99,-356.71 1845.72,-352.7"/>
<text xml:space="preserve" text-anchor="middle" x="1881.81" y="-373.2" font-family="Times,serif" font-size="14.00">DDG: </text>
</g>
<!-- 68719477083 -->
<g id="node6" class="node">
<title>68719477083</title>
<polygon fill="none" stroke="black" points="2016.47,-344.88 1899.22,-344.88 1899.22,-305.38 2016.47,-305.38 2016.47,-344.88"/>
<text xml:space="preserve" text-anchor="start" x="1907.22" y="-327.57" font-family="Times,serif" font-size="14.00">IDENTIFIER, 334</text>
<text xml:space="preserve" text-anchor="start" x="1920.72" y="-311.82" font-family="Times,serif" font-size="14.00">course_code</text>
</g>
<!-- 107374182431&#45;&gt;68719477083 -->
<g id="edge20" class="edge">
<title>107374182431&#45;&gt;68719477083</title>
<path fill="none" stroke="black" d="M1904.08,-404.06C1913.81,-389.96 1927.19,-370.57 1938.16,-354.65"/>
<polygon fill="black" stroke="black" points="1940.98,-356.74 1943.78,-346.52 1935.22,-352.76 1940.98,-356.74"/>
<text xml:space="preserve" text-anchor="middle" x="1943.23" y="-373.2" font-family="Times,serif" font-size="14.00">DDG: </text>
</g>
<!-- 68719477084 -->
<g id="node7" class="node">
<title>68719477084</title>
<polygon fill="none" stroke="black" points="2151.47,-344.88 2034.22,-344.88 2034.22,-305.38 2151.47,-305.38 2151.47,-344.88"/>
<text xml:space="preserve" text-anchor="start" x="2042.22" y="-327.57" font-family="Times,serif" font-size="14.00">IDENTIFIER, 335</text>
<text xml:space="preserve" text-anchor="start" x="2065.84" y="-311.82" font-family="Times,serif" font-size="14.00">semester</text>
</g>
<!-- 107374182431&#45;&gt;68719477084 -->
<g id="edge21" class="edge">
<title>107374182431&#45;&gt;68719477084</title>
<path fill="none" stroke="black" d="M1930.75,-404.06C1962.85,-388.63 2008.12,-366.86 2042.67,-350.25"/>
<polygon fill="black" stroke="black" points="2044.16,-353.42 2051.65,-345.93 2041.13,-347.11 2044.16,-353.42"/>
<text xml:space="preserve" text-anchor="middle" x="2014.78" y="-373.2" font-family="Times,serif" font-size="14.00">DDG: </text>
</g>
<!-- 68719477085 -->
<g id="node8" class="node">
<title>68719477085</title>
<polygon fill="none" stroke="black" points="2286.47,-344.88 2169.22,-344.88 2169.22,-305.38 2286.47,-305.38 2286.47,-344.88"/>
<text xml:space="preserve" text-anchor="start" x="2177.22" y="-327.57" font-family="Times,serif" font-size="14.00">IDENTIFIER, 336</text>
<text xml:space="preserve" text-anchor="start" x="2183.97" y="-311.82" font-family="Times,serif" font-size="14.00">instructor_id</text>
</g>
<!-- 107374182431&#45;&gt;68719477085 -->
<g id="edge22" class="edge">
<title>107374182431&#45;&gt;68719477085</title>
<path fill="none" stroke="black" d="M1936.28,-413.31C1990.37,-401.03 2083.15,-378.58 2160.84,-352.75 2164.12,-351.66 2167.47,-350.49 2170.84,-349.28"/>
<polygon fill="black" stroke="black" points="2172.02,-352.58 2180.18,-345.82 2169.59,-346.02 2172.02,-352.58"/>
<text xml:space="preserve" text-anchor="middle" x="2119.34" y="-373.2" font-family="Times,serif" font-size="14.00">DDG: </text>
</g>
<!-- 68719477086 -->
<g id="node9" class="node">
<title>68719477086</title>
<polygon fill="none" stroke="black" points="2421.47,-344.88 2304.22,-344.88 2304.22,-305.38 2421.47,-305.38 2421.47,-344.88"/>
<text xml:space="preserve" text-anchor="start" x="2312.22" y="-327.57" font-family="Times,serif" font-size="14.00">IDENTIFIER, 337</text>
<text xml:space="preserve" text-anchor="start" x="2318.97" y="-311.82" font-family="Times,serif" font-size="14.00">meeting_times</text>
</g>
<!-- 107374182431&#45;&gt;68719477086 -->
<g id="edge23" class="edge">
<title>107374182431&#45;&gt;68719477086</title>
<path fill="none" stroke="black" d="M1936.34,-419.03C2012.18,-411.17 2168.69,-391.48 2295.84,-352.75 2299.38,-351.67 2302.98,-350.49 2306.6,-349.24"/>
<polygon fill="black" stroke="black" points="2307.79,-352.54 2316.01,-345.85 2305.41,-345.95 2307.79,-352.54"/>
<text xml:space="preserve" text-anchor="middle" x="2236.84" y="-373.2" font-family="Times,serif" font-size="14.00">DDG: </text>
</g>
<!-- 68719477087 -->
<g id="node10" class="node">
<title>68719477087</title>
<polygon fill="none" stroke="black" points="2556.47,-344.88 2439.22,-344.88 2439.22,-305.38 2556.47,-305.38 2556.47,-344.88"/>
<text xml:space="preserve" text-anchor="start" x="2447.22" y="-327.57" font-family="Times,serif" font-size="14.00">IDENTIFIER, 338</text>
<text xml:space="preserve" text-anchor="start" x="2470.84" y="-311.82" font-family="Times,serif" font-size="14.00">capacity</text>
</g>
<!-- 107374182431&#45;&gt;68719477087 -->
<g id="edge24" class="edge">
<title>107374182431&#45;&gt;68719477087</title>
<path fill="none" stroke="black" d="M1936.27,-422.06C2030.39,-418.57 2252.81,-405 2430.84,-352.75 2434.56,-351.66 2438.36,-350.44 2442.16,-349.15"/>
<polygon fill="black" stroke="black" points="2443.17,-352.5 2451.41,-345.84 2440.81,-345.91 2443.17,-352.5"/>
<text xml:space="preserve" text-anchor="middle" x="2376.16" y="-373.2" font-family="Times,serif" font-size="14.00">DDG: </text>
</g>
<!-- 68719477088 -->
<g id="node11" class="node">
<title>68719477088</title>
<polygon fill="none" stroke="black" points="2691.47,-344.88 2574.22,-344.88 2574.22,-305.38 2691.47,-305.38 2691.47,-344.88"/>
<text xml:space="preserve" text-anchor="start" x="2582.22" y="-327.57" font-family="Times,serif" font-size="14.00">IDENTIFIER, 339</text>
<text xml:space="preserve" text-anchor="start" x="2609.22" y="-311.82" font-family="Times,serif" font-size="14.00">credits</text>
</g>
<!-- 107374182431&#45;&gt;68719477088 -->
<g id="edge25" class="edge">
<title>107374182431&#45;&gt;68719477088</title>
<path fill="none" stroke="black" d="M1936.4,-421.84C2025.29,-418.68 2227.96,-409.41 2396.84,-386.5 2472.74,-376.21 2492.4,-374.48 2565.84,-352.75 2569.56,-351.65 2573.35,-350.43 2577.15,-349.13"/>
<polygon fill="black" stroke="black" points="2578.17,-352.48 2586.4,-345.81 2575.8,-345.9 2578.17,-352.48"/>
<text xml:space="preserve" text-anchor="middle" x="2513.36" y="-373.2" font-family="Times,serif" font-size="14.00">DDG: </text>
</g>
<!-- 30064771433 -->
<g id="node14" class="node">
<title>30064771433</title>
<polygon fill="none" stroke="black" points="455.59,-130.75 156.09,-130.75 156.09,-91.25 455.59,-91.25 455.59,-130.75"/>
<text xml:space="preserve" text-anchor="start" x="218.09" y="-113.45" font-family="Times,serif" font-size="14.00">&lt;operator&gt;.assignment, 343</text>
<text xml:space="preserve" text-anchor="start" x="164.09" y="-97.7" font-family="Times,serif" font-size="14.00">seats_available = def seats_available(...)</text>
</g>
<!-- 107374182431&#45;&gt;30064771433 -->
<g id="edge28" class="edge">
<title>107374182431&#45;&gt;30064771433</title>
<path fill="none" stroke="black" d="M1845.24,-422.85C1684.79,-421.23 1146.87,-413.83 976.84,-386.5 922.99,-377.84 910.18,-371.18 858.84,-352.75 668.62,-284.48 450.88,-182.3 355.25,-136.15"/>
<polygon fill="black" stroke="black" points="356.91,-133.06 346.38,-131.86 353.86,-139.37 356.91,-133.06"/>
<text xml:space="preserve" text-anchor="middle" x="685.81" y="-254.32" font-family="Times,serif" font-size="14.00">DDG: </text>
</g>
<!-- 30064771438 -->
<g id="node15" class="node">
<title>30064771438</title>
<polygon fill="none" stroke="black" points="791.59,-130.75 600.09,-130.75 600.09,-91.25 791.59,-91.25 791.59,-130.75"/>
<text xml:space="preserve" text-anchor="start" x="608.09" y="-113.45" font-family="Times,serif" font-size="14.00">&lt;operator&gt;.assignment, 347</text>
<text xml:space="preserve" text-anchor="start" x="608.09" y="-97.7" font-family="Times,serif" font-size="14.00">is_full = def is_full(...)</text>
</g>
<!-- 107374182431&#45;&gt;30064771438 -->
<g id="edge29" class="edge">
<title>107374182431&#45;&gt;30064771438</title>
<path fill="none" stroke="black" d="M1845.43,-423.61C1690.63,-424.47 1184.43,-424.27 1026.84,-386.5 881.44,-351.65 760.95,-203.31 715.39,-140.39"/>
<polygon fill="black" stroke="black" points="718.27,-138.4 709.61,-132.29 712.57,-142.47 718.27,-138.4"/>
<text xml:space="preserve" text-anchor="middle" x="856.5" y="-254.32" font-family="Times,serif" font-size="14.00">DDG: </text>
</g>
<!-- 30064771471 -->
<g id="node16" class="node">
<title>30064771471</title>
<polygon fill="none" stroke="black" points="1064.59,-130.75 873.09,-130.75 873.09,-91.25 1064.59,-91.25 1064.59,-130.75"/>
<text xml:space="preserve" text-anchor="start" x="881.09" y="-113.45" font-family="Times,serif" font-size="14.00">&lt;operator&gt;.assignment, 351</text>
<text xml:space="preserve" text-anchor="start" x="881.09" y="-97.7" font-family="Times,serif" font-size="14.00">to_dict = def to_dict(...)</text>
</g>
<!-- 107374182431&#45;&gt;30064771471 -->
<g id="edge30" class="edge">
<title>107374182431&#45;&gt;30064771471</title>
<path fill="none" stroke="black" d="M1845.34,-423.07C1670.56,-421.95 1049.09,-413.68 987.84,-352.75 931.87,-297.06 947.97,-193.01 960.39,-141.9"/>
<polygon fill="black" stroke="black" points="963.73,-142.99 962.82,-132.43 956.94,-141.25 963.73,-142.99"/>
<text xml:space="preserve" text-anchor="middle" x="968.51" y="-254.32" font-family="Times,serif" font-size="14.00">DDG: </text>
</g>
<!-- 68719477091 -->
<g id="node18" class="node">
<title>68719477091</title>
<polygon fill="none" stroke="black" points="3151.72,-352.75 2939.97,-352.75 2939.97,-297.5 3151.72,-297.5 3151.72,-352.75"/>
<text xml:space="preserve" text-anchor="start" x="2995.22" y="-335.45" font-family="Times,serif" font-size="14.00">IDENTIFIER, 340</text>
<text xml:space="preserve" text-anchor="start" x="3028.97" y="-319.7" font-family="Times,serif" font-size="14.00">field</text>
<text xml:space="preserve" text-anchor="start" x="2947.97" y="-303.95" font-family="Times,serif" font-size="14.00">field(default_factory = list)</text>
</g>
<!-- 107374182431&#45;&gt;68719477091 -->
<g id="edge33" class="edge">
<title>107374182431&#45;&gt;68719477091</title>
<path fill="none" stroke="black" d="M1936.37,-422.55C2056.1,-420.4 2389.57,-412.38 2665.84,-386.5 2716,-381.8 2728.13,-377.2 2778.09,-370.75 2842.45,-362.44 2861.58,-364.25 2928.55,-353.06"/>
<polygon fill="black" stroke="black" points="2928.97,-356.53 2938.23,-351.4 2927.79,-349.64 2928.97,-356.53"/>
<text xml:space="preserve" text-anchor="middle" x="2794.97" y="-373.2" font-family="Times,serif" font-size="14.00">DDG: </text>
</g>
<!-- 30064771425 -->
<g id="node19" class="node">
<title>30064771425</title>
<polygon fill="none" stroke="black" points="2921.72,-344.88 2709.97,-344.88 2709.97,-305.38 2921.72,-305.38 2921.72,-344.88"/>
<text xml:space="preserve" text-anchor="start" x="2782.09" y="-327.57" font-family="Times,serif" font-size="14.00">field, 340</text>
<text xml:space="preserve" text-anchor="start" x="2717.97" y="-311.82" font-family="Times,serif" font-size="14.00">field(default_factory = list)</text>
</g>
<!-- 107374182431&#45;&gt;30064771425 -->
<g id="edge35" class="edge">
<title>107374182431&#45;&gt;30064771425</title>
<path fill="none" stroke="black" d="M1936.26,-422.87C2041.68,-421.51 2310.94,-415.24 2533.84,-386.5 2601,-377.84 2675.9,-361.48 2731.62,-347.97"/>
<polygon fill="black" stroke="black" points="2732.15,-351.45 2741.03,-345.67 2730.48,-344.65 2732.15,-351.45"/>
<text xml:space="preserve" text-anchor="middle" x="2644.52" y="-373.2" font-family="Times,serif" font-size="14.00">DDG: </text>
</g>
<!-- 68719477094 -->
<g id="node20" class="node">
<title>68719477094</title>
<polygon fill="none" stroke="black" points="1208.72,-352.75 996.97,-352.75 996.97,-297.5 1208.72,-297.5 1208.72,-352.75"/>
<text xml:space="preserve" text-anchor="start" x="1052.22" y="-335.45" font-family="Times,serif" font-size="14.00">IDENTIFIER, 341</text>
<text xml:space="preserve" text-anchor="start" x="1085.97" y="-319.7" font-family="Times,serif" font-size="14.00">field</text>
<text xml:space="preserve" text-anchor="start" x="1004.97" y="-303.95" font-family="Times,serif" font-size="14.00">field(default_factory = list)</text>
</g>
<!-- 107374182431&#45;&gt;68719477094 -->
<g id="edge36" class="edge">
<title>107374182431&#45;&gt;68719477094</title>
<path fill="none" stroke="black" d="M1845.32,-422.47C1698.44,-419.72 1243.07,-409.44 1181.09,-386.5 1165.56,-380.75 1150.61,-370.75 1138.01,-360.52"/>
<polygon fill="black" stroke="black" points="1140.32,-357.89 1130.43,-354.07 1135.78,-363.22 1140.32,-357.89"/>
<text xml:space="preserve" text-anchor="middle" x="1197.97" y="-373.2" font-family="Times,serif" font-size="14.00">DDG: </text>
</g>
<!-- 30064771427 -->
<g id="node21" class="node">
<title>30064771427</title>
<polygon fill="none" stroke="black" points="2108.72,-222 1896.97,-222 1896.97,-182.5 2108.72,-182.5 2108.72,-222"/>
<text xml:space="preserve" text-anchor="start" x="1969.09" y="-204.7" font-family="Times,serif" font-size="14.00">field, 341</text>
<text xml:space="preserve" text-anchor="start" x="1904.97" y="-188.95" font-family="Times,serif" font-size="14.00">field(default_factory = list)</text>
</g>
<!-- 107374182431&#45;&gt;30064771427 -->
<g id="edge38" class="edge">
<title>107374182431&#45;&gt;30064771427</title>
<path fill="none" stroke="black" d="M1845.27,-420.7C1720.88,-413.28 1382.66,-389.83 1350.09,-352.75 1333.89,-334.3 1334.02,-316.06 1350.09,-297.5 1358.81,-287.43 1699.71,-242.21 1885.29,-218.25"/>
<polygon fill="black" stroke="black" points="1885.5,-221.75 1894.97,-217 1884.6,-214.81 1885.5,-221.75"/>
<text xml:space="preserve" text-anchor="middle" x="1366.97" y="-319.7" font-family="Times,serif" font-size="14.00">DDG: </text>
</g>
<!-- 68719477144 -->
<g id="node22" class="node">
<title>68719477144</title>
<polygon fill="none" stroke="black" points="3401.84,-352.75 3169.84,-352.75 3169.84,-297.5 3401.84,-297.5 3401.84,-352.75"/>
<text xml:space="preserve" text-anchor="start" x="3235.22" y="-335.45" font-family="Times,serif" font-size="14.00">IDENTIFIER, 364</text>
<text xml:space="preserve" text-anchor="start" x="3245.34" y="-319.7" font-family="Times,serif" font-size="14.00">staticmethod</text>
<text xml:space="preserve" text-anchor="start" x="3177.84" y="-303.95" font-family="Times,serif" font-size="14.00">staticmethod(def from_dict(...))</text>
</g>
<!-- 107374182431&#45;&gt;68719477144 -->
<g id="edge40" class="edge">
<title>107374182431&#45;&gt;68719477144</title>
<path fill="none" stroke="black" d="M1936.32,-422.95C2076.97,-421.73 2517.39,-415.68 2880.84,-386.5 2937.65,-381.94 2951.52,-377.58 3008.09,-370.75 3072.51,-362.97 3091.5,-363.77 3158.32,-353.1"/>
<polygon fill="black" stroke="black" points="3158.67,-356.59 3167.98,-351.52 3157.54,-349.68 3158.67,-356.59"/>
<text xml:space="preserve" text-anchor="middle" x="3024.97" y="-373.2" font-family="Times,serif" font-size="14.00">DDG: </text>
</g>
<!-- 30064771491 -->
<g id="node23" class="node">
<title>30064771491</title>
<polygon fill="none" stroke="black" points="1246.84,-279.5 1014.84,-279.5 1014.84,-240 1246.84,-240 1246.84,-279.5"/>
<text xml:space="preserve" text-anchor="start" x="1073.47" y="-262.2" font-family="Times,serif" font-size="14.00">staticmethod, 364</text>
<text xml:space="preserve" text-anchor="start" x="1022.84" y="-246.45" font-family="Times,serif" font-size="14.00">staticmethod(def from_dict(...))</text>
</g>
<!-- 107374182431&#45;&gt;30064771491 -->
<g id="edge41" class="edge">
<title>107374182431&#45;&gt;30064771491</title>
<path fill="none" stroke="black" d="M1845.48,-423.57C1706.68,-424.14 1294.25,-422.73 1247.09,-386.5 1214.08,-361.13 1246.05,-328.13 1217.84,-297.5 1213.75,-293.05 1209.03,-289.12 1203.95,-285.66"/>
<polygon fill="black" stroke="black" points="1206.13,-282.89 1195.76,-280.69 1202.49,-288.87 1206.13,-282.89"/>
<text xml:space="preserve" text-anchor="middle" x="1263.97" y="-373.2" font-family="Times,serif" font-size="14.00">DDG: </text>
</g>
<!-- 124554051615 -->
<g id="node2" class="node">
<title>124554051615</title>
<polygon fill="none" stroke="black" points="1617.59,-39.5 1480.09,-39.5 1480.09,0 1617.59,0 1617.59,-39.5"/>
<text xml:space="preserve" text-anchor="start" x="1488.09" y="-22.2" font-family="Times,serif" font-size="14.00">METHOD_RETURN, 331</text>
<text xml:space="preserve" text-anchor="start" x="1538.72" y="-6.45" font-family="Times,serif" font-size="14.00">ANY</text>
</g>
<!-- 111669149738&#45;&gt;124554051615 -->
<g id="edge1" class="edge">
<title>111669149738&#45;&gt;124554051615</title>
<path fill="none" stroke="black" d="M1336.03,-251.03C1453.96,-228.5 1782.47,-158.98 1843.84,-73.25 1870.11,-36.57 1725.36,-25.49 1629.28,-22.16"/>
<polygon fill="black" stroke="black" points="1629.44,-18.67 1619.33,-21.84 1629.21,-25.66 1629.44,-18.67"/>
<text xml:space="preserve" text-anchor="middle" x="1744.12" y="-151.2" font-family="Times,serif" font-size="14.00">DDG: cls</text>
</g>
<!-- 30064771426 -->
<g id="node12" class="node">
<title>30064771426</title>
<polygon fill="none" stroke="black" points="2989.22,-130.75 2642.47,-130.75 2642.47,-91.25 2989.22,-91.25 2989.22,-130.75"/>
<text xml:space="preserve" text-anchor="start" x="2728.09" y="-113.45" font-family="Times,serif" font-size="14.00">&lt;operator&gt;.assignment, 340</text>
<text xml:space="preserve" text-anchor="start" x="2650.47" y="-97.7" font-family="Times,serif" font-size="14.00">enrolled_students = field(default_factory = list)</text>
</g>
<!-- 30064771426&#45;&gt;124554051615 -->
<g id="edge2" class="edge">
<title>30064771426&#45;&gt;124554051615</title>
<path fill="none" stroke="black" d="M2982.54,-90.9C2997.62,-83.21 3002.45,-72.48 2987.84,-57.5 2963.97,-33.01 1928.46,-23.53 1629.1,-21.3"/>
<polygon fill="black" stroke="black" points="1629.46,-17.8 1619.44,-21.23 1629.41,-24.8 1629.46,-17.8"/>
<text xml:space="preserve" text-anchor="middle" x="3070.84" y="-59.95" font-family="Times,serif" font-size="14.00">DDG: enrolled_students</text>
</g>
<!-- 30064771426&#45;&gt;124554051615 -->
<g id="edge3" class="edge">
<title>30064771426&#45;&gt;124554051615</title>
<path fill="none" stroke="black" d="M2683.66,-90.77C2661.89,-86.04 2639.78,-80.27 2619.34,-73.25 2604.91,-68.3 2603.6,-61.36 2588.84,-57.5 2497.16,-33.5 1857.06,-24.15 1629.17,-21.56"/>
<polygon fill="black" stroke="black" points="1629.54,-18.07 1619.5,-21.45 1629.46,-25.07 1629.54,-18.07"/>
<text xml:space="preserve" text-anchor="middle" x="2801.59" y="-59.95" font-family="Times,serif" font-size="14.00">DDG: enrolled_students = field(default_factory = list)</text>
</g>
<!-- 30064771428 -->
<g id="node13" class="node">
<title>30064771428</title>
<polygon fill="none" stroke="black" points="2262.84,-130.75 1976.84,-130.75 1976.84,-91.25 2262.84,-91.25 2262.84,-130.75"/>
<text xml:space="preserve" text-anchor="start" x="2032.09" y="-113.45" font-family="Times,serif" font-size="14.00">&lt;operator&gt;.assignment, 341</text>
<text xml:space="preserve" text-anchor="start" x="1984.84" y="-97.7" font-family="Times,serif" font-size="14.00">waitlist = field(default_factory = list)</text>
</g>
<!-- 30064771428&#45;&gt;124554051615 -->
<g id="edge4" class="edge">
<title>30064771428&#45;&gt;124554051615</title>
<path fill="none" stroke="black" d="M1986.56,-90.84C1967.91,-86.17 1949.27,-80.4 1932.09,-73.25 1920.57,-68.45 1920.57,-61.76 1908.84,-57.5 1859.16,-39.44 1719.2,-29.24 1629.15,-24.38"/>
<polygon fill="black" stroke="black" points="1629.56,-20.89 1619.39,-23.86 1629.19,-27.88 1629.56,-20.89"/>
<text xml:space="preserve" text-anchor="middle" x="1975.97" y="-59.95" font-family="Times,serif" font-size="14.00">DDG: waitlist</text>
</g>
<!-- 30064771428&#45;&gt;124554051615 -->
<g id="edge6" class="edge">
<title>30064771428&#45;&gt;124554051615</title>
<path fill="none" stroke="black" d="M2077.2,-90.84C2066.02,-85.46 2054.09,-79.39 2043.34,-73.25 2032.43,-67.01 2031.72,-61.62 2019.84,-57.5 1949.83,-33.19 1743.92,-24.89 1628.89,-22.11"/>
<polygon fill="black" stroke="black" points="1629.3,-18.62 1619.22,-21.88 1629.14,-25.62 1629.3,-18.62"/>
<text xml:space="preserve" text-anchor="middle" x="2158.09" y="-59.95" font-family="Times,serif" font-size="14.00">DDG: field(default_factory = list)</text>
</g>
<!-- 30064771428&#45;&gt;124554051615 -->
<g id="edge7" class="edge">
<title>30064771428&#45;&gt;124554051615</title>
<path fill="none" stroke="black" d="M2263.25,-91.12C2280.33,-83.45 2287.26,-72.66 2272.84,-57.5 2250.97,-34.49 1813.71,-24.92 1629.53,-21.9"/>
<polygon fill="black" stroke="black" points="1629.6,-18.4 1619.55,-21.74 1629.49,-25.4 1629.6,-18.4"/>
<text xml:space="preserve" text-anchor="middle" x="2432.47" y="-59.95" font-family="Times,serif" font-size="14.00">DDG: waitlist = field(default_factory = list)</text>
</g>
<!-- 30064771433&#45;&gt;124554051615 -->
<g id="edge8" class="edge">
<title>30064771433&#45;&gt;124554051615</title>
<path fill="none" stroke="black" d="M313.81,-90.94C319.88,-79.05 329.49,-64.69 342.84,-57.5 392.34,-30.86 1206.96,-23.06 1468.61,-21.23"/>
<polygon fill="black" stroke="black" points="1468.42,-24.73 1478.4,-21.16 1468.37,-17.73 1468.42,-24.73"/>
<text xml:space="preserve" text-anchor="middle" x="410.34" y="-59.95" font-family="Times,serif" font-size="14.00">DDG: seats_available</text>
</g>
<!-- 30064771433&#45;&gt;124554051615 -->
<g id="edge9" class="edge">
<title>30064771433&#45;&gt;124554051615</title>
<path fill="none" stroke="black" d="M156.04,-103.49C68.22,-96.87 -20.95,-83.66 4.59,-57.5 30.39,-31.08 1155.14,-22.92 1468.54,-21.15"/>
<polygon fill="black" stroke="black" points="1468.29,-24.66 1478.27,-21.1 1468.25,-17.66 1468.29,-24.66"/>
<text xml:space="preserve" text-anchor="middle" x="163.22" y="-59.95" font-family="Times,serif" font-size="14.00">DDG: seats_available = def seats_available(...)</text>
</g>
<!-- 30064771438&#45;&gt;124554051615 -->
<g id="edge10" class="edge">
<title>30064771438&#45;&gt;124554051615</title>
<path fill="none" stroke="black" d="M695.27,-90.77C696.05,-79.27 699.18,-65.41 708.84,-57.5 737.93,-33.7 1264.03,-24.41 1468.5,-21.68"/>
<polygon fill="black" stroke="black" points="1468.28,-25.19 1478.24,-21.56 1468.19,-18.19 1468.28,-25.19"/>
<text xml:space="preserve" text-anchor="middle" x="749.34" y="-59.95" font-family="Times,serif" font-size="14.00">DDG: is_full</text>
</g>
<!-- 30064771438&#45;&gt;124554051615 -->
<g id="edge11" class="edge">
<title>30064771438&#45;&gt;124554051615</title>
<path fill="none" stroke="black" d="M599.87,-105.02C551.78,-100.3 500.61,-91.12 485.59,-73.25 481.09,-67.89 480.73,-62.53 485.59,-57.5 519.6,-22.3 1226.52,-20.2 1468.46,-20.51"/>
<polygon fill="black" stroke="black" points="1468.11,-24.01 1478.11,-20.53 1468.12,-17.01 1468.11,-24.01"/>
<text xml:space="preserve" text-anchor="middle" x="590.22" y="-59.95" font-family="Times,serif" font-size="14.00">DDG: is_full = def is_full(...)</text>
</g>
<!-- 30064771471&#45;&gt;124554051615 -->
<g id="edge12" class="edge">
<title>30064771471&#45;&gt;124554051615</title>
<path fill="none" stroke="black" d="M989.73,-90.98C1004.11,-79.11 1024.27,-64.75 1044.84,-57.5 1120.7,-30.78 1346.4,-23.48 1468.41,-21.49"/>
<polygon fill="black" stroke="black" points="1468.43,-24.99 1478.37,-21.34 1468.32,-18 1468.43,-24.99"/>
<text xml:space="preserve" text-anchor="middle" x="1085.34" y="-59.95" font-family="Times,serif" font-size="14.00">DDG: to_dict</text>
</g>
<!-- 30064771471&#45;&gt;124554051615 -->
<g id="edge13" class="edge">
<title>30064771471&#45;&gt;124554051615</title>
<path fill="none" stroke="black" d="M872.79,-105.64C821.67,-99.93 774.58,-86.93 802.59,-57.5 825.26,-33.69 1280.13,-24.54 1468.37,-21.77"/>
<polygon fill="black" stroke="black" points="1468.37,-25.27 1478.32,-21.62 1468.27,-18.27 1468.37,-25.27"/>
<text xml:space="preserve" text-anchor="middle" x="907.22" y="-59.95" font-family="Times,serif" font-size="14.00">DDG: to_dict = def to_dict(...)</text>
</g>
<!-- 30064771492 -->
<g id="node17" class="node">
<title>30064771492</title>
<polygon fill="none" stroke="black" points="1521.34,-130.75 1208.34,-130.75 1208.34,-91.25 1521.34,-91.25 1521.34,-130.75"/>
<text xml:space="preserve" text-anchor="start" x="1277.09" y="-113.45" font-family="Times,serif" font-size="14.00">&lt;operator&gt;.assignment, 365</text>
<text xml:space="preserve" text-anchor="start" x="1216.34" y="-97.7" font-family="Times,serif" font-size="14.00">from_dict = staticmethod(def from_dict(...))</text>
</g>
<!-- 30064771492&#45;&gt;124554051615 -->
<g id="edge14" class="edge">
<title>30064771492&#45;&gt;124554051615</title>
<path fill="none" stroke="black" d="M1426.62,-90.77C1440.46,-85.69 1454.87,-79.78 1467.84,-73.25 1479.07,-67.59 1480.82,-64.39 1491.34,-57.5 1497.13,-53.71 1503.27,-49.74 1509.3,-45.86"/>
<polygon fill="black" stroke="black" points="1510.82,-49.05 1517.35,-40.71 1507.04,-43.15 1510.82,-49.05"/>
<text xml:space="preserve" text-anchor="middle" x="1538.59" y="-59.95" font-family="Times,serif" font-size="14.00">DDG: from_dict</text>
</g>
<!-- 30064771492&#45;&gt;124554051615 -->
<g id="edge15" class="edge">
<title>30064771492&#45;&gt;124554051615</title>
<path fill="none" stroke="black" d="M1521.73,-98.35C1551.22,-92.91 1575.94,-84.93 1585.84,-73.25 1592.48,-65.42 1589.56,-56.44 1583.1,-48.14"/>
<polygon fill="black" stroke="black" points="1585.75,-45.85 1576.37,-40.92 1580.63,-50.62 1585.75,-45.85"/>
<text xml:space="preserve" text-anchor="middle" x="1714.48" y="-59.95" font-family="Times,serif" font-size="14.00">DDG: staticmethod(def from_dict(...))</text>
</g>
<!-- 30064771492&#45;&gt;124554051615 -->
<g id="edge16" class="edge">
<title>30064771492&#45;&gt;124554051615</title>
<path fill="none" stroke="black" d="M1208.13,-100.39C1173.84,-94.94 1144.37,-86.45 1133.09,-73.25 1128.55,-67.93 1128.37,-62.66 1133.09,-57.5 1155.24,-33.31 1353.97,-24.96 1468.46,-22.14"/>
<polygon fill="black" stroke="black" points="1468.52,-25.64 1478.44,-21.9 1468.36,-18.64 1468.52,-25.64"/>
<text xml:space="preserve" text-anchor="middle" x="1298.47" y="-59.95" font-family="Times,serif" font-size="14.00">DDG: from_dict = staticmethod(def from_dict(...))</text>
</g>
<!-- 30064771425&#45;&gt;30064771426 -->
<g id="edge26" class="edge">
<title>30064771425&#45;&gt;30064771426</title>
<path fill="none" stroke="black" d="M2815.84,-304.93C2815.84,-268.01 2815.84,-186.87 2815.84,-142.48"/>
<polygon fill="black" stroke="black" points="2819.34,-142.52 2815.84,-132.52 2812.34,-142.52 2819.34,-142.52"/>
<text xml:space="preserve" text-anchor="middle" x="2846.22" y="-196.82" font-family="Times,serif" font-size="14.00">DDG: list</text>
</g>
<!-- 30064771425&#45;&gt;30064771427 -->
<g id="edge37" class="edge">
<title>30064771425&#45;&gt;30064771427</title>
<path fill="none" stroke="black" d="M2737.17,-304.89C2725.05,-302.22 2712.64,-299.66 2700.84,-297.5 2497.94,-260.4 2259.38,-231.27 2120.25,-215.72"/>
<polygon fill="black" stroke="black" points="2121,-212.28 2110.67,-214.65 2120.22,-219.23 2121,-212.28"/>
<text xml:space="preserve" text-anchor="middle" x="2617.63" y="-254.32" font-family="Times,serif" font-size="14.00">DDG: list</text>
</g>
<!-- 30064771427&#45;&gt;124554051615 -->
<g id="edge5" class="edge">
<title>30064771427&#45;&gt;124554051615</title>
<path fill="none" stroke="black" d="M1966.51,-182.11C1946.42,-169.85 1922.48,-152.23 1907.09,-130.75 1887.2,-102.99 1910.27,-79.15 1883.84,-57.5 1864.54,-41.68 1722.14,-30.62 1629.31,-25.01"/>
<polygon fill="black" stroke="black" points="1629.67,-21.52 1619.48,-24.42 1629.26,-28.51 1629.67,-21.52"/>
<text xml:space="preserve" text-anchor="middle" x="1937.47" y="-105.58" font-family="Times,serif" font-size="14.00">DDG: list</text>
</g>
<!-- 30064771427&#45;&gt;30064771428 -->
<g id="edge27" class="edge">
<title>30064771427&#45;&gt;30064771428</title>
<path fill="none" stroke="black" d="M2027.94,-182.1C2044.83,-169.22 2067.3,-152.08 2085.8,-137.97"/>
<polygon fill="black" stroke="black" points="2087.75,-140.88 2093.58,-132.03 2083.51,-135.31 2087.75,-140.88"/>
<text xml:space="preserve" text-anchor="middle" x="2098.72" y="-151.2" font-family="Times,serif" font-size="14.00">DDG: list</text>
</g>
<!-- 30064771491&#45;&gt;30064771492 -->
<g id="edge31" class="edge">
<title>30064771491&#45;&gt;30064771492</title>
<path fill="none" stroke="black" d="M1161.44,-239.57C1203.22,-213.36 1278.21,-166.33 1324.54,-137.28"/>
<polygon fill="black" stroke="black" points="1326.35,-140.27 1332.96,-131.99 1322.63,-134.34 1326.35,-140.27"/>
<text xml:space="preserve" text-anchor="middle" x="1325.47" y="-196.82" font-family="Times,serif" font-size="14.00">DDG: def from_dict(...)</text>
</g>
<!-- 30064771091 -->
<g id="node24" class="node">
<title>30064771091</title>
<polygon fill="none" stroke="black" points="3090.97,-442.25 3000.72,-442.25 3000.72,-406.25 3090.97,-406.25 3090.97,-442.25"/>
<text xml:space="preserve" text-anchor="middle" x="3045.84" y="-418.82" font-family="Times,serif" font-size="14.00">30064771091</text>
</g>
<!-- 30064771091&#45;&gt;68719477091 -->
<g id="edge32" class="edge">
<title>30064771091&#45;&gt;68719477091</title>
<path fill="none" stroke="black" d="M3045.84,-405.89C3045.84,-394.35 3045.84,-378.73 3045.84,-364.38"/>
<polygon fill="black" stroke="black" points="3049.34,-364.75 3045.84,-354.75 3042.34,-364.75 3049.34,-364.75"/>
<text xml:space="preserve" text-anchor="middle" x="3079.59" y="-373.2" font-family="Times,serif" font-size="14.00">DDG: field</text>
</g>
<!-- 30064771082 -->
<g id="node25" class="node">
<title>30064771082</title>
<polygon fill="none" stroke="black" points="2860.97,-442.25 2770.72,-442.25 2770.72,-406.25 2860.97,-406.25 2860.97,-442.25"/>
<text xml:space="preserve" text-anchor="middle" x="2815.84" y="-418.82" font-family="Times,serif" font-size="14.00">30064771082</text>
</g>
<!-- 30064771082&#45;&gt;30064771425 -->
<g id="edge34" class="edge">
<title>30064771082&#45;&gt;30064771425</title>
<path fill="none" stroke="black" d="M2815.84,-405.89C2815.84,-392.19 2815.84,-372.74 2815.84,-356.48"/>
<polygon fill="black" stroke="black" points="2819.34,-356.85 2815.84,-346.85 2812.34,-356.85 2819.34,-356.85"/>
<text xml:space="preserve" text-anchor="middle" x="2846.22" y="-373.2" font-family="Times,serif" font-size="14.00">DDG: list</text>
</g>
<!-- 30064771078 -->
<g id="node26" class="node">
<title>30064771078</title>
<polygon fill="none" stroke="black" points="3330.97,-442.25 3240.72,-442.25 3240.72,-406.25 3330.97,-406.25 3330.97,-442.25"/>
<text xml:space="preserve" text-anchor="middle" x="3285.84" y="-418.82" font-family="Times,serif" font-size="14.00">30064771078</text>
</g>
<!-- 30064771078&#45;&gt;68719477144 -->
<g id="edge39" class="edge">
<title>30064771078&#45;&gt;68719477144</title>
<path fill="none" stroke="black" d="M3285.84,-405.89C3285.84,-394.35 3285.84,-378.73 3285.84,-364.38"/>
<polygon fill="black" stroke="black" points="3289.34,-364.75 3285.84,-354.75 3282.34,-364.75 3289.34,-364.75"/>
<text xml:space="preserve" text-anchor="middle" x="3343.22" y="-373.2" font-family="Times,serif" font-size="14.00">DDG: staticmethod</text>
</g>
</g>
</svg>
