<?xml version="1.0" encoding="UTF-8" standalone="no"?>
<!DOCTYPE svg PUBLIC "-//W3C//DTD SVG 1.1//EN"
 "http://www.w3.org/Graphics/SVG/1.1/DTD/svg11.dtd">
<!-- Generated by graphviz version 13.1.2 (20250809.0930)
 -->
<!-- Title: seats_available&lt;metaClassAdapter&gt; Pages: 1 -->
<svg width="637pt" height="436pt"
 viewBox="0.00 0.00 637.00 436.00" xmlns="http://www.w3.org/2000/svg" xmlns:xlink="http://www.w3.org/1999/xlink">
<g id="graph0" class="graph" transform="scale(1 1) rotate(0) translate(4 432.25)">
<title>seats_available&lt;metaClassAdapter&gt;</title>
<polygon fill="white" stroke="none" points="-4,4 -4,-432.25 633.25,-432.25 633.25,4 -4,4"/>
<!-- 107374182439 -->
<g id="node1" class="node">
<title>107374182439</title>
<polygon fill="none" stroke="black" points="299.12,-428.25 60.37,-428.25 60.37,-388.75 299.12,-388.75 299.12,-428.25"/>
<text xml:space="preserve" text-anchor="start" x="142.62" y="-410.95" font-family="Times,serif" font-size="14.00">METHOD, 343</text>
<text xml:space="preserve" text-anchor="start" x="68.38" y="-395.2" font-family="Times,serif" font-size="14.00">seats_available&lt;metaClassAdapter&gt;</text>
</g>
<!-- 111669149746 -->
<g id="node3" class="node">
<title>111669149746</title>
<polygon fill="none" stroke="black" points="83.5,-279.5 0,-279.5 0,-240 83.5,-240 83.5,-279.5"/>
<text xml:space="preserve" text-anchor="start" x="8" y="-262.2" font-family="Times,serif" font-size="14.00">PARAM, 343</text>
<text xml:space="preserve" text-anchor="start" x="31.62" y="-246.45" font-family="Times,serif" font-size="14.00">cls</text>
</g>
<!-- 107374182439&#45;&gt;111669149746 -->
<g id="edge5" class="edge">
<title>107374182439&#45;&gt;111669149746</title>
<path fill="none" stroke="black" d="M159.55,-388.27C153.81,-382.68 147.6,-376.53 142,-370.75 115.35,-343.21 85.93,-310.66 65.9,-288.15"/>
<polygon fill="black" stroke="black" points="68.7,-286.04 59.45,-280.88 63.47,-290.68 68.7,-286.04"/>
<text xml:space="preserve" text-anchor="middle" x="158.88" y="-357.45" font-family="Times,serif" font-size="14.00">DDG: </text>
</g>
<!-- 111669149747 -->
<g id="node4" class="node">
<title>111669149747</title>
<polygon fill="none" stroke="black" points="221.5,-337 138,-337 138,-297.5 221.5,-297.5 221.5,-337"/>
<text xml:space="preserve" text-anchor="start" x="146" y="-319.7" font-family="Times,serif" font-size="14.00">PARAM, 343</text>
<text xml:space="preserve" text-anchor="start" x="166.25" y="-303.95" font-family="Times,serif" font-size="14.00">self</text>
</g>
<!-- 107374182439&#45;&gt;111669149747 -->
<g id="edge6" class="edge">
<title>107374182439&#45;&gt;111669149747</title>
<path fill="none" stroke="black" d="M179.75,-388.57C179.75,-377.05 179.75,-362.07 179.75,-348.9"/>
<polygon fill="black" stroke="black" points="183.25,-348.97 179.75,-338.97 176.25,-348.97 183.25,-348.97"/>
<text xml:space="preserve" text-anchor="middle" x="196.62" y="-357.45" font-family="Times,serif" font-size="14.00">DDG: </text>
</g>
<!-- 30064771500 -->
<g id="node6" class="node">
<title>30064771500</title>
<polygon fill="none" stroke="black" points="468.25,-222 47.25,-222 47.25,-182.5 468.25,-182.5 468.25,-222"/>
<text xml:space="preserve" text-anchor="start" x="55.25" y="-204.7" font-family="Times,serif" font-size="14.00">AI_generated_code_1.py:&lt;module&gt;.Section.seats_available, 343</text>
<text xml:space="preserve" text-anchor="start" x="186.88" y="-188.95" font-family="Times,serif" font-size="14.00">seats_available(self)</text>
</g>
<!-- 107374182439&#45;&gt;30064771500 -->
<g id="edge9" class="edge">
<title>107374182439&#45;&gt;30064771500</title>
<path fill="none" stroke="black" d="M202.79,-388.34C208.2,-383.05 213.59,-377.02 217.75,-370.75 245.71,-328.53 254.18,-268.87 256.71,-233.32"/>
<polygon fill="black" stroke="black" points="260.18,-233.94 257.27,-223.75 253.19,-233.53 260.18,-233.94"/>
<text xml:space="preserve" text-anchor="middle" x="263.78" y="-311.82" font-family="Times,serif" font-size="14.00">DDG: </text>
</g>
<!-- 124554051623 -->
<g id="node2" class="node">
<title>124554051623</title>
<polygon fill="none" stroke="black" points="250.5,-39.5 113,-39.5 113,0 250.5,0 250.5,-39.5"/>
<text xml:space="preserve" text-anchor="start" x="121" y="-22.2" font-family="Times,serif" font-size="14.00">METHOD_RETURN, 343</text>
<text xml:space="preserve" text-anchor="start" x="137.88" y="-6.45" font-family="Times,serif" font-size="14.00">__builtin.int</text>
</g>
<!-- 111669149746&#45;&gt;124554051623 -->
<g id="edge2" class="edge">
<title>111669149746&#45;&gt;124554051623</title>
<path fill="none" stroke="black" d="M36.63,-239.62C33.35,-223.8 30.86,-201.01 37.75,-182.5 59.09,-125.17 111.47,-75.37 146.82,-46.69"/>
<polygon fill="black" stroke="black" points="148.57,-49.77 154.23,-40.81 144.22,-44.29 148.57,-49.77"/>
<text xml:space="preserve" text-anchor="middle" x="80.92" y="-151.2" font-family="Times,serif" font-size="14.00">DDG: cls</text>
</g>
<!-- 111669149747&#45;&gt;30064771500 -->
<g id="edge8" class="edge">
<title>111669149747&#45;&gt;30064771500</title>
<path fill="none" stroke="black" d="M175.47,-297.07C172.91,-280.58 171.99,-256.87 183,-240 185.62,-235.98 188.82,-232.39 192.4,-229.17"/>
<polygon fill="black" stroke="black" points="194.33,-232.11 200.16,-223.27 190.08,-226.54 194.33,-232.11"/>
<text xml:space="preserve" text-anchor="middle" x="213.38" y="-254.32" font-family="Times,serif" font-size="14.00">DDG: self</text>
</g>
<!-- 141733920805 -->
<g id="node5" class="node">
<title>141733920805</title>
<polygon fill="none" stroke="black" points="629.25,-130.75 424.25,-130.75 424.25,-91.25 629.25,-91.25 629.25,-130.75"/>
<text xml:space="preserve" text-anchor="start" x="489.62" y="-113.45" font-family="Times,serif" font-size="14.00">RETURN, 343</text>
<text xml:space="preserve" text-anchor="start" x="432.25" y="-97.7" font-family="Times,serif" font-size="14.00">return seats_available(self)</text>
</g>
<!-- 141733920805&#45;&gt;124554051623 -->
<g id="edge1" class="edge">
<title>141733920805&#45;&gt;124554051623</title>
<path fill="none" stroke="black" d="M452.74,-90.85C396.57,-76.32 319.44,-56.37 261.83,-41.47"/>
<polygon fill="black" stroke="black" points="262.96,-38.14 252.41,-39.03 261.21,-44.92 262.96,-38.14"/>
<text xml:space="preserve" text-anchor="middle" x="408.66" y="-59.95" font-family="Times,serif" font-size="14.00">DDG: &lt;RET&gt;</text>
</g>
<!-- 30064771500&#45;&gt;124554051623 -->
<g id="edge3" class="edge">
<title>30064771500&#45;&gt;124554051623</title>
<path fill="none" stroke="black" d="M207.05,-182.03C184.72,-170.73 160.7,-154 148,-130.75 133.9,-104.94 147.18,-72.44 161.01,-49.48"/>
<polygon fill="black" stroke="black" points="163.84,-51.55 166.28,-41.24 157.94,-47.77 163.84,-51.55"/>
<text xml:space="preserve" text-anchor="middle" x="178.38" y="-105.58" font-family="Times,serif" font-size="14.00">DDG: self</text>
</g>
<!-- 30064771500&#45;&gt;124554051623 -->
<g id="edge4" class="edge">
<title>30064771500&#45;&gt;124554051623</title>
<path fill="none" stroke="black" d="M249.76,-182.27C236.48,-150.72 209.75,-87.26 194.05,-49.97"/>
<polygon fill="black" stroke="black" points="197.44,-49 190.33,-41.14 190.99,-51.71 197.44,-49"/>
<text xml:space="preserve" text-anchor="middle" x="315.05" y="-105.58" font-family="Times,serif" font-size="14.00">DDG: seats_available(self)</text>
</g>
<!-- 30064771500&#45;&gt;141733920805 -->
<g id="edge7" class="edge">
<title>30064771500&#45;&gt;141733920805</title>
<path fill="none" stroke="black" d="M315.46,-182.1C357.39,-168.19 414.29,-149.31 458.48,-134.65"/>
<polygon fill="black" stroke="black" points="459.31,-138.06 467.7,-131.59 457.11,-131.42 459.31,-138.06"/>
<text xml:space="preserve" text-anchor="middle" x="496.11" y="-151.2" font-family="Times,serif" font-size="14.00">DDG: seats_available(self)</text>
</g>
</g>
</svg>
