<?xml version="1.0" encoding="UTF-8" standalone="no"?>
<!DOCTYPE svg PUBLIC "-//W3C//DTD SVG 1.1//EN"
 "http://www.w3.org/Graphics/SVG/1.1/DTD/svg11.dtd">
<!-- Generated by graphviz version 13.1.2 (20250809.0930)
 -->
<!-- Title: &lt;body&gt; Pages: 1 -->
<svg width="1484pt" height="361pt"
 viewBox="0.00 0.00 1484.00 361.00" xmlns="http://www.w3.org/2000/svg" xmlns:xlink="http://www.w3.org/1999/xlink">
<g id="graph0" class="graph" transform="scale(1 1) rotate(0) translate(4 356.75)">
<title>&lt;body&gt;</title>
<polygon fill="white" stroke="none" points="-4,4 -4,-356.75 1480.47,-356.75 1480.47,4 -4,4"/>
<!-- 107374182441 -->
<g id="node1" class="node">
<title>107374182441</title>
<polygon fill="none" stroke="black" points="816.6,-352.75 726.35,-352.75 726.35,-313.25 816.6,-313.25 816.6,-352.75"/>
<text xml:space="preserve" text-anchor="start" x="734.35" y="-335.45" font-family="Times,serif" font-size="14.00">METHOD, 380</text>
<text xml:space="preserve" text-anchor="start" x="751.22" y="-319.7" font-family="Times,serif" font-size="14.00">&lt;body&gt;</text>
</g>
<!-- 111669149750 -->
<g id="node3" class="node">
<title>111669149750</title>
<polygon fill="none" stroke="black" points="95.22,-188.25 11.72,-188.25 11.72,-148.75 95.22,-148.75 95.22,-188.25"/>
<text xml:space="preserve" text-anchor="start" x="19.72" y="-170.95" font-family="Times,serif" font-size="14.00">PARAM, 380</text>
<text xml:space="preserve" text-anchor="start" x="43.35" y="-155.2" font-family="Times,serif" font-size="14.00">cls</text>
</g>
<!-- 107374182441&#45;&gt;111669149750 -->
<g id="edge7" class="edge">
<title>107374182441&#45;&gt;111669149750</title>
<path fill="none" stroke="black" d="M726.14,-332.03C586.36,-331.78 168.39,-328.25 117.72,-295.25 84.54,-273.63 67.65,-229.22 59.7,-199.39"/>
<polygon fill="black" stroke="black" points="63.14,-198.72 57.36,-189.84 56.35,-200.39 63.14,-198.72"/>
<text xml:space="preserve" text-anchor="middle" x="134.6" y="-281.95" font-family="Times,serif" font-size="14.00">DDG: </text>
</g>
<!-- 90194313352 -->
<g id="node4" class="node">
<title>90194313352</title>
<polygon fill="none" stroke="black" points="821.22,-253.62 467.72,-253.62 467.72,-214.12 821.22,-214.12 821.22,-253.62"/>
<text xml:space="preserve" text-anchor="start" x="603.97" y="-236.32" font-family="Times,serif" font-size="14.00">LITERAL, 381</text>
<text xml:space="preserve" text-anchor="start" x="475.72" y="-220.57" font-family="Times,serif" font-size="14.00">&quot;&quot;&quot;Represents a registration outcome or status ...</text>
</g>
<!-- 107374182441&#45;&gt;90194313352 -->
<g id="edge8" class="edge">
<title>107374182441&#45;&gt;90194313352</title>
<path fill="none" stroke="black" d="M746.38,-312.81C726.99,-297.98 699.94,-277.29 678.58,-260.96"/>
<polygon fill="black" stroke="black" points="680.78,-258.24 670.71,-254.94 676.53,-263.8 680.78,-258.24"/>
<text xml:space="preserve" text-anchor="middle" x="739.96" y="-281.95" font-family="Times,serif" font-size="14.00">DDG: </text>
</g>
<!-- 68719477155 -->
<g id="node5" class="node">
<title>68719477155</title>
<polygon fill="none" stroke="black" points="956.1,-253.62 838.85,-253.62 838.85,-214.12 956.1,-214.12 956.1,-253.62"/>
<text xml:space="preserve" text-anchor="start" x="846.85" y="-236.32" font-family="Times,serif" font-size="14.00">IDENTIFIER, 382</text>
<text xml:space="preserve" text-anchor="start" x="863.72" y="-220.57" font-family="Times,serif" font-size="14.00">student_id</text>
</g>
<!-- 107374182441&#45;&gt;68719477155 -->
<g id="edge9" class="edge">
<title>107374182441&#45;&gt;68719477155</title>
<path fill="none" stroke="black" d="M796.37,-312.81C815.61,-297.98 842.45,-277.29 863.64,-260.96"/>
<polygon fill="black" stroke="black" points="865.65,-263.83 871.43,-254.95 861.38,-258.28 865.65,-263.83"/>
<text xml:space="preserve" text-anchor="middle" x="855.13" y="-281.95" font-family="Times,serif" font-size="14.00">DDG: </text>
</g>
<!-- 68719477156 -->
<g id="node6" class="node">
<title>68719477156</title>
<polygon fill="none" stroke="black" points="1091.1,-253.62 973.85,-253.62 973.85,-214.12 1091.1,-214.12 1091.1,-253.62"/>
<text xml:space="preserve" text-anchor="start" x="981.85" y="-236.32" font-family="Times,serif" font-size="14.00">IDENTIFIER, 383</text>
<text xml:space="preserve" text-anchor="start" x="998.72" y="-220.57" font-family="Times,serif" font-size="14.00">section_id</text>
</g>
<!-- 107374182441&#45;&gt;68719477156 -->
<g id="edge10" class="edge">
<title>107374182441&#45;&gt;68719477156</title>
<path fill="none" stroke="black" d="M817.05,-316.34C835.53,-309.91 857.06,-302.33 876.47,-295.25 916.22,-280.76 926.04,-276.81 965.47,-261.5 968.28,-260.41 971.14,-259.29 974.04,-258.16"/>
<polygon fill="black" stroke="black" points="975.13,-261.49 983.16,-254.57 972.57,-254.98 975.13,-261.49"/>
<text xml:space="preserve" text-anchor="middle" x="935" y="-281.95" font-family="Times,serif" font-size="14.00">DDG: </text>
</g>
<!-- 68719477157 -->
<g id="node7" class="node">
<title>68719477157</title>
<polygon fill="none" stroke="black" points="1226.1,-253.62 1108.85,-253.62 1108.85,-214.12 1226.1,-214.12 1226.1,-253.62"/>
<text xml:space="preserve" text-anchor="start" x="1116.85" y="-236.32" font-family="Times,serif" font-size="14.00">IDENTIFIER, 384</text>
<text xml:space="preserve" text-anchor="start" x="1147.22" y="-220.57" font-family="Times,serif" font-size="14.00">status</text>
</g>
<!-- 107374182441&#45;&gt;68719477157 -->
<g id="edge11" class="edge">
<title>107374182441&#45;&gt;68719477157</title>
<path fill="none" stroke="black" d="M816.85,-325.01C880.95,-314.52 1001.25,-292.57 1100.47,-261.5 1104,-260.4 1107.6,-259.19 1111.21,-257.93"/>
<polygon fill="black" stroke="black" points="1112.41,-261.22 1120.61,-254.51 1110.01,-254.64 1112.41,-261.22"/>
<text xml:space="preserve" text-anchor="middle" x="1046.44" y="-281.95" font-family="Times,serif" font-size="14.00">DDG: </text>
</g>
<!-- 30064771515 -->
<g id="node8" class="node">
<title>30064771515</title>
<polygon fill="none" stroke="black" points="261.22,-130.75 69.72,-130.75 69.72,-91.25 261.22,-91.25 261.22,-130.75"/>
<text xml:space="preserve" text-anchor="start" x="77.72" y="-113.45" font-family="Times,serif" font-size="14.00">&lt;operator&gt;.assignment, 386</text>
<text xml:space="preserve" text-anchor="start" x="77.72" y="-97.7" font-family="Times,serif" font-size="14.00">to_dict = def to_dict(...)</text>
</g>
<!-- 107374182441&#45;&gt;30064771515 -->
<g id="edge12" class="edge">
<title>107374182441&#45;&gt;30064771515</title>
<path fill="none" stroke="black" d="M726.14,-329.94C593.41,-323.45 212.54,-301.48 174.72,-261.5 144.83,-229.9 150.06,-175.76 157.27,-142.04"/>
<polygon fill="black" stroke="black" points="160.63,-143.04 159.5,-132.5 153.81,-141.44 160.63,-143.04"/>
<text xml:space="preserve" text-anchor="middle" x="191.6" y="-228.45" font-family="Times,serif" font-size="14.00">DDG: </text>
</g>
<!-- 68719477172 -->
<g id="node10" class="node">
<title>68719477172</title>
<polygon fill="none" stroke="black" points="1476.47,-261.5 1244.47,-261.5 1244.47,-206.25 1476.47,-206.25 1476.47,-261.5"/>
<text xml:space="preserve" text-anchor="start" x="1309.85" y="-244.2" font-family="Times,serif" font-size="14.00">IDENTIFIER, 393</text>
<text xml:space="preserve" text-anchor="start" x="1319.97" y="-228.45" font-family="Times,serif" font-size="14.00">staticmethod</text>
<text xml:space="preserve" text-anchor="start" x="1252.47" y="-212.7" font-family="Times,serif" font-size="14.00">staticmethod(def from_dict(...))</text>
</g>
<!-- 107374182441&#45;&gt;68719477172 -->
<g id="edge15" class="edge">
<title>107374182441&#45;&gt;68719477172</title>
<path fill="none" stroke="black" d="M817.01,-327.41C875.26,-321.3 979.17,-309.58 1067.47,-295.25 1139.27,-283.6 1159.14,-277.49 1233.22,-261.97"/>
<polygon fill="black" stroke="black" points="1233.48,-265.49 1242.56,-260.03 1232.06,-258.64 1233.48,-265.49"/>
<text xml:space="preserve" text-anchor="middle" x="1168.57" y="-281.95" font-family="Times,serif" font-size="14.00">DDG: </text>
</g>
<!-- 30064771520 -->
<g id="node11" class="node">
<title>30064771520</title>
<polygon fill="none" stroke="black" points="449.47,-253.62 217.47,-253.62 217.47,-214.12 449.47,-214.12 449.47,-253.62"/>
<text xml:space="preserve" text-anchor="start" x="276.1" y="-236.32" font-family="Times,serif" font-size="14.00">staticmethod, 393</text>
<text xml:space="preserve" text-anchor="start" x="225.47" y="-220.57" font-family="Times,serif" font-size="14.00">staticmethod(def from_dict(...))</text>
</g>
<!-- 107374182441&#45;&gt;30064771520 -->
<g id="edge16" class="edge">
<title>107374182441&#45;&gt;30064771520</title>
<path fill="none" stroke="black" d="M726.25,-321.97C657.04,-306.63 523.22,-276.95 431.17,-256.54"/>
<polygon fill="black" stroke="black" points="432.16,-253.17 421.64,-254.42 430.64,-260.01 432.16,-253.17"/>
<text xml:space="preserve" text-anchor="middle" x="621.46" y="-281.95" font-family="Times,serif" font-size="14.00">DDG: </text>
</g>
<!-- 124554051625 -->
<g id="node2" class="node">
<title>124554051625</title>
<polygon fill="none" stroke="black" points="334.22,-39.5 196.72,-39.5 196.72,0 334.22,0 334.22,-39.5"/>
<text xml:space="preserve" text-anchor="start" x="204.72" y="-22.2" font-family="Times,serif" font-size="14.00">METHOD_RETURN, 380</text>
<text xml:space="preserve" text-anchor="start" x="255.35" y="-6.45" font-family="Times,serif" font-size="14.00">ANY</text>
</g>
<!-- 111669149750&#45;&gt;124554051625 -->
<g id="edge1" class="edge">
<title>111669149750&#45;&gt;124554051625</title>
<path fill="none" stroke="black" d="M21.08,-148.63C15.18,-143.62 9.83,-137.64 6.47,-130.75 -8.94,-99.13 5.63,-74.42 36.47,-57.5 61.62,-43.71 129.67,-33.89 185.11,-27.89"/>
<polygon fill="black" stroke="black" points="185.28,-31.39 194.86,-26.86 184.55,-24.43 185.28,-31.39"/>
<text xml:space="preserve" text-anchor="middle" x="33.47" y="-105.58" font-family="Times,serif" font-size="14.00">DDG: cls</text>
</g>
<!-- 30064771515&#45;&gt;124554051625 -->
<g id="edge2" class="edge">
<title>30064771515&#45;&gt;124554051625</title>
<path fill="none" stroke="black" d="M69.45,-94.12C46.41,-86.16 32.11,-74.48 46.47,-57.5 64.24,-36.51 130.22,-27.5 185.16,-23.64"/>
<polygon fill="black" stroke="black" points="185.08,-27.15 194.83,-23.01 184.62,-20.16 185.08,-27.15"/>
<text xml:space="preserve" text-anchor="middle" x="86.97" y="-59.95" font-family="Times,serif" font-size="14.00">DDG: to_dict</text>
</g>
<!-- 30064771515&#45;&gt;124554051625 -->
<g id="edge3" class="edge">
<title>30064771515&#45;&gt;124554051625</title>
<path fill="none" stroke="black" d="M152.34,-90.86C146.81,-80.23 143.11,-67.23 150.22,-57.5 159.01,-45.47 171.78,-37.29 185.64,-31.74"/>
<polygon fill="black" stroke="black" points="186.68,-35.09 194.98,-28.49 184.38,-28.48 186.68,-35.09"/>
<text xml:space="preserve" text-anchor="middle" x="254.85" y="-59.95" font-family="Times,serif" font-size="14.00">DDG: to_dict = def to_dict(...)</text>
</g>
<!-- 30064771521 -->
<g id="node9" class="node">
<title>30064771521</title>
<polygon fill="none" stroke="black" points="615.97,-130.75 302.97,-130.75 302.97,-91.25 615.97,-91.25 615.97,-130.75"/>
<text xml:space="preserve" text-anchor="start" x="371.72" y="-113.45" font-family="Times,serif" font-size="14.00">&lt;operator&gt;.assignment, 394</text>
<text xml:space="preserve" text-anchor="start" x="310.97" y="-97.7" font-family="Times,serif" font-size="14.00">from_dict = staticmethod(def from_dict(...))</text>
</g>
<!-- 30064771521&#45;&gt;124554051625 -->
<g id="edge4" class="edge">
<title>30064771521&#45;&gt;124554051625</title>
<path fill="none" stroke="black" d="M416.83,-90.84C405.65,-85.46 393.72,-79.39 382.97,-73.25 372.06,-67.01 370.62,-63.32 359.47,-57.5 350.46,-52.79 340.71,-48.33 331.01,-44.24"/>
<polygon fill="black" stroke="black" points="332.53,-41.08 321.95,-40.54 329.88,-47.56 332.53,-41.08"/>
<text xml:space="preserve" text-anchor="middle" x="430.22" y="-59.95" font-family="Times,serif" font-size="14.00">DDG: from_dict</text>
</g>
<!-- 30064771521&#45;&gt;124554051625 -->
<g id="edge5" class="edge">
<title>30064771521&#45;&gt;124554051625</title>
<path fill="none" stroke="black" d="M474.43,-90.83C480.92,-80.06 485.42,-66.94 477.47,-57.5 460.61,-37.46 398.62,-28.35 346,-24.21"/>
<polygon fill="black" stroke="black" points="346.33,-20.72 336.1,-23.48 345.82,-27.7 346.33,-20.72"/>
<text xml:space="preserve" text-anchor="middle" x="606.58" y="-59.95" font-family="Times,serif" font-size="14.00">DDG: staticmethod(def from_dict(...))</text>
</g>
<!-- 30064771521&#45;&gt;124554051625 -->
<g id="edge6" class="edge">
<title>30064771521&#45;&gt;124554051625</title>
<path fill="none" stroke="black" d="M616.44,-106.69C669.08,-102 718.71,-92.39 735.47,-73.25 740.09,-67.98 740.23,-62.64 735.47,-57.5 709.61,-29.54 472.9,-22.81 345.61,-21.22"/>
<polygon fill="black" stroke="black" points="345.95,-17.72 335.91,-21.11 345.87,-24.72 345.95,-17.72"/>
<text xml:space="preserve" text-anchor="middle" x="904.36" y="-59.95" font-family="Times,serif" font-size="14.00">DDG: from_dict = staticmethod(def from_dict(...))</text>
</g>
<!-- 30064771520&#45;&gt;30064771521 -->
<g id="edge13" class="edge">
<title>30064771520&#45;&gt;30064771521</title>
<path fill="none" stroke="black" d="M353.44,-213.72C374.45,-193.56 407.7,-161.67 431.36,-138.97"/>
<polygon fill="black" stroke="black" points="433.72,-141.56 438.51,-132.11 428.87,-136.51 433.72,-141.56"/>
<text xml:space="preserve" text-anchor="middle" x="496.34" y="-163.07" font-family="Times,serif" font-size="14.00">DDG: def from_dict(...)</text>
</g>
<!-- 30064771078 -->
<g id="node12" class="node">
<title>30064771078</title>
<polygon fill="none" stroke="black" points="1405.6,-351 1315.35,-351 1315.35,-315 1405.6,-315 1405.6,-351"/>
<text xml:space="preserve" text-anchor="middle" x="1360.47" y="-327.57" font-family="Times,serif" font-size="14.00">30064771078</text>
</g>
<!-- 30064771078&#45;&gt;68719477172 -->
<g id="edge14" class="edge">
<title>30064771078&#45;&gt;68719477172</title>
<path fill="none" stroke="black" d="M1360.47,-314.64C1360.47,-303.1 1360.47,-287.48 1360.47,-273.13"/>
<polygon fill="black" stroke="black" points="1363.97,-273.5 1360.47,-263.5 1356.97,-273.5 1363.97,-273.5"/>
<text xml:space="preserve" text-anchor="middle" x="1417.85" y="-281.95" font-family="Times,serif" font-size="14.00">DDG: staticmethod</text>
</g>
</g>
</svg>
