<?xml version="1.0" encoding="UTF-8" standalone="no"?>
<!DOCTYPE svg PUBLIC "-//W3C//DTD SVG 1.1//EN"
 "http://www.w3.org/Graphics/SVG/1.1/DTD/svg11.dtd">
<!-- Generated by graphviz version 13.1.2 (20250809.0930)
 -->
<!-- Title: to_dict Pages: 1 -->
<svg width="2577pt" height="583pt"
 viewBox="0.00 0.00 2577.00 583.00" xmlns="http://www.w3.org/2000/svg" xmlns:xlink="http://www.w3.org/1999/xlink">
<g id="graph0" class="graph" transform="scale(1 1) rotate(0) translate(4 578.5)">
<title>to_dict</title>
<polygon fill="white" stroke="none" points="-4,4 -4,-578.5 2572.54,-578.5 2572.54,4 -4,4"/>
<!-- 107374182442 -->
<g id="node1" class="node">
<title>107374182442</title>
<polygon fill="none" stroke="black" points="2161.91,-574.5 2071.66,-574.5 2071.66,-535 2161.91,-535 2161.91,-574.5"/>
<text xml:space="preserve" text-anchor="start" x="2079.66" y="-557.2" font-family="Times,serif" font-size="14.00">METHOD, 386</text>
<text xml:space="preserve" text-anchor="start" x="2093.16" y="-541.45" font-family="Times,serif" font-size="14.00">to_dict</text>
</g>
<!-- 111669149751 -->
<g id="node3" class="node">
<title>111669149751</title>
<polygon fill="none" stroke="black" points="883.54,-475.38 800.04,-475.38 800.04,-435.88 883.54,-435.88 883.54,-475.38"/>
<text xml:space="preserve" text-anchor="start" x="808.04" y="-458.07" font-family="Times,serif" font-size="14.00">PARAM, 386</text>
<text xml:space="preserve" text-anchor="start" x="828.29" y="-442.32" font-family="Times,serif" font-size="14.00">self</text>
</g>
<!-- 107374182442&#45;&gt;111669149751 -->
<g id="edge15" class="edge">
<title>107374182442&#45;&gt;111669149751</title>
<path fill="none" stroke="black" d="M2071.41,-550.29C1875.92,-535.4 1106.07,-476.76 895.35,-460.71"/>
<polygon fill="black" stroke="black" points="895.75,-457.23 885.52,-459.96 895.22,-464.21 895.75,-457.23"/>
<text xml:space="preserve" text-anchor="middle" x="1647.85" y="-503.7" font-family="Times,serif" font-size="14.00">DDG: </text>
</g>
<!-- 141733920807 -->
<g id="node4" class="node">
<title>141733920807</title>
<polygon fill="none" stroke="black" points="2126.04,-130.75 1853.54,-130.75 1853.54,-91.25 2126.04,-91.25 2126.04,-130.75"/>
<text xml:space="preserve" text-anchor="start" x="1952.66" y="-113.45" font-family="Times,serif" font-size="14.00">RETURN, 387</text>
<text xml:space="preserve" text-anchor="start" x="1861.54" y="-97.7" font-family="Times,serif" font-size="14.00">return { &quot;student_id&quot;: self.student...</text>
</g>
<!-- 107374182442&#45;&gt;141733920807 -->
<g id="edge18" class="edge">
<title>107374182442&#45;&gt;141733920807</title>
<path fill="none" stroke="black" d="M2113.96,-534.67C2108.39,-491.59 2099.13,-384.25 2130.79,-303 2145.57,-265.03 2170.68,-266.41 2182.79,-227.5 2193.18,-194.08 2205.1,-175.71 2182.79,-148.75 2178.62,-143.71 2159.64,-138.4 2135.1,-133.42"/>
<polygon fill="black" stroke="black" points="2135.84,-130 2125.35,-131.53 2134.5,-136.87 2135.84,-130"/>
<text xml:space="preserve" text-anchor="middle" x="2136.93" y="-351.07" font-family="Times,serif" font-size="14.00">DDG: </text>
</g>
<!-- 25769803862 -->
<g id="node5" class="node">
<title>25769803862</title>
<polygon fill="none" stroke="black" points="2101.54,-285 1748.04,-285 1748.04,-245.5 2101.54,-245.5 2101.54,-285"/>
<text xml:space="preserve" text-anchor="start" x="1891.04" y="-267.7" font-family="Times,serif" font-size="14.00">BLOCK, 387</text>
<text xml:space="preserve" text-anchor="start" x="1756.04" y="-251.95" font-family="Times,serif" font-size="14.00">tmp20 = {} tmp20[&quot;student_id&quot;] = self.student_i...</text>
</g>
<!-- 107374182442&#45;&gt;25769803862 -->
<g id="edge23" class="edge">
<title>107374182442&#45;&gt;25769803862</title>
<path fill="none" stroke="black" d="M2108.33,-534.73C2088.28,-490.86 2034.56,-380.45 1968.79,-303 1965.9,-299.6 1962.67,-296.26 1959.31,-293.07"/>
<polygon fill="black" stroke="black" points="1961.73,-290.54 1951.94,-286.49 1957.07,-295.76 1961.73,-290.54"/>
<text xml:space="preserve" text-anchor="middle" x="2059.23" y="-396.7" font-family="Times,serif" font-size="14.00">DDG: </text>
</g>
<!-- 30064771505 -->
<g id="node6" class="node">
<title>30064771505</title>
<polygon fill="none" stroke="black" points="2360.54,-376.25 2169.04,-376.25 2169.04,-336.75 2360.54,-336.75 2360.54,-376.25"/>
<text xml:space="preserve" text-anchor="start" x="2177.04" y="-358.95" font-family="Times,serif" font-size="14.00">&lt;operator&gt;.assignment, 387</text>
<text xml:space="preserve" text-anchor="start" x="2231.04" y="-343.2" font-family="Times,serif" font-size="14.00">tmp20 = {}</text>
</g>
<!-- 107374182442&#45;&gt;30064771505 -->
<g id="edge24" class="edge">
<title>107374182442&#45;&gt;30064771505</title>
<path fill="none" stroke="black" d="M2124.51,-534.76C2137.99,-501.86 2165.02,-436.9 2172.04,-428 2185.87,-410.44 2205.05,-394.9 2222.38,-382.91"/>
<polygon fill="black" stroke="black" points="2224.15,-385.94 2230.51,-377.47 2220.26,-380.12 2224.15,-385.94"/>
<text xml:space="preserve" text-anchor="middle" x="2188.91" y="-450.2" font-family="Times,serif" font-size="14.00">DDG: </text>
</g>
<!-- 68719477166 -->
<g id="node10" class="node">
<title>68719477166</title>
<polygon fill="none" stroke="black" points="2568.54,-483.25 2215.04,-483.25 2215.04,-428 2568.54,-428 2568.54,-483.25"/>
<text xml:space="preserve" text-anchor="start" x="2341.16" y="-465.95" font-family="Times,serif" font-size="14.00">IDENTIFIER, 387</text>
<text xml:space="preserve" text-anchor="start" x="2374.91" y="-450.2" font-family="Times,serif" font-size="14.00">tmp20</text>
<text xml:space="preserve" text-anchor="start" x="2223.04" y="-434.45" font-family="Times,serif" font-size="14.00">tmp20 = {} tmp20[&quot;student_id&quot;] = self.student_i...</text>
</g>
<!-- 107374182442&#45;&gt;68719477166 -->
<g id="edge28" class="edge">
<title>107374182442&#45;&gt;68719477166</title>
<path fill="none" stroke="black" d="M2162.2,-537.71C2200.77,-524.09 2257.25,-504.14 2304.53,-487.44"/>
<polygon fill="black" stroke="black" points="2305.4,-490.85 2313.66,-484.22 2303.07,-484.25 2305.4,-490.85"/>
<text xml:space="preserve" text-anchor="middle" x="2279.41" y="-503.7" font-family="Times,serif" font-size="14.00">DDG: </text>
</g>
<!-- 124554051626 -->
<g id="node2" class="node">
<title>124554051626</title>
<polygon fill="none" stroke="black" points="1142.54,-39.5 1005.04,-39.5 1005.04,0 1142.54,0 1142.54,-39.5"/>
<text xml:space="preserve" text-anchor="start" x="1013.04" y="-22.2" font-family="Times,serif" font-size="14.00">METHOD_RETURN, 386</text>
<text xml:space="preserve" text-anchor="start" x="1036.66" y="-6.45" font-family="Times,serif" font-size="14.00">typing.Dict</text>
</g>
<!-- 111669149751&#45;&gt;124554051626 -->
<g id="edge2" class="edge">
<title>111669149751&#45;&gt;124554051626</title>
<path fill="none" stroke="black" d="M799.55,-449.76C717.55,-439.13 544.79,-410.46 544.79,-357.5 544.79,-357.5 544.79,-357.5 544.79,-110 544.79,-95.59 613.26,-73.07 685.79,-57.5 790.61,-34.99 914.32,-26.27 993.38,-22.89"/>
<polygon fill="black" stroke="black" points="993.35,-26.39 1003.2,-22.49 993.06,-19.4 993.35,-26.39"/>
<text xml:space="preserve" text-anchor="middle" x="575.16" y="-259.82" font-family="Times,serif" font-size="14.00">DDG: self</text>
</g>
<!-- 30064771508 -->
<g id="node7" class="node">
<title>30064771508</title>
<polygon fill="none" stroke="black" points="974.66,-376.25 708.91,-376.25 708.91,-336.75 974.66,-336.75 974.66,-376.25"/>
<text xml:space="preserve" text-anchor="start" x="754.04" y="-358.95" font-family="Times,serif" font-size="14.00">&lt;operator&gt;.assignment, 387</text>
<text xml:space="preserve" text-anchor="start" x="716.91" y="-343.2" font-family="Times,serif" font-size="14.00">tmp20[&quot;student_id&quot;] = self.student_id</text>
</g>
<!-- 111669149751&#45;&gt;30064771508 -->
<g id="edge25" class="edge">
<title>111669149751&#45;&gt;30064771508</title>
<path fill="none" stroke="black" d="M841.79,-435.44C841.79,-421.87 841.79,-403.4 841.79,-387.84"/>
<polygon fill="black" stroke="black" points="845.29,-388.16 841.79,-378.16 838.29,-388.16 845.29,-388.16"/>
<text xml:space="preserve" text-anchor="middle" x="872.16" y="-396.7" font-family="Times,serif" font-size="14.00">DDG: self</text>
</g>
<!-- 30064771511 -->
<g id="node8" class="node">
<title>30064771511</title>
<polygon fill="none" stroke="black" points="1484.66,-376.25 1218.91,-376.25 1218.91,-336.75 1484.66,-336.75 1484.66,-376.25"/>
<text xml:space="preserve" text-anchor="start" x="1264.04" y="-358.95" font-family="Times,serif" font-size="14.00">&lt;operator&gt;.assignment, 387</text>
<text xml:space="preserve" text-anchor="start" x="1226.91" y="-343.2" font-family="Times,serif" font-size="14.00">tmp20[&quot;section_id&quot;] = self.section_id</text>
</g>
<!-- 111669149751&#45;&gt;30064771511 -->
<g id="edge26" class="edge">
<title>111669149751&#45;&gt;30064771511</title>
<path fill="none" stroke="black" d="M883.95,-446.59C961.21,-431.88 1127.79,-400.16 1239.86,-378.81"/>
<polygon fill="black" stroke="black" points="1240.22,-382.31 1249.39,-377 1238.91,-375.43 1240.22,-382.31"/>
<text xml:space="preserve" text-anchor="middle" x="1187.84" y="-396.7" font-family="Times,serif" font-size="14.00">DDG: self</text>
</g>
<!-- 30064771514 -->
<g id="node9" class="node">
<title>30064771514</title>
<polygon fill="none" stroke="black" points="500.66,-376.25 288.91,-376.25 288.91,-336.75 500.66,-336.75 500.66,-376.25"/>
<text xml:space="preserve" text-anchor="start" x="307.04" y="-358.95" font-family="Times,serif" font-size="14.00">&lt;operator&gt;.assignment, 387</text>
<text xml:space="preserve" text-anchor="start" x="296.91" y="-343.2" font-family="Times,serif" font-size="14.00">tmp20[&quot;status&quot;] = self.status</text>
</g>
<!-- 111669149751&#45;&gt;30064771514 -->
<g id="edge27" class="edge">
<title>111669149751&#45;&gt;30064771514</title>
<path fill="none" stroke="black" d="M799.58,-452.14C715.37,-446.76 529.48,-432.67 470.04,-410 453.99,-403.88 438.11,-393.6 425.1,-383.75"/>
<polygon fill="black" stroke="black" points="427.39,-381.1 417.37,-377.66 423.06,-386.6 427.39,-381.1"/>
<text xml:space="preserve" text-anchor="middle" x="500.41" y="-396.7" font-family="Times,serif" font-size="14.00">DDG: self</text>
</g>
<!-- 141733920807&#45;&gt;124554051626 -->
<g id="edge1" class="edge">
<title>141733920807&#45;&gt;124554051626</title>
<path fill="none" stroke="black" d="M1911.29,-90.79C1860.89,-79.23 1793.85,-65.29 1733.79,-57.5 1526.03,-30.56 1278.96,-23.35 1154.29,-21.44"/>
<polygon fill="black" stroke="black" points="1154.54,-17.94 1144.49,-21.29 1154.44,-24.94 1154.54,-17.94"/>
<text xml:space="preserve" text-anchor="middle" x="1859.65" y="-59.95" font-family="Times,serif" font-size="14.00">DDG: &lt;RET&gt;</text>
</g>
<!-- 25769803862&#45;&gt;141733920807 -->
<g id="edge16" class="edge">
<title>25769803862&#45;&gt;141733920807</title>
<path fill="none" stroke="black" d="M2095.52,-245.11C2110.8,-240.46 2122.78,-234.68 2128.79,-227.5 2151.23,-200.65 2150.14,-176.48 2128.79,-148.75 2124.77,-143.54 2116.53,-138.92 2105.97,-134.87"/>
<polygon fill="black" stroke="black" points="2107.21,-131.59 2096.62,-131.65 2104.93,-138.21 2107.21,-131.59"/>
<text xml:space="preserve" text-anchor="middle" x="2162.09" y="-182.7" font-family="Times,serif" font-size="14.00">DDG: </text>
</g>
<!-- 25769803862&#45;&gt;141733920807 -->
<g id="edge17" class="edge">
<title>25769803862&#45;&gt;141733920807</title>
<path fill="none" stroke="black" d="M1890.02,-245.28C1883.98,-240.33 1878.52,-234.4 1875.04,-227.5 1859.27,-196.25 1854.4,-177.02 1875.04,-148.75 1877.95,-144.76 1881.3,-141.19 1884.99,-138"/>
<polygon fill="black" stroke="black" points="1886.97,-140.89 1892.93,-132.13 1882.81,-135.26 1886.97,-140.89"/>
<text xml:space="preserve" text-anchor="middle" x="1999.91" y="-214.2" font-family="Times,serif" font-size="14.00">DDG: tmp20 = {}</text>
<text xml:space="preserve" text-anchor="middle" x="1999.91" y="-198.45" font-family="Times,serif" font-size="14.00">tmp20[&quot;student_id&quot;] = self.student_id</text>
<text xml:space="preserve" text-anchor="middle" x="1999.91" y="-182.7" font-family="Times,serif" font-size="14.00">tmp20[&quot;section_id&quot;] = self.section_id</text>
<text xml:space="preserve" text-anchor="middle" x="1999.91" y="-166.95" font-family="Times,serif" font-size="14.00">tmp20[&quot;status&quot;] = self.status</text>
<text xml:space="preserve" text-anchor="middle" x="1999.91" y="-151.2" font-family="Times,serif" font-size="14.00">tmp20</text>
</g>
<!-- 30064771505&#45;&gt;124554051626 -->
<g id="edge3" class="edge">
<title>30064771505&#45;&gt;124554051626</title>
<path fill="none" stroke="black" d="M2279.26,-336.42C2296.43,-312.48 2324.06,-269.46 2334.79,-227.5 2355.85,-145.07 2324.56,-91.99 2246.79,-57.5 2196.97,-35.41 1411.04,-24.57 1154.26,-21.61"/>
<polygon fill="black" stroke="black" points="1154.35,-18.11 1144.31,-21.5 1154.27,-25.11 1154.35,-18.11"/>
<text xml:space="preserve" text-anchor="middle" x="2374.94" y="-182.7" font-family="Times,serif" font-size="14.00">DDG: tmp20</text>
</g>
<!-- 30064771505&#45;&gt;124554051626 -->
<g id="edge4" class="edge">
<title>30064771505&#45;&gt;124554051626</title>
<path fill="none" stroke="black" d="M2301.58,-336.33C2337.68,-315.18 2390.46,-277.43 2412.79,-227.5 2452.4,-138.92 2368.64,-85.67 2275.79,-57.5 2169.23,-25.17 1405.45,-21.2 1153.9,-20.78"/>
<polygon fill="black" stroke="black" points="1154.19,-17.28 1144.18,-20.76 1154.17,-24.28 1154.19,-17.28"/>
<text xml:space="preserve" text-anchor="middle" x="2446.48" y="-182.7" font-family="Times,serif" font-size="14.00">DDG: {}</text>
</g>
<!-- 30064771505&#45;&gt;124554051626 -->
<g id="edge5" class="edge">
<title>30064771505&#45;&gt;124554051626</title>
<path fill="none" stroke="black" d="M2259.32,-336.47C2252.21,-311.52 2239.51,-266.35 2229.54,-227.5 2220.59,-192.65 2230.45,-178.88 2210.79,-148.75 2187.63,-113.28 2173.89,-107.53 2134.79,-91.25 2036.56,-50.35 2003.72,-67.38 1897.79,-57.5 1625.77,-32.13 1301.56,-24.16 1154.02,-21.75"/>
<polygon fill="black" stroke="black" points="1154.42,-18.26 1144.36,-21.6 1154.3,-25.25 1154.42,-18.26"/>
<text xml:space="preserve" text-anchor="middle" x="2280.16" y="-182.7" font-family="Times,serif" font-size="14.00">DDG: tmp20 = {}</text>
</g>
<!-- 30064771505&#45;&gt;25769803862 -->
<g id="edge19" class="edge">
<title>30064771505&#45;&gt;25769803862</title>
<path fill="none" stroke="black" d="M2191.85,-336.35C2138.16,-322.26 2065.04,-303.07 2008.89,-288.33"/>
<polygon fill="black" stroke="black" points="2009.92,-284.98 1999.36,-285.83 2008.14,-291.75 2009.92,-284.98"/>
<text xml:space="preserve" text-anchor="middle" x="2148.89" y="-305.45" font-family="Times,serif" font-size="14.00">DDG: tmp20</text>
</g>
<!-- 30064771508&#45;&gt;124554051626 -->
<g id="edge6" class="edge">
<title>30064771508&#45;&gt;124554051626</title>
<path fill="none" stroke="black" d="M790.17,-336.34C776.57,-330.96 762.01,-324.89 748.79,-318.75 746.35,-317.62 580.16,-229.8 578.79,-227.5 560.82,-197.46 560.82,-178.79 578.79,-148.75 622.81,-75.16 666.93,-83.06 748.79,-57.5 829.61,-32.27 926.55,-23.96 993.41,-21.42"/>
<polygon fill="black" stroke="black" points="993.31,-24.93 1003.19,-21.09 993.07,-17.93 993.31,-24.93"/>
<text xml:space="preserve" text-anchor="middle" x="659.79" y="-182.7" font-family="Times,serif" font-size="14.00">DDG: tmp20[&quot;student_id&quot;]</text>
</g>
<!-- 30064771508&#45;&gt;124554051626 -->
<g id="edge7" class="edge">
<title>30064771508&#45;&gt;124554051626</title>
<path fill="none" stroke="black" d="M823.98,-336.48C791.25,-299.09 728.01,-214.01 763.79,-148.75 808.4,-67.36 917.65,-37.7 993.75,-26.9"/>
<polygon fill="black" stroke="black" points="993.77,-30.43 1003.22,-25.64 992.85,-23.49 993.77,-30.43"/>
<text xml:space="preserve" text-anchor="middle" x="831.29" y="-182.7" font-family="Times,serif" font-size="14.00">DDG: self.student_id</text>
</g>
<!-- 30064771508&#45;&gt;124554051626 -->
<g id="edge8" class="edge">
<title>30064771508&#45;&gt;124554051626</title>
<path fill="none" stroke="black" d="M851.27,-336.31C863.28,-311.55 884.18,-266.97 898.79,-227.5 911.46,-193.25 902.28,-179.31 922.29,-148.75 950.64,-105.43 997.95,-68.84 1032.17,-46.02"/>
<polygon fill="black" stroke="black" points="1033.73,-49.18 1040.18,-40.78 1029.9,-43.33 1033.73,-49.18"/>
<text xml:space="preserve" text-anchor="middle" x="1064.04" y="-182.7" font-family="Times,serif" font-size="14.00">DDG: tmp20[&quot;student_id&quot;] = self.student_id</text>
</g>
<!-- 30064771508&#45;&gt;25769803862 -->
<g id="edge20" class="edge">
<title>30064771508&#45;&gt;25769803862</title>
<path fill="none" stroke="black" d="M975.09,-348.74C1169.04,-338.83 1507.58,-321.27 1520.79,-318.75 1542.42,-314.62 1546.25,-307.66 1567.79,-303 1622.05,-291.27 1681.8,-283.25 1736.63,-277.78"/>
<polygon fill="black" stroke="black" points="1736.77,-281.28 1746.38,-276.83 1736.09,-274.32 1736.77,-281.28"/>
<text xml:space="preserve" text-anchor="middle" x="1648.79" y="-305.45" font-family="Times,serif" font-size="14.00">DDG: tmp20[&quot;student_id&quot;]</text>
</g>
<!-- 30064771511&#45;&gt;124554051626 -->
<g id="edge9" class="edge">
<title>30064771511&#45;&gt;124554051626</title>
<path fill="none" stroke="black" d="M1353.1,-336.3C1354.71,-325.53 1358.21,-312.4 1365.79,-303 1411.88,-245.82 1474.51,-290.19 1512.79,-227.5 1531.02,-197.63 1533.21,-177.17 1512.79,-148.75 1470.87,-90.41 1268.83,-50.59 1154,-32.26"/>
<polygon fill="black" stroke="black" points="1154.75,-28.83 1144.33,-30.73 1153.66,-35.74 1154.75,-28.83"/>
<text xml:space="preserve" text-anchor="middle" x="1608.29" y="-182.7" font-family="Times,serif" font-size="14.00">DDG: tmp20[&quot;section_id&quot;]</text>
</g>
<!-- 30064771511&#45;&gt;124554051626 -->
<g id="edge10" class="edge">
<title>30064771511&#45;&gt;124554051626</title>
<path fill="none" stroke="black" d="M1484.79,-350.17C1578.82,-345 1690.76,-335.41 1705.79,-318.75 1709.6,-314.52 1729.19,-190.82 1693.79,-148.75 1625.26,-67.33 1305.62,-35.85 1154,-25.34"/>
<polygon fill="black" stroke="black" points="1154.66,-21.88 1144.45,-24.69 1154.19,-28.86 1154.66,-21.88"/>
<text xml:space="preserve" text-anchor="middle" x="1781.96" y="-182.7" font-family="Times,serif" font-size="14.00">DDG: self.section_id</text>
</g>
<!-- 30064771511&#45;&gt;124554051626 -->
<g id="edge11" class="edge">
<title>30064771511&#45;&gt;124554051626</title>
<path fill="none" stroke="black" d="M1325.8,-336.35C1296.86,-313.61 1250.81,-273.01 1225.29,-227.5 1207.65,-196.05 1223.76,-180.01 1205.79,-148.75 1181.78,-106.99 1140.21,-69.99 1110.13,-46.65"/>
<polygon fill="black" stroke="black" points="1112.48,-44.03 1102.4,-40.77 1108.24,-49.61 1112.48,-44.03"/>
<text xml:space="preserve" text-anchor="middle" x="1367.04" y="-182.7" font-family="Times,serif" font-size="14.00">DDG: tmp20[&quot;section_id&quot;] = self.section_id</text>
</g>
<!-- 30064771511&#45;&gt;25769803862 -->
<g id="edge21" class="edge">
<title>30064771511&#45;&gt;25769803862</title>
<path fill="none" stroke="black" d="M1485.16,-348.33C1558.88,-342.95 1651.88,-333.83 1733.79,-318.75 1774.24,-311.3 1818.6,-299.35 1854.37,-288.73"/>
<polygon fill="black" stroke="black" points="1855.16,-292.15 1863.73,-285.92 1853.15,-285.44 1855.16,-292.15"/>
<text xml:space="preserve" text-anchor="middle" x="1883.79" y="-305.45" font-family="Times,serif" font-size="14.00">DDG: tmp20[&quot;section_id&quot;]</text>
</g>
<!-- 30064771514&#45;&gt;124554051626 -->
<g id="edge12" class="edge">
<title>30064771514&#45;&gt;124554051626</title>
<path fill="none" stroke="black" d="M389.31,-336.39C379.49,-298.13 362.81,-210.49 395.79,-148.75 429.91,-84.87 462.3,-81.03 530.79,-57.5 614.06,-28.89 863.88,-22.46 993.62,-21.08"/>
<polygon fill="black" stroke="black" points="993.55,-24.58 1003.51,-20.98 993.48,-17.58 993.55,-24.58"/>
<text xml:space="preserve" text-anchor="middle" x="463.29" y="-182.7" font-family="Times,serif" font-size="14.00">DDG: tmp20[&quot;status&quot;]</text>
</g>
<!-- 30064771514&#45;&gt;124554051626 -->
<g id="edge13" class="edge">
<title>30064771514&#45;&gt;124554051626</title>
<path fill="none" stroke="black" d="M288.68,-353.69C238.27,-349.67 178.17,-340.15 127.79,-318.75 43.6,-282.99 -28.18,-231.03 11.79,-148.75 40.44,-89.75 66.23,-80.16 127.79,-57.5 207.77,-28.06 779.25,-22.2 993.2,-21.04"/>
<polygon fill="black" stroke="black" points="993.14,-24.54 1003.13,-20.99 993.11,-17.54 993.14,-24.54"/>
<text xml:space="preserve" text-anchor="middle" x="65.79" y="-182.7" font-family="Times,serif" font-size="14.00">DDG: self.status</text>
</g>
<!-- 30064771514&#45;&gt;124554051626 -->
<g id="edge14" class="edge">
<title>30064771514&#45;&gt;124554051626</title>
<path fill="none" stroke="black" d="M308.13,-336.3C250.48,-318.54 179.01,-285.77 143.29,-227.5 124.99,-197.66 122.01,-176.54 143.29,-148.75 237.74,-25.37 327.46,-82.71 480.79,-57.5 662.34,-27.65 878.79,-21.55 993.36,-20.6"/>
<polygon fill="black" stroke="black" points="993.31,-24.1 1003.28,-20.53 993.26,-17.1 993.31,-24.1"/>
<text xml:space="preserve" text-anchor="middle" x="258.04" y="-182.7" font-family="Times,serif" font-size="14.00">DDG: tmp20[&quot;status&quot;] = self.status</text>
</g>
<!-- 30064771514&#45;&gt;25769803862 -->
<g id="edge22" class="edge">
<title>30064771514&#45;&gt;25769803862</title>
<path fill="none" stroke="black" d="M501,-348.87C559.62,-345.23 633.72,-340.68 699.79,-336.75 1066.89,-314.9 1495.95,-290.46 1736.47,-276.86"/>
<polygon fill="black" stroke="black" points="1736.48,-280.36 1746.26,-276.3 1736.08,-273.38 1736.48,-280.36"/>
<text xml:space="preserve" text-anchor="middle" x="1337.7" y="-305.45" font-family="Times,serif" font-size="14.00">DDG: tmp20[&quot;status&quot;]</text>
</g>
</g>
</svg>
