<?xml version="1.0" encoding="UTF-8" standalone="no"?>
<!DOCTYPE svg PUBLIC "-//W3C//DTD SVG 1.1//EN"
 "http://www.w3.org/Graphics/SVG/1.1/DTD/svg11.dtd">
<!-- Generated by graphviz version 13.1.2 (20250809.0930)
 -->
<!-- Title: from_dict Pages: 1 -->
<svg width="1928pt" height="428pt"
 viewBox="0.00 0.00 1928.00 428.00" xmlns="http://www.w3.org/2000/svg" xmlns:xlink="http://www.w3.org/1999/xlink">
<g id="graph0" class="graph" transform="scale(1 1) rotate(0) translate(4 424.25)">
<title>from_dict</title>
<polygon fill="white" stroke="none" points="-4,4 -4,-424.25 1923.63,-424.25 1923.63,4 -4,4"/>
<!-- 107374182443 -->
<g id="node1" class="node">
<title>107374182443</title>
<polygon fill="none" stroke="black" points="196.88,-420.25 106.62,-420.25 106.62,-380.75 196.88,-380.75 196.88,-420.25"/>
<text xml:space="preserve" text-anchor="start" x="114.62" y="-402.95" font-family="Times,serif" font-size="14.00">METHOD, 394</text>
<text xml:space="preserve" text-anchor="start" x="121.38" y="-387.2" font-family="Times,serif" font-size="14.00">from_dict</text>
</g>
<!-- 111669149752 -->
<g id="node3" class="node">
<title>111669149752</title>
<polygon fill="none" stroke="black" points="83.5,-321.12 0,-321.12 0,-281.62 83.5,-281.62 83.5,-321.12"/>
<text xml:space="preserve" text-anchor="start" x="8" y="-303.82" font-family="Times,serif" font-size="14.00">PARAM, 394</text>
<text xml:space="preserve" text-anchor="start" x="28.25" y="-288.07" font-family="Times,serif" font-size="14.00">data</text>
</g>
<!-- 107374182443&#45;&gt;111669149752 -->
<g id="edge7" class="edge">
<title>107374182443&#45;&gt;111669149752</title>
<path fill="none" stroke="black" d="M130.02,-380.31C113.44,-365.68 90.42,-345.35 72.04,-329.12"/>
<polygon fill="black" stroke="black" points="74.38,-326.52 64.57,-322.53 69.75,-331.77 74.38,-326.52"/>
<text xml:space="preserve" text-anchor="middle" x="126.71" y="-349.45" font-family="Times,serif" font-size="14.00">DDG: </text>
</g>
<!-- 68719477171 -->
<g id="node6" class="node">
<title>68719477171</title>
<polygon fill="none" stroke="black" points="455.5,-329 102,-329 102,-273.75 455.5,-273.75 455.5,-329"/>
<text xml:space="preserve" text-anchor="start" x="228.12" y="-311.7" font-family="Times,serif" font-size="14.00">IDENTIFIER, 395</text>
<text xml:space="preserve" text-anchor="start" x="224.75" y="-295.95" font-family="Times,serif" font-size="14.00">EnrollmentRecord</text>
<text xml:space="preserve" text-anchor="start" x="110" y="-280.2" font-family="Times,serif" font-size="14.00">EnrollmentRecord(student_id = data[&quot;student_id&quot;...</text>
</g>
<!-- 107374182443&#45;&gt;68719477171 -->
<g id="edge11" class="edge">
<title>107374182443&#45;&gt;68719477171</title>
<path fill="none" stroke="black" d="M176.84,-380.31C193.32,-367.71 215.32,-350.89 234.66,-336.09"/>
<polygon fill="black" stroke="black" points="236.6,-339.02 242.41,-330.16 232.34,-333.46 236.6,-339.02"/>
<text xml:space="preserve" text-anchor="middle" x="235.93" y="-349.45" font-family="Times,serif" font-size="14.00">DDG: </text>
</g>
<!-- 124554051627 -->
<g id="node2" class="node">
<title>124554051627</title>
<polygon fill="none" stroke="black" points="557.75,-39.5 217.75,-39.5 217.75,0 557.75,0 557.75,-39.5"/>
<text xml:space="preserve" text-anchor="start" x="327" y="-22.2" font-family="Times,serif" font-size="14.00">METHOD_RETURN, 394</text>
<text xml:space="preserve" text-anchor="start" x="225.75" y="-6.45" font-family="Times,serif" font-size="14.00">AI_generated_code_1.py:&lt;module&gt;.EnrollmentRecord</text>
</g>
<!-- 111669149752&#45;&gt;124554051627 -->
<g id="edge2" class="edge">
<title>111669149752&#45;&gt;124554051627</title>
<path fill="none" stroke="black" d="M40.69,-281.3C39.25,-233.89 42.98,-110.69 115.75,-57.5 131.88,-45.71 166.63,-37.7 206.08,-32.26"/>
<polygon fill="black" stroke="black" points="206.35,-35.75 215.81,-30.99 205.45,-28.81 206.35,-35.75"/>
<text xml:space="preserve" text-anchor="middle" x="86.7" y="-151.2" font-family="Times,serif" font-size="14.00">DDG: data</text>
</g>
<!-- 30064771519 -->
<g id="node5" class="node">
<title>30064771519</title>
<polygon fill="none" stroke="black" points="565.5,-222 212,-222 212,-182.5 565.5,-182.5 565.5,-222"/>
<text xml:space="preserve" text-anchor="start" x="317.88" y="-204.7" font-family="Times,serif" font-size="14.00">EnrollmentRecord, 395</text>
<text xml:space="preserve" text-anchor="start" x="220" y="-188.95" font-family="Times,serif" font-size="14.00">EnrollmentRecord(student_id = data[&quot;student_id&quot;...</text>
</g>
<!-- 111669149752&#45;&gt;30064771519 -->
<g id="edge12" class="edge">
<title>111669149752&#45;&gt;30064771519</title>
<path fill="none" stroke="black" d="M75.79,-281.14C81.35,-278.42 87.14,-275.85 92.75,-273.75 149.23,-252.65 214.19,-236.35 268.83,-224.77"/>
<polygon fill="black" stroke="black" points="269.42,-228.22 278.49,-222.75 267.99,-221.37 269.42,-228.22"/>
<text xml:space="preserve" text-anchor="middle" x="226.86" y="-242.45" font-family="Times,serif" font-size="14.00">DDG: data</text>
</g>
<!-- 141733920808 -->
<g id="node4" class="node">
<title>141733920808</title>
<polygon fill="none" stroke="black" points="1694,-130.75 1421.5,-130.75 1421.5,-91.25 1694,-91.25 1694,-130.75"/>
<text xml:space="preserve" text-anchor="start" x="1520.62" y="-113.45" font-family="Times,serif" font-size="14.00">RETURN, 395</text>
<text xml:space="preserve" text-anchor="start" x="1429.5" y="-97.7" font-family="Times,serif" font-size="14.00">return EnrollmentRecord( student_id...</text>
</g>
<!-- 141733920808&#45;&gt;124554051627 -->
<g id="edge1" class="edge">
<title>141733920808&#45;&gt;124554051627</title>
<path fill="none" stroke="black" d="M1421.26,-92.61C1416.7,-92.14 1412.19,-91.68 1407.75,-91.25 1114.92,-62.85 773.72,-41.67 569.52,-30.27"/>
<polygon fill="black" stroke="black" points="569.78,-26.78 559.6,-29.72 569.39,-33.77 569.78,-26.78"/>
<text xml:space="preserve" text-anchor="middle" x="1218.33" y="-59.95" font-family="Times,serif" font-size="14.00">DDG: &lt;RET&gt;</text>
</g>
<!-- 30064771519&#45;&gt;124554051627 -->
<g id="edge3" class="edge">
<title>30064771519&#45;&gt;124554051627</title>
<path fill="none" stroke="black" d="M252.7,-182.02C193.4,-170.58 133.32,-153.75 115.5,-130.75 78.16,-82.55 135.14,-55.38 206.46,-40.1"/>
<polygon fill="black" stroke="black" points="206.96,-43.57 216.06,-38.15 205.57,-36.71 206.96,-43.57"/>
<text xml:space="preserve" text-anchor="middle" x="193.12" y="-105.58" font-family="Times,serif" font-size="14.00">DDG: data[&quot;student_id&quot;]</text>
</g>
<!-- 30064771519&#45;&gt;124554051627 -->
<g id="edge4" class="edge">
<title>30064771519&#45;&gt;124554051627</title>
<path fill="none" stroke="black" d="M354.75,-182.12C336.8,-169.97 316.48,-152.45 306.5,-130.75 299.16,-114.8 299.21,-107.22 306.5,-91.25 314.65,-73.38 329.82,-58.29 344.86,-46.72"/>
<polygon fill="black" stroke="black" points="346.89,-49.57 352.92,-40.87 342.78,-43.91 346.89,-49.57"/>
<text xml:space="preserve" text-anchor="middle" x="384.12" y="-105.58" font-family="Times,serif" font-size="14.00">DDG: data[&quot;section_id&quot;]</text>
</g>
<!-- 30064771519&#45;&gt;124554051627 -->
<g id="edge5" class="edge">
<title>30064771519&#45;&gt;124554051627</title>
<path fill="none" stroke="black" d="M417.89,-182.15C434.12,-169.68 452.8,-151.83 461.75,-130.75 468.61,-114.59 468.66,-107.39 461.75,-91.25 454.23,-73.69 439.94,-58.43 425.92,-46.65"/>
<polygon fill="black" stroke="black" points="428.47,-44.2 418.46,-40.71 424.11,-49.68 428.47,-44.2"/>
<text xml:space="preserve" text-anchor="middle" x="531.04" y="-105.58" font-family="Times,serif" font-size="14.00">DDG: data[&quot;status&quot;]</text>
</g>
<!-- 30064771519&#45;&gt;124554051627 -->
<g id="edge6" class="edge">
<title>30064771519&#45;&gt;124554051627</title>
<path fill="none" stroke="black" d="M502.63,-182.06C568.33,-165.7 631.94,-137.34 598.75,-91.25 583.25,-69.72 560.87,-54.67 536.43,-44.17"/>
<polygon fill="black" stroke="black" points="537.83,-40.96 527.25,-40.51 535.24,-47.47 537.83,-40.96"/>
<text xml:space="preserve" text-anchor="middle" x="985.83" y="-105.58" font-family="Times,serif" font-size="14.00">DDG: EnrollmentRecord(student_id = data[&quot;student_id&quot;], section_id = data[&quot;section_id&quot;], status = data[&quot;status&quot;])</text>
</g>
<!-- 30064771519&#45;&gt;141733920808 -->
<g id="edge8" class="edge">
<title>30064771519&#45;&gt;141733920808</title>
<path fill="none" stroke="black" d="M565.96,-189.53C835.66,-171.6 1326.56,-138.63 1407.75,-130.75 1408.44,-130.68 1409.14,-130.61 1409.84,-130.55"/>
<polygon fill="black" stroke="black" points="1410.16,-134.03 1419.75,-129.54 1409.45,-127.07 1410.16,-134.03"/>
<text xml:space="preserve" text-anchor="middle" x="1541.63" y="-151.2" font-family="Times,serif" font-size="14.00">DDG: EnrollmentRecord(student_id = data[&quot;student_id&quot;], section_id = data[&quot;section_id&quot;], status = data[&quot;status&quot;])</text>
</g>
<!-- 30064771529 -->
<g id="node7" class="node">
<title>30064771529</title>
<polygon fill="none" stroke="black" points="307.88,-418.5 217.62,-418.5 217.62,-382.5 307.88,-382.5 307.88,-418.5"/>
<text xml:space="preserve" text-anchor="middle" x="262.75" y="-395.07" font-family="Times,serif" font-size="14.00">30064771529</text>
</g>
<!-- 30064771529&#45;&gt;68719477171 -->
<g id="edge9" class="edge">
<title>30064771529&#45;&gt;68719477171</title>
<path fill="none" stroke="black" d="M261.89,-382.35C261.69,-372.03 261.98,-358.68 264,-347 264.38,-344.83 264.84,-342.62 265.36,-340.4"/>
<polygon fill="black" stroke="black" points="268.7,-341.45 267.99,-330.88 261.95,-339.59 268.7,-341.45"/>
<text xml:space="preserve" text-anchor="middle" x="334.88" y="-349.45" font-family="Times,serif" font-size="14.00">DDG: EnrollmentRecord</text>
</g>
<!-- 30064771530 -->
<g id="node8" class="node">
<title>30064771530</title>
<polygon fill="none" stroke="black" points="472.88,-418.5 382.62,-418.5 382.62,-382.5 472.88,-382.5 472.88,-418.5"/>
<text xml:space="preserve" text-anchor="middle" x="427.75" y="-395.07" font-family="Times,serif" font-size="14.00">30064771530</text>
</g>
<!-- 30064771530&#45;&gt;68719477171 -->
<g id="edge10" class="edge">
<title>30064771530&#45;&gt;68719477171</title>
<path fill="none" stroke="black" d="M424.36,-382.28C421.29,-370.88 415.67,-356.36 405.75,-347 401.18,-342.69 396.17,-338.8 390.86,-335.27"/>
<polygon fill="black" stroke="black" points="392.68,-332.29 382.31,-330.11 389.07,-338.28 392.68,-332.29"/>
<text xml:space="preserve" text-anchor="middle" x="487.47" y="-349.45" font-family="Times,serif" font-size="14.00">DDG: EnrollmentRecord</text>
</g>
</g>
</svg>
