<?xml version="1.0" encoding="UTF-8" standalone="no"?>
<!DOCTYPE svg PUBLIC "-//W3C//DTD SVG 1.1//EN"
 "http://www.w3.org/Graphics/SVG/1.1/DTD/svg11.dtd">
<!-- Generated by graphviz version 13.1.2 (20250809.0930)
 -->
<!-- Title: to_dict&lt;metaClassAdapter&gt; Pages: 1 -->
<svg width="531pt" height="436pt"
 viewBox="0.00 0.00 531.00 436.00" xmlns="http://www.w3.org/2000/svg" xmlns:xlink="http://www.w3.org/1999/xlink">
<g id="graph0" class="graph" transform="scale(1 1) rotate(0) translate(4 432.25)">
<title>to_dict&lt;metaClassAdapter&gt;</title>
<polygon fill="white" stroke="none" points="-4,4 -4,-432.25 527.25,-432.25 527.25,4 -4,4"/>
<!-- 107374182446 -->
<g id="node1" class="node">
<title>107374182446</title>
<polygon fill="none" stroke="black" points="274.12,-428.25 89.38,-428.25 89.38,-388.75 274.12,-388.75 274.12,-428.25"/>
<text xml:space="preserve" text-anchor="start" x="144.62" y="-410.95" font-family="Times,serif" font-size="14.00">METHOD, 386</text>
<text xml:space="preserve" text-anchor="start" x="97.38" y="-395.2" font-family="Times,serif" font-size="14.00">to_dict&lt;metaClassAdapter&gt;</text>
</g>
<!-- 111669149754 -->
<g id="node3" class="node">
<title>111669149754</title>
<polygon fill="none" stroke="black" points="83.5,-279.5 0,-279.5 0,-240 83.5,-240 83.5,-279.5"/>
<text xml:space="preserve" text-anchor="start" x="8" y="-262.2" font-family="Times,serif" font-size="14.00">PARAM, 386</text>
<text xml:space="preserve" text-anchor="start" x="31.62" y="-246.45" font-family="Times,serif" font-size="14.00">cls</text>
</g>
<!-- 107374182446&#45;&gt;111669149754 -->
<g id="edge5" class="edge">
<title>107374182446&#45;&gt;111669149754</title>
<path fill="none" stroke="black" d="M161.97,-388.61C156.13,-382.93 149.75,-376.64 144,-370.75 116.97,-343.09 86.94,-310.56 66.46,-288.09"/>
<polygon fill="black" stroke="black" points="69.17,-285.87 59.86,-280.82 63.99,-290.58 69.17,-285.87"/>
<text xml:space="preserve" text-anchor="middle" x="160.88" y="-357.45" font-family="Times,serif" font-size="14.00">DDG: </text>
</g>
<!-- 111669149755 -->
<g id="node4" class="node">
<title>111669149755</title>
<polygon fill="none" stroke="black" points="223.5,-337 140,-337 140,-297.5 223.5,-297.5 223.5,-337"/>
<text xml:space="preserve" text-anchor="start" x="148" y="-319.7" font-family="Times,serif" font-size="14.00">PARAM, 386</text>
<text xml:space="preserve" text-anchor="start" x="168.25" y="-303.95" font-family="Times,serif" font-size="14.00">self</text>
</g>
<!-- 107374182446&#45;&gt;111669149755 -->
<g id="edge6" class="edge">
<title>107374182446&#45;&gt;111669149755</title>
<path fill="none" stroke="black" d="M181.75,-388.57C181.75,-377.05 181.75,-362.07 181.75,-348.9"/>
<polygon fill="black" stroke="black" points="185.25,-348.97 181.75,-338.97 178.25,-348.97 185.25,-348.97"/>
<text xml:space="preserve" text-anchor="middle" x="198.62" y="-357.45" font-family="Times,serif" font-size="14.00">DDG: </text>
</g>
<!-- 30064771528 -->
<g id="node6" class="node">
<title>30064771528</title>
<polygon fill="none" stroke="black" points="473.62,-222 45.88,-222 45.88,-182.5 473.62,-182.5 473.62,-222"/>
<text xml:space="preserve" text-anchor="start" x="53.88" y="-204.7" font-family="Times,serif" font-size="14.00">AI_generated_code_1.py:&lt;module&gt;.EnrollmentRecord.to_dict, 386</text>
<text xml:space="preserve" text-anchor="start" x="215.88" y="-188.95" font-family="Times,serif" font-size="14.00">to_dict(self)</text>
</g>
<!-- 107374182446&#45;&gt;30064771528 -->
<g id="edge9" class="edge">
<title>107374182446&#45;&gt;30064771528</title>
<path fill="none" stroke="black" d="M204.79,-388.34C210.2,-383.05 215.59,-377.02 219.75,-370.75 247.71,-328.53 256.18,-268.87 258.71,-233.32"/>
<polygon fill="black" stroke="black" points="262.18,-233.94 259.27,-223.75 255.19,-233.53 262.18,-233.94"/>
<text xml:space="preserve" text-anchor="middle" x="265.78" y="-311.82" font-family="Times,serif" font-size="14.00">DDG: </text>
</g>
<!-- 124554051630 -->
<g id="node2" class="node">
<title>124554051630</title>
<polygon fill="none" stroke="black" points="252.5,-39.5 115,-39.5 115,0 252.5,0 252.5,-39.5"/>
<text xml:space="preserve" text-anchor="start" x="123" y="-22.2" font-family="Times,serif" font-size="14.00">METHOD_RETURN, 386</text>
<text xml:space="preserve" text-anchor="start" x="146.62" y="-6.45" font-family="Times,serif" font-size="14.00">typing.Dict</text>
</g>
<!-- 111669149754&#45;&gt;124554051630 -->
<g id="edge2" class="edge">
<title>111669149754&#45;&gt;124554051630</title>
<path fill="none" stroke="black" d="M36.18,-239.61C32.58,-223.78 29.73,-200.98 36.75,-182.5 58.62,-124.95 111.81,-75.37 147.84,-46.78"/>
<polygon fill="black" stroke="black" points="149.66,-49.8 155.41,-40.9 145.37,-44.28 149.66,-49.8"/>
<text xml:space="preserve" text-anchor="middle" x="80.32" y="-151.2" font-family="Times,serif" font-size="14.00">DDG: cls</text>
</g>
<!-- 111669149755&#45;&gt;30064771528 -->
<g id="edge8" class="edge">
<title>111669149755&#45;&gt;30064771528</title>
<path fill="none" stroke="black" d="M177.47,-297.07C174.91,-280.58 173.99,-256.87 185,-240 187.62,-235.98 190.82,-232.39 194.4,-229.17"/>
<polygon fill="black" stroke="black" points="196.33,-232.11 202.16,-223.27 192.08,-226.54 196.33,-232.11"/>
<text xml:space="preserve" text-anchor="middle" x="215.38" y="-254.32" font-family="Times,serif" font-size="14.00">DDG: self</text>
</g>
<!-- 141733920811 -->
<g id="node5" class="node">
<title>141733920811</title>
<polygon fill="none" stroke="black" points="523.25,-130.75 372.25,-130.75 372.25,-91.25 523.25,-91.25 523.25,-130.75"/>
<text xml:space="preserve" text-anchor="start" x="410.62" y="-113.45" font-family="Times,serif" font-size="14.00">RETURN, 386</text>
<text xml:space="preserve" text-anchor="start" x="380.25" y="-97.7" font-family="Times,serif" font-size="14.00">return to_dict(self)</text>
</g>
<!-- 141733920811&#45;&gt;124554051630 -->
<g id="edge1" class="edge">
<title>141733920811&#45;&gt;124554051630</title>
<path fill="none" stroke="black" d="M391.12,-90.85C350.05,-76.97 294.36,-58.14 251.02,-43.49"/>
<polygon fill="black" stroke="black" points="252.32,-40.24 241.72,-40.35 250.08,-46.87 252.32,-40.24"/>
<text xml:space="preserve" text-anchor="middle" x="365.31" y="-59.95" font-family="Times,serif" font-size="14.00">DDG: &lt;RET&gt;</text>
</g>
<!-- 30064771528&#45;&gt;124554051630 -->
<g id="edge3" class="edge">
<title>30064771528&#45;&gt;124554051630</title>
<path fill="none" stroke="black" d="M209.05,-182.03C186.72,-170.73 162.7,-154 150,-130.75 135.9,-104.94 149.18,-72.44 163.01,-49.48"/>
<polygon fill="black" stroke="black" points="165.84,-51.55 168.28,-41.24 159.94,-47.77 165.84,-51.55"/>
<text xml:space="preserve" text-anchor="middle" x="180.38" y="-105.58" font-family="Times,serif" font-size="14.00">DDG: self</text>
</g>
<!-- 30064771528&#45;&gt;124554051630 -->
<g id="edge4" class="edge">
<title>30064771528&#45;&gt;124554051630</title>
<path fill="none" stroke="black" d="M251.76,-182.27C238.48,-150.72 211.75,-87.26 196.05,-49.97"/>
<polygon fill="black" stroke="black" points="199.44,-49 192.33,-41.14 192.99,-51.71 199.44,-49"/>
<text xml:space="preserve" text-anchor="middle" x="290.05" y="-105.58" font-family="Times,serif" font-size="14.00">DDG: to_dict(self)</text>
</g>
<!-- 30064771528&#45;&gt;141733920811 -->
<g id="edge7" class="edge">
<title>30064771528&#45;&gt;141733920811</title>
<path fill="none" stroke="black" d="M300.08,-182.1C328.58,-168.57 366.98,-150.35 397.47,-135.87"/>
<polygon fill="black" stroke="black" points="398.59,-139.21 406.12,-131.76 395.58,-132.89 398.59,-139.21"/>
<text xml:space="preserve" text-anchor="middle" x="425.76" y="-151.2" font-family="Times,serif" font-size="14.00">DDG: to_dict(self)</text>
</g>
</g>
</svg>
