<?xml version="1.0" encoding="UTF-8" standalone="no"?>
<!DOCTYPE svg PUBLIC "-//W3C//DTD SVG 1.1//EN"
 "http://www.w3.org/Graphics/SVG/1.1/DTD/svg11.dtd">
<!-- Generated by graphviz version 13.1.2 (20250809.0930)
 -->
<!-- Title: course_exists Pages: 1 -->
<svg width="823pt" height="413pt"
 viewBox="0.00 0.00 823.00 413.00" xmlns="http://www.w3.org/2000/svg" xmlns:xlink="http://www.w3.org/1999/xlink">
<g id="graph0" class="graph" transform="scale(1 1) rotate(0) translate(4 408.5)">
<title>course_exists</title>
<polygon fill="white" stroke="none" points="-4,4 -4,-408.5 818.57,-408.5 818.57,4 -4,4"/>
<!-- 107374182458 -->
<g id="node1" class="node">
<title>107374182458</title>
<polygon fill="none" stroke="black" points="198.69,-404.5 94.94,-404.5 94.94,-365 198.69,-365 198.69,-404.5"/>
<text xml:space="preserve" text-anchor="start" x="109.69" y="-387.2" font-family="Times,serif" font-size="14.00">METHOD, 564</text>
<text xml:space="preserve" text-anchor="start" x="102.94" y="-371.45" font-family="Times,serif" font-size="14.00">course_exists</text>
</g>
<!-- 111669149788 -->
<g id="node3" class="node">
<title>111669149788</title>
<polygon fill="none" stroke="black" points="83.57,-313.25 0.07,-313.25 0.07,-273.75 83.57,-273.75 83.57,-313.25"/>
<text xml:space="preserve" text-anchor="start" x="8.07" y="-295.95" font-family="Times,serif" font-size="14.00">PARAM, 564</text>
<text xml:space="preserve" text-anchor="start" x="28.32" y="-280.2" font-family="Times,serif" font-size="14.00">self</text>
</g>
<!-- 107374182458&#45;&gt;111669149788 -->
<g id="edge6" class="edge">
<title>107374182458&#45;&gt;111669149788</title>
<path fill="none" stroke="black" d="M124.29,-364.6C109.34,-351.9 89.52,-335.05 73.05,-321.05"/>
<polygon fill="black" stroke="black" points="75.34,-318.4 65.46,-314.59 70.81,-323.74 75.34,-318.4"/>
<text xml:space="preserve" text-anchor="middle" x="117.48" y="-333.7" font-family="Times,serif" font-size="14.00">DDG: </text>
</g>
<!-- 111669149789 -->
<g id="node4" class="node">
<title>111669149789</title>
<polygon fill="none" stroke="black" points="191.94,-313.25 101.69,-313.25 101.69,-273.75 191.94,-273.75 191.94,-313.25"/>
<text xml:space="preserve" text-anchor="start" x="113.07" y="-295.95" font-family="Times,serif" font-size="14.00">PARAM, 564</text>
<text xml:space="preserve" text-anchor="start" x="109.69" y="-280.2" font-family="Times,serif" font-size="14.00">course_code</text>
</g>
<!-- 107374182458&#45;&gt;111669149789 -->
<g id="edge7" class="edge">
<title>107374182458&#45;&gt;111669149789</title>
<path fill="none" stroke="black" d="M146.82,-364.82C146.82,-353.3 146.82,-338.32 146.82,-325.15"/>
<polygon fill="black" stroke="black" points="150.32,-325.22 146.82,-315.22 143.32,-325.22 150.32,-325.22"/>
<text xml:space="preserve" text-anchor="middle" x="163.69" y="-333.7" font-family="Times,serif" font-size="14.00">DDG: </text>
</g>
<!-- 30064771740 -->
<g id="node6" class="node">
<title>30064771740</title>
<polygon fill="none" stroke="black" points="282.94,-222 84.69,-222 84.69,-182.5 282.94,-182.5 282.94,-222"/>
<text xml:space="preserve" text-anchor="start" x="123.07" y="-204.7" font-family="Times,serif" font-size="14.00">&lt;operator&gt;.in, 565</text>
<text xml:space="preserve" text-anchor="start" x="92.69" y="-188.95" font-family="Times,serif" font-size="14.00">course_code in self.courses</text>
</g>
<!-- 107374182458&#45;&gt;30064771740 -->
<g id="edge10" class="edge">
<title>107374182458&#45;&gt;30064771740</title>
<path fill="none" stroke="black" d="M170.45,-364.59C196.32,-341.85 236.09,-301.24 250.82,-255.75 252.97,-249.09 254.38,-246.02 250.82,-240 248.53,-236.13 245.67,-232.64 242.43,-229.5"/>
<polygon fill="black" stroke="black" points="244.84,-226.95 234.88,-223.34 240.42,-232.37 244.84,-226.95"/>
<text xml:space="preserve" text-anchor="middle" x="260.38" y="-288.07" font-family="Times,serif" font-size="14.00">DDG: </text>
</g>
<!-- 124554051642 -->
<g id="node2" class="node">
<title>124554051642</title>
<polygon fill="none" stroke="black" points="252.57,-39.5 115.07,-39.5 115.07,0 252.57,0 252.57,-39.5"/>
<text xml:space="preserve" text-anchor="start" x="123.07" y="-22.2" font-family="Times,serif" font-size="14.00">METHOD_RETURN, 564</text>
<text xml:space="preserve" text-anchor="start" x="136.57" y="-6.45" font-family="Times,serif" font-size="14.00">__builtin.bool</text>
</g>
<!-- 111669149788&#45;&gt;124554051642 -->
<g id="edge2" class="edge">
<title>111669149788&#45;&gt;124554051642</title>
<path fill="none" stroke="black" d="M30,-273.31C14.48,-245.63 -9.3,-192.96 4.07,-148.75 18.17,-102.11 25.78,-86.65 64.82,-57.5 76.48,-48.79 90.24,-42.12 104.19,-37.01"/>
<polygon fill="black" stroke="black" points="105.07,-40.41 113.43,-33.9 102.84,-33.78 105.07,-40.41"/>
<text xml:space="preserve" text-anchor="middle" x="34.44" y="-151.2" font-family="Times,serif" font-size="14.00">DDG: self</text>
</g>
<!-- 111669149788&#45;&gt;30064771740 -->
<g id="edge11" class="edge">
<title>111669149788&#45;&gt;30064771740</title>
<path fill="none" stroke="black" d="M49.91,-273.42C55.51,-262.28 63.95,-248.73 75.07,-240 81.26,-235.13 88.14,-230.89 95.33,-227.2"/>
<polygon fill="black" stroke="black" points="96.39,-230.57 103.94,-223.14 93.41,-224.24 96.39,-230.57"/>
<text xml:space="preserve" text-anchor="middle" x="105.44" y="-242.45" font-family="Times,serif" font-size="14.00">DDG: self</text>
</g>
<!-- 111669149789&#45;&gt;30064771740 -->
<g id="edge9" class="edge">
<title>111669149789&#45;&gt;30064771740</title>
<path fill="none" stroke="black" d="M141.04,-273.27C138.99,-262.99 138.2,-250.35 142.82,-240 144.25,-236.79 146.12,-233.74 148.27,-230.87"/>
<polygon fill="black" stroke="black" points="150.82,-233.27 154.89,-223.49 145.61,-228.6 150.82,-233.27"/>
<text xml:space="preserve" text-anchor="middle" x="196.82" y="-242.45" font-family="Times,serif" font-size="14.00">DDG: course_code</text>
</g>
<!-- 141733920841 -->
<g id="node5" class="node">
<title>141733920841</title>
<polygon fill="none" stroke="black" points="814.57,-130.75 569.07,-130.75 569.07,-91.25 814.57,-91.25 814.57,-130.75"/>
<text xml:space="preserve" text-anchor="start" x="654.69" y="-113.45" font-family="Times,serif" font-size="14.00">RETURN, 565</text>
<text xml:space="preserve" text-anchor="start" x="577.07" y="-97.7" font-family="Times,serif" font-size="14.00">return course_code in self.courses</text>
</g>
<!-- 141733920841&#45;&gt;124554051642 -->
<g id="edge1" class="edge">
<title>141733920841&#45;&gt;124554051642</title>
<path fill="none" stroke="black" d="M582.53,-90.8C486.8,-73.98 349.93,-49.93 264.02,-34.84"/>
<polygon fill="black" stroke="black" points="264.71,-31.41 254.26,-33.13 263.5,-38.3 264.71,-31.41"/>
<text xml:space="preserve" text-anchor="middle" x="501.98" y="-59.95" font-family="Times,serif" font-size="14.00">DDG: &lt;RET&gt;</text>
</g>
<!-- 30064771740&#45;&gt;124554051642 -->
<g id="edge3" class="edge">
<title>30064771740&#45;&gt;124554051642</title>
<path fill="none" stroke="black" d="M118.95,-182.15C94.06,-171.3 68.2,-154.91 53.82,-130.75 44.84,-115.66 44.84,-106.34 53.82,-91.25 66.23,-70.4 87.2,-55.33 108.72,-44.62"/>
<polygon fill="black" stroke="black" points="109.99,-47.89 117.58,-40.49 107.04,-41.54 109.99,-47.89"/>
<text xml:space="preserve" text-anchor="middle" x="107.82" y="-105.58" font-family="Times,serif" font-size="14.00">DDG: course_code</text>
</g>
<!-- 30064771740&#45;&gt;124554051642 -->
<g id="edge4" class="edge">
<title>30064771740&#45;&gt;124554051642</title>
<path fill="none" stroke="black" d="M183.82,-182.27C183.82,-150.99 183.82,-88.35 183.82,-50.93"/>
<polygon fill="black" stroke="black" points="187.32,-51.26 183.82,-41.26 180.32,-51.26 187.32,-51.26"/>
<text xml:space="preserve" text-anchor="middle" x="241.19" y="-105.58" font-family="Times,serif" font-size="14.00">DDG: self.courses</text>
</g>
<!-- 30064771740&#45;&gt;124554051642 -->
<g id="edge5" class="edge">
<title>30064771740&#45;&gt;124554051642</title>
<path fill="none" stroke="black" d="M240.84,-182.05C264.4,-170.97 289.32,-154.43 302.82,-130.75 311.51,-115.5 311.51,-106.5 302.82,-91.25 291.27,-70.99 271.37,-55.96 251.1,-45.1"/>
<polygon fill="black" stroke="black" points="252.7,-41.99 242.19,-40.63 249.56,-48.25 252.7,-41.99"/>
<text xml:space="preserve" text-anchor="middle" x="417.34" y="-105.58" font-family="Times,serif" font-size="14.00">DDG: course_code in self.courses</text>
</g>
<!-- 30064771740&#45;&gt;141733920841 -->
<g id="edge8" class="edge">
<title>30064771740&#45;&gt;141733920841</title>
<path fill="none" stroke="black" d="M283.27,-183.78C365.82,-169.27 483.5,-148.6 571.37,-133.16"/>
<polygon fill="black" stroke="black" points="571.74,-136.65 580.99,-131.47 570.53,-129.76 571.74,-136.65"/>
<text xml:space="preserve" text-anchor="middle" x="576.23" y="-151.2" font-family="Times,serif" font-size="14.00">DDG: course_code in self.courses</text>
</g>
</g>
</svg>
