<?xml version="1.0" encoding="UTF-8" standalone="no"?>
<!DOCTYPE svg PUBLIC "-//W3C//DTD SVG 1.1//EN"
 "http://www.w3.org/Graphics/SVG/1.1/DTD/svg11.dtd">
<!-- Generated by graphviz version 13.1.2 (20250809.0930)
 -->
<!-- Title: section_exists Pages: 1 -->
<svg width="825pt" height="413pt"
 viewBox="0.00 0.00 825.00 413.00" xmlns="http://www.w3.org/2000/svg" xmlns:xlink="http://www.w3.org/1999/xlink">
<g id="graph0" class="graph" transform="scale(1 1) rotate(0) translate(4 408.5)">
<title>section_exists</title>
<polygon fill="white" stroke="none" points="-4,4 -4,-408.5 820.5,-408.5 820.5,4 -4,4"/>
<!-- 107374182459 -->
<g id="node1" class="node">
<title>107374182459</title>
<polygon fill="none" stroke="black" points="199,-404.5 88.5,-404.5 88.5,-365 199,-365 199,-404.5"/>
<text xml:space="preserve" text-anchor="start" x="106.62" y="-387.2" font-family="Times,serif" font-size="14.00">METHOD, 567</text>
<text xml:space="preserve" text-anchor="start" x="96.5" y="-371.45" font-family="Times,serif" font-size="14.00">section_exists</text>
</g>
<!-- 111669149790 -->
<g id="node3" class="node">
<title>111669149790</title>
<polygon fill="none" stroke="black" points="83.5,-313.25 0,-313.25 0,-273.75 83.5,-273.75 83.5,-313.25"/>
<text xml:space="preserve" text-anchor="start" x="8" y="-295.95" font-family="Times,serif" font-size="14.00">PARAM, 567</text>
<text xml:space="preserve" text-anchor="start" x="28.25" y="-280.2" font-family="Times,serif" font-size="14.00">self</text>
</g>
<!-- 107374182459&#45;&gt;111669149790 -->
<g id="edge6" class="edge">
<title>107374182459&#45;&gt;111669149790</title>
<path fill="none" stroke="black" d="M121.87,-364.6C107.35,-351.9 88.09,-335.05 72.1,-321.05"/>
<polygon fill="black" stroke="black" points="74.56,-318.56 64.73,-314.61 69.96,-323.83 74.56,-318.56"/>
<text xml:space="preserve" text-anchor="middle" x="115.73" y="-333.7" font-family="Times,serif" font-size="14.00">DDG: </text>
</g>
<!-- 111669149791 -->
<g id="node4" class="node">
<title>111669149791</title>
<polygon fill="none" stroke="black" points="185.5,-313.25 102,-313.25 102,-273.75 185.5,-273.75 185.5,-313.25"/>
<text xml:space="preserve" text-anchor="start" x="110" y="-295.95" font-family="Times,serif" font-size="14.00">PARAM, 567</text>
<text xml:space="preserve" text-anchor="start" x="110" y="-280.2" font-family="Times,serif" font-size="14.00">section_id</text>
</g>
<!-- 107374182459&#45;&gt;111669149791 -->
<g id="edge7" class="edge">
<title>107374182459&#45;&gt;111669149791</title>
<path fill="none" stroke="black" d="M143.75,-364.82C143.75,-353.3 143.75,-338.32 143.75,-325.15"/>
<polygon fill="black" stroke="black" points="147.25,-325.22 143.75,-315.22 140.25,-325.22 147.25,-325.22"/>
<text xml:space="preserve" text-anchor="middle" x="160.62" y="-333.7" font-family="Times,serif" font-size="14.00">DDG: </text>
</g>
<!-- 30064771743 -->
<g id="node6" class="node">
<title>30064771743</title>
<polygon fill="none" stroke="black" points="277.88,-222 79.63,-222 79.63,-182.5 277.88,-182.5 277.88,-222"/>
<text xml:space="preserve" text-anchor="start" x="118" y="-204.7" font-family="Times,serif" font-size="14.00">&lt;operator&gt;.in, 568</text>
<text xml:space="preserve" text-anchor="start" x="87.62" y="-188.95" font-family="Times,serif" font-size="14.00">section_id in self.sections</text>
</g>
<!-- 107374182459&#45;&gt;30064771743 -->
<g id="edge10" class="edge">
<title>107374182459&#45;&gt;30064771743</title>
<path fill="none" stroke="black" d="M165.75,-364.74C190.28,-341.84 228.27,-300.79 241.75,-255.75 243.76,-249.04 245.24,-246.07 241.75,-240 239.61,-236.27 236.92,-232.88 233.87,-229.81"/>
<polygon fill="black" stroke="black" points="236.15,-227.15 226.25,-223.38 231.64,-232.5 236.15,-227.15"/>
<text xml:space="preserve" text-anchor="middle" x="251.89" y="-288.07" font-family="Times,serif" font-size="14.00">DDG: </text>
</g>
<!-- 124554051643 -->
<g id="node2" class="node">
<title>124554051643</title>
<polygon fill="none" stroke="black" points="247.5,-39.5 110,-39.5 110,0 247.5,0 247.5,-39.5"/>
<text xml:space="preserve" text-anchor="start" x="118" y="-22.2" font-family="Times,serif" font-size="14.00">METHOD_RETURN, 567</text>
<text xml:space="preserve" text-anchor="start" x="131.5" y="-6.45" font-family="Times,serif" font-size="14.00">__builtin.bool</text>
</g>
<!-- 111669149790&#45;&gt;124554051643 -->
<g id="edge2" class="edge">
<title>111669149790&#45;&gt;124554051643</title>
<path fill="none" stroke="black" d="M30.15,-273.29C14.94,-245.58 -8.35,-192.88 5,-148.75 19.1,-102.11 26.93,-86.94 65.75,-57.5 75.73,-49.93 87.33,-43.88 99.22,-39.06"/>
<polygon fill="black" stroke="black" points="100.16,-42.45 108.3,-35.67 97.71,-35.9 100.16,-42.45"/>
<text xml:space="preserve" text-anchor="middle" x="35.38" y="-151.2" font-family="Times,serif" font-size="14.00">DDG: self</text>
</g>
<!-- 111669149790&#45;&gt;30064771743 -->
<g id="edge11" class="edge">
<title>111669149790&#45;&gt;30064771743</title>
<path fill="none" stroke="black" d="M48.74,-273.45C53.7,-262.31 61.37,-248.77 72,-240 77.79,-235.22 84.24,-231.05 91.01,-227.41"/>
<polygon fill="black" stroke="black" points="92.34,-230.66 99.78,-223.12 89.26,-224.38 92.34,-230.66"/>
<text xml:space="preserve" text-anchor="middle" x="102.38" y="-242.45" font-family="Times,serif" font-size="14.00">DDG: self</text>
</g>
<!-- 111669149791&#45;&gt;30064771743 -->
<g id="edge9" class="edge">
<title>111669149791&#45;&gt;30064771743</title>
<path fill="none" stroke="black" d="M138.51,-273.33C136.69,-263.06 136.06,-250.42 140.5,-240 141.86,-236.8 143.66,-233.74 145.73,-230.86"/>
<polygon fill="black" stroke="black" points="148.25,-233.29 152.09,-223.41 142.93,-228.74 148.25,-233.29"/>
<text xml:space="preserve" text-anchor="middle" x="191.12" y="-242.45" font-family="Times,serif" font-size="14.00">DDG: section_id</text>
</g>
<!-- 141733920842 -->
<g id="node5" class="node">
<title>141733920842</title>
<polygon fill="none" stroke="black" points="816.5,-130.75 571,-130.75 571,-91.25 816.5,-91.25 816.5,-130.75"/>
<text xml:space="preserve" text-anchor="start" x="656.62" y="-113.45" font-family="Times,serif" font-size="14.00">RETURN, 568</text>
<text xml:space="preserve" text-anchor="start" x="579" y="-97.7" font-family="Times,serif" font-size="14.00">return section_id in self.sections</text>
</g>
<!-- 141733920842&#45;&gt;124554051643 -->
<g id="edge1" class="edge">
<title>141733920842&#45;&gt;124554051643</title>
<path fill="none" stroke="black" d="M582.95,-90.8C485.53,-73.92 346.06,-49.74 259.03,-34.66"/>
<polygon fill="black" stroke="black" points="259.84,-31.25 249.39,-32.99 258.65,-38.15 259.84,-31.25"/>
<text xml:space="preserve" text-anchor="middle" x="500.83" y="-59.95" font-family="Times,serif" font-size="14.00">DDG: &lt;RET&gt;</text>
</g>
<!-- 30064771743&#45;&gt;124554051643 -->
<g id="edge3" class="edge">
<title>30064771743&#45;&gt;124554051643</title>
<path fill="none" stroke="black" d="M118.78,-182.09C94.67,-171.11 69.35,-154.63 55.5,-130.75 46.69,-115.56 46.69,-106.44 55.5,-91.25 67.4,-70.73 87.78,-55.67 108.57,-44.87"/>
<polygon fill="black" stroke="black" points="109.96,-48.09 117.42,-40.57 106.89,-41.79 109.96,-48.09"/>
<text xml:space="preserve" text-anchor="middle" x="106.12" y="-105.58" font-family="Times,serif" font-size="14.00">DDG: section_id</text>
</g>
<!-- 30064771743&#45;&gt;124554051643 -->
<g id="edge4" class="edge">
<title>30064771743&#45;&gt;124554051643</title>
<path fill="none" stroke="black" d="M178.75,-182.27C178.75,-150.99 178.75,-88.35 178.75,-50.93"/>
<polygon fill="black" stroke="black" points="182.25,-51.26 178.75,-41.26 175.25,-51.26 182.25,-51.26"/>
<text xml:space="preserve" text-anchor="middle" x="239.5" y="-105.58" font-family="Times,serif" font-size="14.00">DDG: self.sections</text>
</g>
<!-- 30064771743&#45;&gt;124554051643 -->
<g id="edge5" class="edge">
<title>30064771743&#45;&gt;124554051643</title>
<path fill="none" stroke="black" d="M240.68,-182.12C265.12,-171.19 290.68,-154.75 304.75,-130.75 313.63,-115.61 313.63,-106.39 304.75,-91.25 292.66,-70.62 272.08,-55.58 251.02,-44.82"/>
<polygon fill="black" stroke="black" points="252.58,-41.69 242.05,-40.53 249.56,-48 252.58,-41.69"/>
<text xml:space="preserve" text-anchor="middle" x="419.41" y="-105.58" font-family="Times,serif" font-size="14.00">DDG: section_id in self.sections</text>
</g>
<!-- 30064771743&#45;&gt;141733920842 -->
<g id="edge8" class="edge">
<title>30064771743&#45;&gt;141733920842</title>
<path fill="none" stroke="black" d="M278.35,-183.99C362.05,-169.48 482.01,-148.69 571.52,-133.18"/>
<polygon fill="black" stroke="black" points="572.08,-136.64 581.34,-131.48 570.89,-129.74 572.08,-136.64"/>
<text xml:space="preserve" text-anchor="middle" x="575.08" y="-151.2" font-family="Times,serif" font-size="14.00">DDG: section_id in self.sections</text>
</g>
</g>
</svg>
