<?xml version="1.0" encoding="UTF-8" standalone="no"?>
<!DOCTYPE svg PUBLIC "-//W3C//DTD SVG 1.1//EN"
 "http://www.w3.org/Graphics/SVG/1.1/DTD/svg11.dtd">
<!-- Generated by graphviz version 13.1.2 (20250809.0930)
 -->
<!-- Title: &lt;body&gt; Pages: 1 -->
<svg width="5109pt" height="567pt"
 viewBox="0.00 0.00 5109.00 567.00" xmlns="http://www.w3.org/2000/svg" xmlns:xlink="http://www.w3.org/1999/xlink">
<g id="graph0" class="graph" transform="scale(1 1) rotate(0) translate(4 563)">
<title>&lt;body&gt;</title>
<polygon fill="white" stroke="none" points="-4,4 -4,-563 5104.73,-563 5104.73,4 -4,4"/>
<!-- 107374182407 -->
<g id="node1" class="node">
<title>107374182407</title>
<polygon fill="none" stroke="black" points="2177.74,-559 2087.49,-559 2087.49,-519.5 2177.74,-519.5 2177.74,-559"/>
<text xml:space="preserve" text-anchor="start" x="2095.49" y="-541.7" font-family="Times,serif" font-size="14.00">METHOD, 226</text>
<text xml:space="preserve" text-anchor="start" x="2112.37" y="-525.95" font-family="Times,serif" font-size="14.00">&lt;body&gt;</text>
</g>
<!-- 111669149703 -->
<g id="node3" class="node">
<title>111669149703</title>
<polygon fill="none" stroke="black" points="2111.37,-394.5 2027.87,-394.5 2027.87,-355 2111.37,-355 2111.37,-394.5"/>
<text xml:space="preserve" text-anchor="start" x="2035.87" y="-377.2" font-family="Times,serif" font-size="14.00">PARAM, 226</text>
<text xml:space="preserve" text-anchor="start" x="2059.49" y="-361.45" font-family="Times,serif" font-size="14.00">cls</text>
</g>
<!-- 107374182407&#45;&gt;111669149703 -->
<g id="edge23" class="edge">
<title>107374182407&#45;&gt;111669149703</title>
<path fill="none" stroke="black" d="M2100.34,-519.14C2094.3,-514.13 2088.7,-508.23 2084.87,-501.5 2068.16,-472.17 2066.01,-432.8 2066.96,-405.98"/>
<polygon fill="black" stroke="black" points="2070.45,-406.31 2067.49,-396.13 2063.46,-405.93 2070.45,-406.31"/>
<text xml:space="preserve" text-anchor="middle" x="2101.74" y="-488.2" font-family="Times,serif" font-size="14.00">DDG: </text>
</g>
<!-- 90194313289 -->
<g id="node4" class="node">
<title>90194313289</title>
<polygon fill="none" stroke="black" points="2778.37,-459.88 2424.87,-459.88 2424.87,-420.38 2778.37,-420.38 2778.37,-459.88"/>
<text xml:space="preserve" text-anchor="start" x="2561.12" y="-442.57" font-family="Times,serif" font-size="14.00">LITERAL, 227</text>
<text xml:space="preserve" text-anchor="start" x="2432.87" y="-426.82" font-family="Times,serif" font-size="14.00">&quot;&quot;&quot;Represents a student in the registration sys...</text>
</g>
<!-- 107374182407&#45;&gt;90194313289 -->
<g id="edge24" class="edge">
<title>107374182407&#45;&gt;90194313289</title>
<path fill="none" stroke="black" d="M2177.82,-534.72C2233.18,-529.84 2329.59,-519.52 2410.62,-501.5 2454.18,-491.81 2502.07,-476.67 2538.99,-463.97"/>
<polygon fill="black" stroke="black" points="2539.87,-467.37 2548.16,-460.78 2537.57,-460.76 2539.87,-467.37"/>
<text xml:space="preserve" text-anchor="middle" x="2486.05" y="-488.2" font-family="Times,serif" font-size="14.00">DDG: </text>
</g>
<!-- 68719476918 -->
<g id="node5" class="node">
<title>68719476918</title>
<polygon fill="none" stroke="black" points="1352.24,-459.88 1234.99,-459.88 1234.99,-420.38 1352.24,-420.38 1352.24,-459.88"/>
<text xml:space="preserve" text-anchor="start" x="1242.99" y="-442.57" font-family="Times,serif" font-size="14.00">IDENTIFIER, 228</text>
<text xml:space="preserve" text-anchor="start" x="1259.87" y="-426.82" font-family="Times,serif" font-size="14.00">student_id</text>
</g>
<!-- 107374182407&#45;&gt;68719476918 -->
<g id="edge25" class="edge">
<title>107374182407&#45;&gt;68719476918</title>
<path fill="none" stroke="black" d="M2087.04,-537.83C1984.99,-536.39 1730.56,-529.98 1519.87,-501.5 1448.17,-491.81 1429.87,-488.68 1360.62,-467.75 1357.08,-466.68 1353.47,-465.51 1349.85,-464.26"/>
<polygon fill="black" stroke="black" points="1351.04,-460.97 1340.45,-460.88 1348.67,-467.56 1351.04,-460.97"/>
<text xml:space="preserve" text-anchor="middle" x="1536.74" y="-488.2" font-family="Times,serif" font-size="14.00">DDG: </text>
</g>
<!-- 68719476919 -->
<g id="node6" class="node">
<title>68719476919</title>
<polygon fill="none" stroke="black" points="1487.24,-459.88 1369.99,-459.88 1369.99,-420.38 1487.24,-420.38 1487.24,-459.88"/>
<text xml:space="preserve" text-anchor="start" x="1377.99" y="-442.57" font-family="Times,serif" font-size="14.00">IDENTIFIER, 229</text>
<text xml:space="preserve" text-anchor="start" x="1415.12" y="-426.82" font-family="Times,serif" font-size="14.00">name</text>
</g>
<!-- 107374182407&#45;&gt;68719476919 -->
<g id="edge26" class="edge">
<title>107374182407&#45;&gt;68719476919</title>
<path fill="none" stroke="black" d="M2087.03,-537.41C1999.08,-535.22 1800.06,-527.58 1634.87,-501.5 1572.39,-491.64 1556.92,-486.82 1496.62,-467.75 1493.11,-466.64 1489.53,-465.44 1485.93,-464.19"/>
<polygon fill="black" stroke="black" points="1487.16,-460.91 1476.57,-460.8 1484.78,-467.5 1487.16,-460.91"/>
<text xml:space="preserve" text-anchor="middle" x="1651.74" y="-488.2" font-family="Times,serif" font-size="14.00">DDG: </text>
</g>
<!-- 30064771259 -->
<g id="node7" class="node">
<title>30064771259</title>
<polygon fill="none" stroke="black" points="2229.37,-130.75 2037.87,-130.75 2037.87,-91.25 2229.37,-91.25 2229.37,-130.75"/>
<text xml:space="preserve" text-anchor="start" x="2045.87" y="-113.45" font-family="Times,serif" font-size="14.00">&lt;operator&gt;.assignment, 230</text>
<text xml:space="preserve" text-anchor="start" x="2079.62" y="-97.7" font-family="Times,serif" font-size="14.00">max_credits = 18</text>
</g>
<!-- 107374182407&#45;&gt;30064771259 -->
<g id="edge27" class="edge">
<title>107374182407&#45;&gt;30064771259</title>
<path fill="none" stroke="black" d="M2132.62,-519.27C2132.62,-499.69 2132.62,-468.27 2132.62,-441.12 2132.62,-441.12 2132.62,-441.12 2132.62,-201.25 2132.62,-181.7 2132.86,-159.75 2133.11,-142.51"/>
<polygon fill="black" stroke="black" points="2136.6,-142.72 2133.26,-132.66 2129.6,-142.61 2136.6,-142.72"/>
<text xml:space="preserve" text-anchor="middle" x="2149.49" y="-311.82" font-family="Times,serif" font-size="14.00">DDG: </text>
</g>
<!-- 30064771281 -->
<g id="node11" class="node">
<title>30064771281</title>
<polygon fill="none" stroke="black" points="2601.37,-130.75 2247.87,-130.75 2247.87,-91.25 2601.37,-91.25 2601.37,-130.75"/>
<text xml:space="preserve" text-anchor="start" x="2336.87" y="-113.45" font-family="Times,serif" font-size="14.00">&lt;operator&gt;.assignment, 235</text>
<text xml:space="preserve" text-anchor="start" x="2255.87" y="-97.7" font-family="Times,serif" font-size="14.00">current_credit_load = def current_credit_load(...)</text>
</g>
<!-- 107374182407&#45;&gt;30064771281 -->
<g id="edge31" class="edge">
<title>107374182407&#45;&gt;30064771281</title>
<path fill="none" stroke="black" d="M2157.49,-519.18C2177.61,-501.41 2202.62,-472.93 2202.62,-441.12 2202.62,-441.12 2202.62,-441.12 2202.62,-201.25 2202.62,-167.13 2228.44,-164.67 2258.62,-148.75 2269.01,-143.27 2280.19,-138.6 2291.65,-134.63"/>
<polygon fill="black" stroke="black" points="2292.38,-138.07 2300.8,-131.64 2290.21,-131.41 2292.38,-138.07"/>
<text xml:space="preserve" text-anchor="middle" x="2219.49" y="-311.82" font-family="Times,serif" font-size="14.00">DDG: </text>
</g>
<!-- 30064771284 -->
<g id="node12" class="node">
<title>30064771284</title>
<polygon fill="none" stroke="black" points="3053.87,-130.75 2781.37,-130.75 2781.37,-91.25 3053.87,-91.25 3053.87,-130.75"/>
<text xml:space="preserve" text-anchor="start" x="2829.87" y="-113.45" font-family="Times,serif" font-size="14.00">&lt;operator&gt;.assignment, 244</text>
<text xml:space="preserve" text-anchor="start" x="2789.37" y="-97.7" font-family="Times,serif" font-size="14.00">has_completed = def has_completed(...)</text>
</g>
<!-- 107374182407&#45;&gt;30064771284 -->
<g id="edge32" class="edge">
<title>107374182407&#45;&gt;30064771284</title>
<path fill="none" stroke="black" d="M2178.07,-527.12C2218.95,-514.07 2272.62,-488.01 2272.62,-441.12 2272.62,-441.12 2272.62,-441.12 2272.62,-201.25 2272.62,-167.13 2297.3,-162.28 2328.62,-148.75 2329.88,-148.2 2595.63,-131.78 2769.69,-121.08"/>
<polygon fill="black" stroke="black" points="2769.74,-124.58 2779.51,-120.48 2769.31,-117.6 2769.74,-124.58"/>
<text xml:space="preserve" text-anchor="middle" x="2289.49" y="-311.82" font-family="Times,serif" font-size="14.00">DDG: </text>
</g>
<!-- 30064771299 -->
<g id="node13" class="node">
<title>30064771299</title>
<polygon fill="none" stroke="black" points="3552.37,-130.75 3198.87,-130.75 3198.87,-91.25 3552.37,-91.25 3552.37,-130.75"/>
<text xml:space="preserve" text-anchor="start" x="3287.87" y="-113.45" font-family="Times,serif" font-size="14.00">&lt;operator&gt;.assignment, 248</text>
<text xml:space="preserve" text-anchor="start" x="3206.87" y="-97.7" font-family="Times,serif" font-size="14.00">is_registered_in_semester = def is_registered_i...</text>
</g>
<!-- 107374182407&#45;&gt;30064771299 -->
<g id="edge33" class="edge">
<title>107374182407&#45;&gt;30064771299</title>
<path fill="none" stroke="black" d="M2178.18,-536.69C2239.95,-531.86 2342.62,-513.03 2342.62,-441.12 2342.62,-441.12 2342.62,-441.12 2342.62,-201.25 2342.62,-167.13 2367.06,-161.72 2398.62,-148.75 2432.75,-134.72 3025.75,-132.35 3062.62,-130.75 3102.97,-128.99 3146.22,-126.68 3187.31,-124.28"/>
<polygon fill="black" stroke="black" points="3187.26,-127.79 3197.04,-123.71 3186.85,-120.8 3187.26,-127.79"/>
<text xml:space="preserve" text-anchor="middle" x="2359.49" y="-311.82" font-family="Times,serif" font-size="14.00">DDG: </text>
</g>
<!-- 30064771323 -->
<g id="node14" class="node">
<title>30064771323</title>
<polygon fill="none" stroke="black" points="4172.37,-130.75 3980.87,-130.75 3980.87,-91.25 4172.37,-91.25 4172.37,-130.75"/>
<text xml:space="preserve" text-anchor="start" x="3988.87" y="-113.45" font-family="Times,serif" font-size="14.00">&lt;operator&gt;.assignment, 256</text>
<text xml:space="preserve" text-anchor="start" x="3988.87" y="-97.7" font-family="Times,serif" font-size="14.00">to_dict = def to_dict(...)</text>
</g>
<!-- 107374182407&#45;&gt;30064771323 -->
<g id="edge34" class="edge">
<title>107374182407&#45;&gt;30064771323</title>
<path fill="none" stroke="black" d="M2178.24,-537.53C2219.92,-535.13 2282.12,-527.04 2329.62,-501.5 2378.06,-475.44 2367.21,-438.62 2415.62,-412.5 2688.65,-265.16 3646.33,-155.98 3969.32,-122.63"/>
<polygon fill="black" stroke="black" points="3969.44,-126.13 3979.03,-121.63 3968.73,-119.17 3969.44,-126.13"/>
<text xml:space="preserve" text-anchor="middle" x="2789.54" y="-311.82" font-family="Times,serif" font-size="14.00">DDG: </text>
</g>
<!-- 68719476923 -->
<g id="node16" class="node">
<title>68719476923</title>
<polygon fill="none" stroke="black" points="3078.49,-467.75 2866.74,-467.75 2866.74,-412.5 3078.49,-412.5 3078.49,-467.75"/>
<text xml:space="preserve" text-anchor="start" x="2921.99" y="-450.45" font-family="Times,serif" font-size="14.00">IDENTIFIER, 231</text>
<text xml:space="preserve" text-anchor="start" x="2955.74" y="-434.7" font-family="Times,serif" font-size="14.00">field</text>
<text xml:space="preserve" text-anchor="start" x="2874.74" y="-418.95" font-family="Times,serif" font-size="14.00">field(default_factory = list)</text>
</g>
<!-- 107374182407&#45;&gt;68719476923 -->
<g id="edge37" class="edge">
<title>107374182407&#45;&gt;68719476923</title>
<path fill="none" stroke="black" d="M2178.2,-538.52C2312.68,-538.9 2705.96,-536.86 2828.62,-501.5 2842.43,-497.52 2843.85,-491.85 2856.87,-485.75 2866.67,-481.16 2877.08,-476.65 2887.49,-472.37"/>
<polygon fill="black" stroke="black" points="2888.51,-475.73 2896.46,-468.73 2885.88,-469.24 2888.51,-475.73"/>
<text xml:space="preserve" text-anchor="middle" x="2873.74" y="-488.2" font-family="Times,serif" font-size="14.00">DDG: </text>
</g>
<!-- 30064771260 -->
<g id="node17" class="node">
<title>30064771260</title>
<polygon fill="none" stroke="black" points="1216.49,-459.88 1004.74,-459.88 1004.74,-420.38 1216.49,-420.38 1216.49,-459.88"/>
<text xml:space="preserve" text-anchor="start" x="1076.87" y="-442.57" font-family="Times,serif" font-size="14.00">field, 231</text>
<text xml:space="preserve" text-anchor="start" x="1012.74" y="-426.82" font-family="Times,serif" font-size="14.00">field(default_factory = list)</text>
</g>
<!-- 107374182407&#45;&gt;30064771260 -->
<g id="edge39" class="edge">
<title>107374182407&#45;&gt;30064771260</title>
<path fill="none" stroke="black" d="M2087.06,-538.46C1970.32,-538.48 1651.1,-535.16 1387.87,-501.5 1321.81,-493.05 1248.2,-476.69 1193.44,-463.13"/>
<polygon fill="black" stroke="black" points="1194.42,-459.77 1183.87,-460.74 1192.72,-466.56 1194.42,-459.77"/>
<text xml:space="preserve" text-anchor="middle" x="1404.74" y="-488.2" font-family="Times,serif" font-size="14.00">DDG: </text>
</g>
<!-- 68719476926 -->
<g id="node18" class="node">
<title>68719476926</title>
<polygon fill="none" stroke="black" points="1717.49,-467.75 1505.74,-467.75 1505.74,-412.5 1717.49,-412.5 1717.49,-467.75"/>
<text xml:space="preserve" text-anchor="start" x="1560.99" y="-450.45" font-family="Times,serif" font-size="14.00">IDENTIFIER, 232</text>
<text xml:space="preserve" text-anchor="start" x="1594.74" y="-434.7" font-family="Times,serif" font-size="14.00">field</text>
<text xml:space="preserve" text-anchor="start" x="1513.74" y="-418.95" font-family="Times,serif" font-size="14.00">field(default_factory = list)</text>
</g>
<!-- 107374182407&#45;&gt;68719476926 -->
<g id="edge40" class="edge">
<title>107374182407&#45;&gt;68719476926</title>
<path fill="none" stroke="black" d="M2087.2,-537.08C1992.19,-534.2 1775.48,-525.17 1705.87,-501.5 1687.74,-495.33 1669.6,-484.97 1654.15,-474.55"/>
<polygon fill="black" stroke="black" points="1656.34,-471.81 1646.14,-468.96 1652.33,-477.55 1656.34,-471.81"/>
<text xml:space="preserve" text-anchor="middle" x="1722.74" y="-488.2" font-family="Times,serif" font-size="14.00">DDG: </text>
</g>
<!-- 30064771262 -->
<g id="node19" class="node">
<title>30064771262</title>
<polygon fill="none" stroke="black" points="1295.49,-337 1083.74,-337 1083.74,-297.5 1295.49,-297.5 1295.49,-337"/>
<text xml:space="preserve" text-anchor="start" x="1155.87" y="-319.7" font-family="Times,serif" font-size="14.00">field, 232</text>
<text xml:space="preserve" text-anchor="start" x="1091.74" y="-303.95" font-family="Times,serif" font-size="14.00">field(default_factory = list)</text>
</g>
<!-- 107374182407&#45;&gt;30064771262 -->
<g id="edge42" class="edge">
<title>107374182407&#45;&gt;30064771262</title>
<path fill="none" stroke="black" d="M2087,-534.01C2000.26,-525.24 1815.5,-502.93 1762.87,-467.75 1738.45,-451.43 1751.15,-428.64 1726.62,-412.5 1659.27,-368.19 1443.8,-341.12 1307.14,-327.96"/>
<polygon fill="black" stroke="black" points="1307.6,-324.49 1297.31,-327.03 1306.94,-331.46 1307.6,-324.49"/>
<text xml:space="preserve" text-anchor="middle" x="1779.74" y="-434.7" font-family="Times,serif" font-size="14.00">DDG: </text>
</g>
<!-- 68719476929 -->
<g id="node20" class="node">
<title>68719476929</title>
<polygon fill="none" stroke="black" points="2017.49,-467.75 1805.74,-467.75 1805.74,-412.5 2017.49,-412.5 2017.49,-467.75"/>
<text xml:space="preserve" text-anchor="start" x="1860.99" y="-450.45" font-family="Times,serif" font-size="14.00">IDENTIFIER, 233</text>
<text xml:space="preserve" text-anchor="start" x="1894.74" y="-434.7" font-family="Times,serif" font-size="14.00">field</text>
<text xml:space="preserve" text-anchor="start" x="1813.74" y="-418.95" font-family="Times,serif" font-size="14.00">field(default_factory = list)</text>
</g>
<!-- 107374182407&#45;&gt;68719476929 -->
<g id="edge43" class="edge">
<title>107374182407&#45;&gt;68719476929</title>
<path fill="none" stroke="black" d="M2087.25,-529.96C2060.45,-524.08 2026.3,-514.83 1997.87,-501.5 1982.54,-494.31 1967.01,-484.42 1953.44,-474.73"/>
<polygon fill="black" stroke="black" points="1955.73,-472.07 1945.6,-468.97 1951.59,-477.71 1955.73,-472.07"/>
<text xml:space="preserve" text-anchor="middle" x="2014.74" y="-488.2" font-family="Times,serif" font-size="14.00">DDG: </text>
</g>
<!-- 30064771264 -->
<g id="node21" class="node">
<title>30064771264</title>
<polygon fill="none" stroke="black" points="1128.49,-222 916.74,-222 916.74,-182.5 1128.49,-182.5 1128.49,-222"/>
<text xml:space="preserve" text-anchor="start" x="988.87" y="-204.7" font-family="Times,serif" font-size="14.00">field, 233</text>
<text xml:space="preserve" text-anchor="start" x="924.74" y="-188.95" font-family="Times,serif" font-size="14.00">field(default_factory = list)</text>
</g>
<!-- 107374182407&#45;&gt;30064771264 -->
<g id="edge45" class="edge">
<title>107374182407&#45;&gt;30064771264</title>
<path fill="none" stroke="black" d="M2095.09,-519.05C2087.4,-514.02 2079.78,-508.12 2073.62,-501.5 2043.13,-468.76 2062.36,-439.4 2026.62,-412.5 1990.92,-385.63 1393.72,-272.21 1137.68,-224.52"/>
<polygon fill="black" stroke="black" points="1138.45,-221.1 1127.98,-222.71 1137.17,-227.98 1138.45,-221.1"/>
<text xml:space="preserve" text-anchor="middle" x="1988.68" y="-369.32" font-family="Times,serif" font-size="14.00">DDG: </text>
</g>
<!-- 68719477000 -->
<g id="node22" class="node">
<title>68719477000</title>
<polygon fill="none" stroke="black" points="3328.62,-467.75 3096.62,-467.75 3096.62,-412.5 3328.62,-412.5 3328.62,-467.75"/>
<text xml:space="preserve" text-anchor="start" x="3161.99" y="-450.45" font-family="Times,serif" font-size="14.00">IDENTIFIER, 266</text>
<text xml:space="preserve" text-anchor="start" x="3172.12" y="-434.7" font-family="Times,serif" font-size="14.00">staticmethod</text>
<text xml:space="preserve" text-anchor="start" x="3104.62" y="-418.95" font-family="Times,serif" font-size="14.00">staticmethod(def from_dict(...))</text>
</g>
<!-- 107374182407&#45;&gt;68719477000 -->
<g id="edge47" class="edge">
<title>107374182407&#45;&gt;68719477000</title>
<path fill="none" stroke="black" d="M2178.19,-537.79C2320.14,-536.08 2753.05,-528.7 2890.62,-501.5 2911.1,-497.45 2914.54,-490.5 2934.87,-485.75 2998.05,-470.98 3018.14,-478.06 3085.08,-468.04"/>
<polygon fill="black" stroke="black" points="3085.42,-471.53 3094.75,-466.52 3084.33,-464.62 3085.42,-471.53"/>
<text xml:space="preserve" text-anchor="middle" x="2951.74" y="-488.2" font-family="Times,serif" font-size="14.00">DDG: </text>
</g>
<!-- 30064771341 -->
<g id="node23" class="node">
<title>30064771341</title>
<polygon fill="none" stroke="black" points="3731.62,-279.5 3499.62,-279.5 3499.62,-240 3731.62,-240 3731.62,-279.5"/>
<text xml:space="preserve" text-anchor="start" x="3558.24" y="-262.2" font-family="Times,serif" font-size="14.00">staticmethod, 266</text>
<text xml:space="preserve" text-anchor="start" x="3507.62" y="-246.45" font-family="Times,serif" font-size="14.00">staticmethod(def from_dict(...))</text>
</g>
<!-- 107374182407&#45;&gt;30064771341 -->
<g id="edge48" class="edge">
<title>107374182407&#45;&gt;30064771341</title>
<path fill="none" stroke="black" d="M2178.13,-534.1C2248.58,-527.6 2388.25,-514.42 2506.62,-501.5 2631.66,-487.85 2680.7,-534.01 2787.62,-467.75 2812.58,-452.28 2799.46,-428.83 2823.87,-412.5 2930.84,-340.92 3292.8,-293.86 3488.13,-273.04"/>
<polygon fill="black" stroke="black" points="3488.23,-276.55 3497.81,-272.02 3487.5,-269.59 3488.23,-276.55"/>
<text xml:space="preserve" text-anchor="middle" x="2840.74" y="-434.7" font-family="Times,serif" font-size="14.00">DDG: </text>
</g>
<!-- 124554051591 -->
<g id="node2" class="node">
<title>124554051591</title>
<polygon fill="none" stroke="black" points="2341.37,-39.5 2203.87,-39.5 2203.87,0 2341.37,0 2341.37,-39.5"/>
<text xml:space="preserve" text-anchor="start" x="2211.87" y="-22.2" font-family="Times,serif" font-size="14.00">METHOD_RETURN, 226</text>
<text xml:space="preserve" text-anchor="start" x="2262.49" y="-6.45" font-family="Times,serif" font-size="14.00">ANY</text>
</g>
<!-- 111669149703&#45;&gt;124554051591 -->
<g id="edge1" class="edge">
<title>111669149703&#45;&gt;124554051591</title>
<path fill="none" stroke="black" d="M2058.46,-354.6C2028.25,-299.97 1952.3,-141.95 2031.62,-57.5 2053.13,-34.59 2130.79,-25.9 2192.21,-22.63"/>
<polygon fill="black" stroke="black" points="2192.14,-26.14 2201.96,-22.16 2191.8,-19.15 2192.14,-26.14"/>
<text xml:space="preserve" text-anchor="middle" x="2032.02" y="-196.82" font-family="Times,serif" font-size="14.00">DDG: cls</text>
</g>
<!-- 30064771259&#45;&gt;124554051591 -->
<g id="edge2" class="edge">
<title>30064771259&#45;&gt;124554051591</title>
<path fill="none" stroke="black" d="M2160.55,-90.97C2180.01,-77.25 2203.72,-60.61 2208.62,-57.5 2214.94,-53.48 2221.71,-49.39 2228.4,-45.45"/>
<polygon fill="black" stroke="black" points="2229.87,-48.64 2236.76,-40.6 2226.35,-42.59 2229.87,-48.64"/>
<text xml:space="preserve" text-anchor="middle" x="2262.62" y="-59.95" font-family="Times,serif" font-size="14.00">DDG: max_credits</text>
</g>
<!-- 30064771259&#45;&gt;124554051591 -->
<g id="edge3" class="edge">
<title>30064771259&#45;&gt;124554051591</title>
<path fill="none" stroke="black" d="M2058.61,-90.82C2040.26,-82.55 2028.91,-71.5 2040.87,-57.5 2060.25,-34.8 2133.39,-26.05 2192.39,-22.71"/>
<polygon fill="black" stroke="black" points="2192.29,-26.22 2202.09,-22.21 2191.92,-19.23 2192.29,-26.22"/>
<text xml:space="preserve" text-anchor="middle" x="2111.74" y="-59.95" font-family="Times,serif" font-size="14.00">DDG: max_credits = 18</text>
</g>
<!-- 30064771261 -->
<g id="node8" class="node">
<title>30064771261</title>
<polygon fill="none" stroke="black" points="352.99,-130.75 6.24,-130.75 6.24,-91.25 352.99,-91.25 352.99,-130.75"/>
<text xml:space="preserve" text-anchor="start" x="91.87" y="-113.45" font-family="Times,serif" font-size="14.00">&lt;operator&gt;.assignment, 231</text>
<text xml:space="preserve" text-anchor="start" x="14.24" y="-97.7" font-family="Times,serif" font-size="14.00">completed_courses = field(default_factory = list)</text>
</g>
<!-- 30064771261&#45;&gt;124554051591 -->
<g id="edge4" class="edge">
<title>30064771261&#45;&gt;124554051591</title>
<path fill="none" stroke="black" d="M14.58,-90.76C-0.62,-83.1 -5.55,-72.4 9.12,-57.5 48.17,-17.81 1793.11,-19.59 2192,-20.52"/>
<polygon fill="black" stroke="black" points="2191.88,-24.02 2201.89,-20.55 2191.9,-17.02 2191.88,-24.02"/>
<text xml:space="preserve" text-anchor="middle" x="83.37" y="-59.95" font-family="Times,serif" font-size="14.00">DDG: completed_courses</text>
</g>
<!-- 30064771261&#45;&gt;124554051591 -->
<g id="edge5" class="edge">
<title>30064771261&#45;&gt;124554051591</title>
<path fill="none" stroke="black" d="M174.31,-90.94C172.43,-79.66 172.56,-65.96 181.12,-57.5 217.5,-21.51 1812.28,-20.41 2192.06,-20.66"/>
<polygon fill="black" stroke="black" points="2191.95,-24.16 2201.95,-20.66 2191.96,-17.16 2191.95,-24.16"/>
<text xml:space="preserve" text-anchor="middle" x="363.37" y="-59.95" font-family="Times,serif" font-size="14.00">DDG: completed_courses = field(default_factory = list)</text>
</g>
<!-- 30064771263 -->
<g id="node9" class="node">
<title>30064771263</title>
<polygon fill="none" stroke="black" points="1608.37,-130.75 1254.87,-130.75 1254.87,-91.25 1608.37,-91.25 1608.37,-130.75"/>
<text xml:space="preserve" text-anchor="start" x="1343.87" y="-113.45" font-family="Times,serif" font-size="14.00">&lt;operator&gt;.assignment, 232</text>
<text xml:space="preserve" text-anchor="start" x="1262.87" y="-97.7" font-family="Times,serif" font-size="14.00">current_enrollments = field(default_factory = l...</text>
</g>
<!-- 30064771263&#45;&gt;124554051591 -->
<g id="edge6" class="edge">
<title>30064771263&#45;&gt;124554051591</title>
<path fill="none" stroke="black" d="M1426.13,-90.79C1424.21,-79.6 1424.28,-66.05 1432.62,-57.5 1458.88,-30.58 1987.32,-23.19 2192.32,-21.33"/>
<polygon fill="black" stroke="black" points="2192.11,-24.83 2202.08,-21.24 2192.05,-17.83 2192.11,-24.83"/>
<text xml:space="preserve" text-anchor="middle" x="1513.62" y="-59.95" font-family="Times,serif" font-size="14.00">DDG: current_enrollments</text>
</g>
<!-- 30064771263&#45;&gt;124554051591 -->
<g id="edge7" class="edge">
<title>30064771263&#45;&gt;124554051591</title>
<path fill="none" stroke="black" d="M1543.03,-90.82C1560.65,-86.11 1578.4,-80.32 1594.62,-73.25 1605.97,-68.3 1605.89,-61.49 1617.62,-57.5 1721.64,-22.07 2041.02,-19.17 2191.98,-19.89"/>
<polygon fill="black" stroke="black" points="2191.89,-23.39 2201.91,-19.95 2191.93,-16.39 2191.89,-23.39"/>
<text xml:space="preserve" text-anchor="middle" x="1806.62" y="-59.95" font-family="Times,serif" font-size="14.00">DDG: current_enrollments = field(default_factory = list)</text>
</g>
<!-- 30064771265 -->
<g id="node10" class="node">
<title>30064771265</title>
<polygon fill="none" stroke="black" points="1100.37,-130.75 746.87,-130.75 746.87,-91.25 1100.37,-91.25 1100.37,-130.75"/>
<text xml:space="preserve" text-anchor="start" x="835.87" y="-113.45" font-family="Times,serif" font-size="14.00">&lt;operator&gt;.assignment, 233</text>
<text xml:space="preserve" text-anchor="start" x="754.87" y="-97.7" font-family="Times,serif" font-size="14.00">waitlisted_sections = field(default_factory = l...</text>
</g>
<!-- 30064771265&#45;&gt;124554051591 -->
<g id="edge8" class="edge">
<title>30064771265&#45;&gt;124554051591</title>
<path fill="none" stroke="black" d="M746.46,-104.17C654.75,-97.87 566.94,-84.76 593.62,-57.5 621.88,-28.62 1860.92,-22.2 2192,-21"/>
<polygon fill="black" stroke="black" points="2191.89,-24.5 2201.87,-20.96 2191.86,-17.5 2191.89,-24.5"/>
<text xml:space="preserve" text-anchor="middle" x="674.62" y="-59.95" font-family="Times,serif" font-size="14.00">DDG: waitlisted_sections</text>
</g>
<!-- 30064771265&#45;&gt;124554051591 -->
<g id="edge10" class="edge">
<title>30064771265&#45;&gt;124554051591</title>
<path fill="none" stroke="black" d="M790.1,-90.76C772.31,-83.1 764.58,-72.4 779.12,-57.5 803.97,-32.03 1884.69,-23.22 2191.93,-21.22"/>
<polygon fill="black" stroke="black" points="2191.9,-24.72 2201.88,-21.16 2191.85,-17.72 2191.9,-24.72"/>
<text xml:space="preserve" text-anchor="middle" x="893.87" y="-59.95" font-family="Times,serif" font-size="14.00">DDG: field(default_factory = list)</text>
</g>
<!-- 30064771265&#45;&gt;124554051591 -->
<g id="edge11" class="edge">
<title>30064771265&#45;&gt;124554051591</title>
<path fill="none" stroke="black" d="M968.23,-90.86C981.26,-85.23 995.53,-79.03 1008.62,-73.25 1024.22,-66.37 1026.99,-61.33 1043.62,-57.5 1154.76,-31.9 1936.86,-23.43 2192.2,-21.33"/>
<polygon fill="black" stroke="black" points="2192.11,-24.83 2202.08,-21.25 2192.05,-17.83 2192.11,-24.83"/>
<text xml:space="preserve" text-anchor="middle" x="1232.62" y="-59.95" font-family="Times,serif" font-size="14.00">DDG: waitlisted_sections = field(default_factory = list)</text>
</g>
<!-- 30064771281&#45;&gt;124554051591 -->
<g id="edge12" class="edge">
<title>30064771281&#45;&gt;124554051591</title>
<path fill="none" stroke="black" d="M2601.47,-99.84C2671.34,-92.35 2730.82,-79.47 2710.62,-57.5 2686.94,-31.76 2472.54,-24.04 2352.73,-21.73"/>
<polygon fill="black" stroke="black" points="2353.01,-18.23 2342.95,-21.55 2352.89,-25.23 2353.01,-18.23"/>
<text xml:space="preserve" text-anchor="middle" x="2795.61" y="-59.95" font-family="Times,serif" font-size="14.00">DDG: current_credit_load</text>
</g>
<!-- 30064771281&#45;&gt;124554051591 -->
<g id="edge13" class="edge">
<title>30064771281&#45;&gt;124554051591</title>
<path fill="none" stroke="black" d="M2370.45,-90.83C2358.55,-85.77 2346.26,-79.85 2335.37,-73.25 2326.06,-67.61 2324.96,-64.49 2316.62,-57.5 2312.54,-54.08 2308.25,-50.49 2304.01,-46.95"/>
<polygon fill="black" stroke="black" points="2306.54,-44.51 2296.63,-40.78 2302.06,-49.88 2306.54,-44.51"/>
<text xml:space="preserve" text-anchor="middle" x="2520.99" y="-59.95" font-family="Times,serif" font-size="14.00">DDG: current_credit_load = def current_credit_load(...)</text>
</g>
<!-- 30064771284&#45;&gt;124554051591 -->
<g id="edge14" class="edge">
<title>30064771284&#45;&gt;124554051591</title>
<path fill="none" stroke="black" d="M2909.44,-90.81C2903.34,-79.03 2893.76,-64.83 2880.62,-57.5 2835.68,-32.44 2507.64,-24.24 2352.94,-21.75"/>
<polygon fill="black" stroke="black" points="2353.23,-18.26 2343.17,-21.6 2353.12,-25.26 2353.23,-18.26"/>
<text xml:space="preserve" text-anchor="middle" x="2958.22" y="-59.95" font-family="Times,serif" font-size="14.00">DDG: has_completed</text>
</g>
<!-- 30064771284&#45;&gt;124554051591 -->
<g id="edge15" class="edge">
<title>30064771284&#45;&gt;124554051591</title>
<path fill="none" stroke="black" d="M3004.9,-90.84C3024.6,-82.71 3036.18,-71.74 3022.62,-57.5 2999.82,-33.56 2542.13,-24.48 2353.15,-21.75"/>
<polygon fill="black" stroke="black" points="2353.21,-18.25 2343.16,-21.61 2353.11,-25.25 2353.21,-18.25"/>
<text xml:space="preserve" text-anchor="middle" x="3173.6" y="-59.95" font-family="Times,serif" font-size="14.00">DDG: has_completed = def has_completed(...)</text>
</g>
<!-- 30064771299&#45;&gt;124554051591 -->
<g id="edge16" class="edge">
<title>30064771299&#45;&gt;124554051591</title>
<path fill="none" stroke="black" d="M3362.26,-90.81C3352.73,-78.87 3338.79,-64.49 3322.62,-57.5 3234.62,-19.48 2583.22,-19.12 2352.96,-20.21"/>
<polygon fill="black" stroke="black" points="2353.16,-16.71 2343.18,-20.26 2353.2,-23.71 2353.16,-16.71"/>
<text xml:space="preserve" text-anchor="middle" x="3445.75" y="-59.95" font-family="Times,serif" font-size="14.00">DDG: is_registered_in_semester</text>
</g>
<!-- 30064771299&#45;&gt;124554051591 -->
<g id="edge17" class="edge">
<title>30064771299&#45;&gt;124554051591</title>
<path fill="none" stroke="black" d="M3546.16,-90.81C3560.71,-83.11 3565.1,-72.4 3550.62,-57.5 3529.69,-35.96 2630.12,-24.57 2353.01,-21.57"/>
<polygon fill="black" stroke="black" points="2353.4,-18.07 2343.37,-21.46 2353.33,-25.07 2353.4,-18.07"/>
<text xml:space="preserve" text-anchor="middle" x="3785.59" y="-59.95" font-family="Times,serif" font-size="14.00">DDG: is_registered_in_semester = def is_registered_in_semester(...)</text>
</g>
<!-- 30064771323&#45;&gt;124554051591 -->
<g id="edge18" class="edge">
<title>30064771323&#45;&gt;124554051591</title>
<path fill="none" stroke="black" d="M4172.76,-104.98C4220.71,-100.25 4271.65,-91.07 4286.62,-73.25 4291.12,-67.89 4291.52,-62.49 4286.62,-57.5 4252.18,-22.43 2724.35,-20.62 2353.22,-20.69"/>
<polygon fill="black" stroke="black" points="2353.31,-17.19 2343.31,-20.7 2353.31,-24.19 2353.31,-17.19"/>
<text xml:space="preserve" text-anchor="middle" x="4330.65" y="-59.95" font-family="Times,serif" font-size="14.00">DDG: to_dict</text>
</g>
<!-- 30064771323&#45;&gt;124554051591 -->
<g id="edge19" class="edge">
<title>30064771323&#45;&gt;124554051591</title>
<path fill="none" stroke="black" d="M4060.92,-90.95C4049.71,-78.9 4033.49,-64.35 4015.62,-57.5 3937.23,-27.47 2685.5,-21.89 2353.12,-20.93"/>
<polygon fill="black" stroke="black" points="2353.21,-17.43 2343.2,-20.91 2353.19,-24.43 2353.21,-17.43"/>
<text xml:space="preserve" text-anchor="middle" x="4146.46" y="-59.95" font-family="Times,serif" font-size="14.00">DDG: to_dict = def to_dict(...)</text>
</g>
<!-- 30064771342 -->
<g id="node15" class="node">
<title>30064771342</title>
<polygon fill="none" stroke="black" points="4628.12,-130.75 4315.12,-130.75 4315.12,-91.25 4628.12,-91.25 4628.12,-130.75"/>
<text xml:space="preserve" text-anchor="start" x="4383.87" y="-113.45" font-family="Times,serif" font-size="14.00">&lt;operator&gt;.assignment, 267</text>
<text xml:space="preserve" text-anchor="start" x="4323.12" y="-97.7" font-family="Times,serif" font-size="14.00">from_dict = staticmethod(def from_dict(...))</text>
</g>
<!-- 30064771342&#45;&gt;124554051591 -->
<g id="edge20" class="edge">
<title>30064771342&#45;&gt;124554051591</title>
<path fill="none" stroke="black" d="M4440.63,-90.94C4417.96,-77.4 4388.93,-61.03 4375.62,-57.5 4276.35,-31.2 2727.22,-22.74 2353.35,-21.08"/>
<polygon fill="black" stroke="black" points="2353.38,-17.58 2343.37,-21.04 2353.35,-24.58 2353.38,-17.58"/>
<text xml:space="preserve" text-anchor="middle" x="4456.5" y="-59.95" font-family="Times,serif" font-size="14.00">DDG: from_dict</text>
</g>
<!-- 30064771342&#45;&gt;124554051591 -->
<g id="edge21" class="edge">
<title>30064771342&#45;&gt;124554051591</title>
<path fill="none" stroke="black" d="M4497.59,-90.81C4508.81,-80.3 4517.38,-67.43 4507.62,-57.5 4469.08,-18.32 2747.97,-19.71 2352.87,-20.54"/>
<polygon fill="black" stroke="black" points="2353.08,-17.04 2343.08,-20.56 2353.09,-24.04 2353.08,-17.04"/>
<text xml:space="preserve" text-anchor="middle" x="4636.74" y="-59.95" font-family="Times,serif" font-size="14.00">DDG: staticmethod(def from_dict(...))</text>
</g>
<!-- 30064771342&#45;&gt;124554051591 -->
<g id="edge22" class="edge">
<title>30064771342&#45;&gt;124554051591</title>
<path fill="none" stroke="black" d="M4628.17,-102.18C4710.42,-95.12 4789.68,-81.92 4765.62,-57.5 4743.94,-35.5 2777.28,-23.51 2352.79,-21.17"/>
<polygon fill="black" stroke="black" points="2353.1,-17.68 2343.08,-21.12 2353.06,-24.67 2353.1,-17.68"/>
<text xml:space="preserve" text-anchor="middle" x="4935.35" y="-59.95" font-family="Times,serif" font-size="14.00">DDG: from_dict = staticmethod(def from_dict(...))</text>
</g>
<!-- 30064771260&#45;&gt;30064771261 -->
<g id="edge28" class="edge">
<title>30064771260&#45;&gt;30064771261</title>
<path fill="none" stroke="black" d="M1055.85,-419.88C894.25,-363.1 419.78,-196.39 245.13,-135.02"/>
<polygon fill="black" stroke="black" points="246.33,-131.73 235.74,-131.72 244.01,-138.34 246.33,-131.73"/>
<text xml:space="preserve" text-anchor="middle" x="686.23" y="-254.32" font-family="Times,serif" font-size="14.00">DDG: list</text>
</g>
<!-- 30064771260&#45;&gt;30064771262 -->
<g id="edge41" class="edge">
<title>30064771260&#45;&gt;30064771262</title>
<path fill="none" stroke="black" d="M1123.13,-419.97C1136.02,-400.26 1156.24,-369.31 1171.01,-346.73"/>
<polygon fill="black" stroke="black" points="1173.79,-348.87 1176.33,-338.58 1167.93,-345.04 1173.79,-348.87"/>
<text xml:space="preserve" text-anchor="middle" x="1194.44" y="-369.32" font-family="Times,serif" font-size="14.00">DDG: list</text>
</g>
<!-- 30064771262&#45;&gt;30064771263 -->
<g id="edge29" class="edge">
<title>30064771262&#45;&gt;30064771263</title>
<path fill="none" stroke="black" d="M1212.38,-297.03C1255.92,-260.29 1351.01,-180.03 1400.42,-138.33"/>
<polygon fill="black" stroke="black" points="1402.55,-141.12 1407.93,-131.99 1398.03,-135.77 1402.55,-141.12"/>
<text xml:space="preserve" text-anchor="middle" x="1376.81" y="-196.82" font-family="Times,serif" font-size="14.00">DDG: list</text>
</g>
<!-- 30064771262&#45;&gt;30064771264 -->
<g id="edge44" class="edge">
<title>30064771262&#45;&gt;30064771264</title>
<path fill="none" stroke="black" d="M1161.29,-297.08C1133.49,-278.27 1090.94,-249.48 1060.3,-228.75"/>
<polygon fill="black" stroke="black" points="1062.3,-225.88 1052.06,-223.17 1058.38,-231.68 1062.3,-225.88"/>
<text xml:space="preserve" text-anchor="middle" x="1161.21" y="-254.32" font-family="Times,serif" font-size="14.00">DDG: list</text>
</g>
<!-- 30064771264&#45;&gt;124554051591 -->
<g id="edge9" class="edge">
<title>30064771264&#45;&gt;124554051591</title>
<path fill="none" stroke="black" d="M916.34,-198.63C755.92,-191.27 481.07,-163.33 584.62,-57.5 613.04,-28.45 1860.1,-22.15 2192.12,-20.99"/>
<polygon fill="black" stroke="black" points="2192.04,-24.49 2202.03,-20.95 2192.02,-17.49 2192.04,-24.49"/>
<text xml:space="preserve" text-anchor="middle" x="605.52" y="-105.58" font-family="Times,serif" font-size="14.00">DDG: list</text>
</g>
<!-- 30064771264&#45;&gt;30064771265 -->
<g id="edge30" class="edge">
<title>30064771264&#45;&gt;30064771265</title>
<path fill="none" stroke="black" d="M1001.62,-182.32C987.54,-169.63 968.79,-152.73 953.21,-138.68"/>
<polygon fill="black" stroke="black" points="955.82,-136.32 946.05,-132.22 951.13,-141.52 955.82,-136.32"/>
<text xml:space="preserve" text-anchor="middle" x="1009.42" y="-151.2" font-family="Times,serif" font-size="14.00">DDG: list</text>
</g>
<!-- 30064771341&#45;&gt;30064771342 -->
<g id="edge35" class="edge">
<title>30064771341&#45;&gt;30064771342</title>
<path fill="none" stroke="black" d="M3727.52,-239.57C3887.78,-212.09 4181.62,-161.72 4348.07,-133.18"/>
<polygon fill="black" stroke="black" points="4348.59,-136.64 4357.85,-131.5 4347.4,-129.74 4348.59,-136.64"/>
<text xml:space="preserve" text-anchor="middle" x="4121.24" y="-196.82" font-family="Times,serif" font-size="14.00">DDG: def from_dict(...)</text>
</g>
<!-- 30064771091 -->
<g id="node24" class="node">
<title>30064771091</title>
<polygon fill="none" stroke="black" points="3017.74,-557.25 2927.49,-557.25 2927.49,-521.25 3017.74,-521.25 3017.74,-557.25"/>
<text xml:space="preserve" text-anchor="middle" x="2972.62" y="-533.83" font-family="Times,serif" font-size="14.00">30064771091</text>
</g>
<!-- 30064771091&#45;&gt;68719476923 -->
<g id="edge36" class="edge">
<title>30064771091&#45;&gt;68719476923</title>
<path fill="none" stroke="black" d="M2972.62,-520.89C2972.62,-509.35 2972.62,-493.73 2972.62,-479.38"/>
<polygon fill="black" stroke="black" points="2976.12,-479.75 2972.62,-469.75 2969.12,-479.75 2976.12,-479.75"/>
<text xml:space="preserve" text-anchor="middle" x="3006.37" y="-488.2" font-family="Times,serif" font-size="14.00">DDG: field</text>
</g>
<!-- 30064771082 -->
<g id="node25" class="node">
<title>30064771082</title>
<polygon fill="none" stroke="black" points="1155.74,-557.25 1065.49,-557.25 1065.49,-521.25 1155.74,-521.25 1155.74,-557.25"/>
<text xml:space="preserve" text-anchor="middle" x="1110.62" y="-533.83" font-family="Times,serif" font-size="14.00">30064771082</text>
</g>
<!-- 30064771082&#45;&gt;30064771260 -->
<g id="edge38" class="edge">
<title>30064771082&#45;&gt;30064771260</title>
<path fill="none" stroke="black" d="M1110.62,-520.89C1110.62,-507.19 1110.62,-487.74 1110.62,-471.48"/>
<polygon fill="black" stroke="black" points="1114.12,-471.85 1110.62,-461.85 1107.12,-471.85 1114.12,-471.85"/>
<text xml:space="preserve" text-anchor="middle" x="1140.99" y="-488.2" font-family="Times,serif" font-size="14.00">DDG: list</text>
</g>
<!-- 30064771078 -->
<g id="node26" class="node">
<title>30064771078</title>
<polygon fill="none" stroke="black" points="3257.74,-557.25 3167.49,-557.25 3167.49,-521.25 3257.74,-521.25 3257.74,-557.25"/>
<text xml:space="preserve" text-anchor="middle" x="3212.62" y="-533.83" font-family="Times,serif" font-size="14.00">30064771078</text>
</g>
<!-- 30064771078&#45;&gt;68719477000 -->
<g id="edge46" class="edge">
<title>30064771078&#45;&gt;68719477000</title>
<path fill="none" stroke="black" d="M3212.62,-520.89C3212.62,-509.35 3212.62,-493.73 3212.62,-479.38"/>
<polygon fill="black" stroke="black" points="3216.12,-479.75 3212.62,-469.75 3209.12,-479.75 3216.12,-479.75"/>
<text xml:space="preserve" text-anchor="middle" x="3269.99" y="-488.2" font-family="Times,serif" font-size="14.00">DDG: staticmethod</text>
</g>
</g>
</svg>
