<?xml version="1.0" encoding="UTF-8" standalone="no"?>
<!DOCTYPE svg PUBLIC "-//W3C//DTD SVG 1.1//EN"
 "http://www.w3.org/Graphics/SVG/1.1/DTD/svg11.dtd">
<!-- Generated by graphviz version 13.1.2 (20250809.0930)
 -->
<!-- Title: &lt;lambda&gt;0 Pages: 1 -->
<svg width="284pt" height="230pt"
 viewBox="0.00 0.00 284.00 230.00" xmlns="http://www.w3.org/2000/svg" xmlns:xlink="http://www.w3.org/1999/xlink">
<g id="graph0" class="graph" transform="scale(1 1) rotate(0) translate(4 226)">
<title>&lt;lambda&gt;0</title>
<polygon fill="white" stroke="none" points="-4,4 -4,-226 279.75,-226 279.75,4 -4,4"/>
<!-- 107374182473 -->
<g id="node1" class="node">
<title>107374182473</title>
<polygon fill="none" stroke="black" points="90.25,-222 0,-222 0,-182.5 90.25,-182.5 90.25,-222"/>
<text xml:space="preserve" text-anchor="start" x="8" y="-204.7" font-family="Times,serif" font-size="14.00">METHOD, 896</text>
<text xml:space="preserve" text-anchor="start" x="14.75" y="-188.95" font-family="Times,serif" font-size="14.00">&lt;lambda&gt;0</text>
</g>
<!-- 111669149831 -->
<g id="node3" class="node">
<title>111669149831</title>
<polygon fill="none" stroke="black" points="86.88,-130.75 3.38,-130.75 3.38,-91.25 86.88,-91.25 86.88,-130.75"/>
<text xml:space="preserve" text-anchor="start" x="11.38" y="-113.45" font-family="Times,serif" font-size="14.00">PARAM, 896</text>
<text xml:space="preserve" text-anchor="start" x="41.75" y="-97.7" font-family="Times,serif" font-size="14.00">c</text>
</g>
<!-- 107374182473&#45;&gt;111669149831 -->
<g id="edge3" class="edge">
<title>107374182473&#45;&gt;111669149831</title>
<path fill="none" stroke="black" d="M45.12,-182.32C45.12,-170.8 45.12,-155.82 45.12,-142.65"/>
<polygon fill="black" stroke="black" points="48.63,-142.72 45.13,-132.72 41.63,-142.72 48.63,-142.72"/>
<text xml:space="preserve" text-anchor="middle" x="62" y="-151.2" font-family="Times,serif" font-size="14.00">DDG: </text>
</g>
<!-- 124554051657 -->
<g id="node2" class="node">
<title>124554051657</title>
<polygon fill="none" stroke="black" points="186.88,-39.5 49.38,-39.5 49.38,0 186.88,0 186.88,-39.5"/>
<text xml:space="preserve" text-anchor="start" x="57.38" y="-22.2" font-family="Times,serif" font-size="14.00">METHOD_RETURN, 896</text>
<text xml:space="preserve" text-anchor="start" x="108" y="-6.45" font-family="Times,serif" font-size="14.00">ANY</text>
</g>
<!-- 111669149831&#45;&gt;124554051657 -->
<g id="edge2" class="edge">
<title>111669149831&#45;&gt;124554051657</title>
<path fill="none" stroke="black" d="M60.61,-91.07C70.7,-78.73 84.05,-62.41 95.34,-48.6"/>
<polygon fill="black" stroke="black" points="97.83,-51.09 101.46,-41.13 92.42,-46.65 97.83,-51.09"/>
<text xml:space="preserve" text-anchor="middle" x="106.25" y="-59.95" font-family="Times,serif" font-size="14.00">DDG: c</text>
</g>
<!-- 141733920879 -->
<g id="node4" class="node">
<title>141733920879</title>
<polygon fill="none" stroke="black" points="275.75,-130.75 104.5,-130.75 104.5,-91.25 275.75,-91.25 275.75,-130.75"/>
<text xml:space="preserve" text-anchor="start" x="153" y="-113.45" font-family="Times,serif" font-size="14.00">RETURN, 896</text>
<text xml:space="preserve" text-anchor="start" x="112.5" y="-97.7" font-family="Times,serif" font-size="14.00">lambda c: c.course_code</text>
</g>
<!-- 141733920879&#45;&gt;124554051657 -->
<g id="edge1" class="edge">
<title>141733920879&#45;&gt;124554051657</title>
<path fill="none" stroke="black" d="M174.86,-91.07C164.9,-78.73 151.74,-62.41 140.6,-48.6"/>
<polygon fill="black" stroke="black" points="143.57,-46.72 134.57,-41.14 138.13,-51.12 143.57,-46.72"/>
<text xml:space="preserve" text-anchor="middle" x="192.19" y="-59.95" font-family="Times,serif" font-size="14.00">DDG: &lt;RET&gt;</text>
</g>
</g>
</svg>
