<?xml version="1.0" encoding="UTF-8" standalone="no"?>
<!DOCTYPE svg PUBLIC "-//W3C//DTD SVG 1.1//EN"
 "http://www.w3.org/Graphics/SVG/1.1/DTD/svg11.dtd">
<!-- Generated by graphviz version 13.1.2 (20250809.0930)
 -->
<!-- Title: &lt;lambda&gt;3 Pages: 1 -->
<svg width="1224pt" height="413pt"
 viewBox="0.00 0.00 1224.00 413.00" xmlns="http://www.w3.org/2000/svg" xmlns:xlink="http://www.w3.org/1999/xlink">
<g id="graph0" class="graph" transform="scale(1 1) rotate(0) translate(4 408.5)">
<title>&lt;lambda&gt;3</title>
<polygon fill="white" stroke="none" points="-4,4 -4,-408.5 1220.25,-408.5 1220.25,4 -4,4"/>
<!-- 107374182481 -->
<g id="node1" class="node">
<title>107374182481</title>
<polygon fill="none" stroke="black" points="97,-404.5 0,-404.5 0,-365 97,-365 97,-404.5"/>
<text xml:space="preserve" text-anchor="start" x="8" y="-387.2" font-family="Times,serif" font-size="14.00">METHOD, 1007</text>
<text xml:space="preserve" text-anchor="start" x="18.12" y="-371.45" font-family="Times,serif" font-size="14.00">&lt;lambda&gt;3</text>
</g>
<!-- 111669149843 -->
<g id="node3" class="node">
<title>111669149843</title>
<polygon fill="none" stroke="black" points="93.62,-313.25 3.38,-313.25 3.38,-273.75 93.62,-273.75 93.62,-313.25"/>
<text xml:space="preserve" text-anchor="start" x="11.38" y="-295.95" font-family="Times,serif" font-size="14.00">PARAM, 1007</text>
<text xml:space="preserve" text-anchor="start" x="45.12" y="-280.2" font-family="Times,serif" font-size="14.00">s</text>
</g>
<!-- 107374182481&#45;&gt;111669149843 -->
<g id="edge7" class="edge">
<title>107374182481&#45;&gt;111669149843</title>
<path fill="none" stroke="black" d="M48.5,-364.82C48.5,-353.3 48.5,-338.32 48.5,-325.15"/>
<polygon fill="black" stroke="black" points="52,-325.22 48.5,-315.22 45,-325.22 52,-325.22"/>
<text xml:space="preserve" text-anchor="middle" x="65.38" y="-333.7" font-family="Times,serif" font-size="14.00">DDG: </text>
</g>
<!-- 124554051665 -->
<g id="node2" class="node">
<title>124554051665</title>
<polygon fill="none" stroke="black" points="376.62,-39.5 232.38,-39.5 232.38,0 376.62,0 376.62,-39.5"/>
<text xml:space="preserve" text-anchor="start" x="240.38" y="-22.2" font-family="Times,serif" font-size="14.00">METHOD_RETURN, 1007</text>
<text xml:space="preserve" text-anchor="start" x="294.38" y="-6.45" font-family="Times,serif" font-size="14.00">ANY</text>
</g>
<!-- 111669149843&#45;&gt;124554051665 -->
<g id="edge2" class="edge">
<title>111669149843&#45;&gt;124554051665</title>
<path fill="none" stroke="black" d="M46.49,-273.48C42.72,-226.29 40.68,-104.31 113.5,-57.5 145.15,-37.15 185.44,-27.55 220.85,-23.2"/>
<polygon fill="black" stroke="black" points="221.09,-26.7 230.65,-22.13 220.33,-19.74 221.09,-26.7"/>
<text xml:space="preserve" text-anchor="middle" x="74.69" y="-151.2" font-family="Times,serif" font-size="14.00">DDG: s</text>
</g>
<!-- 30064772765 -->
<g id="node5" class="node">
<title>30064772765</title>
<polygon fill="none" stroke="black" points="450.88,-222 158.12,-222 158.12,-182.5 450.88,-182.5 450.88,-222"/>
<text xml:space="preserve" text-anchor="start" x="206.62" y="-204.7" font-family="Times,serif" font-size="14.00">&lt;operator&gt;.tupleLiteral, 1007</text>
<text xml:space="preserve" text-anchor="start" x="166.12" y="-188.95" font-family="Times,serif" font-size="14.00">(s.semester, s.course_code, s.section_id)</text>
</g>
<!-- 111669149843&#45;&gt;30064772765 -->
<g id="edge9" class="edge">
<title>111669149843&#45;&gt;30064772765</title>
<path fill="none" stroke="black" d="M93.97,-276.65C134.28,-262.6 193.61,-241.91 239.02,-226.08"/>
<polygon fill="black" stroke="black" points="239.94,-229.46 248.23,-222.87 237.64,-222.85 239.94,-229.46"/>
<text xml:space="preserve" text-anchor="middle" x="212.08" y="-242.45" font-family="Times,serif" font-size="14.00">DDG: s</text>
</g>
<!-- 141733920890 -->
<g id="node4" class="node">
<title>141733920890</title>
<polygon fill="none" stroke="black" points="1216.25,-130.75 862.75,-130.75 862.75,-91.25 1216.25,-91.25 1216.25,-130.75"/>
<text xml:space="preserve" text-anchor="start" x="999" y="-113.45" font-family="Times,serif" font-size="14.00">RETURN, 1007</text>
<text xml:space="preserve" text-anchor="start" x="870.75" y="-97.7" font-family="Times,serif" font-size="14.00">lambda s: (s.semester, s.course_code, s.section...</text>
</g>
<!-- 141733920890&#45;&gt;124554051665 -->
<g id="edge1" class="edge">
<title>141733920890&#45;&gt;124554051665</title>
<path fill="none" stroke="black" d="M881.37,-90.8C730.14,-72.44 507.93,-45.45 388.24,-30.92"/>
<polygon fill="black" stroke="black" points="388.83,-27.46 378.48,-29.73 387.99,-34.41 388.83,-27.46"/>
<text xml:space="preserve" text-anchor="middle" x="749.76" y="-59.95" font-family="Times,serif" font-size="14.00">DDG: &lt;RET&gt;</text>
</g>
<!-- 30064772765&#45;&gt;124554051665 -->
<g id="edge3" class="edge">
<title>30064772765&#45;&gt;124554051665</title>
<path fill="none" stroke="black" d="M175.16,-182.07C146.68,-171.58 119.8,-155.46 102.25,-130.75 65.88,-79.56 150.31,-49.77 220.98,-34.4"/>
<polygon fill="black" stroke="black" points="221.63,-37.84 230.7,-32.36 220.19,-30.99 221.63,-37.84"/>
<text xml:space="preserve" text-anchor="middle" x="152.88" y="-105.58" font-family="Times,serif" font-size="14.00">DDG: s.semester</text>
</g>
<!-- 30064772765&#45;&gt;124554051665 -->
<g id="edge4" class="edge">
<title>30064772765&#45;&gt;124554051665</title>
<path fill="none" stroke="black" d="M279.34,-182.02C264.83,-169.27 247.93,-151.16 240,-130.75 233.64,-114.39 233.64,-107.61 240,-91.25 246.44,-74.67 258.81,-59.6 271,-47.7"/>
<polygon fill="black" stroke="black" points="273.27,-50.37 278.23,-41.01 268.51,-45.23 273.27,-50.37"/>
<text xml:space="preserve" text-anchor="middle" x="300.75" y="-105.58" font-family="Times,serif" font-size="14.00">DDG: s.course_code</text>
</g>
<!-- 30064772765&#45;&gt;124554051665 -->
<g id="edge5" class="edge">
<title>30064772765&#45;&gt;124554051665</title>
<path fill="none" stroke="black" d="M326.21,-182.02C339.18,-169.02 354.47,-150.63 361.5,-130.75 367.35,-114.2 367.35,-107.8 361.5,-91.25 355.84,-75.25 344.84,-60.22 333.99,-48.18"/>
<polygon fill="black" stroke="black" points="336.67,-45.92 327.25,-41.07 331.59,-50.74 336.67,-45.92"/>
<text xml:space="preserve" text-anchor="middle" x="423.27" y="-105.58" font-family="Times,serif" font-size="14.00">DDG: s.section_id</text>
</g>
<!-- 30064772765&#45;&gt;124554051665 -->
<g id="edge6" class="edge">
<title>30064772765&#45;&gt;124554051665</title>
<path fill="none" stroke="black" d="M392.94,-182.06C452.28,-164.78 514.53,-135.27 484.5,-91.25 462.64,-59.22 423.85,-41.74 387.86,-32.2"/>
<polygon fill="black" stroke="black" points="388.81,-28.83 378.27,-29.85 387.15,-35.63 388.81,-28.83"/>
<text xml:space="preserve" text-anchor="middle" x="647.55" y="-105.58" font-family="Times,serif" font-size="14.00">DDG: (s.semester, s.course_code, s.section_id)</text>
</g>
<!-- 30064772765&#45;&gt;141733920890 -->
<g id="edge8" class="edge">
<title>30064772765&#45;&gt;141733920890</title>
<path fill="none" stroke="black" d="M451.03,-183.46C571.77,-168.8 743.12,-147.99 869.8,-132.61"/>
<polygon fill="black" stroke="black" points="870.14,-136.09 879.64,-131.41 869.29,-129.14 870.14,-136.09"/>
<text xml:space="preserve" text-anchor="middle" x="871.26" y="-151.2" font-family="Times,serif" font-size="14.00">DDG: (s.semester, s.course_code, s.section_id)</text>
</g>
</g>
</svg>
