<?xml version="1.0" encoding="UTF-8" standalone="no"?>
<!DOCTYPE svg PUBLIC "-//W3C//DTD SVG 1.1//EN"
 "http://www.w3.org/Graphics/SVG/1.1/DTD/svg11.dtd">
<!-- Generated by graphviz version 13.1.2 (20250809.0930)
 -->
<!-- Title: &lt;lambda&gt;4 Pages: 1 -->
<svg width="284pt" height="230pt"
 viewBox="0.00 0.00 284.00 230.00" xmlns="http://www.w3.org/2000/svg" xmlns:xlink="http://www.w3.org/1999/xlink">
<g id="graph0" class="graph" transform="scale(1 1) rotate(0) translate(4 226)">
<title>&lt;lambda&gt;4</title>
<polygon fill="white" stroke="none" points="-4,4 -4,-226 279.75,-226 279.75,4 -4,4"/>
<!-- 107374182483 -->
<g id="node1" class="node">
<title>107374182483</title>
<polygon fill="none" stroke="black" points="97,-222 0,-222 0,-182.5 97,-182.5 97,-222"/>
<text xml:space="preserve" text-anchor="start" x="8" y="-204.7" font-family="Times,serif" font-size="14.00">METHOD, 1023</text>
<text xml:space="preserve" text-anchor="start" x="18.12" y="-188.95" font-family="Times,serif" font-size="14.00">&lt;lambda&gt;4</text>
</g>
<!-- 111669149845 -->
<g id="node3" class="node">
<title>111669149845</title>
<polygon fill="none" stroke="black" points="93.62,-130.75 3.38,-130.75 3.38,-91.25 93.62,-91.25 93.62,-130.75"/>
<text xml:space="preserve" text-anchor="start" x="11.38" y="-113.45" font-family="Times,serif" font-size="14.00">PARAM, 1023</text>
<text xml:space="preserve" text-anchor="start" x="45.12" y="-97.7" font-family="Times,serif" font-size="14.00">s</text>
</g>
<!-- 107374182483&#45;&gt;111669149845 -->
<g id="edge3" class="edge">
<title>107374182483&#45;&gt;111669149845</title>
<path fill="none" stroke="black" d="M48.5,-182.32C48.5,-170.8 48.5,-155.82 48.5,-142.65"/>
<polygon fill="black" stroke="black" points="52,-142.72 48.5,-132.72 45,-142.72 52,-142.72"/>
<text xml:space="preserve" text-anchor="middle" x="65.38" y="-151.2" font-family="Times,serif" font-size="14.00">DDG: </text>
</g>
<!-- 124554051667 -->
<g id="node2" class="node">
<title>124554051667</title>
<polygon fill="none" stroke="black" points="193.62,-39.5 49.38,-39.5 49.38,0 193.62,0 193.62,-39.5"/>
<text xml:space="preserve" text-anchor="start" x="57.38" y="-22.2" font-family="Times,serif" font-size="14.00">METHOD_RETURN, 1023</text>
<text xml:space="preserve" text-anchor="start" x="111.38" y="-6.45" font-family="Times,serif" font-size="14.00">ANY</text>
</g>
<!-- 111669149845&#45;&gt;124554051667 -->
<g id="edge2" class="edge">
<title>111669149845&#45;&gt;124554051667</title>
<path fill="none" stroke="black" d="M63.98,-91.07C74.08,-78.73 87.42,-62.41 98.72,-48.6"/>
<polygon fill="black" stroke="black" points="101.21,-51.09 104.83,-41.13 95.79,-46.65 101.21,-51.09"/>
<text xml:space="preserve" text-anchor="middle" x="109.62" y="-59.95" font-family="Times,serif" font-size="14.00">DDG: s</text>
</g>
<!-- 141733920892 -->
<g id="node4" class="node">
<title>141733920892</title>
<polygon fill="none" stroke="black" points="275.75,-130.75 111.25,-130.75 111.25,-91.25 275.75,-91.25 275.75,-130.75"/>
<text xml:space="preserve" text-anchor="start" x="153" y="-113.45" font-family="Times,serif" font-size="14.00">RETURN, 1023</text>
<text xml:space="preserve" text-anchor="start" x="119.25" y="-97.7" font-family="Times,serif" font-size="14.00">lambda s: s.student_id</text>
</g>
<!-- 141733920892&#45;&gt;124554051667 -->
<g id="edge1" class="edge">
<title>141733920892&#45;&gt;124554051667</title>
<path fill="none" stroke="black" d="M178.23,-91.07C168.28,-78.73 155.11,-62.41 143.97,-48.6"/>
<polygon fill="black" stroke="black" points="146.95,-46.72 137.95,-41.14 141.5,-51.12 146.95,-46.72"/>
<text xml:space="preserve" text-anchor="middle" x="195.56" y="-59.95" font-family="Times,serif" font-size="14.00">DDG: &lt;RET&gt;</text>
</g>
</g>
</svg>
