<?xml version="1.0" encoding="UTF-8" standalone="no"?>
<!DOCTYPE svg PUBLIC "-//W3C//DTD SVG 1.1//EN"
 "http://www.w3.org/Graphics/SVG/1.1/DTD/svg11.dtd">
<!-- Generated by graphviz version 13.1.2 (20250809.0930)
 -->
<!-- Title: &lt;lambda&gt;9 Pages: 1 -->
<svg width="305pt" height="230pt"
 viewBox="0.00 0.00 305.00 230.00" xmlns="http://www.w3.org/2000/svg" xmlns:xlink="http://www.w3.org/1999/xlink">
<g id="graph0" class="graph" transform="scale(1 1) rotate(0) translate(4 226)">
<title>&lt;lambda&gt;9</title>
<polygon fill="white" stroke="none" points="-4,4 -4,-226 300.88,-226 300.88,4 -4,4"/>
<!-- 107374182498 -->
<g id="node1" class="node">
<title>107374182498</title>
<polygon fill="none" stroke="black" points="97,-222 0,-222 0,-182.5 97,-182.5 97,-222"/>
<text xml:space="preserve" text-anchor="start" x="8" y="-204.7" font-family="Times,serif" font-size="14.00">METHOD, 1158</text>
<text xml:space="preserve" text-anchor="start" x="18.12" y="-188.95" font-family="Times,serif" font-size="14.00">&lt;lambda&gt;9</text>
</g>
<!-- 111669149861 -->
<g id="node3" class="node">
<title>111669149861</title>
<polygon fill="none" stroke="black" points="93.62,-130.75 3.38,-130.75 3.38,-91.25 93.62,-91.25 93.62,-130.75"/>
<text xml:space="preserve" text-anchor="start" x="11.38" y="-113.45" font-family="Times,serif" font-size="14.00">PARAM, 1158</text>
<text xml:space="preserve" text-anchor="start" x="45.12" y="-97.7" font-family="Times,serif" font-size="14.00">i</text>
</g>
<!-- 107374182498&#45;&gt;111669149861 -->
<g id="edge3" class="edge">
<title>107374182498&#45;&gt;111669149861</title>
<path fill="none" stroke="black" d="M48.5,-182.32C48.5,-170.8 48.5,-155.82 48.5,-142.65"/>
<polygon fill="black" stroke="black" points="52,-142.72 48.5,-132.72 45,-142.72 52,-142.72"/>
<text xml:space="preserve" text-anchor="middle" x="65.38" y="-151.2" font-family="Times,serif" font-size="14.00">DDG: </text>
</g>
<!-- 124554051682 -->
<g id="node2" class="node">
<title>124554051682</title>
<polygon fill="none" stroke="black" points="198.62,-39.5 54.38,-39.5 54.38,0 198.62,0 198.62,-39.5"/>
<text xml:space="preserve" text-anchor="start" x="62.38" y="-22.2" font-family="Times,serif" font-size="14.00">METHOD_RETURN, 1158</text>
<text xml:space="preserve" text-anchor="start" x="116.38" y="-6.45" font-family="Times,serif" font-size="14.00">ANY</text>
</g>
<!-- 111669149861&#45;&gt;124554051682 -->
<g id="edge2" class="edge">
<title>111669149861&#45;&gt;124554051682</title>
<path fill="none" stroke="black" d="M65.04,-91.07C75.83,-78.73 90.09,-62.41 102.16,-48.6"/>
<polygon fill="black" stroke="black" points="104.77,-50.93 108.72,-41.1 99.5,-46.32 104.77,-50.93"/>
<text xml:space="preserve" text-anchor="middle" x="112.42" y="-59.95" font-family="Times,serif" font-size="14.00">DDG: i</text>
</g>
<!-- 141733920912 -->
<g id="node4" class="node">
<title>141733920912</title>
<polygon fill="none" stroke="black" points="296.88,-130.75 112.12,-130.75 112.12,-91.25 296.88,-91.25 296.88,-130.75"/>
<text xml:space="preserve" text-anchor="start" x="164" y="-113.45" font-family="Times,serif" font-size="14.00">RETURN, 1158</text>
<text xml:space="preserve" text-anchor="start" x="120.12" y="-97.7" font-family="Times,serif" font-size="14.00">lambda i: i.instructor_id</text>
</g>
<!-- 141733920912&#45;&gt;124554051682 -->
<g id="edge1" class="edge">
<title>141733920912&#45;&gt;124554051682</title>
<path fill="none" stroke="black" d="M187.96,-91.07C177.17,-78.73 162.91,-62.41 150.84,-48.6"/>
<polygon fill="black" stroke="black" points="153.5,-46.32 144.28,-41.1 148.23,-50.93 153.5,-46.32"/>
<text xml:space="preserve" text-anchor="middle" x="203.92" y="-59.95" font-family="Times,serif" font-size="14.00">DDG: &lt;RET&gt;</text>
</g>
</g>
</svg>
