<?xml version="1.0" encoding="UTF-8" standalone="no"?>
<!DOCTYPE svg PUBLIC "-//W3C//DTD SVG 1.1//EN"
 "http://www.w3.org/Graphics/SVG/1.1/DTD/svg11.dtd">
<!-- Generated by graphviz version 13.1.2 (20250809.0930)
 -->
<!-- Title: add_course&lt;metaClassAdapter&gt; Pages: 1 -->
<svg width="1546pt" height="436pt"
 viewBox="0.00 0.00 1546.00 436.00" xmlns="http://www.w3.org/2000/svg" xmlns:xlink="http://www.w3.org/1999/xlink">
<g id="graph0" class="graph" transform="scale(1 1) rotate(0) translate(4 432.25)">
<title>add_course&lt;metaClassAdapter&gt;</title>
<polygon fill="white" stroke="none" points="-4,4 -4,-432.25 1541.5,-432.25 1541.5,4 -4,4"/>
<!-- 107374182503 -->
<g id="node1" class="node">
<title>107374182503</title>
<polygon fill="none" stroke="black" points="448.25,-428.25 243.25,-428.25 243.25,-388.75 448.25,-388.75 448.25,-428.25"/>
<text xml:space="preserve" text-anchor="start" x="308.62" y="-410.95" font-family="Times,serif" font-size="14.00">METHOD, 448</text>
<text xml:space="preserve" text-anchor="start" x="251.25" y="-395.2" font-family="Times,serif" font-size="14.00">add_course&lt;metaClassAdapter&gt;</text>
</g>
<!-- 111669149869 -->
<g id="node3" class="node">
<title>111669149869</title>
<polygon fill="none" stroke="black" points="83.5,-279.5 0,-279.5 0,-240 83.5,-240 83.5,-279.5"/>
<text xml:space="preserve" text-anchor="start" x="8" y="-262.2" font-family="Times,serif" font-size="14.00">PARAM, 448</text>
<text xml:space="preserve" text-anchor="start" x="31.62" y="-246.45" font-family="Times,serif" font-size="14.00">cls</text>
</g>
<!-- 107374182503&#45;&gt;111669149869 -->
<g id="edge9" class="edge">
<title>107374182503&#45;&gt;111669149869</title>
<path fill="none" stroke="black" d="M242.92,-400.39C190.47,-392.03 128.67,-374.29 84.75,-337 70.16,-324.61 59.52,-305.96 52.47,-290.2"/>
<polygon fill="black" stroke="black" points="55.83,-289.15 48.75,-281.27 49.36,-291.84 55.83,-289.15"/>
<text xml:space="preserve" text-anchor="middle" x="154.34" y="-357.45" font-family="Times,serif" font-size="14.00">DDG: </text>
</g>
<!-- 111669149870 -->
<g id="node4" class="node">
<title>111669149870</title>
<polygon fill="none" stroke="black" points="177.5,-337 94,-337 94,-297.5 177.5,-297.5 177.5,-337"/>
<text xml:space="preserve" text-anchor="start" x="102" y="-319.7" font-family="Times,serif" font-size="14.00">PARAM, 448</text>
<text xml:space="preserve" text-anchor="start" x="122.25" y="-303.95" font-family="Times,serif" font-size="14.00">self</text>
</g>
<!-- 107374182503&#45;&gt;111669149870 -->
<g id="edge10" class="edge">
<title>107374182503&#45;&gt;111669149870</title>
<path fill="none" stroke="black" d="M293.26,-388.34C278.83,-382.86 263.24,-376.75 249,-370.75 228.01,-361.91 205.16,-351.48 185.52,-342.25"/>
<polygon fill="black" stroke="black" points="187.18,-339.17 176.64,-338.06 184.19,-345.49 187.18,-339.17"/>
<text xml:space="preserve" text-anchor="middle" x="265.88" y="-357.45" font-family="Times,serif" font-size="14.00">DDG: </text>
</g>
<!-- 111669149871 -->
<g id="node5" class="node">
<title>111669149871</title>
<polygon fill="none" stroke="black" points="285.88,-337 195.62,-337 195.62,-297.5 285.88,-297.5 285.88,-337"/>
<text xml:space="preserve" text-anchor="start" x="207" y="-319.7" font-family="Times,serif" font-size="14.00">PARAM, 448</text>
<text xml:space="preserve" text-anchor="start" x="203.62" y="-303.95" font-family="Times,serif" font-size="14.00">course_code</text>
</g>
<!-- 107374182503&#45;&gt;111669149871 -->
<g id="edge11" class="edge">
<title>107374182503&#45;&gt;111669149871</title>
<path fill="none" stroke="black" d="M323.22,-388.35C308.28,-375.65 288.45,-358.8 271.99,-344.8"/>
<polygon fill="black" stroke="black" points="274.28,-342.15 264.39,-338.34 269.74,-347.49 274.28,-342.15"/>
<text xml:space="preserve" text-anchor="middle" x="316.41" y="-357.45" font-family="Times,serif" font-size="14.00">DDG: </text>
</g>
<!-- 111669149872 -->
<g id="node6" class="node">
<title>111669149872</title>
<polygon fill="none" stroke="black" points="387.5,-337 304,-337 304,-297.5 387.5,-297.5 387.5,-337"/>
<text xml:space="preserve" text-anchor="start" x="312" y="-319.7" font-family="Times,serif" font-size="14.00">PARAM, 448</text>
<text xml:space="preserve" text-anchor="start" x="328.88" y="-303.95" font-family="Times,serif" font-size="14.00">title</text>
</g>
<!-- 107374182503&#45;&gt;111669149872 -->
<g id="edge12" class="edge">
<title>107374182503&#45;&gt;111669149872</title>
<path fill="none" stroke="black" d="M345.75,-388.57C345.75,-377.05 345.75,-362.07 345.75,-348.9"/>
<polygon fill="black" stroke="black" points="349.25,-348.97 345.75,-338.97 342.25,-348.97 349.25,-348.97"/>
<text xml:space="preserve" text-anchor="middle" x="362.62" y="-357.45" font-family="Times,serif" font-size="14.00">DDG: </text>
</g>
<!-- 111669149873 -->
<g id="node7" class="node">
<title>111669149873</title>
<polygon fill="none" stroke="black" points="489.5,-337 406,-337 406,-297.5 489.5,-297.5 489.5,-337"/>
<text xml:space="preserve" text-anchor="start" x="414" y="-319.7" font-family="Times,serif" font-size="14.00">PARAM, 448</text>
<text xml:space="preserve" text-anchor="start" x="424.12" y="-303.95" font-family="Times,serif" font-size="14.00">credits</text>
</g>
<!-- 107374182503&#45;&gt;111669149873 -->
<g id="edge13" class="edge">
<title>107374182503&#45;&gt;111669149873</title>
<path fill="none" stroke="black" d="M367.63,-388.35C382.15,-375.65 401.41,-358.8 417.4,-344.8"/>
<polygon fill="black" stroke="black" points="419.54,-347.58 424.77,-338.36 414.94,-342.31 419.54,-347.58"/>
<text xml:space="preserve" text-anchor="middle" x="419.73" y="-357.45" font-family="Times,serif" font-size="14.00">DDG: </text>
</g>
<!-- 111669149874 -->
<g id="node8" class="node">
<title>111669149874</title>
<polygon fill="none" stroke="black" points="611.62,-337 507.88,-337 507.88,-297.5 611.62,-297.5 611.62,-337"/>
<text xml:space="preserve" text-anchor="start" x="526" y="-319.7" font-family="Times,serif" font-size="14.00">PARAM, 448</text>
<text xml:space="preserve" text-anchor="start" x="515.88" y="-303.95" font-family="Times,serif" font-size="14.00">prerequisites</text>
</g>
<!-- 107374182503&#45;&gt;111669149874 -->
<g id="edge14" class="edge">
<title>107374182503&#45;&gt;111669149874</title>
<path fill="none" stroke="black" d="M396.7,-388.29C411.01,-382.76 426.53,-376.63 440.75,-370.75 462.6,-361.71 486.5,-351.28 507.1,-342.11"/>
<polygon fill="black" stroke="black" points="508.46,-345.33 516.17,-338.06 505.61,-338.94 508.46,-345.33"/>
<text xml:space="preserve" text-anchor="middle" x="493.82" y="-357.45" font-family="Times,serif" font-size="14.00">DDG: </text>
</g>
<!-- 30064773384 -->
<g id="node10" class="node">
<title>30064773384</title>
<polygon fill="none" stroke="black" points="678.5,-222 217,-222 217,-182.5 678.5,-182.5 678.5,-222"/>
<text xml:space="preserve" text-anchor="start" x="225" y="-204.7" font-family="Times,serif" font-size="14.00">AI_generated_code_1.py:&lt;module&gt;.RegistrationSystem.add_course, 448</text>
<text xml:space="preserve" text-anchor="start" x="279" y="-188.95" font-family="Times,serif" font-size="14.00">add_course(self, course_code, title, credits, p...</text>
</g>
<!-- 107374182503&#45;&gt;30064773384 -->
<g id="edge17" class="edge">
<title>107374182503&#45;&gt;30064773384</title>
<path fill="none" stroke="black" d="M448.37,-404.08C531.62,-394.81 640.57,-365.83 674.75,-279.5 681.21,-263.18 686.13,-253.37 674.75,-240 670.24,-234.7 662.74,-230.16 653.15,-226.27"/>
<polygon fill="black" stroke="black" points="654.47,-223.02 643.87,-222.96 652.12,-229.62 654.47,-223.02"/>
<text xml:space="preserve" text-anchor="middle" x="682.7" y="-311.82" font-family="Times,serif" font-size="14.00">DDG: </text>
</g>
<!-- 124554051687 -->
<g id="node2" class="node">
<title>124554051687</title>
<polygon fill="none" stroke="black" points="468.5,-39.5 331,-39.5 331,0 468.5,0 468.5,-39.5"/>
<text xml:space="preserve" text-anchor="start" x="339" y="-22.2" font-family="Times,serif" font-size="14.00">METHOD_RETURN, 448</text>
<text xml:space="preserve" text-anchor="start" x="352.5" y="-6.45" font-family="Times,serif" font-size="14.00">__builtin.bool</text>
</g>
<!-- 111669149869&#45;&gt;124554051687 -->
<g id="edge2" class="edge">
<title>111669149869&#45;&gt;124554051687</title>
<path fill="none" stroke="black" d="M43.15,-239.53C47.27,-198.32 63.25,-101.64 123.75,-57.5 154.04,-35.41 248.95,-26.59 319.06,-23.08"/>
<polygon fill="black" stroke="black" points="319.18,-26.58 329.01,-22.61 318.85,-19.59 319.18,-26.58"/>
<text xml:space="preserve" text-anchor="middle" x="89.01" y="-151.2" font-family="Times,serif" font-size="14.00">DDG: cls</text>
</g>
<!-- 111669149870&#45;&gt;30064773384 -->
<g id="edge16" class="edge">
<title>111669149870&#45;&gt;30064773384</title>
<path fill="none" stroke="black" d="M138.37,-297.33C141.88,-279.58 149.93,-253.76 168,-240 176.23,-233.73 189.37,-228.53 205.56,-224.22"/>
<polygon fill="black" stroke="black" points="206.27,-227.65 215.15,-221.87 204.61,-220.85 206.27,-227.65"/>
<text xml:space="preserve" text-anchor="middle" x="198.38" y="-254.32" font-family="Times,serif" font-size="14.00">DDG: self</text>
</g>
<!-- 111669149871&#45;&gt;30064773384 -->
<g id="edge18" class="edge">
<title>111669149871&#45;&gt;30064773384</title>
<path fill="none" stroke="black" d="M235.19,-297.28C231.46,-280.24 229.37,-255.57 242.75,-240 247.34,-234.65 255.3,-230.08 265.48,-226.17"/>
<polygon fill="black" stroke="black" points="266.58,-229.5 274.93,-222.97 264.33,-222.87 266.58,-229.5"/>
<text xml:space="preserve" text-anchor="middle" x="296.75" y="-254.32" font-family="Times,serif" font-size="14.00">DDG: course_code</text>
</g>
<!-- 111669149872&#45;&gt;30064773384 -->
<g id="edge19" class="edge">
<title>111669149872&#45;&gt;30064773384</title>
<path fill="none" stroke="black" d="M349.38,-297.32C353.44,-280.53 361.47,-256.24 376.25,-240 380.09,-235.79 384.52,-231.98 389.25,-228.56"/>
<polygon fill="black" stroke="black" points="390.91,-231.66 397.4,-223.28 387.1,-225.78 390.91,-231.66"/>
<text xml:space="preserve" text-anchor="middle" x="410" y="-254.32" font-family="Times,serif" font-size="14.00">DDG: title</text>
</g>
<!-- 111669149873&#45;&gt;30064773384 -->
<g id="edge20" class="edge">
<title>111669149873&#45;&gt;30064773384</title>
<path fill="none" stroke="black" d="M447.75,-297.08C447.75,-279.69 447.75,-253.75 447.75,-233.55"/>
<polygon fill="black" stroke="black" points="451.25,-233.65 447.75,-223.65 444.25,-233.65 451.25,-233.65"/>
<text xml:space="preserve" text-anchor="middle" x="488.25" y="-254.32" font-family="Times,serif" font-size="14.00">DDG: credits</text>
</g>
<!-- 111669149874&#45;&gt;30064773384 -->
<g id="edge21" class="edge">
<title>111669149874&#45;&gt;30064773384</title>
<path fill="none" stroke="black" d="M556.46,-297.13C552.66,-280.22 544.88,-255.85 529.75,-240 525.51,-235.56 520.63,-231.61 515.42,-228.11"/>
<polygon fill="black" stroke="black" points="517.4,-225.22 507.02,-223.08 513.79,-231.22 517.4,-225.22"/>
<text xml:space="preserve" text-anchor="middle" x="611.92" y="-254.32" font-family="Times,serif" font-size="14.00">DDG: prerequisites</text>
</g>
<!-- 141733920917 -->
<g id="node9" class="node">
<title>141733920917</title>
<polygon fill="none" stroke="black" points="1537.5,-130.75 1184,-130.75 1184,-91.25 1537.5,-91.25 1537.5,-130.75"/>
<text xml:space="preserve" text-anchor="start" x="1323.62" y="-113.45" font-family="Times,serif" font-size="14.00">RETURN, 448</text>
<text xml:space="preserve" text-anchor="start" x="1192" y="-97.7" font-family="Times,serif" font-size="14.00">return add_course(self, course_code, title, cre...</text>
</g>
<!-- 141733920917&#45;&gt;124554051687 -->
<g id="edge1" class="edge">
<title>141733920917&#45;&gt;124554051687</title>
<path fill="none" stroke="black" d="M1183.6,-92.57C1178.93,-92.12 1174.31,-91.68 1169.75,-91.25 918.23,-67.39 620.35,-40.51 480.23,-27.94"/>
<polygon fill="black" stroke="black" points="480.57,-24.46 470.29,-27.05 479.94,-31.43 480.57,-24.46"/>
<text xml:space="preserve" text-anchor="middle" x="992.05" y="-59.95" font-family="Times,serif" font-size="14.00">DDG: &lt;RET&gt;</text>
</g>
<!-- 30064773384&#45;&gt;124554051687 -->
<g id="edge3" class="edge">
<title>30064773384&#45;&gt;124554051687</title>
<path fill="none" stroke="black" d="M248.72,-182.05C189.56,-171.52 136.34,-155.38 121,-130.75 72.83,-53.45 220.91,-30.43 319.34,-23.6"/>
<polygon fill="black" stroke="black" points="319.52,-27.1 329.28,-22.96 319.07,-20.11 319.52,-27.1"/>
<text xml:space="preserve" text-anchor="middle" x="151.38" y="-105.58" font-family="Times,serif" font-size="14.00">DDG: self</text>
</g>
<!-- 30064773384&#45;&gt;124554051687 -->
<g id="edge4" class="edge">
<title>30064773384&#45;&gt;124554051687</title>
<path fill="none" stroke="black" d="M344.35,-182.05C290.92,-169.8 233.61,-152.2 217.75,-130.75 183.98,-85.08 256.53,-54.57 319.81,-37.5"/>
<polygon fill="black" stroke="black" points="320.42,-40.96 329.21,-35.05 318.65,-34.18 320.42,-40.96"/>
<text xml:space="preserve" text-anchor="middle" x="271.75" y="-105.58" font-family="Times,serif" font-size="14.00">DDG: course_code</text>
</g>
<!-- 30064773384&#45;&gt;124554051687 -->
<g id="edge5" class="edge">
<title>30064773384&#45;&gt;124554051687</title>
<path fill="none" stroke="black" d="M412,-182.14C393.46,-170.1 372.59,-152.68 362.25,-130.75 349.66,-104.04 363.72,-71.92 378.07,-49.31"/>
<polygon fill="black" stroke="black" points="380.85,-51.45 383.53,-41.2 375.04,-47.54 380.85,-51.45"/>
<text xml:space="preserve" text-anchor="middle" x="396" y="-105.58" font-family="Times,serif" font-size="14.00">DDG: title</text>
</g>
<!-- 30064773384&#45;&gt;124554051687 -->
<g id="edge6" class="edge">
<title>30064773384&#45;&gt;124554051687</title>
<path fill="none" stroke="black" d="M446.04,-182.26C443.73,-160.09 438.8,-122.47 429.75,-91.25 425.71,-77.32 419.67,-62.46 414.06,-50"/>
<polygon fill="black" stroke="black" points="417.33,-48.72 409.95,-41.12 410.98,-51.66 417.33,-48.72"/>
<text xml:space="preserve" text-anchor="middle" x="479.04" y="-105.58" font-family="Times,serif" font-size="14.00">DDG: credits</text>
</g>
<!-- 30064773384&#45;&gt;124554051687 -->
<g id="edge7" class="edge">
<title>30064773384&#45;&gt;124554051687</title>
<path fill="none" stroke="black" d="M476.77,-182.18C505.64,-160.7 543.07,-124.46 523.75,-91.25 511.82,-70.74 491.45,-55.71 470.62,-44.92"/>
<polygon fill="black" stroke="black" points="472.29,-41.84 461.76,-40.63 469.23,-48.14 472.29,-41.84"/>
<text xml:space="preserve" text-anchor="middle" x="589.81" y="-105.58" font-family="Times,serif" font-size="14.00">DDG: prerequisites</text>
</g>
<!-- 30064773384&#45;&gt;124554051687 -->
<g id="edge8" class="edge">
<title>30064773384&#45;&gt;124554051687</title>
<path fill="none" stroke="black" d="M557.28,-182.07C623.65,-165.44 689.38,-136.75 654.75,-91.25 633.48,-63.31 546.65,-43.59 480.16,-32.25"/>
<polygon fill="black" stroke="black" points="480.78,-28.8 470.34,-30.61 479.63,-35.71 480.78,-28.8"/>
<text xml:space="preserve" text-anchor="middle" x="883.66" y="-105.58" font-family="Times,serif" font-size="14.00">DDG: add_course(self, course_code, title, credits, prerequisites)</text>
</g>
<!-- 30064773384&#45;&gt;141733920917 -->
<g id="edge15" class="edge">
<title>30064773384&#45;&gt;141733920917</title>
<path fill="none" stroke="black" d="M645.02,-182.01C790.16,-167.86 992.23,-148.13 1169.75,-130.75 1170.6,-130.67 1171.46,-130.58 1172.32,-130.5"/>
<polygon fill="black" stroke="black" points="1172.48,-134 1182.09,-129.54 1171.79,-127.03 1172.48,-134"/>
<text xml:space="preserve" text-anchor="middle" x="1190.82" y="-151.2" font-family="Times,serif" font-size="14.00">DDG: add_course(self, course_code, title, credits, prerequisites)</text>
</g>
</g>
</svg>
