<?xml version="1.0" encoding="UTF-8" standalone="no"?>
<!DOCTYPE svg PUBLIC "-//W3C//DTD SVG 1.1//EN"
 "http://www.w3.org/Graphics/SVG/1.1/DTD/svg11.dtd">
<!-- Generated by graphviz version 13.1.2 (20250809.0930)
 -->
<!-- Title: add_instructor&lt;metaClassAdapter&gt; Pages: 1 -->
<svg width="1370pt" height="436pt"
 viewBox="0.00 0.00 1370.00 436.00" xmlns="http://www.w3.org/2000/svg" xmlns:xlink="http://www.w3.org/1999/xlink">
<g id="graph0" class="graph" transform="scale(1 1) rotate(0) translate(4 432.25)">
<title>add_instructor&lt;metaClassAdapter&gt;</title>
<polygon fill="white" stroke="none" points="-4,4 -4,-432.25 1365.5,-432.25 1365.5,4 -4,4"/>
<!-- 107374182504 -->
<g id="node1" class="node">
<title>107374182504</title>
<polygon fill="none" stroke="black" points="427.75,-428.25 195.75,-428.25 195.75,-388.75 427.75,-388.75 427.75,-428.25"/>
<text xml:space="preserve" text-anchor="start" x="274.62" y="-410.95" font-family="Times,serif" font-size="14.00">METHOD, 476</text>
<text xml:space="preserve" text-anchor="start" x="203.75" y="-395.2" font-family="Times,serif" font-size="14.00">add_instructor&lt;metaClassAdapter&gt;</text>
</g>
<!-- 111669149875 -->
<g id="node3" class="node">
<title>111669149875</title>
<polygon fill="none" stroke="black" points="83.5,-279.5 0,-279.5 0,-240 83.5,-240 83.5,-279.5"/>
<text xml:space="preserve" text-anchor="start" x="8" y="-262.2" font-family="Times,serif" font-size="14.00">PARAM, 476</text>
<text xml:space="preserve" text-anchor="start" x="31.62" y="-246.45" font-family="Times,serif" font-size="14.00">cls</text>
</g>
<!-- 107374182504&#45;&gt;111669149875 -->
<g id="edge8" class="edge">
<title>107374182504&#45;&gt;111669149875</title>
<path fill="none" stroke="black" d="M195.51,-393.64C154.47,-383.64 110.64,-366.47 78.75,-337 65.27,-324.54 56.14,-306.13 50.33,-290.51"/>
<polygon fill="black" stroke="black" points="53.69,-289.53 47.15,-281.2 47.07,-291.79 53.69,-289.53"/>
<text xml:space="preserve" text-anchor="middle" x="146.1" y="-357.45" font-family="Times,serif" font-size="14.00">DDG: </text>
</g>
<!-- 111669149876 -->
<g id="node4" class="node">
<title>111669149876</title>
<polygon fill="none" stroke="black" points="171.5,-337 88,-337 88,-297.5 171.5,-297.5 171.5,-337"/>
<text xml:space="preserve" text-anchor="start" x="96" y="-319.7" font-family="Times,serif" font-size="14.00">PARAM, 476</text>
<text xml:space="preserve" text-anchor="start" x="116.25" y="-303.95" font-family="Times,serif" font-size="14.00">self</text>
</g>
<!-- 107374182504&#45;&gt;111669149876 -->
<g id="edge9" class="edge">
<title>107374182504&#45;&gt;111669149876</title>
<path fill="none" stroke="black" d="M271.46,-388.36C259.69,-382.72 246.81,-376.52 235,-370.75 216.29,-361.61 195.78,-351.41 177.88,-342.46"/>
<polygon fill="black" stroke="black" points="179.54,-339.38 169.03,-338.03 176.4,-345.64 179.54,-339.38"/>
<text xml:space="preserve" text-anchor="middle" x="251.88" y="-357.45" font-family="Times,serif" font-size="14.00">DDG: </text>
</g>
<!-- 111669149877 -->
<g id="node5" class="node">
<title>111669149877</title>
<polygon fill="none" stroke="black" points="293.62,-337 189.88,-337 189.88,-297.5 293.62,-297.5 293.62,-337"/>
<text xml:space="preserve" text-anchor="start" x="208" y="-319.7" font-family="Times,serif" font-size="14.00">PARAM, 476</text>
<text xml:space="preserve" text-anchor="start" x="197.88" y="-303.95" font-family="Times,serif" font-size="14.00">instructor_id</text>
</g>
<!-- 107374182504&#45;&gt;111669149877 -->
<g id="edge10" class="edge">
<title>107374182504&#45;&gt;111669149877</title>
<path fill="none" stroke="black" d="M296.9,-388.57C287.32,-376.35 274.67,-360.22 263.91,-346.5"/>
<polygon fill="black" stroke="black" points="266.67,-344.36 257.75,-338.65 261.17,-348.68 266.67,-344.36"/>
<text xml:space="preserve" text-anchor="middle" x="297.82" y="-357.45" font-family="Times,serif" font-size="14.00">DDG: </text>
</g>
<!-- 111669149878 -->
<g id="node6" class="node">
<title>111669149878</title>
<polygon fill="none" stroke="black" points="395.5,-337 312,-337 312,-297.5 395.5,-297.5 395.5,-337"/>
<text xml:space="preserve" text-anchor="start" x="320" y="-319.7" font-family="Times,serif" font-size="14.00">PARAM, 476</text>
<text xml:space="preserve" text-anchor="start" x="340.25" y="-303.95" font-family="Times,serif" font-size="14.00">name</text>
</g>
<!-- 107374182504&#45;&gt;111669149878 -->
<g id="edge11" class="edge">
<title>107374182504&#45;&gt;111669149878</title>
<path fill="none" stroke="black" d="M320.66,-388.57C326.24,-376.7 333.56,-361.15 339.89,-347.69"/>
<polygon fill="black" stroke="black" points="342.98,-349.37 344.07,-338.83 336.64,-346.39 342.98,-349.37"/>
<text xml:space="preserve" text-anchor="middle" x="352.14" y="-357.45" font-family="Times,serif" font-size="14.00">DDG: </text>
</g>
<!-- 111669149879 -->
<g id="node7" class="node">
<title>111669149879</title>
<polygon fill="none" stroke="black" points="497.5,-337 414,-337 414,-297.5 497.5,-297.5 497.5,-337"/>
<text xml:space="preserve" text-anchor="start" x="422" y="-319.7" font-family="Times,serif" font-size="14.00">PARAM, 476</text>
<text xml:space="preserve" text-anchor="start" x="422" y="-303.95" font-family="Times,serif" font-size="14.00">department</text>
</g>
<!-- 107374182504&#45;&gt;111669149879 -->
<g id="edge12" class="edge">
<title>107374182504&#45;&gt;111669149879</title>
<path fill="none" stroke="black" d="M343.8,-388.37C353.16,-382.73 363.39,-376.53 372.75,-370.75 386.99,-361.96 402.52,-352.19 416.25,-343.48"/>
<polygon fill="black" stroke="black" points="418.04,-346.49 424.61,-338.17 414.29,-340.58 418.04,-346.49"/>
<text xml:space="preserve" text-anchor="middle" x="414.82" y="-357.45" font-family="Times,serif" font-size="14.00">DDG: </text>
</g>
<!-- 30064773385 -->
<g id="node9" class="node">
<title>30064773385</title>
<polygon fill="none" stroke="black" points="609,-222 120.5,-222 120.5,-182.5 609,-182.5 609,-222"/>
<text xml:space="preserve" text-anchor="start" x="128.5" y="-204.7" font-family="Times,serif" font-size="14.00">AI_generated_code_1.py:&lt;module&gt;.RegistrationSystem.add_instructor, 476</text>
<text xml:space="preserve" text-anchor="start" x="196" y="-188.95" font-family="Times,serif" font-size="14.00">add_instructor(self, instructor_id, name, depar...</text>
</g>
<!-- 107374182504&#45;&gt;30064773385 -->
<g id="edge15" class="edge">
<title>107374182504&#45;&gt;30064773385</title>
<path fill="none" stroke="black" d="M410.14,-388.25C466.59,-370.95 530.06,-338.71 549.75,-279.5 555.29,-262.84 560.89,-253.57 549.75,-240 545.3,-234.58 537.17,-229.95 526.7,-225.99"/>
<polygon fill="black" stroke="black" points="528.03,-222.74 517.43,-222.87 525.8,-229.38 528.03,-222.74"/>
<text xml:space="preserve" text-anchor="middle" x="558.87" y="-311.82" font-family="Times,serif" font-size="14.00">DDG: </text>
</g>
<!-- 124554051688 -->
<g id="node2" class="node">
<title>124554051688</title>
<polygon fill="none" stroke="black" points="433.5,-39.5 296,-39.5 296,0 433.5,0 433.5,-39.5"/>
<text xml:space="preserve" text-anchor="start" x="304" y="-22.2" font-family="Times,serif" font-size="14.00">METHOD_RETURN, 476</text>
<text xml:space="preserve" text-anchor="start" x="317.5" y="-6.45" font-family="Times,serif" font-size="14.00">__builtin.bool</text>
</g>
<!-- 111669149875&#45;&gt;124554051688 -->
<g id="edge2" class="edge">
<title>111669149875&#45;&gt;124554051688</title>
<path fill="none" stroke="black" d="M44.21,-239.73C50.91,-197.12 73.81,-94.8 142.75,-57.5 166.85,-44.46 231.19,-34.68 284.44,-28.5"/>
<polygon fill="black" stroke="black" points="284.57,-32 294.11,-27.4 283.78,-25.05 284.57,-32"/>
<text xml:space="preserve" text-anchor="middle" x="96.17" y="-151.2" font-family="Times,serif" font-size="14.00">DDG: cls</text>
</g>
<!-- 111669149876&#45;&gt;30064773385 -->
<g id="edge14" class="edge">
<title>111669149876&#45;&gt;30064773385</title>
<path fill="none" stroke="black" d="M132.06,-297.21C135.23,-279.62 142.69,-254.15 160,-240 166.99,-234.29 179.04,-229.41 193.93,-225.25"/>
<polygon fill="black" stroke="black" points="194.39,-228.75 203.2,-222.86 192.64,-221.97 194.39,-228.75"/>
<text xml:space="preserve" text-anchor="middle" x="190.38" y="-254.32" font-family="Times,serif" font-size="14.00">DDG: self</text>
</g>
<!-- 111669149877&#45;&gt;30064773385 -->
<g id="edge16" class="edge">
<title>111669149877&#45;&gt;30064773385</title>
<path fill="none" stroke="black" d="M232.37,-297.04C225.7,-280.31 219.9,-256.25 232.25,-240 236.16,-234.85 244.36,-230.24 254.84,-226.16"/>
<polygon fill="black" stroke="black" points="255.82,-229.52 264.1,-222.92 253.51,-222.92 255.82,-229.52"/>
<text xml:space="preserve" text-anchor="middle" x="293" y="-254.32" font-family="Times,serif" font-size="14.00">DDG: instructor_id</text>
</g>
<!-- 111669149878&#45;&gt;30064773385 -->
<g id="edge17" class="edge">
<title>111669149878&#45;&gt;30064773385</title>
<path fill="none" stroke="black" d="M355.62,-297.08C357.31,-279.69 359.83,-253.75 361.8,-233.55"/>
<polygon fill="black" stroke="black" points="365.28,-233.93 362.76,-223.64 358.31,-233.26 365.28,-233.93"/>
<text xml:space="preserve" text-anchor="middle" x="391.25" y="-254.32" font-family="Times,serif" font-size="14.00">DDG: name</text>
</g>
<!-- 111669149879&#45;&gt;30064773385 -->
<g id="edge18" class="edge">
<title>111669149879&#45;&gt;30064773385</title>
<path fill="none" stroke="black" d="M451.91,-297.23C447.77,-280.61 439.8,-256.62 425.75,-240 422.34,-235.96 418.36,-232.25 414.11,-228.86"/>
<polygon fill="black" stroke="black" points="416.48,-226.25 406.31,-223.26 412.39,-231.94 416.48,-226.25"/>
<text xml:space="preserve" text-anchor="middle" x="497.09" y="-254.32" font-family="Times,serif" font-size="14.00">DDG: department</text>
</g>
<!-- 141733920918 -->
<g id="node8" class="node">
<title>141733920918</title>
<polygon fill="none" stroke="black" points="1361.5,-130.75 1008,-130.75 1008,-91.25 1361.5,-91.25 1361.5,-130.75"/>
<text xml:space="preserve" text-anchor="start" x="1147.62" y="-113.45" font-family="Times,serif" font-size="14.00">RETURN, 476</text>
<text xml:space="preserve" text-anchor="start" x="1016" y="-97.7" font-family="Times,serif" font-size="14.00">return add_instructor(self, instructor_id, name...</text>
</g>
<!-- 141733920918&#45;&gt;124554051688 -->
<g id="edge1" class="edge">
<title>141733920918&#45;&gt;124554051688</title>
<path fill="none" stroke="black" d="M1008.08,-90.77C833.75,-71.8 575.05,-43.64 445.22,-29.51"/>
<polygon fill="black" stroke="black" points="445.65,-26.03 435.33,-28.43 444.89,-32.99 445.65,-26.03"/>
<text xml:space="preserve" text-anchor="middle" x="857.6" y="-59.95" font-family="Times,serif" font-size="14.00">DDG: &lt;RET&gt;</text>
</g>
<!-- 30064773385&#45;&gt;124554051688 -->
<g id="edge3" class="edge">
<title>30064773385&#45;&gt;124554051688</title>
<path fill="none" stroke="black" d="M213.91,-182.06C148.96,-166.71 93.99,-139.42 124,-91.25 141.33,-63.44 221.46,-43.97 284.57,-32.64"/>
<polygon fill="black" stroke="black" points="285,-36.12 294.25,-30.94 283.8,-29.22 285,-36.12"/>
<text xml:space="preserve" text-anchor="middle" x="154.38" y="-105.58" font-family="Times,serif" font-size="14.00">DDG: self</text>
</g>
<!-- 30064773385&#45;&gt;124554051688 -->
<g id="edge4" class="edge">
<title>30064773385&#45;&gt;124554051688</title>
<path fill="none" stroke="black" d="M301.91,-182.14C252.44,-163.55 195.77,-132.15 221.25,-91.25 235.7,-68.06 260.25,-52.28 285,-41.64"/>
<polygon fill="black" stroke="black" points="286.21,-44.92 294.19,-37.95 283.61,-38.43 286.21,-44.92"/>
<text xml:space="preserve" text-anchor="middle" x="282" y="-105.58" font-family="Times,serif" font-size="14.00">DDG: instructor_id</text>
</g>
<!-- 30064773385&#45;&gt;124554051688 -->
<g id="edge5" class="edge">
<title>30064773385&#45;&gt;124554051688</title>
<path fill="none" stroke="black" d="M364.75,-182.27C364.75,-150.99 364.75,-88.35 364.75,-50.93"/>
<polygon fill="black" stroke="black" points="368.25,-51.26 364.75,-41.26 361.25,-51.26 368.25,-51.26"/>
<text xml:space="preserve" text-anchor="middle" x="395.12" y="-105.58" font-family="Times,serif" font-size="14.00">DDG: name</text>
</g>
<!-- 30064773385&#45;&gt;124554051688 -->
<g id="edge6" class="edge">
<title>30064773385&#45;&gt;124554051688</title>
<path fill="none" stroke="black" d="M390.1,-182.06C404.72,-169.32 421.75,-151.22 429.75,-130.75 436.14,-114.4 436.14,-107.6 429.75,-91.25 423.25,-74.62 410.79,-59.55 398.5,-47.65"/>
<polygon fill="black" stroke="black" points="400.95,-45.15 391.21,-40.96 396.22,-50.3 400.95,-45.15"/>
<text xml:space="preserve" text-anchor="middle" x="485.17" y="-105.58" font-family="Times,serif" font-size="14.00">DDG: department</text>
</g>
<!-- 30064773385&#45;&gt;124554051688 -->
<g id="edge7" class="edge">
<title>30064773385&#45;&gt;124554051688</title>
<path fill="none" stroke="black" d="M467.89,-182.1C495.84,-171.68 522.98,-155.59 539.75,-130.75 569.95,-86.02 504.27,-55.89 444.95,-38.63"/>
<polygon fill="black" stroke="black" points="446,-35.29 435.42,-35.97 444.11,-42.03 446,-35.29"/>
<text xml:space="preserve" text-anchor="middle" x="743.09" y="-105.58" font-family="Times,serif" font-size="14.00">DDG: add_instructor(self, instructor_id, name, department)</text>
</g>
<!-- 30064773385&#45;&gt;141733920918 -->
<g id="edge13" class="edge">
<title>30064773385&#45;&gt;141733920918</title>
<path fill="none" stroke="black" d="M541.42,-182.02C675.58,-167.42 859.71,-147.38 996.61,-132.48"/>
<polygon fill="black" stroke="black" points="996.97,-135.96 1006.54,-131.4 996.22,-129 996.97,-135.96"/>
<text xml:space="preserve" text-anchor="middle" x="1019.6" y="-151.2" font-family="Times,serif" font-size="14.00">DDG: add_instructor(self, instructor_id, name, department)</text>
</g>
</g>
</svg>
