<?xml version="1.0" encoding="UTF-8" standalone="no"?>
<!DOCTYPE svg PUBLIC "-//W3C//DTD SVG 1.1//EN"
 "http://www.w3.org/Graphics/SVG/1.1/DTD/svg11.dtd">
<!-- Generated by graphviz version 13.1.2 (20250809.0930)
 -->
<!-- Title: check_credit_limit&lt;metaClassAdapter&gt; Pages: 1 -->
<svg width="1216pt" height="436pt"
 viewBox="0.00 0.00 1216.00 436.00" xmlns="http://www.w3.org/2000/svg" xmlns:xlink="http://www.w3.org/1999/xlink">
<g id="graph0" class="graph" transform="scale(1 1) rotate(0) translate(4 432.25)">
<title>check_credit_limit&lt;metaClassAdapter&gt;</title>
<polygon fill="white" stroke="none" points="-4,4 -4,-432.25 1211.5,-432.25 1211.5,4 -4,4"/>
<!-- 107374182507 -->
<g id="node1" class="node">
<title>107374182507</title>
<polygon fill="none" stroke="black" points="361.25,-428.25 102.25,-428.25 102.25,-388.75 361.25,-388.75 361.25,-428.25"/>
<text xml:space="preserve" text-anchor="start" x="194.62" y="-410.95" font-family="Times,serif" font-size="14.00">METHOD, 607</text>
<text xml:space="preserve" text-anchor="start" x="110.25" y="-395.2" font-family="Times,serif" font-size="14.00">check_credit_limit&lt;metaClassAdapter&gt;</text>
</g>
<!-- 111669149889 -->
<g id="node3" class="node">
<title>111669149889</title>
<polygon fill="none" stroke="black" points="83.5,-279.5 0,-279.5 0,-240 83.5,-240 83.5,-279.5"/>
<text xml:space="preserve" text-anchor="start" x="8" y="-262.2" font-family="Times,serif" font-size="14.00">PARAM, 607</text>
<text xml:space="preserve" text-anchor="start" x="31.62" y="-246.45" font-family="Times,serif" font-size="14.00">cls</text>
</g>
<!-- 107374182507&#45;&gt;111669149889 -->
<g id="edge7" class="edge">
<title>107374182507&#45;&gt;111669149889</title>
<path fill="none" stroke="black" d="M161.76,-388.31C132.83,-377.34 100.95,-360.89 78.75,-337 66.42,-323.73 57.39,-305.59 51.34,-290.33"/>
<polygon fill="black" stroke="black" points="54.74,-289.42 47.98,-281.26 48.17,-291.85 54.74,-289.42"/>
<text xml:space="preserve" text-anchor="middle" x="139.6" y="-357.45" font-family="Times,serif" font-size="14.00">DDG: </text>
</g>
<!-- 111669149890 -->
<g id="node4" class="node">
<title>111669149890</title>
<polygon fill="none" stroke="black" points="171.5,-337 88,-337 88,-297.5 171.5,-297.5 171.5,-337"/>
<text xml:space="preserve" text-anchor="start" x="96" y="-319.7" font-family="Times,serif" font-size="14.00">PARAM, 607</text>
<text xml:space="preserve" text-anchor="start" x="116.25" y="-303.95" font-family="Times,serif" font-size="14.00">self</text>
</g>
<!-- 107374182507&#45;&gt;111669149890 -->
<g id="edge8" class="edge">
<title>107374182507&#45;&gt;111669149890</title>
<path fill="none" stroke="black" d="M209.87,-388.35C195.35,-375.65 176.09,-358.8 160.1,-344.8"/>
<polygon fill="black" stroke="black" points="162.56,-342.31 152.73,-338.36 157.96,-347.58 162.56,-342.31"/>
<text xml:space="preserve" text-anchor="middle" x="203.73" y="-357.45" font-family="Times,serif" font-size="14.00">DDG: </text>
</g>
<!-- 111669149891 -->
<g id="node5" class="node">
<title>111669149891</title>
<polygon fill="none" stroke="black" points="273.5,-337 190,-337 190,-297.5 273.5,-297.5 273.5,-337"/>
<text xml:space="preserve" text-anchor="start" x="198" y="-319.7" font-family="Times,serif" font-size="14.00">PARAM, 607</text>
<text xml:space="preserve" text-anchor="start" x="198" y="-303.95" font-family="Times,serif" font-size="14.00">student_id</text>
</g>
<!-- 107374182507&#45;&gt;111669149891 -->
<g id="edge9" class="edge">
<title>107374182507&#45;&gt;111669149891</title>
<path fill="none" stroke="black" d="M231.75,-388.57C231.75,-377.05 231.75,-362.07 231.75,-348.9"/>
<polygon fill="black" stroke="black" points="235.25,-348.97 231.75,-338.97 228.25,-348.97 235.25,-348.97"/>
<text xml:space="preserve" text-anchor="middle" x="248.62" y="-357.45" font-family="Times,serif" font-size="14.00">DDG: </text>
</g>
<!-- 111669149892 -->
<g id="node6" class="node">
<title>111669149892</title>
<polygon fill="none" stroke="black" points="377.5,-337 294,-337 294,-297.5 377.5,-297.5 377.5,-337"/>
<text xml:space="preserve" text-anchor="start" x="302" y="-319.7" font-family="Times,serif" font-size="14.00">PARAM, 607</text>
<text xml:space="preserve" text-anchor="start" x="302" y="-303.95" font-family="Times,serif" font-size="14.00">section_id</text>
</g>
<!-- 107374182507&#45;&gt;111669149892 -->
<g id="edge10" class="edge">
<title>107374182507&#45;&gt;111669149892</title>
<path fill="none" stroke="black" d="M254.06,-388.35C268.87,-375.65 288.5,-358.8 304.81,-344.8"/>
<polygon fill="black" stroke="black" points="307.02,-347.52 312.33,-338.35 302.46,-342.21 307.02,-347.52"/>
<text xml:space="preserve" text-anchor="middle" x="306.85" y="-357.45" font-family="Times,serif" font-size="14.00">DDG: </text>
</g>
<!-- 30064773388 -->
<g id="node8" class="node">
<title>30064773388</title>
<polygon fill="none" stroke="black" points="595.5,-222 80,-222 80,-182.5 595.5,-182.5 595.5,-222"/>
<text xml:space="preserve" text-anchor="start" x="88" y="-204.7" font-family="Times,serif" font-size="14.00">AI_generated_code_1.py:&lt;module&gt;.RegistrationSystem.check_credit_limit, 607</text>
<text xml:space="preserve" text-anchor="start" x="175.75" y="-188.95" font-family="Times,serif" font-size="14.00">check_credit_limit(self, student_id, section_id)</text>
</g>
<!-- 107374182507&#45;&gt;30064773388 -->
<g id="edge13" class="edge">
<title>107374182507&#45;&gt;30064773388</title>
<path fill="none" stroke="black" d="M303.07,-388.29C354.06,-370 417.46,-336.57 439.75,-279.5 446.14,-263.15 449.84,-254.36 439.75,-240 436.81,-235.82 433.34,-232.1 429.5,-228.82"/>
<polygon fill="black" stroke="black" points="431.89,-226.23 421.75,-223.16 427.76,-231.88 431.89,-226.23"/>
<text xml:space="preserve" text-anchor="middle" x="447.09" y="-311.82" font-family="Times,serif" font-size="14.00">DDG: </text>
</g>
<!-- 124554051691 -->
<g id="node2" class="node">
<title>124554051691</title>
<polygon fill="none" stroke="black" points="340.5,-39.5 203,-39.5 203,0 340.5,0 340.5,-39.5"/>
<text xml:space="preserve" text-anchor="start" x="211" y="-22.2" font-family="Times,serif" font-size="14.00">METHOD_RETURN, 607</text>
<text xml:space="preserve" text-anchor="start" x="231.25" y="-6.45" font-family="Times,serif" font-size="14.00">typing.Tuple</text>
</g>
<!-- 111669149889&#45;&gt;124554051691 -->
<g id="edge2" class="edge">
<title>111669149889&#45;&gt;124554051691</title>
<path fill="none" stroke="black" d="M44.17,-239.76C50.55,-198.57 71.85,-101.21 134.75,-57.5 151.56,-45.82 171.89,-37.85 191.69,-32.41"/>
<polygon fill="black" stroke="black" points="192.31,-35.87 201.14,-30.02 190.59,-29.08 192.31,-35.87"/>
<text xml:space="preserve" text-anchor="middle" x="95.02" y="-151.2" font-family="Times,serif" font-size="14.00">DDG: cls</text>
</g>
<!-- 111669149890&#45;&gt;30064773388 -->
<g id="edge12" class="edge">
<title>111669149890&#45;&gt;30064773388</title>
<path fill="none" stroke="black" d="M131.61,-297.33C134.36,-279.84 141.17,-254.43 158,-240 164.52,-234.41 176.26,-229.55 190.74,-225.35"/>
<polygon fill="black" stroke="black" points="191.52,-228.76 200.28,-222.8 189.71,-222 191.52,-228.76"/>
<text xml:space="preserve" text-anchor="middle" x="188.38" y="-254.32" font-family="Times,serif" font-size="14.00">DDG: self</text>
</g>
<!-- 111669149891&#45;&gt;30064773388 -->
<g id="edge14" class="edge">
<title>111669149891&#45;&gt;30064773388</title>
<path fill="none" stroke="black" d="M225.95,-297.16C222.13,-280.51 219.75,-256.5 231.5,-240 234.37,-235.98 237.7,-232.39 241.39,-229.19"/>
<polygon fill="black" stroke="black" points="243.39,-232.06 249.36,-223.31 239.24,-226.43 243.39,-232.06"/>
<text xml:space="preserve" text-anchor="middle" x="282.12" y="-254.32" font-family="Times,serif" font-size="14.00">DDG: student_id</text>
</g>
<!-- 111669149892&#45;&gt;30064773388 -->
<g id="edge15" class="edge">
<title>111669149892&#45;&gt;30064773388</title>
<path fill="none" stroke="black" d="M336.09,-297.08C336.4,-279.69 336.86,-253.75 337.21,-233.55"/>
<polygon fill="black" stroke="black" points="340.71,-233.71 337.39,-223.65 333.71,-233.59 340.71,-233.71"/>
<text xml:space="preserve" text-anchor="middle" x="387.67" y="-254.32" font-family="Times,serif" font-size="14.00">DDG: section_id</text>
</g>
<!-- 141733920921 -->
<g id="node7" class="node">
<title>141733920921</title>
<polygon fill="none" stroke="black" points="1207.5,-130.75 854,-130.75 854,-91.25 1207.5,-91.25 1207.5,-130.75"/>
<text xml:space="preserve" text-anchor="start" x="993.62" y="-113.45" font-family="Times,serif" font-size="14.00">RETURN, 607</text>
<text xml:space="preserve" text-anchor="start" x="862" y="-97.7" font-family="Times,serif" font-size="14.00">return check_credit_limit(self, student_id, sec...</text>
</g>
<!-- 141733920921&#45;&gt;124554051691 -->
<g id="edge1" class="edge">
<title>141733920921&#45;&gt;124554051691</title>
<path fill="none" stroke="black" d="M867.46,-90.8C708.6,-72.12 473.89,-44.52 351.93,-30.18"/>
<polygon fill="black" stroke="black" points="352.68,-26.74 342.34,-29.05 351.87,-33.69 352.68,-26.74"/>
<text xml:space="preserve" text-anchor="middle" x="730.44" y="-59.95" font-family="Times,serif" font-size="14.00">DDG: &lt;RET&gt;</text>
</g>
<!-- 30064773388&#45;&gt;124554051691 -->
<g id="edge3" class="edge">
<title>30064773388&#45;&gt;124554051691</title>
<path fill="none" stroke="black" d="M239.12,-182.05C188.37,-169.8 134.37,-152.2 121,-130.75 96.82,-91.94 145.13,-62.49 193.34,-43.87"/>
<polygon fill="black" stroke="black" points="194.34,-47.23 202.5,-40.47 191.91,-40.67 194.34,-47.23"/>
<text xml:space="preserve" text-anchor="middle" x="151.38" y="-105.58" font-family="Times,serif" font-size="14.00">DDG: self</text>
</g>
<!-- 30064773388&#45;&gt;124554051691 -->
<g id="edge4" class="edge">
<title>30064773388&#45;&gt;124554051691</title>
<path fill="none" stroke="black" d="M279.83,-182.04C256.12,-170.99 231.09,-154.48 217.5,-130.75 201.73,-103.23 222.68,-70.49 242.96,-47.92"/>
<polygon fill="black" stroke="black" points="245.27,-50.58 249.58,-40.91 240.17,-45.78 245.27,-50.58"/>
<text xml:space="preserve" text-anchor="middle" x="268.12" y="-105.58" font-family="Times,serif" font-size="14.00">DDG: student_id</text>
</g>
<!-- 30064773388&#45;&gt;124554051691 -->
<g id="edge5" class="edge">
<title>30064773388&#45;&gt;124554051691</title>
<path fill="none" stroke="black" d="M336.86,-182.31C335.28,-159.87 330.88,-121.67 318.75,-91.25 312.76,-76.22 303.24,-61.1 294.33,-48.73"/>
<polygon fill="black" stroke="black" points="297.4,-46.99 288.61,-41.07 291.79,-51.18 297.4,-46.99"/>
<text xml:space="preserve" text-anchor="middle" x="380.62" y="-105.58" font-family="Times,serif" font-size="14.00">DDG: section_id</text>
</g>
<!-- 30064773388&#45;&gt;124554051691 -->
<g id="edge6" class="edge">
<title>30064773388&#45;&gt;124554051691</title>
<path fill="none" stroke="black" d="M375.54,-182.17C411.7,-161.26 457.61,-126.04 434.75,-91.25 416.05,-62.78 383.13,-45.76 351.75,-35.6"/>
<polygon fill="black" stroke="black" points="352.78,-32.25 342.19,-32.72 350.76,-38.95 352.78,-32.25"/>
<text xml:space="preserve" text-anchor="middle" x="619.74" y="-105.58" font-family="Times,serif" font-size="14.00">DDG: check_credit_limit(self, student_id, section_id)</text>
</g>
<!-- 30064773388&#45;&gt;141733920921 -->
<g id="edge11" class="edge">
<title>30064773388&#45;&gt;141733920921</title>
<path fill="none" stroke="black" d="M486.84,-182.05C599.64,-167.52 754.33,-147.6 869.91,-132.71"/>
<polygon fill="black" stroke="black" points="870.35,-136.19 879.82,-131.44 869.45,-129.24 870.35,-136.19"/>
<text xml:space="preserve" text-anchor="middle" x="904.62" y="-151.2" font-family="Times,serif" font-size="14.00">DDG: check_credit_limit(self, student_id, section_id)</text>
</g>
</g>
</svg>
