<?xml version="1.0" encoding="UTF-8" standalone="no"?>
<!DOCTYPE svg PUBLIC "-//W3C//DTD SVG 1.1//EN"
 "http://www.w3.org/Graphics/SVG/1.1/DTD/svg11.dtd">
<!-- Generated by graphviz version 13.1.2 (20250809.0930)
 -->
<!-- Title: check_duplicate_course_in_semester&lt;metaClassAdapter&gt; Pages: 1 -->
<svg width="1330pt" height="436pt"
 viewBox="0.00 0.00 1330.00 436.00" xmlns="http://www.w3.org/2000/svg" xmlns:xlink="http://www.w3.org/1999/xlink">
<g id="graph0" class="graph" transform="scale(1 1) rotate(0) translate(4 432.25)">
<title>check_duplicate_course_in_semester&lt;metaClassAdapter&gt;</title>
<polygon fill="white" stroke="none" points="-4,4 -4,-432.25 1325.5,-432.25 1325.5,4 -4,4"/>
<!-- 107374182508 -->
<g id="node1" class="node">
<title>107374182508</title>
<polygon fill="none" stroke="black" points="443.25,-428.25 76.25,-428.25 76.25,-388.75 443.25,-388.75 443.25,-428.25"/>
<text xml:space="preserve" text-anchor="start" x="222.62" y="-410.95" font-family="Times,serif" font-size="14.00">METHOD, 618</text>
<text xml:space="preserve" text-anchor="start" x="84.25" y="-395.2" font-family="Times,serif" font-size="14.00">check_duplicate_course_in_semester&lt;metaClassAdapter&gt;</text>
</g>
<!-- 111669149893 -->
<g id="node3" class="node">
<title>111669149893</title>
<polygon fill="none" stroke="black" points="83.5,-279.5 0,-279.5 0,-240 83.5,-240 83.5,-279.5"/>
<text xml:space="preserve" text-anchor="start" x="8" y="-262.2" font-family="Times,serif" font-size="14.00">PARAM, 618</text>
<text xml:space="preserve" text-anchor="start" x="31.62" y="-246.45" font-family="Times,serif" font-size="14.00">cls</text>
</g>
<!-- 107374182508&#45;&gt;111669149893 -->
<g id="edge7" class="edge">
<title>107374182508&#45;&gt;111669149893</title>
<path fill="none" stroke="black" d="M199.66,-388.27C169.6,-376.65 133.93,-359.66 106.75,-337 89.93,-322.98 73.94,-304.31 62.02,-288.96"/>
<polygon fill="black" stroke="black" points="64.9,-286.96 56.08,-281.1 59.32,-291.19 64.9,-286.96"/>
<text xml:space="preserve" text-anchor="middle" x="176.18" y="-357.45" font-family="Times,serif" font-size="14.00">DDG: </text>
</g>
<!-- 111669149894 -->
<g id="node4" class="node">
<title>111669149894</title>
<polygon fill="none" stroke="black" points="199.5,-337 116,-337 116,-297.5 199.5,-297.5 199.5,-337"/>
<text xml:space="preserve" text-anchor="start" x="124" y="-319.7" font-family="Times,serif" font-size="14.00">PARAM, 618</text>
<text xml:space="preserve" text-anchor="start" x="144.25" y="-303.95" font-family="Times,serif" font-size="14.00">self</text>
</g>
<!-- 107374182508&#45;&gt;111669149894 -->
<g id="edge8" class="edge">
<title>107374182508&#45;&gt;111669149894</title>
<path fill="none" stroke="black" d="M237.87,-388.35C223.35,-375.65 204.09,-358.8 188.1,-344.8"/>
<polygon fill="black" stroke="black" points="190.56,-342.31 180.73,-338.36 185.96,-347.58 190.56,-342.31"/>
<text xml:space="preserve" text-anchor="middle" x="231.73" y="-357.45" font-family="Times,serif" font-size="14.00">DDG: </text>
</g>
<!-- 111669149895 -->
<g id="node5" class="node">
<title>111669149895</title>
<polygon fill="none" stroke="black" points="301.5,-337 218,-337 218,-297.5 301.5,-297.5 301.5,-337"/>
<text xml:space="preserve" text-anchor="start" x="226" y="-319.7" font-family="Times,serif" font-size="14.00">PARAM, 618</text>
<text xml:space="preserve" text-anchor="start" x="226" y="-303.95" font-family="Times,serif" font-size="14.00">student_id</text>
</g>
<!-- 107374182508&#45;&gt;111669149895 -->
<g id="edge9" class="edge">
<title>107374182508&#45;&gt;111669149895</title>
<path fill="none" stroke="black" d="M259.75,-388.57C259.75,-377.05 259.75,-362.07 259.75,-348.9"/>
<polygon fill="black" stroke="black" points="263.25,-348.97 259.75,-338.97 256.25,-348.97 263.25,-348.97"/>
<text xml:space="preserve" text-anchor="middle" x="276.62" y="-357.45" font-family="Times,serif" font-size="14.00">DDG: </text>
</g>
<!-- 111669149896 -->
<g id="node6" class="node">
<title>111669149896</title>
<polygon fill="none" stroke="black" points="405.5,-337 322,-337 322,-297.5 405.5,-297.5 405.5,-337"/>
<text xml:space="preserve" text-anchor="start" x="330" y="-319.7" font-family="Times,serif" font-size="14.00">PARAM, 618</text>
<text xml:space="preserve" text-anchor="start" x="330" y="-303.95" font-family="Times,serif" font-size="14.00">section_id</text>
</g>
<!-- 107374182508&#45;&gt;111669149896 -->
<g id="edge10" class="edge">
<title>107374182508&#45;&gt;111669149896</title>
<path fill="none" stroke="black" d="M282.06,-388.35C296.87,-375.65 316.5,-358.8 332.81,-344.8"/>
<polygon fill="black" stroke="black" points="335.02,-347.52 340.33,-338.35 330.46,-342.21 335.02,-347.52"/>
<text xml:space="preserve" text-anchor="middle" x="334.85" y="-357.45" font-family="Times,serif" font-size="14.00">DDG: </text>
</g>
<!-- 30064773389 -->
<g id="node8" class="node">
<title>30064773389</title>
<polygon fill="none" stroke="black" points="677.5,-222 54,-222 54,-182.5 677.5,-182.5 677.5,-222"/>
<text xml:space="preserve" text-anchor="start" x="62" y="-204.7" font-family="Times,serif" font-size="14.00">AI_generated_code_1.py:&lt;module&gt;.RegistrationSystem.check_duplicate_course_in_semester, 618</text>
<text xml:space="preserve" text-anchor="start" x="197" y="-188.95" font-family="Times,serif" font-size="14.00">check_duplicate_course_in_semester(self, studen...</text>
</g>
<!-- 107374182508&#45;&gt;30064773389 -->
<g id="edge13" class="edge">
<title>107374182508&#45;&gt;30064773389</title>
<path fill="none" stroke="black" d="M331.07,-388.29C382.06,-370 445.46,-336.57 467.75,-279.5 474.14,-263.15 477.84,-254.36 467.75,-240 464.81,-235.82 461.34,-232.1 457.5,-228.82"/>
<polygon fill="black" stroke="black" points="459.89,-226.23 449.75,-223.16 455.76,-231.88 459.89,-226.23"/>
<text xml:space="preserve" text-anchor="middle" x="475.09" y="-311.82" font-family="Times,serif" font-size="14.00">DDG: </text>
</g>
<!-- 124554051692 -->
<g id="node2" class="node">
<title>124554051692</title>
<polygon fill="none" stroke="black" points="346.5,-39.5 209,-39.5 209,0 346.5,0 346.5,-39.5"/>
<text xml:space="preserve" text-anchor="start" x="217" y="-22.2" font-family="Times,serif" font-size="14.00">METHOD_RETURN, 618</text>
<text xml:space="preserve" text-anchor="start" x="237.25" y="-6.45" font-family="Times,serif" font-size="14.00">typing.Tuple</text>
</g>
<!-- 111669149893&#45;&gt;124554051692 -->
<g id="edge2" class="edge">
<title>111669149893&#45;&gt;124554051692</title>
<path fill="none" stroke="black" d="M39.36,-239.65C38.12,-223.85 38.03,-201.06 44.75,-182.5 68.58,-116.63 82.5,-96.41 140.75,-57.5 157.6,-46.24 177.78,-38.42 197.4,-33"/>
<polygon fill="black" stroke="black" points="198.25,-36.39 207.07,-30.52 196.52,-29.61 198.25,-36.39"/>
<text xml:space="preserve" text-anchor="middle" x="84.69" y="-151.2" font-family="Times,serif" font-size="14.00">DDG: cls</text>
</g>
<!-- 111669149894&#45;&gt;30064773389 -->
<g id="edge12" class="edge">
<title>111669149894&#45;&gt;30064773389</title>
<path fill="none" stroke="black" d="M159.61,-297.33C162.36,-279.84 169.17,-254.43 186,-240 192.52,-234.41 204.26,-229.55 218.74,-225.35"/>
<polygon fill="black" stroke="black" points="219.52,-228.76 228.28,-222.8 217.71,-222 219.52,-228.76"/>
<text xml:space="preserve" text-anchor="middle" x="216.38" y="-254.32" font-family="Times,serif" font-size="14.00">DDG: self</text>
</g>
<!-- 111669149895&#45;&gt;30064773389 -->
<g id="edge14" class="edge">
<title>111669149895&#45;&gt;30064773389</title>
<path fill="none" stroke="black" d="M253.95,-297.16C250.13,-280.51 247.75,-256.5 259.5,-240 262.37,-235.98 265.7,-232.39 269.39,-229.19"/>
<polygon fill="black" stroke="black" points="271.39,-232.06 277.36,-223.31 267.24,-226.43 271.39,-232.06"/>
<text xml:space="preserve" text-anchor="middle" x="310.12" y="-254.32" font-family="Times,serif" font-size="14.00">DDG: student_id</text>
</g>
<!-- 111669149896&#45;&gt;30064773389 -->
<g id="edge15" class="edge">
<title>111669149896&#45;&gt;30064773389</title>
<path fill="none" stroke="black" d="M364.09,-297.08C364.4,-279.69 364.86,-253.75 365.21,-233.55"/>
<polygon fill="black" stroke="black" points="368.71,-233.71 365.39,-223.65 361.71,-233.59 368.71,-233.71"/>
<text xml:space="preserve" text-anchor="middle" x="415.67" y="-254.32" font-family="Times,serif" font-size="14.00">DDG: section_id</text>
</g>
<!-- 141733920922 -->
<g id="node7" class="node">
<title>141733920922</title>
<polygon fill="none" stroke="black" points="1321.5,-130.75 968,-130.75 968,-91.25 1321.5,-91.25 1321.5,-130.75"/>
<text xml:space="preserve" text-anchor="start" x="1107.62" y="-113.45" font-family="Times,serif" font-size="14.00">RETURN, 618</text>
<text xml:space="preserve" text-anchor="start" x="976" y="-97.7" font-family="Times,serif" font-size="14.00">return check_duplicate_course_in_semester(self,...</text>
</g>
<!-- 141733920922&#45;&gt;124554051692 -->
<g id="edge1" class="edge">
<title>141733920922&#45;&gt;124554051692</title>
<path fill="none" stroke="black" d="M967.73,-91.78C781.3,-72.59 496.06,-43.22 358.06,-29.02"/>
<polygon fill="black" stroke="black" points="358.59,-25.55 348.28,-28.01 357.87,-32.52 358.59,-25.55"/>
<text xml:space="preserve" text-anchor="middle" x="796.91" y="-59.95" font-family="Times,serif" font-size="14.00">DDG: &lt;RET&gt;</text>
</g>
<!-- 30064773389&#45;&gt;124554051692 -->
<g id="edge3" class="edge">
<title>30064773389&#45;&gt;124554051692</title>
<path fill="none" stroke="black" d="M250.11,-182.06C196.27,-170.33 141,-153.22 127,-130.75 102.82,-91.94 151.13,-62.49 199.34,-43.87"/>
<polygon fill="black" stroke="black" points="200.34,-47.23 208.5,-40.47 197.91,-40.67 200.34,-47.23"/>
<text xml:space="preserve" text-anchor="middle" x="157.38" y="-105.58" font-family="Times,serif" font-size="14.00">DDG: self</text>
</g>
<!-- 30064773389&#45;&gt;124554051692 -->
<g id="edge4" class="edge">
<title>30064773389&#45;&gt;124554051692</title>
<path fill="none" stroke="black" d="M291.21,-182.12C265.18,-171.47 238.69,-155.22 223.5,-130.75 206.68,-103.64 228.14,-70.57 248.83,-47.82"/>
<polygon fill="black" stroke="black" points="251.22,-50.38 255.59,-40.73 246.16,-45.55 251.22,-50.38"/>
<text xml:space="preserve" text-anchor="middle" x="274.12" y="-105.58" font-family="Times,serif" font-size="14.00">DDG: student_id</text>
</g>
<!-- 30064773389&#45;&gt;124554051692 -->
<g id="edge5" class="edge">
<title>30064773389&#45;&gt;124554051692</title>
<path fill="none" stroke="black" d="M360.07,-182C353.12,-159.58 340.33,-121.74 324.75,-91.25 317.28,-76.64 307.4,-61.37 298.62,-48.8"/>
<polygon fill="black" stroke="black" points="301.71,-47.11 293.06,-40.99 296.01,-51.17 301.71,-47.11"/>
<text xml:space="preserve" text-anchor="middle" x="392.78" y="-105.58" font-family="Times,serif" font-size="14.00">DDG: section_id</text>
</g>
<!-- 30064773389&#45;&gt;124554051692 -->
<g id="edge6" class="edge">
<title>30064773389&#45;&gt;124554051692</title>
<path fill="none" stroke="black" d="M397.46,-182.02C428.96,-160.4 469.64,-124.03 447.75,-91.25 427.41,-60.8 391.22,-43.49 357.44,-33.65"/>
<polygon fill="black" stroke="black" points="358.61,-30.34 348.04,-31.1 356.78,-37.09 358.61,-30.34"/>
<text xml:space="preserve" text-anchor="middle" x="686.82" y="-105.58" font-family="Times,serif" font-size="14.00">DDG: check_duplicate_course_in_semester(self, student_id, section_id)</text>
</g>
<!-- 30064773389&#45;&gt;141733920922 -->
<g id="edge11" class="edge">
<title>30064773389&#45;&gt;141733920922</title>
<path fill="none" stroke="black" d="M533.34,-182.05C660.65,-167.46 835.43,-147.44 965.52,-132.53"/>
<polygon fill="black" stroke="black" points="965.73,-136.03 975.27,-131.42 964.94,-129.08 965.73,-136.03"/>
<text xml:space="preserve" text-anchor="middle" x="1034.77" y="-151.2" font-family="Times,serif" font-size="14.00">DDG: check_duplicate_course_in_semester(self, student_id, section_id)</text>
</g>
</g>
</svg>
