<?xml version="1.0" encoding="UTF-8" standalone="no"?>
<!DOCTYPE svg PUBLIC "-//W3C//DTD SVG 1.1//EN"
 "http://www.w3.org/Graphics/SVG/1.1/DTD/svg11.dtd">
<!-- Generated by graphviz version 13.1.2 (20250809.0930)
 -->
<!-- Title: check_duplicate_course_in_semester_promotion&lt;metaClassAdapter&gt; Pages: 1 -->
<svg width="1406pt" height="436pt"
 viewBox="0.00 0.00 1406.00 436.00" xmlns="http://www.w3.org/2000/svg" xmlns:xlink="http://www.w3.org/1999/xlink">
<g id="graph0" class="graph" transform="scale(1 1) rotate(0) translate(4 432.25)">
<title>check_duplicate_course_in_semester_promotion&lt;metaClassAdapter&gt;</title>
<polygon fill="white" stroke="none" points="-4,4 -4,-432.25 1401.5,-432.25 1401.5,4 -4,4"/>
<!-- 107374182509 -->
<g id="node1" class="node">
<title>107374182509</title>
<polygon fill="none" stroke="black" points="503,-428.25 68.5,-428.25 68.5,-388.75 503,-388.75 503,-428.25"/>
<text xml:space="preserve" text-anchor="start" x="248.62" y="-410.95" font-family="Times,serif" font-size="14.00">METHOD, 842</text>
<text xml:space="preserve" text-anchor="start" x="76.5" y="-395.2" font-family="Times,serif" font-size="14.00">check_duplicate_course_in_semester_promotion&lt;metaClassAdapter&gt;</text>
</g>
<!-- 111669149897 -->
<g id="node3" class="node">
<title>111669149897</title>
<polygon fill="none" stroke="black" points="83.5,-279.5 0,-279.5 0,-240 83.5,-240 83.5,-279.5"/>
<text xml:space="preserve" text-anchor="start" x="8" y="-262.2" font-family="Times,serif" font-size="14.00">PARAM, 842</text>
<text xml:space="preserve" text-anchor="start" x="31.62" y="-246.45" font-family="Times,serif" font-size="14.00">cls</text>
</g>
<!-- 107374182509&#45;&gt;111669149897 -->
<g id="edge7" class="edge">
<title>107374182509&#45;&gt;111669149897</title>
<path fill="none" stroke="black" d="M232.01,-388.32C218.45,-383.03 204.04,-377.01 191,-370.75 164.03,-357.8 157.25,-354.17 132.75,-337 111.05,-321.79 88.19,-302.62 70.81,-287.31"/>
<polygon fill="black" stroke="black" points="73.18,-284.74 63.39,-280.7 68.53,-289.96 73.18,-284.74"/>
<text xml:space="preserve" text-anchor="middle" x="207.88" y="-357.45" font-family="Times,serif" font-size="14.00">DDG: </text>
</g>
<!-- 111669149898 -->
<g id="node4" class="node">
<title>111669149898</title>
<polygon fill="none" stroke="black" points="225.5,-337 142,-337 142,-297.5 225.5,-297.5 225.5,-337"/>
<text xml:space="preserve" text-anchor="start" x="150" y="-319.7" font-family="Times,serif" font-size="14.00">PARAM, 842</text>
<text xml:space="preserve" text-anchor="start" x="170.25" y="-303.95" font-family="Times,serif" font-size="14.00">self</text>
</g>
<!-- 107374182509&#45;&gt;111669149898 -->
<g id="edge8" class="edge">
<title>107374182509&#45;&gt;111669149898</title>
<path fill="none" stroke="black" d="M263.87,-388.35C249.35,-375.65 230.09,-358.8 214.1,-344.8"/>
<polygon fill="black" stroke="black" points="216.56,-342.31 206.73,-338.36 211.96,-347.58 216.56,-342.31"/>
<text xml:space="preserve" text-anchor="middle" x="257.73" y="-357.45" font-family="Times,serif" font-size="14.00">DDG: </text>
</g>
<!-- 111669149899 -->
<g id="node5" class="node">
<title>111669149899</title>
<polygon fill="none" stroke="black" points="327.5,-337 244,-337 244,-297.5 327.5,-297.5 327.5,-337"/>
<text xml:space="preserve" text-anchor="start" x="252" y="-319.7" font-family="Times,serif" font-size="14.00">PARAM, 842</text>
<text xml:space="preserve" text-anchor="start" x="252" y="-303.95" font-family="Times,serif" font-size="14.00">student_id</text>
</g>
<!-- 107374182509&#45;&gt;111669149899 -->
<g id="edge9" class="edge">
<title>107374182509&#45;&gt;111669149899</title>
<path fill="none" stroke="black" d="M285.75,-388.57C285.75,-377.05 285.75,-362.07 285.75,-348.9"/>
<polygon fill="black" stroke="black" points="289.25,-348.97 285.75,-338.97 282.25,-348.97 289.25,-348.97"/>
<text xml:space="preserve" text-anchor="middle" x="302.62" y="-357.45" font-family="Times,serif" font-size="14.00">DDG: </text>
</g>
<!-- 111669149900 -->
<g id="node6" class="node">
<title>111669149900</title>
<polygon fill="none" stroke="black" points="431.5,-337 348,-337 348,-297.5 431.5,-297.5 431.5,-337"/>
<text xml:space="preserve" text-anchor="start" x="356" y="-319.7" font-family="Times,serif" font-size="14.00">PARAM, 842</text>
<text xml:space="preserve" text-anchor="start" x="356" y="-303.95" font-family="Times,serif" font-size="14.00">section_id</text>
</g>
<!-- 107374182509&#45;&gt;111669149900 -->
<g id="edge10" class="edge">
<title>107374182509&#45;&gt;111669149900</title>
<path fill="none" stroke="black" d="M308.06,-388.35C322.87,-375.65 342.5,-358.8 358.81,-344.8"/>
<polygon fill="black" stroke="black" points="361.02,-347.52 366.33,-338.35 356.46,-342.21 361.02,-347.52"/>
<text xml:space="preserve" text-anchor="middle" x="360.85" y="-357.45" font-family="Times,serif" font-size="14.00">DDG: </text>
</g>
<!-- 30064773390 -->
<g id="node8" class="node">
<title>30064773390</title>
<polygon fill="none" stroke="black" points="737.25,-222 46.25,-222 46.25,-182.5 737.25,-182.5 737.25,-222"/>
<text xml:space="preserve" text-anchor="start" x="54.25" y="-204.7" font-family="Times,serif" font-size="14.00">AI_generated_code_1.py:&lt;module&gt;.RegistrationSystem.check_duplicate_course_in_semester_promotion, 842</text>
<text xml:space="preserve" text-anchor="start" x="223" y="-188.95" font-family="Times,serif" font-size="14.00">check_duplicate_course_in_semester_promotion(se...</text>
</g>
<!-- 107374182509&#45;&gt;30064773390 -->
<g id="edge13" class="edge">
<title>107374182509&#45;&gt;30064773390</title>
<path fill="none" stroke="black" d="M357.07,-388.29C408.06,-370 471.46,-336.57 493.75,-279.5 500.14,-263.15 503.84,-254.36 493.75,-240 490.81,-235.82 487.34,-232.1 483.5,-228.82"/>
<polygon fill="black" stroke="black" points="485.89,-226.23 475.75,-223.16 481.76,-231.88 485.89,-226.23"/>
<text xml:space="preserve" text-anchor="middle" x="501.09" y="-311.82" font-family="Times,serif" font-size="14.00">DDG: </text>
</g>
<!-- 124554051693 -->
<g id="node2" class="node">
<title>124554051693</title>
<polygon fill="none" stroke="black" points="355.5,-39.5 218,-39.5 218,0 355.5,0 355.5,-39.5"/>
<text xml:space="preserve" text-anchor="start" x="226" y="-22.2" font-family="Times,serif" font-size="14.00">METHOD_RETURN, 842</text>
<text xml:space="preserve" text-anchor="start" x="246.25" y="-6.45" font-family="Times,serif" font-size="14.00">typing.Tuple</text>
</g>
<!-- 111669149897&#45;&gt;124554051693 -->
<g id="edge2" class="edge">
<title>111669149897&#45;&gt;124554051693</title>
<path fill="none" stroke="black" d="M36.14,-239.59C32.51,-223.75 29.65,-200.95 36.75,-182.5 63.66,-112.61 85.86,-96.58 149.75,-57.5 166.95,-46.98 187.17,-39.43 206.71,-34.02"/>
<polygon fill="black" stroke="black" points="207.51,-37.43 216.32,-31.54 205.76,-30.65 207.51,-37.43"/>
<text xml:space="preserve" text-anchor="middle" x="78.24" y="-151.2" font-family="Times,serif" font-size="14.00">DDG: cls</text>
</g>
<!-- 111669149898&#45;&gt;30064773390 -->
<g id="edge12" class="edge">
<title>111669149898&#45;&gt;30064773390</title>
<path fill="none" stroke="black" d="M185.61,-297.33C188.36,-279.84 195.17,-254.43 212,-240 218.52,-234.41 230.26,-229.55 244.74,-225.35"/>
<polygon fill="black" stroke="black" points="245.52,-228.76 254.28,-222.8 243.71,-222 245.52,-228.76"/>
<text xml:space="preserve" text-anchor="middle" x="242.38" y="-254.32" font-family="Times,serif" font-size="14.00">DDG: self</text>
</g>
<!-- 111669149899&#45;&gt;30064773390 -->
<g id="edge14" class="edge">
<title>111669149899&#45;&gt;30064773390</title>
<path fill="none" stroke="black" d="M279.95,-297.16C276.13,-280.51 273.75,-256.5 285.5,-240 288.37,-235.98 291.7,-232.39 295.39,-229.19"/>
<polygon fill="black" stroke="black" points="297.39,-232.06 303.36,-223.31 293.24,-226.43 297.39,-232.06"/>
<text xml:space="preserve" text-anchor="middle" x="336.12" y="-254.32" font-family="Times,serif" font-size="14.00">DDG: student_id</text>
</g>
<!-- 111669149900&#45;&gt;30064773390 -->
<g id="edge15" class="edge">
<title>111669149900&#45;&gt;30064773390</title>
<path fill="none" stroke="black" d="M390.09,-297.08C390.4,-279.69 390.86,-253.75 391.21,-233.55"/>
<polygon fill="black" stroke="black" points="394.71,-233.71 391.39,-223.65 387.71,-233.59 394.71,-233.71"/>
<text xml:space="preserve" text-anchor="middle" x="441.67" y="-254.32" font-family="Times,serif" font-size="14.00">DDG: section_id</text>
</g>
<!-- 141733920923 -->
<g id="node7" class="node">
<title>141733920923</title>
<polygon fill="none" stroke="black" points="1397.5,-130.75 1044,-130.75 1044,-91.25 1397.5,-91.25 1397.5,-130.75"/>
<text xml:space="preserve" text-anchor="start" x="1183.62" y="-113.45" font-family="Times,serif" font-size="14.00">RETURN, 842</text>
<text xml:space="preserve" text-anchor="start" x="1052" y="-97.7" font-family="Times,serif" font-size="14.00">return check_duplicate_course_in_semester_promo...</text>
</g>
<!-- 141733920923&#45;&gt;124554051693 -->
<g id="edge1" class="edge">
<title>141733920923&#45;&gt;124554051693</title>
<path fill="none" stroke="black" d="M1043.59,-92.59C1038.93,-92.14 1034.31,-91.69 1029.75,-91.25 788.58,-67.97 503.31,-41.08 367.04,-28.28"/>
<polygon fill="black" stroke="black" points="367.69,-24.83 357.41,-27.38 367.04,-31.8 367.69,-24.83"/>
<text xml:space="preserve" text-anchor="middle" x="859.44" y="-59.95" font-family="Times,serif" font-size="14.00">DDG: &lt;RET&gt;</text>
</g>
<!-- 30064773390&#45;&gt;124554051693 -->
<g id="edge3" class="edge">
<title>30064773390&#45;&gt;124554051693</title>
<path fill="none" stroke="black" d="M261.8,-182.06C206.07,-170.66 150.4,-153.86 136,-130.75 111.82,-91.94 160.13,-62.49 208.34,-43.87"/>
<polygon fill="black" stroke="black" points="209.34,-47.23 217.5,-40.47 206.91,-40.67 209.34,-47.23"/>
<text xml:space="preserve" text-anchor="middle" x="166.38" y="-105.58" font-family="Times,serif" font-size="14.00">DDG: self</text>
</g>
<!-- 30064773390&#45;&gt;124554051693 -->
<g id="edge4" class="edge">
<title>30064773390&#45;&gt;124554051693</title>
<path fill="none" stroke="black" d="M302.7,-182.05C275.51,-171.57 248.58,-155.46 232.5,-130.75 215.09,-104.01 236.65,-70.88 257.53,-48.01"/>
<polygon fill="black" stroke="black" points="259.97,-50.51 264.36,-40.87 254.92,-45.67 259.97,-50.51"/>
<text xml:space="preserve" text-anchor="middle" x="283.12" y="-105.58" font-family="Times,serif" font-size="14.00">DDG: student_id</text>
</g>
<!-- 30064773390&#45;&gt;124554051693 -->
<g id="edge5" class="edge">
<title>30064773390&#45;&gt;124554051693</title>
<path fill="none" stroke="black" d="M382.47,-182.24C371.48,-160.05 352.29,-122.42 333.75,-91.25 325.3,-77.04 315.21,-61.73 306.56,-49.01"/>
<polygon fill="black" stroke="black" points="309.67,-47.36 301.12,-41.1 303.9,-51.33 309.67,-47.36"/>
<text xml:space="preserve" text-anchor="middle" x="405.81" y="-105.58" font-family="Times,serif" font-size="14.00">DDG: section_id</text>
</g>
<!-- 30064773390&#45;&gt;124554051693 -->
<g id="edge6" class="edge">
<title>30064773390&#45;&gt;124554051693</title>
<path fill="none" stroke="black" d="M418.11,-182.33C445.58,-160.22 481.91,-122.66 460.75,-91.25 439.54,-59.77 401.62,-42.34 366.58,-32.7"/>
<polygon fill="black" stroke="black" points="367.85,-29.41 357.29,-30.32 366.11,-36.19 367.85,-29.41"/>
<text xml:space="preserve" text-anchor="middle" x="733.71" y="-105.58" font-family="Times,serif" font-size="14.00">DDG: check_duplicate_course_in_semester_promotion(self, student_id, section_id)</text>
</g>
<!-- 30064773390&#45;&gt;141733920923 -->
<g id="edge11" class="edge">
<title>30064773390&#45;&gt;141733920923</title>
<path fill="none" stroke="black" d="M570.36,-182.02C706.59,-167.35 893.78,-147.2 1032.38,-132.28"/>
<polygon fill="black" stroke="black" points="1032.45,-135.79 1042.02,-131.24 1031.71,-128.83 1032.45,-135.79"/>
<text xml:space="preserve" text-anchor="middle" x="1122.51" y="-151.2" font-family="Times,serif" font-size="14.00">DDG: check_duplicate_course_in_semester_promotion(self, student_id, section_id)</text>
</g>
</g>
</svg>
