<?xml version="1.0" encoding="UTF-8" standalone="no"?>
<!DOCTYPE svg PUBLIC "-//W3C//DTD SVG 1.1//EN"
 "http://www.w3.org/Graphics/SVG/1.1/DTD/svg11.dtd">
<!-- Generated by graphviz version 13.1.2 (20250809.0930)
 -->
<!-- Title: to_dict Pages: 1 -->
<svg width="6387pt" height="721pt"
 viewBox="0.00 0.00 6387.00 721.00" xmlns="http://www.w3.org/2000/svg" xmlns:xlink="http://www.w3.org/1999/xlink">
<g id="graph0" class="graph" transform="scale(1 1) rotate(0) translate(4 717)">
<title>to_dict</title>
<polygon fill="white" stroke="none" points="-4,4 -4,-717 6383.25,-717 6383.25,4 -4,4"/>
<!-- 107374182411 -->
<g id="node1" class="node">
<title>107374182411</title>
<polygon fill="none" stroke="black" points="5448.12,-713 5357.88,-713 5357.88,-673.5 5448.12,-673.5 5448.12,-713"/>
<text xml:space="preserve" text-anchor="start" x="5365.88" y="-695.7" font-family="Times,serif" font-size="14.00">METHOD, 256</text>
<text xml:space="preserve" text-anchor="start" x="5379.38" y="-679.95" font-family="Times,serif" font-size="14.00">to_dict</text>
</g>
<!-- 111669149711 -->
<g id="node3" class="node">
<title>111669149711</title>
<polygon fill="none" stroke="black" points="2560.75,-613.88 2477.25,-613.88 2477.25,-574.38 2560.75,-574.38 2560.75,-613.88"/>
<text xml:space="preserve" text-anchor="start" x="2485.25" y="-596.58" font-family="Times,serif" font-size="14.00">PARAM, 256</text>
<text xml:space="preserve" text-anchor="start" x="2505.5" y="-580.83" font-family="Times,serif" font-size="14.00">self</text>
</g>
<!-- 107374182411&#45;&gt;111669149711 -->
<g id="edge27" class="edge">
<title>107374182411&#45;&gt;111669149711</title>
<path fill="none" stroke="black" d="M5357.51,-692.42C5134.68,-693.04 4136.08,-693.48 3319.25,-655.5 3037.51,-642.4 2700.96,-612.27 2572.45,-600.23"/>
<polygon fill="black" stroke="black" points="2572.82,-596.75 2562.54,-599.3 2572.16,-603.72 2572.82,-596.75"/>
<text xml:space="preserve" text-anchor="middle" x="3336.12" y="-642.2" font-family="Times,serif" font-size="14.00">DDG: </text>
</g>
<!-- 141733920780 -->
<g id="node4" class="node">
<title>141733920780</title>
<polygon fill="none" stroke="black" points="3204.25,-130.75 2931.75,-130.75 2931.75,-91.25 3204.25,-91.25 3204.25,-130.75"/>
<text xml:space="preserve" text-anchor="start" x="3030.88" y="-113.45" font-family="Times,serif" font-size="14.00">RETURN, 257</text>
<text xml:space="preserve" text-anchor="start" x="2939.75" y="-97.7" font-family="Times,serif" font-size="14.00">return { &quot;student_id&quot;: self.student...</text>
</g>
<!-- 107374182411&#45;&gt;141733920780 -->
<g id="edge30" class="edge">
<title>107374182411&#45;&gt;141733920780</title>
<path fill="none" stroke="black" d="M5357.46,-692.35C5070.35,-692.67 3523,-690.01 3523,-595.12 3523,-595.12 3523,-595.12 3523,-311.5 3523,-238.51 3553.88,-199.06 3501,-148.75 3480.33,-129.09 3332.95,-119.83 3215.79,-115.55"/>
<polygon fill="black" stroke="black" points="3216.18,-112.06 3206.06,-115.2 3215.93,-119.05 3216.18,-112.06"/>
<text xml:space="preserve" text-anchor="middle" x="3539.88" y="-443.95" font-family="Times,serif" font-size="14.00">DDG: </text>
</g>
<!-- 25769803823 -->
<g id="node5" class="node">
<title>25769803823</title>
<polygon fill="none" stroke="black" points="3264.75,-332.25 2911.25,-332.25 2911.25,-292.75 3264.75,-292.75 3264.75,-332.25"/>
<text xml:space="preserve" text-anchor="start" x="3054.25" y="-314.95" font-family="Times,serif" font-size="14.00">BLOCK, 257</text>
<text xml:space="preserve" text-anchor="start" x="2919.25" y="-299.2" font-family="Times,serif" font-size="14.00">tmp16 = {} tmp16[&quot;student_id&quot;] = self.student_i...</text>
</g>
<!-- 107374182411&#45;&gt;25769803823 -->
<g id="edge38" class="edge">
<title>107374182411&#45;&gt;25769803823</title>
<path fill="none" stroke="black" d="M5357.65,-692.4C5087.42,-693.18 3694.73,-695.22 3509,-655.5 3441.94,-641.16 3367,-663.7 3367,-595.12 3367,-595.12 3367,-595.12 3367,-402.75 3367,-371.13 3301.17,-349.17 3233.47,-334.95"/>
<polygon fill="black" stroke="black" points="3234.58,-331.6 3224.08,-333.03 3233.18,-338.46 3234.58,-331.6"/>
<text xml:space="preserve" text-anchor="middle" x="3383.88" y="-489.57" font-family="Times,serif" font-size="14.00">DDG: </text>
</g>
<!-- 30064771301 -->
<g id="node6" class="node">
<title>30064771301</title>
<polygon fill="none" stroke="black" points="5595.75,-423.5 5404.25,-423.5 5404.25,-384 5595.75,-384 5595.75,-423.5"/>
<text xml:space="preserve" text-anchor="start" x="5412.25" y="-406.2" font-family="Times,serif" font-size="14.00">&lt;operator&gt;.assignment, 257</text>
<text xml:space="preserve" text-anchor="start" x="5466.25" y="-390.45" font-family="Times,serif" font-size="14.00">tmp16 = {}</text>
</g>
<!-- 107374182411&#45;&gt;30064771301 -->
<g id="edge39" class="edge">
<title>107374182411&#45;&gt;30064771301</title>
<path fill="none" stroke="black" d="M5368.69,-673.19C5350.59,-661.06 5330.08,-643.54 5320,-621.75 5309.69,-599.46 5310,-588.93 5320,-566.5 5347.46,-504.91 5411.24,-456.97 5455,-429.77"/>
<polygon fill="black" stroke="black" points="5456.82,-432.77 5463.55,-424.58 5453.18,-426.78 5456.82,-432.77"/>
<text xml:space="preserve" text-anchor="middle" x="5355.37" y="-535.2" font-family="Times,serif" font-size="14.00">DDG: </text>
</g>
<!-- 68719476984 -->
<g id="node13" class="node">
<title>68719476984</title>
<polygon fill="none" stroke="black" points="5682.75,-621.75 5329.25,-621.75 5329.25,-566.5 5682.75,-566.5 5682.75,-621.75"/>
<text xml:space="preserve" text-anchor="start" x="5455.38" y="-604.45" font-family="Times,serif" font-size="14.00">IDENTIFIER, 257</text>
<text xml:space="preserve" text-anchor="start" x="5489.12" y="-588.7" font-family="Times,serif" font-size="14.00">tmp16</text>
<text xml:space="preserve" text-anchor="start" x="5337.25" y="-572.95" font-family="Times,serif" font-size="14.00">tmp16 = {} tmp16[&quot;student_id&quot;] = self.student_i...</text>
</g>
<!-- 107374182411&#45;&gt;68719476984 -->
<g id="edge46" class="edge">
<title>107374182411&#45;&gt;68719476984</title>
<path fill="none" stroke="black" d="M5423.35,-673.06C5436.41,-660.75 5453.75,-644.4 5469.17,-629.85"/>
<polygon fill="black" stroke="black" points="5471.53,-632.44 5476.4,-623.03 5466.73,-627.35 5471.53,-632.44"/>
<text xml:space="preserve" text-anchor="middle" x="5474.46" y="-642.2" font-family="Times,serif" font-size="14.00">DDG: </text>
</g>
<!-- 68719476977 -->
<g id="node14" class="node">
<title>68719476977</title>
<polygon fill="none" stroke="black" points="5905.5,-621.75 5700.5,-621.75 5700.5,-566.5 5905.5,-566.5 5905.5,-621.75"/>
<text xml:space="preserve" text-anchor="start" x="5752.38" y="-604.45" font-family="Times,serif" font-size="14.00">IDENTIFIER, 261</text>
<text xml:space="preserve" text-anchor="start" x="5789.5" y="-588.7" font-family="Times,serif" font-size="14.00">list</text>
<text xml:space="preserve" text-anchor="start" x="5708.5" y="-572.95" font-family="Times,serif" font-size="14.00">list(self.completed_courses)</text>
</g>
<!-- 107374182411&#45;&gt;68719476977 -->
<g id="edge47" class="edge">
<title>107374182411&#45;&gt;68719476977</title>
<path fill="none" stroke="black" d="M5448.5,-681.2C5506.58,-667.1 5609.11,-642.2 5689.02,-622.8"/>
<polygon fill="black" stroke="black" points="5689.77,-626.22 5698.67,-620.46 5688.12,-619.42 5689.77,-626.22"/>
<text xml:space="preserve" text-anchor="middle" x="5631.87" y="-642.2" font-family="Times,serif" font-size="14.00">DDG: </text>
</g>
<!-- 68719476980 -->
<g id="node16" class="node">
<title>68719476980</title>
<polygon fill="none" stroke="black" points="6142.25,-621.75 5923.75,-621.75 5923.75,-566.5 6142.25,-566.5 6142.25,-621.75"/>
<text xml:space="preserve" text-anchor="start" x="5982.38" y="-604.45" font-family="Times,serif" font-size="14.00">IDENTIFIER, 262</text>
<text xml:space="preserve" text-anchor="start" x="6019.5" y="-588.7" font-family="Times,serif" font-size="14.00">list</text>
<text xml:space="preserve" text-anchor="start" x="5931.75" y="-572.95" font-family="Times,serif" font-size="14.00">list(self.current_enrollments)</text>
</g>
<!-- 107374182411&#45;&gt;68719476980 -->
<g id="edge49" class="edge">
<title>107374182411&#45;&gt;68719476980</title>
<path fill="none" stroke="black" d="M5448.31,-687.28C5535.89,-677.39 5734.65,-653.62 5912.35,-621.98"/>
<polygon fill="black" stroke="black" points="5912.77,-625.46 5922,-620.25 5911.54,-618.57 5912.77,-625.46"/>
<text xml:space="preserve" text-anchor="middle" x="5819.4" y="-642.2" font-family="Times,serif" font-size="14.00">DDG: </text>
</g>
<!-- 68719476983 -->
<g id="node18" class="node">
<title>68719476983</title>
<polygon fill="none" stroke="black" points="6379.25,-621.75 6160.75,-621.75 6160.75,-566.5 6379.25,-566.5 6379.25,-621.75"/>
<text xml:space="preserve" text-anchor="start" x="6219.38" y="-604.45" font-family="Times,serif" font-size="14.00">IDENTIFIER, 263</text>
<text xml:space="preserve" text-anchor="start" x="6256.5" y="-588.7" font-family="Times,serif" font-size="14.00">list</text>
<text xml:space="preserve" text-anchor="start" x="6168.75" y="-572.95" font-family="Times,serif" font-size="14.00">list(self.waitlisted_sections)</text>
</g>
<!-- 107374182411&#45;&gt;68719476983 -->
<g id="edge51" class="edge">
<title>107374182411&#45;&gt;68719476983</title>
<path fill="none" stroke="black" d="M5448.39,-690.19C5563.85,-684.49 5878.12,-666 6149.26,-621.95"/>
<polygon fill="black" stroke="black" points="6149.71,-625.43 6159.01,-620.35 6148.58,-618.52 6149.71,-625.43"/>
<text xml:space="preserve" text-anchor="middle" x="6046.31" y="-642.2" font-family="Times,serif" font-size="14.00">DDG: </text>
</g>
<!-- 124554051595 -->
<g id="node2" class="node">
<title>124554051595</title>
<polygon fill="none" stroke="black" points="2846.75,-39.5 2709.25,-39.5 2709.25,0 2846.75,0 2846.75,-39.5"/>
<text xml:space="preserve" text-anchor="start" x="2717.25" y="-22.2" font-family="Times,serif" font-size="14.00">METHOD_RETURN, 256</text>
<text xml:space="preserve" text-anchor="start" x="2740.88" y="-6.45" font-family="Times,serif" font-size="14.00">typing.Dict</text>
</g>
<!-- 111669149711&#45;&gt;124554051595 -->
<g id="edge2" class="edge">
<title>111669149711&#45;&gt;124554051595</title>
<path fill="none" stroke="black" d="M2477.03,-592.31C2251.13,-587.63 1190,-562.15 1190,-496 1190,-496 1190,-496 1190,-110 1190,-96.82 1261.4,-69.52 1325,-57.5 1459.66,-32.06 2412.09,-23.33 2697.42,-21.27"/>
<polygon fill="black" stroke="black" points="2697.41,-24.77 2707.38,-21.2 2697.36,-17.77 2697.41,-24.77"/>
<text xml:space="preserve" text-anchor="middle" x="1220.38" y="-352.7" font-family="Times,serif" font-size="14.00">DDG: self</text>
</g>
<!-- 30064771304 -->
<g id="node7" class="node">
<title>30064771304</title>
<polygon fill="none" stroke="black" points="1698.88,-423.5 1433.12,-423.5 1433.12,-384 1698.88,-384 1698.88,-423.5"/>
<text xml:space="preserve" text-anchor="start" x="1478.25" y="-406.2" font-family="Times,serif" font-size="14.00">&lt;operator&gt;.assignment, 257</text>
<text xml:space="preserve" text-anchor="start" x="1441.12" y="-390.45" font-family="Times,serif" font-size="14.00">tmp16[&quot;student_id&quot;] = self.student_id</text>
</g>
<!-- 111669149711&#45;&gt;30064771304 -->
<g id="edge40" class="edge">
<title>111669149711&#45;&gt;30064771304</title>
<path fill="none" stroke="black" d="M2476.82,-584.79C2336.68,-557.09 1883.64,-467.54 1674.12,-426.12"/>
<polygon fill="black" stroke="black" points="1675.08,-422.74 1664.59,-424.24 1673.72,-429.61 1675.08,-422.74"/>
<text xml:space="preserve" text-anchor="middle" x="2151.96" y="-489.57" font-family="Times,serif" font-size="14.00">DDG: self</text>
</g>
<!-- 30064771307 -->
<g id="node8" class="node">
<title>30064771307</title>
<polygon fill="none" stroke="black" points="2151.75,-423.5 1960.25,-423.5 1960.25,-384 2151.75,-384 2151.75,-423.5"/>
<text xml:space="preserve" text-anchor="start" x="1968.25" y="-406.2" font-family="Times,serif" font-size="14.00">&lt;operator&gt;.assignment, 257</text>
<text xml:space="preserve" text-anchor="start" x="1971.62" y="-390.45" font-family="Times,serif" font-size="14.00">tmp16[&quot;name&quot;] = self.name</text>
</g>
<!-- 111669149711&#45;&gt;30064771307 -->
<g id="edge41" class="edge">
<title>111669149711&#45;&gt;30064771307</title>
<path fill="none" stroke="black" d="M2477.1,-576.08C2394.04,-542.28 2208.4,-466.76 2113.81,-428.27"/>
<polygon fill="black" stroke="black" points="2115.27,-425.09 2104.69,-424.56 2112.63,-431.57 2115.27,-425.09"/>
<text xml:space="preserve" text-anchor="middle" x="2356.3" y="-489.57" font-family="Times,serif" font-size="14.00">DDG: self</text>
</g>
<!-- 30064771310 -->
<g id="node9" class="node">
<title>30064771310</title>
<polygon fill="none" stroke="black" points="2821.62,-423.5 2542.38,-423.5 2542.38,-384 2821.62,-384 2821.62,-423.5"/>
<text xml:space="preserve" text-anchor="start" x="2594.25" y="-406.2" font-family="Times,serif" font-size="14.00">&lt;operator&gt;.assignment, 257</text>
<text xml:space="preserve" text-anchor="start" x="2550.38" y="-390.45" font-family="Times,serif" font-size="14.00">tmp16[&quot;max_credits&quot;] = self.max_credits</text>
</g>
<!-- 111669149711&#45;&gt;30064771310 -->
<g id="edge42" class="edge">
<title>111669149711&#45;&gt;30064771310</title>
<path fill="none" stroke="black" d="M2535.53,-574.03C2564.45,-540.6 2624.35,-471.37 2657.9,-432.6"/>
<polygon fill="black" stroke="black" points="2660.54,-434.9 2664.44,-425.04 2655.25,-430.32 2660.54,-434.9"/>
<text xml:space="preserve" text-anchor="middle" x="2649.74" y="-489.57" font-family="Times,serif" font-size="14.00">DDG: self</text>
</g>
<!-- 30064771313 -->
<g id="node15" class="node">
<title>30064771313</title>
<polygon fill="none" stroke="black" points="3991.5,-514.75 3786.5,-514.75 3786.5,-475.25 3991.5,-475.25 3991.5,-514.75"/>
<text xml:space="preserve" text-anchor="start" x="3858.62" y="-497.45" font-family="Times,serif" font-size="14.00">list, 261</text>
<text xml:space="preserve" text-anchor="start" x="3794.5" y="-481.7" font-family="Times,serif" font-size="14.00">list(self.completed_courses)</text>
</g>
<!-- 111669149711&#45;&gt;30064771313 -->
<g id="edge48" class="edge">
<title>111669149711&#45;&gt;30064771313</title>
<path fill="none" stroke="black" d="M2561.13,-590.14C2745.88,-577.04 3488.01,-524.43 3774.95,-504.09"/>
<polygon fill="black" stroke="black" points="3774.97,-507.59 3784.69,-503.39 3774.47,-500.61 3774.97,-507.59"/>
<text xml:space="preserve" text-anchor="middle" x="3397.37" y="-535.2" font-family="Times,serif" font-size="14.00">DDG: self</text>
</g>
<!-- 30064771317 -->
<g id="node17" class="node">
<title>30064771317</title>
<polygon fill="none" stroke="black" points="4828.25,-514.75 4609.75,-514.75 4609.75,-475.25 4828.25,-475.25 4828.25,-514.75"/>
<text xml:space="preserve" text-anchor="start" x="4688.62" y="-497.45" font-family="Times,serif" font-size="14.00">list, 262</text>
<text xml:space="preserve" text-anchor="start" x="4617.75" y="-481.7" font-family="Times,serif" font-size="14.00">list(self.current_enrollments)</text>
</g>
<!-- 111669149711&#45;&gt;30064771317 -->
<g id="edge50" class="edge">
<title>111669149711&#45;&gt;30064771317</title>
<path fill="none" stroke="black" d="M2560.98,-591.27C2817.95,-579.93 4181.12,-519.75 4597.87,-501.35"/>
<polygon fill="black" stroke="black" points="4597.98,-504.85 4607.81,-500.91 4597.67,-497.85 4597.98,-504.85"/>
<text xml:space="preserve" text-anchor="middle" x="3911.12" y="-535.2" font-family="Times,serif" font-size="14.00">DDG: self</text>
</g>
<!-- 30064771321 -->
<g id="node19" class="node">
<title>30064771321</title>
<polygon fill="none" stroke="black" points="708.25,-514.75 489.75,-514.75 489.75,-475.25 708.25,-475.25 708.25,-514.75"/>
<text xml:space="preserve" text-anchor="start" x="568.62" y="-497.45" font-family="Times,serif" font-size="14.00">list, 263</text>
<text xml:space="preserve" text-anchor="start" x="497.75" y="-481.7" font-family="Times,serif" font-size="14.00">list(self.waitlisted_sections)</text>
</g>
<!-- 111669149711&#45;&gt;30064771321 -->
<g id="edge52" class="edge">
<title>111669149711&#45;&gt;30064771321</title>
<path fill="none" stroke="black" d="M2477.03,-592.86C2306.94,-591.54 1652.31,-584.3 1115.25,-548.5 979.52,-539.45 824.3,-522.81 719.8,-510.68"/>
<polygon fill="black" stroke="black" points="720.43,-507.23 710.09,-509.55 719.62,-514.19 720.43,-507.23"/>
<text xml:space="preserve" text-anchor="middle" x="1145.62" y="-535.2" font-family="Times,serif" font-size="14.00">DDG: self</text>
</g>
<!-- 141733920780&#45;&gt;124554051595 -->
<g id="edge1" class="edge">
<title>141733920780&#45;&gt;124554051595</title>
<path fill="none" stroke="black" d="M3005.79,-90.85C2960.39,-76.88 2898.72,-57.9 2850.99,-43.21"/>
<polygon fill="black" stroke="black" points="2852.14,-39.91 2841.56,-40.31 2850.08,-46.6 2852.14,-39.91"/>
<text xml:space="preserve" text-anchor="middle" x="2974.11" y="-59.95" font-family="Times,serif" font-size="14.00">DDG: &lt;RET&gt;</text>
</g>
<!-- 25769803823&#45;&gt;141733920780 -->
<g id="edge28" class="edge">
<title>25769803823&#45;&gt;141733920780</title>
<path fill="none" stroke="black" d="M3054.61,-292.31C3048.81,-287.37 3043.58,-281.51 3040.25,-274.75 3015.52,-224.51 3022.45,-201.85 3040.25,-148.75 3041.16,-146.03 3042.36,-143.35 3043.75,-140.76"/>
<polygon fill="black" stroke="black" points="3046.59,-142.82 3049.04,-132.51 3040.69,-139.04 3046.59,-142.82"/>
<text xml:space="preserve" text-anchor="middle" x="3057.12" y="-206.32" font-family="Times,serif" font-size="14.00">DDG: </text>
</g>
<!-- 25769803823&#45;&gt;141733920780 -->
<g id="edge29" class="edge">
<title>25769803823&#45;&gt;141733920780</title>
<path fill="none" stroke="black" d="M3086.83,-292.41C3084.86,-261.95 3080.44,-200.53 3074,-148.75 3073.74,-146.68 3073.45,-144.54 3073.15,-142.39"/>
<polygon fill="black" stroke="black" points="3076.61,-141.88 3071.62,-132.53 3069.69,-142.95 3076.61,-141.88"/>
<text xml:space="preserve" text-anchor="middle" x="3291.29" y="-261.45" font-family="Times,serif" font-size="14.00">DDG: tmp16 = {}</text>
<text xml:space="preserve" text-anchor="middle" x="3291.29" y="-245.7" font-family="Times,serif" font-size="14.00">tmp16[&quot;student_id&quot;] = self.student_id</text>
<text xml:space="preserve" text-anchor="middle" x="3291.29" y="-229.95" font-family="Times,serif" font-size="14.00">tmp16[&quot;name&quot;] = self.name</text>
<text xml:space="preserve" text-anchor="middle" x="3291.29" y="-214.2" font-family="Times,serif" font-size="14.00">tmp16[&quot;max_credits&quot;] = self.max_credits</text>
<text xml:space="preserve" text-anchor="middle" x="3291.29" y="-198.45" font-family="Times,serif" font-size="14.00">tmp16[&quot;completed_courses&quot;] = list(self.completed_courses)</text>
<text xml:space="preserve" text-anchor="middle" x="3291.29" y="-182.7" font-family="Times,serif" font-size="14.00">tmp16[&quot;current_enrollments&quot;] = list(self.current_enrollments)</text>
<text xml:space="preserve" text-anchor="middle" x="3291.29" y="-166.95" font-family="Times,serif" font-size="14.00">tmp16[&quot;waitlisted_sections&quot;] = list(self.waitlisted_sections)</text>
<text xml:space="preserve" text-anchor="middle" x="3291.29" y="-151.2" font-family="Times,serif" font-size="14.00">tmp16</text>
</g>
<!-- 30064771301&#45;&gt;124554051595 -->
<g id="edge3" class="edge">
<title>30064771301&#45;&gt;124554051595</title>
<path fill="none" stroke="black" d="M5522.29,-383.75C5547.24,-360.85 5586.24,-319.81 5602,-274.75 5636.39,-176.41 5609.61,-98.88 5514,-57.5 5451.49,-30.45 3303.98,-22.37 2858.43,-20.98"/>
<polygon fill="black" stroke="black" points="2858.51,-17.48 2848.5,-20.95 2858.49,-24.48 2858.51,-17.48"/>
<text xml:space="preserve" text-anchor="middle" x="5650.08" y="-206.32" font-family="Times,serif" font-size="14.00">DDG: tmp16</text>
</g>
<!-- 30064771301&#45;&gt;124554051595 -->
<g id="edge4" class="edge">
<title>30064771301&#45;&gt;124554051595</title>
<path fill="none" stroke="black" d="M5553.03,-383.58C5598.34,-364 5660.44,-328.73 5688,-274.75 5713.46,-224.87 5714.78,-197.93 5688,-148.75 5651.59,-81.88 5616.22,-78.38 5543,-57.5 5410.76,-19.78 3299.74,-20.14 2858.47,-20.63"/>
<polygon fill="black" stroke="black" points="2858.64,-17.13 2848.64,-20.64 2858.65,-24.13 2858.64,-17.13"/>
<text xml:space="preserve" text-anchor="middle" x="5731.22" y="-206.32" font-family="Times,serif" font-size="14.00">DDG: {}</text>
</g>
<!-- 30064771301&#45;&gt;124554051595 -->
<g id="edge5" class="edge">
<title>30064771301&#45;&gt;124554051595</title>
<path fill="none" stroke="black" d="M5499.39,-383.91C5497.02,-313.43 5487.95,-68.8 5476,-57.5 5451.6,-34.43 3304.42,-23.19 2858.52,-21.11"/>
<polygon fill="black" stroke="black" points="2858.6,-17.61 2848.58,-21.06 2858.56,-24.61 2858.6,-17.61"/>
<text xml:space="preserve" text-anchor="middle" x="5545.7" y="-206.32" font-family="Times,serif" font-size="14.00">DDG: tmp16 = {}</text>
</g>
<!-- 30064771301&#45;&gt;25769803823 -->
<g id="edge31" class="edge">
<title>30064771301&#45;&gt;25769803823</title>
<path fill="none" stroke="black" d="M5404.1,-398.35C5195.51,-388.85 4684.91,-366.01 4257,-350.25 3910.87,-337.5 3506.98,-325.42 3275.98,-318.79"/>
<polygon fill="black" stroke="black" points="3276.39,-315.3 3266.29,-318.51 3276.18,-322.29 3276.39,-315.3"/>
<text xml:space="preserve" text-anchor="middle" x="4666.64" y="-352.7" font-family="Times,serif" font-size="14.00">DDG: tmp16</text>
</g>
<!-- 30064771304&#45;&gt;124554051595 -->
<g id="edge6" class="edge">
<title>30064771304&#45;&gt;124554051595</title>
<path fill="none" stroke="black" d="M1432.81,-392.22C1356.21,-378.23 1266.88,-346.43 1224,-274.75 1195.25,-226.69 1195.25,-196.81 1224,-148.75 1268.02,-75.16 1311.12,-79.51 1394,-57.5 1519.67,-24.13 2421.62,-20.91 2697.82,-20.72"/>
<polygon fill="black" stroke="black" points="2697.43,-24.22 2707.43,-20.71 2697.43,-17.22 2697.43,-24.22"/>
<text xml:space="preserve" text-anchor="middle" x="1305" y="-206.32" font-family="Times,serif" font-size="14.00">DDG: tmp16[&quot;student_id&quot;]</text>
</g>
<!-- 30064771304&#45;&gt;124554051595 -->
<g id="edge7" class="edge">
<title>30064771304&#45;&gt;124554051595</title>
<path fill="none" stroke="black" d="M1526.51,-383.69C1488.43,-362.87 1433.14,-325.58 1409,-274.75 1384.98,-224.17 1382.08,-197.86 1409,-148.75 1445.24,-82.64 1479.95,-79.71 1552,-57.5 1660.73,-23.99 2442.36,-20.82 2697.6,-20.68"/>
<polygon fill="black" stroke="black" points="2697.48,-24.18 2707.48,-20.68 2697.48,-17.18 2697.48,-24.18"/>
<text xml:space="preserve" text-anchor="middle" x="1476.5" y="-206.32" font-family="Times,serif" font-size="14.00">DDG: self.student_id</text>
</g>
<!-- 30064771304&#45;&gt;124554051595 -->
<g id="edge8" class="edge">
<title>30064771304&#45;&gt;124554051595</title>
<path fill="none" stroke="black" d="M1563.23,-383.85C1555.95,-331.28 1538.78,-184.78 1567.5,-148.75 1678.06,-10.06 1780.31,-81.84 1956,-57.5 2097.49,-37.89 2519.55,-26.49 2697.48,-22.44"/>
<polygon fill="black" stroke="black" points="2697.41,-25.95 2707.33,-22.22 2697.25,-18.95 2697.41,-25.95"/>
<text xml:space="preserve" text-anchor="middle" x="1709.25" y="-206.32" font-family="Times,serif" font-size="14.00">DDG: tmp16[&quot;student_id&quot;] = self.student_id</text>
</g>
<!-- 30064771304&#45;&gt;25769803823 -->
<g id="edge32" class="edge">
<title>30064771304&#45;&gt;25769803823</title>
<path fill="none" stroke="black" d="M1699.36,-396.25C1913.94,-385.79 2312.12,-366.34 2313,-366 2323.22,-362.03 2321.78,-354.22 2332,-350.25 2383.46,-330.27 2693.08,-320.69 2899.78,-316.46"/>
<polygon fill="black" stroke="black" points="2899.64,-319.96 2909.57,-316.26 2899.5,-312.96 2899.64,-319.96"/>
<text xml:space="preserve" text-anchor="middle" x="2413" y="-352.7" font-family="Times,serif" font-size="14.00">DDG: tmp16[&quot;student_id&quot;]</text>
</g>
<!-- 30064771307&#45;&gt;124554051595 -->
<g id="edge9" class="edge">
<title>30064771307&#45;&gt;124554051595</title>
<path fill="none" stroke="black" d="M2006.8,-383.67C1963.13,-363.77 1902.1,-327.98 1874.5,-274.75 1848.73,-225.03 1848.72,-198.46 1874.5,-148.75 1906.92,-86.25 1937.4,-80.36 2004,-57.5 2068.22,-35.46 2512.57,-25.32 2697.51,-22.03"/>
<polygon fill="black" stroke="black" points="2697.33,-25.53 2707.27,-21.86 2697.21,-18.53 2697.33,-25.53"/>
<text xml:space="preserve" text-anchor="middle" x="1935.25" y="-206.32" font-family="Times,serif" font-size="14.00">DDG: tmp16[&quot;name&quot;]</text>
</g>
<!-- 30064771307&#45;&gt;124554051595 -->
<g id="edge10" class="edge">
<title>30064771307&#45;&gt;124554051595</title>
<path fill="none" stroke="black" d="M2046.44,-383.6C2026.04,-339.89 1982.94,-230.25 2019.5,-148.75 2044.46,-93.1 2065.63,-80.78 2122,-57.5 2173.9,-36.07 2534.03,-25.86 2697.55,-22.29"/>
<polygon fill="black" stroke="black" points="2697.54,-25.8 2707.47,-22.08 2697.39,-18.8 2697.54,-25.8"/>
<text xml:space="preserve" text-anchor="middle" x="2066.75" y="-206.32" font-family="Times,serif" font-size="14.00">DDG: self.name</text>
</g>
<!-- 30064771307&#45;&gt;124554051595 -->
<g id="edge11" class="edge">
<title>30064771307&#45;&gt;124554051595</title>
<path fill="none" stroke="black" d="M2059.75,-383.88C2062.08,-373.71 2065.51,-361.05 2070,-350.25 2084.91,-314.39 2100.88,-311.31 2114,-274.75 2133.16,-221.35 2095.8,-190.24 2134.5,-148.75 2210.07,-67.75 2542.29,-35.94 2697.53,-25.34"/>
<polygon fill="black" stroke="black" points="2697.59,-28.84 2707.34,-24.68 2697.12,-21.86 2697.59,-28.84"/>
<text xml:space="preserve" text-anchor="middle" x="2235.75" y="-206.32" font-family="Times,serif" font-size="14.00">DDG: tmp16[&quot;name&quot;] = self.name</text>
</g>
<!-- 30064771307&#45;&gt;25769803823 -->
<g id="edge33" class="edge">
<title>30064771307&#45;&gt;25769803823</title>
<path fill="none" stroke="black" d="M2152.15,-394.92C2241.7,-387.58 2378.9,-376.25 2498,-366 2632.23,-354.45 2783.6,-340.97 2899.4,-330.56"/>
<polygon fill="black" stroke="black" points="2899.7,-334.05 2909.34,-329.67 2899.07,-327.08 2899.7,-334.05"/>
<text xml:space="preserve" text-anchor="middle" x="2737.17" y="-352.7" font-family="Times,serif" font-size="14.00">DDG: tmp16[&quot;name&quot;]</text>
</g>
<!-- 30064771310&#45;&gt;124554051595 -->
<g id="edge12" class="edge">
<title>30064771310&#45;&gt;124554051595</title>
<path fill="none" stroke="black" d="M2678.16,-383.62C2670.31,-340.39 2655.42,-232.44 2683.25,-148.75 2696.38,-109.26 2726.83,-71.96 2749.69,-47.92"/>
<polygon fill="black" stroke="black" points="2752.18,-50.38 2756.66,-40.77 2747.17,-45.49 2752.18,-50.38"/>
<text xml:space="preserve" text-anchor="middle" x="2767.62" y="-206.32" font-family="Times,serif" font-size="14.00">DDG: tmp16[&quot;max_credits&quot;]</text>
</g>
<!-- 30064771310&#45;&gt;124554051595 -->
<g id="edge13" class="edge">
<title>30064771310&#45;&gt;124554051595</title>
<path fill="none" stroke="black" d="M2726.6,-383.61C2767.67,-363.27 2826.03,-326.82 2852,-274.75 2877,-224.64 2866.51,-202.84 2852,-148.75 2841.96,-111.32 2818.03,-73.53 2800.08,-48.81"/>
<polygon fill="black" stroke="black" points="2802.98,-46.84 2794.2,-40.91 2797.36,-51.02 2802.98,-46.84"/>
<text xml:space="preserve" text-anchor="middle" x="2937.94" y="-206.32" font-family="Times,serif" font-size="14.00">DDG: self.max_credits</text>
</g>
<!-- 30064771310&#45;&gt;124554051595 -->
<g id="edge14" class="edge">
<title>30064771310&#45;&gt;124554051595</title>
<path fill="none" stroke="black" d="M2672.13,-383.68C2665.36,-372.39 2655.38,-358.7 2643,-350.25 2537.61,-278.31 2443.46,-376.15 2366,-274.75 2332,-230.25 2332.79,-193.84 2366,-148.75 2405.57,-95.02 2589.67,-54.07 2697.93,-34.14"/>
<polygon fill="black" stroke="black" points="2698.42,-37.61 2707.64,-32.38 2697.17,-30.72 2698.42,-37.61"/>
<text xml:space="preserve" text-anchor="middle" x="2514.5" y="-206.32" font-family="Times,serif" font-size="14.00">DDG: tmp16[&quot;max_credits&quot;] = self.max_credits</text>
</g>
<!-- 30064771310&#45;&gt;25769803823 -->
<g id="edge34" class="edge">
<title>30064771310&#45;&gt;25769803823</title>
<path fill="none" stroke="black" d="M2799.16,-383.53C2828.28,-378.29 2859.35,-372.31 2888,-366 2928.37,-357.12 2972.88,-345.6 3009.64,-335.62"/>
<polygon fill="black" stroke="black" points="3010.1,-339.13 3018.83,-333.12 3008.26,-332.37 3010.1,-339.13"/>
<text xml:space="preserve" text-anchor="middle" x="3033.2" y="-352.7" font-family="Times,serif" font-size="14.00">DDG: tmp16[&quot;max_credits&quot;]</text>
</g>
<!-- 30064771314 -->
<g id="node10" class="node">
<title>30064771314</title>
<polygon fill="none" stroke="black" points="4065.75,-423.5 3712.25,-423.5 3712.25,-384 4065.75,-384 4065.75,-423.5"/>
<text xml:space="preserve" text-anchor="start" x="3801.25" y="-406.2" font-family="Times,serif" font-size="14.00">&lt;operator&gt;.assignment, 257</text>
<text xml:space="preserve" text-anchor="start" x="3720.25" y="-390.45" font-family="Times,serif" font-size="14.00">tmp16[&quot;completed_courses&quot;] = list(self.complete...</text>
</g>
<!-- 30064771314&#45;&gt;124554051595 -->
<g id="edge15" class="edge">
<title>30064771314&#45;&gt;124554051595</title>
<path fill="none" stroke="black" d="M3906.54,-383.76C3946.21,-338.48 4034.97,-222.45 3976,-148.75 3860.45,-4.35 3753.29,-82.16 3570,-57.5 3311.66,-22.75 3002.14,-19.3 2858.52,-19.86"/>
<polygon fill="black" stroke="black" points="2858.72,-16.36 2848.74,-19.91 2858.75,-23.36 2858.72,-16.36"/>
<text xml:space="preserve" text-anchor="middle" x="4100.28" y="-206.32" font-family="Times,serif" font-size="14.00">DDG: tmp16[&quot;completed_courses&quot;]</text>
</g>
<!-- 30064771314&#45;&gt;124554051595 -->
<g id="edge17" class="edge">
<title>30064771314&#45;&gt;124554051595</title>
<path fill="none" stroke="black" d="M4027.42,-383.51C4093.77,-366.56 4167.47,-334.69 4208,-274.75 4223.69,-251.56 4225.49,-170.62 4208,-148.75 4123.23,-42.73 3147.27,-24.46 2858.2,-21.37"/>
<polygon fill="black" stroke="black" points="2858.53,-17.87 2848.5,-21.27 2858.46,-24.87 2858.53,-17.87"/>
<text xml:space="preserve" text-anchor="middle" x="4331.82" y="-206.32" font-family="Times,serif" font-size="14.00">DDG: list(self.completed_courses)</text>
</g>
<!-- 30064771314&#45;&gt;124554051595 -->
<g id="edge18" class="edge">
<title>30064771314&#45;&gt;124554051595</title>
<path fill="none" stroke="black" d="M3845.72,-383.5C3822.27,-373.27 3792.71,-360.68 3766,-350.25 3672.64,-313.78 3617.41,-351.96 3553.5,-274.75 3517.36,-231.1 3573.59,-189.29 3534,-148.75 3369.45,19.75 3244.47,-95.27 3012,-57.5 2960.92,-49.2 2903.52,-40.18 2858.35,-33.15"/>
<polygon fill="black" stroke="black" points="2859.06,-29.72 2848.64,-31.65 2857.98,-36.64 2859.06,-29.72"/>
<text xml:space="preserve" text-anchor="middle" x="3762.75" y="-206.32" font-family="Times,serif" font-size="14.00">DDG: tmp16[&quot;completed_courses&quot;] = list(self.completed_courses)</text>
</g>
<!-- 30064771314&#45;&gt;25769803823 -->
<g id="edge35" class="edge">
<title>30064771314&#45;&gt;25769803823</title>
<path fill="none" stroke="black" d="M3714.84,-383.53C3663.88,-377.9 3608.08,-371.71 3556.75,-366 3462.31,-355.49 3357.18,-343.72 3270.45,-333.99"/>
<polygon fill="black" stroke="black" points="3270.98,-330.53 3260.65,-332.89 3270.2,-337.49 3270.98,-330.53"/>
<text xml:space="preserve" text-anchor="middle" x="3661.38" y="-352.7" font-family="Times,serif" font-size="14.00">DDG: tmp16[&quot;completed_courses&quot;]</text>
</g>
<!-- 30064771318 -->
<g id="node11" class="node">
<title>30064771318</title>
<polygon fill="none" stroke="black" points="4895.75,-423.5 4542.25,-423.5 4542.25,-384 4895.75,-384 4895.75,-423.5"/>
<text xml:space="preserve" text-anchor="start" x="4631.25" y="-406.2" font-family="Times,serif" font-size="14.00">&lt;operator&gt;.assignment, 257</text>
<text xml:space="preserve" text-anchor="start" x="4550.25" y="-390.45" font-family="Times,serif" font-size="14.00">tmp16[&quot;current_enrollments&quot;] = list(self.curren...</text>
</g>
<!-- 30064771318&#45;&gt;124554051595 -->
<g id="edge19" class="edge">
<title>30064771318&#45;&gt;124554051595</title>
<path fill="none" stroke="black" d="M4869.44,-383.51C4997.03,-363.74 5165.74,-328.23 5207,-274.75 5224.1,-252.58 5224.64,-170.49 5207,-148.75 5083.1,3.98 4969.42,-79.69 4774,-57.5 4581.88,-35.69 3208.05,-23.98 2858.66,-21.33"/>
<polygon fill="black" stroke="black" points="2858.69,-17.83 2848.67,-21.26 2858.64,-24.83 2858.69,-17.83"/>
<text xml:space="preserve" text-anchor="middle" x="5331.4" y="-206.32" font-family="Times,serif" font-size="14.00">DDG: tmp16[&quot;current_enrollments&quot;]</text>
</g>
<!-- 30064771318&#45;&gt;124554051595 -->
<g id="edge21" class="edge">
<title>30064771318&#45;&gt;124554051595</title>
<path fill="none" stroke="black" d="M4713.65,-383.91C4705.38,-358.56 4686.9,-314.18 4654,-292.75 4625.45,-274.15 4525.79,-298.89 4501.75,-274.75 4433.18,-205.89 4548.8,-122.99 4477,-57.5 4446.77,-29.92 3192.08,-22.54 2858.66,-21.06"/>
<polygon fill="black" stroke="black" points="2858.72,-17.56 2848.7,-21.02 2858.69,-24.56 2858.72,-17.56"/>
<text xml:space="preserve" text-anchor="middle" x="4619.88" y="-206.32" font-family="Times,serif" font-size="14.00">DDG: list(self.current_enrollments)</text>
</g>
<!-- 30064771318&#45;&gt;124554051595 -->
<g id="edge22" class="edge">
<title>30064771318&#45;&gt;124554051595</title>
<path fill="none" stroke="black" d="M4723.42,-383.68C4735.11,-331.32 4764.17,-186.7 4738,-148.75 4673.21,-54.81 4610.01,-79.31 4498,-57.5 4336.37,-26.02 3176.87,-21.51 2858.62,-20.86"/>
<polygon fill="black" stroke="black" points="2858.73,-17.36 2848.73,-20.84 2858.72,-24.36 2858.73,-17.36"/>
<text xml:space="preserve" text-anchor="middle" x="4971.36" y="-206.32" font-family="Times,serif" font-size="14.00">DDG: tmp16[&quot;current_enrollments&quot;] = list(self.current_enrollments)</text>
</g>
<!-- 30064771318&#45;&gt;25769803823 -->
<g id="edge36" class="edge">
<title>30064771318&#45;&gt;25769803823</title>
<path fill="none" stroke="black" d="M4541.91,-392.88C4351.3,-382.27 4039.18,-364.95 3770,-350.25 3603.16,-341.14 3413.35,-330.92 3276.42,-323.58"/>
<polygon fill="black" stroke="black" points="3276.68,-320.09 3266.51,-323.05 3276.3,-327.08 3276.68,-320.09"/>
<text xml:space="preserve" text-anchor="middle" x="4142.04" y="-352.7" font-family="Times,serif" font-size="14.00">DDG: tmp16[&quot;current_enrollments&quot;]</text>
</g>
<!-- 30064771322 -->
<g id="node12" class="node">
<title>30064771322</title>
<polygon fill="none" stroke="black" points="775.75,-423.5 422.25,-423.5 422.25,-384 775.75,-384 775.75,-423.5"/>
<text xml:space="preserve" text-anchor="start" x="511.25" y="-406.2" font-family="Times,serif" font-size="14.00">&lt;operator&gt;.assignment, 257</text>
<text xml:space="preserve" text-anchor="start" x="430.25" y="-390.45" font-family="Times,serif" font-size="14.00">tmp16[&quot;waitlisted_sections&quot;] = list(self.waitli...</text>
</g>
<!-- 30064771322&#45;&gt;124554051595 -->
<g id="edge23" class="edge">
<title>30064771322&#45;&gt;124554051595</title>
<path fill="none" stroke="black" d="M422.17,-387.97C348.14,-371.86 269.21,-339.41 225.25,-274.75 193.76,-228.44 193.76,-195.06 225.25,-148.75 287.26,-57.55 347.83,-79 456,-57.5 568,-35.24 2300.68,-23.6 2697.48,-21.21"/>
<polygon fill="black" stroke="black" points="2697.33,-24.71 2707.31,-21.15 2697.29,-17.71 2697.33,-24.71"/>
<text xml:space="preserve" text-anchor="middle" x="336.62" y="-206.32" font-family="Times,serif" font-size="14.00">DDG: tmp16[&quot;waitlisted_sections&quot;]</text>
</g>
<!-- 30064771322&#45;&gt;124554051595 -->
<g id="edge25" class="edge">
<title>30064771322&#45;&gt;124554051595</title>
<path fill="none" stroke="black" d="M568.87,-383.5C537.59,-361.53 490.52,-322.4 470.75,-274.75 449.29,-223.02 438.82,-194.76 470.75,-148.75 536.82,-53.54 601.15,-79.12 715,-57.5 911.87,-20.11 2340.74,-20.01 2697.47,-20.57"/>
<polygon fill="black" stroke="black" points="2697.44,-24.07 2707.44,-20.59 2697.45,-17.07 2697.44,-24.07"/>
<text xml:space="preserve" text-anchor="middle" x="588.88" y="-206.32" font-family="Times,serif" font-size="14.00">DDG: list(self.waitlisted_sections)</text>
</g>
<!-- 30064771322&#45;&gt;124554051595 -->
<g id="edge26" class="edge">
<title>30064771322&#45;&gt;124554051595</title>
<path fill="none" stroke="black" d="M620.65,-383.83C645.63,-360.71 685.95,-319.15 707,-274.75 731.4,-223.27 690.58,-189.38 730.5,-148.75 872.15,-4.58 975.17,-80.19 1176,-57.5 1475.59,-23.66 2416.25,-20.78 2697.68,-20.69"/>
<polygon fill="black" stroke="black" points="2697.49,-24.19 2707.49,-20.69 2697.49,-17.19 2697.49,-24.19"/>
<text xml:space="preserve" text-anchor="middle" x="953.25" y="-206.32" font-family="Times,serif" font-size="14.00">DDG: tmp16[&quot;waitlisted_sections&quot;] = list(self.waitlisted_sections)</text>
</g>
<!-- 30064771322&#45;&gt;25769803823 -->
<g id="edge37" class="edge">
<title>30064771322&#45;&gt;25769803823</title>
<path fill="none" stroke="black" d="M776.01,-396.4C1230.17,-380.12 2433.69,-336.96 2899.85,-320.25"/>
<polygon fill="black" stroke="black" points="2899.68,-323.75 2909.55,-319.9 2899.43,-316.76 2899.68,-323.75"/>
<text xml:space="preserve" text-anchor="middle" x="2103.9" y="-352.7" font-family="Times,serif" font-size="14.00">DDG: tmp16[&quot;waitlisted_sections&quot;]</text>
</g>
<!-- 30064771313&#45;&gt;124554051595 -->
<g id="edge16" class="edge">
<title>30064771313&#45;&gt;124554051595</title>
<path fill="none" stroke="black" d="M3991.62,-478.69C4019.08,-473.26 4048.49,-466.2 4075,-457.25 4278.51,-388.55 4584.84,-313.48 4447,-148.75 4344.1,-25.77 3178.06,-19.7 2858.54,-20.37"/>
<polygon fill="black" stroke="black" points="2858.59,-16.87 2848.6,-20.39 2858.61,-23.87 2858.59,-16.87"/>
<text xml:space="preserve" text-anchor="middle" x="4542.13" y="-307.07" font-family="Times,serif" font-size="14.00">DDG: self.completed_courses</text>
</g>
<!-- 30064771313&#45;&gt;30064771314 -->
<g id="edge43" class="edge">
<title>30064771313&#45;&gt;30064771314</title>
<path fill="none" stroke="black" d="M3889,-475.07C3889,-463.55 3889,-448.57 3889,-435.4"/>
<polygon fill="black" stroke="black" points="3892.5,-435.47 3889,-425.47 3885.5,-435.47 3892.5,-435.47"/>
<text xml:space="preserve" text-anchor="middle" x="3980.12" y="-443.95" font-family="Times,serif" font-size="14.00">DDG: self.completed_courses</text>
</g>
<!-- 30064771317&#45;&gt;124554051595 -->
<g id="edge20" class="edge">
<title>30064771317&#45;&gt;124554051595</title>
<path fill="none" stroke="black" d="M4828.56,-478.54C4858.24,-473.1 4890.13,-466.07 4919,-457.25 5093.93,-403.81 5119.72,-340.66 5296.25,-292.75 5328.81,-283.91 5424.6,-299.98 5447,-274.75 5484.18,-232.87 5482.13,-192.36 5447,-148.75 5308.3,23.41 5178.33,-75.8 4958,-57.5 4538.27,-22.64 3200.96,-20.62 2858.5,-20.68"/>
<polygon fill="black" stroke="black" points="2858.73,-17.18 2848.73,-20.69 2858.73,-24.18 2858.73,-17.18"/>
<text xml:space="preserve" text-anchor="middle" x="5394.12" y="-307.07" font-family="Times,serif" font-size="14.00">DDG: self.current_enrollments</text>
</g>
<!-- 30064771317&#45;&gt;30064771318 -->
<g id="edge44" class="edge">
<title>30064771317&#45;&gt;30064771318</title>
<path fill="none" stroke="black" d="M4719,-475.07C4719,-463.55 4719,-448.57 4719,-435.4"/>
<polygon fill="black" stroke="black" points="4722.5,-435.47 4719,-425.47 4715.5,-435.47 4722.5,-435.47"/>
<text xml:space="preserve" text-anchor="middle" x="4816.88" y="-443.95" font-family="Times,serif" font-size="14.00">DDG: self.current_enrollments</text>
</g>
<!-- 30064771321&#45;&gt;124554051595 -->
<g id="edge24" class="edge">
<title>30064771321&#45;&gt;124554051595</title>
<path fill="none" stroke="black" d="M489.48,-488.62C316.63,-478.64 0,-453.67 0,-404.75 0,-404.75 0,-404.75 0,-110 0,42.02 186.52,-70.34 338,-57.5 811.84,-17.33 2331,-19.35 2697.75,-20.46"/>
<polygon fill="black" stroke="black" points="2697.51,-23.96 2707.52,-20.49 2697.53,-16.96 2697.51,-23.96"/>
<text xml:space="preserve" text-anchor="middle" x="97.88" y="-307.07" font-family="Times,serif" font-size="14.00">DDG: self.waitlisted_sections</text>
</g>
<!-- 30064771321&#45;&gt;30064771322 -->
<g id="edge45" class="edge">
<title>30064771321&#45;&gt;30064771322</title>
<path fill="none" stroke="black" d="M599,-475.07C599,-463.55 599,-448.57 599,-435.4"/>
<polygon fill="black" stroke="black" points="602.5,-435.47 599,-425.47 595.5,-435.47 602.5,-435.47"/>
<text xml:space="preserve" text-anchor="middle" x="696.88" y="-443.95" font-family="Times,serif" font-size="14.00">DDG: self.waitlisted_sections</text>
</g>
</g>
</svg>
