<?xml version="1.0" encoding="UTF-8" standalone="no"?>
<!DOCTYPE svg PUBLIC "-//W3C//DTD SVG 1.1//EN"
 "http://www.w3.org/Graphics/SVG/1.1/DTD/svg11.dtd">
<!-- Generated by graphviz version 13.1.2 (20250809.0930)
 -->
<!-- Title: check_prerequisites&lt;metaClassAdapter&gt; Pages: 1 -->
<svg width="1236pt" height="436pt"
 viewBox="0.00 0.00 1236.00 436.00" xmlns="http://www.w3.org/2000/svg" xmlns:xlink="http://www.w3.org/1999/xlink">
<g id="graph0" class="graph" transform="scale(1 1) rotate(0) translate(4 432.25)">
<title>check_prerequisites&lt;metaClassAdapter&gt;</title>
<polygon fill="white" stroke="none" points="-4,4 -4,-432.25 1231.5,-432.25 1231.5,4 -4,4"/>
<!-- 107374182510 -->
<g id="node1" class="node">
<title>107374182510</title>
<polygon fill="none" stroke="black" points="364.62,-428.25 98.88,-428.25 98.88,-388.75 364.62,-388.75 364.62,-428.25"/>
<text xml:space="preserve" text-anchor="start" x="194.62" y="-410.95" font-family="Times,serif" font-size="14.00">METHOD, 581</text>
<text xml:space="preserve" text-anchor="start" x="106.88" y="-395.2" font-family="Times,serif" font-size="14.00">check_prerequisites&lt;metaClassAdapter&gt;</text>
</g>
<!-- 111669149901 -->
<g id="node3" class="node">
<title>111669149901</title>
<polygon fill="none" stroke="black" points="83.5,-279.5 0,-279.5 0,-240 83.5,-240 83.5,-279.5"/>
<text xml:space="preserve" text-anchor="start" x="8" y="-262.2" font-family="Times,serif" font-size="14.00">PARAM, 581</text>
<text xml:space="preserve" text-anchor="start" x="31.62" y="-246.45" font-family="Times,serif" font-size="14.00">cls</text>
</g>
<!-- 107374182510&#45;&gt;111669149901 -->
<g id="edge7" class="edge">
<title>107374182510&#45;&gt;111669149901</title>
<path fill="none" stroke="black" d="M161.76,-388.31C132.83,-377.34 100.95,-360.89 78.75,-337 66.42,-323.73 57.39,-305.59 51.34,-290.33"/>
<polygon fill="black" stroke="black" points="54.74,-289.42 47.98,-281.26 48.17,-291.85 54.74,-289.42"/>
<text xml:space="preserve" text-anchor="middle" x="139.6" y="-357.45" font-family="Times,serif" font-size="14.00">DDG: </text>
</g>
<!-- 111669149902 -->
<g id="node4" class="node">
<title>111669149902</title>
<polygon fill="none" stroke="black" points="171.5,-337 88,-337 88,-297.5 171.5,-297.5 171.5,-337"/>
<text xml:space="preserve" text-anchor="start" x="96" y="-319.7" font-family="Times,serif" font-size="14.00">PARAM, 581</text>
<text xml:space="preserve" text-anchor="start" x="116.25" y="-303.95" font-family="Times,serif" font-size="14.00">self</text>
</g>
<!-- 107374182510&#45;&gt;111669149902 -->
<g id="edge8" class="edge">
<title>107374182510&#45;&gt;111669149902</title>
<path fill="none" stroke="black" d="M209.87,-388.35C195.35,-375.65 176.09,-358.8 160.1,-344.8"/>
<polygon fill="black" stroke="black" points="162.56,-342.31 152.73,-338.36 157.96,-347.58 162.56,-342.31"/>
<text xml:space="preserve" text-anchor="middle" x="203.73" y="-357.45" font-family="Times,serif" font-size="14.00">DDG: </text>
</g>
<!-- 111669149903 -->
<g id="node5" class="node">
<title>111669149903</title>
<polygon fill="none" stroke="black" points="273.5,-337 190,-337 190,-297.5 273.5,-297.5 273.5,-337"/>
<text xml:space="preserve" text-anchor="start" x="198" y="-319.7" font-family="Times,serif" font-size="14.00">PARAM, 581</text>
<text xml:space="preserve" text-anchor="start" x="198" y="-303.95" font-family="Times,serif" font-size="14.00">student_id</text>
</g>
<!-- 107374182510&#45;&gt;111669149903 -->
<g id="edge9" class="edge">
<title>107374182510&#45;&gt;111669149903</title>
<path fill="none" stroke="black" d="M231.75,-388.57C231.75,-377.05 231.75,-362.07 231.75,-348.9"/>
<polygon fill="black" stroke="black" points="235.25,-348.97 231.75,-338.97 228.25,-348.97 235.25,-348.97"/>
<text xml:space="preserve" text-anchor="middle" x="248.62" y="-357.45" font-family="Times,serif" font-size="14.00">DDG: </text>
</g>
<!-- 111669149904 -->
<g id="node6" class="node">
<title>111669149904</title>
<polygon fill="none" stroke="black" points="382.88,-337 292.62,-337 292.62,-297.5 382.88,-297.5 382.88,-337"/>
<text xml:space="preserve" text-anchor="start" x="304" y="-319.7" font-family="Times,serif" font-size="14.00">PARAM, 581</text>
<text xml:space="preserve" text-anchor="start" x="300.62" y="-303.95" font-family="Times,serif" font-size="14.00">course_code</text>
</g>
<!-- 107374182510&#45;&gt;111669149904 -->
<g id="edge10" class="edge">
<title>107374182510&#45;&gt;111669149904</title>
<path fill="none" stroke="black" d="M254.49,-388.35C269.72,-375.53 289.96,-358.49 306.68,-344.41"/>
<polygon fill="black" stroke="black" points="308.49,-347.46 313.89,-338.34 303.99,-342.1 308.49,-347.46"/>
<text xml:space="preserve" text-anchor="middle" x="307.97" y="-357.45" font-family="Times,serif" font-size="14.00">DDG: </text>
</g>
<!-- 30064773391 -->
<g id="node8" class="node">
<title>30064773391</title>
<polygon fill="none" stroke="black" points="598.88,-222 76.62,-222 76.62,-182.5 598.88,-182.5 598.88,-222"/>
<text xml:space="preserve" text-anchor="start" x="84.62" y="-204.7" font-family="Times,serif" font-size="14.00">AI_generated_code_1.py:&lt;module&gt;.RegistrationSystem.check_prerequisites, 581</text>
<text xml:space="preserve" text-anchor="start" x="169" y="-188.95" font-family="Times,serif" font-size="14.00">check_prerequisites(self, student_id, course_code)</text>
</g>
<!-- 107374182510&#45;&gt;30064773391 -->
<g id="edge13" class="edge">
<title>107374182510&#45;&gt;30064773391</title>
<path fill="none" stroke="black" d="M307.19,-388.3C359.47,-370.22 423.66,-337.05 446.75,-279.5 453.29,-263.21 456.99,-254.26 446.75,-240 443.87,-235.99 440.52,-232.4 436.83,-229.21"/>
<polygon fill="black" stroke="black" points="438.99,-226.45 428.87,-223.33 434.84,-232.09 438.99,-226.45"/>
<text xml:space="preserve" text-anchor="middle" x="453.67" y="-311.82" font-family="Times,serif" font-size="14.00">DDG: </text>
</g>
<!-- 124554051694 -->
<g id="node2" class="node">
<title>124554051694</title>
<polygon fill="none" stroke="black" points="340.5,-39.5 203,-39.5 203,0 340.5,0 340.5,-39.5"/>
<text xml:space="preserve" text-anchor="start" x="211" y="-22.2" font-family="Times,serif" font-size="14.00">METHOD_RETURN, 581</text>
<text xml:space="preserve" text-anchor="start" x="231.25" y="-6.45" font-family="Times,serif" font-size="14.00">typing.Tuple</text>
</g>
<!-- 111669149901&#45;&gt;124554051694 -->
<g id="edge2" class="edge">
<title>111669149901&#45;&gt;124554051694</title>
<path fill="none" stroke="black" d="M44.17,-239.76C50.55,-198.57 71.85,-101.21 134.75,-57.5 151.56,-45.82 171.89,-37.85 191.69,-32.41"/>
<polygon fill="black" stroke="black" points="192.31,-35.87 201.14,-30.02 190.59,-29.08 192.31,-35.87"/>
<text xml:space="preserve" text-anchor="middle" x="95.02" y="-151.2" font-family="Times,serif" font-size="14.00">DDG: cls</text>
</g>
<!-- 111669149902&#45;&gt;30064773391 -->
<g id="edge12" class="edge">
<title>111669149902&#45;&gt;30064773391</title>
<path fill="none" stroke="black" d="M131.87,-297.32C134.87,-279.82 142.03,-254.4 159,-240 165.56,-234.43 177.38,-229.57 191.94,-225.37"/>
<polygon fill="black" stroke="black" points="192.77,-228.78 201.53,-222.82 190.96,-222.01 192.77,-228.78"/>
<text xml:space="preserve" text-anchor="middle" x="189.38" y="-254.32" font-family="Times,serif" font-size="14.00">DDG: self</text>
</g>
<!-- 111669149903&#45;&gt;30064773391 -->
<g id="edge14" class="edge">
<title>111669149903&#45;&gt;30064773391</title>
<path fill="none" stroke="black" d="M226.28,-297.14C222.73,-280.48 220.69,-256.46 232.5,-240 235.5,-235.82 239.01,-232.11 242.9,-228.82"/>
<polygon fill="black" stroke="black" points="244.68,-231.85 250.72,-223.15 240.57,-226.18 244.68,-231.85"/>
<text xml:space="preserve" text-anchor="middle" x="283.12" y="-254.32" font-family="Times,serif" font-size="14.00">DDG: student_id</text>
</g>
<!-- 111669149904&#45;&gt;30064773391 -->
<g id="edge15" class="edge">
<title>111669149904&#45;&gt;30064773391</title>
<path fill="none" stroke="black" d="M337.75,-297.08C337.75,-279.69 337.75,-253.75 337.75,-233.55"/>
<polygon fill="black" stroke="black" points="341.25,-233.65 337.75,-223.65 334.25,-233.65 341.25,-233.65"/>
<text xml:space="preserve" text-anchor="middle" x="391.75" y="-254.32" font-family="Times,serif" font-size="14.00">DDG: course_code</text>
</g>
<!-- 141733920924 -->
<g id="node7" class="node">
<title>141733920924</title>
<polygon fill="none" stroke="black" points="1227.5,-130.75 874,-130.75 874,-91.25 1227.5,-91.25 1227.5,-130.75"/>
<text xml:space="preserve" text-anchor="start" x="1013.62" y="-113.45" font-family="Times,serif" font-size="14.00">RETURN, 581</text>
<text xml:space="preserve" text-anchor="start" x="882" y="-97.7" font-family="Times,serif" font-size="14.00">return check_prerequisites(self, student_id, co...</text>
</g>
<!-- 141733920924&#45;&gt;124554051694 -->
<g id="edge1" class="edge">
<title>141733920924&#45;&gt;124554051694</title>
<path fill="none" stroke="black" d="M883.16,-90.8C719.24,-72.02 476.65,-44.23 352.05,-29.95"/>
<polygon fill="black" stroke="black" points="352.57,-26.49 342.24,-28.83 351.77,-33.44 352.57,-26.49"/>
<text xml:space="preserve" text-anchor="middle" x="741.64" y="-59.95" font-family="Times,serif" font-size="14.00">DDG: &lt;RET&gt;</text>
</g>
<!-- 30064773391&#45;&gt;124554051694 -->
<g id="edge3" class="edge">
<title>30064773391&#45;&gt;124554051694</title>
<path fill="none" stroke="black" d="M239.12,-182.05C188.37,-169.8 134.37,-152.2 121,-130.75 96.82,-91.94 145.13,-62.49 193.34,-43.87"/>
<polygon fill="black" stroke="black" points="194.34,-47.23 202.5,-40.47 191.91,-40.67 194.34,-47.23"/>
<text xml:space="preserve" text-anchor="middle" x="151.38" y="-105.58" font-family="Times,serif" font-size="14.00">DDG: self</text>
</g>
<!-- 30064773391&#45;&gt;124554051694 -->
<g id="edge4" class="edge">
<title>30064773391&#45;&gt;124554051694</title>
<path fill="none" stroke="black" d="M279.83,-182.04C256.12,-170.99 231.09,-154.48 217.5,-130.75 201.73,-103.23 222.68,-70.49 242.96,-47.92"/>
<polygon fill="black" stroke="black" points="245.27,-50.58 249.58,-40.91 240.17,-45.78 245.27,-50.58"/>
<text xml:space="preserve" text-anchor="middle" x="268.12" y="-105.58" font-family="Times,serif" font-size="14.00">DDG: student_id</text>
</g>
<!-- 30064773391&#45;&gt;124554051694 -->
<g id="edge5" class="edge">
<title>30064773391&#45;&gt;124554051694</title>
<path fill="none" stroke="black" d="M336.86,-182.31C335.28,-159.87 330.88,-121.67 318.75,-91.25 312.76,-76.22 303.24,-61.1 294.33,-48.73"/>
<polygon fill="black" stroke="black" points="297.4,-46.99 288.61,-41.07 291.79,-51.18 297.4,-46.99"/>
<text xml:space="preserve" text-anchor="middle" x="383.99" y="-105.58" font-family="Times,serif" font-size="14.00">DDG: course_code</text>
</g>
<!-- 30064773391&#45;&gt;124554051694 -->
<g id="edge6" class="edge">
<title>30064773391&#45;&gt;124554051694</title>
<path fill="none" stroke="black" d="M378.73,-182.16C417.17,-161.51 465.47,-126.76 441.75,-91.25 421.41,-60.8 385.22,-43.49 351.44,-33.65"/>
<polygon fill="black" stroke="black" points="352.61,-30.34 342.04,-31.1 350.78,-37.09 352.61,-30.34"/>
<text xml:space="preserve" text-anchor="middle" x="633.65" y="-105.58" font-family="Times,serif" font-size="14.00">DDG: check_prerequisites(self, student_id, course_code)</text>
</g>
<!-- 30064773391&#45;&gt;141733920924 -->
<g id="edge11" class="edge">
<title>30064773391&#45;&gt;141733920924</title>
<path fill="none" stroke="black" d="M491.14,-182.05C607.32,-167.51 766.67,-147.56 885.62,-132.67"/>
<polygon fill="black" stroke="black" points="886.02,-136.15 895.5,-131.43 885.15,-129.2 886.02,-136.15"/>
<text xml:space="preserve" text-anchor="middle" x="922.56" y="-151.2" font-family="Times,serif" font-size="14.00">DDG: check_prerequisites(self, student_id, course_code)</text>
</g>
</g>
</svg>
