<?xml version="1.0" encoding="UTF-8" standalone="no"?>
<!DOCTYPE svg PUBLIC "-//W3C//DTD SVG 1.1//EN"
 "http://www.w3.org/Graphics/SVG/1.1/DTD/svg11.dtd">
<!-- Generated by graphviz version 13.1.2 (20250809.0930)
 -->
<!-- Title: check_schedule_conflict&lt;metaClassAdapter&gt; Pages: 1 -->
<svg width="1246pt" height="436pt"
 viewBox="0.00 0.00 1246.00 436.00" xmlns="http://www.w3.org/2000/svg" xmlns:xlink="http://www.w3.org/1999/xlink">
<g id="graph0" class="graph" transform="scale(1 1) rotate(0) translate(4 432.25)">
<title>check_schedule_conflict&lt;metaClassAdapter&gt;</title>
<polygon fill="white" stroke="none" points="-4,4 -4,-432.25 1241.5,-432.25 1241.5,4 -4,4"/>
<!-- 107374182511 -->
<g id="node1" class="node">
<title>107374182511</title>
<polygon fill="none" stroke="black" points="378.12,-428.25 85.38,-428.25 85.38,-388.75 378.12,-388.75 378.12,-428.25"/>
<text xml:space="preserve" text-anchor="start" x="194.62" y="-410.95" font-family="Times,serif" font-size="14.00">METHOD, 594</text>
<text xml:space="preserve" text-anchor="start" x="93.38" y="-395.2" font-family="Times,serif" font-size="14.00">check_schedule_conflict&lt;metaClassAdapter&gt;</text>
</g>
<!-- 111669149905 -->
<g id="node3" class="node">
<title>111669149905</title>
<polygon fill="none" stroke="black" points="83.5,-279.5 0,-279.5 0,-240 83.5,-240 83.5,-279.5"/>
<text xml:space="preserve" text-anchor="start" x="8" y="-262.2" font-family="Times,serif" font-size="14.00">PARAM, 594</text>
<text xml:space="preserve" text-anchor="start" x="31.62" y="-246.45" font-family="Times,serif" font-size="14.00">cls</text>
</g>
<!-- 107374182511&#45;&gt;111669149905 -->
<g id="edge7" class="edge">
<title>107374182511&#45;&gt;111669149905</title>
<path fill="none" stroke="black" d="M161.76,-388.31C132.83,-377.34 100.95,-360.89 78.75,-337 66.42,-323.73 57.39,-305.59 51.34,-290.33"/>
<polygon fill="black" stroke="black" points="54.74,-289.42 47.98,-281.26 48.17,-291.85 54.74,-289.42"/>
<text xml:space="preserve" text-anchor="middle" x="139.6" y="-357.45" font-family="Times,serif" font-size="14.00">DDG: </text>
</g>
<!-- 111669149906 -->
<g id="node4" class="node">
<title>111669149906</title>
<polygon fill="none" stroke="black" points="171.5,-337 88,-337 88,-297.5 171.5,-297.5 171.5,-337"/>
<text xml:space="preserve" text-anchor="start" x="96" y="-319.7" font-family="Times,serif" font-size="14.00">PARAM, 594</text>
<text xml:space="preserve" text-anchor="start" x="116.25" y="-303.95" font-family="Times,serif" font-size="14.00">self</text>
</g>
<!-- 107374182511&#45;&gt;111669149906 -->
<g id="edge8" class="edge">
<title>107374182511&#45;&gt;111669149906</title>
<path fill="none" stroke="black" d="M209.87,-388.35C195.35,-375.65 176.09,-358.8 160.1,-344.8"/>
<polygon fill="black" stroke="black" points="162.56,-342.31 152.73,-338.36 157.96,-347.58 162.56,-342.31"/>
<text xml:space="preserve" text-anchor="middle" x="203.73" y="-357.45" font-family="Times,serif" font-size="14.00">DDG: </text>
</g>
<!-- 111669149907 -->
<g id="node5" class="node">
<title>111669149907</title>
<polygon fill="none" stroke="black" points="273.5,-337 190,-337 190,-297.5 273.5,-297.5 273.5,-337"/>
<text xml:space="preserve" text-anchor="start" x="198" y="-319.7" font-family="Times,serif" font-size="14.00">PARAM, 594</text>
<text xml:space="preserve" text-anchor="start" x="198" y="-303.95" font-family="Times,serif" font-size="14.00">student_id</text>
</g>
<!-- 107374182511&#45;&gt;111669149907 -->
<g id="edge9" class="edge">
<title>107374182511&#45;&gt;111669149907</title>
<path fill="none" stroke="black" d="M231.75,-388.57C231.75,-377.05 231.75,-362.07 231.75,-348.9"/>
<polygon fill="black" stroke="black" points="235.25,-348.97 231.75,-338.97 228.25,-348.97 235.25,-348.97"/>
<text xml:space="preserve" text-anchor="middle" x="248.62" y="-357.45" font-family="Times,serif" font-size="14.00">DDG: </text>
</g>
<!-- 111669149908 -->
<g id="node6" class="node">
<title>111669149908</title>
<polygon fill="none" stroke="black" points="377.5,-337 294,-337 294,-297.5 377.5,-297.5 377.5,-337"/>
<text xml:space="preserve" text-anchor="start" x="302" y="-319.7" font-family="Times,serif" font-size="14.00">PARAM, 594</text>
<text xml:space="preserve" text-anchor="start" x="302" y="-303.95" font-family="Times,serif" font-size="14.00">section_id</text>
</g>
<!-- 107374182511&#45;&gt;111669149908 -->
<g id="edge10" class="edge">
<title>107374182511&#45;&gt;111669149908</title>
<path fill="none" stroke="black" d="M254.06,-388.35C268.87,-375.65 288.5,-358.8 304.81,-344.8"/>
<polygon fill="black" stroke="black" points="307.02,-347.52 312.33,-338.35 302.46,-342.21 307.02,-347.52"/>
<text xml:space="preserve" text-anchor="middle" x="306.85" y="-357.45" font-family="Times,serif" font-size="14.00">DDG: </text>
</g>
<!-- 30064773392 -->
<g id="node8" class="node">
<title>30064773392</title>
<polygon fill="none" stroke="black" points="612.38,-222 63.12,-222 63.12,-182.5 612.38,-182.5 612.38,-222"/>
<text xml:space="preserve" text-anchor="start" x="71.12" y="-204.7" font-family="Times,serif" font-size="14.00">AI_generated_code_1.py:&lt;module&gt;.RegistrationSystem.check_schedule_conflict, 594</text>
<text xml:space="preserve" text-anchor="start" x="169" y="-188.95" font-family="Times,serif" font-size="14.00">check_schedule_conflict(self, student_id, secti...</text>
</g>
<!-- 107374182511&#45;&gt;30064773392 -->
<g id="edge13" class="edge">
<title>107374182511&#45;&gt;30064773392</title>
<path fill="none" stroke="black" d="M303.07,-388.29C354.06,-370 417.46,-336.57 439.75,-279.5 446.14,-263.15 449.84,-254.36 439.75,-240 436.81,-235.82 433.34,-232.1 429.5,-228.82"/>
<polygon fill="black" stroke="black" points="431.89,-226.23 421.75,-223.16 427.76,-231.88 431.89,-226.23"/>
<text xml:space="preserve" text-anchor="middle" x="447.09" y="-311.82" font-family="Times,serif" font-size="14.00">DDG: </text>
</g>
<!-- 124554051695 -->
<g id="node2" class="node">
<title>124554051695</title>
<polygon fill="none" stroke="black" points="337.5,-39.5 200,-39.5 200,0 337.5,0 337.5,-39.5"/>
<text xml:space="preserve" text-anchor="start" x="208" y="-22.2" font-family="Times,serif" font-size="14.00">METHOD_RETURN, 594</text>
<text xml:space="preserve" text-anchor="start" x="228.25" y="-6.45" font-family="Times,serif" font-size="14.00">typing.Tuple</text>
</g>
<!-- 111669149905&#45;&gt;124554051695 -->
<g id="edge2" class="edge">
<title>111669149905&#45;&gt;124554051695</title>
<path fill="none" stroke="black" d="M42.75,-239.77C44.04,-224.04 46.99,-201.29 53.75,-182.5 75.91,-120.88 77.98,-94.87 131.75,-57.5 148.56,-45.82 168.89,-37.85 188.69,-32.41"/>
<polygon fill="black" stroke="black" points="189.31,-35.87 198.14,-30.02 187.59,-29.08 189.31,-35.87"/>
<text xml:space="preserve" text-anchor="middle" x="92.21" y="-151.2" font-family="Times,serif" font-size="14.00">DDG: cls</text>
</g>
<!-- 111669149906&#45;&gt;30064773392 -->
<g id="edge12" class="edge">
<title>111669149906&#45;&gt;30064773392</title>
<path fill="none" stroke="black" d="M131.61,-297.33C134.36,-279.84 141.17,-254.43 158,-240 164.52,-234.41 176.26,-229.55 190.74,-225.35"/>
<polygon fill="black" stroke="black" points="191.52,-228.76 200.28,-222.8 189.71,-222 191.52,-228.76"/>
<text xml:space="preserve" text-anchor="middle" x="188.38" y="-254.32" font-family="Times,serif" font-size="14.00">DDG: self</text>
</g>
<!-- 111669149907&#45;&gt;30064773392 -->
<g id="edge14" class="edge">
<title>111669149907&#45;&gt;30064773392</title>
<path fill="none" stroke="black" d="M225.95,-297.16C222.13,-280.51 219.75,-256.5 231.5,-240 234.37,-235.98 237.7,-232.39 241.39,-229.19"/>
<polygon fill="black" stroke="black" points="243.39,-232.06 249.36,-223.31 239.24,-226.43 243.39,-232.06"/>
<text xml:space="preserve" text-anchor="middle" x="282.12" y="-254.32" font-family="Times,serif" font-size="14.00">DDG: student_id</text>
</g>
<!-- 111669149908&#45;&gt;30064773392 -->
<g id="edge15" class="edge">
<title>111669149908&#45;&gt;30064773392</title>
<path fill="none" stroke="black" d="M336.09,-297.08C336.4,-279.69 336.86,-253.75 337.21,-233.55"/>
<polygon fill="black" stroke="black" points="340.71,-233.71 337.39,-223.65 333.71,-233.59 340.71,-233.71"/>
<text xml:space="preserve" text-anchor="middle" x="387.67" y="-254.32" font-family="Times,serif" font-size="14.00">DDG: section_id</text>
</g>
<!-- 141733920925 -->
<g id="node7" class="node">
<title>141733920925</title>
<polygon fill="none" stroke="black" points="1237.5,-130.75 884,-130.75 884,-91.25 1237.5,-91.25 1237.5,-130.75"/>
<text xml:space="preserve" text-anchor="start" x="1023.62" y="-113.45" font-family="Times,serif" font-size="14.00">RETURN, 594</text>
<text xml:space="preserve" text-anchor="start" x="892" y="-97.7" font-family="Times,serif" font-size="14.00">return check_schedule_conflict(self, student_id...</text>
</g>
<!-- 141733920925&#45;&gt;124554051695 -->
<g id="edge1" class="edge">
<title>141733920925&#45;&gt;124554051695</title>
<path fill="none" stroke="black" d="M890.36,-90.8C723.1,-71.95 475.27,-44.02 349.01,-29.79"/>
<polygon fill="black" stroke="black" points="349.75,-26.36 339.42,-28.71 348.96,-33.31 349.75,-26.36"/>
<text xml:space="preserve" text-anchor="middle" x="745.92" y="-59.95" font-family="Times,serif" font-size="14.00">DDG: &lt;RET&gt;</text>
</g>
<!-- 30064773392&#45;&gt;124554051695 -->
<g id="edge3" class="edge">
<title>30064773392&#45;&gt;124554051695</title>
<path fill="none" stroke="black" d="M236.84,-182.04C185.64,-169.86 131.45,-152.34 118,-130.75 93.82,-91.94 142.13,-62.49 190.34,-43.87"/>
<polygon fill="black" stroke="black" points="191.34,-47.23 199.5,-40.47 188.91,-40.67 191.34,-47.23"/>
<text xml:space="preserve" text-anchor="middle" x="148.38" y="-105.58" font-family="Times,serif" font-size="14.00">DDG: self</text>
</g>
<!-- 30064773392&#45;&gt;124554051695 -->
<g id="edge4" class="edge">
<title>30064773392&#45;&gt;124554051695</title>
<path fill="none" stroke="black" d="M277.78,-182.09C253.67,-171.11 228.35,-154.63 214.5,-130.75 198.58,-103.31 219.56,-70.56 239.88,-47.97"/>
<polygon fill="black" stroke="black" points="242.2,-50.61 246.52,-40.94 237.11,-45.8 242.2,-50.61"/>
<text xml:space="preserve" text-anchor="middle" x="265.12" y="-105.58" font-family="Times,serif" font-size="14.00">DDG: student_id</text>
</g>
<!-- 30064773392&#45;&gt;124554051695 -->
<g id="edge5" class="edge">
<title>30064773392&#45;&gt;124554051695</title>
<path fill="none" stroke="black" d="M336.22,-182.31C333.9,-159.86 328.35,-121.66 315.75,-91.25 309.62,-76.45 300.2,-61.49 291.4,-49.17"/>
<polygon fill="black" stroke="black" points="294.21,-47.09 285.45,-41.14 288.59,-51.26 294.21,-47.09"/>
<text xml:space="preserve" text-anchor="middle" x="378.44" y="-105.58" font-family="Times,serif" font-size="14.00">DDG: section_id</text>
</g>
<!-- 30064773392&#45;&gt;124554051695 -->
<g id="edge6" class="edge">
<title>30064773392&#45;&gt;124554051695</title>
<path fill="none" stroke="black" d="M374.88,-182.04C410.4,-161.02 455.44,-125.71 432.75,-91.25 413.76,-62.42 380.24,-45.33 348.43,-35.22"/>
<polygon fill="black" stroke="black" points="349.77,-31.97 339.18,-32.48 347.78,-38.68 349.77,-31.97"/>
<text xml:space="preserve" text-anchor="middle" x="634.63" y="-105.58" font-family="Times,serif" font-size="14.00">DDG: check_schedule_conflict(self, student_id, section_id)</text>
</g>
<!-- 30064773392&#45;&gt;141733920925 -->
<g id="edge11" class="edge">
<title>30064773392&#45;&gt;141733920925</title>
<path fill="none" stroke="black" d="M493.3,-182.05C611.22,-167.49 773.01,-147.52 893.67,-132.62"/>
<polygon fill="black" stroke="black" points="893.85,-136.13 903.35,-131.43 892.99,-129.18 893.85,-136.13"/>
<text xml:space="preserve" text-anchor="middle" x="938.29" y="-151.2" font-family="Times,serif" font-size="14.00">DDG: check_schedule_conflict(self, student_id, section_id)</text>
</g>
</g>
</svg>
