<?xml version="1.0" encoding="UTF-8" standalone="no"?>
<!DOCTYPE svg PUBLIC "-//W3C//DTD SVG 1.1//EN"
 "http://www.w3.org/Graphics/SVG/1.1/DTD/svg11.dtd">
<!-- Generated by graphviz version 13.1.2 (20250809.0930)
 -->
<!-- Title: drop_student&lt;metaClassAdapter&gt; Pages: 1 -->
<svg width="1517pt" height="436pt"
 viewBox="0.00 0.00 1517.00 436.00" xmlns="http://www.w3.org/2000/svg" xmlns:xlink="http://www.w3.org/1999/xlink">
<g id="graph0" class="graph" transform="scale(1 1) rotate(0) translate(4 432.25)">
<title>drop_student&lt;metaClassAdapter&gt;</title>
<polygon fill="white" stroke="none" points="-4,4 -4,-432.25 1512.5,-432.25 1512.5,4 -4,4"/>
<!-- 107374182514 -->
<g id="node1" class="node">
<title>107374182514</title>
<polygon fill="none" stroke="black" points="459,-428.25 240.5,-428.25 240.5,-388.75 459,-388.75 459,-428.25"/>
<text xml:space="preserve" text-anchor="start" x="312.62" y="-410.95" font-family="Times,serif" font-size="14.00">METHOD, 706</text>
<text xml:space="preserve" text-anchor="start" x="248.5" y="-395.2" font-family="Times,serif" font-size="14.00">drop_student&lt;metaClassAdapter&gt;</text>
</g>
<!-- 111669149920 -->
<g id="node3" class="node">
<title>111669149920</title>
<polygon fill="none" stroke="black" points="83.5,-279.5 0,-279.5 0,-240 83.5,-240 83.5,-279.5"/>
<text xml:space="preserve" text-anchor="start" x="8" y="-262.2" font-family="Times,serif" font-size="14.00">PARAM, 706</text>
<text xml:space="preserve" text-anchor="start" x="31.62" y="-246.45" font-family="Times,serif" font-size="14.00">cls</text>
</g>
<!-- 107374182514&#45;&gt;111669149920 -->
<g id="edge9" class="edge">
<title>107374182514&#45;&gt;111669149920</title>
<path fill="none" stroke="black" d="M240.1,-397.41C190.5,-388.17 133.74,-370.55 91.75,-337 76.03,-324.44 63.59,-305.54 55.05,-289.71"/>
<polygon fill="black" stroke="black" points="58.36,-288.5 50.69,-281.19 52.13,-291.68 58.36,-288.5"/>
<text xml:space="preserve" text-anchor="middle" x="161.56" y="-357.45" font-family="Times,serif" font-size="14.00">DDG: </text>
</g>
<!-- 111669149921 -->
<g id="node4" class="node">
<title>111669149921</title>
<polygon fill="none" stroke="black" points="184.5,-337 101,-337 101,-297.5 184.5,-297.5 184.5,-337"/>
<text xml:space="preserve" text-anchor="start" x="109" y="-319.7" font-family="Times,serif" font-size="14.00">PARAM, 707</text>
<text xml:space="preserve" text-anchor="start" x="129.25" y="-303.95" font-family="Times,serif" font-size="14.00">self</text>
</g>
<!-- 107374182514&#45;&gt;111669149921 -->
<g id="edge10" class="edge">
<title>107374182514&#45;&gt;111669149921</title>
<path fill="none" stroke="black" d="M297.79,-388.36C283.51,-382.89 268.08,-376.77 254,-370.75 233.45,-361.97 211.12,-351.6 191.89,-342.4"/>
<polygon fill="black" stroke="black" points="193.45,-339.27 182.92,-338.09 190.41,-345.58 193.45,-339.27"/>
<text xml:space="preserve" text-anchor="middle" x="270.88" y="-357.45" font-family="Times,serif" font-size="14.00">DDG: </text>
</g>
<!-- 111669149922 -->
<g id="node5" class="node">
<title>111669149922</title>
<polygon fill="none" stroke="black" points="288.5,-337 205,-337 205,-297.5 288.5,-297.5 288.5,-337"/>
<text xml:space="preserve" text-anchor="start" x="213" y="-319.7" font-family="Times,serif" font-size="14.00">PARAM, 708</text>
<text xml:space="preserve" text-anchor="start" x="213" y="-303.95" font-family="Times,serif" font-size="14.00">student_id</text>
</g>
<!-- 107374182514&#45;&gt;111669149922 -->
<g id="edge11" class="edge">
<title>107374182514&#45;&gt;111669149922</title>
<path fill="none" stroke="black" d="M327.65,-388.35C312.99,-375.65 293.54,-358.8 277.39,-344.8"/>
<polygon fill="black" stroke="black" points="279.8,-342.26 269.95,-338.36 275.22,-347.55 279.8,-342.26"/>
<text xml:space="preserve" text-anchor="middle" x="321.29" y="-357.45" font-family="Times,serif" font-size="14.00">DDG: </text>
</g>
<!-- 111669149923 -->
<g id="node6" class="node">
<title>111669149923</title>
<polygon fill="none" stroke="black" points="391.5,-337 308,-337 308,-297.5 391.5,-297.5 391.5,-337"/>
<text xml:space="preserve" text-anchor="start" x="316" y="-319.7" font-family="Times,serif" font-size="14.00">PARAM, 709</text>
<text xml:space="preserve" text-anchor="start" x="316" y="-303.95" font-family="Times,serif" font-size="14.00">section_id</text>
</g>
<!-- 107374182514&#45;&gt;111669149923 -->
<g id="edge12" class="edge">
<title>107374182514&#45;&gt;111669149923</title>
<path fill="none" stroke="black" d="M349.75,-388.57C349.75,-377.05 349.75,-362.07 349.75,-348.9"/>
<polygon fill="black" stroke="black" points="353.25,-348.97 349.75,-338.97 346.25,-348.97 353.25,-348.97"/>
<text xml:space="preserve" text-anchor="middle" x="366.62" y="-357.45" font-family="Times,serif" font-size="14.00">DDG: </text>
</g>
<!-- 111669149924 -->
<g id="node7" class="node">
<title>111669149924</title>
<polygon fill="none" stroke="black" points="498.5,-337 415,-337 415,-297.5 498.5,-297.5 498.5,-337"/>
<text xml:space="preserve" text-anchor="start" x="423" y="-319.7" font-family="Times,serif" font-size="14.00">PARAM, 710</text>
<text xml:space="preserve" text-anchor="start" x="436.5" y="-303.95" font-family="Times,serif" font-size="14.00">reason</text>
</g>
<!-- 107374182514&#45;&gt;111669149924 -->
<g id="edge13" class="edge">
<title>107374182514&#45;&gt;111669149924</title>
<path fill="none" stroke="black" d="M372.7,-388.35C388.08,-375.53 408.51,-358.49 425.38,-344.41"/>
<polygon fill="black" stroke="black" points="427.23,-347.43 432.67,-338.33 422.75,-342.05 427.23,-347.43"/>
<text xml:space="preserve" text-anchor="middle" x="426.53" y="-357.45" font-family="Times,serif" font-size="14.00">DDG: </text>
</g>
<!-- 111669149925 -->
<g id="node8" class="node">
<title>111669149925</title>
<polygon fill="none" stroke="black" points="604.5,-337 521,-337 521,-297.5 604.5,-297.5 604.5,-337"/>
<text xml:space="preserve" text-anchor="start" x="529" y="-319.7" font-family="Times,serif" font-size="14.00">PARAM, 711</text>
<text xml:space="preserve" text-anchor="start" x="539.12" y="-303.95" font-family="Times,serif" font-size="14.00">promote</text>
</g>
<!-- 107374182514&#45;&gt;111669149925 -->
<g id="edge14" class="edge">
<title>107374182514&#45;&gt;111669149925</title>
<path fill="none" stroke="black" d="M402.91,-388.33C417.52,-382.86 433.32,-376.74 447.75,-370.75 469.06,-361.9 492.25,-351.47 512.2,-342.25"/>
<polygon fill="black" stroke="black" points="513.64,-345.44 521.23,-338.05 510.69,-339.09 513.64,-345.44"/>
<text xml:space="preserve" text-anchor="middle" x="499.71" y="-357.45" font-family="Times,serif" font-size="14.00">DDG: </text>
</g>
<!-- 30064773395 -->
<g id="node10" class="node">
<title>30064773395</title>
<polygon fill="none" stroke="black" points="711.25,-222 236.25,-222 236.25,-182.5 711.25,-182.5 711.25,-222"/>
<text xml:space="preserve" text-anchor="start" x="244.25" y="-204.7" font-family="Times,serif" font-size="14.00">AI_generated_code_1.py:&lt;module&gt;.RegistrationSystem.drop_student, 706</text>
<text xml:space="preserve" text-anchor="start" x="305" y="-188.95" font-family="Times,serif" font-size="14.00">drop_student(self, student_id, section_id, reas...</text>
</g>
<!-- 107374182514&#45;&gt;30064773395 -->
<g id="edge17" class="edge">
<title>107374182514&#45;&gt;30064773395</title>
<path fill="none" stroke="black" d="M459.38,-399.88C511.21,-391.26 570.96,-373.45 613.75,-337 636.01,-318.04 638.4,-307.81 645.75,-279.5 650.16,-262.51 656.79,-253.65 645.75,-240 641.42,-234.65 633.28,-230.04 622.81,-226.08"/>
<polygon fill="black" stroke="black" points="624.13,-222.83 613.53,-222.97 621.9,-229.47 624.13,-222.83"/>
<text xml:space="preserve" text-anchor="middle" x="657.55" y="-311.82" font-family="Times,serif" font-size="14.00">DDG: </text>
</g>
<!-- 124554051698 -->
<g id="node2" class="node">
<title>124554051698</title>
<polygon fill="none" stroke="black" points="477.5,-39.5 340,-39.5 340,0 477.5,0 477.5,-39.5"/>
<text xml:space="preserve" text-anchor="start" x="348" y="-22.2" font-family="Times,serif" font-size="14.00">METHOD_RETURN, 706</text>
<text xml:space="preserve" text-anchor="start" x="368.25" y="-6.45" font-family="Times,serif" font-size="14.00">typing.Tuple</text>
</g>
<!-- 111669149920&#45;&gt;124554051698 -->
<g id="edge2" class="edge">
<title>111669149920&#45;&gt;124554051698</title>
<path fill="none" stroke="black" d="M43.03,-239.66C46.9,-198.71 62.21,-102.5 121.75,-57.5 153.39,-33.59 255.18,-25.19 328.55,-22.27"/>
<polygon fill="black" stroke="black" points="328.23,-25.78 338.1,-21.92 327.97,-18.79 328.23,-25.78"/>
<text xml:space="preserve" text-anchor="middle" x="88.22" y="-151.2" font-family="Times,serif" font-size="14.00">DDG: cls</text>
</g>
<!-- 111669149921&#45;&gt;30064773395 -->
<g id="edge16" class="edge">
<title>111669149921&#45;&gt;30064773395</title>
<path fill="none" stroke="black" d="M143.29,-297.1C144.88,-279.43 150.19,-253.9 167,-240 178.39,-230.58 199.1,-223.51 224.59,-218.22"/>
<polygon fill="black" stroke="black" points="225.15,-221.67 234.3,-216.34 223.82,-214.8 225.15,-221.67"/>
<text xml:space="preserve" text-anchor="middle" x="197.38" y="-254.32" font-family="Times,serif" font-size="14.00">DDG: self</text>
</g>
<!-- 111669149922&#45;&gt;30064773395 -->
<g id="edge18" class="edge">
<title>111669149922&#45;&gt;30064773395</title>
<path fill="none" stroke="black" d="M238.35,-297.32C232.24,-280.3 227.12,-255.65 240.5,-240 245.05,-234.68 252.53,-230.13 262.08,-226.23"/>
<polygon fill="black" stroke="black" points="263.1,-229.58 271.33,-222.91 260.74,-222.99 263.1,-229.58"/>
<text xml:space="preserve" text-anchor="middle" x="291.12" y="-254.32" font-family="Times,serif" font-size="14.00">DDG: student_id</text>
</g>
<!-- 111669149923&#45;&gt;30064773395 -->
<g id="edge19" class="edge">
<title>111669149923&#45;&gt;30064773395</title>
<path fill="none" stroke="black" d="M346.3,-297.15C344.39,-280.26 344.57,-255.9 357.5,-240 360.95,-235.76 364.89,-232 369.18,-228.67"/>
<polygon fill="black" stroke="black" points="370.86,-231.76 377.19,-223.26 366.94,-225.96 370.86,-231.76"/>
<text xml:space="preserve" text-anchor="middle" x="408.12" y="-254.32" font-family="Times,serif" font-size="14.00">DDG: section_id</text>
</g>
<!-- 111669149924&#45;&gt;30064773395 -->
<g id="edge20" class="edge">
<title>111669149924&#45;&gt;30064773395</title>
<path fill="none" stroke="black" d="M459.63,-297.08C462.26,-279.61 466.19,-253.51 469.23,-233.27"/>
<polygon fill="black" stroke="black" points="472.66,-234.04 470.68,-223.63 465.73,-233 472.66,-234.04"/>
<text xml:space="preserve" text-anchor="middle" x="504.89" y="-254.32" font-family="Times,serif" font-size="14.00">DDG: reason</text>
</g>
<!-- 111669149925&#45;&gt;30064773395 -->
<g id="edge21" class="edge">
<title>111669149925&#45;&gt;30064773395</title>
<path fill="none" stroke="black" d="M562.88,-297.12C562.05,-280.44 558.46,-256.4 545.75,-240 542.48,-235.78 538.6,-232.01 534.36,-228.64"/>
<polygon fill="black" stroke="black" points="536.67,-225.98 526.46,-223.14 532.67,-231.73 536.67,-225.98"/>
<text xml:space="preserve" text-anchor="middle" x="601.42" y="-254.32" font-family="Times,serif" font-size="14.00">DDG: promote</text>
</g>
<!-- 141733920928 -->
<g id="node9" class="node">
<title>141733920928</title>
<polygon fill="none" stroke="black" points="1508.5,-130.75 1155,-130.75 1155,-91.25 1508.5,-91.25 1508.5,-130.75"/>
<text xml:space="preserve" text-anchor="start" x="1294.62" y="-113.45" font-family="Times,serif" font-size="14.00">RETURN, 706</text>
<text xml:space="preserve" text-anchor="start" x="1163" y="-97.7" font-family="Times,serif" font-size="14.00">return drop_student(self, student_id, section_i...</text>
</g>
<!-- 141733920928&#45;&gt;124554051698 -->
<g id="edge1" class="edge">
<title>141733920928&#45;&gt;124554051698</title>
<path fill="none" stroke="black" d="M1154.59,-92.6C1149.93,-92.14 1145.31,-91.69 1140.75,-91.25 903.99,-68.23 624.12,-41.37 489.3,-28.46"/>
<polygon fill="black" stroke="black" points="489.68,-24.98 479.39,-27.51 489.01,-31.95 489.68,-24.98"/>
<text xml:space="preserve" text-anchor="middle" x="973.46" y="-59.95" font-family="Times,serif" font-size="14.00">DDG: &lt;RET&gt;</text>
</g>
<!-- 30064773395&#45;&gt;124554051698 -->
<g id="edge3" class="edge">
<title>30064773395&#45;&gt;124554051698</title>
<path fill="none" stroke="black" d="M246.46,-182.05C187.66,-171.61 136.44,-155.53 121,-130.75 71.09,-50.66 226.69,-28.71 328.2,-22.81"/>
<polygon fill="black" stroke="black" points="328.38,-26.31 338.17,-22.28 328,-19.32 328.38,-26.31"/>
<text xml:space="preserve" text-anchor="middle" x="151.38" y="-105.58" font-family="Times,serif" font-size="14.00">DDG: self</text>
</g>
<!-- 30064773395&#45;&gt;124554051698 -->
<g id="edge4" class="edge">
<title>30064773395&#45;&gt;124554051698</title>
<path fill="none" stroke="black" d="M350.01,-182.07C292.95,-170.4 234.17,-153.35 217.5,-130.75 181.91,-82.5 261.35,-52.13 328.45,-35.81"/>
<polygon fill="black" stroke="black" points="329.11,-39.25 338.05,-33.56 327.51,-32.44 329.11,-39.25"/>
<text xml:space="preserve" text-anchor="middle" x="268.12" y="-105.58" font-family="Times,serif" font-size="14.00">DDG: student_id</text>
</g>
<!-- 30064773395&#45;&gt;124554051698 -->
<g id="edge5" class="edge">
<title>30064773395&#45;&gt;124554051698</title>
<path fill="none" stroke="black" d="M416.61,-182.08C393,-171 368.03,-154.46 354.5,-130.75 338.78,-103.2 359.73,-70.46 379.99,-47.91"/>
<polygon fill="black" stroke="black" points="382.29,-50.57 386.6,-40.89 377.2,-45.77 382.29,-50.57"/>
<text xml:space="preserve" text-anchor="middle" x="405.12" y="-105.58" font-family="Times,serif" font-size="14.00">DDG: section_id</text>
</g>
<!-- 30064773395&#45;&gt;124554051698 -->
<g id="edge6" class="edge">
<title>30064773395&#45;&gt;124554051698</title>
<path fill="none" stroke="black" d="M473.08,-182.32C471.74,-159.87 467.73,-121.68 455.75,-91.25 449.82,-76.2 440.32,-61.07 431.4,-48.71"/>
<polygon fill="black" stroke="black" points="434.46,-46.96 425.67,-41.05 428.86,-51.15 434.46,-46.96"/>
<text xml:space="preserve" text-anchor="middle" x="503.84" y="-105.58" font-family="Times,serif" font-size="14.00">DDG: reason</text>
</g>
<!-- 30064773395&#45;&gt;124554051698 -->
<g id="edge7" class="edge">
<title>30064773395&#45;&gt;124554051698</title>
<path fill="none" stroke="black" d="M500.68,-182.37C528.25,-160.61 564.47,-123.68 544.75,-91.25 531.87,-70.07 510.34,-54.96 488.16,-44.32"/>
<polygon fill="black" stroke="black" points="489.89,-41.26 479.33,-40.36 487.02,-47.64 489.89,-41.26"/>
<text xml:space="preserve" text-anchor="middle" x="590.88" y="-105.58" font-family="Times,serif" font-size="14.00">DDG: promote</text>
</g>
<!-- 30064773395&#45;&gt;124554051698 -->
<g id="edge8" class="edge">
<title>30064773395&#45;&gt;124554051698</title>
<path fill="none" stroke="black" d="M548.02,-182.03C603.79,-163.79 665.8,-132.97 635.75,-91.25 618.16,-66.83 546.93,-47.35 488.89,-35.11"/>
<polygon fill="black" stroke="black" points="489.84,-31.73 479.34,-33.14 488.42,-38.59 489.84,-31.73"/>
<text xml:space="preserve" text-anchor="middle" x="859.59" y="-105.58" font-family="Times,serif" font-size="14.00">DDG: drop_student(self, student_id, section_id, reason, promote)</text>
</g>
<!-- 30064773395&#45;&gt;141733920928 -->
<g id="edge15" class="edge">
<title>30064773395&#45;&gt;141733920928</title>
<path fill="none" stroke="black" d="M658.6,-182.02C801.78,-167.13 999.35,-146.58 1143.41,-131.59"/>
<polygon fill="black" stroke="black" points="1143.47,-135.1 1153.05,-130.59 1142.74,-128.14 1143.47,-135.1"/>
<text xml:space="preserve" text-anchor="middle" x="1170.12" y="-151.2" font-family="Times,serif" font-size="14.00">DDG: drop_student(self, student_id, section_id, reason, promote)</text>
</g>
</g>
</svg>
