<?xml version="1.0" encoding="UTF-8" standalone="no"?>
<!DOCTYPE svg PUBLIC "-//W3C//DTD SVG 1.1//EN"
 "http://www.w3.org/Graphics/SVG/1.1/DTD/svg11.dtd">
<!-- Generated by graphviz version 13.1.2 (20250809.0930)
 -->
<!-- Title: get_student_semester_sections&lt;metaClassAdapter&gt; Pages: 1 -->
<svg width="1265pt" height="436pt"
 viewBox="0.00 0.00 1265.00 436.00" xmlns="http://www.w3.org/2000/svg" xmlns:xlink="http://www.w3.org/1999/xlink">
<g id="graph0" class="graph" transform="scale(1 1) rotate(0) translate(4 432.25)">
<title>get_student_semester_sections&lt;metaClassAdapter&gt;</title>
<polygon fill="white" stroke="none" points="-4,4 -4,-432.25 1260.5,-432.25 1260.5,4 -4,4"/>
<!-- 107374182515 -->
<g id="node1" class="node">
<title>107374182515</title>
<polygon fill="none" stroke="black" points="413.38,-428.25 80.12,-428.25 80.12,-388.75 413.38,-388.75 413.38,-428.25"/>
<text xml:space="preserve" text-anchor="start" x="209.62" y="-410.95" font-family="Times,serif" font-size="14.00">METHOD, 570</text>
<text xml:space="preserve" text-anchor="start" x="88.12" y="-395.2" font-family="Times,serif" font-size="14.00">get_student_semester_sections&lt;metaClassAdapter&gt;</text>
</g>
<!-- 111669149926 -->
<g id="node3" class="node">
<title>111669149926</title>
<polygon fill="none" stroke="black" points="83.5,-279.5 0,-279.5 0,-240 83.5,-240 83.5,-279.5"/>
<text xml:space="preserve" text-anchor="start" x="8" y="-262.2" font-family="Times,serif" font-size="14.00">PARAM, 570</text>
<text xml:space="preserve" text-anchor="start" x="31.62" y="-246.45" font-family="Times,serif" font-size="14.00">cls</text>
</g>
<!-- 107374182515&#45;&gt;111669149926 -->
<g id="edge7" class="edge">
<title>107374182515&#45;&gt;111669149926</title>
<path fill="none" stroke="black" d="M182.58,-388.32C152.93,-377.02 118.82,-360.29 93.75,-337 79.02,-323.31 66.23,-304.72 57.03,-289.32"/>
<polygon fill="black" stroke="black" points="60.29,-287.97 52.26,-281.05 54.22,-291.47 60.29,-287.97"/>
<text xml:space="preserve" text-anchor="middle" x="159.12" y="-357.45" font-family="Times,serif" font-size="14.00">DDG: </text>
</g>
<!-- 111669149927 -->
<g id="node4" class="node">
<title>111669149927</title>
<polygon fill="none" stroke="black" points="186.5,-337 103,-337 103,-297.5 186.5,-297.5 186.5,-337"/>
<text xml:space="preserve" text-anchor="start" x="111" y="-319.7" font-family="Times,serif" font-size="14.00">PARAM, 570</text>
<text xml:space="preserve" text-anchor="start" x="131.25" y="-303.95" font-family="Times,serif" font-size="14.00">self</text>
</g>
<!-- 107374182515&#45;&gt;111669149927 -->
<g id="edge8" class="edge">
<title>107374182515&#45;&gt;111669149927</title>
<path fill="none" stroke="black" d="M224.87,-388.35C210.35,-375.65 191.09,-358.8 175.1,-344.8"/>
<polygon fill="black" stroke="black" points="177.56,-342.31 167.73,-338.36 172.96,-347.58 177.56,-342.31"/>
<text xml:space="preserve" text-anchor="middle" x="218.73" y="-357.45" font-family="Times,serif" font-size="14.00">DDG: </text>
</g>
<!-- 111669149928 -->
<g id="node5" class="node">
<title>111669149928</title>
<polygon fill="none" stroke="black" points="288.5,-337 205,-337 205,-297.5 288.5,-297.5 288.5,-337"/>
<text xml:space="preserve" text-anchor="start" x="213" y="-319.7" font-family="Times,serif" font-size="14.00">PARAM, 570</text>
<text xml:space="preserve" text-anchor="start" x="213" y="-303.95" font-family="Times,serif" font-size="14.00">student_id</text>
</g>
<!-- 107374182515&#45;&gt;111669149928 -->
<g id="edge9" class="edge">
<title>107374182515&#45;&gt;111669149928</title>
<path fill="none" stroke="black" d="M246.75,-388.57C246.75,-377.05 246.75,-362.07 246.75,-348.9"/>
<polygon fill="black" stroke="black" points="250.25,-348.97 246.75,-338.97 243.25,-348.97 250.25,-348.97"/>
<text xml:space="preserve" text-anchor="middle" x="263.62" y="-357.45" font-family="Times,serif" font-size="14.00">DDG: </text>
</g>
<!-- 111669149929 -->
<g id="node6" class="node">
<title>111669149929</title>
<polygon fill="none" stroke="black" points="392.5,-337 309,-337 309,-297.5 392.5,-297.5 392.5,-337"/>
<text xml:space="preserve" text-anchor="start" x="317" y="-319.7" font-family="Times,serif" font-size="14.00">PARAM, 570</text>
<text xml:space="preserve" text-anchor="start" x="323.75" y="-303.95" font-family="Times,serif" font-size="14.00">semester</text>
</g>
<!-- 107374182515&#45;&gt;111669149929 -->
<g id="edge10" class="edge">
<title>107374182515&#45;&gt;111669149929</title>
<path fill="none" stroke="black" d="M269.06,-388.35C283.87,-375.65 303.5,-358.8 319.81,-344.8"/>
<polygon fill="black" stroke="black" points="322.02,-347.52 327.33,-338.35 317.46,-342.21 322.02,-347.52"/>
<text xml:space="preserve" text-anchor="middle" x="321.85" y="-357.45" font-family="Times,serif" font-size="14.00">DDG: </text>
</g>
<!-- 30064773396 -->
<g id="node8" class="node">
<title>30064773396</title>
<polygon fill="none" stroke="black" points="647.62,-222 57.88,-222 57.88,-182.5 647.62,-182.5 647.62,-222"/>
<text xml:space="preserve" text-anchor="start" x="65.88" y="-204.7" font-family="Times,serif" font-size="14.00">AI_generated_code_1.py:&lt;module&gt;.RegistrationSystem.get_student_semester_sections, 570</text>
<text xml:space="preserve" text-anchor="start" x="184" y="-188.95" font-family="Times,serif" font-size="14.00">get_student_semester_sections(self, student_id,...</text>
</g>
<!-- 107374182515&#45;&gt;30064773396 -->
<g id="edge13" class="edge">
<title>107374182515&#45;&gt;30064773396</title>
<path fill="none" stroke="black" d="M313.77,-388.25C362.91,-369.73 424.03,-336.01 441.75,-279.5 447,-262.75 451.51,-254.59 441.75,-240 439.03,-235.94 435.77,-232.32 432.13,-229.1"/>
<polygon fill="black" stroke="black" points="434.34,-226.38 424.23,-223.21 430.15,-231.99 434.34,-226.38"/>
<text xml:space="preserve" text-anchor="middle" x="450.74" y="-311.82" font-family="Times,serif" font-size="14.00">DDG: </text>
</g>
<!-- 124554051699 -->
<g id="node2" class="node">
<title>124554051699</title>
<polygon fill="none" stroke="black" points="342.5,-39.5 205,-39.5 205,0 342.5,0 342.5,-39.5"/>
<text xml:space="preserve" text-anchor="start" x="213" y="-22.2" font-family="Times,serif" font-size="14.00">METHOD_RETURN, 570</text>
<text xml:space="preserve" text-anchor="start" x="236.62" y="-6.45" font-family="Times,serif" font-size="14.00">typing.List</text>
</g>
<!-- 111669149926&#45;&gt;124554051699 -->
<g id="edge2" class="edge">
<title>111669149926&#45;&gt;124554051699</title>
<path fill="none" stroke="black" d="M40.82,-239.67C40.68,-223.88 41.93,-201.1 48.75,-182.5 72.15,-118.71 80.96,-96.27 136.75,-57.5 153.56,-45.82 173.89,-37.85 193.69,-32.41"/>
<polygon fill="black" stroke="black" points="194.31,-35.87 203.14,-30.02 192.59,-29.08 194.31,-35.87"/>
<text xml:space="preserve" text-anchor="middle" x="87.98" y="-151.2" font-family="Times,serif" font-size="14.00">DDG: cls</text>
</g>
<!-- 111669149927&#45;&gt;30064773396 -->
<g id="edge12" class="edge">
<title>111669149927&#45;&gt;30064773396</title>
<path fill="none" stroke="black" d="M146.61,-297.33C149.36,-279.84 156.17,-254.43 173,-240 179.52,-234.41 191.26,-229.55 205.74,-225.35"/>
<polygon fill="black" stroke="black" points="206.52,-228.76 215.28,-222.8 204.71,-222 206.52,-228.76"/>
<text xml:space="preserve" text-anchor="middle" x="203.38" y="-254.32" font-family="Times,serif" font-size="14.00">DDG: self</text>
</g>
<!-- 111669149928&#45;&gt;30064773396 -->
<g id="edge14" class="edge">
<title>111669149928&#45;&gt;30064773396</title>
<path fill="none" stroke="black" d="M240.95,-297.16C237.13,-280.51 234.75,-256.5 246.5,-240 249.37,-235.98 252.7,-232.39 256.39,-229.19"/>
<polygon fill="black" stroke="black" points="258.39,-232.06 264.36,-223.31 254.24,-226.43 258.39,-232.06"/>
<text xml:space="preserve" text-anchor="middle" x="297.12" y="-254.32" font-family="Times,serif" font-size="14.00">DDG: student_id</text>
</g>
<!-- 111669149929&#45;&gt;30064773396 -->
<g id="edge15" class="edge">
<title>111669149929&#45;&gt;30064773396</title>
<path fill="none" stroke="black" d="M351.09,-297.08C351.4,-279.69 351.86,-253.75 352.21,-233.55"/>
<polygon fill="black" stroke="black" points="355.71,-233.71 352.39,-223.65 348.71,-233.59 355.71,-233.71"/>
<text xml:space="preserve" text-anchor="middle" x="395.92" y="-254.32" font-family="Times,serif" font-size="14.00">DDG: semester</text>
</g>
<!-- 141733920929 -->
<g id="node7" class="node">
<title>141733920929</title>
<polygon fill="none" stroke="black" points="1256.5,-130.75 903,-130.75 903,-91.25 1256.5,-91.25 1256.5,-130.75"/>
<text xml:space="preserve" text-anchor="start" x="1042.62" y="-113.45" font-family="Times,serif" font-size="14.00">RETURN, 570</text>
<text xml:space="preserve" text-anchor="start" x="911" y="-97.7" font-family="Times,serif" font-size="14.00">return get_student_semester_sections(self, stud...</text>
</g>
<!-- 141733920929&#45;&gt;124554051699 -->
<g id="edge1" class="edge">
<title>141733920929&#45;&gt;124554051699</title>
<path fill="none" stroke="black" d="M906.35,-90.8C735.46,-71.88 481.92,-43.8 353.91,-29.63"/>
<polygon fill="black" stroke="black" points="354.49,-26.17 344.17,-28.55 353.72,-33.13 354.49,-26.17"/>
<text xml:space="preserve" text-anchor="middle" x="758.76" y="-59.95" font-family="Times,serif" font-size="14.00">DDG: &lt;RET&gt;</text>
</g>
<!-- 30064773396&#45;&gt;124554051699 -->
<g id="edge3" class="edge">
<title>30064773396&#45;&gt;124554051699</title>
<path fill="none" stroke="black" d="M244.04,-182C191.45,-170.07 136.74,-152.79 123,-130.75 98.82,-91.94 147.13,-62.49 195.34,-43.87"/>
<polygon fill="black" stroke="black" points="196.34,-47.23 204.5,-40.47 193.91,-40.67 196.34,-47.23"/>
<text xml:space="preserve" text-anchor="middle" x="153.38" y="-105.58" font-family="Times,serif" font-size="14.00">DDG: self</text>
</g>
<!-- 30064773396&#45;&gt;124554051699 -->
<g id="edge4" class="edge">
<title>30064773396&#45;&gt;124554051699</title>
<path fill="none" stroke="black" d="M285.26,-182.08C260.08,-171.29 234.08,-154.96 219.5,-130.75 203.13,-103.58 224.19,-70.78 244.65,-48.11"/>
<polygon fill="black" stroke="black" points="247,-50.71 251.34,-41.04 241.92,-45.89 247,-50.71"/>
<text xml:space="preserve" text-anchor="middle" x="270.12" y="-105.58" font-family="Times,serif" font-size="14.00">DDG: student_id</text>
</g>
<!-- 30064773396&#45;&gt;124554051699 -->
<g id="edge5" class="edge">
<title>30064773396&#45;&gt;124554051699</title>
<path fill="none" stroke="black" d="M349.09,-182.33C344.33,-159.9 334.93,-121.72 320.75,-91.25 313.88,-76.48 304.15,-61.29 295.33,-48.81"/>
<polygon fill="black" stroke="black" points="298.42,-47.11 289.71,-41.08 292.76,-51.22 298.42,-47.11"/>
<text xml:space="preserve" text-anchor="middle" x="379.48" y="-105.58" font-family="Times,serif" font-size="14.00">DDG: semester</text>
</g>
<!-- 30064773396&#45;&gt;124554051699 -->
<g id="edge6" class="edge">
<title>30064773396&#45;&gt;124554051699</title>
<path fill="none" stroke="black" d="M381.47,-182.19C410.56,-160.42 448.54,-123.63 427.75,-91.25 410.99,-65.14 381.88,-48.58 353.45,-38.13"/>
<polygon fill="black" stroke="black" points="354.64,-34.83 344.05,-34.9 352.37,-41.46 354.64,-34.83"/>
<text xml:space="preserve" text-anchor="middle" x="642.96" y="-105.58" font-family="Times,serif" font-size="14.00">DDG: get_student_semester_sections(self, student_id, semester)</text>
</g>
<!-- 30064773396&#45;&gt;141733920929 -->
<g id="edge11" class="edge">
<title>30064773396&#45;&gt;141733920929</title>
<path fill="none" stroke="black" d="M509.16,-182.05C627.73,-167.49 790.42,-147.52 911.75,-132.62"/>
<polygon fill="black" stroke="black" points="911.99,-136.12 921.48,-131.43 911.13,-129.17 911.99,-136.12"/>
<text xml:space="preserve" text-anchor="middle" x="969.03" y="-151.2" font-family="Times,serif" font-size="14.00">DDG: get_student_semester_sections(self, student_id, semester)</text>
</g>
</g>
</svg>
