<?xml version="1.0" encoding="UTF-8" standalone="no"?>
<!DOCTYPE svg PUBLIC "-//W3C//DTD SVG 1.1//EN"
 "http://www.w3.org/Graphics/SVG/1.1/DTD/svg11.dtd">
<!-- Generated by graphviz version 13.1.2 (20250809.0930)
 -->
<!-- Title: remove_course&lt;metaClassAdapter&gt; Pages: 1 -->
<svg width="850pt" height="436pt"
 viewBox="0.00 0.00 850.00 436.00" xmlns="http://www.w3.org/2000/svg" xmlns:xlink="http://www.w3.org/1999/xlink">
<g id="graph0" class="graph" transform="scale(1 1) rotate(0) translate(4 432.25)">
<title>remove_course&lt;metaClassAdapter&gt;</title>
<polygon fill="white" stroke="none" points="-4,4 -4,-432.25 846.2,-432.25 846.2,4 -4,4"/>
<!-- 107374182525 -->
<g id="node1" class="node">
<title>107374182525</title>
<polygon fill="none" stroke="black" points="332.2,-428.25 106.95,-428.25 106.95,-388.75 332.2,-388.75 332.2,-428.25"/>
<text xml:space="preserve" text-anchor="start" x="182.45" y="-410.95" font-family="Times,serif" font-size="14.00">METHOD, 464</text>
<text xml:space="preserve" text-anchor="start" x="114.95" y="-395.2" font-family="Times,serif" font-size="14.00">remove_course&lt;metaClassAdapter&gt;</text>
</g>
<!-- 111669149955 -->
<g id="node3" class="node">
<title>111669149955</title>
<polygon fill="none" stroke="black" points="84.32,-279.5 0.82,-279.5 0.82,-240 84.32,-240 84.32,-279.5"/>
<text xml:space="preserve" text-anchor="start" x="8.82" y="-262.2" font-family="Times,serif" font-size="14.00">PARAM, 464</text>
<text xml:space="preserve" text-anchor="start" x="32.45" y="-246.45" font-family="Times,serif" font-size="14.00">cls</text>
</g>
<!-- 107374182525&#45;&gt;111669149955 -->
<g id="edge6" class="edge">
<title>107374182525&#45;&gt;111669149955</title>
<path fill="none" stroke="black" d="M176.94,-388.28C166.51,-383.03 155.55,-377.04 145.82,-370.75 125.93,-357.89 121.3,-353.78 104.57,-337 89.61,-321.99 74.57,-303.59 63.05,-288.63"/>
<polygon fill="black" stroke="black" points="66.11,-286.88 57.28,-281.03 60.54,-291.11 66.11,-286.88"/>
<text xml:space="preserve" text-anchor="middle" x="162.7" y="-357.45" font-family="Times,serif" font-size="14.00">DDG: </text>
</g>
<!-- 111669149956 -->
<g id="node4" class="node">
<title>111669149956</title>
<polygon fill="none" stroke="black" points="197.32,-337 113.82,-337 113.82,-297.5 197.32,-297.5 197.32,-337"/>
<text xml:space="preserve" text-anchor="start" x="121.82" y="-319.7" font-family="Times,serif" font-size="14.00">PARAM, 464</text>
<text xml:space="preserve" text-anchor="start" x="142.07" y="-303.95" font-family="Times,serif" font-size="14.00">self</text>
</g>
<!-- 107374182525&#45;&gt;111669149956 -->
<g id="edge7" class="edge">
<title>107374182525&#45;&gt;111669149956</title>
<path fill="none" stroke="black" d="M206,-388.57C197.24,-376.35 185.67,-360.22 175.83,-346.5"/>
<polygon fill="black" stroke="black" points="178.9,-344.77 170.23,-338.69 173.21,-348.85 178.9,-344.77"/>
<text xml:space="preserve" text-anchor="middle" x="208.28" y="-357.45" font-family="Times,serif" font-size="14.00">DDG: </text>
</g>
<!-- 111669149957 -->
<g id="node5" class="node">
<title>111669149957</title>
<polygon fill="none" stroke="black" points="305.7,-337 215.45,-337 215.45,-297.5 305.7,-297.5 305.7,-337"/>
<text xml:space="preserve" text-anchor="start" x="226.82" y="-319.7" font-family="Times,serif" font-size="14.00">PARAM, 464</text>
<text xml:space="preserve" text-anchor="start" x="223.45" y="-303.95" font-family="Times,serif" font-size="14.00">course_code</text>
</g>
<!-- 107374182525&#45;&gt;111669149957 -->
<g id="edge8" class="edge">
<title>107374182525&#45;&gt;111669149957</title>
<path fill="none" stroke="black" d="M228.27,-388.57C233.72,-376.7 240.86,-361.15 247.05,-347.69"/>
<polygon fill="black" stroke="black" points="250.12,-349.38 251.12,-338.83 243.76,-346.46 250.12,-349.38"/>
<text xml:space="preserve" text-anchor="middle" x="259.4" y="-357.45" font-family="Times,serif" font-size="14.00">DDG: </text>
</g>
<!-- 30064773406 -->
<g id="node7" class="node">
<title>30064773406</title>
<polygon fill="none" stroke="black" points="495.45,-222 13.7,-222 13.7,-182.5 495.45,-182.5 495.45,-222"/>
<text xml:space="preserve" text-anchor="start" x="21.7" y="-204.7" font-family="Times,serif" font-size="14.00">AI_generated_code_1.py:&lt;module&gt;.RegistrationSystem.remove_course, 464</text>
<text xml:space="preserve" text-anchor="start" x="146.57" y="-188.95" font-family="Times,serif" font-size="14.00">remove_course(self, course_code)</text>
</g>
<!-- 107374182525&#45;&gt;30064773406 -->
<g id="edge11" class="edge">
<title>107374182525&#45;&gt;30064773406</title>
<path fill="none" stroke="black" d="M255.96,-388.41C291.37,-367.33 342.29,-329.63 359.57,-279.5 365.3,-262.9 369.73,-254.32 359.57,-240 356.6,-235.81 353.11,-232.1 349.25,-228.8"/>
<polygon fill="black" stroke="black" points="351.61,-226.19 341.47,-223.13 347.49,-231.85 351.61,-226.19"/>
<text xml:space="preserve" text-anchor="middle" x="368.59" y="-311.82" font-family="Times,serif" font-size="14.00">DDG: </text>
</g>
<!-- 124554051709 -->
<g id="node2" class="node">
<title>124554051709</title>
<polygon fill="none" stroke="black" points="220.32,-39.5 82.82,-39.5 82.82,0 220.32,0 220.32,-39.5"/>
<text xml:space="preserve" text-anchor="start" x="90.82" y="-22.2" font-family="Times,serif" font-size="14.00">METHOD_RETURN, 464</text>
<text xml:space="preserve" text-anchor="start" x="104.32" y="-6.45" font-family="Times,serif" font-size="14.00">__builtin.bool</text>
</g>
<!-- 111669149955&#45;&gt;124554051709 -->
<g id="edge2" class="edge">
<title>111669149955&#45;&gt;124554051709</title>
<path fill="none" stroke="black" d="M17.06,-239.71C11.99,-234.58 7.37,-228.59 4.57,-222 -2.28,-205.84 -0.01,-199.45 4.57,-182.5 21.38,-120.4 30.57,-101.43 77.57,-57.5 82.27,-53.11 87.6,-49.13 93.18,-45.55"/>
<polygon fill="black" stroke="black" points="94.62,-48.76 101.46,-40.67 91.07,-42.73 94.62,-48.76"/>
<text xml:space="preserve" text-anchor="middle" x="41.11" y="-151.2" font-family="Times,serif" font-size="14.00">DDG: cls</text>
</g>
<!-- 111669149956&#45;&gt;30064773406 -->
<g id="edge10" class="edge">
<title>111669149956&#45;&gt;30064773406</title>
<path fill="none" stroke="black" d="M159.28,-297.05C163.34,-280.32 171.31,-256.25 185.82,-240 189.46,-235.92 193.66,-232.22 198.16,-228.87"/>
<polygon fill="black" stroke="black" points="200.08,-231.79 206.46,-223.33 196.2,-225.97 200.08,-231.79"/>
<text xml:space="preserve" text-anchor="middle" x="216.2" y="-254.32" font-family="Times,serif" font-size="14.00">DDG: self</text>
</g>
<!-- 111669149957&#45;&gt;30064773406 -->
<g id="edge12" class="edge">
<title>111669149957&#45;&gt;30064773406</title>
<path fill="none" stroke="black" d="M255.02,-297.34C253.6,-291.65 252.28,-285.37 251.57,-279.5 249.77,-264.55 250.16,-247.83 251.15,-233.88"/>
<polygon fill="black" stroke="black" points="254.63,-234.2 252.01,-223.94 247.66,-233.6 254.63,-234.2"/>
<text xml:space="preserve" text-anchor="middle" x="305.57" y="-254.32" font-family="Times,serif" font-size="14.00">DDG: course_code</text>
</g>
<!-- 141733920939 -->
<g id="node6" class="node">
<title>141733920939</title>
<polygon fill="none" stroke="black" points="842.2,-130.75 562.95,-130.75 562.95,-91.25 842.2,-91.25 842.2,-130.75"/>
<text xml:space="preserve" text-anchor="start" x="665.45" y="-113.45" font-family="Times,serif" font-size="14.00">RETURN, 464</text>
<text xml:space="preserve" text-anchor="start" x="570.95" y="-97.7" font-family="Times,serif" font-size="14.00">return remove_course(self, course_code)</text>
</g>
<!-- 141733920939&#45;&gt;124554051709 -->
<g id="edge1" class="edge">
<title>141733920939&#45;&gt;124554051709</title>
<path fill="none" stroke="black" d="M584.03,-90.8C477.76,-73.59 324.74,-48.8 232.08,-33.79"/>
<polygon fill="black" stroke="black" points="232.74,-30.35 222.31,-32.21 231.62,-37.26 232.74,-30.35"/>
<text xml:space="preserve" text-anchor="middle" x="493.81" y="-59.95" font-family="Times,serif" font-size="14.00">DDG: &lt;RET&gt;</text>
</g>
<!-- 30064773406&#45;&gt;124554051709 -->
<g id="edge3" class="edge">
<title>30064773406&#45;&gt;124554051709</title>
<path fill="none" stroke="black" d="M136.93,-182.03C109.71,-171.58 84.24,-155.49 68.82,-130.75 50.01,-100.55 81.07,-68.27 110.35,-46.55"/>
<polygon fill="black" stroke="black" points="112.38,-49.4 118.5,-40.76 108.32,-43.7 112.38,-49.4"/>
<text xml:space="preserve" text-anchor="middle" x="99.2" y="-105.58" font-family="Times,serif" font-size="14.00">DDG: self</text>
</g>
<!-- 30064773406&#45;&gt;124554051709 -->
<g id="edge4" class="edge">
<title>30064773406&#45;&gt;124554051709</title>
<path fill="none" stroke="black" d="M218.92,-182.2C199.88,-170.07 177.88,-152.55 165.57,-130.75 151.8,-106.34 149.16,-74.1 149.45,-50.85"/>
<polygon fill="black" stroke="black" points="152.94,-51.22 149.78,-41.11 145.95,-50.99 152.94,-51.22"/>
<text xml:space="preserve" text-anchor="middle" x="219.57" y="-105.58" font-family="Times,serif" font-size="14.00">DDG: course_code</text>
</g>
<!-- 30064773406&#45;&gt;124554051709 -->
<g id="edge5" class="edge">
<title>30064773406&#45;&gt;124554051709</title>
<path fill="none" stroke="black" d="M265.14,-182.01C276.26,-158.93 290.04,-119.79 273.57,-91.25 261.75,-70.77 241.46,-55.7 220.78,-44.88"/>
<polygon fill="black" stroke="black" points="222.51,-41.83 211.99,-40.57 219.43,-48.11 222.51,-41.83"/>
<text xml:space="preserve" text-anchor="middle" x="406.05" y="-105.58" font-family="Times,serif" font-size="14.00">DDG: remove_course(self, course_code)</text>
</g>
<!-- 30064773406&#45;&gt;141733920939 -->
<g id="edge9" class="edge">
<title>30064773406&#45;&gt;141733920939</title>
<path fill="none" stroke="black" d="M350.96,-182.05C422.63,-167.77 520.45,-148.28 594.73,-133.49"/>
<polygon fill="black" stroke="black" points="595.36,-136.93 604.49,-131.54 594,-130.06 595.36,-136.93"/>
<text xml:space="preserve" text-anchor="middle" x="630.27" y="-151.2" font-family="Times,serif" font-size="14.00">DDG: remove_course(self, course_code)</text>
</g>
</g>
</svg>
