<?xml version="1.0" encoding="UTF-8" standalone="no"?>
<!DOCTYPE svg PUBLIC "-//W3C//DTD SVG 1.1//EN"
 "http://www.w3.org/Graphics/SVG/1.1/DTD/svg11.dtd">
<!-- Generated by graphviz version 13.1.2 (20250809.0930)
 -->
<!-- Title: remove_instructor&lt;metaClassAdapter&gt; Pages: 1 -->
<svg width="946pt" height="436pt"
 viewBox="0.00 0.00 946.00 436.00" xmlns="http://www.w3.org/2000/svg" xmlns:xlink="http://www.w3.org/1999/xlink">
<g id="graph0" class="graph" transform="scale(1 1) rotate(0) translate(4 432.25)">
<title>remove_instructor&lt;metaClassAdapter&gt;</title>
<polygon fill="white" stroke="none" points="-4,4 -4,-432.25 941.78,-432.25 941.78,4 -4,4"/>
<!-- 107374182526 -->
<g id="node1" class="node">
<title>107374182526</title>
<polygon fill="none" stroke="black" points="364.03,-428.25 111.78,-428.25 111.78,-388.75 364.03,-388.75 364.03,-428.25"/>
<text xml:space="preserve" text-anchor="start" x="200.78" y="-410.95" font-family="Times,serif" font-size="14.00">METHOD, 488</text>
<text xml:space="preserve" text-anchor="start" x="119.78" y="-395.2" font-family="Times,serif" font-size="14.00">remove_instructor&lt;metaClassAdapter&gt;</text>
</g>
<!-- 111669149958 -->
<g id="node3" class="node">
<title>111669149958</title>
<polygon fill="none" stroke="black" points="91.66,-279.5 8.16,-279.5 8.16,-240 91.66,-240 91.66,-279.5"/>
<text xml:space="preserve" text-anchor="start" x="16.16" y="-262.2" font-family="Times,serif" font-size="14.00">PARAM, 488</text>
<text xml:space="preserve" text-anchor="start" x="39.78" y="-246.45" font-family="Times,serif" font-size="14.00">cls</text>
</g>
<!-- 107374182526&#45;&gt;111669149958 -->
<g id="edge6" class="edge">
<title>107374182526&#45;&gt;111669149958</title>
<path fill="none" stroke="black" d="M194.06,-388.41C183.08,-383.12 171.49,-377.07 161.16,-370.75 140.06,-357.84 134.99,-353.87 116.91,-337 100.9,-322.07 84.66,-303.67 72.17,-288.69"/>
<polygon fill="black" stroke="black" points="74.93,-286.54 65.88,-281.04 69.52,-290.99 74.93,-286.54"/>
<text xml:space="preserve" text-anchor="middle" x="178.03" y="-357.45" font-family="Times,serif" font-size="14.00">DDG: </text>
</g>
<!-- 111669149959 -->
<g id="node4" class="node">
<title>111669149959</title>
<polygon fill="none" stroke="black" points="209.66,-337 126.16,-337 126.16,-297.5 209.66,-297.5 209.66,-337"/>
<text xml:space="preserve" text-anchor="start" x="134.16" y="-319.7" font-family="Times,serif" font-size="14.00">PARAM, 488</text>
<text xml:space="preserve" text-anchor="start" x="154.41" y="-303.95" font-family="Times,serif" font-size="14.00">self</text>
</g>
<!-- 107374182526&#45;&gt;111669149959 -->
<g id="edge7" class="edge">
<title>107374182526&#45;&gt;111669149959</title>
<path fill="none" stroke="black" d="M223.06,-388.57C213.48,-376.35 200.83,-360.22 190.07,-346.5"/>
<polygon fill="black" stroke="black" points="192.83,-344.36 183.91,-338.65 187.33,-348.68 192.83,-344.36"/>
<text xml:space="preserve" text-anchor="middle" x="223.98" y="-357.45" font-family="Times,serif" font-size="14.00">DDG: </text>
</g>
<!-- 111669149960 -->
<g id="node5" class="node">
<title>111669149960</title>
<polygon fill="none" stroke="black" points="331.78,-337 228.03,-337 228.03,-297.5 331.78,-297.5 331.78,-337"/>
<text xml:space="preserve" text-anchor="start" x="246.16" y="-319.7" font-family="Times,serif" font-size="14.00">PARAM, 488</text>
<text xml:space="preserve" text-anchor="start" x="236.03" y="-303.95" font-family="Times,serif" font-size="14.00">instructor_id</text>
</g>
<!-- 107374182526&#45;&gt;111669149960 -->
<g id="edge8" class="edge">
<title>107374182526&#45;&gt;111669149960</title>
<path fill="none" stroke="black" d="M246.82,-388.57C252.4,-376.7 259.72,-361.15 266.05,-347.69"/>
<polygon fill="black" stroke="black" points="269.13,-349.37 270.23,-338.83 262.8,-346.39 269.13,-349.37"/>
<text xml:space="preserve" text-anchor="middle" x="278.3" y="-357.45" font-family="Times,serif" font-size="14.00">DDG: </text>
</g>
<!-- 30064773407 -->
<g id="node7" class="node">
<title>30064773407</title>
<polygon fill="none" stroke="black" points="522.28,-222 13.53,-222 13.53,-182.5 522.28,-182.5 522.28,-222"/>
<text xml:space="preserve" text-anchor="start" x="21.53" y="-204.7" font-family="Times,serif" font-size="14.00">AI_generated_code_1.py:&lt;module&gt;.RegistrationSystem.remove_instructor, 488</text>
<text xml:space="preserve" text-anchor="start" x="139.66" y="-188.95" font-family="Times,serif" font-size="14.00">remove_instructor(self, instructor_id)</text>
</g>
<!-- 107374182526&#45;&gt;30064773407 -->
<g id="edge11" class="edge">
<title>107374182526&#45;&gt;30064773407</title>
<path fill="none" stroke="black" d="M278.14,-388.33C315.83,-367.65 368.96,-330.67 386.91,-279.5 392.72,-262.93 397.33,-254.13 386.91,-240 383.95,-235.99 380.56,-232.4 376.83,-229.19"/>
<polygon fill="black" stroke="black" points="378.94,-226.4 368.81,-223.28 374.78,-232.03 378.94,-226.4"/>
<text xml:space="preserve" text-anchor="middle" x="395.49" y="-311.82" font-family="Times,serif" font-size="14.00">DDG: </text>
</g>
<!-- 124554051710 -->
<g id="node2" class="node">
<title>124554051710</title>
<polygon fill="none" stroke="black" points="220.66,-39.5 83.16,-39.5 83.16,0 220.66,0 220.66,-39.5"/>
<text xml:space="preserve" text-anchor="start" x="91.16" y="-22.2" font-family="Times,serif" font-size="14.00">METHOD_RETURN, 488</text>
<text xml:space="preserve" text-anchor="start" x="104.66" y="-6.45" font-family="Times,serif" font-size="14.00">__builtin.bool</text>
</g>
<!-- 111669149958&#45;&gt;124554051710 -->
<g id="edge2" class="edge">
<title>111669149958&#45;&gt;124554051710</title>
<path fill="none" stroke="black" d="M18.87,-239.66C13.22,-234.66 8.11,-228.74 4.91,-222 -2.62,-206.14 0.32,-199.45 4.91,-182.5 21.71,-120.4 30.9,-101.43 77.91,-57.5 82.61,-53.11 87.93,-49.13 93.52,-45.55"/>
<polygon fill="black" stroke="black" points="94.96,-48.76 101.8,-40.67 91.4,-42.73 94.96,-48.76"/>
<text xml:space="preserve" text-anchor="middle" x="41.44" y="-151.2" font-family="Times,serif" font-size="14.00">DDG: cls</text>
</g>
<!-- 111669149959&#45;&gt;30064773407 -->
<g id="edge10" class="edge">
<title>111669149959&#45;&gt;30064773407</title>
<path fill="none" stroke="black" d="M171.59,-297.03C175.64,-280.28 183.6,-256.21 198.16,-240 201.95,-235.78 206.34,-231.96 211.04,-228.53"/>
<polygon fill="black" stroke="black" points="212.67,-231.64 219.11,-223.23 208.83,-225.79 212.67,-231.64"/>
<text xml:space="preserve" text-anchor="middle" x="228.53" y="-254.32" font-family="Times,serif" font-size="14.00">DDG: self</text>
</g>
<!-- 111669149960&#45;&gt;30064773407 -->
<g id="edge12" class="edge">
<title>111669149960&#45;&gt;30064773407</title>
<path fill="none" stroke="black" d="M270.83,-297.2C268.6,-291.63 266.54,-285.43 265.41,-279.5 262.55,-264.46 262.78,-247.45 263.9,-233.32"/>
<polygon fill="black" stroke="black" points="267.34,-234.03 264.85,-223.74 260.38,-233.34 267.34,-234.03"/>
<text xml:space="preserve" text-anchor="middle" x="326.16" y="-254.32" font-family="Times,serif" font-size="14.00">DDG: instructor_id</text>
</g>
<!-- 141733920940 -->
<g id="node6" class="node">
<title>141733920940</title>
<polygon fill="none" stroke="black" points="937.78,-130.75 618.03,-130.75 618.03,-91.25 937.78,-91.25 937.78,-130.75"/>
<text xml:space="preserve" text-anchor="start" x="740.78" y="-113.45" font-family="Times,serif" font-size="14.00">RETURN, 488</text>
<text xml:space="preserve" text-anchor="start" x="626.03" y="-97.7" font-family="Times,serif" font-size="14.00">return remove_instructor(self, instructor_id)</text>
</g>
<!-- 141733920940&#45;&gt;124554051710 -->
<g id="edge1" class="edge">
<title>141733920940&#45;&gt;124554051710</title>
<path fill="none" stroke="black" d="M643.23,-90.8C518.2,-72.97 336.19,-47.02 232.39,-32.22"/>
<polygon fill="black" stroke="black" points="232.95,-28.77 222.56,-30.82 231.96,-35.7 232.95,-28.77"/>
<text xml:space="preserve" text-anchor="middle" x="536.14" y="-59.95" font-family="Times,serif" font-size="14.00">DDG: &lt;RET&gt;</text>
</g>
<!-- 30064773407&#45;&gt;124554051710 -->
<g id="edge3" class="edge">
<title>30064773407&#45;&gt;124554051710</title>
<path fill="none" stroke="black" d="M136.45,-182.05C109.39,-171.51 84.5,-155.38 69.16,-130.75 50.34,-100.55 81.4,-68.27 110.69,-46.55"/>
<polygon fill="black" stroke="black" points="112.71,-49.4 118.84,-40.76 108.66,-43.7 112.71,-49.4"/>
<text xml:space="preserve" text-anchor="middle" x="99.53" y="-105.58" font-family="Times,serif" font-size="14.00">DDG: self</text>
</g>
<!-- 30064773407&#45;&gt;124554051710 -->
<g id="edge4" class="edge">
<title>30064773407&#45;&gt;124554051710</title>
<path fill="none" stroke="black" d="M225.05,-182.04C203.92,-170.3 180.09,-153.19 166.41,-130.75 151.81,-106.8 149.13,-74.5 149.53,-51.11"/>
<polygon fill="black" stroke="black" points="153.02,-51.42 149.91,-41.29 146.03,-51.14 153.02,-51.42"/>
<text xml:space="preserve" text-anchor="middle" x="227.16" y="-105.58" font-family="Times,serif" font-size="14.00">DDG: instructor_id</text>
</g>
<!-- 30064773407&#45;&gt;124554051710 -->
<g id="edge5" class="edge">
<title>30064773407&#45;&gt;124554051710</title>
<path fill="none" stroke="black" d="M278.76,-182.3C290.44,-159.16 305.15,-119.61 287.91,-91.25 275.03,-70.07 253.5,-54.96 231.32,-44.32"/>
<polygon fill="black" stroke="black" points="233.05,-41.26 222.49,-40.36 230.18,-47.64 233.05,-41.26"/>
<text xml:space="preserve" text-anchor="middle" x="440.92" y="-105.58" font-family="Times,serif" font-size="14.00">DDG: remove_instructor(self, instructor_id)</text>
</g>
<!-- 30064773407&#45;&gt;141733920940 -->
<g id="edge9" class="edge">
<title>30064773407&#45;&gt;141733920940</title>
<path fill="none" stroke="black" d="M377.63,-182.05C459.72,-167.68 571.96,-148.04 656.7,-133.21"/>
<polygon fill="black" stroke="black" points="657.2,-136.68 666.45,-131.51 655.99,-129.78 657.2,-136.68"/>
<text xml:space="preserve" text-anchor="middle" x="698.57" y="-151.2" font-family="Times,serif" font-size="14.00">DDG: remove_instructor(self, instructor_id)</text>
</g>
</g>
</svg>
