<?xml version="1.0" encoding="UTF-8" standalone="no"?>
<!DOCTYPE svg PUBLIC "-//W3C//DTD SVG 1.1//EN"
 "http://www.w3.org/Graphics/SVG/1.1/DTD/svg11.dtd">
<!-- Generated by graphviz version 13.1.2 (20250809.0930)
 -->
<!-- Title: report_course_roster&lt;metaClassAdapter&gt; Pages: 1 -->
<svg width="927pt" height="436pt"
 viewBox="0.00 0.00 927.00 436.00" xmlns="http://www.w3.org/2000/svg" xmlns:xlink="http://www.w3.org/1999/xlink">
<g id="graph0" class="graph" transform="scale(1 1) rotate(0) translate(4 432.25)">
<title>report_course_roster&lt;metaClassAdapter&gt;</title>
<polygon fill="white" stroke="none" points="-4,4 -4,-432.25 922.62,-432.25 922.62,4 -4,4"/>
<!-- 107374182529 -->
<g id="node1" class="node">
<title>107374182529</title>
<polygon fill="none" stroke="black" points="327,-428.25 54.5,-428.25 54.5,-388.75 327,-388.75 327,-428.25"/>
<text xml:space="preserve" text-anchor="start" x="153.62" y="-410.95" font-family="Times,serif" font-size="14.00">METHOD, 961</text>
<text xml:space="preserve" text-anchor="start" x="62.5" y="-395.2" font-family="Times,serif" font-size="14.00">report_course_roster&lt;metaClassAdapter&gt;</text>
</g>
<!-- 111669149967 -->
<g id="node3" class="node">
<title>111669149967</title>
<polygon fill="none" stroke="black" points="83.5,-279.5 0,-279.5 0,-240 83.5,-240 83.5,-279.5"/>
<text xml:space="preserve" text-anchor="start" x="8" y="-262.2" font-family="Times,serif" font-size="14.00">PARAM, 961</text>
<text xml:space="preserve" text-anchor="start" x="31.62" y="-246.45" font-family="Times,serif" font-size="14.00">cls</text>
</g>
<!-- 107374182529&#45;&gt;111669149967 -->
<g id="edge6" class="edge">
<title>107374182529&#45;&gt;111669149967</title>
<path fill="none" stroke="black" d="M144.73,-388.28C121.67,-376.53 95.05,-359.43 77.75,-337 66.99,-323.05 58.39,-305.37 52.3,-290.55"/>
<polygon fill="black" stroke="black" points="55.58,-289.33 48.69,-281.29 49.06,-291.87 55.58,-289.33"/>
<text xml:space="preserve" text-anchor="middle" x="130.71" y="-357.45" font-family="Times,serif" font-size="14.00">DDG: </text>
</g>
<!-- 111669149968 -->
<g id="node4" class="node">
<title>111669149968</title>
<polygon fill="none" stroke="black" points="170.5,-337 87,-337 87,-297.5 170.5,-297.5 170.5,-337"/>
<text xml:space="preserve" text-anchor="start" x="95" y="-319.7" font-family="Times,serif" font-size="14.00">PARAM, 961</text>
<text xml:space="preserve" text-anchor="start" x="115.25" y="-303.95" font-family="Times,serif" font-size="14.00">self</text>
</g>
<!-- 107374182529&#45;&gt;111669149968 -->
<g id="edge7" class="edge">
<title>107374182529&#45;&gt;111669149968</title>
<path fill="none" stroke="black" d="M177.6,-388.57C169.19,-376.47 158.12,-360.53 148.65,-346.9"/>
<polygon fill="black" stroke="black" points="151.54,-344.92 142.96,-338.7 145.79,-348.91 151.54,-344.92"/>
<text xml:space="preserve" text-anchor="middle" x="180.34" y="-357.45" font-family="Times,serif" font-size="14.00">DDG: </text>
</g>
<!-- 111669149969 -->
<g id="node5" class="node">
<title>111669149969</title>
<polygon fill="none" stroke="black" points="272.5,-337 189,-337 189,-297.5 272.5,-297.5 272.5,-337"/>
<text xml:space="preserve" text-anchor="start" x="197" y="-319.7" font-family="Times,serif" font-size="14.00">PARAM, 961</text>
<text xml:space="preserve" text-anchor="start" x="197" y="-303.95" font-family="Times,serif" font-size="14.00">section_id</text>
</g>
<!-- 107374182529&#45;&gt;111669149969 -->
<g id="edge8" class="edge">
<title>107374182529&#45;&gt;111669149969</title>
<path fill="none" stroke="black" d="M199.23,-388.57C204.55,-376.7 211.52,-361.15 217.55,-347.69"/>
<polygon fill="black" stroke="black" points="220.63,-349.4 221.52,-338.84 214.24,-346.53 220.63,-349.4"/>
<text xml:space="preserve" text-anchor="middle" x="230.02" y="-357.45" font-family="Times,serif" font-size="14.00">DDG: </text>
</g>
<!-- 30064773410 -->
<g id="node7" class="node">
<title>30064773410</title>
<polygon fill="none" stroke="black" points="545.25,-222 16.25,-222 16.25,-182.5 545.25,-182.5 545.25,-222"/>
<text xml:space="preserve" text-anchor="start" x="24.25" y="-204.7" font-family="Times,serif" font-size="14.00">AI_generated_code_1.py:&lt;module&gt;.RegistrationSystem.report_course_roster, 961</text>
<text xml:space="preserve" text-anchor="start" x="152.5" y="-188.95" font-family="Times,serif" font-size="14.00">report_course_roster(self, section_id)</text>
</g>
<!-- 107374182529&#45;&gt;30064773410 -->
<g id="edge11" class="edge">
<title>107374182529&#45;&gt;30064773410</title>
<path fill="none" stroke="black" d="M225.03,-388.4C259.01,-367.08 308.3,-328.96 324.75,-279.5 330.29,-262.84 332.19,-255.9 324.75,-240 323.19,-236.66 321.16,-233.53 318.83,-230.6"/>
<polygon fill="black" stroke="black" points="321.57,-228.4 312.16,-223.55 316.49,-233.21 321.57,-228.4"/>
<text xml:space="preserve" text-anchor="middle" x="332.88" y="-311.82" font-family="Times,serif" font-size="14.00">DDG: </text>
</g>
<!-- 124554051713 -->
<g id="node2" class="node">
<title>124554051713</title>
<polygon fill="none" stroke="black" points="222.5,-39.5 85,-39.5 85,0 222.5,0 222.5,-39.5"/>
<text xml:space="preserve" text-anchor="start" x="93" y="-22.2" font-family="Times,serif" font-size="14.00">METHOD_RETURN, 961</text>
<text xml:space="preserve" text-anchor="start" x="109.88" y="-6.45" font-family="Times,serif" font-size="14.00">__builtin.str</text>
</g>
<!-- 111669149967&#45;&gt;124554051713 -->
<g id="edge2" class="edge">
<title>111669149967&#45;&gt;124554051713</title>
<path fill="none" stroke="black" d="M18.58,-239.8C13.77,-234.59 9.37,-228.54 6.75,-222 0.23,-205.7 2.16,-199.45 6.75,-182.5 23.56,-120.4 32.75,-101.43 79.75,-57.5 84.45,-53.11 89.77,-49.13 95.36,-45.55"/>
<polygon fill="black" stroke="black" points="96.8,-48.76 103.64,-40.67 93.24,-42.73 96.8,-48.76"/>
<text xml:space="preserve" text-anchor="middle" x="43.28" y="-151.2" font-family="Times,serif" font-size="14.00">DDG: cls</text>
</g>
<!-- 111669149968&#45;&gt;30064773410 -->
<g id="edge10" class="edge">
<title>111669149968&#45;&gt;30064773410</title>
<path fill="none" stroke="black" d="M129.89,-297.02C131.93,-279.8 137.56,-255.01 153,-240 157.72,-235.41 162.97,-231.39 168.57,-227.87"/>
<polygon fill="black" stroke="black" points="169.99,-231.09 176.99,-223.13 166.56,-224.98 169.99,-231.09"/>
<text xml:space="preserve" text-anchor="middle" x="183.38" y="-254.32" font-family="Times,serif" font-size="14.00">DDG: self</text>
</g>
<!-- 111669149969&#45;&gt;30064773410 -->
<g id="edge12" class="edge">
<title>111669149969&#45;&gt;30064773410</title>
<path fill="none" stroke="black" d="M223.23,-297.18C218.12,-280.98 213.87,-257.62 223.5,-240 225.52,-236.31 228.08,-232.94 230.99,-229.86"/>
<polygon fill="black" stroke="black" points="233.11,-232.66 238.28,-223.41 228.47,-227.42 233.11,-232.66"/>
<text xml:space="preserve" text-anchor="middle" x="274.12" y="-254.32" font-family="Times,serif" font-size="14.00">DDG: section_id</text>
</g>
<!-- 141733920943 -->
<g id="node6" class="node">
<title>141733920943</title>
<polygon fill="none" stroke="black" points="918.62,-130.75 598.88,-130.75 598.88,-91.25 918.62,-91.25 918.62,-130.75"/>
<text xml:space="preserve" text-anchor="start" x="721.62" y="-113.45" font-family="Times,serif" font-size="14.00">RETURN, 961</text>
<text xml:space="preserve" text-anchor="start" x="606.88" y="-97.7" font-family="Times,serif" font-size="14.00">return report_course_roster(self, section_id)</text>
</g>
<!-- 141733920943&#45;&gt;124554051713 -->
<g id="edge1" class="edge">
<title>141733920943&#45;&gt;124554051713</title>
<path fill="none" stroke="black" d="M628.59,-90.8C508.71,-73.11 334.63,-47.43 233.94,-32.58"/>
<polygon fill="black" stroke="black" points="234.53,-29.13 224.12,-31.13 233.51,-36.05 234.53,-29.13"/>
<text xml:space="preserve" text-anchor="middle" x="526.22" y="-59.95" font-family="Times,serif" font-size="14.00">DDG: &lt;RET&gt;</text>
</g>
<!-- 30064773410&#45;&gt;124554051713 -->
<g id="edge3" class="edge">
<title>30064773410&#45;&gt;124554051713</title>
<path fill="none" stroke="black" d="M137.31,-182.03C110.55,-171.38 86.24,-155.2 71,-130.75 52.18,-100.55 83.24,-68.27 112.53,-46.55"/>
<polygon fill="black" stroke="black" points="114.55,-49.4 120.68,-40.76 110.5,-43.7 114.55,-49.4"/>
<text xml:space="preserve" text-anchor="middle" x="101.38" y="-105.58" font-family="Times,serif" font-size="14.00">DDG: self</text>
</g>
<!-- 30064773410&#45;&gt;124554051713 -->
<g id="edge4" class="edge">
<title>30064773410&#45;&gt;124554051713</title>
<path fill="none" stroke="black" d="M230.63,-182.09C207.65,-170.69 182.29,-153.87 167.5,-130.75 152.4,-107.14 150.03,-74.8 150.79,-51.3"/>
<polygon fill="black" stroke="black" points="154.28,-51.6 151.34,-41.42 147.29,-51.21 154.28,-51.6"/>
<text xml:space="preserve" text-anchor="middle" x="218.12" y="-105.58" font-family="Times,serif" font-size="14.00">DDG: section_id</text>
</g>
<!-- 30064773410&#45;&gt;124554051713 -->
<g id="edge5" class="edge">
<title>30064773410&#45;&gt;124554051713</title>
<path fill="none" stroke="black" d="M283.47,-182.1C285.78,-158.76 286.33,-119 268.75,-91.25 256.15,-71.37 235.72,-56.23 215.54,-45.17"/>
<polygon fill="black" stroke="black" points="217.21,-42.1 206.72,-40.61 214,-48.31 217.21,-42.1"/>
<text xml:space="preserve" text-anchor="middle" x="427.58" y="-105.58" font-family="Times,serif" font-size="14.00">DDG: report_course_roster(self, section_id)</text>
</g>
<!-- 30064773410&#45;&gt;141733920943 -->
<g id="edge9" class="edge">
<title>30064773410&#45;&gt;141733920943</title>
<path fill="none" stroke="black" d="M383.59,-182.05C460.37,-167.71 565.29,-148.12 644.66,-133.3"/>
<polygon fill="black" stroke="black" points="645,-136.8 654.19,-131.52 643.72,-129.92 645,-136.8"/>
<text xml:space="preserve" text-anchor="middle" x="693.49" y="-151.2" font-family="Times,serif" font-size="14.00">DDG: report_course_roster(self, section_id)</text>
</g>
</g>
</svg>
