<?xml version="1.0" encoding="UTF-8" standalone="no"?>
<!DOCTYPE svg PUBLIC "-//W3C//DTD SVG 1.1//EN"
 "http://www.w3.org/Graphics/SVG/1.1/DTD/svg11.dtd">
<!-- Generated by graphviz version 13.1.2 (20250809.0930)
 -->
<!-- Title: &lt;metaClassCallHandler&gt; Pages: 1 -->
<svg width="733pt" height="321pt"
 viewBox="0.00 0.00 733.00 321.00" xmlns="http://www.w3.org/2000/svg" xmlns:xlink="http://www.w3.org/1999/xlink">
<g id="graph0" class="graph" transform="scale(1 1) rotate(0) translate(4 317.25)">
<title>&lt;metaClassCallHandler&gt;</title>
<polygon fill="white" stroke="none" points="-4,4 -4,-317.25 728.75,-317.25 728.75,4 -4,4"/>
<!-- 107374182413 -->
<g id="node1" class="node">
<title>107374182413</title>
<polygon fill="none" stroke="black" points="221.88,-313.25 57.38,-313.25 57.38,-273.75 221.88,-273.75 221.88,-313.25"/>
<text xml:space="preserve" text-anchor="start" x="102.5" y="-295.95" font-family="Times,serif" font-size="14.00">METHOD, 226</text>
<text xml:space="preserve" text-anchor="start" x="65.38" y="-280.2" font-family="Times,serif" font-size="14.00">&lt;metaClassCallHandler&gt;</text>
</g>
<!-- 30064771344 -->
<g id="node4" class="node">
<title>30064771344</title>
<polygon fill="none" stroke="black" points="269.12,-222 10.12,-222 10.12,-182.5 269.12,-182.5 269.12,-222"/>
<text xml:space="preserve" text-anchor="start" x="122.75" y="-204.7" font-family="Times,serif" font-size="14.00">, 226</text>
<text xml:space="preserve" text-anchor="start" x="18.12" y="-188.95" font-family="Times,serif" font-size="14.00">class Student&lt;meta&gt;(...).&lt;fakeNew&gt;()</text>
</g>
<!-- 107374182413&#45;&gt;30064771344 -->
<g id="edge4" class="edge">
<title>107374182413&#45;&gt;30064771344</title>
<path fill="none" stroke="black" d="M139.62,-273.57C139.62,-262.05 139.62,-247.07 139.62,-233.9"/>
<polygon fill="black" stroke="black" points="143.13,-233.97 139.63,-223.97 136.13,-233.97 143.13,-233.97"/>
<text xml:space="preserve" text-anchor="middle" x="156.5" y="-242.45" font-family="Times,serif" font-size="14.00">DDG: </text>
</g>
<!-- 124554051597 -->
<g id="node2" class="node">
<title>124554051597</title>
<polygon fill="none" stroke="black" points="279.25,-39.5 0,-39.5 0,0 279.25,0 279.25,-39.5"/>
<text xml:space="preserve" text-anchor="start" x="78.88" y="-22.2" font-family="Times,serif" font-size="14.00">METHOD_RETURN, 226</text>
<text xml:space="preserve" text-anchor="start" x="8" y="-6.45" font-family="Times,serif" font-size="14.00">AI_generated_code_1.py:&lt;module&gt;.Student</text>
</g>
<!-- 141733920782 -->
<g id="node3" class="node">
<title>141733920782</title>
<polygon fill="none" stroke="black" points="724.75,-130.75 418.5,-130.75 418.5,-91.25 724.75,-91.25 724.75,-130.75"/>
<text xml:space="preserve" text-anchor="start" x="534.5" y="-113.45" font-family="Times,serif" font-size="14.00">RETURN, 226</text>
<text xml:space="preserve" text-anchor="start" x="426.5" y="-97.7" font-family="Times,serif" font-size="14.00">return class Student&lt;meta&gt;(...).&lt;fakeNew&gt;()</text>
</g>
<!-- 141733920782&#45;&gt;124554051597 -->
<g id="edge1" class="edge">
<title>141733920782&#45;&gt;124554051597</title>
<path fill="none" stroke="black" d="M478.68,-90.8C409.57,-76.52 315.24,-57.03 243.62,-42.24"/>
<polygon fill="black" stroke="black" points="244.76,-38.9 234.26,-40.3 243.34,-45.75 244.76,-38.9"/>
<text xml:space="preserve" text-anchor="middle" x="415.24" y="-59.95" font-family="Times,serif" font-size="14.00">DDG: &lt;RET&gt;</text>
</g>
<!-- 30064771344&#45;&gt;124554051597 -->
<g id="edge2" class="edge">
<title>30064771344&#45;&gt;124554051597</title>
<path fill="none" stroke="black" d="M137.3,-182.14C135.69,-167.97 133.71,-148.19 132.88,-130.75 132.04,-113.21 132.04,-108.79 132.88,-91.25 133.51,-78.03 134.8,-63.47 136.09,-51.03"/>
<polygon fill="black" stroke="black" points="139.54,-51.69 137.13,-41.37 132.58,-50.93 139.54,-51.69"/>
<text xml:space="preserve" text-anchor="middle" x="271.25" y="-105.58" font-family="Times,serif" font-size="14.00">DDG: class Student&lt;meta&gt;(...).&lt;fakeNew&gt;()</text>
</g>
<!-- 30064771344&#45;&gt;141733920782 -->
<g id="edge3" class="edge">
<title>30064771344&#45;&gt;141733920782</title>
<path fill="none" stroke="black" d="M232.57,-182.05C301.68,-167.77 396.01,-148.28 467.63,-133.49"/>
<polygon fill="black" stroke="black" points="467.91,-137 476.99,-131.55 466.49,-130.15 467.91,-137"/>
<text xml:space="preserve" text-anchor="middle" x="519.86" y="-151.2" font-family="Times,serif" font-size="14.00">DDG: class Student&lt;meta&gt;(...).&lt;fakeNew&gt;()</text>
</g>
</g>
</svg>
