<?xml version="1.0" encoding="UTF-8" standalone="no"?>
<!DOCTYPE svg PUBLIC "-//W3C//DTD SVG 1.1//EN"
 "http://www.w3.org/Graphics/SVG/1.1/DTD/svg11.dtd">
<!-- Generated by graphviz version 13.1.2 (20250809.0930)
 -->
<!-- Title: report_system_summary&lt;metaClassAdapter&gt; Pages: 1 -->
<svg width="753pt" height="436pt"
 viewBox="0.00 0.00 753.00 436.00" xmlns="http://www.w3.org/2000/svg" xmlns:xlink="http://www.w3.org/1999/xlink">
<g id="graph0" class="graph" transform="scale(1 1) rotate(0) translate(4 432.25)">
<title>report_system_summary&lt;metaClassAdapter&gt;</title>
<polygon fill="white" stroke="none" points="-4,4 -4,-432.25 748.88,-432.25 748.88,4 -4,4"/>
<!-- 107374182533 -->
<g id="node1" class="node">
<title>107374182533</title>
<polygon fill="none" stroke="black" points="365.75,-428.25 86.5,-428.25 86.5,-388.75 365.75,-388.75 365.75,-428.25"/>
<text xml:space="preserve" text-anchor="start" x="185.62" y="-410.95" font-family="Times,serif" font-size="14.00">METHOD, 1051</text>
<text xml:space="preserve" text-anchor="start" x="94.5" y="-395.2" font-family="Times,serif" font-size="14.00">report_system_summary&lt;metaClassAdapter&gt;</text>
</g>
<!-- 111669149977 -->
<g id="node3" class="node">
<title>111669149977</title>
<polygon fill="none" stroke="black" points="90.25,-279.5 0,-279.5 0,-240 90.25,-240 90.25,-279.5"/>
<text xml:space="preserve" text-anchor="start" x="8" y="-262.2" font-family="Times,serif" font-size="14.00">PARAM, 1051</text>
<text xml:space="preserve" text-anchor="start" x="35" y="-246.45" font-family="Times,serif" font-size="14.00">cls</text>
</g>
<!-- 107374182533&#45;&gt;111669149977 -->
<g id="edge5" class="edge">
<title>107374182533&#45;&gt;111669149977</title>
<path fill="none" stroke="black" d="M202.46,-388.32C170.48,-362.39 113.35,-316.06 77.44,-286.95"/>
<polygon fill="black" stroke="black" points="79.94,-284.47 69.97,-280.89 75.53,-289.91 79.94,-284.47"/>
<text xml:space="preserve" text-anchor="middle" x="197.22" y="-357.45" font-family="Times,serif" font-size="14.00">DDG: </text>
</g>
<!-- 111669149978 -->
<g id="node4" class="node">
<title>111669149978</title>
<polygon fill="none" stroke="black" points="271.25,-337 181,-337 181,-297.5 271.25,-297.5 271.25,-337"/>
<text xml:space="preserve" text-anchor="start" x="189" y="-319.7" font-family="Times,serif" font-size="14.00">PARAM, 1051</text>
<text xml:space="preserve" text-anchor="start" x="212.62" y="-303.95" font-family="Times,serif" font-size="14.00">self</text>
</g>
<!-- 107374182533&#45;&gt;111669149978 -->
<g id="edge6" class="edge">
<title>107374182533&#45;&gt;111669149978</title>
<path fill="none" stroke="black" d="M226.12,-388.57C226.12,-377.05 226.12,-362.07 226.12,-348.9"/>
<polygon fill="black" stroke="black" points="229.63,-348.97 226.13,-338.97 222.63,-348.97 229.63,-348.97"/>
<text xml:space="preserve" text-anchor="middle" x="243" y="-357.45" font-family="Times,serif" font-size="14.00">DDG: </text>
</g>
<!-- 30064773414 -->
<g id="node6" class="node">
<title>30064773414</title>
<polygon fill="none" stroke="black" points="578.38,-222 35.88,-222 35.88,-182.5 578.38,-182.5 578.38,-222"/>
<text xml:space="preserve" text-anchor="start" x="43.88" y="-204.7" font-family="Times,serif" font-size="14.00">AI_generated_code_1.py:&lt;module&gt;.RegistrationSystem.report_system_summary, 1051</text>
<text xml:space="preserve" text-anchor="start" x="216" y="-188.95" font-family="Times,serif" font-size="14.00">report_system_summary(self)</text>
</g>
<!-- 107374182533&#45;&gt;30064773414 -->
<g id="edge9" class="edge">
<title>107374182533&#45;&gt;30064773414</title>
<path fill="none" stroke="black" d="M248.45,-388.51C253.99,-383.12 259.63,-377.01 264.12,-370.75 293.77,-329.44 303.01,-269.48 305.87,-233.63"/>
<polygon fill="black" stroke="black" points="309.34,-234.18 306.51,-223.96 302.36,-233.71 309.34,-234.18"/>
<text xml:space="preserve" text-anchor="middle" x="312.06" y="-311.82" font-family="Times,serif" font-size="14.00">DDG: </text>
</g>
<!-- 124554051717 -->
<g id="node2" class="node">
<title>124554051717</title>
<polygon fill="none" stroke="black" points="288.25,-39.5 144,-39.5 144,0 288.25,0 288.25,-39.5"/>
<text xml:space="preserve" text-anchor="start" x="152" y="-22.2" font-family="Times,serif" font-size="14.00">METHOD_RETURN, 1051</text>
<text xml:space="preserve" text-anchor="start" x="172.25" y="-6.45" font-family="Times,serif" font-size="14.00">__builtin.str</text>
</g>
<!-- 111669149977&#45;&gt;124554051717 -->
<g id="edge2" class="edge">
<title>111669149977&#45;&gt;124554051717</title>
<path fill="none" stroke="black" d="M33.88,-239.57C26.14,-223.72 18.65,-200.91 27.12,-182.5 55.98,-119.82 122.44,-72.37 168.32,-45.56"/>
<polygon fill="black" stroke="black" points="169.81,-48.74 176.75,-40.74 166.33,-42.67 169.81,-48.74"/>
<text xml:space="preserve" text-anchor="middle" x="72.39" y="-151.2" font-family="Times,serif" font-size="14.00">DDG: cls</text>
</g>
<!-- 111669149978&#45;&gt;30064773414 -->
<g id="edge8" class="edge">
<title>111669149978&#45;&gt;30064773414</title>
<path fill="none" stroke="black" d="M222.79,-297.31C220.94,-280.75 220.94,-256.8 232.38,-240 235.12,-235.97 238.44,-232.36 242.14,-229.13"/>
<polygon fill="black" stroke="black" points="244.21,-231.96 250.14,-223.18 240.03,-226.34 244.21,-231.96"/>
<text xml:space="preserve" text-anchor="middle" x="262.75" y="-254.32" font-family="Times,serif" font-size="14.00">DDG: self</text>
</g>
<!-- 141733920947 -->
<g id="node5" class="node">
<title>141733920947</title>
<polygon fill="none" stroke="black" points="744.88,-130.75 499.38,-130.75 499.38,-91.25 744.88,-91.25 744.88,-130.75"/>
<text xml:space="preserve" text-anchor="start" x="581.62" y="-113.45" font-family="Times,serif" font-size="14.00">RETURN, 1051</text>
<text xml:space="preserve" text-anchor="start" x="507.38" y="-97.7" font-family="Times,serif" font-size="14.00">return report_system_summary(self)</text>
</g>
<!-- 141733920947&#45;&gt;124554051717 -->
<g id="edge1" class="edge">
<title>141733920947&#45;&gt;124554051717</title>
<path fill="none" stroke="black" d="M535.03,-90.85C465.39,-75.55 368.39,-54.22 299.7,-39.12"/>
<polygon fill="black" stroke="black" points="300.5,-35.71 289.98,-36.99 299,-42.55 300.5,-35.71"/>
<text xml:space="preserve" text-anchor="middle" x="477.18" y="-59.95" font-family="Times,serif" font-size="14.00">DDG: &lt;RET&gt;</text>
</g>
<!-- 30064773414&#45;&gt;124554051717 -->
<g id="edge3" class="edge">
<title>30064773414&#45;&gt;124554051717</title>
<path fill="none" stroke="black" d="M246.12,-182.12C221.82,-171.17 196.35,-154.71 182.38,-130.75 167.47,-105.2 181.1,-72.4 195.24,-49.29"/>
<polygon fill="black" stroke="black" points="198.12,-51.28 200.64,-40.99 192.25,-47.47 198.12,-51.28"/>
<text xml:space="preserve" text-anchor="middle" x="212.75" y="-105.58" font-family="Times,serif" font-size="14.00">DDG: self</text>
</g>
<!-- 30064773414&#45;&gt;124554051717 -->
<g id="edge4" class="edge">
<title>30064773414&#45;&gt;124554051717</title>
<path fill="none" stroke="black" d="M297.56,-182.27C281.65,-150.72 249.66,-87.26 230.85,-49.97"/>
<polygon fill="black" stroke="black" points="234.01,-48.45 226.38,-41.09 227.76,-51.6 234.01,-48.45"/>
<text xml:space="preserve" text-anchor="middle" x="378.67" y="-105.58" font-family="Times,serif" font-size="14.00">DDG: report_system_summary(self)</text>
</g>
<!-- 30064773414&#45;&gt;141733920947 -->
<g id="edge7" class="edge">
<title>30064773414&#45;&gt;141733920947</title>
<path fill="none" stroke="black" d="M374.7,-182.1C424.23,-168.07 491.62,-148.98 543.55,-134.26"/>
<polygon fill="black" stroke="black" points="544.27,-137.7 552.93,-131.6 542.36,-130.96 544.27,-137.7"/>
<text xml:space="preserve" text-anchor="middle" x="591.48" y="-151.2" font-family="Times,serif" font-size="14.00">DDG: report_system_summary(self)</text>
</g>
</g>
</svg>
