<?xml version="1.0" encoding="UTF-8" standalone="no"?>
<!DOCTYPE svg PUBLIC "-//W3C//DTD SVG 1.1//EN"
 "http://www.w3.org/Graphics/SVG/1.1/DTD/svg11.dtd">
<!-- Generated by graphviz version 13.1.2 (20250809.0930)
 -->
<!-- Title: save_to_file&lt;metaClassAdapter&gt; Pages: 1 -->
<svg width="784pt" height="436pt"
 viewBox="0.00 0.00 784.00 436.00" xmlns="http://www.w3.org/2000/svg" xmlns:xlink="http://www.w3.org/1999/xlink">
<g id="graph0" class="graph" transform="scale(1 1) rotate(0) translate(4 432.25)">
<title>save_to_file&lt;metaClassAdapter&gt;</title>
<polygon fill="white" stroke="none" points="-4,4 -4,-432.25 780.25,-432.25 780.25,4 -4,4"/>
<!-- 107374182535 -->
<g id="node1" class="node">
<title>107374182535</title>
<polygon fill="none" stroke="black" points="299.38,-428.25 80.88,-428.25 80.88,-388.75 299.38,-388.75 299.38,-428.25"/>
<text xml:space="preserve" text-anchor="start" x="149.62" y="-410.95" font-family="Times,serif" font-size="14.00">METHOD, 1095</text>
<text xml:space="preserve" text-anchor="start" x="88.88" y="-395.2" font-family="Times,serif" font-size="14.00">save_to_file&lt;metaClassAdapter&gt;</text>
</g>
<!-- 111669149981 -->
<g id="node3" class="node">
<title>111669149981</title>
<polygon fill="none" stroke="black" points="90.25,-279.5 0,-279.5 0,-240 90.25,-240 90.25,-279.5"/>
<text xml:space="preserve" text-anchor="start" x="8" y="-262.2" font-family="Times,serif" font-size="14.00">PARAM, 1095</text>
<text xml:space="preserve" text-anchor="start" x="35" y="-246.45" font-family="Times,serif" font-size="14.00">cls</text>
</g>
<!-- 107374182535&#45;&gt;111669149981 -->
<g id="edge6" class="edge">
<title>107374182535&#45;&gt;111669149981</title>
<path fill="none" stroke="black" d="M136.72,-388.38C112.51,-377.06 85.66,-360.29 69.12,-337 59.49,-323.43 53.61,-305.84 50.09,-290.97"/>
<polygon fill="black" stroke="black" points="53.53,-290.31 48.05,-281.24 46.68,-291.75 53.53,-290.31"/>
<text xml:space="preserve" text-anchor="middle" x="121.23" y="-357.45" font-family="Times,serif" font-size="14.00">DDG: </text>
</g>
<!-- 111669149982 -->
<g id="node4" class="node">
<title>111669149982</title>
<polygon fill="none" stroke="black" points="168.25,-337 78,-337 78,-297.5 168.25,-297.5 168.25,-337"/>
<text xml:space="preserve" text-anchor="start" x="86" y="-319.7" font-family="Times,serif" font-size="14.00">PARAM, 1095</text>
<text xml:space="preserve" text-anchor="start" x="109.62" y="-303.95" font-family="Times,serif" font-size="14.00">self</text>
</g>
<!-- 107374182535&#45;&gt;111669149982 -->
<g id="edge7" class="edge">
<title>107374182535&#45;&gt;111669149982</title>
<path fill="none" stroke="black" d="M175.92,-388.57C166.74,-376.35 154.64,-360.22 144.33,-346.5"/>
<polygon fill="black" stroke="black" points="147.26,-344.56 138.45,-338.67 141.66,-348.77 147.26,-344.56"/>
<text xml:space="preserve" text-anchor="middle" x="177.51" y="-357.45" font-family="Times,serif" font-size="14.00">DDG: </text>
</g>
<!-- 111669149983 -->
<g id="node5" class="node">
<title>111669149983</title>
<polygon fill="none" stroke="black" points="276.25,-337 186,-337 186,-297.5 276.25,-297.5 276.25,-337"/>
<text xml:space="preserve" text-anchor="start" x="194" y="-319.7" font-family="Times,serif" font-size="14.00">PARAM, 1095</text>
<text xml:space="preserve" text-anchor="start" x="204.12" y="-303.95" font-family="Times,serif" font-size="14.00">filename</text>
</g>
<!-- 107374182535&#45;&gt;111669149983 -->
<g id="edge8" class="edge">
<title>107374182535&#45;&gt;111669149983</title>
<path fill="none" stroke="black" d="M198.82,-388.57C204.27,-376.7 211.42,-361.15 217.6,-347.69"/>
<polygon fill="black" stroke="black" points="220.68,-349.38 221.67,-338.83 214.31,-346.46 220.68,-349.38"/>
<text xml:space="preserve" text-anchor="middle" x="229.95" y="-357.45" font-family="Times,serif" font-size="14.00">DDG: </text>
</g>
<!-- 30064773416 -->
<g id="node7" class="node">
<title>30064773416</title>
<polygon fill="none" stroke="black" points="503,-222 21.25,-222 21.25,-182.5 503,-182.5 503,-222"/>
<text xml:space="preserve" text-anchor="start" x="29.25" y="-204.7" font-family="Times,serif" font-size="14.00">AI_generated_code_1.py:&lt;module&gt;.RegistrationSystem.save_to_file, 1095</text>
<text xml:space="preserve" text-anchor="start" x="167.62" y="-188.95" font-family="Times,serif" font-size="14.00">save_to_file(self, filename)</text>
</g>
<!-- 107374182535&#45;&gt;30064773416 -->
<g id="edge11" class="edge">
<title>107374182535&#45;&gt;30064773416</title>
<path fill="none" stroke="black" d="M229.86,-388.29C249.92,-376.41 272.6,-359.18 285.12,-337 306.54,-299.07 315.86,-280.21 299.12,-240 297.85,-236.94 296.19,-234.01 294.27,-231.23"/>
<polygon fill="black" stroke="black" points="297.01,-229.04 287.94,-223.56 291.61,-233.5 297.01,-229.04"/>
<text xml:space="preserve" text-anchor="middle" x="321" y="-311.82" font-family="Times,serif" font-size="14.00">DDG: </text>
</g>
<!-- 124554051719 -->
<g id="node2" class="node">
<title>124554051719</title>
<polygon fill="none" stroke="black" points="231.25,-39.5 87,-39.5 87,0 231.25,0 231.25,-39.5"/>
<text xml:space="preserve" text-anchor="start" x="95" y="-22.2" font-family="Times,serif" font-size="14.00">METHOD_RETURN, 1095</text>
<text xml:space="preserve" text-anchor="start" x="118.62" y="-6.45" font-family="Times,serif" font-size="14.00">typing.Tuple</text>
</g>
<!-- 111669149981&#45;&gt;124554051719 -->
<g id="edge2" class="edge">
<title>111669149981&#45;&gt;124554051719</title>
<path fill="none" stroke="black" d="M23.26,-239.61C18.72,-234.4 14.58,-228.41 12.12,-222 5.84,-205.61 7.54,-199.45 12.12,-182.5 28.93,-120.4 38.12,-101.43 85.12,-57.5 89.82,-53.11 95.15,-49.13 100.73,-45.55"/>
<polygon fill="black" stroke="black" points="102.17,-48.76 109.01,-40.67 98.62,-42.73 102.17,-48.76"/>
<text xml:space="preserve" text-anchor="middle" x="48.66" y="-151.2" font-family="Times,serif" font-size="14.00">DDG: cls</text>
</g>
<!-- 111669149982&#45;&gt;30064773416 -->
<g id="edge10" class="edge">
<title>111669149982&#45;&gt;30064773416</title>
<path fill="none" stroke="black" d="M122.94,-297.17C123.81,-280.05 127.79,-255.34 142.38,-240 146.64,-235.52 151.43,-231.58 156.58,-228.12"/>
<polygon fill="black" stroke="black" points="158.11,-231.28 164.91,-223.16 154.52,-225.27 158.11,-231.28"/>
<text xml:space="preserve" text-anchor="middle" x="172.75" y="-254.32" font-family="Times,serif" font-size="14.00">DDG: self</text>
</g>
<!-- 111669149983&#45;&gt;30064773416 -->
<g id="edge12" class="edge">
<title>111669149983&#45;&gt;30064773416</title>
<path fill="none" stroke="black" d="M218.97,-297.25C210.43,-281.31 202.05,-258.27 211.38,-240 213.19,-236.45 215.52,-233.17 218.18,-230.15"/>
<polygon fill="black" stroke="black" points="220.49,-232.78 225.33,-223.35 215.67,-227.71 220.49,-232.78"/>
<text xml:space="preserve" text-anchor="middle" x="255.25" y="-254.32" font-family="Times,serif" font-size="14.00">DDG: filename</text>
</g>
<!-- 141733920949 -->
<g id="node6" class="node">
<title>141733920949</title>
<polygon fill="none" stroke="black" points="776.25,-130.75 524,-130.75 524,-91.25 776.25,-91.25 776.25,-130.75"/>
<text xml:space="preserve" text-anchor="start" x="609.62" y="-113.45" font-family="Times,serif" font-size="14.00">RETURN, 1095</text>
<text xml:space="preserve" text-anchor="start" x="532" y="-97.7" font-family="Times,serif" font-size="14.00">return save_to_file(self, filename)</text>
</g>
<!-- 141733920949&#45;&gt;124554051719 -->
<g id="edge1" class="edge">
<title>141733920949&#45;&gt;124554051719</title>
<path fill="none" stroke="black" d="M544.49,-90.8C454.22,-74.39 326.09,-51.1 242.79,-35.96"/>
<polygon fill="black" stroke="black" points="243.55,-32.54 233.09,-34.19 242.3,-39.43 243.55,-32.54"/>
<text xml:space="preserve" text-anchor="middle" x="467.77" y="-59.95" font-family="Times,serif" font-size="14.00">DDG: &lt;RET&gt;</text>
</g>
<!-- 30064773416&#45;&gt;124554051719 -->
<g id="edge3" class="edge">
<title>30064773416&#45;&gt;124554051719</title>
<path fill="none" stroke="black" d="M144.48,-182.03C117.26,-171.58 91.79,-155.49 76.38,-130.75 57.56,-100.55 88.62,-68.27 117.91,-46.55"/>
<polygon fill="black" stroke="black" points="119.93,-49.4 126.05,-40.76 115.87,-43.7 119.93,-49.4"/>
<text xml:space="preserve" text-anchor="middle" x="106.75" y="-105.58" font-family="Times,serif" font-size="14.00">DDG: self</text>
</g>
<!-- 30064773416&#45;&gt;124554051719 -->
<g id="edge4" class="edge">
<title>30064773416&#45;&gt;124554051719</title>
<path fill="none" stroke="black" d="M226.59,-182.16C207.6,-170.03 185.67,-152.51 173.38,-130.75 159.58,-106.33 156.87,-74.1 157.1,-50.85"/>
<polygon fill="black" stroke="black" points="160.59,-51.21 157.39,-41.11 153.59,-51 160.59,-51.21"/>
<text xml:space="preserve" text-anchor="middle" x="217.25" y="-105.58" font-family="Times,serif" font-size="14.00">DDG: filename</text>
</g>
<!-- 30064773416&#45;&gt;124554051719 -->
<g id="edge5" class="edge">
<title>30064773416&#45;&gt;124554051719</title>
<path fill="none" stroke="black" d="M267.01,-182.06C271.78,-159.03 276.33,-119.93 261.12,-91.25 250.87,-71.9 232.66,-56.8 214.43,-45.63"/>
<polygon fill="black" stroke="black" points="216.37,-42.7 205.96,-40.73 212.87,-48.77 216.37,-42.7"/>
<text xml:space="preserve" text-anchor="middle" x="382.53" y="-105.58" font-family="Times,serif" font-size="14.00">DDG: save_to_file(self, filename)</text>
</g>
<!-- 30064773416&#45;&gt;141733920949 -->
<g id="edge9" class="edge">
<title>30064773416&#45;&gt;141733920949</title>
<path fill="none" stroke="black" d="M345.36,-182.1C407.14,-167.89 491.46,-148.5 555.74,-133.71"/>
<polygon fill="black" stroke="black" points="556.26,-137.18 565.22,-131.53 554.69,-130.36 556.26,-137.18"/>
<text xml:space="preserve" text-anchor="middle" x="590.73" y="-151.2" font-family="Times,serif" font-size="14.00">DDG: save_to_file(self, filename)</text>
</g>
</g>
</svg>
