<?xml version="1.0" encoding="UTF-8" standalone="no"?>
<!DOCTYPE svg PUBLIC "-//W3C//DTD SVG 1.1//EN"
 "http://www.w3.org/Graphics/SVG/1.1/DTD/svg11.dtd">
<!-- Generated by graphviz version 13.1.2 (20250809.0930)
 -->
<!-- Title: search_courses&lt;metaClassAdapter&gt; Pages: 1 -->
<svg width="757pt" height="436pt"
 viewBox="0.00 0.00 757.00 436.00" xmlns="http://www.w3.org/2000/svg" xmlns:xlink="http://www.w3.org/1999/xlink">
<g id="graph0" class="graph" transform="scale(1 1) rotate(0) translate(4 432.25)">
<title>search_courses&lt;metaClassAdapter&gt;</title>
<polygon fill="white" stroke="none" points="-4,4 -4,-432.25 752.5,-432.25 752.5,4 -4,4"/>
<!-- 107374182536 -->
<g id="node1" class="node">
<title>107374182536</title>
<polygon fill="none" stroke="black" points="305.75,-428.25 73.75,-428.25 73.75,-388.75 305.75,-388.75 305.75,-428.25"/>
<text xml:space="preserve" text-anchor="start" x="152.62" y="-410.95" font-family="Times,serif" font-size="14.00">METHOD, 889</text>
<text xml:space="preserve" text-anchor="start" x="81.75" y="-395.2" font-family="Times,serif" font-size="14.00">search_courses&lt;metaClassAdapter&gt;</text>
</g>
<!-- 111669149984 -->
<g id="node3" class="node">
<title>111669149984</title>
<polygon fill="none" stroke="black" points="83.5,-279.5 0,-279.5 0,-240 83.5,-240 83.5,-279.5"/>
<text xml:space="preserve" text-anchor="start" x="8" y="-262.2" font-family="Times,serif" font-size="14.00">PARAM, 889</text>
<text xml:space="preserve" text-anchor="start" x="31.62" y="-246.45" font-family="Times,serif" font-size="14.00">cls</text>
</g>
<!-- 107374182536&#45;&gt;111669149984 -->
<g id="edge6" class="edge">
<title>107374182536&#45;&gt;111669149984</title>
<path fill="none" stroke="black" d="M143.63,-388.35C120.54,-376.63 93.93,-359.52 76.75,-337 66.12,-323.06 57.75,-305.38 51.86,-290.56"/>
<polygon fill="black" stroke="black" points="55.18,-289.43 48.38,-281.3 48.63,-291.89 55.18,-289.43"/>
<text xml:space="preserve" text-anchor="middle" x="129.6" y="-357.45" font-family="Times,serif" font-size="14.00">DDG: </text>
</g>
<!-- 111669149985 -->
<g id="node4" class="node">
<title>111669149985</title>
<polygon fill="none" stroke="black" points="169.5,-337 86,-337 86,-297.5 169.5,-297.5 169.5,-337"/>
<text xml:space="preserve" text-anchor="start" x="94" y="-319.7" font-family="Times,serif" font-size="14.00">PARAM, 889</text>
<text xml:space="preserve" text-anchor="start" x="114.25" y="-303.95" font-family="Times,serif" font-size="14.00">self</text>
</g>
<!-- 107374182536&#45;&gt;111669149985 -->
<g id="edge7" class="edge">
<title>107374182536&#45;&gt;111669149985</title>
<path fill="none" stroke="black" d="M176.6,-388.57C168.19,-376.47 157.12,-360.53 147.65,-346.9"/>
<polygon fill="black" stroke="black" points="150.54,-344.92 141.96,-338.7 144.79,-348.91 150.54,-344.92"/>
<text xml:space="preserve" text-anchor="middle" x="179.34" y="-357.45" font-family="Times,serif" font-size="14.00">DDG: </text>
</g>
<!-- 111669149986 -->
<g id="node5" class="node">
<title>111669149986</title>
<polygon fill="none" stroke="black" points="271.5,-337 188,-337 188,-297.5 271.5,-297.5 271.5,-337"/>
<text xml:space="preserve" text-anchor="start" x="196" y="-319.7" font-family="Times,serif" font-size="14.00">PARAM, 889</text>
<text xml:space="preserve" text-anchor="start" x="212.88" y="-303.95" font-family="Times,serif" font-size="14.00">query</text>
</g>
<!-- 107374182536&#45;&gt;111669149986 -->
<g id="edge8" class="edge">
<title>107374182536&#45;&gt;111669149986</title>
<path fill="none" stroke="black" d="M198.23,-388.57C203.55,-376.7 210.52,-361.15 216.55,-347.69"/>
<polygon fill="black" stroke="black" points="219.63,-349.4 220.52,-338.84 213.24,-346.53 219.63,-349.4"/>
<text xml:space="preserve" text-anchor="middle" x="229.02" y="-357.45" font-family="Times,serif" font-size="14.00">DDG: </text>
</g>
<!-- 30064773417 -->
<g id="node7" class="node">
<title>30064773417</title>
<polygon fill="none" stroke="black" points="513,-222 24.5,-222 24.5,-182.5 513,-182.5 513,-222"/>
<text xml:space="preserve" text-anchor="start" x="32.5" y="-204.7" font-family="Times,serif" font-size="14.00">AI_generated_code_1.py:&lt;module&gt;.RegistrationSystem.search_courses, 889</text>
<text xml:space="preserve" text-anchor="start" x="177.62" y="-188.95" font-family="Times,serif" font-size="14.00">search_courses(self, query)</text>
</g>
<!-- 107374182536&#45;&gt;30064773417 -->
<g id="edge11" class="edge">
<title>107374182536&#45;&gt;30064773417</title>
<path fill="none" stroke="black" d="M226.99,-388.53C246.47,-376.53 268.7,-359.11 280.75,-337 301.63,-298.7 309.34,-281.45 295.75,-240 294.84,-237.24 293.64,-234.51 292.25,-231.86"/>
<polygon fill="black" stroke="black" points="295.23,-230.04 286.94,-223.45 289.31,-233.77 295.23,-230.04"/>
<text xml:space="preserve" text-anchor="middle" x="315.84" y="-311.82" font-family="Times,serif" font-size="14.00">DDG: </text>
</g>
<!-- 124554051720 -->
<g id="node2" class="node">
<title>124554051720</title>
<polygon fill="none" stroke="black" points="233.5,-39.5 96,-39.5 96,0 233.5,0 233.5,-39.5"/>
<text xml:space="preserve" text-anchor="start" x="104" y="-22.2" font-family="Times,serif" font-size="14.00">METHOD_RETURN, 889</text>
<text xml:space="preserve" text-anchor="start" x="127.62" y="-6.45" font-family="Times,serif" font-size="14.00">typing.List</text>
</g>
<!-- 111669149984&#45;&gt;124554051720 -->
<g id="edge2" class="edge">
<title>111669149984&#45;&gt;124554051720</title>
<path fill="none" stroke="black" d="M25,-239.75C21.22,-234.36 17.74,-228.26 15.75,-222 10.43,-205.27 11.06,-199.42 15.75,-182.5 33.04,-120.06 43.15,-101.46 90.75,-57.5 95.48,-53.14 100.82,-49.17 106.41,-45.6"/>
<polygon fill="black" stroke="black" points="107.85,-48.82 114.7,-40.74 104.3,-42.78 107.85,-48.82"/>
<text xml:space="preserve" text-anchor="middle" x="52.62" y="-151.2" font-family="Times,serif" font-size="14.00">DDG: cls</text>
</g>
<!-- 111669149985&#45;&gt;30064773417 -->
<g id="edge10" class="edge">
<title>111669149985&#45;&gt;30064773417</title>
<path fill="none" stroke="black" d="M130.67,-297.09C134.25,-279.91 141.95,-255.16 158,-240 162.86,-235.41 168.31,-231.39 174.11,-227.88"/>
<polygon fill="black" stroke="black" points="175.71,-230.99 182.83,-223.15 172.38,-224.84 175.71,-230.99"/>
<text xml:space="preserve" text-anchor="middle" x="188.38" y="-254.32" font-family="Times,serif" font-size="14.00">DDG: self</text>
</g>
<!-- 111669149986&#45;&gt;30064773417 -->
<g id="edge12" class="edge">
<title>111669149986&#45;&gt;30064773417</title>
<path fill="none" stroke="black" d="M225.05,-297.2C222.1,-281.22 220.21,-258.16 228.25,-240 229.67,-236.8 231.51,-233.77 233.63,-230.91"/>
<polygon fill="black" stroke="black" points="236.15,-233.35 240.17,-223.55 230.91,-228.71 236.15,-233.35"/>
<text xml:space="preserve" text-anchor="middle" x="262" y="-254.32" font-family="Times,serif" font-size="14.00">DDG: query</text>
</g>
<!-- 141733920950 -->
<g id="node6" class="node">
<title>141733920950</title>
<polygon fill="none" stroke="black" points="748.5,-130.75 503,-130.75 503,-91.25 748.5,-91.25 748.5,-130.75"/>
<text xml:space="preserve" text-anchor="start" x="588.62" y="-113.45" font-family="Times,serif" font-size="14.00">RETURN, 889</text>
<text xml:space="preserve" text-anchor="start" x="511" y="-97.7" font-family="Times,serif" font-size="14.00">return search_courses(self, query)</text>
</g>
<!-- 141733920950&#45;&gt;124554051720 -->
<g id="edge1" class="edge">
<title>141733920950&#45;&gt;124554051720</title>
<path fill="none" stroke="black" d="M526.57,-90.8C442.45,-74.51 323.32,-51.45 245.08,-36.3"/>
<polygon fill="black" stroke="black" points="245.81,-32.88 235.32,-34.41 244.48,-39.75 245.81,-32.88"/>
<text xml:space="preserve" text-anchor="middle" x="456.6" y="-59.95" font-family="Times,serif" font-size="14.00">DDG: &lt;RET&gt;</text>
</g>
<!-- 30064773417&#45;&gt;124554051720 -->
<g id="edge3" class="edge">
<title>30064773417&#45;&gt;124554051720</title>
<path fill="none" stroke="black" d="M150.46,-182.19C123.1,-171.73 97.49,-155.6 82,-130.75 63.18,-100.55 94.24,-68.27 123.53,-46.55"/>
<polygon fill="black" stroke="black" points="125.55,-49.4 131.68,-40.76 121.5,-43.7 125.55,-49.4"/>
<text xml:space="preserve" text-anchor="middle" x="112.38" y="-105.58" font-family="Times,serif" font-size="14.00">DDG: self</text>
</g>
<!-- 30064773417&#45;&gt;124554051720 -->
<g id="edge4" class="edge">
<title>30064773417&#45;&gt;124554051720</title>
<path fill="none" stroke="black" d="M232.94,-182.22C213.8,-170.1 191.67,-152.58 179.25,-130.75 165.38,-106.37 162.6,-74.14 162.78,-50.87"/>
<polygon fill="black" stroke="black" points="166.27,-51.22 163.05,-41.12 159.27,-51.02 166.27,-51.22"/>
<text xml:space="preserve" text-anchor="middle" x="213" y="-105.58" font-family="Times,serif" font-size="14.00">DDG: query</text>
</g>
<!-- 30064773417&#45;&gt;124554051720 -->
<g id="edge5" class="edge">
<title>30064773417&#45;&gt;124554051720</title>
<path fill="none" stroke="black" d="M268.63,-182.03C267.68,-158.96 263.46,-119.83 246.75,-91.25 236.45,-73.64 220.12,-58.27 204.73,-46.42"/>
<polygon fill="black" stroke="black" points="207.18,-43.88 197.06,-40.76 203.03,-49.51 207.18,-43.88"/>
<text xml:space="preserve" text-anchor="middle" x="369.84" y="-105.58" font-family="Times,serif" font-size="14.00">DDG: search_courses(self, query)</text>
</g>
<!-- 30064773417&#45;&gt;141733920950 -->
<g id="edge9" class="edge">
<title>30064773417&#45;&gt;141733920950</title>
<path fill="none" stroke="black" d="M345.34,-182.1C401.94,-167.95 479.12,-148.66 538.18,-133.89"/>
<polygon fill="black" stroke="black" points="538.66,-137.38 547.52,-131.56 536.97,-130.59 538.66,-137.38"/>
<text xml:space="preserve" text-anchor="middle" x="576.62" y="-151.2" font-family="Times,serif" font-size="14.00">DDG: search_courses(self, query)</text>
</g>
</g>
</svg>
