<?xml version="1.0" encoding="UTF-8" standalone="no"?>
<!DOCTYPE svg PUBLIC "-//W3C//DTD SVG 1.1//EN"
 "http://www.w3.org/Graphics/SVG/1.1/DTD/svg11.dtd">
<!-- Generated by graphviz version 13.1.2 (20250809.0930)
 -->
<!-- Title: to_dict&lt;metaClassAdapter&gt; Pages: 1 -->
<svg width="541pt" height="436pt"
 viewBox="0.00 0.00 541.00 436.00" xmlns="http://www.w3.org/2000/svg" xmlns:xlink="http://www.w3.org/1999/xlink">
<g id="graph0" class="graph" transform="scale(1 1) rotate(0) translate(4 432.25)">
<title>to_dict&lt;metaClassAdapter&gt;</title>
<polygon fill="white" stroke="none" points="-4,4 -4,-432.25 536.62,-432.25 536.62,4 -4,4"/>
<!-- 107374182539 -->
<g id="node1" class="node">
<title>107374182539</title>
<polygon fill="none" stroke="black" points="283.5,-428.25 98.75,-428.25 98.75,-388.75 283.5,-388.75 283.5,-428.25"/>
<text xml:space="preserve" text-anchor="start" x="150.62" y="-410.95" font-family="Times,serif" font-size="14.00">METHOD, 1074</text>
<text xml:space="preserve" text-anchor="start" x="106.75" y="-395.2" font-family="Times,serif" font-size="14.00">to_dict&lt;metaClassAdapter&gt;</text>
</g>
<!-- 111669149993 -->
<g id="node3" class="node">
<title>111669149993</title>
<polygon fill="none" stroke="black" points="90.25,-279.5 0,-279.5 0,-240 90.25,-240 90.25,-279.5"/>
<text xml:space="preserve" text-anchor="start" x="8" y="-262.2" font-family="Times,serif" font-size="14.00">PARAM, 1074</text>
<text xml:space="preserve" text-anchor="start" x="35" y="-246.45" font-family="Times,serif" font-size="14.00">cls</text>
</g>
<!-- 107374182539&#45;&gt;111669149993 -->
<g id="edge5" class="edge">
<title>107374182539&#45;&gt;111669149993</title>
<path fill="none" stroke="black" d="M171.45,-388.51C165.61,-382.82 159.21,-376.56 153.38,-370.75 125.24,-342.77 93.44,-310.35 71.62,-288"/>
<polygon fill="black" stroke="black" points="74.32,-285.75 64.83,-281.03 69.31,-290.64 74.32,-285.75"/>
<text xml:space="preserve" text-anchor="middle" x="170.25" y="-357.45" font-family="Times,serif" font-size="14.00">DDG: </text>
</g>
<!-- 111669149994 -->
<g id="node4" class="node">
<title>111669149994</title>
<polygon fill="none" stroke="black" points="236.25,-337 146,-337 146,-297.5 236.25,-297.5 236.25,-337"/>
<text xml:space="preserve" text-anchor="start" x="154" y="-319.7" font-family="Times,serif" font-size="14.00">PARAM, 1074</text>
<text xml:space="preserve" text-anchor="start" x="177.62" y="-303.95" font-family="Times,serif" font-size="14.00">self</text>
</g>
<!-- 107374182539&#45;&gt;111669149994 -->
<g id="edge6" class="edge">
<title>107374182539&#45;&gt;111669149994</title>
<path fill="none" stroke="black" d="M191.12,-388.57C191.12,-377.05 191.12,-362.07 191.12,-348.9"/>
<polygon fill="black" stroke="black" points="194.63,-348.97 191.13,-338.97 187.63,-348.97 194.63,-348.97"/>
<text xml:space="preserve" text-anchor="middle" x="208" y="-357.45" font-family="Times,serif" font-size="14.00">DDG: </text>
</g>
<!-- 30064773420 -->
<g id="node6" class="node">
<title>30064773420</title>
<polygon fill="none" stroke="black" points="496.12,-222 48.12,-222 48.12,-182.5 496.12,-182.5 496.12,-222"/>
<text xml:space="preserve" text-anchor="start" x="56.12" y="-204.7" font-family="Times,serif" font-size="14.00">AI_generated_code_1.py:&lt;module&gt;.RegistrationSystem.to_dict, 1074</text>
<text xml:space="preserve" text-anchor="start" x="228.25" y="-188.95" font-family="Times,serif" font-size="14.00">to_dict(self)</text>
</g>
<!-- 107374182539&#45;&gt;30064773420 -->
<g id="edge9" class="edge">
<title>107374182539&#45;&gt;30064773420</title>
<path fill="none" stroke="black" d="M213.45,-388.51C218.99,-383.12 224.63,-377.01 229.12,-370.75 258.77,-329.44 268.01,-269.48 270.87,-233.63"/>
<polygon fill="black" stroke="black" points="274.34,-234.18 271.51,-223.96 267.36,-233.71 274.34,-234.18"/>
<text xml:space="preserve" text-anchor="middle" x="277.06" y="-311.82" font-family="Times,serif" font-size="14.00">DDG: </text>
</g>
<!-- 124554051723 -->
<g id="node2" class="node">
<title>124554051723</title>
<polygon fill="none" stroke="black" points="265.25,-39.5 121,-39.5 121,0 265.25,0 265.25,-39.5"/>
<text xml:space="preserve" text-anchor="start" x="129" y="-22.2" font-family="Times,serif" font-size="14.00">METHOD_RETURN, 1074</text>
<text xml:space="preserve" text-anchor="start" x="156" y="-6.45" font-family="Times,serif" font-size="14.00">typing.Dict</text>
</g>
<!-- 111669149993&#45;&gt;124554051723 -->
<g id="edge2" class="edge">
<title>111669149993&#45;&gt;124554051723</title>
<path fill="none" stroke="black" d="M39.05,-239.57C35.08,-223.71 31.86,-200.9 39.12,-182.5 62.17,-124.15 117.6,-74.95 155.27,-46.64"/>
<polygon fill="black" stroke="black" points="157.23,-49.54 163.22,-40.8 153.09,-43.9 157.23,-49.54"/>
<text xml:space="preserve" text-anchor="middle" x="82.12" y="-151.2" font-family="Times,serif" font-size="14.00">DDG: cls</text>
</g>
<!-- 111669149994&#45;&gt;30064773420 -->
<g id="edge8" class="edge">
<title>111669149994&#45;&gt;30064773420</title>
<path fill="none" stroke="black" d="M187.79,-297.31C185.94,-280.75 185.94,-256.8 197.38,-240 200.12,-235.97 203.44,-232.36 207.14,-229.13"/>
<polygon fill="black" stroke="black" points="209.21,-231.96 215.14,-223.18 205.03,-226.34 209.21,-231.96"/>
<text xml:space="preserve" text-anchor="middle" x="227.75" y="-254.32" font-family="Times,serif" font-size="14.00">DDG: self</text>
</g>
<!-- 141733920953 -->
<g id="node5" class="node">
<title>141733920953</title>
<polygon fill="none" stroke="black" points="532.62,-130.75 381.62,-130.75 381.62,-91.25 532.62,-91.25 532.62,-130.75"/>
<text xml:space="preserve" text-anchor="start" x="416.62" y="-113.45" font-family="Times,serif" font-size="14.00">RETURN, 1074</text>
<text xml:space="preserve" text-anchor="start" x="389.62" y="-97.7" font-family="Times,serif" font-size="14.00">return to_dict(self)</text>
</g>
<!-- 141733920953&#45;&gt;124554051723 -->
<g id="edge1" class="edge">
<title>141733920953&#45;&gt;124554051723</title>
<path fill="none" stroke="black" d="M400.49,-90.85C359.43,-76.97 303.73,-58.14 260.4,-43.49"/>
<polygon fill="black" stroke="black" points="261.69,-40.24 251.1,-40.35 259.45,-46.87 261.69,-40.24"/>
<text xml:space="preserve" text-anchor="middle" x="374.68" y="-59.95" font-family="Times,serif" font-size="14.00">DDG: &lt;RET&gt;</text>
</g>
<!-- 30064773420&#45;&gt;124554051723 -->
<g id="edge3" class="edge">
<title>30064773420&#45;&gt;124554051723</title>
<path fill="none" stroke="black" d="M219.49,-182.07C196.72,-170.85 172.35,-154.17 159.38,-130.75 145.12,-105.03 158.42,-72.51 172.3,-49.52"/>
<polygon fill="black" stroke="black" points="175.14,-51.58 177.59,-41.27 169.25,-47.8 175.14,-51.58"/>
<text xml:space="preserve" text-anchor="middle" x="189.75" y="-105.58" font-family="Times,serif" font-size="14.00">DDG: self</text>
</g>
<!-- 30064773420&#45;&gt;124554051723 -->
<g id="edge4" class="edge">
<title>30064773420&#45;&gt;124554051723</title>
<path fill="none" stroke="black" d="M263.82,-182.27C250.01,-150.72 222.23,-87.26 205.91,-49.97"/>
<polygon fill="black" stroke="black" points="209.26,-48.89 202.04,-41.13 202.85,-51.69 209.26,-48.89"/>
<text xml:space="preserve" text-anchor="middle" x="301.23" y="-105.58" font-family="Times,serif" font-size="14.00">DDG: to_dict(self)</text>
</g>
<!-- 30064773420&#45;&gt;141733920953 -->
<g id="edge7" class="edge">
<title>30064773420&#45;&gt;141733920953</title>
<path fill="none" stroke="black" d="M311.81,-182.1C339.73,-168.63 377.31,-150.5 407.26,-136.06"/>
<polygon fill="black" stroke="black" points="408.65,-139.27 416.14,-131.77 405.61,-132.97 408.65,-139.27"/>
<text xml:space="preserve" text-anchor="middle" x="436.45" y="-151.2" font-family="Times,serif" font-size="14.00">DDG: to_dict(self)</text>
</g>
</g>
</svg>
