<?xml version="1.0" encoding="UTF-8" standalone="no"?>
<!DOCTYPE svg PUBLIC "-//W3C//DTD SVG 1.1//EN"
 "http://www.w3.org/Graphics/SVG/1.1/DTD/svg11.dtd">
<!-- Generated by graphviz version 13.1.2 (20250809.0930)
 -->
<!-- Title: cli_course_roster_report Pages: 1 -->
<svg width="1475pt" height="742pt"
 viewBox="0.00 0.00 1475.00 742.00" xmlns="http://www.w3.org/2000/svg" xmlns:xlink="http://www.w3.org/1999/xlink">
<g id="graph0" class="graph" transform="scale(1 1) rotate(0) translate(4 737.5)">
<title>cli_course_roster_report</title>
<polygon fill="white" stroke="none" points="-4,4 -4,-737.5 1471.25,-737.5 1471.25,4 -4,4"/>
<!-- 107374182555 -->
<g id="node1" class="node">
<title>107374182555</title>
<polygon fill="none" stroke="black" points="973,-733.5 795,-733.5 795,-694 973,-694 973,-733.5"/>
<text xml:space="preserve" text-anchor="start" x="843.5" y="-716.2" font-family="Times,serif" font-size="14.00">METHOD, 1378</text>
<text xml:space="preserve" text-anchor="start" x="803" y="-700.45" font-family="Times,serif" font-size="14.00">cli_course_roster_report</text>
</g>
<!-- 111669150008 -->
<g id="node3" class="node">
<title>111669150008</title>
<polygon fill="none" stroke="black" points="989.12,-569 898.88,-569 898.88,-529.5 989.12,-529.5 989.12,-569"/>
<text xml:space="preserve" text-anchor="start" x="906.88" y="-551.7" font-family="Times,serif" font-size="14.00">PARAM, 1378</text>
<text xml:space="preserve" text-anchor="start" x="923.75" y="-535.95" font-family="Times,serif" font-size="14.00">system</text>
</g>
<!-- 107374182555&#45;&gt;111669150008 -->
<g id="edge10" class="edge">
<title>107374182555&#45;&gt;111669150008</title>
<path fill="none" stroke="black" d="M891.31,-693.69C893.48,-688.01 895.85,-681.76 898,-676 910.2,-643.33 923.9,-605.76 933.15,-580.26"/>
<polygon fill="black" stroke="black" points="936.43,-581.47 936.55,-570.88 929.85,-579.09 936.43,-581.47"/>
<text xml:space="preserve" text-anchor="middle" x="920.31" y="-662.7" font-family="Times,serif" font-size="14.00">DDG: </text>
</g>
<!-- 30064773808 -->
<g id="node4" class="node">
<title>30064773808</title>
<polygon fill="none" stroke="black" points="869.75,-329 516.25,-329 516.25,-289.5 869.75,-289.5 869.75,-329"/>
<text xml:space="preserve" text-anchor="start" x="601.88" y="-311.7" font-family="Times,serif" font-size="14.00">&lt;operator&gt;.assignment, 1379</text>
<text xml:space="preserve" text-anchor="start" x="524.25" y="-295.95" font-family="Times,serif" font-size="14.00">section_id = tmp286 = input(&quot;Section ID: &quot;) inp...</text>
</g>
<!-- 107374182555&#45;&gt;30064773808 -->
<g id="edge12" class="edge">
<title>107374182555&#45;&gt;30064773808</title>
<path fill="none" stroke="black" d="M849.84,-693.55C824.75,-676.65 795,-649.47 795,-615.62 795,-615.62 795,-615.62 795,-399.5 795,-375.35 796.89,-365.19 781,-347 777.22,-342.67 772.84,-338.84 768.1,-335.45"/>
<polygon fill="black" stroke="black" points="770.21,-332.64 759.88,-330.27 766.48,-338.56 770.21,-332.64"/>
<text xml:space="preserve" text-anchor="middle" x="811.88" y="-486.32" font-family="Times,serif" font-size="14.00">DDG: </text>
</g>
<!-- 68719479453 -->
<g id="node6" class="node">
<title>68719479453</title>
<polygon fill="none" stroke="black" points="1467.25,-642.25 1140.75,-642.25 1140.75,-587 1467.25,-587 1467.25,-642.25"/>
<text xml:space="preserve" text-anchor="start" x="1250" y="-624.95" font-family="Times,serif" font-size="14.00">IDENTIFIER, 1380</text>
<text xml:space="preserve" text-anchor="start" x="1287.12" y="-609.2" font-family="Times,serif" font-size="14.00">print</text>
<text xml:space="preserve" text-anchor="start" x="1148.75" y="-593.45" font-family="Times,serif" font-size="14.00">print(system.report_course_roster(section_id))</text>
</g>
<!-- 107374182555&#45;&gt;68719479453 -->
<g id="edge16" class="edge">
<title>107374182555&#45;&gt;68719479453</title>
<path fill="none" stroke="black" d="M970.88,-693.56C985.68,-688.8 1000.59,-682.99 1014,-676 1023.8,-670.89 1023.18,-664.8 1033.25,-660.25 1038.61,-657.83 1080.14,-650.63 1129.14,-642.7"/>
<polygon fill="black" stroke="black" points="1129.56,-646.18 1138.88,-641.14 1128.45,-639.27 1129.56,-646.18"/>
<text xml:space="preserve" text-anchor="middle" x="1050.12" y="-662.7" font-family="Times,serif" font-size="14.00">DDG: </text>
</g>
<!-- 30064773807 -->
<g id="node8" class="node">
<title>30064773807</title>
<polygon fill="none" stroke="black" points="593.88,-420.25 382.12,-420.25 382.12,-380.75 593.88,-380.75 593.88,-420.25"/>
<text xml:space="preserve" text-anchor="start" x="450.88" y="-402.95" font-family="Times,serif" font-size="14.00">strip, 1379</text>
<text xml:space="preserve" text-anchor="start" x="390.12" y="-387.2" font-family="Times,serif" font-size="14.00">input(&quot;Section ID: &quot;).strip()</text>
</g>
<!-- 107374182555&#45;&gt;30064773807 -->
<g id="edge24" class="edge">
<title>107374182555&#45;&gt;30064773807</title>
<path fill="none" stroke="black" d="M817.59,-693.6C805,-688.72 792.26,-682.87 781,-676 665.4,-605.48 556.53,-483.92 510.73,-429.39"/>
<polygon fill="black" stroke="black" points="513.49,-427.23 504.4,-421.79 508.11,-431.71 513.49,-427.23"/>
<text xml:space="preserve" text-anchor="middle" x="658.23" y="-543.83" font-family="Times,serif" font-size="14.00">DDG: </text>
</g>
<!-- 30064773810 -->
<g id="node9" class="node">
<title>30064773810</title>
<polygon fill="none" stroke="black" points="1053.62,-237.75 774.38,-237.75 774.38,-198.25 1053.62,-198.25 1053.62,-237.75"/>
<text xml:space="preserve" text-anchor="start" x="826.25" y="-220.45" font-family="Times,serif" font-size="14.00">report_course_roster, 1380</text>
<text xml:space="preserve" text-anchor="start" x="782.38" y="-204.7" font-family="Times,serif" font-size="14.00">system.report_course_roster(section_id)</text>
</g>
<!-- 107374182555&#45;&gt;30064773810 -->
<g id="edge21" class="edge">
<title>107374182555&#45;&gt;30064773810</title>
<path fill="none" stroke="black" d="M885.16,-693.7C889.73,-618.47 906.54,-341.75 912.16,-249.3"/>
<polygon fill="black" stroke="black" points="915.64,-249.7 912.75,-239.51 908.65,-249.28 915.64,-249.7"/>
<text xml:space="preserve" text-anchor="middle" x="917.37" y="-440.7" font-family="Times,serif" font-size="14.00">DDG: </text>
</g>
<!-- 68719479445 -->
<g id="node10" class="node">
<title>68719479445</title>
<polygon fill="none" stroke="black" points="1117.88,-642.25 960.12,-642.25 960.12,-587 1117.88,-587 1117.88,-642.25"/>
<text xml:space="preserve" text-anchor="start" x="985" y="-624.95" font-family="Times,serif" font-size="14.00">IDENTIFIER, 1379</text>
<text xml:space="preserve" text-anchor="start" x="1022.12" y="-609.2" font-family="Times,serif" font-size="14.00">input</text>
<text xml:space="preserve" text-anchor="start" x="968.12" y="-593.45" font-family="Times,serif" font-size="14.00">input(&quot;Section ID: &quot;)</text>
</g>
<!-- 107374182555&#45;&gt;68719479445 -->
<g id="edge26" class="edge">
<title>107374182555&#45;&gt;68719479445</title>
<path fill="none" stroke="black" d="M925.2,-693.52C935.76,-688.19 946.96,-682.16 957,-676 964.74,-671.25 979.46,-660.6 994.32,-649.54"/>
<polygon fill="black" stroke="black" points="996.41,-652.35 1002.32,-643.56 992.21,-646.75 996.41,-652.35"/>
<text xml:space="preserve" text-anchor="middle" x="995.86" y="-662.7" font-family="Times,serif" font-size="14.00">DDG: </text>
</g>
<!-- 30064773804 -->
<g id="node11" class="node">
<title>30064773804</title>
<polygon fill="none" stroke="black" points="540.88,-634.38 383.12,-634.38 383.12,-594.88 540.88,-594.88 540.88,-634.38"/>
<text xml:space="preserve" text-anchor="start" x="424.88" y="-617.08" font-family="Times,serif" font-size="14.00">input, 1379</text>
<text xml:space="preserve" text-anchor="start" x="391.12" y="-601.33" font-family="Times,serif" font-size="14.00">input(&quot;Section ID: &quot;)</text>
</g>
<!-- 107374182555&#45;&gt;30064773804 -->
<g id="edge27" class="edge">
<title>107374182555&#45;&gt;30064773804</title>
<path fill="none" stroke="black" d="M794.88,-708.44C709.6,-703.37 587.57,-693.36 543.25,-676 523.6,-668.31 504.51,-654.55 489.77,-642.1"/>
<polygon fill="black" stroke="black" points="492.16,-639.54 482.34,-635.59 487.55,-644.81 492.16,-639.54"/>
<text xml:space="preserve" text-anchor="middle" x="560.12" y="-662.7" font-family="Times,serif" font-size="14.00">DDG: </text>
</g>
<!-- 124554051739 -->
<g id="node2" class="node">
<title>124554051739</title>
<polygon fill="none" stroke="black" points="604.12,-39.5 459.88,-39.5 459.88,0 604.12,0 604.12,-39.5"/>
<text xml:space="preserve" text-anchor="start" x="467.88" y="-22.2" font-family="Times,serif" font-size="14.00">METHOD_RETURN, 1378</text>
<text xml:space="preserve" text-anchor="start" x="521.88" y="-6.45" font-family="Times,serif" font-size="14.00">ANY</text>
</g>
<!-- 111669150008&#45;&gt;30064773810 -->
<g id="edge20" class="edge">
<title>111669150008&#45;&gt;30064773810</title>
<path fill="none" stroke="black" d="M942.5,-529.25C941.03,-508.94 939,-475.78 939,-447.12 939,-447.12 939,-447.12 939,-308.25 939,-287.79 932.83,-265.64 926.62,-248.52"/>
<polygon fill="black" stroke="black" points="930,-247.56 923.15,-239.48 923.47,-250.07 930,-247.56"/>
<text xml:space="preserve" text-anchor="middle" x="976.12" y="-395.07" font-family="Times,serif" font-size="14.00">DDG: system</text>
</g>
<!-- 30064773808&#45;&gt;124554051739 -->
<g id="edge5" class="edge">
<title>30064773808&#45;&gt;124554051739</title>
<path fill="none" stroke="black" d="M707.16,-289.01C723.1,-264.83 743.95,-223.46 721,-198.25 692.15,-166.57 557.85,-211.93 529,-180.25 497.2,-145.33 509.1,-86.15 520.59,-50.53"/>
<polygon fill="black" stroke="black" points="523.83,-51.88 523.76,-41.29 517.2,-49.61 523.83,-51.88"/>
<text xml:space="preserve" text-anchor="middle" x="691" y="-166.95" font-family="Times,serif" font-size="14.00">DDG: section_id = tmp286 = input(&quot;Section ID: &quot;)</text>
<text xml:space="preserve" text-anchor="middle" x="691" y="-151.2" font-family="Times,serif" font-size="14.00">input(&quot;Section ID: &quot;).strip()</text>
</g>
<!-- 30064773808&#45;&gt;30064773810 -->
<g id="edge22" class="edge">
<title>30064773808&#45;&gt;30064773810</title>
<path fill="none" stroke="black" d="M728.57,-289.11C738.51,-283.58 749.25,-277.43 759,-271.5 769.82,-264.91 771.23,-261.02 782.75,-255.75 794.43,-250.4 807.06,-245.67 819.72,-241.53"/>
<polygon fill="black" stroke="black" points="820.39,-244.99 828.88,-238.65 818.29,-238.31 820.39,-244.99"/>
<text xml:space="preserve" text-anchor="middle" x="833.38" y="-258.2" font-family="Times,serif" font-size="14.00">DDG: section_id</text>
</g>
<!-- 30064773811 -->
<g id="node5" class="node">
<title>30064773811</title>
<polygon fill="none" stroke="black" points="1072.25,-130.75 745.75,-130.75 745.75,-91.25 1072.25,-91.25 1072.25,-130.75"/>
<text xml:space="preserve" text-anchor="start" x="871.88" y="-113.45" font-family="Times,serif" font-size="14.00">print, 1380</text>
<text xml:space="preserve" text-anchor="start" x="753.75" y="-97.7" font-family="Times,serif" font-size="14.00">print(system.report_course_roster(section_id))</text>
</g>
<!-- 30064773811&#45;&gt;124554051739 -->
<g id="edge8" class="edge">
<title>30064773811&#45;&gt;124554051739</title>
<path fill="none" stroke="black" d="M745.64,-93.23C671.62,-85.26 598.75,-76.72 591,-73.25 583.68,-69.97 570.73,-58.72 558.82,-47.48"/>
<polygon fill="black" stroke="black" points="561.55,-45.24 551.92,-40.84 556.7,-50.29 561.55,-45.24"/>
<text xml:space="preserve" text-anchor="middle" x="739.5" y="-59.95" font-family="Times,serif" font-size="14.00">DDG: system.report_course_roster(section_id)</text>
</g>
<!-- 30064773811&#45;&gt;124554051739 -->
<g id="edge9" class="edge">
<title>30064773811&#45;&gt;124554051739</title>
<path fill="none" stroke="black" d="M906.39,-90.99C903.76,-79.44 898.5,-65.42 888,-57.5 866.74,-41.45 714.26,-30.42 615.87,-24.88"/>
<polygon fill="black" stroke="black" points="616.14,-21.39 605.96,-24.33 615.75,-28.38 616.14,-21.39"/>
<text xml:space="preserve" text-anchor="middle" x="1072.21" y="-59.95" font-family="Times,serif" font-size="14.00">DDG: print(system.report_course_roster(section_id))</text>
</g>
<!-- 30064773805 -->
<g id="node7" class="node">
<title>30064773805</title>
<polygon fill="none" stroke="black" points="379.25,-511.5 160.75,-511.5 160.75,-472 379.25,-472 379.25,-511.5"/>
<text xml:space="preserve" text-anchor="start" x="178.88" y="-494.2" font-family="Times,serif" font-size="14.00">&lt;operator&gt;.assignment, 1379</text>
<text xml:space="preserve" text-anchor="start" x="168.75" y="-478.45" font-family="Times,serif" font-size="14.00">tmp286 = input(&quot;Section ID: &quot;)</text>
</g>
<!-- 30064773805&#45;&gt;124554051739 -->
<g id="edge1" class="edge">
<title>30064773805&#45;&gt;124554051739</title>
<path fill="none" stroke="black" d="M160.57,-474.93C85.73,-460.92 0,-437.11 0,-401.5 0,-401.5 0,-401.5 0,-110 0,-65.13 298.11,-37.43 448.01,-26.33"/>
<polygon fill="black" stroke="black" points="448.19,-29.83 457.91,-25.61 447.68,-22.85 448.19,-29.83"/>
<text xml:space="preserve" text-anchor="middle" x="87.75" y="-258.2" font-family="Times,serif" font-size="14.00">DDG: input(&quot;Section ID: &quot;)</text>
</g>
<!-- 30064773805&#45;&gt;124554051739 -->
<g id="edge2" class="edge">
<title>30064773805&#45;&gt;124554051739</title>
<path fill="none" stroke="black" d="M242.35,-471.82C222.41,-455.71 199,-430.61 199,-401.5 199,-401.5 199,-401.5 199,-110 199,-58.47 349.64,-35.88 448.28,-26.62"/>
<polygon fill="black" stroke="black" points="448.59,-30.1 458.24,-25.71 447.96,-23.13 448.59,-30.1"/>
<text xml:space="preserve" text-anchor="middle" x="317.12" y="-258.2" font-family="Times,serif" font-size="14.00">DDG: tmp286 = input(&quot;Section ID: &quot;)</text>
</g>
<!-- 30064773805&#45;&gt;30064773807 -->
<g id="edge23" class="edge">
<title>30064773805&#45;&gt;30064773807</title>
<path fill="none" stroke="black" d="M316.77,-471.6C350.24,-457.9 395.5,-439.37 431.08,-424.8"/>
<polygon fill="black" stroke="black" points="431.98,-428.22 439.91,-421.19 429.33,-421.74 431.98,-428.22"/>
<text xml:space="preserve" text-anchor="middle" x="429.18" y="-440.7" font-family="Times,serif" font-size="14.00">DDG: tmp286</text>
</g>
<!-- 30064773807&#45;&gt;124554051739 -->
<g id="edge3" class="edge">
<title>30064773807&#45;&gt;124554051739</title>
<path fill="none" stroke="black" d="M480.65,-380.46C478.48,-374.77 476.12,-368.52 474,-362.75 456.57,-315.39 470.87,-292.23 436,-255.75 421.33,-240.4 403.6,-255.37 391.75,-237.75 381.95,-223.18 387.16,-215.2 391.75,-198.25 410.69,-128.31 423.7,-109.64 474,-57.5 477.78,-53.58 482.07,-49.88 486.55,-46.46"/>
<polygon fill="black" stroke="black" points="488.55,-49.34 494.7,-40.71 484.51,-43.62 488.55,-49.34"/>
<text xml:space="preserve" text-anchor="middle" x="428.88" y="-212.57" font-family="Times,serif" font-size="14.00">DDG: tmp286</text>
</g>
<!-- 30064773807&#45;&gt;124554051739 -->
<g id="edge4" class="edge">
<title>30064773807&#45;&gt;124554051739</title>
<path fill="none" stroke="black" d="M488,-380.35C488,-362.28 488,-334.42 488,-310.25 488,-310.25 488,-310.25 488,-110 488,-88.05 498.84,-65.9 509.76,-49.16"/>
<polygon fill="black" stroke="black" points="512.44,-51.43 515.25,-41.21 506.69,-47.45 512.44,-51.43"/>
<text xml:space="preserve" text-anchor="middle" x="602.75" y="-212.57" font-family="Times,serif" font-size="14.00">DDG: input(&quot;Section ID: &quot;).strip()</text>
</g>
<!-- 30064773807&#45;&gt;30064773808 -->
<g id="edge11" class="edge">
<title>30064773807&#45;&gt;30064773808</title>
<path fill="none" stroke="black" d="M506.7,-380.27C518.58,-369.08 534.81,-355.53 551.5,-347 562.06,-341.61 573.47,-336.96 585.08,-332.96"/>
<polygon fill="black" stroke="black" points="585.91,-336.37 594.33,-329.94 583.74,-329.71 585.91,-336.37"/>
<text xml:space="preserve" text-anchor="middle" x="666.25" y="-349.45" font-family="Times,serif" font-size="14.00">DDG: input(&quot;Section ID: &quot;).strip()</text>
</g>
<!-- 30064773810&#45;&gt;124554051739 -->
<g id="edge6" class="edge">
<title>30064773810&#45;&gt;124554051739</title>
<path fill="none" stroke="black" d="M1050.69,-197.77C1171.56,-175.44 1318.59,-131.81 1248,-57.5 1226.54,-34.91 800.31,-25.17 615.87,-22"/>
<polygon fill="black" stroke="black" points="616.18,-18.51 606.12,-21.84 616.06,-25.51 616.18,-18.51"/>
<text xml:space="preserve" text-anchor="middle" x="1303.51" y="-105.58" font-family="Times,serif" font-size="14.00">DDG: system</text>
</g>
<!-- 30064773810&#45;&gt;124554051739 -->
<g id="edge7" class="edge">
<title>30064773810&#45;&gt;124554051739</title>
<path fill="none" stroke="black" d="M903.93,-198.02C894.24,-181.87 877.97,-159.62 857,-148.75 769.4,-103.36 726.48,-169.5 635.75,-130.75 597.43,-114.38 566.75,-76.03 548.96,-49.24"/>
<polygon fill="black" stroke="black" points="551.94,-47.41 543.6,-40.88 546.05,-51.19 551.94,-47.41"/>
<text xml:space="preserve" text-anchor="middle" x="686.38" y="-105.58" font-family="Times,serif" font-size="14.00">DDG: section_id</text>
</g>
<!-- 30064773810&#45;&gt;30064773811 -->
<g id="edge17" class="edge">
<title>30064773810&#45;&gt;30064773811</title>
<path fill="none" stroke="black" d="M990.28,-197.79C997.6,-193.16 1004.1,-187.4 1009,-180.25 1016.91,-168.7 1017.01,-160.23 1009,-148.75 1006.2,-144.74 1002.91,-141.17 999.27,-137.98"/>
<polygon fill="black" stroke="black" points="1001.51,-135.28 991.39,-132.14 997.34,-140.91 1001.51,-135.28"/>
<text xml:space="preserve" text-anchor="middle" x="1052.1" y="-159.07" font-family="Times,serif" font-size="14.00">DDG: system</text>
</g>
<!-- 30064773810&#45;&gt;30064773811 -->
<g id="edge18" class="edge">
<title>30064773810&#45;&gt;30064773811</title>
<path fill="none" stroke="black" d="M907.57,-197.75C906,-192.17 904.54,-186.03 903.75,-180.25 902.06,-167.89 902.64,-154.18 903.91,-142.32"/>
<polygon fill="black" stroke="black" points="907.34,-143.05 905.16,-132.69 900.4,-142.15 907.34,-143.05"/>
<text xml:space="preserve" text-anchor="middle" x="954.38" y="-159.07" font-family="Times,serif" font-size="14.00">DDG: section_id</text>
</g>
<!-- 30064773804&#45;&gt;30064773805 -->
<g id="edge19" class="edge">
<title>30064773804&#45;&gt;30064773805</title>
<path fill="none" stroke="black" d="M431.58,-594.47C398.57,-573.7 345.77,-540.45 309.56,-517.66"/>
<polygon fill="black" stroke="black" points="311.89,-514.99 301.56,-512.62 308.16,-520.91 311.89,-514.99"/>
<text xml:space="preserve" text-anchor="middle" x="452.97" y="-543.83" font-family="Times,serif" font-size="14.00">DDG: &quot;Section ID: &quot;</text>
</g>
<!-- 30064771076 -->
<g id="node12" class="node">
<title>30064771076</title>
<polygon fill="none" stroke="black" points="1354.12,-731.75 1263.88,-731.75 1263.88,-695.75 1354.12,-695.75 1354.12,-731.75"/>
<text xml:space="preserve" text-anchor="middle" x="1309" y="-708.33" font-family="Times,serif" font-size="14.00">30064771076</text>
</g>
<!-- 30064771076&#45;&gt;68719479453 -->
<g id="edge13" class="edge">
<title>30064771076&#45;&gt;68719479453</title>
<path fill="none" stroke="black" d="M1308.11,-695.39C1307.51,-683.85 1306.71,-668.23 1305.97,-653.88"/>
<polygon fill="black" stroke="black" points="1309.48,-654.06 1305.47,-644.25 1302.49,-654.42 1309.48,-654.06"/>
<text xml:space="preserve" text-anchor="middle" x="1340.84" y="-662.7" font-family="Times,serif" font-size="14.00">DDG: print</text>
</g>
<!-- 68719479589 -->
<g id="node13" class="node">
<title>68719479589</title>
<polygon fill="none" stroke="black" points="1462.12,-731.75 1371.88,-731.75 1371.88,-695.75 1462.12,-695.75 1462.12,-731.75"/>
<text xml:space="preserve" text-anchor="middle" x="1417" y="-708.33" font-family="Times,serif" font-size="14.00">68719479589</text>
</g>
<!-- 68719479589&#45;&gt;68719479453 -->
<g id="edge14" class="edge">
<title>68719479589&#45;&gt;68719479453</title>
<path fill="none" stroke="black" d="M1406.92,-695.27C1400.02,-684.33 1390.13,-670.42 1379,-660.25 1374.77,-656.39 1370.16,-652.69 1365.37,-649.2"/>
<polygon fill="black" stroke="black" points="1367.46,-646.39 1357.23,-643.6 1363.49,-652.16 1367.46,-646.39"/>
<text xml:space="preserve" text-anchor="middle" x="1427.11" y="-662.7" font-family="Times,serif" font-size="14.00">DDG: print</text>
</g>
<!-- 68719479592 -->
<g id="node14" class="node">
<title>68719479592</title>
<polygon fill="none" stroke="black" points="1246.12,-731.75 1155.88,-731.75 1155.88,-695.75 1246.12,-695.75 1246.12,-731.75"/>
<text xml:space="preserve" text-anchor="middle" x="1201" y="-708.33" font-family="Times,serif" font-size="14.00">68719479592</text>
</g>
<!-- 68719479592&#45;&gt;68719479453 -->
<g id="edge15" class="edge">
<title>68719479592&#45;&gt;68719479453</title>
<path fill="none" stroke="black" d="M1209.6,-695.33C1215.57,-684.41 1224.27,-670.51 1234.5,-660.25 1238.29,-656.45 1242.45,-652.81 1246.8,-649.36"/>
<polygon fill="black" stroke="black" points="1248.79,-652.25 1254.72,-643.47 1244.61,-646.63 1248.79,-652.25"/>
<text xml:space="preserve" text-anchor="middle" x="1268.25" y="-662.7" font-family="Times,serif" font-size="14.00">DDG: print</text>
</g>
<!-- 30064771073 -->
<g id="node15" class="node">
<title>30064771073</title>
<polygon fill="none" stroke="black" points="1138.12,-731.75 1047.88,-731.75 1047.88,-695.75 1138.12,-695.75 1138.12,-731.75"/>
<text xml:space="preserve" text-anchor="middle" x="1093" y="-708.33" font-family="Times,serif" font-size="14.00">30064771073</text>
</g>
<!-- 30064771073&#45;&gt;68719479445 -->
<g id="edge25" class="edge">
<title>30064771073&#45;&gt;68719479445</title>
<path fill="none" stroke="black" d="M1086.81,-695.27C1082.84,-684.83 1077.27,-671.47 1071,-660.25 1069.43,-657.44 1067.72,-654.6 1065.93,-651.78"/>
<polygon fill="black" stroke="black" points="1068.95,-649.99 1060.48,-643.62 1063.12,-653.88 1068.95,-649.99"/>
<text xml:space="preserve" text-anchor="middle" x="1112.43" y="-662.7" font-family="Times,serif" font-size="14.00">DDG: input</text>
</g>
</g>
</svg>
