<?xml version="1.0" encoding="UTF-8" standalone="no"?>
<!DOCTYPE svg PUBLIC "-//W3C//DTD SVG 1.1//EN"
 "http://www.w3.org/Graphics/SVG/1.1/DTD/svg11.dtd">
<!-- Generated by graphviz version 13.1.2 (20250809.0930)
 -->
<!-- Title: cli_save Pages: 1 -->
<svg width="3025pt" height="1107pt"
 viewBox="0.00 0.00 3025.00 1107.00" xmlns="http://www.w3.org/2000/svg" xmlns:xlink="http://www.w3.org/1999/xlink">
<g id="graph0" class="graph" transform="scale(1 1) rotate(0) translate(4 1102.5)">
<title>cli_save</title>
<polygon fill="white" stroke="none" points="-4,4 -4,-1102.5 3020.75,-1102.5 3020.75,4 -4,4"/>
<!-- 107374182556 -->
<g id="node1" class="node">
<title>107374182556</title>
<polygon fill="none" stroke="black" points="1539.5,-1098.5 1442.5,-1098.5 1442.5,-1059 1539.5,-1059 1539.5,-1098.5"/>
<text xml:space="preserve" text-anchor="start" x="1450.5" y="-1081.2" font-family="Times,serif" font-size="14.00">METHOD, 1383</text>
<text xml:space="preserve" text-anchor="start" x="1464" y="-1065.45" font-family="Times,serif" font-size="14.00">cli_save</text>
</g>
<!-- 111669150009 -->
<g id="node3" class="node">
<title>111669150009</title>
<polygon fill="none" stroke="black" points="2111.12,-934 2020.88,-934 2020.88,-894.5 2111.12,-894.5 2111.12,-934"/>
<text xml:space="preserve" text-anchor="start" x="2028.88" y="-916.7" font-family="Times,serif" font-size="14.00">PARAM, 1383</text>
<text xml:space="preserve" text-anchor="start" x="2045.75" y="-900.95" font-family="Times,serif" font-size="14.00">system</text>
</g>
<!-- 107374182556&#45;&gt;111669150009 -->
<g id="edge21" class="edge">
<title>107374182556&#45;&gt;111669150009</title>
<path fill="none" stroke="black" d="M1539.84,-1076.62C1652.24,-1073.62 1922.24,-1064.08 1956,-1041 1992.26,-1016.2 1968.75,-983.85 1999,-952 2002.95,-947.84 2007.48,-944.03 2012.28,-940.58"/>
<polygon fill="black" stroke="black" points="2014.04,-943.62 2020.5,-935.21 2010.21,-937.76 2014.04,-943.62"/>
<text xml:space="preserve" text-anchor="middle" x="1988.37" y="-1027.7" font-family="Times,serif" font-size="14.00">DDG: </text>
</g>
<!-- 30064773817 -->
<g id="node4" class="node">
<title>30064773817</title>
<polygon fill="none" stroke="black" points="1913.75,-694 1560.25,-694 1560.25,-654.5 1913.75,-654.5 1913.75,-694"/>
<text xml:space="preserve" text-anchor="start" x="1645.88" y="-676.7" font-family="Times,serif" font-size="14.00">&lt;operator&gt;.assignment, 1384</text>
<text xml:space="preserve" text-anchor="start" x="1568.25" y="-660.95" font-family="Times,serif" font-size="14.00">filename = tmp287 = input(&quot;Filename to save JSO...</text>
</g>
<!-- 107374182556&#45;&gt;30064773817 -->
<g id="edge23" class="edge">
<title>107374182556&#45;&gt;30064773817</title>
<path fill="none" stroke="black" d="M1539.75,-1070.54C1589.04,-1060.17 1658,-1035.8 1658,-980.62 1658,-980.62 1658,-980.62 1658,-764.5 1658,-738.78 1676.63,-716.99 1695.79,-701.38"/>
<polygon fill="black" stroke="black" points="1697.85,-704.22 1703.67,-695.36 1693.6,-698.66 1697.85,-704.22"/>
<text xml:space="preserve" text-anchor="middle" x="1674.88" y="-851.33" font-family="Times,serif" font-size="14.00">DDG: </text>
</g>
<!-- 25769804406 -->
<g id="node5" class="node">
<title>25769804406</title>
<polygon fill="none" stroke="black" points="1412.75,-999.38 1059.25,-999.38 1059.25,-959.88 1412.75,-959.88 1412.75,-999.38"/>
<text xml:space="preserve" text-anchor="start" x="1198.88" y="-982.08" font-family="Times,serif" font-size="14.00">BLOCK, 1385</text>
<text xml:space="preserve" text-anchor="start" x="1067.25" y="-966.33" font-family="Times,serif" font-size="14.00">tmp288 = system.save_to_file(filename) success ...</text>
</g>
<!-- 107374182556&#45;&gt;25769804406 -->
<g id="edge24" class="edge">
<title>107374182556&#45;&gt;25769804406</title>
<path fill="none" stroke="black" d="M1442.25,-1059.5C1426.59,-1053.62 1409.18,-1047.05 1393.25,-1041 1361.11,-1028.79 1325.33,-1015.06 1296.03,-1003.78"/>
<polygon fill="black" stroke="black" points="1297.54,-1000.62 1286.95,-1000.29 1295.03,-1007.15 1297.54,-1000.62"/>
<text xml:space="preserve" text-anchor="middle" x="1410.12" y="-1027.7" font-family="Times,serif" font-size="14.00">DDG: </text>
</g>
<!-- 30064773828 -->
<g id="node6" class="node">
<title>30064773828</title>
<polygon fill="none" stroke="black" points="1165.75,-130.75 812.25,-130.75 812.25,-91.25 1165.75,-91.25 1165.75,-130.75"/>
<text xml:space="preserve" text-anchor="start" x="951.88" y="-113.45" font-family="Times,serif" font-size="14.00">print, 1386</text>
<text xml:space="preserve" text-anchor="start" x="820.25" y="-97.7" font-family="Times,serif" font-size="14.00">print(message if success else f&quot;Save failed: {m...</text>
</g>
<!-- 107374182556&#45;&gt;30064773828 -->
<g id="edge35" class="edge">
<title>107374182556&#45;&gt;30064773828</title>
<path fill="none" stroke="black" d="M1442.15,-1076.38C1345.78,-1073.22 1134.6,-1063.85 1066,-1041 1017.82,-1024.95 969,-1031.4 969,-980.62 969,-980.62 969,-980.62 969,-445.12 969,-328.06 938.72,-299.11 949,-182.5 950.34,-167.32 948.22,-162.39 955,-148.75 956.54,-145.66 958.41,-142.64 960.49,-139.75"/>
<polygon fill="black" stroke="black" points="963.06,-142.14 966.67,-132.18 957.64,-137.71 963.06,-142.14"/>
<text xml:space="preserve" text-anchor="middle" x="985.88" y="-577.58" font-family="Times,serif" font-size="14.00">DDG: </text>
</g>
<!-- 68719479471 -->
<g id="node10" class="node">
<title>68719479471</title>
<polygon fill="none" stroke="black" points="2611.75,-1007.25 2258.25,-1007.25 2258.25,-952 2611.75,-952 2611.75,-1007.25"/>
<text xml:space="preserve" text-anchor="start" x="2381" y="-989.95" font-family="Times,serif" font-size="14.00">IDENTIFIER, 1386</text>
<text xml:space="preserve" text-anchor="start" x="2418.12" y="-974.2" font-family="Times,serif" font-size="14.00">print</text>
<text xml:space="preserve" text-anchor="start" x="2266.25" y="-958.45" font-family="Times,serif" font-size="14.00">print(message if success else f&quot;Save failed: {m...</text>
</g>
<!-- 107374182556&#45;&gt;68719479471 -->
<g id="edge32" class="edge">
<title>107374182556&#45;&gt;68719479471</title>
<path fill="none" stroke="black" d="M1539.62,-1077.52C1660.69,-1076.5 1972.96,-1070.95 2072,-1041 2085.39,-1036.95 2085.98,-1029.67 2099.25,-1025.25 2159.61,-1005.12 2180.43,-1014.87 2246.75,-1007.43"/>
<polygon fill="black" stroke="black" points="2246.8,-1010.95 2256.3,-1006.27 2245.95,-1004 2246.8,-1010.95"/>
<text xml:space="preserve" text-anchor="middle" x="2116.12" y="-1027.7" font-family="Times,serif" font-size="14.00">DDG: </text>
</g>
<!-- 30064773816 -->
<g id="node12" class="node">
<title>30064773816</title>
<polygon fill="none" stroke="black" points="780,-785.25 494,-785.25 494,-745.75 780,-745.75 780,-785.25"/>
<text xml:space="preserve" text-anchor="start" x="599.88" y="-767.95" font-family="Times,serif" font-size="14.00">strip, 1384</text>
<text xml:space="preserve" text-anchor="start" x="502" y="-752.2" font-family="Times,serif" font-size="14.00">input(&quot;Filename to save JSON: &quot;).strip()</text>
</g>
<!-- 107374182556&#45;&gt;30064773816 -->
<g id="edge45" class="edge">
<title>107374182556&#45;&gt;30064773816</title>
<path fill="none" stroke="black" d="M1442.42,-1078.31C1327.59,-1079.02 1042.45,-1076.97 955,-1041 821.83,-986.22 704.92,-852.66 658.4,-794.42"/>
<polygon fill="black" stroke="black" points="661.43,-792.61 652.49,-786.93 655.94,-796.95 661.43,-792.61"/>
<text xml:space="preserve" text-anchor="middle" x="807.29" y="-908.83" font-family="Times,serif" font-size="14.00">DDG: </text>
</g>
<!-- 30064773827 -->
<g id="node13" class="node">
<title>30064773827</title>
<polygon fill="none" stroke="black" points="1698.38,-130.75 1351.62,-130.75 1351.62,-91.25 1698.38,-91.25 1698.38,-130.75"/>
<text xml:space="preserve" text-anchor="start" x="1430.5" y="-113.45" font-family="Times,serif" font-size="14.00">&lt;operator&gt;.conditional, 1386</text>
<text xml:space="preserve" text-anchor="start" x="1359.62" y="-97.7" font-family="Times,serif" font-size="14.00">message if success else f&quot;Save failed: {message}&quot;</text>
</g>
<!-- 107374182556&#45;&gt;30064773827 -->
<g id="edge41" class="edge">
<title>107374182556&#45;&gt;30064773827</title>
<path fill="none" stroke="black" d="M1504.42,-1058.66C1516.38,-1039.76 1532,-1009.54 1532,-980.62 1532,-980.62 1532,-980.62 1532,-201.25 1532,-181.64 1530.3,-159.69 1528.58,-142.46"/>
<polygon fill="black" stroke="black" points="1532.07,-142.2 1527.53,-132.62 1525.11,-142.94 1532.07,-142.2"/>
<text xml:space="preserve" text-anchor="middle" x="1548.88" y="-577.58" font-family="Times,serif" font-size="14.00">DDG: </text>
</g>
<!-- 30064773819 -->
<g id="node14" class="node">
<title>30064773819</title>
<polygon fill="none" stroke="black" points="2217.88,-602.75 2006.12,-602.75 2006.12,-563.25 2217.88,-563.25 2217.88,-602.75"/>
<text xml:space="preserve" text-anchor="start" x="2051.25" y="-585.45" font-family="Times,serif" font-size="14.00">save_to_file, 1385</text>
<text xml:space="preserve" text-anchor="start" x="2014.12" y="-569.7" font-family="Times,serif" font-size="14.00">system.save_to_file(filename)</text>
</g>
<!-- 107374182556&#45;&gt;30064773819 -->
<g id="edge47" class="edge">
<title>107374182556&#45;&gt;30064773819</title>
<path fill="none" stroke="black" d="M1539.69,-1077.46C1656.31,-1075.46 1942,-1062.22 1942,-980.62 1942,-980.62 1942,-980.62 1942,-673.25 1942,-641.06 1966.2,-620.45 1996.33,-607.27"/>
<polygon fill="black" stroke="black" points="1997.38,-610.62 2005.35,-603.64 1994.77,-604.13 1997.38,-610.62"/>
<text xml:space="preserve" text-anchor="middle" x="1958.88" y="-805.7" font-family="Times,serif" font-size="14.00">DDG: </text>
</g>
<!-- 30064773826 -->
<g id="node15" class="node">
<title>30064773826</title>
<polygon fill="none" stroke="black" points="1262.88,-222 1051.12,-222 1051.12,-182.5 1262.88,-182.5 1262.88,-222"/>
<text xml:space="preserve" text-anchor="start" x="1059.12" y="-204.7" font-family="Times,serif" font-size="14.00">&lt;operator&gt;.formatString, 1386</text>
<text xml:space="preserve" text-anchor="start" x="1072.62" y="-188.95" font-family="Times,serif" font-size="14.00">f&quot;Save failed: {message}&quot;</text>
</g>
<!-- 107374182556&#45;&gt;30064773826 -->
<g id="edge49" class="edge">
<title>107374182556&#45;&gt;30064773826</title>
<path fill="none" stroke="black" d="M1442.21,-1077.67C1323.82,-1076.15 1031,-1063.98 1031,-980.62 1031,-980.62 1031,-980.62 1031,-292.5 1031,-262.18 1055.6,-241.23 1083.06,-227.29"/>
<polygon fill="black" stroke="black" points="1084.35,-230.55 1091.89,-223.11 1081.36,-224.22 1084.35,-230.55"/>
<text xml:space="preserve" text-anchor="middle" x="1047.88" y="-623.2" font-family="Times,serif" font-size="14.00">DDG: </text>
</g>
<!-- 68719479455 -->
<g id="node16" class="node">
<title>68719479455</title>
<polygon fill="none" stroke="black" points="2240,-1007.25 2008,-1007.25 2008,-952 2240,-952 2240,-1007.25"/>
<text xml:space="preserve" text-anchor="start" x="2070" y="-989.95" font-family="Times,serif" font-size="14.00">IDENTIFIER, 1384</text>
<text xml:space="preserve" text-anchor="start" x="2107.12" y="-974.2" font-family="Times,serif" font-size="14.00">input</text>
<text xml:space="preserve" text-anchor="start" x="2016" y="-958.45" font-family="Times,serif" font-size="14.00">input(&quot;Filename to save JSON: &quot;)</text>
</g>
<!-- 107374182556&#45;&gt;68719479455 -->
<g id="edge52" class="edge">
<title>107374182556&#45;&gt;68719479455</title>
<path fill="none" stroke="black" d="M1539.91,-1077.55C1652.7,-1076.56 1928.05,-1071.05 2015,-1041 2026.8,-1036.92 2027.53,-1031.64 2038.25,-1025.25 2045.19,-1021.11 2052.55,-1016.96 2059.92,-1012.93"/>
<polygon fill="black" stroke="black" points="2061.47,-1016.07 2068.62,-1008.25 2058.16,-1009.91 2061.47,-1016.07"/>
<text xml:space="preserve" text-anchor="middle" x="2055.12" y="-1027.7" font-family="Times,serif" font-size="14.00">DDG: </text>
</g>
<!-- 30064773813 -->
<g id="node17" class="node">
<title>30064773813</title>
<polygon fill="none" stroke="black" points="657,-999.38 425,-999.38 425,-959.88 657,-959.88 657,-999.38"/>
<text xml:space="preserve" text-anchor="start" x="503.88" y="-982.08" font-family="Times,serif" font-size="14.00">input, 1384</text>
<text xml:space="preserve" text-anchor="start" x="433" y="-966.33" font-family="Times,serif" font-size="14.00">input(&quot;Filename to save JSON: &quot;)</text>
</g>
<!-- 107374182556&#45;&gt;30064773813 -->
<g id="edge53" class="edge">
<title>107374182556&#45;&gt;30064773813</title>
<path fill="none" stroke="black" d="M1442.04,-1077.89C1289.56,-1077.95 824.64,-1075.24 678.25,-1041 645.69,-1033.38 611.25,-1018.21 585.02,-1004.98"/>
<polygon fill="black" stroke="black" points="586.86,-1002 576.37,-1000.53 583.66,-1008.22 586.86,-1002"/>
<text xml:space="preserve" text-anchor="middle" x="695.12" y="-1027.7" font-family="Times,serif" font-size="14.00">DDG: </text>
</g>
<!-- 30064773825 -->
<g id="node18" class="node">
<title>30064773825</title>
<polygon fill="none" stroke="black" points="1292.62,-313.25 1067.38,-313.25 1067.38,-273.75 1292.62,-273.75 1292.62,-313.25"/>
<text xml:space="preserve" text-anchor="start" x="1075.38" y="-295.95" font-family="Times,serif" font-size="14.00">&lt;operator&gt;.formattedValue, 1386</text>
<text xml:space="preserve" text-anchor="start" x="1149.62" y="-280.2" font-family="Times,serif" font-size="14.00">{message}</text>
</g>
<!-- 107374182556&#45;&gt;30064773825 -->
<g id="edge55" class="edge">
<title>107374182556&#45;&gt;30064773825</title>
<path fill="none" stroke="black" d="M1482.74,-1058.82C1471.14,-1033.28 1448.45,-986.95 1422,-952 1323.41,-821.71 1180,-838.64 1180,-675.25 1180,-675.25 1180,-675.25 1180,-399.5 1180,-374.36 1180,-345.83 1180,-324.86"/>
<polygon fill="black" stroke="black" points="1183.5,-324.98 1180,-314.98 1176.5,-324.98 1183.5,-324.98"/>
<text xml:space="preserve" text-anchor="middle" x="1197.4" y="-668.83" font-family="Times,serif" font-size="14.00">DDG: </text>
</g>
<!-- 124554051740 -->
<g id="node2" class="node">
<title>124554051740</title>
<polygon fill="none" stroke="black" points="1968.12,-39.5 1823.88,-39.5 1823.88,0 1968.12,0 1968.12,-39.5"/>
<text xml:space="preserve" text-anchor="start" x="1831.88" y="-22.2" font-family="Times,serif" font-size="14.00">METHOD_RETURN, 1383</text>
<text xml:space="preserve" text-anchor="start" x="1885.88" y="-6.45" font-family="Times,serif" font-size="14.00">ANY</text>
</g>
<!-- 111669150009&#45;&gt;30064773819 -->
<g id="edge46" class="edge">
<title>111669150009&#45;&gt;30064773819</title>
<path fill="none" stroke="black" d="M2075.95,-894.06C2085.34,-874.13 2098,-841.77 2098,-812.12 2098,-812.12 2098,-812.12 2098,-673.25 2098,-653.37 2101.43,-631.3 2104.9,-614.08"/>
<polygon fill="black" stroke="black" points="2108.28,-615.01 2106.94,-604.5 2101.43,-613.54 2108.28,-615.01"/>
<text xml:space="preserve" text-anchor="middle" x="2135.12" y="-760.08" font-family="Times,serif" font-size="14.00">DDG: system</text>
</g>
<!-- 30064773817&#45;&gt;124554051740 -->
<g id="edge5" class="edge">
<title>30064773817&#45;&gt;124554051740</title>
<path fill="none" stroke="black" d="M1663.15,-654.1C1630.34,-640.71 1599,-618.81 1599,-584 1599,-584 1599,-584 1599,-399.5 1599,-369.14 1582.87,-358.5 1596.25,-331.25 1678.87,-162.95 1847.38,-241.55 1930,-73.25 1934.08,-64.93 1931.67,-56.33 1926.63,-48.55"/>
<polygon fill="black" stroke="black" points="1929.37,-46.37 1920.4,-40.74 1923.9,-50.74 1929.37,-46.37"/>
<text xml:space="preserve" text-anchor="middle" x="1788.62" y="-349.45" font-family="Times,serif" font-size="14.00">DDG: filename = tmp287 = input(&quot;Filename to save JSON: &quot;)</text>
<text xml:space="preserve" text-anchor="middle" x="1788.62" y="-333.7" font-family="Times,serif" font-size="14.00">input(&quot;Filename to save JSON: &quot;).strip()</text>
</g>
<!-- 30064773817&#45;&gt;30064773819 -->
<g id="edge48" class="edge">
<title>30064773817&#45;&gt;30064773819</title>
<path fill="none" stroke="black" d="M1767.92,-654.05C1787.85,-642.57 1814.72,-628.72 1840.25,-620.75 1889.58,-605.36 1945.93,-596.41 1994.49,-591.21"/>
<polygon fill="black" stroke="black" points="1994.59,-594.72 2004.18,-590.22 1993.87,-587.76 1994.59,-594.72"/>
<text xml:space="preserve" text-anchor="middle" x="1884.12" y="-623.2" font-family="Times,serif" font-size="14.00">DDG: filename</text>
</g>
<!-- 30064773828&#45;&gt;124554051740 -->
<g id="edge19" class="edge">
<title>30064773828&#45;&gt;124554051740</title>
<path fill="none" stroke="black" d="M1055.16,-90.83C1072.47,-85.47 1091.03,-79.42 1108,-73.25 1124.99,-67.08 1127.87,-61.5 1145.5,-57.5 1270.17,-29.19 1643.85,-22.69 1812.18,-21.2"/>
<polygon fill="black" stroke="black" points="1811.97,-24.7 1821.94,-21.11 1811.91,-17.7 1811.97,-24.7"/>
<text xml:space="preserve" text-anchor="middle" x="1327.75" y="-59.95" font-family="Times,serif" font-size="14.00">DDG: message if success else f&quot;Save failed: {message}&quot;</text>
</g>
<!-- 30064773828&#45;&gt;124554051740 -->
<g id="edge20" class="edge">
<title>30064773828&#45;&gt;124554051740</title>
<path fill="none" stroke="black" d="M812.04,-92.76C751.18,-85.96 696.92,-78.54 692.25,-73.25 687.61,-68 687.38,-62.52 692.25,-57.5 711.75,-37.4 1542.11,-25.2 1812.13,-21.76"/>
<polygon fill="black" stroke="black" points="1811.94,-25.26 1821.9,-21.63 1811.85,-18.26 1811.94,-25.26"/>
<text xml:space="preserve" text-anchor="middle" x="898.12" y="-59.95" font-family="Times,serif" font-size="14.00">DDG: print(message if success else f&quot;Save failed: {message}&quot;)</text>
</g>
<!-- 30064773820 -->
<g id="node7" class="node">
<title>30064773820</title>
<polygon fill="none" stroke="black" points="2345.25,-511.5 2072.75,-511.5 2072.75,-472 2345.25,-472 2345.25,-511.5"/>
<text xml:space="preserve" text-anchor="start" x="2117.88" y="-494.2" font-family="Times,serif" font-size="14.00">&lt;operator&gt;.assignment, 1385</text>
<text xml:space="preserve" text-anchor="start" x="2080.75" y="-478.45" font-family="Times,serif" font-size="14.00">tmp288 = system.save_to_file(filename)</text>
</g>
<!-- 30064773820&#45;&gt;124554051740 -->
<g id="edge6" class="edge">
<title>30064773820&#45;&gt;124554051740</title>
<path fill="none" stroke="black" d="M2191.75,-471.55C2153.27,-426.36 2068.21,-311.68 2126.75,-240 2152.07,-208.99 2189.68,-253.01 2215,-222 2226.1,-208.4 2223.03,-198.11 2215,-182.5 2169.82,-94.7 2057.68,-53.57 1979.2,-35"/>
<polygon fill="black" stroke="black" points="1980.36,-31.68 1969.84,-32.86 1978.81,-38.5 1980.36,-31.68"/>
<text xml:space="preserve" text-anchor="middle" x="2163.88" y="-242.45" font-family="Times,serif" font-size="14.00">DDG: tmp288</text>
</g>
<!-- 30064773820&#45;&gt;124554051740 -->
<g id="edge9" class="edge">
<title>30064773820&#45;&gt;124554051740</title>
<path fill="none" stroke="black" d="M2207.77,-471.81C2205.53,-429.48 2202.85,-324.28 2224.5,-240 2226.7,-231.43 2231.06,-230.63 2233,-222 2236.84,-204.87 2237.82,-199.38 2233,-182.5 2228.15,-165.51 2222.28,-163.12 2212,-148.75 2192.8,-121.9 2191.38,-111.08 2165,-91.25 2111.37,-50.93 2036.68,-33.61 1979.61,-26.2"/>
<polygon fill="black" stroke="black" points="1980.29,-22.76 1969.95,-25.03 1979.45,-29.71 1980.29,-22.76"/>
<text xml:space="preserve" text-anchor="middle" x="2339.25" y="-242.45" font-family="Times,serif" font-size="14.00">DDG: system.save_to_file(filename)</text>
</g>
<!-- 30064773820&#45;&gt;124554051740 -->
<g id="edge10" class="edge">
<title>30064773820&#45;&gt;124554051740</title>
<path fill="none" stroke="black" d="M2333.12,-471.57C2402.85,-457.16 2476,-434.25 2476,-401.5 2476,-401.5 2476,-401.5 2476,-110 2476,-60.41 2140.5,-34.63 1979.84,-25.12"/>
<polygon fill="black" stroke="black" points="1980.27,-21.64 1970.09,-24.55 1979.87,-28.63 1980.27,-21.64"/>
<text xml:space="preserve" text-anchor="middle" x="2621.12" y="-242.45" font-family="Times,serif" font-size="14.00">DDG: tmp288 = system.save_to_file(filename)</text>
</g>
<!-- 30064773822 -->
<g id="node8" class="node">
<title>30064773822</title>
<polygon fill="none" stroke="black" points="2726.12,-130.75 2527.88,-130.75 2527.88,-91.25 2726.12,-91.25 2726.12,-130.75"/>
<text xml:space="preserve" text-anchor="start" x="2535.88" y="-113.45" font-family="Times,serif" font-size="14.00">&lt;operator&gt;.assignment, 1385</text>
<text xml:space="preserve" text-anchor="start" x="2562.88" y="-97.7" font-family="Times,serif" font-size="14.00">success = tmp288[0]</text>
</g>
<!-- 30064773820&#45;&gt;30064773822 -->
<g id="edge27" class="edge">
<title>30064773820&#45;&gt;30064773822</title>
<path fill="none" stroke="black" d="M2345.56,-479.64C2403.49,-473.54 2463.66,-464.97 2490,-454 2610.79,-403.71 2609.38,-339.06 2722.75,-273.75 2741.15,-263.15 2755.15,-273.37 2767,-255.75 2798.81,-208.47 2732.79,-162.91 2680.99,-136.18"/>
<polygon fill="black" stroke="black" points="2682.71,-133.13 2672.2,-131.77 2679.57,-139.39 2682.71,-133.13"/>
<text xml:space="preserve" text-anchor="middle" x="2759.88" y="-288.07" font-family="Times,serif" font-size="14.00">DDG: tmp288</text>
</g>
<!-- 30064773824 -->
<g id="node9" class="node">
<title>30064773824</title>
<polygon fill="none" stroke="black" points="2098.12,-420.25 1899.88,-420.25 1899.88,-380.75 2098.12,-380.75 2098.12,-420.25"/>
<text xml:space="preserve" text-anchor="start" x="1907.88" y="-402.95" font-family="Times,serif" font-size="14.00">&lt;operator&gt;.assignment, 1385</text>
<text xml:space="preserve" text-anchor="start" x="1934.88" y="-387.2" font-family="Times,serif" font-size="14.00">message = tmp288[1]</text>
</g>
<!-- 30064773820&#45;&gt;30064773824 -->
<g id="edge28" class="edge">
<title>30064773820&#45;&gt;30064773824</title>
<path fill="none" stroke="black" d="M2073.88,-471.65C2061.14,-466.97 2048.86,-461.17 2037.75,-454 2028.45,-448 2020.61,-438.94 2014.46,-430.02"/>
<polygon fill="black" stroke="black" points="2017.59,-428.41 2009.28,-421.83 2011.67,-432.15 2017.59,-428.41"/>
<text xml:space="preserve" text-anchor="middle" x="2074.88" y="-440.7" font-family="Times,serif" font-size="14.00">DDG: tmp288</text>
</g>
<!-- 30064773822&#45;&gt;124554051740 -->
<g id="edge11" class="edge">
<title>30064773822&#45;&gt;124554051740</title>
<path fill="none" stroke="black" d="M2554.91,-90.79C2539.92,-85.83 2524.45,-79.96 2510.5,-73.25 2499.17,-67.8 2498.91,-61.53 2487,-57.5 2395.54,-26.55 2120.1,-21.23 1979.92,-20.6"/>
<polygon fill="black" stroke="black" points="1979.95,-17.1 1969.94,-20.56 1979.92,-24.1 1979.95,-17.1"/>
<text xml:space="preserve" text-anchor="middle" x="2557.75" y="-59.95" font-family="Times,serif" font-size="14.00">DDG: tmp288[0]</text>
</g>
<!-- 30064773822&#45;&gt;124554051740 -->
<g id="edge12" class="edge">
<title>30064773822&#45;&gt;124554051740</title>
<path fill="none" stroke="black" d="M2624.15,-90.78C2621.35,-79.14 2615.83,-65.12 2605,-57.5 2554.96,-22.31 2156.19,-19.6 1979.62,-20.15"/>
<polygon fill="black" stroke="black" points="1979.82,-16.65 1969.83,-20.19 1979.85,-23.65 1979.82,-16.65"/>
<text xml:space="preserve" text-anchor="middle" x="2698.53" y="-59.95" font-family="Times,serif" font-size="14.00">DDG: success = tmp288[0]</text>
</g>
<!-- 30064773824&#45;&gt;124554051740 -->
<g id="edge13" class="edge">
<title>30064773824&#45;&gt;124554051740</title>
<path fill="none" stroke="black" d="M2003.94,-380.42C2006.73,-366.6 2008.95,-347.55 2005,-331.25 1994.25,-286.91 1987.94,-274.42 1958,-240 1948.9,-229.53 1938.88,-234.32 1932.5,-222 1898.55,-156.48 1990.82,-122.01 1955,-57.5 1952.95,-53.8 1950.35,-50.43 1947.39,-47.35"/>
<polygon fill="black" stroke="black" points="1949.85,-44.85 1940.01,-40.92 1945.25,-50.13 1949.85,-44.85"/>
<text xml:space="preserve" text-anchor="middle" x="1979.75" y="-196.82" font-family="Times,serif" font-size="14.00">DDG: tmp288[1]</text>
</g>
<!-- 30064773824&#45;&gt;124554051740 -->
<g id="edge14" class="edge">
<title>30064773824&#45;&gt;124554051740</title>
<path fill="none" stroke="black" d="M2014.55,-380.28C2029.22,-360.16 2049,-327.01 2049,-294.5 2049,-294.5 2049,-294.5 2049,-110 2049,-72.92 2015.05,-50.96 1979.13,-38.12"/>
<polygon fill="black" stroke="black" points="1980.5,-34.88 1969.9,-35.05 1978.29,-41.53 1980.5,-34.88"/>
<text xml:space="preserve" text-anchor="middle" x="2130" y="-196.82" font-family="Times,serif" font-size="14.00">DDG: message = tmp288[1]</text>
</g>
<!-- 30064773824&#45;&gt;30064773828 -->
<g id="edge33" class="edge">
<title>30064773824&#45;&gt;30064773828</title>
<path fill="none" stroke="black" d="M1899.54,-396.66C1783.41,-392.44 1604.03,-382.75 1580,-362.75 1536.49,-326.54 1564.49,-293.5 1546,-240 1536.95,-213.83 1535.68,-206.58 1522,-182.5 1512.78,-166.27 1513.36,-157.74 1497,-148.75 1482.7,-140.89 1315.96,-129.87 1177.35,-121.95"/>
<polygon fill="black" stroke="black" points="1177.85,-118.48 1167.66,-121.4 1177.45,-125.47 1177.85,-118.48"/>
<text xml:space="preserve" text-anchor="middle" x="1590.77" y="-242.45" font-family="Times,serif" font-size="14.00">DDG: message</text>
</g>
<!-- 30064773824&#45;&gt;30064773827 -->
<g id="edge39" class="edge">
<title>30064773824&#45;&gt;30064773827</title>
<path fill="none" stroke="black" d="M1999.51,-380.53C1998.95,-365.68 1995.96,-345.25 1985,-331.25 1933.23,-265.11 1705.2,-176.47 1590.86,-135.09"/>
<polygon fill="black" stroke="black" points="1592.17,-131.84 1581.58,-131.75 1589.8,-138.43 1592.17,-131.84"/>
<text xml:space="preserve" text-anchor="middle" x="1913.32" y="-242.45" font-family="Times,serif" font-size="14.00">DDG: message</text>
</g>
<!-- 30064773824&#45;&gt;30064773825 -->
<g id="edge54" class="edge">
<title>30064773824&#45;&gt;30064773825</title>
<path fill="none" stroke="black" d="M1899.71,-397.35C1793.19,-393.93 1619.32,-385.16 1471,-362.75 1398.33,-351.77 1317.01,-332.05 1258.84,-316.62"/>
<polygon fill="black" stroke="black" points="1259.92,-313.29 1249.36,-314.09 1258.11,-320.05 1259.92,-313.29"/>
<text xml:space="preserve" text-anchor="middle" x="1511.5" y="-341.57" font-family="Times,serif" font-size="14.00">DDG: message</text>
</g>
<!-- 30064773814 -->
<g id="node11" class="node">
<title>30064773814</title>
<polygon fill="none" stroke="black" points="589.38,-876.5 296.62,-876.5 296.62,-837 589.38,-837 589.38,-876.5"/>
<text xml:space="preserve" text-anchor="start" x="351.88" y="-859.2" font-family="Times,serif" font-size="14.00">&lt;operator&gt;.assignment, 1384</text>
<text xml:space="preserve" text-anchor="start" x="304.62" y="-843.45" font-family="Times,serif" font-size="14.00">tmp287 = input(&quot;Filename to save JSON: &quot;)</text>
</g>
<!-- 30064773814&#45;&gt;124554051740 -->
<g id="edge1" class="edge">
<title>30064773814&#45;&gt;124554051740</title>
<path fill="none" stroke="black" d="M392.33,-836.59C363.86,-822.19 334,-799.27 334,-766.5 334,-766.5 334,-766.5 334,-110 334,-12.5 450.38,-70.57 547,-57.5 793.24,-24.19 1557.56,-20.85 1812.37,-20.68"/>
<polygon fill="black" stroke="black" points="1812.24,-24.18 1822.24,-20.68 1812.24,-17.18 1812.24,-24.18"/>
<text xml:space="preserve" text-anchor="middle" x="458.88" y="-440.7" font-family="Times,serif" font-size="14.00">DDG: input(&quot;Filename to save JSON: &quot;)</text>
</g>
<!-- 30064773814&#45;&gt;124554051740 -->
<g id="edge2" class="edge">
<title>30064773814&#45;&gt;124554051740</title>
<path fill="none" stroke="black" d="M296.41,-853.7C167.42,-847.8 0,-828.23 0,-766.5 0,-766.5 0,-766.5 0,-110 0,-17.94 1445.2,-18.6 1812.1,-20.25"/>
<polygon fill="black" stroke="black" points="1811.88,-23.75 1821.9,-20.29 1811.92,-16.75 1811.88,-23.75"/>
<text xml:space="preserve" text-anchor="middle" x="155.25" y="-440.7" font-family="Times,serif" font-size="14.00">DDG: tmp287 = input(&quot;Filename to save JSON: &quot;)</text>
</g>
<!-- 30064773814&#45;&gt;30064773816 -->
<g id="edge44" class="edge">
<title>30064773814&#45;&gt;30064773816</title>
<path fill="none" stroke="black" d="M484.62,-836.6C514.03,-823.07 553.65,-804.85 585.12,-790.37"/>
<polygon fill="black" stroke="black" points="586.45,-793.61 594.08,-786.25 583.53,-787.25 586.45,-793.61"/>
<text xml:space="preserve" text-anchor="middle" x="588.74" y="-805.7" font-family="Times,serif" font-size="14.00">DDG: tmp287</text>
</g>
<!-- 30064773816&#45;&gt;124554051740 -->
<g id="edge3" class="edge">
<title>30064773816&#45;&gt;124554051740</title>
<path fill="none" stroke="black" d="M623.5,-745.3C612.57,-727.86 599,-701.02 599,-675.25 599,-675.25 599,-675.25 599,-490.75 599,-466.6 600.97,-456.36 585,-438.25 570.96,-422.32 554.2,-436.68 540.75,-420.25 520.04,-394.96 527,-380.69 527,-348 527,-348 527,-348 527,-110 527,-61.37 576.06,-70.22 623,-57.5 736.94,-26.62 1546.8,-21.69 1812.09,-20.9"/>
<polygon fill="black" stroke="black" points="1812.05,-24.4 1822.04,-20.87 1812.03,-17.4 1812.05,-24.4"/>
<text xml:space="preserve" text-anchor="middle" x="577.88" y="-395.07" font-family="Times,serif" font-size="14.00">DDG: tmp287</text>
</g>
<!-- 30064773816&#45;&gt;124554051740 -->
<g id="edge4" class="edge">
<title>30064773816&#45;&gt;124554051740</title>
<path fill="none" stroke="black" d="M637,-745.35C637,-727.28 637,-699.42 637,-675.25 637,-675.25 637,-675.25 637,-110 637,-81.96 647.48,-71.1 672,-57.5 721.74,-29.91 1544.03,-22.77 1812.18,-21.16"/>
<polygon fill="black" stroke="black" points="1811.89,-24.67 1821.87,-21.11 1811.85,-17.67 1811.89,-24.67"/>
<text xml:space="preserve" text-anchor="middle" x="788.88" y="-395.07" font-family="Times,serif" font-size="14.00">DDG: input(&quot;Filename to save JSON: &quot;).strip()</text>
</g>
<!-- 30064773816&#45;&gt;30064773817 -->
<g id="edge22" class="edge">
<title>30064773816&#45;&gt;30064773817</title>
<path fill="none" stroke="black" d="M780.24,-752.88C976.97,-736.92 1331.12,-708.18 1548.98,-690.51"/>
<polygon fill="black" stroke="black" points="1549.03,-694.01 1558.71,-689.72 1548.46,-687.04 1549.03,-694.01"/>
<text xml:space="preserve" text-anchor="middle" x="1404.73" y="-714.45" font-family="Times,serif" font-size="14.00">DDG: input(&quot;Filename to save JSON: &quot;).strip()</text>
</g>
<!-- 30064773827&#45;&gt;124554051740 -->
<g id="edge15" class="edge">
<title>30064773827&#45;&gt;124554051740</title>
<path fill="none" stroke="black" d="M1698.49,-96.46C1751.33,-90.68 1801.82,-82.98 1826,-73.25 1830.4,-71.48 1847.16,-58.94 1863.18,-46.57"/>
<polygon fill="black" stroke="black" points="1864.98,-49.61 1870.73,-40.71 1860.68,-44.08 1864.98,-49.61"/>
<text xml:space="preserve" text-anchor="middle" x="1889.28" y="-59.95" font-family="Times,serif" font-size="14.00">DDG: success</text>
</g>
<!-- 30064773827&#45;&gt;124554051740 -->
<g id="edge17" class="edge">
<title>30064773827&#45;&gt;124554051740</title>
<path fill="none" stroke="black" d="M1516.5,-90.78C1513.04,-79.72 1511.5,-66.32 1519.5,-57.5 1538.79,-36.23 1707.42,-26.87 1812.35,-23.08"/>
<polygon fill="black" stroke="black" points="1812.18,-26.58 1822.05,-22.74 1811.93,-19.59 1812.18,-26.58"/>
<text xml:space="preserve" text-anchor="middle" x="1620.75" y="-59.95" font-family="Times,serif" font-size="14.00">DDG: f&quot;Save failed: {message}&quot;</text>
</g>
<!-- 30064773827&#45;&gt;124554051740 -->
<g id="edge18" class="edge">
<title>30064773827&#45;&gt;124554051740</title>
<path fill="none" stroke="black" d="M1673.35,-90.82C1690.16,-86.18 1706.72,-80.41 1722,-73.25 1731.93,-68.6 1731.18,-62.39 1741,-57.5 1763.01,-46.53 1788.43,-38.74 1812.23,-33.26"/>
<polygon fill="black" stroke="black" points="1812.9,-36.7 1821.92,-31.14 1811.41,-29.86 1812.9,-36.7"/>
<text xml:space="preserve" text-anchor="middle" x="1781.5" y="-59.95" font-family="Times,serif" font-size="14.00">DDG: message</text>
</g>
<!-- 30064773819&#45;&gt;124554051740 -->
<g id="edge7" class="edge">
<title>30064773819&#45;&gt;124554051740</title>
<path fill="none" stroke="black" d="M2218.23,-579.33C2415.6,-572.94 2819,-552.56 2819,-492.75 2819,-492.75 2819,-492.75 2819,-110 2819,-81.96 2808.45,-71.24 2784,-57.5 2749.33,-38.01 2194.36,-26.07 1979.78,-22.17"/>
<polygon fill="black" stroke="black" points="1979.87,-18.67 1969.8,-21.99 1979.74,-25.67 1979.87,-18.67"/>
<text xml:space="preserve" text-anchor="middle" x="2856.12" y="-288.07" font-family="Times,serif" font-size="14.00">DDG: system</text>
</g>
<!-- 30064773819&#45;&gt;124554051740 -->
<g id="edge8" class="edge">
<title>30064773819&#45;&gt;124554051740</title>
<path fill="none" stroke="black" d="M2217.97,-581.22C2439.03,-578.18 2929,-563.47 2929,-492.75 2929,-492.75 2929,-492.75 2929,-110 2929,-51.79 2865.73,-70.56 2809,-57.5 2652.79,-21.53 2174.21,-19.45 1979.6,-20.17"/>
<polygon fill="black" stroke="black" points="1979.82,-16.67 1969.83,-20.21 1979.85,-23.67 1979.82,-16.67"/>
<text xml:space="preserve" text-anchor="middle" x="2972.88" y="-288.07" font-family="Times,serif" font-size="14.00">DDG: filename</text>
</g>
<!-- 30064773819&#45;&gt;30064773820 -->
<g id="edge25" class="edge">
<title>30064773819&#45;&gt;30064773820</title>
<path fill="none" stroke="black" d="M2107.36,-562.92C2105.88,-552.19 2106.06,-539.06 2112.75,-529.5 2115.57,-525.46 2118.91,-521.86 2122.61,-518.66"/>
<polygon fill="black" stroke="black" points="2124.62,-521.52 2130.61,-512.78 2120.48,-515.88 2124.62,-521.52"/>
<text xml:space="preserve" text-anchor="middle" x="2149.88" y="-531.95" font-family="Times,serif" font-size="14.00">DDG: system</text>
</g>
<!-- 30064773819&#45;&gt;30064773820 -->
<g id="edge26" class="edge">
<title>30064773819&#45;&gt;30064773820</title>
<path fill="none" stroke="black" d="M2163.77,-562.83C2172.27,-558.03 2180.43,-552.21 2187,-545.25 2193.01,-538.87 2197.5,-530.61 2200.8,-522.54"/>
<polygon fill="black" stroke="black" points="2204.04,-523.87 2204.08,-513.27 2197.44,-521.53 2204.04,-523.87"/>
<text xml:space="preserve" text-anchor="middle" x="2241.29" y="-531.95" font-family="Times,serif" font-size="14.00">DDG: filename</text>
</g>
<!-- 30064773826&#45;&gt;124554051740 -->
<g id="edge16" class="edge">
<title>30064773826&#45;&gt;124554051740</title>
<path fill="none" stroke="black" d="M1050.66,-183.25C1049.1,-183 1047.54,-182.75 1046,-182.5 971.09,-170.43 768.09,-177.72 708.5,-130.75 681.65,-109.59 661.19,-82.04 685,-57.5 704.63,-37.27 1540.94,-25.15 1812.09,-21.74"/>
<polygon fill="black" stroke="black" points="1811.95,-25.24 1821.91,-21.62 1811.86,-18.24 1811.95,-25.24"/>
<text xml:space="preserve" text-anchor="middle" x="755.75" y="-105.58" font-family="Times,serif" font-size="14.00">DDG: {message}</text>
</g>
<!-- 30064773826&#45;&gt;30064773828 -->
<g id="edge36" class="edge">
<title>30064773826&#45;&gt;30064773828</title>
<path fill="none" stroke="black" d="M1050.76,-183.01C1020.87,-176.85 995.15,-170.12 990.5,-164.5 985.42,-158.36 983.64,-150.3 983.49,-142.34"/>
<polygon fill="black" stroke="black" points="986.97,-142.72 984.14,-132.51 979.98,-142.25 986.97,-142.72"/>
<text xml:space="preserve" text-anchor="middle" x="1051.25" y="-151.2" font-family="Times,serif" font-size="14.00">DDG: Save failed: </text>
</g>
<!-- 30064773826&#45;&gt;30064773828 -->
<g id="edge37" class="edge">
<title>30064773826&#45;&gt;30064773828</title>
<path fill="none" stroke="black" d="M1144.72,-182.05C1136.66,-170.87 1125.19,-157.32 1112,-148.75 1104.14,-143.64 1095.55,-139.22 1086.67,-135.4"/>
<polygon fill="black" stroke="black" points="1088.14,-132.22 1077.55,-131.75 1085.53,-138.72 1088.14,-132.22"/>
<text xml:space="preserve" text-anchor="middle" x="1176.5" y="-151.2" font-family="Times,serif" font-size="14.00">DDG: {message}</text>
</g>
<!-- 30064773826&#45;&gt;30064773827 -->
<g id="edge42" class="edge">
<title>30064773826&#45;&gt;30064773827</title>
<path fill="none" stroke="black" d="M1195.24,-182.13C1205.93,-176.6 1217.49,-170.45 1228,-164.5 1239.59,-157.93 1240.96,-153.24 1253.5,-148.75 1280.8,-138.97 1310.49,-131.77 1339.89,-126.47"/>
<polygon fill="black" stroke="black" points="1340.39,-129.93 1349.65,-124.78 1339.2,-123.03 1340.39,-129.93"/>
<text xml:space="preserve" text-anchor="middle" x="1314.25" y="-151.2" font-family="Times,serif" font-size="14.00">DDG: Save failed: </text>
</g>
<!-- 30064773826&#45;&gt;30064773827 -->
<g id="edge43" class="edge">
<title>30064773826&#45;&gt;30064773827</title>
<path fill="none" stroke="black" d="M1263.13,-192.51C1299.5,-187.14 1339.87,-178.48 1375,-164.5 1386.68,-159.85 1387.11,-154.07 1398.5,-148.75 1409.8,-143.48 1422.03,-138.78 1434.27,-134.66"/>
<polygon fill="black" stroke="black" points="1435.14,-138.06 1443.57,-131.65 1432.98,-131.4 1435.14,-138.06"/>
<text xml:space="preserve" text-anchor="middle" x="1445.75" y="-151.2" font-family="Times,serif" font-size="14.00">DDG: {message}</text>
</g>
<!-- 30064773813&#45;&gt;30064773814 -->
<g id="edge38" class="edge">
<title>30064773813&#45;&gt;30064773814</title>
<path fill="none" stroke="black" d="M523.79,-959.77C516.75,-951.91 508.61,-942.62 501.5,-934 488.61,-918.37 474.79,-900.42 463.82,-885.86"/>
<polygon fill="black" stroke="black" points="466.77,-883.95 457.97,-878.05 461.17,-888.15 466.77,-883.95"/>
<text xml:space="preserve" text-anchor="middle" x="602.75" y="-908.83" font-family="Times,serif" font-size="14.00">DDG: &quot;Filename to save JSON: &quot;</text>
</g>
<!-- 30064773825&#45;&gt;30064773828 -->
<g id="edge34" class="edge">
<title>30064773825&#45;&gt;30064773828</title>
<path fill="none" stroke="black" d="M1067.08,-283.23C1026.98,-273.85 985.7,-255.9 961,-222 943.61,-198.14 956.17,-164.53 969.57,-140.75"/>
<polygon fill="black" stroke="black" points="972.56,-142.58 974.71,-132.21 966.56,-138.98 972.56,-142.58"/>
<text xml:space="preserve" text-anchor="middle" x="1001.5" y="-196.82" font-family="Times,serif" font-size="14.00">DDG: message</text>
</g>
<!-- 30064773825&#45;&gt;30064773827 -->
<g id="edge40" class="edge">
<title>30064773825&#45;&gt;30064773827</title>
<path fill="none" stroke="black" d="M1221.36,-273.38C1271.74,-250.42 1359.72,-211.39 1437,-182.5 1461.49,-173.35 1472.46,-180.68 1493,-164.5 1500.81,-158.35 1507.17,-149.72 1512.11,-141.24"/>
<polygon fill="black" stroke="black" points="1515.16,-142.96 1516.71,-132.48 1508.96,-139.7 1515.16,-142.96"/>
<text xml:space="preserve" text-anchor="middle" x="1477.5" y="-196.82" font-family="Times,serif" font-size="14.00">DDG: message</text>
</g>
<!-- 30064773825&#45;&gt;30064773826 -->
<g id="edge50" class="edge">
<title>30064773825&#45;&gt;30064773826</title>
<path fill="none" stroke="black" d="M1175.12,-273.57C1172.12,-261.94 1168.21,-246.77 1164.79,-233.49"/>
<polygon fill="black" stroke="black" points="1168.21,-232.73 1162.33,-223.92 1161.43,-234.48 1168.21,-232.73"/>
<text xml:space="preserve" text-anchor="middle" x="1210.38" y="-242.45" font-family="Times,serif" font-size="14.00">DDG: message</text>
</g>
<!-- 30064771076 -->
<g id="node19" class="node">
<title>30064771076</title>
<polygon fill="none" stroke="black" points="2372.12,-1096.75 2281.88,-1096.75 2281.88,-1060.75 2372.12,-1060.75 2372.12,-1096.75"/>
<text xml:space="preserve" text-anchor="middle" x="2327" y="-1073.33" font-family="Times,serif" font-size="14.00">30064771076</text>
</g>
<!-- 30064771076&#45;&gt;68719479471 -->
<g id="edge29" class="edge">
<title>30064771076&#45;&gt;68719479471</title>
<path fill="none" stroke="black" d="M2336.63,-1060.33C2343.23,-1049.41 2352.72,-1035.5 2363.5,-1025.25 2367.57,-1021.38 2372.03,-1017.66 2376.66,-1014.15"/>
<polygon fill="black" stroke="black" points="2378.43,-1017.19 2384.52,-1008.52 2374.35,-1011.5 2378.43,-1017.19"/>
<text xml:space="preserve" text-anchor="middle" x="2397.25" y="-1027.7" font-family="Times,serif" font-size="14.00">DDG: print</text>
</g>
<!-- 68719479589 -->
<g id="node20" class="node">
<title>68719479589</title>
<polygon fill="none" stroke="black" points="2480.12,-1096.75 2389.88,-1096.75 2389.88,-1060.75 2480.12,-1060.75 2480.12,-1096.75"/>
<text xml:space="preserve" text-anchor="middle" x="2435" y="-1073.33" font-family="Times,serif" font-size="14.00">68719479589</text>
</g>
<!-- 68719479589&#45;&gt;68719479471 -->
<g id="edge30" class="edge">
<title>68719479589&#45;&gt;68719479471</title>
<path fill="none" stroke="black" d="M2435,-1060.39C2435,-1048.85 2435,-1033.23 2435,-1018.88"/>
<polygon fill="black" stroke="black" points="2438.5,-1019.25 2435,-1009.25 2431.5,-1019.25 2438.5,-1019.25"/>
<text xml:space="preserve" text-anchor="middle" x="2468.75" y="-1027.7" font-family="Times,serif" font-size="14.00">DDG: print</text>
</g>
<!-- 68719479592 -->
<g id="node21" class="node">
<title>68719479592</title>
<polygon fill="none" stroke="black" points="2588.12,-1096.75 2497.88,-1096.75 2497.88,-1060.75 2588.12,-1060.75 2588.12,-1096.75"/>
<text xml:space="preserve" text-anchor="middle" x="2543" y="-1073.33" font-family="Times,serif" font-size="14.00">68719479592</text>
</g>
<!-- 68719479592&#45;&gt;68719479471 -->
<g id="edge31" class="edge">
<title>68719479592&#45;&gt;68719479471</title>
<path fill="none" stroke="black" d="M2533.56,-1060.31C2527.07,-1049.38 2517.71,-1035.48 2507,-1025.25 2502.92,-1021.35 2498.44,-1017.62 2493.78,-1014.09"/>
<polygon fill="black" stroke="black" points="2496.04,-1011.41 2485.87,-1008.44 2491.97,-1017.1 2496.04,-1011.41"/>
<text xml:space="preserve" text-anchor="middle" x="2554.49" y="-1027.7" font-family="Times,serif" font-size="14.00">DDG: print</text>
</g>
<!-- 30064771073 -->
<g id="node22" class="node">
<title>30064771073</title>
<polygon fill="none" stroke="black" points="2196.12,-1096.75 2105.88,-1096.75 2105.88,-1060.75 2196.12,-1060.75 2196.12,-1096.75"/>
<text xml:space="preserve" text-anchor="middle" x="2151" y="-1073.33" font-family="Times,serif" font-size="14.00">30064771073</text>
</g>
<!-- 30064771073&#45;&gt;68719479455 -->
<g id="edge51" class="edge">
<title>30064771073&#45;&gt;68719479455</title>
<path fill="none" stroke="black" d="M2146.17,-1060.39C2142.93,-1048.73 2138.54,-1032.92 2134.52,-1018.45"/>
<polygon fill="black" stroke="black" points="2137.99,-1017.9 2131.94,-1009.2 2131.25,-1019.77 2137.99,-1017.9"/>
<text xml:space="preserve" text-anchor="middle" x="2174.46" y="-1027.7" font-family="Times,serif" font-size="14.00">DDG: input</text>
</g>
</g>
</svg>
