<?xml version="1.0" encoding="UTF-8" standalone="no"?>
<!DOCTYPE svg PUBLIC "-//W3C//DTD SVG 1.1//EN"
 "http://www.w3.org/Graphics/SVG/1.1/DTD/svg11.dtd">
<!-- Generated by graphviz version 13.1.2 (20250809.0930)
 -->
<!-- Title: is_registered_in_semester&lt;metaClassAdapter&gt; Pages: 1 -->
<svg width="1212pt" height="436pt"
 viewBox="0.00 0.00 1212.00 436.00" xmlns="http://www.w3.org/2000/svg" xmlns:xlink="http://www.w3.org/1999/xlink">
<g id="graph0" class="graph" transform="scale(1 1) rotate(0) translate(4 432.25)">
<title>is_registered_in_semester&lt;metaClassAdapter&gt;</title>
<polygon fill="white" stroke="none" points="-4,4 -4,-432.25 1207.5,-432.25 1207.5,4 -4,4"/>
<!-- 107374182417 -->
<g id="node1" class="node">
<title>107374182417</title>
<polygon fill="none" stroke="black" points="378.88,-428.25 72.62,-428.25 72.62,-388.75 378.88,-388.75 378.88,-428.25"/>
<text xml:space="preserve" text-anchor="start" x="188.62" y="-410.95" font-family="Times,serif" font-size="14.00">METHOD, 248</text>
<text xml:space="preserve" text-anchor="start" x="80.62" y="-395.2" font-family="Times,serif" font-size="14.00">is_registered_in_semester&lt;metaClassAdapter&gt;</text>
</g>
<!-- 111669149720 -->
<g id="node3" class="node">
<title>111669149720</title>
<polygon fill="none" stroke="black" points="83.5,-279.5 0,-279.5 0,-240 83.5,-240 83.5,-279.5"/>
<text xml:space="preserve" text-anchor="start" x="8" y="-262.2" font-family="Times,serif" font-size="14.00">PARAM, 248</text>
<text xml:space="preserve" text-anchor="start" x="31.62" y="-246.45" font-family="Times,serif" font-size="14.00">cls</text>
</g>
<!-- 107374182417&#45;&gt;111669149720 -->
<g id="edge7" class="edge">
<title>107374182417&#45;&gt;111669149720</title>
<path fill="none" stroke="black" d="M153.04,-388.25C124.52,-377.4 93.67,-361.05 72.75,-337 61.32,-323.85 53.74,-305.94 48.94,-290.77"/>
<polygon fill="black" stroke="black" points="52.34,-289.93 46.22,-281.29 45.62,-291.87 52.34,-289.93"/>
<text xml:space="preserve" text-anchor="middle" x="130" y="-357.45" font-family="Times,serif" font-size="14.00">DDG: </text>
</g>
<!-- 111669149721 -->
<g id="node4" class="node">
<title>111669149721</title>
<polygon fill="none" stroke="black" points="165.5,-337 82,-337 82,-297.5 165.5,-297.5 165.5,-337"/>
<text xml:space="preserve" text-anchor="start" x="90" y="-319.7" font-family="Times,serif" font-size="14.00">PARAM, 248</text>
<text xml:space="preserve" text-anchor="start" x="110.25" y="-303.95" font-family="Times,serif" font-size="14.00">self</text>
</g>
<!-- 107374182417&#45;&gt;111669149721 -->
<g id="edge8" class="edge">
<title>107374182417&#45;&gt;111669149721</title>
<path fill="none" stroke="black" d="M203.87,-388.35C189.35,-375.65 170.09,-358.8 154.1,-344.8"/>
<polygon fill="black" stroke="black" points="156.56,-342.31 146.73,-338.36 151.96,-347.58 156.56,-342.31"/>
<text xml:space="preserve" text-anchor="middle" x="197.73" y="-357.45" font-family="Times,serif" font-size="14.00">DDG: </text>
</g>
<!-- 111669149722 -->
<g id="node5" class="node">
<title>111669149722</title>
<polygon fill="none" stroke="black" points="267.5,-337 184,-337 184,-297.5 267.5,-297.5 267.5,-337"/>
<text xml:space="preserve" text-anchor="start" x="192" y="-319.7" font-family="Times,serif" font-size="14.00">PARAM, 248</text>
<text xml:space="preserve" text-anchor="start" x="198.75" y="-303.95" font-family="Times,serif" font-size="14.00">sections</text>
</g>
<!-- 107374182417&#45;&gt;111669149722 -->
<g id="edge9" class="edge">
<title>107374182417&#45;&gt;111669149722</title>
<path fill="none" stroke="black" d="M225.75,-388.57C225.75,-377.05 225.75,-362.07 225.75,-348.9"/>
<polygon fill="black" stroke="black" points="229.25,-348.97 225.75,-338.97 222.25,-348.97 229.25,-348.97"/>
<text xml:space="preserve" text-anchor="middle" x="242.62" y="-357.45" font-family="Times,serif" font-size="14.00">DDG: </text>
</g>
<!-- 111669149723 -->
<g id="node6" class="node">
<title>111669149723</title>
<polygon fill="none" stroke="black" points="369.5,-337 286,-337 286,-297.5 369.5,-297.5 369.5,-337"/>
<text xml:space="preserve" text-anchor="start" x="294" y="-319.7" font-family="Times,serif" font-size="14.00">PARAM, 248</text>
<text xml:space="preserve" text-anchor="start" x="300.75" y="-303.95" font-family="Times,serif" font-size="14.00">semester</text>
</g>
<!-- 107374182417&#45;&gt;111669149723 -->
<g id="edge10" class="edge">
<title>107374182417&#45;&gt;111669149723</title>
<path fill="none" stroke="black" d="M247.63,-388.35C262.15,-375.65 281.41,-358.8 297.4,-344.8"/>
<polygon fill="black" stroke="black" points="299.54,-347.58 304.77,-338.36 294.94,-342.31 299.54,-347.58"/>
<text xml:space="preserve" text-anchor="middle" x="299.73" y="-357.45" font-family="Times,serif" font-size="14.00">DDG: </text>
</g>
<!-- 30064771351 -->
<g id="node8" class="node">
<title>30064771351</title>
<polygon fill="none" stroke="black" points="572,-222 83.5,-222 83.5,-182.5 572,-182.5 572,-222"/>
<text xml:space="preserve" text-anchor="start" x="91.5" y="-204.7" font-family="Times,serif" font-size="14.00">AI_generated_code_1.py:&lt;module&gt;.Student.is_registered_in_semester, 248</text>
<text xml:space="preserve" text-anchor="start" x="159" y="-188.95" font-family="Times,serif" font-size="14.00">is_registered_in_semester(self, sections, semes...</text>
</g>
<!-- 107374182417&#45;&gt;30064771351 -->
<g id="edge13" class="edge">
<title>107374182417&#45;&gt;30064771351</title>
<path fill="none" stroke="black" d="M290.46,-388.4C338.98,-369.79 399.8,-335.89 416.75,-279.5 421.8,-262.69 426.51,-254.59 416.75,-240 414.03,-235.94 410.77,-232.32 407.13,-229.1"/>
<polygon fill="black" stroke="black" points="409.34,-226.38 399.23,-223.21 405.15,-231.99 409.34,-226.38"/>
<text xml:space="preserve" text-anchor="middle" x="426.07" y="-311.82" font-family="Times,serif" font-size="14.00">DDG: </text>
</g>
<!-- 124554051601 -->
<g id="node2" class="node">
<title>124554051601</title>
<polygon fill="none" stroke="black" points="336.5,-39.5 199,-39.5 199,0 336.5,0 336.5,-39.5"/>
<text xml:space="preserve" text-anchor="start" x="207" y="-22.2" font-family="Times,serif" font-size="14.00">METHOD_RETURN, 248</text>
<text xml:space="preserve" text-anchor="start" x="220.5" y="-6.45" font-family="Times,serif" font-size="14.00">__builtin.bool</text>
</g>
<!-- 111669149720&#45;&gt;124554051601 -->
<g id="edge2" class="edge">
<title>111669149720&#45;&gt;124554051601</title>
<path fill="none" stroke="black" d="M44.48,-239.77C51.51,-198.6 74.36,-101.27 137.75,-57.5 152.61,-47.24 170.3,-39.82 187.76,-34.47"/>
<polygon fill="black" stroke="black" points="188.46,-37.91 197.13,-31.81 186.55,-31.18 188.46,-37.91"/>
<text xml:space="preserve" text-anchor="middle" x="96.73" y="-151.2" font-family="Times,serif" font-size="14.00">DDG: cls</text>
</g>
<!-- 111669149721&#45;&gt;30064771351 -->
<g id="edge12" class="edge">
<title>111669149721&#45;&gt;30064771351</title>
<path fill="none" stroke="black" d="M127.47,-297.29C131.93,-279.76 141.14,-254.33 159,-240 165.84,-234.51 178.37,-229.61 193.62,-225.32"/>
<polygon fill="black" stroke="black" points="194.34,-228.75 203.12,-222.83 192.56,-221.98 194.34,-228.75"/>
<text xml:space="preserve" text-anchor="middle" x="189.38" y="-254.32" font-family="Times,serif" font-size="14.00">DDG: self</text>
</g>
<!-- 111669149722&#45;&gt;30064771351 -->
<g id="edge14" class="edge">
<title>111669149722&#45;&gt;30064771351</title>
<path fill="none" stroke="black" d="M223.32,-297.31C222.22,-280.52 223.36,-256.23 236,-240 239.32,-235.74 243.21,-231.97 247.48,-228.64"/>
<polygon fill="black" stroke="black" points="249.14,-231.74 255.46,-223.24 245.21,-225.94 249.14,-231.74"/>
<text xml:space="preserve" text-anchor="middle" x="279.88" y="-254.32" font-family="Times,serif" font-size="14.00">DDG: sections</text>
</g>
<!-- 111669149723&#45;&gt;30064771351 -->
<g id="edge15" class="edge">
<title>111669149723&#45;&gt;30064771351</title>
<path fill="none" stroke="black" d="M327.75,-297.08C327.75,-279.69 327.75,-253.75 327.75,-233.55"/>
<polygon fill="black" stroke="black" points="331.25,-233.65 327.75,-223.65 324.25,-233.65 331.25,-233.65"/>
<text xml:space="preserve" text-anchor="middle" x="371.62" y="-254.32" font-family="Times,serif" font-size="14.00">DDG: semester</text>
</g>
<!-- 141733920786 -->
<g id="node7" class="node">
<title>141733920786</title>
<polygon fill="none" stroke="black" points="1203.5,-130.75 850,-130.75 850,-91.25 1203.5,-91.25 1203.5,-130.75"/>
<text xml:space="preserve" text-anchor="start" x="989.62" y="-113.45" font-family="Times,serif" font-size="14.00">RETURN, 248</text>
<text xml:space="preserve" text-anchor="start" x="858" y="-97.7" font-family="Times,serif" font-size="14.00">return is_registered_in_semester(self, sections...</text>
</g>
<!-- 141733920786&#45;&gt;124554051601 -->
<g id="edge1" class="edge">
<title>141733920786&#45;&gt;124554051601</title>
<path fill="none" stroke="black" d="M863.46,-90.8C704.6,-72.12 469.89,-44.52 347.93,-30.18"/>
<polygon fill="black" stroke="black" points="348.68,-26.74 338.34,-29.05 347.87,-33.69 348.68,-26.74"/>
<text xml:space="preserve" text-anchor="middle" x="726.44" y="-59.95" font-family="Times,serif" font-size="14.00">DDG: &lt;RET&gt;</text>
</g>
<!-- 30064771351&#45;&gt;124554051601 -->
<g id="edge3" class="edge">
<title>30064771351&#45;&gt;124554051601</title>
<path fill="none" stroke="black" d="M189.88,-182.08C162.93,-171.49 138.31,-155.32 123,-130.75 99.26,-92.65 146.59,-62.93 193.34,-44.04"/>
<polygon fill="black" stroke="black" points="194.44,-47.36 202.5,-40.48 191.91,-40.84 194.44,-47.36"/>
<text xml:space="preserve" text-anchor="middle" x="153.38" y="-105.58" font-family="Times,serif" font-size="14.00">DDG: self</text>
</g>
<!-- 30064771351&#45;&gt;124554051601 -->
<g id="edge4" class="edge">
<title>30064771351&#45;&gt;124554051601</title>
<path fill="none" stroke="black" d="M278.51,-182.11C256.42,-170.75 232.55,-153.95 220,-130.75 205.38,-103.71 223.51,-71.27 241.47,-48.65"/>
<polygon fill="black" stroke="black" points="244.09,-50.97 247.83,-41.06 238.73,-46.48 244.09,-50.97"/>
<text xml:space="preserve" text-anchor="middle" x="263.88" y="-105.58" font-family="Times,serif" font-size="14.00">DDG: sections</text>
</g>
<!-- 30064771351&#45;&gt;124554051601 -->
<g id="edge5" class="edge">
<title>30064771351&#45;&gt;124554051601</title>
<path fill="none" stroke="black" d="M326.23,-182.06C324.01,-159.7 318.87,-121.9 307.75,-91.25 302.54,-76.88 294.55,-62.02 287.08,-49.67"/>
<polygon fill="black" stroke="black" points="290.07,-47.85 281.8,-41.23 284.14,-51.56 290.07,-47.85"/>
<text xml:space="preserve" text-anchor="middle" x="362.42" y="-105.58" font-family="Times,serif" font-size="14.00">DDG: semester</text>
</g>
<!-- 30064771351&#45;&gt;124554051601 -->
<g id="edge6" class="edge">
<title>30064771351&#45;&gt;124554051601</title>
<path fill="none" stroke="black" d="M359.66,-182.14C391.09,-160.78 431.6,-124.77 410.75,-91.25 396.36,-68.11 371.89,-52.34 347.23,-41.7"/>
<polygon fill="black" stroke="black" points="348.66,-38.5 338.08,-38.01 346.04,-45 348.66,-38.5"/>
<text xml:space="preserve" text-anchor="middle" x="605.47" y="-105.58" font-family="Times,serif" font-size="14.00">DDG: is_registered_in_semester(self, sections, semester)</text>
</g>
<!-- 30064771351&#45;&gt;141733920786 -->
<g id="edge11" class="edge">
<title>30064771351&#45;&gt;141733920786</title>
<path fill="none" stroke="black" d="M478.13,-182.05C592.02,-167.51 748.25,-147.56 864.87,-132.67"/>
<polygon fill="black" stroke="black" points="865.05,-136.18 874.52,-131.44 864.16,-129.23 865.05,-136.18"/>
<text xml:space="preserve" text-anchor="middle" x="908.1" y="-151.2" font-family="Times,serif" font-size="14.00">DDG: is_registered_in_semester(self, sections, semester)</text>
</g>
</g>
</svg>
