<?xml version="1.0" encoding="UTF-8" standalone="no"?>
<!DOCTYPE svg PUBLIC "-//W3C//DTD SVG 1.1//EN"
 "http://www.w3.org/Graphics/SVG/1.1/DTD/svg11.dtd">
<!-- Generated by graphviz version 13.1.2 (20250809.0930)
 -->
<!-- Title: &lt;operator&gt;.conditional Pages: 1 -->
<svg width="213pt" height="220pt"
 viewBox="0.00 0.00 213.00 220.00" xmlns="http://www.w3.org/2000/svg" xmlns:xlink="http://www.w3.org/1999/xlink">
<g id="graph0" class="graph" transform="scale(1 1) rotate(0) translate(4 215.5)">
<title>&lt;operator&gt;.conditional</title>
<polygon fill="white" stroke="none" points="-4,4 -4,-215.5 209.13,-215.5 209.13,4 -4,4"/>
<!-- 107374182577 -->
<g id="node1" class="node">
<title>107374182577</title>
<polygon fill="none" stroke="black" points="126,-211.5 72,-211.5 72,-175.5 126,-175.5 126,-211.5"/>
</g>
<!-- 111669150060 -->
<g id="node3" class="node">
<title>111669150060</title>
<polygon fill="none" stroke="black" points="54,-123.75 0,-123.75 0,-87.75 54,-87.75 54,-123.75"/>
</g>
<!-- 107374182577&#45;&gt;111669150060 -->
<g id="edge4" class="edge">
<title>107374182577&#45;&gt;111669150060</title>
<path fill="none" stroke="black" d="M78.57,-175.14C72.7,-169.75 66.48,-163.61 61.25,-157.5 54.93,-150.12 48.75,-141.54 43.43,-133.56"/>
<polygon fill="black" stroke="black" points="46.38,-131.68 38.01,-125.18 40.5,-135.47 46.38,-131.68"/>
<text xml:space="preserve" text-anchor="middle" x="78.12" y="-144.2" font-family="Times,serif" font-size="14.00">DDG: </text>
</g>
<!-- 111669150061 -->
<g id="node4" class="node">
<title>111669150061</title>
<polygon fill="none" stroke="black" points="126,-123.75 72,-123.75 72,-87.75 126,-87.75 126,-123.75"/>
</g>
<!-- 107374182577&#45;&gt;111669150061 -->
<g id="edge5" class="edge">
<title>107374182577&#45;&gt;111669150061</title>
<path fill="none" stroke="black" d="M99,-175.15C99,-163.76 99,-148.59 99,-135.43"/>
<polygon fill="black" stroke="black" points="102.5,-135.59 99,-125.59 95.5,-135.59 102.5,-135.59"/>
<text xml:space="preserve" text-anchor="middle" x="115.88" y="-144.2" font-family="Times,serif" font-size="14.00">DDG: </text>
</g>
<!-- 111669150062 -->
<g id="node5" class="node">
<title>111669150062</title>
<polygon fill="none" stroke="black" points="198,-123.75 144,-123.75 144,-87.75 198,-87.75 198,-123.75"/>
</g>
<!-- 107374182577&#45;&gt;111669150062 -->
<g id="edge6" class="edge">
<title>107374182577&#45;&gt;111669150062</title>
<path fill="none" stroke="black" d="M119.59,-175.17C125.49,-169.78 131.75,-163.63 137,-157.5 143.31,-150.14 149.44,-141.56 154.73,-133.58"/>
<polygon fill="black" stroke="black" points="157.65,-135.5 160.1,-125.2 151.76,-131.73 157.65,-135.5"/>
<text xml:space="preserve" text-anchor="middle" x="165.18" y="-144.2" font-family="Times,serif" font-size="14.00">DDG: </text>
</g>
<!-- 124554051761 -->
<g id="node2" class="node">
<title>124554051761</title>
<polygon fill="none" stroke="black" points="126,-36 72,-36 72,0 126,0 126,-36"/>
</g>
<!-- 111669150060&#45;&gt;124554051761 -->
<g id="edge1" class="edge">
<title>111669150060&#45;&gt;124554051761</title>
<path fill="none" stroke="black" d="M31.33,-87.44C34.58,-76.96 39.85,-63.77 47.75,-54 51.92,-48.85 57.04,-44.15 62.42,-39.99"/>
<polygon fill="black" stroke="black" points="64.21,-43.01 70.35,-34.37 60.17,-37.29 64.21,-43.01"/>
<text xml:space="preserve" text-anchor="middle" x="71.38" y="-56.45" font-family="Times,serif" font-size="14.00">DDG: p1</text>
</g>
<!-- 111669150061&#45;&gt;124554051761 -->
<g id="edge2" class="edge">
<title>111669150061&#45;&gt;124554051761</title>
<path fill="none" stroke="black" d="M99,-87.4C99,-76.01 99,-60.84 99,-47.68"/>
<polygon fill="black" stroke="black" points="102.5,-47.84 99,-37.84 95.5,-47.84 102.5,-47.84"/>
<text xml:space="preserve" text-anchor="middle" x="122.62" y="-56.45" font-family="Times,serif" font-size="14.00">DDG: p2</text>
</g>
<!-- 111669150062&#45;&gt;124554051761 -->
<g id="edge3" class="edge">
<title>111669150062&#45;&gt;124554051761</title>
<path fill="none" stroke="black" d="M165.75,-87.51C161.97,-77.05 156.11,-63.86 148,-54 144.32,-49.52 139.93,-45.34 135.32,-41.54"/>
<polygon fill="black" stroke="black" points="137.59,-38.87 127.51,-35.63 133.37,-44.45 137.59,-38.87"/>
<text xml:space="preserve" text-anchor="middle" x="181.5" y="-56.45" font-family="Times,serif" font-size="14.00">DDG: p3</text>
</g>
</g>
</svg>
