<?xml version="1.0" encoding="UTF-8" standalone="no"?>
<!DOCTYPE svg PUBLIC "-//W3C//DTD SVG 1.1//EN"
 "http://www.w3.org/Graphics/SVG/1.1/DTD/svg11.dtd">
<!-- Generated by graphviz version 13.1.2 (20250809.0930)
 -->
<!-- Title: to_dict Pages: 1 -->
<svg width="4096pt" height="705pt"
 viewBox="0.00 0.00 4096.00 705.00" xmlns="http://www.w3.org/2000/svg" xmlns:xlink="http://www.w3.org/1999/xlink">
<g id="graph0" class="graph" transform="scale(1 1) rotate(0) translate(4 701.25)">
<title>to_dict</title>
<polygon fill="white" stroke="none" points="-4,4 -4,-701.25 4092,-701.25 4092,4 -4,4"/>
<!-- 107374182420 -->
<g id="node1" class="node">
<title>107374182420</title>
<polygon fill="none" stroke="black" points="3184.12,-697.25 3093.88,-697.25 3093.88,-657.75 3184.12,-657.75 3184.12,-697.25"/>
<text xml:space="preserve" text-anchor="start" x="3101.88" y="-679.95" font-family="Times,serif" font-size="14.00">METHOD, 287</text>
<text xml:space="preserve" text-anchor="start" x="3115.38" y="-664.2" font-family="Times,serif" font-size="14.00">to_dict</text>
</g>
<!-- 111669149727 -->
<g id="node3" class="node">
<title>111669149727</title>
<polygon fill="none" stroke="black" points="1514.75,-598.12 1431.25,-598.12 1431.25,-558.62 1514.75,-558.62 1514.75,-598.12"/>
<text xml:space="preserve" text-anchor="start" x="1439.25" y="-580.83" font-family="Times,serif" font-size="14.00">PARAM, 287</text>
<text xml:space="preserve" text-anchor="start" x="1459.5" y="-565.08" font-family="Times,serif" font-size="14.00">self</text>
</g>
<!-- 107374182420&#45;&gt;111669149727 -->
<g id="edge22" class="edge">
<title>107374182420&#45;&gt;111669149727</title>
<path fill="none" stroke="black" d="M3093.57,-673.85C2858.33,-660.14 1779.68,-597.25 1526.36,-582.49"/>
<polygon fill="black" stroke="black" points="1526.63,-579 1516.44,-581.91 1526.22,-585.98 1526.63,-579"/>
<text xml:space="preserve" text-anchor="middle" x="2521.09" y="-626.45" font-family="Times,serif" font-size="14.00">DDG: </text>
</g>
<!-- 141733920788 -->
<g id="node4" class="node">
<title>141733920788</title>
<polygon fill="none" stroke="black" points="2543.25,-130.75 2270.75,-130.75 2270.75,-91.25 2543.25,-91.25 2543.25,-130.75"/>
<text xml:space="preserve" text-anchor="start" x="2369.88" y="-113.45" font-family="Times,serif" font-size="14.00">RETURN, 288</text>
<text xml:space="preserve" text-anchor="start" x="2278.75" y="-97.7" font-family="Times,serif" font-size="14.00">return { &quot;course_code&quot;: self.course...</text>
</g>
<!-- 107374182420&#45;&gt;141733920788 -->
<g id="edge25" class="edge">
<title>107374182420&#45;&gt;141733920788</title>
<path fill="none" stroke="black" d="M3093.66,-673.73C2997.33,-666.6 2781,-643.45 2781,-579.38 2781,-579.38 2781,-579.38 2781,-295.75 2781,-229.55 2805.13,-194.2 2757,-148.75 2757,-148.75 2650.4,-137.56 2554.86,-127.53"/>
<polygon fill="black" stroke="black" points="2555.39,-124.06 2545.08,-126.5 2554.66,-131.02 2555.39,-124.06"/>
<text xml:space="preserve" text-anchor="middle" x="2797.88" y="-428.2" font-family="Times,serif" font-size="14.00">DDG: </text>
</g>
<!-- 25769803834 -->
<g id="node5" class="node">
<title>25769803834</title>
<polygon fill="none" stroke="black" points="2554.75,-316.5 2201.25,-316.5 2201.25,-277 2554.75,-277 2554.75,-316.5"/>
<text xml:space="preserve" text-anchor="start" x="2344.25" y="-299.2" font-family="Times,serif" font-size="14.00">BLOCK, 288</text>
<text xml:space="preserve" text-anchor="start" x="2209.25" y="-283.45" font-family="Times,serif" font-size="14.00">tmp17 = {} tmp17[&quot;course_code&quot;] = self.course_c...</text>
</g>
<!-- 107374182420&#45;&gt;25769803834 -->
<g id="edge32" class="edge">
<title>107374182420&#45;&gt;25769803834</title>
<path fill="none" stroke="black" d="M3093.58,-676.38C3022.74,-675.22 2882.1,-669.02 2767,-639.75 2700.14,-622.75 2624,-648.36 2624,-579.38 2624,-579.38 2624,-579.38 2624,-387 2624,-357.21 2559.42,-334.51 2496.44,-319.47"/>
<polygon fill="black" stroke="black" points="2497.55,-316.13 2487.02,-317.27 2495.96,-322.95 2497.55,-316.13"/>
<text xml:space="preserve" text-anchor="middle" x="2640.88" y="-473.82" font-family="Times,serif" font-size="14.00">DDG: </text>
</g>
<!-- 30064771359 -->
<g id="node6" class="node">
<title>30064771359</title>
<polygon fill="none" stroke="black" points="3763.75,-407.75 3572.25,-407.75 3572.25,-368.25 3763.75,-368.25 3763.75,-407.75"/>
<text xml:space="preserve" text-anchor="start" x="3580.25" y="-390.45" font-family="Times,serif" font-size="14.00">&lt;operator&gt;.assignment, 288</text>
<text xml:space="preserve" text-anchor="start" x="3634.25" y="-374.7" font-family="Times,serif" font-size="14.00">tmp17 = {}</text>
</g>
<!-- 107374182420&#45;&gt;30064771359 -->
<g id="edge33" class="edge">
<title>107374182420&#45;&gt;30064771359</title>
<path fill="none" stroke="black" d="M3174.12,-657.41C3267.13,-606.86 3519.79,-469.55 3623.08,-413.41"/>
<polygon fill="black" stroke="black" points="3624.45,-416.65 3631.56,-408.8 3621.11,-410.5 3624.45,-416.65"/>
<text xml:space="preserve" text-anchor="middle" x="3444.76" y="-519.45" font-family="Times,serif" font-size="14.00">DDG: </text>
</g>
<!-- 68719477036 -->
<g id="node12" class="node">
<title>68719477036</title>
<polygon fill="none" stroke="black" points="3891.75,-606 3538.25,-606 3538.25,-550.75 3891.75,-550.75 3891.75,-606"/>
<text xml:space="preserve" text-anchor="start" x="3664.38" y="-588.7" font-family="Times,serif" font-size="14.00">IDENTIFIER, 288</text>
<text xml:space="preserve" text-anchor="start" x="3698.12" y="-572.95" font-family="Times,serif" font-size="14.00">tmp17</text>
<text xml:space="preserve" text-anchor="start" x="3546.25" y="-557.2" font-family="Times,serif" font-size="14.00">tmp17 = {} tmp17[&quot;course_code&quot;] = self.course_c...</text>
</g>
<!-- 107374182420&#45;&gt;68719477036 -->
<g id="edge39" class="edge">
<title>107374182420&#45;&gt;68719477036</title>
<path fill="none" stroke="black" d="M3184.5,-675.26C3257.01,-672.59 3402.93,-664.37 3524,-639.75 3559.83,-632.46 3598.43,-620.98 3631.5,-609.98"/>
<polygon fill="black" stroke="black" points="3632.24,-613.42 3640.6,-606.91 3630,-606.79 3632.24,-613.42"/>
<text xml:space="preserve" text-anchor="middle" x="3599.57" y="-626.45" font-family="Times,serif" font-size="14.00">DDG: </text>
</g>
<!-- 68719477033 -->
<g id="node13" class="node">
<title>68719477033</title>
<polygon fill="none" stroke="black" points="4088,-606 3910,-606 3910,-550.75 4088,-550.75 4088,-606"/>
<text xml:space="preserve" text-anchor="start" x="3948.38" y="-588.7" font-family="Times,serif" font-size="14.00">IDENTIFIER, 292</text>
<text xml:space="preserve" text-anchor="start" x="3985.5" y="-572.95" font-family="Times,serif" font-size="14.00">list</text>
<text xml:space="preserve" text-anchor="start" x="3918" y="-557.2" font-family="Times,serif" font-size="14.00">list(self.prerequisites)</text>
</g>
<!-- 107374182420&#45;&gt;68719477033 -->
<g id="edge40" class="edge">
<title>107374182420&#45;&gt;68719477033</title>
<path fill="none" stroke="black" d="M3184.54,-675.46C3301.89,-672.1 3624.05,-658.63 3898.69,-606.34"/>
<polygon fill="black" stroke="black" points="3899.02,-609.84 3908.18,-604.51 3897.7,-602.96 3899.02,-609.84"/>
<text xml:space="preserve" text-anchor="middle" x="3794.52" y="-626.45" font-family="Times,serif" font-size="14.00">DDG: </text>
</g>
<!-- 124554051604 -->
<g id="node2" class="node">
<title>124554051604</title>
<polygon fill="none" stroke="black" points="1904.75,-39.5 1767.25,-39.5 1767.25,0 1904.75,0 1904.75,-39.5"/>
<text xml:space="preserve" text-anchor="start" x="1775.25" y="-22.2" font-family="Times,serif" font-size="14.00">METHOD_RETURN, 287</text>
<text xml:space="preserve" text-anchor="start" x="1798.88" y="-6.45" font-family="Times,serif" font-size="14.00">typing.Dict</text>
</g>
<!-- 111669149727&#45;&gt;124554051604 -->
<g id="edge2" class="edge">
<title>111669149727&#45;&gt;124554051604</title>
<path fill="none" stroke="black" d="M1430.9,-576.86C1190.28,-573.64 0,-553.97 0,-480.25 0,-480.25 0,-480.25 0,-110 0,-26.24 98.21,-70.2 181,-57.5 337.17,-33.54 1446.27,-23.62 1755.9,-21.31"/>
<polygon fill="black" stroke="black" points="1755.52,-24.81 1765.49,-21.24 1755.47,-17.81 1755.52,-24.81"/>
<text xml:space="preserve" text-anchor="middle" x="30.38" y="-336.95" font-family="Times,serif" font-size="14.00">DDG: self</text>
</g>
<!-- 30064771362 -->
<g id="node7" class="node">
<title>30064771362</title>
<polygon fill="none" stroke="black" points="572.62,-407.75 293.38,-407.75 293.38,-368.25 572.62,-368.25 572.62,-407.75"/>
<text xml:space="preserve" text-anchor="start" x="345.25" y="-390.45" font-family="Times,serif" font-size="14.00">&lt;operator&gt;.assignment, 288</text>
<text xml:space="preserve" text-anchor="start" x="301.38" y="-374.7" font-family="Times,serif" font-size="14.00">tmp17[&quot;course_code&quot;] = self.course_code</text>
</g>
<!-- 111669149727&#45;&gt;30064771362 -->
<g id="edge34" class="edge">
<title>111669149727&#45;&gt;30064771362</title>
<path fill="none" stroke="black" d="M1430.94,-569.76C1282.6,-542.89 780.37,-451.92 550.1,-410.21"/>
<polygon fill="black" stroke="black" points="550.96,-406.81 540.5,-408.47 549.72,-413.7 550.96,-406.81"/>
<text xml:space="preserve" text-anchor="middle" x="1069.69" y="-473.82" font-family="Times,serif" font-size="14.00">DDG: self</text>
</g>
<!-- 30064771365 -->
<g id="node8" class="node">
<title>30064771365</title>
<polygon fill="none" stroke="black" points="1127.12,-407.75 928.88,-407.75 928.88,-368.25 1127.12,-368.25 1127.12,-407.75"/>
<text xml:space="preserve" text-anchor="start" x="940.25" y="-390.45" font-family="Times,serif" font-size="14.00">&lt;operator&gt;.assignment, 288</text>
<text xml:space="preserve" text-anchor="start" x="936.88" y="-374.7" font-family="Times,serif" font-size="14.00">tmp17[&quot;title&quot;] = self.title</text>
</g>
<!-- 111669149727&#45;&gt;30064771365 -->
<g id="edge35" class="edge">
<title>111669149727&#45;&gt;30064771365</title>
<path fill="none" stroke="black" d="M1431.14,-559.65C1350.67,-525.59 1174.42,-450.98 1083.97,-412.69"/>
<polygon fill="black" stroke="black" points="1085.35,-409.48 1074.77,-408.8 1082.62,-415.92 1085.35,-409.48"/>
<text xml:space="preserve" text-anchor="middle" x="1317.81" y="-473.82" font-family="Times,serif" font-size="14.00">DDG: self</text>
</g>
<!-- 30064771368 -->
<g id="node9" class="node">
<title>30064771368</title>
<polygon fill="none" stroke="black" points="1585.62,-407.75 1360.38,-407.75 1360.38,-368.25 1585.62,-368.25 1585.62,-407.75"/>
<text xml:space="preserve" text-anchor="start" x="1385.25" y="-390.45" font-family="Times,serif" font-size="14.00">&lt;operator&gt;.assignment, 288</text>
<text xml:space="preserve" text-anchor="start" x="1368.38" y="-374.7" font-family="Times,serif" font-size="14.00">tmp17[&quot;credits&quot;] = self.credits</text>
</g>
<!-- 111669149727&#45;&gt;30064771368 -->
<g id="edge36" class="edge">
<title>111669149727&#45;&gt;30064771368</title>
<path fill="none" stroke="black" d="M1473,-558.28C1473,-525.63 1473,-458.82 1473,-419.6"/>
<polygon fill="black" stroke="black" points="1476.5,-419.66 1473,-409.66 1469.5,-419.66 1476.5,-419.66"/>
<text xml:space="preserve" text-anchor="middle" x="1503.38" y="-473.82" font-family="Times,serif" font-size="14.00">DDG: self</text>
</g>
<!-- 30064771375 -->
<g id="node11" class="node">
<title>30064771375</title>
<polygon fill="none" stroke="black" points="2205.88,-407.75 1994.12,-407.75 1994.12,-368.25 2205.88,-368.25 2205.88,-407.75"/>
<text xml:space="preserve" text-anchor="start" x="2012.25" y="-390.45" font-family="Times,serif" font-size="14.00">&lt;operator&gt;.assignment, 288</text>
<text xml:space="preserve" text-anchor="start" x="2002.12" y="-374.7" font-family="Times,serif" font-size="14.00">tmp17[&quot;active&quot;] = self.active</text>
</g>
<!-- 111669149727&#45;&gt;30064771375 -->
<g id="edge38" class="edge">
<title>111669149727&#45;&gt;30064771375</title>
<path fill="none" stroke="black" d="M1515.11,-564.72C1619.8,-533.27 1892.93,-451.21 2025.56,-411.36"/>
<polygon fill="black" stroke="black" points="2026.39,-414.77 2034.96,-408.54 2024.38,-408.07 2026.39,-414.77"/>
<text xml:space="preserve" text-anchor="middle" x="1889.43" y="-473.82" font-family="Times,serif" font-size="14.00">DDG: self</text>
</g>
<!-- 30064771371 -->
<g id="node14" class="node">
<title>30064771371</title>
<polygon fill="none" stroke="black" points="3195,-499 3017,-499 3017,-459.5 3195,-459.5 3195,-499"/>
<text xml:space="preserve" text-anchor="start" x="3075.62" y="-481.7" font-family="Times,serif" font-size="14.00">list, 292</text>
<text xml:space="preserve" text-anchor="start" x="3025" y="-465.95" font-family="Times,serif" font-size="14.00">list(self.prerequisites)</text>
</g>
<!-- 111669149727&#45;&gt;30064771371 -->
<g id="edge41" class="edge">
<title>111669149727&#45;&gt;30064771371</title>
<path fill="none" stroke="black" d="M1515.01,-574.88C1727.85,-562.22 2689.46,-505.02 3005.21,-486.24"/>
<polygon fill="black" stroke="black" points="3005.33,-489.74 3015.11,-485.66 3004.92,-482.76 3005.33,-489.74"/>
<text xml:space="preserve" text-anchor="middle" x="2514.16" y="-519.45" font-family="Times,serif" font-size="14.00">DDG: self</text>
</g>
<!-- 141733920788&#45;&gt;124554051604 -->
<g id="edge1" class="edge">
<title>141733920788&#45;&gt;124554051604</title>
<path fill="none" stroke="black" d="M2317.65,-90.81C2265.68,-80.07 2198.82,-66.97 2139,-57.5 2063.74,-45.58 1977.42,-35.46 1916.22,-28.87"/>
<polygon fill="black" stroke="black" points="1916.91,-25.43 1906.6,-27.84 1916.17,-32.39 1916.91,-25.43"/>
<text xml:space="preserve" text-anchor="middle" x="2261.51" y="-59.95" font-family="Times,serif" font-size="14.00">DDG: &lt;RET&gt;</text>
</g>
<!-- 25769803834&#45;&gt;141733920788 -->
<g id="edge23" class="edge">
<title>25769803834&#45;&gt;141733920788</title>
<path fill="none" stroke="black" d="M2374.43,-276.55C2369.91,-247.86 2364.38,-192.49 2379.25,-148.75 2380.23,-145.87 2381.53,-143.03 2383.04,-140.29"/>
<polygon fill="black" stroke="black" points="2385.82,-142.42 2388.35,-132.13 2379.96,-138.6 2385.82,-142.42"/>
<text xml:space="preserve" text-anchor="middle" x="2396.12" y="-198.45" font-family="Times,serif" font-size="14.00">DDG: </text>
</g>
<!-- 25769803834&#45;&gt;141733920788 -->
<g id="edge24" class="edge">
<title>25769803834&#45;&gt;141733920788</title>
<path fill="none" stroke="black" d="M2401.17,-276.8C2405.98,-271.59 2410.38,-265.54 2413,-259 2428.24,-220.9 2421.99,-172.72 2415.22,-142.12"/>
<polygon fill="black" stroke="black" points="2418.62,-141.31 2412.89,-132.4 2411.81,-142.94 2418.62,-141.31"/>
<text xml:space="preserve" text-anchor="middle" x="2587.8" y="-245.7" font-family="Times,serif" font-size="14.00">DDG: tmp17 = {}</text>
<text xml:space="preserve" text-anchor="middle" x="2587.8" y="-229.95" font-family="Times,serif" font-size="14.00">tmp17[&quot;course_code&quot;] = self.course_code</text>
<text xml:space="preserve" text-anchor="middle" x="2587.8" y="-214.2" font-family="Times,serif" font-size="14.00">tmp17[&quot;title&quot;] = self.title</text>
<text xml:space="preserve" text-anchor="middle" x="2587.8" y="-198.45" font-family="Times,serif" font-size="14.00">tmp17[&quot;credits&quot;] = self.credits</text>
<text xml:space="preserve" text-anchor="middle" x="2587.8" y="-182.7" font-family="Times,serif" font-size="14.00">tmp17[&quot;prerequisites&quot;] = list(self.prerequisites)</text>
<text xml:space="preserve" text-anchor="middle" x="2587.8" y="-166.95" font-family="Times,serif" font-size="14.00">tmp17[&quot;active&quot;] = self.active</text>
<text xml:space="preserve" text-anchor="middle" x="2587.8" y="-151.2" font-family="Times,serif" font-size="14.00">tmp17</text>
</g>
<!-- 30064771359&#45;&gt;124554051604 -->
<g id="edge3" class="edge">
<title>30064771359&#45;&gt;124554051604</title>
<path fill="none" stroke="black" d="M3666.28,-368.2C3659.92,-299.09 3637.8,-62.81 3632,-57.5 3599.94,-28.16 2261.31,-22.05 1916.39,-20.96"/>
<polygon fill="black" stroke="black" points="1916.55,-17.46 1906.54,-20.93 1916.53,-24.46 1916.55,-17.46"/>
<text xml:space="preserve" text-anchor="middle" x="3689.62" y="-198.45" font-family="Times,serif" font-size="14.00">DDG: tmp17</text>
</g>
<!-- 30064771359&#45;&gt;124554051604 -->
<g id="edge4" class="edge">
<title>30064771359&#45;&gt;124554051604</title>
<path fill="none" stroke="black" d="M3679.57,-367.92C3693.56,-343.64 3716.3,-299.93 3725,-259 3744.94,-165.22 3734.53,-98.78 3648,-57.5 3569,-19.82 2258.04,-19.88 1916.72,-20.54"/>
<polygon fill="black" stroke="black" points="1916.73,-17.04 1906.74,-20.56 1916.75,-24.04 1916.73,-17.04"/>
<text xml:space="preserve" text-anchor="middle" x="3757.24" y="-198.45" font-family="Times,serif" font-size="14.00">DDG: {}</text>
</g>
<!-- 30064771359&#45;&gt;124554051604 -->
<g id="edge5" class="edge">
<title>30064771359&#45;&gt;124554051604</title>
<path fill="none" stroke="black" d="M3695.06,-367.85C3723.9,-345.55 3767.74,-305.74 3785,-259 3820.33,-163.28 3772.12,-88.78 3675,-57.5 3590.33,-30.23 2259.58,-22.59 1916.29,-21.07"/>
<polygon fill="black" stroke="black" points="1916.51,-17.57 1906.49,-21.02 1916.48,-24.57 1916.51,-17.57"/>
<text xml:space="preserve" text-anchor="middle" x="3847.18" y="-198.45" font-family="Times,serif" font-size="14.00">DDG: tmp17 = {}</text>
</g>
<!-- 30064771359&#45;&gt;25769803834 -->
<g id="edge26" class="edge">
<title>30064771359&#45;&gt;25769803834</title>
<path fill="none" stroke="black" d="M3571.77,-379.33C3437.49,-368.72 3186.28,-349.21 2972,-334.5 2836.32,-325.19 2683.12,-315.73 2566.3,-308.75"/>
<polygon fill="black" stroke="black" points="2566.81,-305.27 2556.62,-308.17 2566.39,-312.26 2566.81,-305.27"/>
<text xml:space="preserve" text-anchor="middle" x="3216.26" y="-336.95" font-family="Times,serif" font-size="14.00">DDG: tmp17</text>
</g>
<!-- 30064771362&#45;&gt;124554051604 -->
<g id="edge6" class="edge">
<title>30064771362&#45;&gt;124554051604</title>
<path fill="none" stroke="black" d="M292.92,-377.7C213.74,-364.11 121.9,-332.29 77.25,-259 51.76,-217.15 51.76,-190.6 77.25,-148.75 123.24,-73.25 168.34,-79.36 254,-57.5 399.78,-20.29 1454.44,-19.85 1755.79,-20.5"/>
<polygon fill="black" stroke="black" points="1755.51,-24 1765.52,-20.52 1755.53,-17 1755.51,-24"/>
<text xml:space="preserve" text-anchor="middle" x="161.62" y="-198.45" font-family="Times,serif" font-size="14.00">DDG: tmp17[&quot;course_code&quot;]</text>
</g>
<!-- 30064771362&#45;&gt;124554051604 -->
<g id="edge7" class="edge">
<title>30064771362&#45;&gt;124554051604</title>
<path fill="none" stroke="black" d="M390.74,-367.81C351.11,-347.22 294.32,-310.41 269.25,-259 247.78,-214.96 245.25,-191.47 269.25,-148.75 307.42,-80.8 344.24,-79.53 419,-57.5 546.98,-19.78 1475.04,-19.6 1755.77,-20.42"/>
<polygon fill="black" stroke="black" points="1755.54,-23.92 1765.55,-20.45 1755.56,-16.92 1755.54,-23.92"/>
<text xml:space="preserve" text-anchor="middle" x="340.12" y="-198.45" font-family="Times,serif" font-size="14.00">DDG: self.course_code</text>
</g>
<!-- 30064771362&#45;&gt;124554051604 -->
<g id="edge8" class="edge">
<title>30064771362&#45;&gt;124554051604</title>
<path fill="none" stroke="black" d="M430.24,-367.82C423.41,-317.29 408.14,-182.09 435,-148.75 550.23,-5.75 655.9,-81.26 838,-57.5 1014.75,-34.44 1551.38,-24.72 1755.77,-21.78"/>
<polygon fill="black" stroke="black" points="1755.54,-25.28 1765.49,-21.64 1755.44,-18.28 1755.54,-25.28"/>
<text xml:space="preserve" text-anchor="middle" x="583.5" y="-198.45" font-family="Times,serif" font-size="14.00">DDG: tmp17[&quot;course_code&quot;] = self.course_code</text>
</g>
<!-- 30064771362&#45;&gt;25769803834 -->
<g id="edge27" class="edge">
<title>30064771362&#45;&gt;25769803834</title>
<path fill="none" stroke="black" d="M572.88,-380.58C916.17,-364.83 1800.53,-324.25 2189.58,-306.4"/>
<polygon fill="black" stroke="black" points="2189.6,-309.9 2199.43,-305.94 2189.28,-302.91 2189.6,-309.9"/>
<text xml:space="preserve" text-anchor="middle" x="1606.33" y="-336.95" font-family="Times,serif" font-size="14.00">DDG: tmp17[&quot;course_code&quot;]</text>
</g>
<!-- 30064771365&#45;&gt;124554051604 -->
<g id="edge9" class="edge">
<title>30064771365&#45;&gt;124554051604</title>
<path fill="none" stroke="black" d="M928.68,-371.26C864.92,-355.16 787.9,-322.97 753.75,-259 730.67,-215.77 730.67,-191.98 753.75,-148.75 788.07,-84.46 820.69,-80.04 890,-57.5 971.05,-31.14 1541.86,-23.37 1755.53,-21.37"/>
<polygon fill="black" stroke="black" points="1755.47,-24.87 1765.44,-21.28 1755.41,-17.87 1755.47,-24.87"/>
<text xml:space="preserve" text-anchor="middle" x="817.88" y="-198.45" font-family="Times,serif" font-size="14.00">DDG: tmp17[&quot;title&quot;]</text>
</g>
<!-- 30064771365&#45;&gt;124554051604 -->
<g id="edge10" class="edge">
<title>30064771365&#45;&gt;124554051604</title>
<path fill="none" stroke="black" d="M999.57,-367.87C969.48,-345.74 923.78,-306.21 904.75,-259 866.66,-164.52 919.03,-94.36 1014,-57.5 1081.78,-31.19 1561.64,-23.48 1755.27,-21.43"/>
<polygon fill="black" stroke="black" points="1755.3,-24.93 1765.26,-21.33 1755.23,-17.93 1755.3,-24.93"/>
<text xml:space="preserve" text-anchor="middle" x="955.38" y="-198.45" font-family="Times,serif" font-size="14.00">DDG: self.title</text>
</g>
<!-- 30064771365&#45;&gt;124554051604 -->
<g id="edge11" class="edge">
<title>30064771365&#45;&gt;124554051604</title>
<path fill="none" stroke="black" d="M1025.53,-367.9C1019.43,-317.55 1006.01,-182.77 1032,-148.75 1118.73,-35.23 1569.78,-21.18 1755.73,-20.29"/>
<polygon fill="black" stroke="black" points="1755.56,-23.79 1765.55,-20.26 1755.53,-16.79 1755.56,-23.79"/>
<text xml:space="preserve" text-anchor="middle" x="1140" y="-198.45" font-family="Times,serif" font-size="14.00">DDG: tmp17[&quot;title&quot;] = self.title</text>
</g>
<!-- 30064771365&#45;&gt;25769803834 -->
<g id="edge28" class="edge">
<title>30064771365&#45;&gt;25769803834</title>
<path fill="none" stroke="black" d="M1127.29,-380.85C1191.17,-376.99 1275.97,-372.04 1351,-368.25 1397.54,-365.9 1726.57,-367.14 1770,-350.25 1780.14,-346.31 1778.65,-338.54 1788.75,-334.5 1825.4,-319.84 2031.32,-309.52 2189.52,-303.62"/>
<polygon fill="black" stroke="black" points="2189.45,-307.12 2199.31,-303.26 2189.19,-300.13 2189.45,-307.12"/>
<text xml:space="preserve" text-anchor="middle" x="1852.88" y="-336.95" font-family="Times,serif" font-size="14.00">DDG: tmp17[&quot;title&quot;]</text>
</g>
<!-- 30064771368&#45;&gt;124554051604 -->
<g id="edge12" class="edge">
<title>30064771368&#45;&gt;124554051604</title>
<path fill="none" stroke="black" d="M1497.23,-367.84C1525.99,-345.35 1575.64,-307.28 1620,-277 1632.53,-268.45 1640.51,-271.57 1649,-259 1676.84,-217.78 1642.42,-191.26 1668.25,-148.75 1696.27,-102.62 1747.6,-67.19 1786.13,-45.43"/>
<polygon fill="black" stroke="black" points="1787.73,-48.54 1794.8,-40.65 1784.35,-42.41 1787.73,-48.54"/>
<text xml:space="preserve" text-anchor="middle" x="1739.12" y="-198.45" font-family="Times,serif" font-size="14.00">DDG: tmp17[&quot;credits&quot;]</text>
</g>
<!-- 30064771368&#45;&gt;124554051604 -->
<g id="edge13" class="edge">
<title>30064771368&#45;&gt;124554051604</title>
<path fill="none" stroke="black" d="M1410.3,-367.86C1361.06,-349.01 1296.3,-314.81 1268.25,-259 1246.24,-215.22 1246.24,-192.53 1268.25,-148.75 1298.78,-88.01 1327.4,-81.5 1391,-57.5 1455.62,-33.12 1645.89,-24.87 1755.58,-22.11"/>
<polygon fill="black" stroke="black" points="1755.48,-25.62 1765.4,-21.88 1755.31,-18.62 1755.48,-25.62"/>
<text xml:space="preserve" text-anchor="middle" x="1325.62" y="-198.45" font-family="Times,serif" font-size="14.00">DDG: self.credits</text>
</g>
<!-- 30064771368&#45;&gt;124554051604 -->
<g id="edge14" class="edge">
<title>30064771368&#45;&gt;124554051604</title>
<path fill="none" stroke="black" d="M1457.13,-368.03C1423.08,-324.95 1350.18,-218.06 1402,-148.75 1444.45,-91.97 1642.77,-51.63 1756.08,-32.77"/>
<polygon fill="black" stroke="black" points="1756.31,-36.28 1765.61,-31.2 1755.18,-29.37 1756.31,-36.28"/>
<text xml:space="preserve" text-anchor="middle" x="1523.5" y="-198.45" font-family="Times,serif" font-size="14.00">DDG: tmp17[&quot;credits&quot;] = self.credits</text>
</g>
<!-- 30064771368&#45;&gt;25769803834 -->
<g id="edge29" class="edge">
<title>30064771368&#45;&gt;25769803834</title>
<path fill="none" stroke="black" d="M1585.86,-378.76C1676.51,-371.9 1807.03,-361.47 1921,-350.25 2016.94,-340.81 2124.01,-328.6 2210.38,-318.33"/>
<polygon fill="black" stroke="black" points="2210.6,-321.83 2220.11,-317.17 2209.77,-314.88 2210.6,-321.83"/>
<text xml:space="preserve" text-anchor="middle" x="2130.2" y="-336.95" font-family="Times,serif" font-size="14.00">DDG: tmp17[&quot;credits&quot;]</text>
</g>
<!-- 30064771372 -->
<g id="node10" class="node">
<title>30064771372</title>
<polygon fill="none" stroke="black" points="3279.38,-407.75 2932.62,-407.75 2932.62,-368.25 3279.38,-368.25 3279.38,-407.75"/>
<text xml:space="preserve" text-anchor="start" x="3018.25" y="-390.45" font-family="Times,serif" font-size="14.00">&lt;operator&gt;.assignment, 288</text>
<text xml:space="preserve" text-anchor="start" x="2940.62" y="-374.7" font-family="Times,serif" font-size="14.00">tmp17[&quot;prerequisites&quot;] = list(self.prerequisites)</text>
</g>
<!-- 30064771372&#45;&gt;124554051604 -->
<g id="edge15" class="edge">
<title>30064771372&#45;&gt;124554051604</title>
<path fill="none" stroke="black" d="M3122.42,-367.95C3157.65,-324.67 3233.15,-217.43 3180,-148.75 3081.09,-20.93 2987.91,-80.91 2828,-57.5 2652.88,-31.87 2120.23,-23.71 1916.46,-21.49"/>
<polygon fill="black" stroke="black" points="1916.52,-17.99 1906.48,-21.38 1916.44,-24.99 1916.52,-17.99"/>
<text xml:space="preserve" text-anchor="middle" x="3289.51" y="-198.45" font-family="Times,serif" font-size="14.00">DDG: tmp17[&quot;prerequisites&quot;]</text>
</g>
<!-- 30064771372&#45;&gt;124554051604 -->
<g id="edge17" class="edge">
<title>30064771372&#45;&gt;124554051604</title>
<path fill="none" stroke="black" d="M3211.88,-367.77C3273.75,-350.51 3346.95,-318.32 3385,-259 3411.46,-217.76 3415.14,-187.39 3385,-148.75 3320.46,-66 3258.6,-113.26 3156,-91.25 3072.57,-73.35 3051.86,-66.41 2967,-57.5 2762.95,-36.08 2138.98,-25.15 1916.14,-21.85"/>
<polygon fill="black" stroke="black" points="1916.45,-18.35 1906.4,-21.71 1916.35,-25.35 1916.45,-18.35"/>
<text xml:space="preserve" text-anchor="middle" x="3504.12" y="-198.45" font-family="Times,serif" font-size="14.00">DDG: list(self.prerequisites)</text>
</g>
<!-- 30064771372&#45;&gt;124554051604 -->
<g id="edge18" class="edge">
<title>30064771372&#45;&gt;124554051604</title>
<path fill="none" stroke="black" d="M3058.68,-367.81C2977.54,-334.7 2819.69,-269.38 2811.5,-259 2780.68,-219.93 2826.11,-184.98 2792,-148.75 2732.16,-85.2 2135.54,-40.25 1916.28,-25.77"/>
<polygon fill="black" stroke="black" points="1916.6,-22.28 1906.39,-25.12 1916.14,-29.27 1916.6,-22.28"/>
<text xml:space="preserve" text-anchor="middle" x="2993.75" y="-198.45" font-family="Times,serif" font-size="14.00">DDG: tmp17[&quot;prerequisites&quot;] = list(self.prerequisites)</text>
</g>
<!-- 30064771372&#45;&gt;25769803834 -->
<g id="edge30" class="edge">
<title>30064771372&#45;&gt;25769803834</title>
<path fill="none" stroke="black" d="M2949.38,-367.8C2830.64,-353.24 2667.73,-333.27 2546.23,-318.37"/>
<polygon fill="black" stroke="black" points="2546.83,-314.92 2536.48,-317.18 2545.98,-321.87 2546.83,-314.92"/>
<text xml:space="preserve" text-anchor="middle" x="2876.71" y="-336.95" font-family="Times,serif" font-size="14.00">DDG: tmp17[&quot;prerequisites&quot;]</text>
</g>
<!-- 30064771375&#45;&gt;124554051604 -->
<g id="edge19" class="edge">
<title>30064771375&#45;&gt;124554051604</title>
<path fill="none" stroke="black" d="M1993.66,-387.04C1849.96,-385.97 1608.48,-379.74 1581,-350.25 1576.23,-345.13 1576.88,-340.16 1581,-334.5 1597,-312.49 1797,-280.25 1814,-259 1839.02,-227.72 1838.83,-108.37 1837.21,-51.38"/>
<polygon fill="black" stroke="black" points="1840.71,-51.3 1836.89,-41.42 1833.72,-51.52 1840.71,-51.3"/>
<text xml:space="preserve" text-anchor="middle" x="1904.01" y="-198.45" font-family="Times,serif" font-size="14.00">DDG: tmp17[&quot;active&quot;]</text>
</g>
<!-- 30064771375&#45;&gt;124554051604 -->
<g id="edge20" class="edge">
<title>30064771375&#45;&gt;124554051604</title>
<path fill="none" stroke="black" d="M2097.79,-367.88C2095.9,-357.38 2092.41,-344.51 2086,-334.5 2057.67,-290.24 2022.11,-304.02 1995,-259 1969.18,-216.12 1996.47,-192.42 1972,-148.75 1948.23,-106.32 1905.63,-69.67 1874.42,-46.6"/>
<polygon fill="black" stroke="black" points="1876.52,-43.79 1866.36,-40.76 1872.42,-49.46 1876.52,-43.79"/>
<text xml:space="preserve" text-anchor="middle" x="2049" y="-198.45" font-family="Times,serif" font-size="14.00">DDG: self.active</text>
</g>
<!-- 30064771375&#45;&gt;124554051604 -->
<g id="edge21" class="edge">
<title>30064771375&#45;&gt;124554051604</title>
<path fill="none" stroke="black" d="M2106.72,-367.82C2120.54,-324.74 2147.27,-218.64 2103,-148.75 2062.2,-84.33 1979.03,-51.59 1916.29,-35.44"/>
<polygon fill="black" stroke="black" points="1917.25,-32.07 1906.7,-33.07 1915.57,-38.87 1917.25,-32.07"/>
<text xml:space="preserve" text-anchor="middle" x="2242.18" y="-198.45" font-family="Times,serif" font-size="14.00">DDG: tmp17[&quot;active&quot;] = self.active</text>
</g>
<!-- 30064771375&#45;&gt;25769803834 -->
<g id="edge31" class="edge">
<title>30064771375&#45;&gt;25769803834</title>
<path fill="none" stroke="black" d="M2159.64,-367.85C2203.06,-353.91 2262.03,-334.98 2307.74,-320.31"/>
<polygon fill="black" stroke="black" points="2308.57,-323.72 2317.02,-317.33 2306.43,-317.05 2308.57,-323.72"/>
<text xml:space="preserve" text-anchor="middle" x="2323.14" y="-336.95" font-family="Times,serif" font-size="14.00">DDG: tmp17[&quot;active&quot;]</text>
</g>
<!-- 30064771371&#45;&gt;124554051604 -->
<g id="edge16" class="edge">
<title>30064771371&#45;&gt;124554051604</title>
<path fill="none" stroke="black" d="M3195.45,-463.92C3218.68,-458.5 3243.27,-451.21 3265,-441.5 3380.99,-389.68 3381.32,-325.45 3498.75,-277 3542.62,-258.9 3573.4,-295.28 3604,-259 3635.59,-221.55 3635.52,-186.27 3604,-148.75 3508.81,-35.42 3422.2,-114.25 3276,-91.25 3168.72,-74.37 3142.21,-66.68 3034,-57.5 2614.42,-21.91 2109.58,-19.62 1916.47,-20.23"/>
<polygon fill="black" stroke="black" points="1916.53,-16.73 1906.54,-20.26 1916.55,-23.73 1916.53,-16.73"/>
<text xml:space="preserve" text-anchor="middle" x="3576.38" y="-291.32" font-family="Times,serif" font-size="14.00">DDG: self.prerequisites</text>
</g>
<!-- 30064771371&#45;&gt;30064771372 -->
<g id="edge37" class="edge">
<title>30064771371&#45;&gt;30064771372</title>
<path fill="none" stroke="black" d="M3106,-459.32C3106,-447.8 3106,-432.82 3106,-419.65"/>
<polygon fill="black" stroke="black" points="3109.5,-419.72 3106,-409.72 3102.5,-419.72 3109.5,-419.72"/>
<text xml:space="preserve" text-anchor="middle" x="3183.62" y="-428.2" font-family="Times,serif" font-size="14.00">DDG: self.prerequisites</text>
</g>
</g>
</svg>
