<?xml version="1.0" encoding="UTF-8" standalone="no"?>
<!DOCTYPE svg PUBLIC "-//W3C//DTD SVG 1.1//EN"
 "http://www.w3.org/Graphics/SVG/1.1/DTD/svg11.dtd">
<!-- Generated by graphviz version 13.1.2 (20250809.0930)
 -->
<!-- Title: to_dict&lt;metaClassAdapter&gt; Pages: 1 -->
<svg width="514pt" height="436pt"
 viewBox="0.00 0.00 514.00 436.00" xmlns="http://www.w3.org/2000/svg" xmlns:xlink="http://www.w3.org/1999/xlink">
<g id="graph0" class="graph" transform="scale(1 1) rotate(0) translate(4 432.25)">
<title>to_dict&lt;metaClassAdapter&gt;</title>
<polygon fill="white" stroke="none" points="-4,4 -4,-432.25 510.25,-432.25 510.25,4 -4,4"/>
<!-- 107374182424 -->
<g id="node1" class="node">
<title>107374182424</title>
<polygon fill="none" stroke="black" points="249.12,-428.25 64.38,-428.25 64.38,-388.75 249.12,-388.75 249.12,-428.25"/>
<text xml:space="preserve" text-anchor="start" x="119.62" y="-410.95" font-family="Times,serif" font-size="14.00">METHOD, 287</text>
<text xml:space="preserve" text-anchor="start" x="72.38" y="-395.2" font-family="Times,serif" font-size="14.00">to_dict&lt;metaClassAdapter&gt;</text>
</g>
<!-- 111669149730 -->
<g id="node3" class="node">
<title>111669149730</title>
<polygon fill="none" stroke="black" points="83.5,-279.5 0,-279.5 0,-240 83.5,-240 83.5,-279.5"/>
<text xml:space="preserve" text-anchor="start" x="8" y="-262.2" font-family="Times,serif" font-size="14.00">PARAM, 287</text>
<text xml:space="preserve" text-anchor="start" x="31.62" y="-246.45" font-family="Times,serif" font-size="14.00">cls</text>
</g>
<!-- 107374182424&#45;&gt;111669149730 -->
<g id="edge5" class="edge">
<title>107374182424&#45;&gt;111669149730</title>
<path fill="none" stroke="black" d="M135.67,-388.33C130.03,-382.85 124.1,-376.74 119,-370.75 96.72,-344.6 74.52,-312.15 59.68,-289.29"/>
<polygon fill="black" stroke="black" points="62.76,-287.62 54.41,-281.1 56.87,-291.4 62.76,-287.62"/>
<text xml:space="preserve" text-anchor="middle" x="135.88" y="-357.45" font-family="Times,serif" font-size="14.00">DDG: </text>
</g>
<!-- 111669149731 -->
<g id="node4" class="node">
<title>111669149731</title>
<polygon fill="none" stroke="black" points="198.5,-337 115,-337 115,-297.5 198.5,-297.5 198.5,-337"/>
<text xml:space="preserve" text-anchor="start" x="123" y="-319.7" font-family="Times,serif" font-size="14.00">PARAM, 287</text>
<text xml:space="preserve" text-anchor="start" x="143.25" y="-303.95" font-family="Times,serif" font-size="14.00">self</text>
</g>
<!-- 107374182424&#45;&gt;111669149731 -->
<g id="edge6" class="edge">
<title>107374182424&#45;&gt;111669149731</title>
<path fill="none" stroke="black" d="M156.75,-388.57C156.75,-377.05 156.75,-362.07 156.75,-348.9"/>
<polygon fill="black" stroke="black" points="160.25,-348.97 156.75,-338.97 153.25,-348.97 160.25,-348.97"/>
<text xml:space="preserve" text-anchor="middle" x="173.62" y="-357.45" font-family="Times,serif" font-size="14.00">DDG: </text>
</g>
<!-- 30064771395 -->
<g id="node6" class="node">
<title>30064771395</title>
<polygon fill="none" stroke="black" points="414.88,-222 54.62,-222 54.62,-182.5 414.88,-182.5 414.88,-222"/>
<text xml:space="preserve" text-anchor="start" x="62.62" y="-204.7" font-family="Times,serif" font-size="14.00">AI_generated_code_1.py:&lt;module&gt;.Course.to_dict, 287</text>
<text xml:space="preserve" text-anchor="start" x="190.88" y="-188.95" font-family="Times,serif" font-size="14.00">to_dict(self)</text>
</g>
<!-- 107374182424&#45;&gt;30064771395 -->
<g id="edge9" class="edge">
<title>107374182424&#45;&gt;30064771395</title>
<path fill="none" stroke="black" d="M179.79,-388.34C185.2,-383.05 190.59,-377.02 194.75,-370.75 222.71,-328.53 231.18,-268.87 233.71,-233.32"/>
<polygon fill="black" stroke="black" points="237.18,-233.94 234.27,-223.75 230.19,-233.53 237.18,-233.94"/>
<text xml:space="preserve" text-anchor="middle" x="240.78" y="-311.82" font-family="Times,serif" font-size="14.00">DDG: </text>
</g>
<!-- 124554051608 -->
<g id="node2" class="node">
<title>124554051608</title>
<polygon fill="none" stroke="black" points="235.5,-39.5 98,-39.5 98,0 235.5,0 235.5,-39.5"/>
<text xml:space="preserve" text-anchor="start" x="106" y="-22.2" font-family="Times,serif" font-size="14.00">METHOD_RETURN, 287</text>
<text xml:space="preserve" text-anchor="start" x="129.62" y="-6.45" font-family="Times,serif" font-size="14.00">typing.Dict</text>
</g>
<!-- 111669149730&#45;&gt;124554051608 -->
<g id="edge2" class="edge">
<title>111669149730&#45;&gt;124554051608</title>
<path fill="none" stroke="black" d="M39.96,-239.73C39.13,-223.98 39.45,-201.22 45.75,-182.5 64.06,-128.12 108.39,-77.18 138,-47.49"/>
<polygon fill="black" stroke="black" points="140.18,-50.27 144.85,-40.76 135.27,-45.28 140.18,-50.27"/>
<text xml:space="preserve" text-anchor="middle" x="86.46" y="-151.2" font-family="Times,serif" font-size="14.00">DDG: cls</text>
</g>
<!-- 111669149731&#45;&gt;30064771395 -->
<g id="edge8" class="edge">
<title>111669149731&#45;&gt;30064771395</title>
<path fill="none" stroke="black" d="M152.47,-297.07C149.91,-280.58 148.99,-256.87 160,-240 162.62,-235.98 165.82,-232.39 169.4,-229.17"/>
<polygon fill="black" stroke="black" points="171.33,-232.11 177.16,-223.27 167.08,-226.54 171.33,-232.11"/>
<text xml:space="preserve" text-anchor="middle" x="190.38" y="-254.32" font-family="Times,serif" font-size="14.00">DDG: self</text>
</g>
<!-- 141733920792 -->
<g id="node5" class="node">
<title>141733920792</title>
<polygon fill="none" stroke="black" points="506.25,-130.75 355.25,-130.75 355.25,-91.25 506.25,-91.25 506.25,-130.75"/>
<text xml:space="preserve" text-anchor="start" x="393.62" y="-113.45" font-family="Times,serif" font-size="14.00">RETURN, 287</text>
<text xml:space="preserve" text-anchor="start" x="363.25" y="-97.7" font-family="Times,serif" font-size="14.00">return to_dict(self)</text>
</g>
<!-- 141733920792&#45;&gt;124554051608 -->
<g id="edge1" class="edge">
<title>141733920792&#45;&gt;124554051608</title>
<path fill="none" stroke="black" d="M374.12,-90.85C333.05,-76.97 277.36,-58.14 234.02,-43.49"/>
<polygon fill="black" stroke="black" points="235.32,-40.24 224.72,-40.35 233.08,-46.87 235.32,-40.24"/>
<text xml:space="preserve" text-anchor="middle" x="348.31" y="-59.95" font-family="Times,serif" font-size="14.00">DDG: &lt;RET&gt;</text>
</g>
<!-- 30064771395&#45;&gt;124554051608 -->
<g id="edge3" class="edge">
<title>30064771395&#45;&gt;124554051608</title>
<path fill="none" stroke="black" d="M189.24,-182.04C168.07,-170.51 144.96,-153.6 133,-130.75 119.36,-104.7 132.57,-72.23 146.26,-49.35"/>
<polygon fill="black" stroke="black" points="149.06,-51.46 151.47,-41.14 143.15,-47.71 149.06,-51.46"/>
<text xml:space="preserve" text-anchor="middle" x="163.38" y="-105.58" font-family="Times,serif" font-size="14.00">DDG: self</text>
</g>
<!-- 30064771395&#45;&gt;124554051608 -->
<g id="edge4" class="edge">
<title>30064771395&#45;&gt;124554051608</title>
<path fill="none" stroke="black" d="M227.69,-182.15C219.56,-160.2 205.78,-123.09 193.75,-91.25 188.66,-77.78 182.97,-62.9 178.13,-50.29"/>
<polygon fill="black" stroke="black" points="181.53,-49.37 174.67,-41.3 174.99,-51.89 181.53,-49.37"/>
<text xml:space="preserve" text-anchor="middle" x="269" y="-105.58" font-family="Times,serif" font-size="14.00">DDG: to_dict(self)</text>
</g>
<!-- 30064771395&#45;&gt;141733920792 -->
<g id="edge7" class="edge">
<title>30064771395&#45;&gt;141733920792</title>
<path fill="none" stroke="black" d="M276.8,-182.1C306.51,-168.57 346.54,-150.35 378.33,-135.87"/>
<polygon fill="black" stroke="black" points="379.74,-139.07 387.4,-131.74 376.84,-132.7 379.74,-139.07"/>
<text xml:space="preserve" text-anchor="middle" x="405.23" y="-151.2" font-family="Times,serif" font-size="14.00">DDG: to_dict(self)</text>
</g>
</g>
</svg>
