<?xml version="1.0" encoding="UTF-8" standalone="no"?>
<!DOCTYPE svg PUBLIC "-//W3C//DTD SVG 1.1//EN"
 "http://www.w3.org/Graphics/SVG/1.1/DTD/svg11.dtd">
<!-- Generated by graphviz version 13.1.2 (20250809.0930)
 -->
<!-- Title: to_dict Pages: 1 -->
<svg width="2645pt" height="583pt"
 viewBox="0.00 0.00 2645.00 583.00" xmlns="http://www.w3.org/2000/svg" xmlns:xlink="http://www.w3.org/1999/xlink">
<g id="graph0" class="graph" transform="scale(1 1) rotate(0) translate(4 578.5)">
<title>to_dict</title>
<polygon fill="white" stroke="none" points="-4,4 -4,-578.5 2640.74,-578.5 2640.74,4 -4,4"/>
<!-- 107374182426 -->
<g id="node1" class="node">
<title>107374182426</title>
<polygon fill="none" stroke="black" points="2230.12,-574.5 2139.87,-574.5 2139.87,-535 2230.12,-535 2230.12,-574.5"/>
<text xml:space="preserve" text-anchor="start" x="2147.87" y="-557.2" font-family="Times,serif" font-size="14.00">METHOD, 314</text>
<text xml:space="preserve" text-anchor="start" x="2161.37" y="-541.45" font-family="Times,serif" font-size="14.00">to_dict</text>
</g>
<!-- 111669149733 -->
<g id="node3" class="node">
<title>111669149733</title>
<polygon fill="none" stroke="black" points="1022.74,-475.38 939.24,-475.38 939.24,-435.88 1022.74,-435.88 1022.74,-475.38"/>
<text xml:space="preserve" text-anchor="start" x="947.24" y="-458.07" font-family="Times,serif" font-size="14.00">PARAM, 314</text>
<text xml:space="preserve" text-anchor="start" x="967.49" y="-442.32" font-family="Times,serif" font-size="14.00">self</text>
</g>
<!-- 107374182426&#45;&gt;111669149733 -->
<g id="edge15" class="edge">
<title>107374182426&#45;&gt;111669149733</title>
<path fill="none" stroke="black" d="M2139.63,-550.09C1951.95,-534.95 1236.61,-477.25 1034.48,-460.94"/>
<polygon fill="black" stroke="black" points="1034.78,-457.45 1024.53,-460.14 1034.21,-464.43 1034.78,-457.45"/>
<text xml:space="preserve" text-anchor="middle" x="1743.12" y="-503.7" font-family="Times,serif" font-size="14.00">DDG: </text>
</g>
<!-- 141733920793 -->
<g id="node4" class="node">
<title>141733920793</title>
<polygon fill="none" stroke="black" points="2194.24,-130.75 1921.74,-130.75 1921.74,-91.25 2194.24,-91.25 2194.24,-130.75"/>
<text xml:space="preserve" text-anchor="start" x="2020.87" y="-113.45" font-family="Times,serif" font-size="14.00">RETURN, 315</text>
<text xml:space="preserve" text-anchor="start" x="1929.74" y="-97.7" font-family="Times,serif" font-size="14.00">return { &quot;instructor_id&quot;: self.inst...</text>
</g>
<!-- 107374182426&#45;&gt;141733920793 -->
<g id="edge18" class="edge">
<title>107374182426&#45;&gt;141733920793</title>
<path fill="none" stroke="black" d="M2182.17,-534.67C2176.6,-491.59 2167.34,-384.25 2198.99,-303 2213.78,-265.03 2238.89,-266.41 2250.99,-227.5 2261.39,-194.08 2273.31,-175.71 2250.99,-148.75 2246.83,-143.71 2227.85,-138.4 2203.31,-133.42"/>
<polygon fill="black" stroke="black" points="2204.04,-130 2193.56,-131.53 2202.71,-136.87 2204.04,-130"/>
<text xml:space="preserve" text-anchor="middle" x="2205.14" y="-351.07" font-family="Times,serif" font-size="14.00">DDG: </text>
</g>
<!-- 25769803842 -->
<g id="node5" class="node">
<title>25769803842</title>
<polygon fill="none" stroke="black" points="2169.74,-285 1816.24,-285 1816.24,-245.5 2169.74,-245.5 2169.74,-285"/>
<text xml:space="preserve" text-anchor="start" x="1959.24" y="-267.7" font-family="Times,serif" font-size="14.00">BLOCK, 315</text>
<text xml:space="preserve" text-anchor="start" x="1824.24" y="-251.95" font-family="Times,serif" font-size="14.00">tmp18 = {} tmp18[&quot;instructor_id&quot;] = self.instru...</text>
</g>
<!-- 107374182426&#45;&gt;25769803842 -->
<g id="edge23" class="edge">
<title>107374182426&#45;&gt;25769803842</title>
<path fill="none" stroke="black" d="M2177.12,-534.51C2158.33,-490.2 2107.48,-378.9 2040.99,-303 2037.84,-299.4 2034.29,-295.92 2030.59,-292.63"/>
<polygon fill="black" stroke="black" points="2032.87,-289.97 2022.93,-286.29 2028.4,-295.36 2032.87,-289.97"/>
<text xml:space="preserve" text-anchor="middle" x="2130.85" y="-396.7" font-family="Times,serif" font-size="14.00">DDG: </text>
</g>
<!-- 30064771399 -->
<g id="node6" class="node">
<title>30064771399</title>
<polygon fill="none" stroke="black" points="2428.74,-376.25 2237.24,-376.25 2237.24,-336.75 2428.74,-336.75 2428.74,-376.25"/>
<text xml:space="preserve" text-anchor="start" x="2245.24" y="-358.95" font-family="Times,serif" font-size="14.00">&lt;operator&gt;.assignment, 315</text>
<text xml:space="preserve" text-anchor="start" x="2299.24" y="-343.2" font-family="Times,serif" font-size="14.00">tmp18 = {}</text>
</g>
<!-- 107374182426&#45;&gt;30064771399 -->
<g id="edge24" class="edge">
<title>107374182426&#45;&gt;30064771399</title>
<path fill="none" stroke="black" d="M2192.72,-534.76C2206.19,-501.86 2233.23,-436.9 2240.24,-428 2254.08,-410.44 2273.26,-394.9 2290.59,-382.91"/>
<polygon fill="black" stroke="black" points="2292.36,-385.94 2298.72,-377.47 2288.46,-380.12 2292.36,-385.94"/>
<text xml:space="preserve" text-anchor="middle" x="2257.12" y="-450.2" font-family="Times,serif" font-size="14.00">DDG: </text>
</g>
<!-- 68719477067 -->
<g id="node10" class="node">
<title>68719477067</title>
<polygon fill="none" stroke="black" points="2636.74,-483.25 2283.24,-483.25 2283.24,-428 2636.74,-428 2636.74,-483.25"/>
<text xml:space="preserve" text-anchor="start" x="2409.37" y="-465.95" font-family="Times,serif" font-size="14.00">IDENTIFIER, 315</text>
<text xml:space="preserve" text-anchor="start" x="2443.12" y="-450.2" font-family="Times,serif" font-size="14.00">tmp18</text>
<text xml:space="preserve" text-anchor="start" x="2291.24" y="-434.45" font-family="Times,serif" font-size="14.00">tmp18 = {} tmp18[&quot;instructor_id&quot;] = self.instru...</text>
</g>
<!-- 107374182426&#45;&gt;68719477067 -->
<g id="edge28" class="edge">
<title>107374182426&#45;&gt;68719477067</title>
<path fill="none" stroke="black" d="M2230.4,-537.71C2268.98,-524.09 2325.46,-504.14 2372.74,-487.44"/>
<polygon fill="black" stroke="black" points="2373.61,-490.85 2381.87,-484.22 2371.28,-484.25 2373.61,-490.85"/>
<text xml:space="preserve" text-anchor="middle" x="2347.61" y="-503.7" font-family="Times,serif" font-size="14.00">DDG: </text>
</g>
<!-- 124554051610 -->
<g id="node2" class="node">
<title>124554051610</title>
<polygon fill="none" stroke="black" points="1311.74,-39.5 1174.24,-39.5 1174.24,0 1311.74,0 1311.74,-39.5"/>
<text xml:space="preserve" text-anchor="start" x="1182.24" y="-22.2" font-family="Times,serif" font-size="14.00">METHOD_RETURN, 314</text>
<text xml:space="preserve" text-anchor="start" x="1205.87" y="-6.45" font-family="Times,serif" font-size="14.00">typing.Dict</text>
</g>
<!-- 111669149733&#45;&gt;124554051610 -->
<g id="edge2" class="edge">
<title>111669149733&#45;&gt;124554051610</title>
<path fill="none" stroke="black" d="M938.91,-451.02C850.6,-442.3 653.99,-416.28 653.99,-357.5 653.99,-357.5 653.99,-357.5 653.99,-110 653.99,-92.21 716.77,-74.56 803.99,-57.5 927.67,-33.3 1074.02,-25.03 1162.61,-22.21"/>
<polygon fill="black" stroke="black" points="1162.51,-25.71 1172.4,-21.91 1162.3,-18.71 1162.51,-25.71"/>
<text xml:space="preserve" text-anchor="middle" x="684.37" y="-259.82" font-family="Times,serif" font-size="14.00">DDG: self</text>
</g>
<!-- 30064771402 -->
<g id="node7" class="node">
<title>30064771402</title>
<polygon fill="none" stroke="black" points="1134.12,-376.25 827.87,-376.25 827.87,-336.75 1134.12,-336.75 1134.12,-376.25"/>
<text xml:space="preserve" text-anchor="start" x="893.24" y="-358.95" font-family="Times,serif" font-size="14.00">&lt;operator&gt;.assignment, 315</text>
<text xml:space="preserve" text-anchor="start" x="835.87" y="-343.2" font-family="Times,serif" font-size="14.00">tmp18[&quot;instructor_id&quot;] = self.instructor_id</text>
</g>
<!-- 111669149733&#45;&gt;30064771402 -->
<g id="edge25" class="edge">
<title>111669149733&#45;&gt;30064771402</title>
<path fill="none" stroke="black" d="M980.99,-435.44C980.99,-421.87 980.99,-403.4 980.99,-387.84"/>
<polygon fill="black" stroke="black" points="984.49,-388.16 980.99,-378.16 977.49,-388.16 984.49,-388.16"/>
<text xml:space="preserve" text-anchor="middle" x="1011.37" y="-396.7" font-family="Times,serif" font-size="14.00">DDG: self</text>
</g>
<!-- 30064771405 -->
<g id="node8" class="node">
<title>30064771405</title>
<polygon fill="none" stroke="black" points="1537.74,-376.25 1346.24,-376.25 1346.24,-336.75 1537.74,-336.75 1537.74,-376.25"/>
<text xml:space="preserve" text-anchor="start" x="1354.24" y="-358.95" font-family="Times,serif" font-size="14.00">&lt;operator&gt;.assignment, 315</text>
<text xml:space="preserve" text-anchor="start" x="1357.62" y="-343.2" font-family="Times,serif" font-size="14.00">tmp18[&quot;name&quot;] = self.name</text>
</g>
<!-- 111669149733&#45;&gt;30064771405 -->
<g id="edge26" class="edge">
<title>111669149733&#45;&gt;30064771405</title>
<path fill="none" stroke="black" d="M1023.13,-445.75C1094.36,-430.74 1240.53,-399.94 1339.92,-379.01"/>
<polygon fill="black" stroke="black" points="1340.35,-382.49 1349.41,-377.01 1338.91,-375.64 1340.35,-382.49"/>
<text xml:space="preserve" text-anchor="middle" x="1296.72" y="-396.7" font-family="Times,serif" font-size="14.00">DDG: self</text>
</g>
<!-- 30064771408 -->
<g id="node9" class="node">
<title>30064771408</title>
<polygon fill="none" stroke="black" points="609.87,-376.25 344.12,-376.25 344.12,-336.75 609.87,-336.75 609.87,-376.25"/>
<text xml:space="preserve" text-anchor="start" x="389.24" y="-358.95" font-family="Times,serif" font-size="14.00">&lt;operator&gt;.assignment, 315</text>
<text xml:space="preserve" text-anchor="start" x="352.12" y="-343.2" font-family="Times,serif" font-size="14.00">tmp18[&quot;department&quot;] = self.department</text>
</g>
<!-- 111669149733&#45;&gt;30064771408 -->
<g id="edge27" class="edge">
<title>111669149733&#45;&gt;30064771408</title>
<path fill="none" stroke="black" d="M938.94,-454.91C864.7,-454.34 706.25,-448.24 579.24,-410 557.64,-403.49 535.17,-392.5 516.82,-382.24"/>
<polygon fill="black" stroke="black" points="518.81,-379.35 508.39,-377.41 515.33,-385.42 518.81,-379.35"/>
<text xml:space="preserve" text-anchor="middle" x="609.62" y="-396.7" font-family="Times,serif" font-size="14.00">DDG: self</text>
</g>
<!-- 141733920793&#45;&gt;124554051610 -->
<g id="edge1" class="edge">
<title>141733920793&#45;&gt;124554051610</title>
<path fill="none" stroke="black" d="M1978.62,-90.8C1928.31,-79.36 1861.68,-65.54 1801.99,-57.5 1632.57,-34.67 1432.26,-25.86 1323.35,-22.59"/>
<polygon fill="black" stroke="black" points="1323.75,-19.1 1313.65,-22.3 1323.55,-26.1 1323.75,-19.1"/>
<text xml:space="preserve" text-anchor="middle" x="1927.83" y="-59.95" font-family="Times,serif" font-size="14.00">DDG: &lt;RET&gt;</text>
</g>
<!-- 25769803842&#45;&gt;141733920793 -->
<g id="edge16" class="edge">
<title>25769803842&#45;&gt;141733920793</title>
<path fill="none" stroke="black" d="M2163.73,-245.11C2179.01,-240.46 2190.99,-234.68 2196.99,-227.5 2219.44,-200.65 2218.35,-176.48 2196.99,-148.75 2192.98,-143.54 2184.74,-138.92 2174.17,-134.87"/>
<polygon fill="black" stroke="black" points="2175.42,-131.59 2164.83,-131.65 2173.14,-138.21 2175.42,-131.59"/>
<text xml:space="preserve" text-anchor="middle" x="2230.29" y="-182.7" font-family="Times,serif" font-size="14.00">DDG: </text>
</g>
<!-- 25769803842&#45;&gt;141733920793 -->
<g id="edge17" class="edge">
<title>25769803842&#45;&gt;141733920793</title>
<path fill="none" stroke="black" d="M1921.32,-245.07C1914.04,-240.42 1907.56,-234.66 1902.74,-227.5 1883.21,-198.46 1881.03,-176.2 1902.74,-148.75 1906.94,-143.44 1915.2,-138.82 1925.81,-134.82"/>
<polygon fill="black" stroke="black" points="1926.85,-138.16 1935.21,-131.65 1924.62,-131.52 1926.85,-138.16"/>
<text xml:space="preserve" text-anchor="middle" x="2047.87" y="-214.2" font-family="Times,serif" font-size="14.00">DDG: tmp18 = {}</text>
<text xml:space="preserve" text-anchor="middle" x="2047.87" y="-198.45" font-family="Times,serif" font-size="14.00">tmp18[&quot;instructor_id&quot;] = self.instructor_id</text>
<text xml:space="preserve" text-anchor="middle" x="2047.87" y="-182.7" font-family="Times,serif" font-size="14.00">tmp18[&quot;name&quot;] = self.name</text>
<text xml:space="preserve" text-anchor="middle" x="2047.87" y="-166.95" font-family="Times,serif" font-size="14.00">tmp18[&quot;department&quot;] = self.department</text>
<text xml:space="preserve" text-anchor="middle" x="2047.87" y="-151.2" font-family="Times,serif" font-size="14.00">tmp18</text>
</g>
<!-- 30064771399&#45;&gt;124554051610 -->
<g id="edge3" class="edge">
<title>30064771399&#45;&gt;124554051610</title>
<path fill="none" stroke="black" d="M2347.47,-336.42C2364.64,-312.48 2392.27,-269.46 2402.99,-227.5 2424.06,-145.07 2392.72,-92.11 2314.99,-57.5 2269.93,-37.44 1564.96,-25.41 1323.44,-21.86"/>
<polygon fill="black" stroke="black" points="1323.52,-18.36 1313.47,-21.71 1323.42,-25.36 1323.52,-18.36"/>
<text xml:space="preserve" text-anchor="middle" x="2443.14" y="-182.7" font-family="Times,serif" font-size="14.00">DDG: tmp18</text>
</g>
<!-- 30064771399&#45;&gt;124554051610 -->
<g id="edge4" class="edge">
<title>30064771399&#45;&gt;124554051610</title>
<path fill="none" stroke="black" d="M2369.79,-336.33C2405.89,-315.18 2458.67,-277.43 2480.99,-227.5 2520.6,-138.92 2436.81,-85.8 2343.99,-57.5 2247.36,-28.03 1560.24,-22.17 1323.17,-21.02"/>
<polygon fill="black" stroke="black" points="1323.42,-17.53 1313.4,-20.98 1323.39,-24.53 1323.42,-17.53"/>
<text xml:space="preserve" text-anchor="middle" x="2514.69" y="-182.7" font-family="Times,serif" font-size="14.00">DDG: {}</text>
</g>
<!-- 30064771399&#45;&gt;124554051610 -->
<g id="edge5" class="edge">
<title>30064771399&#45;&gt;124554051610</title>
<path fill="none" stroke="black" d="M2327.53,-336.47C2320.42,-311.52 2307.71,-266.35 2297.74,-227.5 2288.8,-192.65 2298.66,-178.88 2278.99,-148.75 2255.84,-113.28 2242.09,-107.53 2202.99,-91.25 2044.94,-25.43 1524.91,-19.81 1323.59,-20.19"/>
<polygon fill="black" stroke="black" points="1323.73,-16.69 1313.74,-20.21 1323.75,-23.69 1323.73,-16.69"/>
<text xml:space="preserve" text-anchor="middle" x="2348.37" y="-182.7" font-family="Times,serif" font-size="14.00">DDG: tmp18 = {}</text>
</g>
<!-- 30064771399&#45;&gt;25769803842 -->
<g id="edge19" class="edge">
<title>30064771399&#45;&gt;25769803842</title>
<path fill="none" stroke="black" d="M2267.32,-336.26C2231.79,-326.03 2187.1,-313.44 2146.99,-303 2127.78,-298 2107.15,-292.89 2087.43,-288.14"/>
<polygon fill="black" stroke="black" points="2088.28,-284.75 2077.74,-285.82 2086.65,-291.55 2088.28,-284.75"/>
<text xml:space="preserve" text-anchor="middle" x="2237.17" y="-305.45" font-family="Times,serif" font-size="14.00">DDG: tmp18</text>
</g>
<!-- 30064771402&#45;&gt;124554051610 -->
<g id="edge6" class="edge">
<title>30064771402&#45;&gt;124554051610</title>
<path fill="none" stroke="black" d="M923.92,-336.33C908.86,-330.95 892.71,-324.89 877.99,-318.75 867.17,-314.24 693.99,-237.42 687.74,-227.5 669.1,-197.88 669.1,-178.37 687.74,-148.75 737.7,-69.38 787.71,-82.86 877.99,-57.5 973.5,-30.68 1087.9,-22.89 1162.85,-20.9"/>
<polygon fill="black" stroke="black" points="1162.65,-24.41 1172.56,-20.68 1162.48,-17.41 1162.65,-24.41"/>
<text xml:space="preserve" text-anchor="middle" x="778.87" y="-182.7" font-family="Times,serif" font-size="14.00">DDG: tmp18[&quot;instructor_id&quot;]</text>
</g>
<!-- 30064771402&#45;&gt;124554051610 -->
<g id="edge7" class="edge">
<title>30064771402&#45;&gt;124554051610</title>
<path fill="none" stroke="black" d="M961.23,-336.48C924.87,-299.11 854.43,-214.05 892.74,-148.75 946.9,-56.43 1077.19,-29.97 1162.68,-22.8"/>
<polygon fill="black" stroke="black" points="1162.7,-26.31 1172.41,-22.07 1162.17,-19.33 1162.7,-26.31"/>
<text xml:space="preserve" text-anchor="middle" x="970.37" y="-182.7" font-family="Times,serif" font-size="14.00">DDG: self.instructor_id</text>
</g>
<!-- 30064771402&#45;&gt;124554051610 -->
<g id="edge8" class="edge">
<title>30064771402&#45;&gt;124554051610</title>
<path fill="none" stroke="black" d="M992.74,-336.67C1007.5,-312.29 1032.73,-268.12 1047.99,-227.5 1060.66,-193.8 1046.98,-178.68 1066.99,-148.75 1098,-102.38 1151.79,-66.92 1191.76,-45.21"/>
<polygon fill="black" stroke="black" points="1193.33,-48.34 1200.52,-40.56 1190.05,-42.15 1193.33,-48.34"/>
<text xml:space="preserve" text-anchor="middle" x="1228.99" y="-182.7" font-family="Times,serif" font-size="14.00">DDG: tmp18[&quot;instructor_id&quot;] = self.instructor_id</text>
</g>
<!-- 30064771402&#45;&gt;25769803842 -->
<g id="edge20" class="edge">
<title>30064771402&#45;&gt;25769803842</title>
<path fill="none" stroke="black" d="M1134.23,-347.44C1324.51,-337.35 1625.75,-321.11 1637.99,-318.75 1659.52,-314.6 1663.36,-307.82 1684.74,-303 1723.19,-294.33 1764.82,-287.61 1804.68,-282.44"/>
<polygon fill="black" stroke="black" points="1804.89,-285.95 1814.37,-281.22 1804.01,-279 1804.89,-285.95"/>
<text xml:space="preserve" text-anchor="middle" x="1775.87" y="-305.45" font-family="Times,serif" font-size="14.00">DDG: tmp18[&quot;instructor_id&quot;]</text>
</g>
<!-- 30064771405&#45;&gt;124554051610 -->
<g id="edge9" class="edge">
<title>30064771405&#45;&gt;124554051610</title>
<path fill="none" stroke="black" d="M1443.12,-336.42C1444.65,-325.56 1448.14,-312.3 1455.99,-303 1508.02,-241.38 1577.42,-295.36 1620.99,-227.5 1639.91,-198.05 1639.63,-178.38 1620.99,-148.75 1571.11,-69.46 1519.9,-87 1430.99,-57.5 1396.4,-46.02 1356.96,-37.63 1323.17,-31.8"/>
<polygon fill="black" stroke="black" points="1323.88,-28.37 1313.44,-30.16 1322.72,-35.27 1323.88,-28.37"/>
<text xml:space="preserve" text-anchor="middle" x="1695.82" y="-182.7" font-family="Times,serif" font-size="14.00">DDG: tmp18[&quot;name&quot;]</text>
</g>
<!-- 30064771405&#45;&gt;124554051610 -->
<g id="edge10" class="edge">
<title>30064771405&#45;&gt;124554051610</title>
<path fill="none" stroke="black" d="M1538.11,-353.35C1650.19,-349.83 1822.82,-340.86 1842.99,-318.75 1847.71,-313.58 1846.67,-308.95 1842.99,-303 1833.59,-287.78 1818.74,-298.49 1806.99,-285 1765.02,-236.8 1805.88,-194.25 1760.99,-148.75 1667.59,-54.07 1605.98,-85.64 1475.99,-57.5 1425.63,-46.6 1368.48,-37.53 1323.39,-31.14"/>
<polygon fill="black" stroke="black" points="1324.08,-27.7 1313.69,-29.78 1323.11,-34.63 1324.08,-27.7"/>
<text xml:space="preserve" text-anchor="middle" x="1832.74" y="-182.7" font-family="Times,serif" font-size="14.00">DDG: self.name</text>
</g>
<!-- 30064771405&#45;&gt;124554051610 -->
<g id="edge11" class="edge">
<title>30064771405&#45;&gt;124554051610</title>
<path fill="none" stroke="black" d="M1437.84,-336.49C1426.81,-286.13 1397.48,-152.83 1394.99,-148.75 1368.17,-104.72 1320.86,-68.47 1286.13,-45.93"/>
<polygon fill="black" stroke="black" points="1288.29,-43.16 1277.97,-40.75 1284.54,-49.07 1288.29,-43.16"/>
<text xml:space="preserve" text-anchor="middle" x="1514.62" y="-182.7" font-family="Times,serif" font-size="14.00">DDG: tmp18[&quot;name&quot;] = self.name</text>
</g>
<!-- 30064771405&#45;&gt;25769803842 -->
<g id="edge21" class="edge">
<title>30064771405&#45;&gt;25769803842</title>
<path fill="none" stroke="black" d="M1538.01,-356.01C1625.91,-354.43 1758.98,-346.87 1870.99,-318.75 1896.96,-312.23 1924.47,-300.83 1946.78,-290.31"/>
<polygon fill="black" stroke="black" points="1948.11,-293.55 1955.6,-286.06 1945.07,-287.25 1948.11,-293.55"/>
<text xml:space="preserve" text-anchor="middle" x="1976.65" y="-305.45" font-family="Times,serif" font-size="14.00">DDG: tmp18[&quot;name&quot;]</text>
</g>
<!-- 30064771408&#45;&gt;124554051610 -->
<g id="edge12" class="edge">
<title>30064771408&#45;&gt;124554051610</title>
<path fill="none" stroke="black" d="M471.18,-336.45C460.6,-297.92 442.44,-209.25 477.99,-148.75 519.86,-77.51 560.74,-80.89 639.99,-57.5 735.61,-29.29 1021.73,-22.71 1162.7,-21.19"/>
<polygon fill="black" stroke="black" points="1162.35,-24.7 1172.32,-21.1 1162.28,-17.7 1162.35,-24.7"/>
<text xml:space="preserve" text-anchor="middle" x="558.99" y="-182.7" font-family="Times,serif" font-size="14.00">DDG: tmp18[&quot;department&quot;]</text>
</g>
<!-- 30064771408&#45;&gt;124554051610 -->
<g id="edge13" class="edge">
<title>30064771408&#45;&gt;124554051610</title>
<path fill="none" stroke="black" d="M343.97,-346.31C271.65,-340.12 190.16,-330.87 155.99,-318.75 62.95,-285.73 -34.46,-235.33 12.99,-148.75 49.23,-82.64 83.99,-79.84 155.99,-57.5 251.09,-27.99 927.37,-22.16 1162.59,-21.02"/>
<polygon fill="black" stroke="black" points="1162.29,-24.52 1172.28,-20.98 1162.26,-17.52 1162.29,-24.52"/>
<text xml:space="preserve" text-anchor="middle" x="80.49" y="-182.7" font-family="Times,serif" font-size="14.00">DDG: self.department</text>
</g>
<!-- 30064771408&#45;&gt;124554051610 -->
<g id="edge14" class="edge">
<title>30064771408&#45;&gt;124554051610</title>
<path fill="none" stroke="black" d="M395.47,-336.31C281.57,-305.71 96.48,-239.87 169.49,-148.75 285.82,-3.57 393.72,-83 577.99,-57.5 787.64,-28.49 1037.45,-22.18 1162.82,-20.94"/>
<polygon fill="black" stroke="black" points="1162.71,-24.44 1172.67,-20.85 1162.64,-17.44 1162.71,-24.44"/>
<text xml:space="preserve" text-anchor="middle" x="311.24" y="-182.7" font-family="Times,serif" font-size="14.00">DDG: tmp18[&quot;department&quot;] = self.department</text>
</g>
<!-- 30064771408&#45;&gt;25769803842 -->
<g id="edge22" class="edge">
<title>30064771408&#45;&gt;25769803842</title>
<path fill="none" stroke="black" d="M610.2,-347.66C880.34,-331.75 1493.31,-295.67 1804.37,-277.35"/>
<polygon fill="black" stroke="black" points="1804.48,-280.85 1814.25,-276.77 1804.06,-273.87 1804.48,-280.85"/>
<text xml:space="preserve" text-anchor="middle" x="1406.76" y="-305.45" font-family="Times,serif" font-size="14.00">DDG: tmp18[&quot;department&quot;]</text>
</g>
</g>
</svg>
