<?xml version="1.0" encoding="UTF-8" standalone="no"?>
<!DOCTYPE svg PUBLIC "-//W3C//DTD SVG 1.1//EN"
 "http://www.w3.org/Graphics/SVG/1.1/DTD/svg11.dtd">
<!-- Generated by graphviz version 13.1.2 (20250809.0930)
 -->
<!-- Title: &lt;metaClassCallHandler&gt; Pages: 1 -->
<svg width="783pt" height="321pt"
 viewBox="0.00 0.00 783.00 321.00" xmlns="http://www.w3.org/2000/svg" xmlns:xlink="http://www.w3.org/1999/xlink">
<g id="graph0" class="graph" transform="scale(1 1) rotate(0) translate(4 317.25)">
<title>&lt;metaClassCallHandler&gt;</title>
<polygon fill="white" stroke="none" points="-4,4 -4,-317.25 779,-317.25 779,4 -4,4"/>
<!-- 107374182428 -->
<g id="node1" class="node">
<title>107374182428</title>
<polygon fill="none" stroke="black" points="343,-313.25 178.5,-313.25 178.5,-273.75 343,-273.75 343,-313.25"/>
<text xml:space="preserve" text-anchor="start" x="223.62" y="-295.95" font-family="Times,serif" font-size="14.00">METHOD, 308</text>
<text xml:space="preserve" text-anchor="start" x="186.5" y="-280.2" font-family="Times,serif" font-size="14.00">&lt;metaClassCallHandler&gt;</text>
</g>
<!-- 30064771417 -->
<g id="node4" class="node">
<title>30064771417</title>
<polygon fill="none" stroke="black" points="400.38,-222 121.12,-222 121.12,-182.5 400.38,-182.5 400.38,-222"/>
<text xml:space="preserve" text-anchor="start" x="243.88" y="-204.7" font-family="Times,serif" font-size="14.00">, 308</text>
<text xml:space="preserve" text-anchor="start" x="129.12" y="-188.95" font-family="Times,serif" font-size="14.00">class Instructor&lt;meta&gt;(...).&lt;fakeNew&gt;()</text>
</g>
<!-- 107374182428&#45;&gt;30064771417 -->
<g id="edge4" class="edge">
<title>107374182428&#45;&gt;30064771417</title>
<path fill="none" stroke="black" d="M260.75,-273.57C260.75,-262.05 260.75,-247.07 260.75,-233.9"/>
<polygon fill="black" stroke="black" points="264.25,-233.97 260.75,-223.97 257.25,-233.97 264.25,-233.97"/>
<text xml:space="preserve" text-anchor="middle" x="277.62" y="-242.45" font-family="Times,serif" font-size="14.00">DDG: </text>
</g>
<!-- 124554051612 -->
<g id="node2" class="node">
<title>124554051612</title>
<polygon fill="none" stroke="black" points="299.5,-39.5 0,-39.5 0,0 299.5,0 299.5,-39.5"/>
<text xml:space="preserve" text-anchor="start" x="89" y="-22.2" font-family="Times,serif" font-size="14.00">METHOD_RETURN, 308</text>
<text xml:space="preserve" text-anchor="start" x="8" y="-6.45" font-family="Times,serif" font-size="14.00">AI_generated_code_1.py:&lt;module&gt;.Instructor</text>
</g>
<!-- 141733920795 -->
<g id="node3" class="node">
<title>141733920795</title>
<polygon fill="none" stroke="black" points="775,-130.75 448.5,-130.75 448.5,-91.25 775,-91.25 775,-130.75"/>
<text xml:space="preserve" text-anchor="start" x="574.62" y="-113.45" font-family="Times,serif" font-size="14.00">RETURN, 308</text>
<text xml:space="preserve" text-anchor="start" x="456.5" y="-97.7" font-family="Times,serif" font-size="14.00">return class Instructor&lt;meta&gt;(...).&lt;fakeNew&gt;()</text>
</g>
<!-- 141733920795&#45;&gt;124554051612 -->
<g id="edge1" class="edge">
<title>141733920795&#45;&gt;124554051612</title>
<path fill="none" stroke="black" d="M512.36,-90.8C438.29,-76.49 337.15,-56.95 260.5,-42.14"/>
<polygon fill="black" stroke="black" points="261.34,-38.74 250.86,-40.28 260.01,-45.62 261.34,-38.74"/>
<text xml:space="preserve" text-anchor="middle" x="442.16" y="-59.95" font-family="Times,serif" font-size="14.00">DDG: &lt;RET&gt;</text>
</g>
<!-- 30064771417&#45;&gt;124554051612 -->
<g id="edge2" class="edge">
<title>30064771417&#45;&gt;124554051612</title>
<path fill="none" stroke="black" d="M204.5,-182.08C181.04,-170.98 156.18,-154.41 142.75,-130.75 128.94,-106.4 133.19,-73.96 139.38,-50.63"/>
<polygon fill="black" stroke="black" points="142.72,-51.7 142.18,-41.12 136,-49.72 142.72,-51.7"/>
<text xml:space="preserve" text-anchor="middle" x="291.25" y="-105.58" font-family="Times,serif" font-size="14.00">DDG: class Instructor&lt;meta&gt;(...).&lt;fakeNew&gt;()</text>
</g>
<!-- 30064771417&#45;&gt;141733920795 -->
<g id="edge3" class="edge">
<title>30064771417&#45;&gt;141733920795</title>
<path fill="none" stroke="black" d="M336.05,-182.1C391.59,-167.98 467.27,-148.74 525.29,-133.99"/>
<polygon fill="black" stroke="black" points="525.98,-137.42 534.81,-131.56 524.25,-130.64 525.98,-137.42"/>
<text xml:space="preserve" text-anchor="middle" x="605.77" y="-151.2" font-family="Times,serif" font-size="14.00">DDG: class Instructor&lt;meta&gt;(...).&lt;fakeNew&gt;()</text>
</g>
</g>
</svg>
