<?xml version="1.0" encoding="UTF-8" standalone="no"?>
<!DOCTYPE svg PUBLIC "-//W3C//DTD SVG 1.1//EN"
 "http://www.w3.org/Graphics/SVG/1.1/DTD/svg11.dtd">
<!-- Generated by graphviz version 13.1.2 (20250809.0930)
 -->
<!-- Title: minutes_to_time_string Pages: 1 -->
<svg width="1473pt" height="778pt"
 viewBox="0.00 0.00 1473.00 778.00" xmlns="http://www.w3.org/2000/svg" xmlns:xlink="http://www.w3.org/1999/xlink">
<g id="graph0" class="graph" transform="scale(1 1) rotate(0) translate(4 773.5)">
<title>minutes_to_time_string</title>
<polygon fill="white" stroke="none" points="-4,4 -4,-773.5 1469,-773.5 1469,4 -4,4"/>
<!-- 107374182403 -->
<g id="node1" class="node">
<title>107374182403</title>
<polygon fill="none" stroke="black" points="589.54,-769.5 425.04,-769.5 425.04,-730 589.54,-730 589.54,-769.5"/>
<text xml:space="preserve" text-anchor="start" x="470.16" y="-752.2" font-family="Times,serif" font-size="14.00">METHOD, 156</text>
<text xml:space="preserve" text-anchor="start" x="433.04" y="-736.45" font-family="Times,serif" font-size="14.00">minutes_to_time_string</text>
</g>
<!-- 111669149698 -->
<g id="node3" class="node">
<title>111669149698</title>
<polygon fill="none" stroke="black" points="479.04,-678.25 395.54,-678.25 395.54,-638.75 479.04,-638.75 479.04,-678.25"/>
<text xml:space="preserve" text-anchor="start" x="403.54" y="-660.95" font-family="Times,serif" font-size="14.00">PARAM, 156</text>
<text xml:space="preserve" text-anchor="start" x="420.41" y="-645.2" font-family="Times,serif" font-size="14.00">value</text>
</g>
<!-- 107374182403&#45;&gt;111669149698 -->
<g id="edge12" class="edge">
<title>107374182403&#45;&gt;111669149698</title>
<path fill="none" stroke="black" d="M477.37,-729.52C470.91,-724.39 464.53,-718.46 459.54,-712 454.36,-705.29 450.15,-697.2 446.85,-689.39"/>
<polygon fill="black" stroke="black" points="450.15,-688.24 443.31,-680.14 443.61,-690.73 450.15,-688.24"/>
<text xml:space="preserve" text-anchor="middle" x="476.41" y="-698.7" font-family="Times,serif" font-size="14.00">DDG: </text>
</g>
<!-- 90194313259 -->
<g id="node4" class="node">
<title>90194313259</title>
<polygon fill="none" stroke="black" points="377.54,-678.25 51.04,-678.25 51.04,-638.75 377.54,-638.75 377.54,-678.25"/>
<text xml:space="preserve" text-anchor="start" x="173.79" y="-660.95" font-family="Times,serif" font-size="14.00">LITERAL, 157</text>
<text xml:space="preserve" text-anchor="start" x="59.04" y="-645.2" font-family="Times,serif" font-size="14.00">&quot;&quot;&quot;Convert minutes since midnight to HH:MM.&quot;&quot;&quot;</text>
</g>
<!-- 107374182403&#45;&gt;90194313259 -->
<g id="edge13" class="edge">
<title>107374182403&#45;&gt;90194313259</title>
<path fill="none" stroke="black" d="M444.43,-729.6C398.65,-715.66 336.47,-696.72 288.28,-682.04"/>
<polygon fill="black" stroke="black" points="289.33,-678.7 278.74,-679.13 287.29,-685.39 289.33,-678.7"/>
<text xml:space="preserve" text-anchor="middle" x="395.21" y="-698.7" font-family="Times,serif" font-size="14.00">DDG: </text>
</g>
<!-- 30064771154 -->
<g id="node8" class="node">
<title>30064771154</title>
<polygon fill="none" stroke="black" points="1053.79,-222 848.79,-222 848.79,-182.5 1053.79,-182.5 1053.79,-222"/>
<text xml:space="preserve" text-anchor="start" x="856.79" y="-204.7" font-family="Times,serif" font-size="14.00">&lt;operator&gt;.formatString, 160</text>
<text xml:space="preserve" text-anchor="start" x="863.54" y="-188.95" font-family="Times,serif" font-size="14.00">f&quot;{hour:02d}:{minute:02d}&quot;</text>
</g>
<!-- 107374182403&#45;&gt;30064771154 -->
<g id="edge24" class="edge">
<title>107374182403&#45;&gt;30064771154</title>
<path fill="none" stroke="black" d="M589.96,-740.79C679.98,-729.77 811.29,-705.77 811.29,-659.5 811.29,-659.5 811.29,-659.5 811.29,-292.5 811.29,-261.3 836.32,-240.53 865.21,-226.95"/>
<polygon fill="black" stroke="black" points="866.4,-230.24 874.17,-223.04 863.6,-223.83 866.4,-230.24"/>
<text xml:space="preserve" text-anchor="middle" x="828.16" y="-470.57" font-family="Times,serif" font-size="14.00">DDG: </text>
</g>
<!-- 30064771148 -->
<g id="node9" class="node">
<title>30064771148</title>
<polygon fill="none" stroke="black" points="472.29,-587 294.29,-587 294.29,-547.5 472.29,-547.5 472.29,-587"/>
<text xml:space="preserve" text-anchor="start" x="302.29" y="-569.7" font-family="Times,serif" font-size="14.00">&lt;operator&gt;.floorDiv, 158</text>
<text xml:space="preserve" text-anchor="start" x="346.16" y="-553.95" font-family="Times,serif" font-size="14.00">value // 60</text>
</g>
<!-- 107374182403&#45;&gt;30064771148 -->
<g id="edge20" class="edge">
<title>107374182403&#45;&gt;30064771148</title>
<path fill="none" stroke="black" d="M424.68,-749.58C297.15,-748.89 61.44,-739.16 8.54,-678.25 -2.97,-665 -2.67,-652.26 8.54,-638.75 42.77,-597.47 183.76,-580.21 282.67,-573.09"/>
<polygon fill="black" stroke="black" points="282.67,-576.6 292.4,-572.42 282.19,-569.62 282.67,-576.6"/>
<text xml:space="preserve" text-anchor="middle" x="25.41" y="-653.08" font-family="Times,serif" font-size="14.00">DDG: </text>
</g>
<!-- 30064771150 -->
<g id="node10" class="node">
<title>30064771150</title>
<polygon fill="none" stroke="black" points="699.54,-495.75 535.04,-495.75 535.04,-456.25 699.54,-456.25 699.54,-495.75"/>
<text xml:space="preserve" text-anchor="start" x="543.04" y="-478.45" font-family="Times,serif" font-size="14.00">&lt;operator&gt;.modulo, 159</text>
<text xml:space="preserve" text-anchor="start" x="583.54" y="-462.7" font-family="Times,serif" font-size="14.00">value % 60</text>
</g>
<!-- 107374182403&#45;&gt;30064771150 -->
<g id="edge22" class="edge">
<title>107374182403&#45;&gt;30064771150</title>
<path fill="none" stroke="black" d="M522.9,-729.76C551.55,-693.55 611.55,-610.94 633.29,-529.5 635.28,-522.04 634.41,-514.05 632.29,-506.6"/>
<polygon fill="black" stroke="black" points="635.59,-505.45 628.84,-497.28 629.03,-507.88 635.59,-505.45"/>
<text xml:space="preserve" text-anchor="middle" x="620.06" y="-607.45" font-family="Times,serif" font-size="14.00">DDG: </text>
</g>
<!-- 30064771152 -->
<g id="node11" class="node">
<title>30064771152</title>
<polygon fill="none" stroke="black" points="521.54,-313.25 303.04,-313.25 303.04,-273.75 521.54,-273.75 521.54,-313.25"/>
<text xml:space="preserve" text-anchor="start" x="311.04" y="-295.95" font-family="Times,serif" font-size="14.00">&lt;operator&gt;.formattedValue, 160</text>
<text xml:space="preserve" text-anchor="start" x="378.54" y="-280.2" font-family="Times,serif" font-size="14.00">{hour:02d}</text>
</g>
<!-- 107374182403&#45;&gt;30064771152 -->
<g id="edge27" class="edge">
<title>107374182403&#45;&gt;30064771152</title>
<path fill="none" stroke="black" d="M507.29,-729.6C507.29,-711.53 507.29,-683.67 507.29,-659.5 507.29,-659.5 507.29,-659.5 507.29,-383.75 507.29,-356.23 485.85,-334.71 463.33,-319.71"/>
<polygon fill="black" stroke="black" points="465.3,-316.81 454.96,-314.48 461.59,-322.74 465.3,-316.81"/>
<text xml:space="preserve" text-anchor="middle" x="524.16" y="-516.2" font-family="Times,serif" font-size="14.00">DDG: </text>
</g>
<!-- 30064771153 -->
<g id="node12" class="node">
<title>30064771153</title>
<polygon fill="none" stroke="black" points="1058.54,-313.25 840.04,-313.25 840.04,-273.75 1058.54,-273.75 1058.54,-313.25"/>
<text xml:space="preserve" text-anchor="start" x="848.04" y="-295.95" font-family="Times,serif" font-size="14.00">&lt;operator&gt;.formattedValue, 160</text>
<text xml:space="preserve" text-anchor="start" x="908.79" y="-280.2" font-family="Times,serif" font-size="14.00">{minute:02d}</text>
</g>
<!-- 107374182403&#45;&gt;30064771153 -->
<g id="edge29" class="edge">
<title>107374182403&#45;&gt;30064771153</title>
<path fill="none" stroke="black" d="M589.93,-748.52C716.86,-745.91 945.29,-731.24 945.29,-659.5 945.29,-659.5 945.29,-659.5 945.29,-383.75 945.29,-364.19 946.26,-342.23 947.25,-324.99"/>
<polygon fill="black" stroke="black" points="950.73,-325.34 947.84,-315.15 943.74,-324.92 950.73,-325.34"/>
<text xml:space="preserve" text-anchor="middle" x="962.16" y="-516.2" font-family="Times,serif" font-size="14.00">DDG: </text>
</g>
<!-- 124554051587 -->
<g id="node2" class="node">
<title>124554051587</title>
<polygon fill="none" stroke="black" points="638.04,-39.5 500.54,-39.5 500.54,0 638.04,0 638.04,-39.5"/>
<text xml:space="preserve" text-anchor="start" x="508.54" y="-22.2" font-family="Times,serif" font-size="14.00">METHOD_RETURN, 156</text>
<text xml:space="preserve" text-anchor="start" x="525.41" y="-6.45" font-family="Times,serif" font-size="14.00">__builtin.str</text>
</g>
<!-- 111669149698&#45;&gt;30064771148 -->
<g id="edge19" class="edge">
<title>111669149698&#45;&gt;30064771148</title>
<path fill="none" stroke="black" d="M425.84,-638.57C418.58,-626.58 409.06,-610.84 400.86,-597.29"/>
<polygon fill="black" stroke="black" points="403.87,-595.5 395.69,-588.75 397.88,-599.12 403.87,-595.5"/>
<text xml:space="preserve" text-anchor="middle" x="447.27" y="-607.45" font-family="Times,serif" font-size="14.00">DDG: value</text>
</g>
<!-- 30064771149 -->
<g id="node5" class="node">
<title>30064771149</title>
<polygon fill="none" stroke="black" points="375.04,-404.5 183.54,-404.5 183.54,-365 375.04,-365 375.04,-404.5"/>
<text xml:space="preserve" text-anchor="start" x="191.54" y="-387.2" font-family="Times,serif" font-size="14.00">&lt;operator&gt;.assignment, 158</text>
<text xml:space="preserve" text-anchor="start" x="218.54" y="-371.45" font-family="Times,serif" font-size="14.00">hour = value // 60</text>
</g>
<!-- 30064771149&#45;&gt;124554051587 -->
<g id="edge2" class="edge">
<title>30064771149&#45;&gt;124554051587</title>
<path fill="none" stroke="black" d="M277.93,-364.61C276.77,-346.55 275.29,-318.7 275.29,-294.5 275.29,-294.5 275.29,-294.5 275.29,-110 275.29,-65.16 402.1,-40.72 489.15,-29.23"/>
<polygon fill="black" stroke="black" points="489.38,-32.73 498.86,-27.98 488.49,-25.78 489.38,-32.73"/>
<text xml:space="preserve" text-anchor="middle" x="329.29" y="-196.82" font-family="Times,serif" font-size="14.00">DDG: value // 60</text>
</g>
<!-- 30064771149&#45;&gt;124554051587 -->
<g id="edge3" class="edge">
<title>30064771149&#45;&gt;124554051587</title>
<path fill="none" stroke="black" d="M183.22,-375.17C134,-364.9 84.29,-342.62 84.29,-294.5 84.29,-294.5 84.29,-294.5 84.29,-110 84.29,-69.38 350.86,-39.93 488.74,-27.42"/>
<polygon fill="black" stroke="black" points="488.9,-30.92 498.55,-26.54 488.28,-23.95 488.9,-30.92"/>
<text xml:space="preserve" text-anchor="middle" x="161.91" y="-196.82" font-family="Times,serif" font-size="14.00">DDG: hour = value // 60</text>
</g>
<!-- 30064771149&#45;&gt;30064771152 -->
<g id="edge26" class="edge">
<title>30064771149&#45;&gt;30064771152</title>
<path fill="none" stroke="black" d="M307.82,-364.6C327.28,-351.54 353.26,-334.11 374.45,-319.89"/>
<polygon fill="black" stroke="black" points="376.19,-322.94 382.55,-314.46 372.29,-317.12 376.19,-322.94"/>
<text xml:space="preserve" text-anchor="middle" x="384.13" y="-333.7" font-family="Times,serif" font-size="14.00">DDG: hour</text>
</g>
<!-- 30064771151 -->
<g id="node6" class="node">
<title>30064771151</title>
<polygon fill="none" stroke="black" points="783.04,-404.5 591.54,-404.5 591.54,-365 783.04,-365 783.04,-404.5"/>
<text xml:space="preserve" text-anchor="start" x="599.54" y="-387.2" font-family="Times,serif" font-size="14.00">&lt;operator&gt;.assignment, 159</text>
<text xml:space="preserve" text-anchor="start" x="623.16" y="-371.45" font-family="Times,serif" font-size="14.00">minute = value % 60</text>
</g>
<!-- 30064771151&#45;&gt;124554051587 -->
<g id="edge5" class="edge">
<title>30064771151&#45;&gt;124554051587</title>
<path fill="none" stroke="black" d="M694.85,-364.56C708.45,-326.63 732.54,-240.7 697.29,-182.5 684.43,-161.27 613.77,-150.15 598.29,-130.75 580.16,-108.03 573.29,-75.09 570.73,-51.18"/>
<polygon fill="black" stroke="black" points="574.24,-51.1 569.89,-41.44 567.26,-51.7 574.24,-51.1"/>
<text xml:space="preserve" text-anchor="middle" x="762.88" y="-196.82" font-family="Times,serif" font-size="14.00">DDG: value % 60</text>
</g>
<!-- 30064771151&#45;&gt;124554051587 -->
<g id="edge6" class="edge">
<title>30064771151&#45;&gt;124554051587</title>
<path fill="none" stroke="black" d="M686.68,-364.51C684.59,-333.25 675.66,-271.76 638.29,-240 601.54,-208.77 562.43,-258.82 531.29,-222 489.71,-172.84 525.96,-92.54 550.74,-49.75"/>
<polygon fill="black" stroke="black" points="553.69,-51.64 555.81,-41.26 547.68,-48.05 553.69,-51.64"/>
<text xml:space="preserve" text-anchor="middle" x="612.29" y="-196.82" font-family="Times,serif" font-size="14.00">DDG: minute = value % 60</text>
</g>
<!-- 30064771151&#45;&gt;30064771153 -->
<g id="edge28" class="edge">
<title>30064771151&#45;&gt;30064771153</title>
<path fill="none" stroke="black" d="M743.49,-364.6C784.25,-350.72 839.52,-331.89 882.52,-317.24"/>
<polygon fill="black" stroke="black" points="883.41,-320.64 891.74,-314.1 881.15,-314.01 883.41,-320.64"/>
<text xml:space="preserve" text-anchor="middle" x="871.1" y="-333.7" font-family="Times,serif" font-size="14.00">DDG: minute</text>
</g>
<!-- 141733920770 -->
<g id="node7" class="node">
<title>141733920770</title>
<polygon fill="none" stroke="black" points="1232.66,-130.75 993.91,-130.75 993.91,-91.25 1232.66,-91.25 1232.66,-130.75"/>
<text xml:space="preserve" text-anchor="start" x="1076.16" y="-113.45" font-family="Times,serif" font-size="14.00">RETURN, 160</text>
<text xml:space="preserve" text-anchor="start" x="1001.91" y="-97.7" font-family="Times,serif" font-size="14.00">return f&quot;{hour:02d}:{minute:02d}&quot;</text>
</g>
<!-- 141733920770&#45;&gt;124554051587 -->
<g id="edge1" class="edge">
<title>141733920770&#45;&gt;124554051587</title>
<path fill="none" stroke="black" d="M996.25,-90.8C891.63,-73.63 741.12,-48.94 649.56,-33.92"/>
<polygon fill="black" stroke="black" points="650.35,-30.5 639.91,-32.34 649.22,-37.41 650.35,-30.5"/>
<text xml:space="preserve" text-anchor="middle" x="907.61" y="-59.95" font-family="Times,serif" font-size="14.00">DDG: &lt;RET&gt;</text>
</g>
<!-- 30064771154&#45;&gt;124554051587 -->
<g id="edge8" class="edge">
<title>30064771154&#45;&gt;124554051587</title>
<path fill="none" stroke="black" d="M1054.07,-195.44C1136.62,-189.7 1240.94,-179.57 1254.29,-164.5 1268.81,-148.11 1276.77,-123.07 1241.29,-91.25 1197.99,-52.42 818.49,-31.44 649.67,-23.96"/>
<polygon fill="black" stroke="black" points="650.03,-20.47 639.89,-23.53 649.72,-27.47 650.03,-20.47"/>
<text xml:space="preserve" text-anchor="middle" x="1316.85" y="-105.58" font-family="Times,serif" font-size="14.00">DDG: {hour:02d}</text>
</g>
<!-- 30064771154&#45;&gt;124554051587 -->
<g id="edge10" class="edge">
<title>30064771154&#45;&gt;124554051587</title>
<path fill="none" stroke="black" d="M848.68,-183.41C761.21,-167.44 646.92,-144.49 629.54,-130.75 615.76,-119.85 595.41,-78.98 582.25,-50.26"/>
<polygon fill="black" stroke="black" points="585.51,-48.98 578.21,-41.31 579.13,-51.86 585.51,-48.98"/>
<text xml:space="preserve" text-anchor="middle" x="686.91" y="-105.58" font-family="Times,serif" font-size="14.00">DDG: {minute:02d}</text>
</g>
<!-- 30064771154&#45;&gt;124554051587 -->
<g id="edge11" class="edge">
<title>30064771154&#45;&gt;124554051587</title>
<path fill="none" stroke="black" d="M880.94,-182.12C847.12,-170.72 807.25,-153.9 776.04,-130.75 757.95,-117.33 762.38,-104.67 744.29,-91.25 715.93,-70.21 680.42,-54.38 648.81,-43.12"/>
<polygon fill="black" stroke="black" points="650.28,-39.92 639.69,-39.96 647.99,-46.54 650.28,-39.92"/>
<text xml:space="preserve" text-anchor="middle" x="880.66" y="-105.58" font-family="Times,serif" font-size="14.00">DDG: f&quot;{hour:02d}:{minute:02d}&quot;</text>
</g>
<!-- 30064771154&#45;&gt;141733920770 -->
<g id="edge18" class="edge">
<title>30064771154&#45;&gt;141733920770</title>
<path fill="none" stroke="black" d="M985.06,-182.16C1002.86,-172.14 1025.09,-159.71 1045.04,-148.75 1052.26,-144.79 1059.92,-140.62 1067.41,-136.57"/>
<polygon fill="black" stroke="black" points="1068.98,-139.7 1076.12,-131.87 1065.66,-133.54 1068.98,-139.7"/>
<text xml:space="preserve" text-anchor="middle" x="1149.66" y="-151.2" font-family="Times,serif" font-size="14.00">DDG: f&quot;{hour:02d}:{minute:02d}&quot;</text>
</g>
<!-- 30064771148&#45;&gt;30064771149 -->
<g id="edge14" class="edge">
<title>30064771148&#45;&gt;30064771149</title>
<path fill="none" stroke="black" d="M347.48,-547.22C328.34,-535.1 306.21,-517.58 293.79,-495.75 279.92,-471.37 277.13,-439.14 277.31,-415.87"/>
<polygon fill="black" stroke="black" points="280.81,-416.22 277.59,-406.12 273.81,-416.02 280.81,-416.22"/>
<text xml:space="preserve" text-anchor="middle" x="327.54" y="-470.57" font-family="Times,serif" font-size="14.00">DDG: value</text>
</g>
<!-- 30064771148&#45;&gt;30064771149 -->
<g id="edge15" class="edge">
<title>30064771148&#45;&gt;30064771149</title>
<path fill="none" stroke="black" d="M383.17,-547.03C382.22,-523.96 378,-484.83 361.29,-456.25 350.99,-438.64 334.66,-423.27 319.27,-411.42"/>
<polygon fill="black" stroke="black" points="321.72,-408.88 311.59,-405.76 317.57,-414.51 321.72,-408.88"/>
<text xml:space="preserve" text-anchor="middle" x="400" y="-470.57" font-family="Times,serif" font-size="14.00">DDG: 60</text>
</g>
<!-- 30064771148&#45;&gt;30064771150 -->
<g id="edge21" class="edge">
<title>30064771148&#45;&gt;30064771150</title>
<path fill="none" stroke="black" d="M472.72,-551.88C495.96,-546.47 520.55,-539.18 542.29,-529.5 544.59,-528.47 563.04,-515.57 581.06,-502.81"/>
<polygon fill="black" stroke="black" points="582.99,-505.73 589.12,-497.09 578.94,-500.02 582.99,-505.73"/>
<text xml:space="preserve" text-anchor="middle" x="598.22" y="-516.2" font-family="Times,serif" font-size="14.00">DDG: value</text>
</g>
<!-- 30064771150&#45;&gt;124554051587 -->
<g id="edge4" class="edge">
<title>30064771150&#45;&gt;124554051587</title>
<path fill="none" stroke="black" d="M607.2,-455.75C599.96,-441.7 590.14,-422.1 582.29,-404.5 556.81,-347.39 553.6,-331.78 530.29,-273.75 521.04,-250.72 514.26,-246.32 509.29,-222 497.66,-165.04 494.91,-146.41 513.29,-91.25 518.62,-75.26 529.39,-60.23 540.08,-48.19"/>
<polygon fill="black" stroke="black" points="542.45,-50.78 546.73,-41.09 537.34,-46 542.45,-50.78"/>
<text xml:space="preserve" text-anchor="middle" x="555.7" y="-242.45" font-family="Times,serif" font-size="14.00">DDG: value</text>
</g>
<!-- 30064771150&#45;&gt;30064771151 -->
<g id="edge16" class="edge">
<title>30064771150&#45;&gt;30064771151</title>
<path fill="none" stroke="black" d="M647.38,-455.81C653.88,-450.68 660.29,-444.73 665.29,-438.25 670.46,-431.55 674.63,-423.46 677.9,-415.65"/>
<polygon fill="black" stroke="black" points="681.13,-417 681.38,-406.4 674.58,-414.53 681.13,-417"/>
<text xml:space="preserve" text-anchor="middle" x="707.97" y="-424.95" font-family="Times,serif" font-size="14.00">DDG: value</text>
</g>
<!-- 30064771150&#45;&gt;30064771151 -->
<g id="edge17" class="edge">
<title>30064771150&#45;&gt;30064771151</title>
<path fill="none" stroke="black" d="M611.01,-455.96C608.7,-445.37 607.95,-432.37 614.04,-422.5 616.45,-418.59 619.42,-415.09 622.76,-411.94"/>
<polygon fill="black" stroke="black" points="624.88,-414.73 630.56,-405.79 620.54,-409.24 624.88,-414.73"/>
<text xml:space="preserve" text-anchor="middle" x="637.66" y="-424.95" font-family="Times,serif" font-size="14.00">DDG: 60</text>
</g>
<!-- 30064771152&#45;&gt;124554051587 -->
<g id="edge7" class="edge">
<title>30064771152&#45;&gt;124554051587</title>
<path fill="none" stroke="black" d="M408.89,-273.38C404.67,-245.34 399.5,-191.74 412.54,-148.75 426.68,-102.13 435.24,-87.93 473.29,-57.5 479.19,-52.78 485.76,-48.62 492.62,-44.96"/>
<polygon fill="black" stroke="black" points="494.05,-48.16 501.48,-40.61 490.96,-41.88 494.05,-48.16"/>
<text xml:space="preserve" text-anchor="middle" x="442.91" y="-151.2" font-family="Times,serif" font-size="14.00">DDG: hour</text>
</g>
<!-- 30064771152&#45;&gt;30064771154 -->
<g id="edge23" class="edge">
<title>30064771152&#45;&gt;30064771154</title>
<path fill="none" stroke="black" d="M522.01,-274.33C613.85,-259.12 744.44,-237.5 837.42,-222.11"/>
<polygon fill="black" stroke="black" points="837.78,-225.59 847.07,-220.51 836.64,-218.69 837.78,-225.59"/>
<text xml:space="preserve" text-anchor="middle" x="744.43" y="-242.45" font-family="Times,serif" font-size="14.00">DDG: hour</text>
</g>
<!-- 30064771153&#45;&gt;124554051587 -->
<g id="edge9" class="edge">
<title>30064771153&#45;&gt;124554051587</title>
<path fill="none" stroke="black" d="M1058.99,-279.94C1213.66,-257.96 1466.91,-203.72 1371.29,-91.25 1325.13,-36.96 843.55,-24.43 649.58,-21.57"/>
<polygon fill="black" stroke="black" points="649.9,-18.08 639.85,-21.44 649.8,-25.08 649.9,-18.08"/>
<text xml:space="preserve" text-anchor="middle" x="1427.88" y="-151.2" font-family="Times,serif" font-size="14.00">DDG: minute</text>
</g>
<!-- 30064771153&#45;&gt;30064771154 -->
<g id="edge25" class="edge">
<title>30064771153&#45;&gt;30064771154</title>
<path fill="none" stroke="black" d="M949.71,-273.57C949.97,-262.05 950.31,-247.07 950.6,-233.9"/>
<polygon fill="black" stroke="black" points="954.1,-234.05 950.82,-223.97 947.1,-233.89 954.1,-234.05"/>
<text xml:space="preserve" text-anchor="middle" x="987.53" y="-242.45" font-family="Times,serif" font-size="14.00">DDG: minute</text>
</g>
</g>
</svg>
