<?xml version="1.0" encoding="UTF-8" standalone="no"?>
<!DOCTYPE svg PUBLIC "-//W3C//DTD SVG 1.1//EN"
 "http://www.w3.org/Graphics/SVG/1.1/DTD/svg11.dtd">
<!-- Generated by graphviz version 13.1.2 (20250809.0930)
 -->
<!-- Title: seats_available Pages: 1 -->
<svg width="1333pt" height="520pt"
 viewBox="0.00 0.00 1333.00 520.00" xmlns="http://www.w3.org/2000/svg" xmlns:xlink="http://www.w3.org/1999/xlink">
<g id="graph0" class="graph" transform="scale(1 1) rotate(0) translate(4 515.5)">
<title>seats_available</title>
<polygon fill="white" stroke="none" points="-4,4 -4,-515.5 1328.89,-515.5 1328.89,4 -4,4"/>
<!-- 107374182432 -->
<g id="node1" class="node">
<title>107374182432</title>
<polygon fill="none" stroke="black" points="532.62,-511.5 415.38,-511.5 415.38,-472 532.62,-472 532.62,-511.5"/>
<text xml:space="preserve" text-anchor="start" x="436.88" y="-494.2" font-family="Times,serif" font-size="14.00">METHOD, 343</text>
<text xml:space="preserve" text-anchor="start" x="423.38" y="-478.45" font-family="Times,serif" font-size="14.00">seats_available</text>
</g>
<!-- 111669149739 -->
<g id="node3" class="node">
<title>111669149739</title>
<polygon fill="none" stroke="black" points="332.75,-412.38 249.25,-412.38 249.25,-372.88 332.75,-372.88 332.75,-412.38"/>
<text xml:space="preserve" text-anchor="start" x="257.25" y="-395.07" font-family="Times,serif" font-size="14.00">PARAM, 343</text>
<text xml:space="preserve" text-anchor="start" x="277.5" y="-379.32" font-family="Times,serif" font-size="14.00">self</text>
</g>
<!-- 107374182432&#45;&gt;111669149739 -->
<g id="edge7" class="edge">
<title>107374182432&#45;&gt;111669149739</title>
<path fill="none" stroke="black" d="M437.85,-471.56C408.9,-456.2 368.11,-434.55 336.86,-417.97"/>
<polygon fill="black" stroke="black" points="338.89,-415.08 328.42,-413.48 335.61,-421.26 338.89,-415.08"/>
<text xml:space="preserve" text-anchor="middle" x="421.15" y="-440.7" font-family="Times,serif" font-size="14.00">DDG: </text>
</g>
<!-- 90194313332 -->
<g id="node4" class="node">
<title>90194313332</title>
<polygon fill="none" stroke="black" points="596.75,-412.38 351.25,-412.38 351.25,-372.88 596.75,-372.88 596.75,-412.38"/>
<text xml:space="preserve" text-anchor="start" x="433.5" y="-395.07" font-family="Times,serif" font-size="14.00">LITERAL, 344</text>
<text xml:space="preserve" text-anchor="start" x="359.25" y="-379.32" font-family="Times,serif" font-size="14.00">&quot;&quot;&quot;Return number of open seats.&quot;&quot;&quot;</text>
</g>
<!-- 107374182432&#45;&gt;90194313332 -->
<g id="edge8" class="edge">
<title>107374182432&#45;&gt;90194313332</title>
<path fill="none" stroke="black" d="M474,-471.56C474,-457.99 474,-439.52 474,-423.97"/>
<polygon fill="black" stroke="black" points="477.5,-424.29 474,-414.29 470.5,-424.29 477.5,-424.29"/>
<text xml:space="preserve" text-anchor="middle" x="490.88" y="-440.7" font-family="Times,serif" font-size="14.00">DDG: </text>
</g>
<!-- 68719477098 -->
<g id="node7" class="node">
<title>68719477098</title>
<polygon fill="none" stroke="black" points="813.12,-420.25 614.88,-420.25 614.88,-365 813.12,-365 813.12,-420.25"/>
<text xml:space="preserve" text-anchor="start" x="663.38" y="-402.95" font-family="Times,serif" font-size="14.00">IDENTIFIER, 345</text>
<text xml:space="preserve" text-anchor="start" x="703.88" y="-387.2" font-family="Times,serif" font-size="14.00">len</text>
<text xml:space="preserve" text-anchor="start" x="622.88" y="-371.45" font-family="Times,serif" font-size="14.00">len(self.enrolled_students)</text>
</g>
<!-- 107374182432&#45;&gt;68719477098 -->
<g id="edge13" class="edge">
<title>107374182432&#45;&gt;68719477098</title>
<path fill="none" stroke="black" d="M521.42,-471.56C554.26,-458.27 598.71,-440.28 636.64,-424.93"/>
<polygon fill="black" stroke="black" points="637.79,-428.24 645.75,-421.25 635.16,-421.75 637.79,-428.24"/>
<text xml:space="preserve" text-anchor="middle" x="618.07" y="-440.7" font-family="Times,serif" font-size="14.00">DDG: </text>
</g>
<!-- 124554051616 -->
<g id="node2" class="node">
<title>124554051616</title>
<polygon fill="none" stroke="black" points="398.75,-39.5 261.25,-39.5 261.25,0 398.75,0 398.75,-39.5"/>
<text xml:space="preserve" text-anchor="start" x="269.25" y="-22.2" font-family="Times,serif" font-size="14.00">METHOD_RETURN, 343</text>
<text xml:space="preserve" text-anchor="start" x="286.12" y="-6.45" font-family="Times,serif" font-size="14.00">__builtin.int</text>
</g>
<!-- 111669149739&#45;&gt;124554051616 -->
<g id="edge2" class="edge">
<title>111669149739&#45;&gt;124554051616</title>
<path fill="none" stroke="black" d="M249,-386.51C168.41,-375.53 0,-346.36 0,-294.5 0,-294.5 0,-294.5 0,-110 0,-73.21 30.29,-72.24 64,-57.5 96.4,-43.33 183.83,-33.05 249.68,-27.02"/>
<polygon fill="black" stroke="black" points="249.72,-30.53 259.37,-26.16 249.1,-23.56 249.72,-30.53"/>
<text xml:space="preserve" text-anchor="middle" x="30.38" y="-196.82" font-family="Times,serif" font-size="14.00">DDG: self</text>
</g>
<!-- 30064771432 -->
<g id="node6" class="node">
<title>30064771432</title>
<polygon fill="none" stroke="black" points="497.12,-222 190.88,-222 190.88,-182.5 497.12,-182.5 497.12,-222"/>
<text xml:space="preserve" text-anchor="start" x="252.88" y="-204.7" font-family="Times,serif" font-size="14.00">&lt;operator&gt;.subtraction, 345</text>
<text xml:space="preserve" text-anchor="start" x="198.88" y="-188.95" font-family="Times,serif" font-size="14.00">self.capacity &#45; len(self.enrolled_students)</text>
</g>
<!-- 111669149739&#45;&gt;30064771432 -->
<g id="edge10" class="edge">
<title>111669149739&#45;&gt;30064771432</title>
<path fill="none" stroke="black" d="M289.78,-372.72C288.85,-348.98 289.25,-307.3 300.25,-273.75 305.14,-258.85 313.78,-243.86 322.1,-231.57"/>
<polygon fill="black" stroke="black" points="324.84,-233.76 327.76,-223.57 319.13,-229.72 324.84,-233.76"/>
<text xml:space="preserve" text-anchor="middle" x="330.62" y="-288.07" font-family="Times,serif" font-size="14.00">DDG: self</text>
</g>
<!-- 30064771431 -->
<g id="node8" class="node">
<title>30064771431</title>
<polygon fill="none" stroke="black" points="568.12,-313.25 369.88,-313.25 369.88,-273.75 568.12,-273.75 568.12,-313.25"/>
<text xml:space="preserve" text-anchor="start" x="442" y="-295.95" font-family="Times,serif" font-size="14.00">len, 345</text>
<text xml:space="preserve" text-anchor="start" x="377.88" y="-280.2" font-family="Times,serif" font-size="14.00">len(self.enrolled_students)</text>
</g>
<!-- 111669149739&#45;&gt;30064771431 -->
<g id="edge14" class="edge">
<title>111669149739&#45;&gt;30064771431</title>
<path fill="none" stroke="black" d="M326.17,-372.44C354.2,-357.14 393.66,-335.61 424,-319.06"/>
<polygon fill="black" stroke="black" points="425.48,-322.24 432.58,-314.37 422.12,-316.09 425.48,-322.24"/>
<text xml:space="preserve" text-anchor="middle" x="431.55" y="-333.7" font-family="Times,serif" font-size="14.00">DDG: self</text>
</g>
<!-- 141733920798 -->
<g id="node5" class="node">
<title>141733920798</title>
<polygon fill="none" stroke="black" points="1151.75,-130.75 798.25,-130.75 798.25,-91.25 1151.75,-91.25 1151.75,-130.75"/>
<text xml:space="preserve" text-anchor="start" x="937.88" y="-113.45" font-family="Times,serif" font-size="14.00">RETURN, 345</text>
<text xml:space="preserve" text-anchor="start" x="806.25" y="-97.7" font-family="Times,serif" font-size="14.00">return self.capacity &#45; len(self.enrolled_students)</text>
</g>
<!-- 141733920798&#45;&gt;124554051616 -->
<g id="edge1" class="edge">
<title>141733920798&#45;&gt;124554051616</title>
<path fill="none" stroke="black" d="M836.24,-90.8C706.38,-72.83 516.89,-46.61 410.39,-31.87"/>
<polygon fill="black" stroke="black" points="410.97,-28.42 400.59,-30.52 410.01,-35.36 410.97,-28.42"/>
<text xml:space="preserve" text-anchor="middle" x="724.87" y="-59.95" font-family="Times,serif" font-size="14.00">DDG: &lt;RET&gt;</text>
</g>
<!-- 30064771432&#45;&gt;124554051616 -->
<g id="edge3" class="edge">
<title>30064771432&#45;&gt;124554051616</title>
<path fill="none" stroke="black" d="M198.9,-182.01C138.64,-170.76 78.53,-154.08 60.5,-130.75 6.48,-60.84 151.93,-35.12 249.6,-25.83"/>
<polygon fill="black" stroke="black" points="249.81,-29.32 259.46,-24.94 249.18,-22.35 249.81,-29.32"/>
<text xml:space="preserve" text-anchor="middle" x="121.25" y="-105.58" font-family="Times,serif" font-size="14.00">DDG: self.capacity</text>
</g>
<!-- 30064771432&#45;&gt;124554051616 -->
<g id="edge5" class="edge">
<title>30064771432&#45;&gt;124554051616</title>
<path fill="none" stroke="black" d="M282.07,-182.12C257.63,-171.19 232.07,-154.75 218,-130.75 209.12,-115.61 209.51,-106.62 218,-91.25 229.02,-71.3 248.32,-56.22 267.82,-45.24"/>
<polygon fill="black" stroke="black" points="269.45,-48.34 276.66,-40.57 266.18,-42.15 269.45,-48.34"/>
<text xml:space="preserve" text-anchor="middle" x="326" y="-105.58" font-family="Times,serif" font-size="14.00">DDG: len(self.enrolled_students)</text>
</g>
<!-- 30064771432&#45;&gt;124554051616 -->
<g id="edge6" class="edge">
<title>30064771432&#45;&gt;124554051616</title>
<path fill="none" stroke="black" d="M382.05,-182.28C401.43,-170.39 423.14,-153.06 434,-130.75 441.69,-114.97 442.22,-106.76 434,-91.25 423.65,-71.73 405.21,-56.62 386.7,-45.48"/>
<polygon fill="black" stroke="black" points="388.5,-42.48 378.07,-40.61 385.06,-48.58 388.5,-42.48"/>
<text xml:space="preserve" text-anchor="middle" x="601.97" y="-105.58" font-family="Times,serif" font-size="14.00">DDG: self.capacity &#45; len(self.enrolled_students)</text>
</g>
<!-- 30064771432&#45;&gt;141733920798 -->
<g id="edge9" class="edge">
<title>30064771432&#45;&gt;141733920798</title>
<path fill="none" stroke="black" d="M479.75,-182.05C582.15,-167.57 722.45,-147.72 827.59,-132.85"/>
<polygon fill="black" stroke="black" points="828.03,-136.32 837.44,-131.46 827.05,-129.39 828.03,-136.32"/>
<text xml:space="preserve" text-anchor="middle" x="859.28" y="-151.2" font-family="Times,serif" font-size="14.00">DDG: self.capacity &#45; len(self.enrolled_students)</text>
</g>
<!-- 30064771431&#45;&gt;124554051616 -->
<g id="edge4" class="edge">
<title>30064771431&#45;&gt;124554051616</title>
<path fill="none" stroke="black" d="M568.37,-280.75C779.19,-253.86 1245.33,-183.04 1161,-91.25 1110.85,-36.66 609.12,-24.29 410.42,-21.53"/>
<polygon fill="black" stroke="black" points="410.47,-18.03 400.42,-21.4 410.38,-25.03 410.47,-18.03"/>
<text xml:space="preserve" text-anchor="middle" x="1233.77" y="-151.2" font-family="Times,serif" font-size="14.00">DDG: self.enrolled_students</text>
</g>
<!-- 30064771431&#45;&gt;30064771432 -->
<g id="edge11" class="edge">
<title>30064771431&#45;&gt;30064771432</title>
<path fill="none" stroke="black" d="M442.18,-273.35C424.06,-260.41 399.91,-243.17 380.1,-229.03"/>
<polygon fill="black" stroke="black" points="382.18,-226.21 372,-223.24 378.11,-231.9 382.18,-226.21"/>
<text xml:space="preserve" text-anchor="middle" x="505.11" y="-242.45" font-family="Times,serif" font-size="14.00">DDG: self.enrolled_students</text>
</g>
<!-- 30064771074 -->
<g id="node9" class="node">
<title>30064771074</title>
<polygon fill="none" stroke="black" points="759.12,-509.75 668.88,-509.75 668.88,-473.75 759.12,-473.75 759.12,-509.75"/>
<text xml:space="preserve" text-anchor="middle" x="714" y="-486.32" font-family="Times,serif" font-size="14.00">30064771074</text>
</g>
<!-- 30064771074&#45;&gt;68719477098 -->
<g id="edge12" class="edge">
<title>30064771074&#45;&gt;68719477098</title>
<path fill="none" stroke="black" d="M714,-473.39C714,-461.85 714,-446.23 714,-431.88"/>
<polygon fill="black" stroke="black" points="717.5,-432.25 714,-422.25 710.5,-432.25 717.5,-432.25"/>
<text xml:space="preserve" text-anchor="middle" x="741" y="-440.7" font-family="Times,serif" font-size="14.00">DDG: len</text>
</g>
</g>
</svg>
