<?xml version="1.0" encoding="UTF-8" standalone="no"?>
<!DOCTYPE svg PUBLIC "-//W3C//DTD SVG 1.1//EN"
 "http://www.w3.org/Graphics/SVG/1.1/DTD/svg11.dtd">
<!-- Generated by graphviz version 13.1.2 (20250809.0930)
 -->
<!-- Title: is_full Pages: 1 -->
<svg width="1390pt" height="520pt"
 viewBox="0.00 0.00 1390.00 520.00" xmlns="http://www.w3.org/2000/svg" xmlns:xlink="http://www.w3.org/1999/xlink">
<g id="graph0" class="graph" transform="scale(1 1) rotate(0) translate(4 515.5)">
<title>is_full</title>
<polygon fill="white" stroke="none" points="-4,4 -4,-515.5 1386.43,-515.5 1386.43,4 -4,4"/>
<!-- 107374182433 -->
<g id="node1" class="node">
<title>107374182433</title>
<polygon fill="none" stroke="black" points="595.12,-511.5 504.88,-511.5 504.88,-472 595.12,-472 595.12,-511.5"/>
<text xml:space="preserve" text-anchor="start" x="512.88" y="-494.2" font-family="Times,serif" font-size="14.00">METHOD, 347</text>
<text xml:space="preserve" text-anchor="start" x="526.38" y="-478.45" font-family="Times,serif" font-size="14.00">is_full</text>
</g>
<!-- 111669149740 -->
<g id="node3" class="node">
<title>111669149740</title>
<polygon fill="none" stroke="black" points="365.75,-412.38 282.25,-412.38 282.25,-372.88 365.75,-372.88 365.75,-412.38"/>
<text xml:space="preserve" text-anchor="start" x="290.25" y="-395.07" font-family="Times,serif" font-size="14.00">PARAM, 347</text>
<text xml:space="preserve" text-anchor="start" x="310.5" y="-379.32" font-family="Times,serif" font-size="14.00">self</text>
</g>
<!-- 107374182433&#45;&gt;111669149740 -->
<g id="edge7" class="edge">
<title>107374182433&#45;&gt;111669149740</title>
<path fill="none" stroke="black" d="M504.58,-474.11C468.7,-460.59 417.58,-440.51 374,-420.25 372.31,-419.47 370.6,-418.65 368.88,-417.82"/>
<polygon fill="black" stroke="black" points="370.86,-414.89 360.35,-413.55 367.73,-421.15 370.86,-414.89"/>
<text xml:space="preserve" text-anchor="middle" x="467.33" y="-440.7" font-family="Times,serif" font-size="14.00">DDG: </text>
</g>
<!-- 90194313333 -->
<g id="node4" class="node">
<title>90194313333</title>
<polygon fill="none" stroke="black" points="716.62,-412.38 383.38,-412.38 383.38,-372.88 716.62,-372.88 716.62,-412.38"/>
<text xml:space="preserve" text-anchor="start" x="509.5" y="-395.07" font-family="Times,serif" font-size="14.00">LITERAL, 348</text>
<text xml:space="preserve" text-anchor="start" x="391.38" y="-379.32" font-family="Times,serif" font-size="14.00">&quot;&quot;&quot;Return True if section has no open seats.&quot;&quot;&quot;</text>
</g>
<!-- 107374182433&#45;&gt;90194313333 -->
<g id="edge8" class="edge">
<title>107374182433&#45;&gt;90194313333</title>
<path fill="none" stroke="black" d="M550,-471.56C550,-457.99 550,-439.52 550,-423.97"/>
<polygon fill="black" stroke="black" points="553.5,-424.29 550,-414.29 546.5,-424.29 553.5,-424.29"/>
<text xml:space="preserve" text-anchor="middle" x="566.88" y="-440.7" font-family="Times,serif" font-size="14.00">DDG: </text>
</g>
<!-- 68719477101 -->
<g id="node7" class="node">
<title>68719477101</title>
<polygon fill="none" stroke="black" points="933.12,-420.25 734.88,-420.25 734.88,-365 933.12,-365 933.12,-420.25"/>
<text xml:space="preserve" text-anchor="start" x="783.38" y="-402.95" font-family="Times,serif" font-size="14.00">IDENTIFIER, 349</text>
<text xml:space="preserve" text-anchor="start" x="823.88" y="-387.2" font-family="Times,serif" font-size="14.00">len</text>
<text xml:space="preserve" text-anchor="start" x="742.88" y="-371.45" font-family="Times,serif" font-size="14.00">len(self.enrolled_students)</text>
</g>
<!-- 107374182433&#45;&gt;68719477101 -->
<g id="edge12" class="edge">
<title>107374182433&#45;&gt;68719477101</title>
<path fill="none" stroke="black" d="M595.31,-475.25C635.22,-461.61 694.52,-441.33 744.03,-424.39"/>
<polygon fill="black" stroke="black" points="745,-427.76 753.32,-421.22 742.73,-421.14 745,-427.76"/>
<text xml:space="preserve" text-anchor="middle" x="717.39" y="-440.7" font-family="Times,serif" font-size="14.00">DDG: </text>
</g>
<!-- 124554051617 -->
<g id="node2" class="node">
<title>124554051617</title>
<polygon fill="none" stroke="black" points="445.75,-39.5 308.25,-39.5 308.25,0 445.75,0 445.75,-39.5"/>
<text xml:space="preserve" text-anchor="start" x="316.25" y="-22.2" font-family="Times,serif" font-size="14.00">METHOD_RETURN, 347</text>
<text xml:space="preserve" text-anchor="start" x="329.75" y="-6.45" font-family="Times,serif" font-size="14.00">__builtin.bool</text>
</g>
<!-- 111669149740&#45;&gt;124554051617 -->
<g id="edge2" class="edge">
<title>111669149740&#45;&gt;124554051617</title>
<path fill="none" stroke="black" d="M281.97,-387.91C194.31,-379.01 0,-352.71 0,-294.5 0,-294.5 0,-294.5 0,-110 0,-49.59 185.64,-30.01 296.39,-23.71"/>
<polygon fill="black" stroke="black" points="296.54,-27.21 306.34,-23.17 296.17,-20.22 296.54,-27.21"/>
<text xml:space="preserve" text-anchor="middle" x="30.38" y="-196.82" font-family="Times,serif" font-size="14.00">DDG: self</text>
</g>
<!-- 30064771437 -->
<g id="node6" class="node">
<title>30064771437</title>
<polygon fill="none" stroke="black" points="533.5,-222 220.5,-222 220.5,-182.5 533.5,-182.5 533.5,-222"/>
<text xml:space="preserve" text-anchor="start" x="265.62" y="-204.7" font-family="Times,serif" font-size="14.00">&lt;operator&gt;.greaterEqualsThan, 349</text>
<text xml:space="preserve" text-anchor="start" x="228.5" y="-188.95" font-family="Times,serif" font-size="14.00">len(self.enrolled_students) &gt;= self.capacity</text>
</g>
<!-- 111669149740&#45;&gt;30064771437 -->
<g id="edge11" class="edge">
<title>111669149740&#45;&gt;30064771437</title>
<path fill="none" stroke="black" d="M322.78,-372.72C321.85,-348.98 322.25,-307.3 333.25,-273.75 338.14,-258.85 346.78,-243.86 355.1,-231.57"/>
<polygon fill="black" stroke="black" points="357.84,-233.76 360.76,-223.57 352.13,-229.72 357.84,-233.76"/>
<text xml:space="preserve" text-anchor="middle" x="363.62" y="-288.07" font-family="Times,serif" font-size="14.00">DDG: self</text>
</g>
<!-- 30064771435 -->
<g id="node8" class="node">
<title>30064771435</title>
<polygon fill="none" stroke="black" points="601.12,-313.25 402.88,-313.25 402.88,-273.75 601.12,-273.75 601.12,-313.25"/>
<text xml:space="preserve" text-anchor="start" x="475" y="-295.95" font-family="Times,serif" font-size="14.00">len, 349</text>
<text xml:space="preserve" text-anchor="start" x="410.88" y="-280.2" font-family="Times,serif" font-size="14.00">len(self.enrolled_students)</text>
</g>
<!-- 111669149740&#45;&gt;30064771435 -->
<g id="edge13" class="edge">
<title>111669149740&#45;&gt;30064771435</title>
<path fill="none" stroke="black" d="M359.17,-372.44C387.2,-357.14 426.66,-335.61 457,-319.06"/>
<polygon fill="black" stroke="black" points="458.48,-322.24 465.58,-314.37 455.12,-316.09 458.48,-322.24"/>
<text xml:space="preserve" text-anchor="middle" x="464.55" y="-333.7" font-family="Times,serif" font-size="14.00">DDG: self</text>
</g>
<!-- 141733920799 -->
<g id="node5" class="node">
<title>141733920799</title>
<polygon fill="none" stroke="black" points="1158.75,-130.75 805.25,-130.75 805.25,-91.25 1158.75,-91.25 1158.75,-130.75"/>
<text xml:space="preserve" text-anchor="start" x="944.88" y="-113.45" font-family="Times,serif" font-size="14.00">RETURN, 349</text>
<text xml:space="preserve" text-anchor="start" x="813.25" y="-97.7" font-family="Times,serif" font-size="14.00">return len(self.enrolled_students) &gt;= self.capa...</text>
</g>
<!-- 141733920799&#45;&gt;124554051617 -->
<g id="edge1" class="edge">
<title>141733920799&#45;&gt;124554051617</title>
<path fill="none" stroke="black" d="M851.84,-90.8C731.96,-73.11 557.88,-47.43 457.19,-32.58"/>
<polygon fill="black" stroke="black" points="457.78,-29.13 447.37,-31.13 456.76,-36.05 457.78,-29.13"/>
<text xml:space="preserve" text-anchor="middle" x="749.47" y="-59.95" font-family="Times,serif" font-size="14.00">DDG: &lt;RET&gt;</text>
</g>
<!-- 30064771437&#45;&gt;124554051617 -->
<g id="edge4" class="edge">
<title>30064771437&#45;&gt;124554051617</title>
<path fill="none" stroke="black" d="M220.08,-194.31C115.87,-183.68 7.15,-157.14 60,-91.25 89.13,-54.93 212.61,-36.13 296.58,-27.36"/>
<polygon fill="black" stroke="black" points="296.8,-30.86 306.39,-26.37 296.09,-23.89 296.8,-30.86"/>
<text xml:space="preserve" text-anchor="middle" x="168" y="-105.58" font-family="Times,serif" font-size="14.00">DDG: len(self.enrolled_students)</text>
</g>
<!-- 30064771437&#45;&gt;124554051617 -->
<g id="edge5" class="edge">
<title>30064771437&#45;&gt;124554051617</title>
<path fill="none" stroke="black" d="M351.84,-182.02C337.33,-169.27 320.43,-151.16 312.5,-130.75 306.14,-114.39 306.14,-107.61 312.5,-91.25 318.94,-74.67 331.31,-59.6 343.5,-47.7"/>
<polygon fill="black" stroke="black" points="345.77,-50.37 350.73,-41.01 341.01,-45.23 345.77,-50.37"/>
<text xml:space="preserve" text-anchor="middle" x="373.25" y="-105.58" font-family="Times,serif" font-size="14.00">DDG: self.capacity</text>
</g>
<!-- 30064771437&#45;&gt;124554051617 -->
<g id="edge6" class="edge">
<title>30064771437&#45;&gt;124554051617</title>
<path fill="none" stroke="black" d="M398.71,-182.02C411.68,-169.02 426.97,-150.63 434,-130.75 439.85,-114.2 439.85,-107.8 434,-91.25 428.34,-75.25 417.34,-60.22 406.49,-48.18"/>
<polygon fill="black" stroke="black" points="409.17,-45.92 399.75,-41.07 404.09,-50.74 409.17,-45.92"/>
<text xml:space="preserve" text-anchor="middle" x="603.77" y="-105.58" font-family="Times,serif" font-size="14.00">DDG: len(self.enrolled_students) &gt;= self.capacity</text>
</g>
<!-- 30064771437&#45;&gt;141733920799 -->
<g id="edge9" class="edge">
<title>30064771437&#45;&gt;141733920799</title>
<path fill="none" stroke="black" d="M507.16,-182.05C605.24,-167.58 739.59,-147.76 840.36,-132.9"/>
<polygon fill="black" stroke="black" points="840.66,-136.39 850.05,-131.47 839.64,-129.46 840.66,-136.39"/>
<text xml:space="preserve" text-anchor="middle" x="881.1" y="-151.2" font-family="Times,serif" font-size="14.00">DDG: len(self.enrolled_students) &gt;= self.capacity</text>
</g>
<!-- 30064771435&#45;&gt;124554051617 -->
<g id="edge3" class="edge">
<title>30064771435&#45;&gt;124554051617</title>
<path fill="none" stroke="black" d="M601.62,-293.44C824.71,-292.42 1332.39,-270.94 1168,-91.25 1120.69,-39.54 649.46,-25.5 457.62,-21.91"/>
<polygon fill="black" stroke="black" points="457.79,-18.41 447.73,-21.73 457.67,-25.41 457.79,-18.41"/>
<text xml:space="preserve" text-anchor="middle" x="1291.31" y="-151.2" font-family="Times,serif" font-size="14.00">DDG: self.enrolled_students</text>
</g>
<!-- 30064771435&#45;&gt;30064771437 -->
<g id="edge10" class="edge">
<title>30064771435&#45;&gt;30064771437</title>
<path fill="none" stroke="black" d="M475.18,-273.35C457.06,-260.41 432.91,-243.17 413.1,-229.03"/>
<polygon fill="black" stroke="black" points="415.18,-226.21 405,-223.24 411.11,-231.9 415.18,-226.21"/>
<text xml:space="preserve" text-anchor="middle" x="538.11" y="-242.45" font-family="Times,serif" font-size="14.00">DDG: self.enrolled_students</text>
</g>
</g>
</svg>
