<?xml version="1.0" encoding="UTF-8" standalone="no"?>
<!DOCTYPE svg PUBLIC "-//W3C//DTD SVG 1.1//EN"
 "http://www.w3.org/Graphics/SVG/1.1/DTD/svg11.dtd">
<!-- Generated by graphviz version 13.1.2 (20250809.0930)
 -->
<!-- Title: from_dict Pages: 1 -->
<svg width="5288pt" height="793pt"
 viewBox="0.00 0.00 5288.00 793.00" xmlns="http://www.w3.org/2000/svg" xmlns:xlink="http://www.w3.org/1999/xlink">
<g id="graph0" class="graph" transform="scale(1 1) rotate(0) translate(4 789.25)">
<title>from_dict</title>
<polygon fill="white" stroke="none" points="-4,4 -4,-789.25 5283.5,-789.25 5283.5,4 -4,4"/>
<!-- 107374182435 -->
<g id="node1" class="node">
<title>107374182435</title>
<polygon fill="none" stroke="black" points="885.12,-785.25 794.88,-785.25 794.88,-745.75 885.12,-745.75 885.12,-785.25"/>
<text xml:space="preserve" text-anchor="start" x="802.88" y="-767.95" font-family="Times,serif" font-size="14.00">METHOD, 365</text>
<text xml:space="preserve" text-anchor="start" x="809.62" y="-752.2" font-family="Times,serif" font-size="14.00">from_dict</text>
</g>
<!-- 111669149742 -->
<g id="node3" class="node">
<title>111669149742</title>
<polygon fill="none" stroke="black" points="951.75,-686.12 868.25,-686.12 868.25,-646.62 951.75,-646.62 951.75,-686.12"/>
<text xml:space="preserve" text-anchor="start" x="876.25" y="-668.83" font-family="Times,serif" font-size="14.00">PARAM, 365</text>
<text xml:space="preserve" text-anchor="start" x="896.5" y="-653.08" font-family="Times,serif" font-size="14.00">data</text>
</g>
<!-- 107374182435&#45;&gt;111669149742 -->
<g id="edge17" class="edge">
<title>107374182435&#45;&gt;111669149742</title>
<path fill="none" stroke="black" d="M853.83,-745.31C864.09,-731.08 878.23,-711.45 889.76,-695.45"/>
<polygon fill="black" stroke="black" points="892.31,-697.91 895.31,-687.75 886.63,-693.82 892.31,-697.91"/>
<text xml:space="preserve" text-anchor="middle" x="893.97" y="-714.45" font-family="Times,serif" font-size="14.00">DDG: </text>
</g>
<!-- 68719477143 -->
<g id="node6" class="node">
<title>68719477143</title>
<polygon fill="none" stroke="black" points="1890.75,-694 1537.25,-694 1537.25,-638.75 1890.75,-638.75 1890.75,-694"/>
<text xml:space="preserve" text-anchor="start" x="1663.38" y="-676.7" font-family="Times,serif" font-size="14.00">IDENTIFIER, 366</text>
<text xml:space="preserve" text-anchor="start" x="1690.38" y="-660.95" font-family="Times,serif" font-size="14.00">Section</text>
<text xml:space="preserve" text-anchor="start" x="1545.25" y="-645.2" font-family="Times,serif" font-size="14.00">Section(section_id = data[&quot;section_id&quot;], course...</text>
</g>
<!-- 107374182435&#45;&gt;68719477143 -->
<g id="edge21" class="edge">
<title>107374182435&#45;&gt;68719477143</title>
<path fill="none" stroke="black" d="M885.62,-760.48C994.49,-750.76 1278.27,-724.59 1525.42,-694.42"/>
<polygon fill="black" stroke="black" points="1525.78,-697.91 1535.28,-693.22 1524.93,-690.96 1525.78,-697.91"/>
<text xml:space="preserve" text-anchor="middle" x="1376.01" y="-714.45" font-family="Times,serif" font-size="14.00">DDG: </text>
</g>
<!-- 68719477134 -->
<g id="node7" class="node">
<title>68719477134</title>
<polygon fill="none" stroke="black" points="1222.12,-694 969.88,-694 969.88,-638.75 1222.12,-638.75 1222.12,-694"/>
<text xml:space="preserve" text-anchor="start" x="1045.38" y="-676.7" font-family="Times,serif" font-size="14.00">IDENTIFIER, 371</text>
<text xml:space="preserve" text-anchor="start" x="1082.5" y="-660.95" font-family="Times,serif" font-size="14.00">list</text>
<text xml:space="preserve" text-anchor="start" x="977.88" y="-645.2" font-family="Times,serif" font-size="14.00">list(data.get(&quot;meeting_times&quot;, []))</text>
</g>
<!-- 107374182435&#45;&gt;68719477134 -->
<g id="edge26" class="edge">
<title>107374182435&#45;&gt;68719477134</title>
<path fill="none" stroke="black" d="M885.47,-747.25C921.1,-733.73 971.61,-714.57 1014.22,-698.4"/>
<polygon fill="black" stroke="black" points="1015.34,-701.72 1023.45,-694.9 1012.86,-695.17 1015.34,-701.72"/>
<text xml:space="preserve" text-anchor="middle" x="992.55" y="-714.45" font-family="Times,serif" font-size="14.00">DDG: </text>
</g>
<!-- 68719477139 -->
<g id="node9" class="node">
<title>68719477139</title>
<polygon fill="none" stroke="black" points="1519.62,-694 1240.38,-694 1240.38,-638.75 1519.62,-638.75 1519.62,-694"/>
<text xml:space="preserve" text-anchor="start" x="1329.38" y="-676.7" font-family="Times,serif" font-size="14.00">IDENTIFIER, 374</text>
<text xml:space="preserve" text-anchor="start" x="1366.5" y="-660.95" font-family="Times,serif" font-size="14.00">list</text>
<text xml:space="preserve" text-anchor="start" x="1248.38" y="-645.2" font-family="Times,serif" font-size="14.00">list(data.get(&quot;enrolled_students&quot;, []))</text>
</g>
<!-- 107374182435&#45;&gt;68719477139 -->
<g id="edge30" class="edge">
<title>107374182435&#45;&gt;68719477139</title>
<path fill="none" stroke="black" d="M885.57,-756.3C960.52,-742.82 1113.03,-715.39 1228.96,-694.54"/>
<polygon fill="black" stroke="black" points="1229.35,-698.03 1238.57,-692.81 1228.11,-691.14 1229.35,-698.03"/>
<text xml:space="preserve" text-anchor="middle" x="1143.07" y="-714.45" font-family="Times,serif" font-size="14.00">DDG: </text>
</g>
<!-- 68719477142 -->
<g id="node11" class="node">
<title>68719477142</title>
<polygon fill="none" stroke="black" points="582.25,-694 363.75,-694 363.75,-638.75 582.25,-638.75 582.25,-694"/>
<text xml:space="preserve" text-anchor="start" x="422.38" y="-676.7" font-family="Times,serif" font-size="14.00">IDENTIFIER, 375</text>
<text xml:space="preserve" text-anchor="start" x="459.5" y="-660.95" font-family="Times,serif" font-size="14.00">list</text>
<text xml:space="preserve" text-anchor="start" x="371.75" y="-645.2" font-family="Times,serif" font-size="14.00">list(data.get(&quot;waitlist&quot;, []))</text>
</g>
<!-- 107374182435&#45;&gt;68719477142 -->
<g id="edge34" class="edge">
<title>107374182435&#45;&gt;68719477142</title>
<path fill="none" stroke="black" d="M794.68,-764.82C738.38,-763.81 640.23,-757.38 562.25,-727.75 545.32,-721.32 528.44,-711.12 513.98,-700.92"/>
<polygon fill="black" stroke="black" points="516.22,-698.22 506.08,-695.15 512.09,-703.87 516.22,-698.22"/>
<text xml:space="preserve" text-anchor="middle" x="579.12" y="-714.45" font-family="Times,serif" font-size="14.00">DDG: </text>
</g>
<!-- 30064771478 -->
<g id="node13" class="node">
<title>30064771478</title>
<polygon fill="none" stroke="black" points="1015.88,-587 804.12,-587 804.12,-547.5 1015.88,-547.5 1015.88,-587"/>
<text xml:space="preserve" text-anchor="start" x="883" y="-569.7" font-family="Times,serif" font-size="14.00">get, 371</text>
<text xml:space="preserve" text-anchor="start" x="812.12" y="-553.95" font-family="Times,serif" font-size="14.00">data.get(&quot;meeting_times&quot;, [])</text>
</g>
<!-- 107374182435&#45;&gt;30064771478 -->
<g id="edge39" class="edge">
<title>107374182435&#45;&gt;30064771478</title>
<path fill="none" stroke="black" d="M831.77,-745.6C821.96,-720.08 808.83,-673.78 825.25,-638.75 833.81,-620.5 849.67,-605.33 865.38,-593.8"/>
<polygon fill="black" stroke="black" points="867.09,-596.87 873.31,-588.3 863.1,-591.12 867.09,-596.87"/>
<text xml:space="preserve" text-anchor="middle" x="842.12" y="-660.95" font-family="Times,serif" font-size="14.00">DDG: </text>
</g>
<!-- 30064771484 -->
<g id="node14" class="node">
<title>30064771484</title>
<polygon fill="none" stroke="black" points="903.38,-495.75 664.62,-495.75 664.62,-456.25 903.38,-456.25 903.38,-495.75"/>
<text xml:space="preserve" text-anchor="start" x="757" y="-478.45" font-family="Times,serif" font-size="14.00">get, 374</text>
<text xml:space="preserve" text-anchor="start" x="672.62" y="-462.7" font-family="Times,serif" font-size="14.00">data.get(&quot;enrolled_students&quot;, [])</text>
</g>
<!-- 107374182435&#45;&gt;30064771484 -->
<g id="edge41" class="edge">
<title>107374182435&#45;&gt;30064771484</title>
<path fill="none" stroke="black" d="M826.73,-745.33C823.45,-739.86 820.23,-733.74 818,-727.75 789.87,-652.19 784.6,-556.1 783.87,-507.75"/>
<polygon fill="black" stroke="black" points="787.37,-507.73 783.78,-497.76 780.37,-507.79 787.37,-507.73"/>
<text xml:space="preserve" text-anchor="middle" x="809.09" y="-607.45" font-family="Times,serif" font-size="14.00">DDG: </text>
</g>
<!-- 30064771488 -->
<g id="node15" class="node">
<title>30064771488</title>
<polygon fill="none" stroke="black" points="390,-404.5 212,-404.5 212,-365 390,-365 390,-404.5"/>
<text xml:space="preserve" text-anchor="start" x="274" y="-387.2" font-family="Times,serif" font-size="14.00">get, 375</text>
<text xml:space="preserve" text-anchor="start" x="220" y="-371.45" font-family="Times,serif" font-size="14.00">data.get(&quot;waitlist&quot;, [])</text>
</g>
<!-- 107374182435&#45;&gt;30064771488 -->
<g id="edge43" class="edge">
<title>107374182435&#45;&gt;30064771488</title>
<path fill="none" stroke="black" d="M794.56,-764.66C727.53,-762.24 610,-746.7 610,-667.38 610,-667.38 610,-667.38 610,-475 610,-430.82 491.95,-407.16 401.78,-395.53"/>
<polygon fill="black" stroke="black" points="402.23,-392.06 391.88,-394.29 401.37,-399 402.23,-392.06"/>
<text xml:space="preserve" text-anchor="middle" x="626.88" y="-561.83" font-family="Times,serif" font-size="14.00">DDG: </text>
</g>
<!-- 124554051619 -->
<g id="node2" class="node">
<title>124554051619</title>
<polygon fill="none" stroke="black" points="3448.62,-39.5 3169.38,-39.5 3169.38,0 3448.62,0 3448.62,-39.5"/>
<text xml:space="preserve" text-anchor="start" x="3248.25" y="-22.2" font-family="Times,serif" font-size="14.00">METHOD_RETURN, 365</text>
<text xml:space="preserve" text-anchor="start" x="3177.38" y="-6.45" font-family="Times,serif" font-size="14.00">AI_generated_code_1.py:&lt;module&gt;.Section</text>
</g>
<!-- 111669149742&#45;&gt;30064771478 -->
<g id="edge38" class="edge">
<title>111669149742&#45;&gt;30064771478</title>
<path fill="none" stroke="black" d="M910,-646.19C910,-632.62 910,-614.15 910,-598.59"/>
<polygon fill="black" stroke="black" points="913.5,-598.91 910,-588.91 906.5,-598.91 913.5,-598.91"/>
<text xml:space="preserve" text-anchor="middle" x="940.38" y="-607.45" font-family="Times,serif" font-size="14.00">DDG: data</text>
</g>
<!-- 141733920801 -->
<g id="node4" class="node">
<title>141733920801</title>
<polygon fill="none" stroke="black" points="2983.25,-130.75 2710.75,-130.75 2710.75,-91.25 2983.25,-91.25 2983.25,-130.75"/>
<text xml:space="preserve" text-anchor="start" x="2809.88" y="-113.45" font-family="Times,serif" font-size="14.00">RETURN, 366</text>
<text xml:space="preserve" text-anchor="start" x="2718.75" y="-97.7" font-family="Times,serif" font-size="14.00">return Section( section_id=data[&quot;se...</text>
</g>
<!-- 141733920801&#45;&gt;124554051619 -->
<g id="edge1" class="edge">
<title>141733920801&#45;&gt;124554051619</title>
<path fill="none" stroke="black" d="M2872.9,-90.95C2890.27,-79.22 2914.16,-65.03 2937.5,-57.5 2977.79,-44.5 3073.7,-35.2 3157.97,-29.2"/>
<polygon fill="black" stroke="black" points="3158,-32.71 3167.73,-28.52 3157.51,-25.73 3158,-32.71"/>
<text xml:space="preserve" text-anchor="middle" x="2971.25" y="-59.95" font-family="Times,serif" font-size="14.00">DDG: &lt;RET&gt;</text>
</g>
<!-- 30064771490 -->
<g id="node5" class="node">
<title>30064771490</title>
<polygon fill="none" stroke="black" points="3386.75,-222 3033.25,-222 3033.25,-182.5 3386.75,-182.5 3386.75,-222"/>
<text xml:space="preserve" text-anchor="start" x="3169.5" y="-204.7" font-family="Times,serif" font-size="14.00">Section, 366</text>
<text xml:space="preserve" text-anchor="start" x="3041.25" y="-188.95" font-family="Times,serif" font-size="14.00">Section(section_id = data[&quot;section_id&quot;], course...</text>
</g>
<!-- 30064771490&#45;&gt;124554051619 -->
<g id="edge2" class="edge">
<title>30064771490&#45;&gt;124554051619</title>
<path fill="none" stroke="black" d="M3125.94,-182.09C3065.34,-164.24 2999.59,-133.94 3032.75,-91.25 3049.58,-69.58 3103.64,-53.46 3159.53,-42.14"/>
<polygon fill="black" stroke="black" points="3160.1,-45.6 3169.23,-40.24 3158.75,-38.73 3160.1,-45.6"/>
<text xml:space="preserve" text-anchor="middle" x="3110.38" y="-105.58" font-family="Times,serif" font-size="14.00">DDG: data[&quot;section_id&quot;]</text>
</g>
<!-- 30064771490&#45;&gt;124554051619 -->
<g id="edge3" class="edge">
<title>30064771490&#45;&gt;124554051619</title>
<path fill="none" stroke="black" d="M3208.34,-182.06C3207.24,-159.03 3208.24,-119.93 3224,-91.25 3233.88,-73.27 3250.35,-58.01 3266.18,-46.33"/>
<polygon fill="black" stroke="black" points="3267.96,-49.35 3274.13,-40.74 3263.93,-43.63 3267.96,-49.35"/>
<text xml:space="preserve" text-anchor="middle" x="3305" y="-105.58" font-family="Times,serif" font-size="14.00">DDG: data[&quot;course_code&quot;]</text>
</g>
<!-- 30064771490&#45;&gt;124554051619 -->
<g id="edge4" class="edge">
<title>30064771490&#45;&gt;124554051619</title>
<path fill="none" stroke="black" d="M3314.17,-182.06C3342.12,-171.64 3369.21,-155.56 3386,-130.75 3405.63,-101.74 3375.7,-68.9 3347.62,-46.71"/>
<polygon fill="black" stroke="black" points="3349.92,-44.06 3339.84,-40.81 3345.69,-49.64 3349.92,-44.06"/>
<text xml:space="preserve" text-anchor="middle" x="3463.18" y="-105.58" font-family="Times,serif" font-size="14.00">DDG: data[&quot;semester&quot;]</text>
</g>
<!-- 30064771490&#45;&gt;124554051619 -->
<g id="edge5" class="edge">
<title>30064771490&#45;&gt;124554051619</title>
<path fill="none" stroke="black" d="M3386.93,-183.22C3453.32,-172.49 3517.69,-155.9 3538,-130.75 3573.64,-86.63 3515.7,-59.08 3449.19,-42.59"/>
<polygon fill="black" stroke="black" points="3450.03,-39.19 3439.49,-40.28 3448.41,-46 3450.03,-39.19"/>
<text xml:space="preserve" text-anchor="middle" x="3636.59" y="-105.58" font-family="Times,serif" font-size="14.00">DDG: data[&quot;instructor_id&quot;]</text>
</g>
<!-- 30064771490&#45;&gt;124554051619 -->
<g id="edge7" class="edge">
<title>30064771490&#45;&gt;124554051619</title>
<path fill="none" stroke="black" d="M3386.93,-188.66C3528,-176.76 3705.58,-156.84 3728,-130.75 3739.44,-117.44 3739.34,-104.65 3728,-91.25 3693.79,-50.8 3566.05,-33.55 3460.52,-26.19"/>
<polygon fill="black" stroke="black" points="3460.8,-22.71 3450.59,-25.53 3460.33,-29.69 3460.8,-22.71"/>
<text xml:space="preserve" text-anchor="middle" x="3871.54" y="-105.58" font-family="Times,serif" font-size="14.00">DDG: list(data.get(&quot;meeting_times&quot;, []))</text>
</g>
<!-- 30064771490&#45;&gt;124554051619 -->
<g id="edge8" class="edge">
<title>30064771490&#45;&gt;124554051619</title>
<path fill="none" stroke="black" d="M3387.01,-198.13C3610.18,-192.32 3969.89,-175.98 4011,-130.75 4022.81,-117.76 4022.73,-104.31 4011,-91.25 3974.92,-51.08 3655.51,-32.8 3460.18,-25.31"/>
<polygon fill="black" stroke="black" points="3460.59,-21.82 3450.46,-24.94 3460.32,-28.82 3460.59,-21.82"/>
<text xml:space="preserve" text-anchor="middle" x="4090.7" y="-105.58" font-family="Times,serif" font-size="14.00">DDG: data[&quot;capacity&quot;]</text>
</g>
<!-- 30064771490&#45;&gt;124554051619 -->
<g id="edge9" class="edge">
<title>30064771490&#45;&gt;124554051619</title>
<path fill="none" stroke="black" d="M3387.08,-201.44C3649.6,-199.79 4116.57,-188.63 4166,-130.75 4283.48,6.81 4298.48,-94.62 3944,-57.5 3779.16,-40.24 3589.32,-30.58 3460.47,-25.55"/>
<polygon fill="black" stroke="black" points="3460.61,-22.05 3450.49,-25.17 3460.35,-29.05 3460.61,-22.05"/>
<text xml:space="preserve" text-anchor="middle" x="4268.5" y="-105.58" font-family="Times,serif" font-size="14.00">DDG: data[&quot;credits&quot;]</text>
</g>
<!-- 30064771490&#45;&gt;124554051619 -->
<g id="edge11" class="edge">
<title>30064771490&#45;&gt;124554051619</title>
<path fill="none" stroke="black" d="M3387.06,-199.68C3569.59,-196.73 3862.24,-188.35 4114,-164.5 4215.11,-154.92 4273.7,-207.68 4340,-130.75 4463.49,12.56 4515.78,-96.41 4106,-57.5 3881.79,-36.21 3620.87,-27.14 3460.33,-23.36"/>
<polygon fill="black" stroke="black" points="3460.53,-19.86 3450.46,-23.13 3460.37,-26.86 3460.53,-19.86"/>
<text xml:space="preserve" text-anchor="middle" x="4526.49" y="-105.58" font-family="Times,serif" font-size="14.00">DDG: list(data.get(&quot;enrolled_students&quot;, []))</text>
</g>
<!-- 30064771490&#45;&gt;124554051619 -->
<g id="edge15" class="edge">
<title>30064771490&#45;&gt;124554051619</title>
<path fill="none" stroke="black" d="M3387.11,-199.28C3768.3,-194.16 4635.71,-177.42 4679,-130.75 4780.07,-21.78 5031.56,-103.48 4278,-57.5 3989.2,-39.88 3651.44,-29.35 3460.62,-24.34"/>
<polygon fill="black" stroke="black" points="3460.71,-20.84 3450.62,-24.08 3460.53,-27.84 3460.71,-20.84"/>
<text xml:space="preserve" text-anchor="middle" x="4850.86" y="-105.58" font-family="Times,serif" font-size="14.00">DDG: list(data.get(&quot;waitlist&quot;, []))</text>
</g>
<!-- 30064771490&#45;&gt;124554051619 -->
<g id="edge16" class="edge">
<title>30064771490&#45;&gt;124554051619</title>
<path fill="none" stroke="black" d="M3033.12,-201.1C2521.14,-200.3 1043.67,-195.31 561,-164.5 552.75,-163.97 270.76,-136.92 265.25,-130.75 253.56,-117.65 252.98,-103.81 265.25,-91.25 316.29,-39.01 2549.34,-24.42 3157.46,-21.41"/>
<polygon fill="black" stroke="black" points="3157.42,-24.91 3167.4,-21.36 3157.38,-17.91 3157.42,-24.91"/>
<text xml:space="preserve" text-anchor="middle" x="1483.62" y="-105.58" font-family="Times,serif" font-size="14.00">DDG: Section(section_id = data[&quot;section_id&quot;], course_code = data[&quot;course_code&quot;], semester = data[&quot;semester&quot;], instructor_id = data[&quot;instructor_id&quot;], meeting_times = list(data.get(&quot;meeting_times&quot;, [])), capacity = data[&quot;capacity&quot;], credits = data[&quot;credits&quot;], enrolled_students = list(data.get(&quot;enrolled_students&quot;, [])), waitlist = list(data.get(&quot;waitlist&quot;, [])))</text>
</g>
<!-- 30064771490&#45;&gt;141733920801 -->
<g id="edge18" class="edge">
<title>30064771490&#45;&gt;141733920801</title>
<path fill="none" stroke="black" d="M3032.91,-200.43C2444.42,-197.48 589.92,-186.48 568.25,-164.5 563.33,-159.52 563.32,-153.72 568.25,-148.75 589.07,-127.75 2667.5,-132.71 2697,-130.75 2697.7,-130.7 2698.39,-130.66 2699.09,-130.61"/>
<polygon fill="black" stroke="black" points="2699.32,-134.1 2709.03,-129.85 2698.79,-127.12 2699.32,-134.1"/>
<text xml:space="preserve" text-anchor="middle" x="1786.62" y="-151.2" font-family="Times,serif" font-size="14.00">DDG: Section(section_id = data[&quot;section_id&quot;], course_code = data[&quot;course_code&quot;], semester = data[&quot;semester&quot;], instructor_id = data[&quot;instructor_id&quot;], meeting_times = list(data.get(&quot;meeting_times&quot;, [])), capacity = data[&quot;capacity&quot;], credits = data[&quot;credits&quot;], enrolled_students = list(data.get(&quot;enrolled_students&quot;, [])), waitlist = list(data.get(&quot;waitlist&quot;, [])))</text>
</g>
<!-- 30064771479 -->
<g id="node8" class="node">
<title>30064771479</title>
<polygon fill="none" stroke="black" points="1190.12,-495.75 937.88,-495.75 937.88,-456.25 1190.12,-456.25 1190.12,-495.75"/>
<text xml:space="preserve" text-anchor="start" x="1033.62" y="-478.45" font-family="Times,serif" font-size="14.00">list, 371</text>
<text xml:space="preserve" text-anchor="start" x="945.88" y="-462.7" font-family="Times,serif" font-size="14.00">list(data.get(&quot;meeting_times&quot;, []))</text>
</g>
<!-- 30064771479&#45;&gt;124554051619 -->
<g id="edge6" class="edge">
<title>30064771479&#45;&gt;124554051619</title>
<path fill="none" stroke="black" d="M1190.43,-473.86C1869.16,-467.53 5050,-435.22 5050,-385.75 5050,-385.75 5050,-385.75 5050,-110 5050,-30.73 3883.72,-21.43 3460.29,-20.67"/>
<polygon fill="black" stroke="black" points="3460.42,-17.17 3450.41,-20.65 3460.4,-24.17 3460.42,-17.17"/>
<text xml:space="preserve" text-anchor="middle" x="5164.75" y="-242.45" font-family="Times,serif" font-size="14.00">DDG: data.get(&quot;meeting_times&quot;, [])</text>
</g>
<!-- 30064771479&#45;&gt;30064771490 -->
<g id="edge23" class="edge">
<title>30064771479&#45;&gt;30064771490</title>
<path fill="none" stroke="black" d="M1190.31,-460.12C1426.3,-432.22 1950.16,-369.72 2391,-313.25 2624.7,-283.31 2895.6,-246.52 3059.8,-223.98"/>
<polygon fill="black" stroke="black" points="3060.02,-227.49 3069.45,-222.66 3059.07,-220.55 3060.02,-227.49"/>
<text xml:space="preserve" text-anchor="middle" x="2353.5" y="-333.7" font-family="Times,serif" font-size="14.00">DDG: data.get(&quot;meeting_times&quot;, [])</text>
</g>
<!-- 30064771485 -->
<g id="node10" class="node">
<title>30064771485</title>
<polygon fill="none" stroke="black" points="950.62,-404.5 671.38,-404.5 671.38,-365 950.62,-365 950.62,-404.5"/>
<text xml:space="preserve" text-anchor="start" x="780.62" y="-387.2" font-family="Times,serif" font-size="14.00">list, 374</text>
<text xml:space="preserve" text-anchor="start" x="679.38" y="-371.45" font-family="Times,serif" font-size="14.00">list(data.get(&quot;enrolled_students&quot;, []))</text>
</g>
<!-- 30064771485&#45;&gt;124554051619 -->
<g id="edge10" class="edge">
<title>30064771485&#45;&gt;124554051619</title>
<path fill="none" stroke="black" d="M775.77,-364.61C674.88,-309.83 390.68,-155.95 369,-148.75 344.03,-140.46 269.13,-150.72 252,-130.75 240.57,-117.43 241.27,-105.15 252,-91.25 288.22,-44.34 322.27,-65.43 381,-57.5 656.35,-20.32 2596.77,-19.84 3157.56,-20.49"/>
<polygon fill="black" stroke="black" points="3157.43,-23.99 3167.43,-20.51 3157.44,-16.99 3157.43,-23.99"/>
<text xml:space="preserve" text-anchor="middle" x="638.82" y="-196.82" font-family="Times,serif" font-size="14.00">DDG: data.get(&quot;enrolled_students&quot;, [])</text>
</g>
<!-- 30064771485&#45;&gt;30064771490 -->
<g id="edge24" class="edge">
<title>30064771485&#45;&gt;30064771490</title>
<path fill="none" stroke="black" d="M950.9,-371.45C1251.27,-345.25 1980.26,-282.87 2592,-240 2736,-229.91 2899.01,-220.29 3021.44,-213.43"/>
<polygon fill="black" stroke="black" points="3021.49,-216.93 3031.28,-212.88 3021.1,-209.94 3021.49,-216.93"/>
<text xml:space="preserve" text-anchor="middle" x="2258.29" y="-288.07" font-family="Times,serif" font-size="14.00">DDG: data.get(&quot;enrolled_students&quot;, [])</text>
</g>
<!-- 30064771489 -->
<g id="node12" class="node">
<title>30064771489</title>
<polygon fill="none" stroke="black" points="343.25,-313.25 124.75,-313.25 124.75,-273.75 343.25,-273.75 343.25,-313.25"/>
<text xml:space="preserve" text-anchor="start" x="203.62" y="-295.95" font-family="Times,serif" font-size="14.00">list, 375</text>
<text xml:space="preserve" text-anchor="start" x="132.75" y="-280.2" font-family="Times,serif" font-size="14.00">list(data.get(&quot;waitlist&quot;, []))</text>
</g>
<!-- 30064771489&#45;&gt;124554051619 -->
<g id="edge14" class="edge">
<title>30064771489&#45;&gt;124554051619</title>
<path fill="none" stroke="black" d="M221.54,-273.49C192.96,-227.39 130.03,-109.67 196,-57.5 225.37,-34.28 2537.94,-23.72 3157.65,-21.3"/>
<polygon fill="black" stroke="black" points="3157.38,-24.8 3167.36,-21.26 3157.35,-17.8 3157.38,-24.8"/>
<text xml:space="preserve" text-anchor="middle" x="270.15" y="-151.2" font-family="Times,serif" font-size="14.00">DDG: data.get(&quot;waitlist&quot;, [])</text>
</g>
<!-- 30064771489&#45;&gt;30064771490 -->
<g id="edge25" class="edge">
<title>30064771489&#45;&gt;30064771490</title>
<path fill="none" stroke="black" d="M226.66,-273.26C223.76,-262.05 222.85,-248.51 231.25,-240 255.85,-215.1 2370.6,-206.03 3021.5,-203.82"/>
<polygon fill="black" stroke="black" points="3021.35,-207.33 3031.34,-203.79 3021.33,-200.33 3021.35,-207.33"/>
<text xml:space="preserve" text-anchor="middle" x="329.12" y="-242.45" font-family="Times,serif" font-size="14.00">DDG: data.get(&quot;waitlist&quot;, [])</text>
</g>
<!-- 30064771478&#45;&gt;30064771479 -->
<g id="edge27" class="edge">
<title>30064771478&#45;&gt;30064771479</title>
<path fill="none" stroke="black" d="M934.9,-547.01C951.51,-534.35 971.95,-519.15 981.25,-513.75 989.08,-509.2 997.57,-504.84 1006.03,-500.81"/>
<polygon fill="black" stroke="black" points="1007.31,-504.08 1014.92,-496.71 1004.37,-497.72 1007.31,-504.08"/>
<text xml:space="preserve" text-anchor="middle" x="1011.62" y="-516.2" font-family="Times,serif" font-size="14.00">DDG: data</text>
</g>
<!-- 30064771478&#45;&gt;30064771479 -->
<g id="edge28" class="edge">
<title>30064771478&#45;&gt;30064771479</title>
<path fill="none" stroke="black" d="M1014.51,-547.09C1024.48,-542.43 1033.88,-536.66 1042,-529.5 1048.75,-523.55 1053.48,-515.18 1056.78,-506.88"/>
<polygon fill="black" stroke="black" points="1060.02,-508.23 1059.85,-497.64 1053.37,-506.02 1060.02,-508.23"/>
<text xml:space="preserve" text-anchor="middle" x="1120.58" y="-516.2" font-family="Times,serif" font-size="14.00">DDG: &quot;meeting_times&quot;</text>
</g>
<!-- 30064771478&#45;&gt;30064771479 -->
<g id="edge29" class="edge">
<title>30064771478&#45;&gt;30064771479</title>
<path fill="none" stroke="black" d="M902.99,-547.12C900.31,-536.24 899.43,-522.98 906.75,-513.75 910.98,-508.42 919.24,-503.8 929.87,-499.79"/>
<polygon fill="black" stroke="black" points="930.93,-503.13 939.29,-496.63 928.7,-496.5 930.93,-503.13"/>
<text xml:space="preserve" text-anchor="middle" x="930.38" y="-516.2" font-family="Times,serif" font-size="14.00">DDG: []</text>
</g>
<!-- 30064771478&#45;&gt;30064771484 -->
<g id="edge40" class="edge">
<title>30064771478&#45;&gt;30064771484</title>
<path fill="none" stroke="black" d="M857.17,-547.2C846.75,-542.25 836.26,-536.35 827.25,-529.5 818.34,-522.73 810.11,-513.78 803.26,-505.19"/>
<polygon fill="black" stroke="black" points="806.15,-503.21 797.33,-497.34 800.57,-507.43 806.15,-503.21"/>
<text xml:space="preserve" text-anchor="middle" x="857.62" y="-516.2" font-family="Times,serif" font-size="14.00">DDG: data</text>
</g>
<!-- 30064771484&#45;&gt;30064771485 -->
<g id="edge31" class="edge">
<title>30064771484&#45;&gt;30064771485</title>
<path fill="none" stroke="black" d="M743.58,-455.95C729.96,-446.8 720.06,-435.1 728.25,-422.5 730.85,-418.5 734,-414.93 737.53,-411.74"/>
<polygon fill="black" stroke="black" points="739.35,-414.76 745.18,-405.91 735.11,-409.19 739.35,-414.76"/>
<text xml:space="preserve" text-anchor="middle" x="758.62" y="-424.95" font-family="Times,serif" font-size="14.00">DDG: data</text>
</g>
<!-- 30064771484&#45;&gt;30064771485 -->
<g id="edge32" class="edge">
<title>30064771484&#45;&gt;30064771485</title>
<path fill="none" stroke="black" d="M789.73,-456.07C793.28,-444.32 797.93,-428.96 801.97,-415.59"/>
<polygon fill="black" stroke="black" points="805.21,-416.99 804.75,-406.41 798.51,-414.96 805.21,-416.99"/>
<text xml:space="preserve" text-anchor="middle" x="880.12" y="-424.95" font-family="Times,serif" font-size="14.00">DDG: &quot;enrolled_students&quot;</text>
</g>
<!-- 30064771484&#45;&gt;30064771485 -->
<g id="edge33" class="edge">
<title>30064771484&#45;&gt;30064771485</title>
<path fill="none" stroke="black" d="M903.49,-456.58C934.29,-450.66 960.21,-444.12 965,-438.25 976.11,-424.66 972.75,-414.57 961.29,-407.09"/>
<polygon fill="black" stroke="black" points="962.89,-403.98 952.39,-402.54 959.71,-410.21 962.89,-403.98"/>
<text xml:space="preserve" text-anchor="middle" x="995.43" y="-424.95" font-family="Times,serif" font-size="14.00">DDG: []</text>
</g>
<!-- 30064771484&#45;&gt;30064771488 -->
<g id="edge42" class="edge">
<title>30064771484&#45;&gt;30064771488</title>
<path fill="none" stroke="black" d="M715.23,-455.81C697.23,-450.45 677.92,-444.4 660.25,-438.25 642.5,-432.07 639.22,-427.11 621,-422.5 548.89,-404.24 465.33,-395.04 401.68,-390.41"/>
<polygon fill="black" stroke="black" points="402.16,-386.93 391.94,-389.73 401.68,-393.91 402.16,-386.93"/>
<text xml:space="preserve" text-anchor="middle" x="690.62" y="-424.95" font-family="Times,serif" font-size="14.00">DDG: data</text>
</g>
<!-- 30064771488&#45;&gt;124554051619 -->
<g id="edge12" class="edge">
<title>30064771488&#45;&gt;124554051619</title>
<path fill="none" stroke="black" d="M211.51,-374.67C122.78,-363.11 0,-339.06 0,-294.5 0,-294.5 0,-294.5 0,-110 0,-66.35 41.14,-69.89 83,-57.5 157.53,-35.44 2529.7,-24 3157.71,-21.35"/>
<polygon fill="black" stroke="black" points="3157.58,-24.85 3167.57,-21.31 3157.55,-17.85 3157.58,-24.85"/>
<text xml:space="preserve" text-anchor="middle" x="30.38" y="-196.82" font-family="Times,serif" font-size="14.00">DDG: data</text>
</g>
<!-- 30064771488&#45;&gt;124554051619 -->
<g id="edge13" class="edge">
<title>30064771488&#45;&gt;124554051619</title>
<path fill="none" stroke="black" d="M211.52,-378.44C156.71,-369.77 97,-348.04 97,-294.5 97,-294.5 97,-294.5 97,-110 97,-67.1 136.93,-69.91 178,-57.5 250.05,-35.73 2541.68,-24.12 3157.78,-21.39"/>
<polygon fill="black" stroke="black" points="3157.44,-24.89 3167.43,-21.34 3157.41,-17.89 3157.44,-24.89"/>
<text xml:space="preserve" text-anchor="middle" x="120.62" y="-196.82" font-family="Times,serif" font-size="14.00">DDG: []</text>
</g>
<!-- 30064771488&#45;&gt;30064771490 -->
<g id="edge22" class="edge">
<title>30064771488&#45;&gt;30064771490</title>
<path fill="none" stroke="black" d="M390.29,-374.78C598.88,-354.12 1134.53,-302.71 1583.25,-273.75 2103.64,-240.17 2718.74,-218.38 3021.85,-208.82"/>
<polygon fill="black" stroke="black" points="3021.54,-212.33 3031.43,-208.52 3021.32,-205.34 3021.54,-212.33"/>
<text xml:space="preserve" text-anchor="middle" x="1613.62" y="-288.07" font-family="Times,serif" font-size="14.00">DDG: data</text>
</g>
<!-- 30064771488&#45;&gt;30064771489 -->
<g id="edge35" class="edge">
<title>30064771488&#45;&gt;30064771489</title>
<path fill="none" stroke="black" d="M211.78,-370.32C186.62,-364.61 163.97,-356.93 156.25,-347 147.96,-336.35 153.19,-327.09 164.04,-319.44"/>
<polygon fill="black" stroke="black" points="165.68,-322.54 172.5,-314.43 162.11,-316.52 165.68,-322.54"/>
<text xml:space="preserve" text-anchor="middle" x="186.62" y="-333.7" font-family="Times,serif" font-size="14.00">DDG: data</text>
</g>
<!-- 30064771488&#45;&gt;30064771489 -->
<g id="edge36" class="edge">
<title>30064771488&#45;&gt;30064771489</title>
<path fill="none" stroke="black" d="M257.47,-364.67C250.56,-359.85 244.23,-354 239.75,-347 235.58,-340.49 233.53,-332.57 232.66,-324.88"/>
<polygon fill="black" stroke="black" points="236.17,-324.92 232.2,-315.1 229.18,-325.26 236.17,-324.92"/>
<text xml:space="preserve" text-anchor="middle" x="290.38" y="-333.7" font-family="Times,serif" font-size="14.00">DDG: &quot;waitlist&quot;</text>
</g>
<!-- 30064771488&#45;&gt;30064771489 -->
<g id="edge37" class="edge">
<title>30064771488&#45;&gt;30064771489</title>
<path fill="none" stroke="black" d="M329.64,-364.52C340.7,-354.68 348.99,-342.44 341,-331.25 338.11,-327.2 334.75,-323.6 331.03,-320.39"/>
<polygon fill="black" stroke="black" points="333.13,-317.58 323,-314.48 328.98,-323.22 333.13,-317.58"/>
<text xml:space="preserve" text-anchor="middle" x="367.79" y="-333.7" font-family="Times,serif" font-size="14.00">DDG: []</text>
</g>
<!-- 30064771502 -->
<g id="node16" class="node">
<title>30064771502</title>
<polygon fill="none" stroke="black" points="1705.12,-783.5 1614.88,-783.5 1614.88,-747.5 1705.12,-747.5 1705.12,-783.5"/>
<text xml:space="preserve" text-anchor="middle" x="1660" y="-760.08" font-family="Times,serif" font-size="14.00">30064771502</text>
</g>
<!-- 30064771502&#45;&gt;68719477143 -->
<g id="edge19" class="edge">
<title>30064771502&#45;&gt;68719477143</title>
<path fill="none" stroke="black" d="M1658.58,-747.09C1658.44,-736.43 1659.6,-722.81 1665,-712 1666.54,-708.91 1668.4,-705.93 1670.48,-703.08"/>
<polygon fill="black" stroke="black" points="1673.02,-705.5 1676.75,-695.58 1667.65,-701 1673.02,-705.5"/>
<text xml:space="preserve" text-anchor="middle" x="1705.5" y="-714.45" font-family="Times,serif" font-size="14.00">DDG: Section</text>
</g>
<!-- 30064771503 -->
<g id="node17" class="node">
<title>30064771503</title>
<polygon fill="none" stroke="black" points="1813.12,-783.5 1722.88,-783.5 1722.88,-747.5 1813.12,-747.5 1813.12,-783.5"/>
<text xml:space="preserve" text-anchor="middle" x="1768" y="-760.08" font-family="Times,serif" font-size="14.00">30064771503</text>
</g>
<!-- 30064771503&#45;&gt;68719477143 -->
<g id="edge20" class="edge">
<title>30064771503&#45;&gt;68719477143</title>
<path fill="none" stroke="black" d="M1761.81,-747.02C1757.84,-736.58 1752.27,-723.22 1746,-712 1744.43,-709.19 1742.72,-706.35 1740.93,-703.53"/>
<polygon fill="black" stroke="black" points="1743.95,-701.74 1735.48,-695.37 1738.12,-705.63 1743.95,-701.74"/>
<text xml:space="preserve" text-anchor="middle" x="1794.18" y="-714.45" font-family="Times,serif" font-size="14.00">DDG: Section</text>
</g>
</g>
</svg>
