<?xml version="1.0" encoding="UTF-8" standalone="no"?>
<!DOCTYPE svg PUBLIC "-//W3C//DTD SVG 1.1//EN"
 "http://www.w3.org/Graphics/SVG/1.1/DTD/svg11.dtd">
<!-- Generated by graphviz version 13.1.2 (20250809.0930)
 -->
<!-- Title: &lt;metaClassCallHandler&gt; Pages: 1 -->
<svg width="871pt" height="321pt"
 viewBox="0.00 0.00 871.00 321.00" xmlns="http://www.w3.org/2000/svg" xmlns:xlink="http://www.w3.org/1999/xlink">
<g id="graph0" class="graph" transform="scale(1 1) rotate(0) translate(4 317.25)">
<title>&lt;metaClassCallHandler&gt;</title>
<polygon fill="white" stroke="none" points="-4,4 -4,-317.25 866.75,-317.25 866.75,4 -4,4"/>
<!-- 107374182444 -->
<g id="node1" class="node">
<title>107374182444</title>
<polygon fill="none" stroke="black" points="377.25,-313.25 212.75,-313.25 212.75,-273.75 377.25,-273.75 377.25,-313.25"/>
<text xml:space="preserve" text-anchor="start" x="257.88" y="-295.95" font-family="Times,serif" font-size="14.00">METHOD, 380</text>
<text xml:space="preserve" text-anchor="start" x="220.75" y="-280.2" font-family="Times,serif" font-size="14.00">&lt;metaClassCallHandler&gt;</text>
</g>
<!-- 30064771523 -->
<g id="node4" class="node">
<title>30064771523</title>
<polygon fill="none" stroke="black" points="454.88,-222 135.12,-222 135.12,-182.5 454.88,-182.5 454.88,-222"/>
<text xml:space="preserve" text-anchor="start" x="278.12" y="-204.7" font-family="Times,serif" font-size="14.00">, 380</text>
<text xml:space="preserve" text-anchor="start" x="143.12" y="-188.95" font-family="Times,serif" font-size="14.00">class EnrollmentRecord&lt;meta&gt;(...).&lt;fakeNew&gt;()</text>
</g>
<!-- 107374182444&#45;&gt;30064771523 -->
<g id="edge4" class="edge">
<title>107374182444&#45;&gt;30064771523</title>
<path fill="none" stroke="black" d="M295,-273.57C295,-262.05 295,-247.07 295,-233.9"/>
<polygon fill="black" stroke="black" points="298.5,-233.97 295,-223.97 291.5,-233.97 298.5,-233.97"/>
<text xml:space="preserve" text-anchor="middle" x="311.88" y="-242.45" font-family="Times,serif" font-size="14.00">DDG: </text>
</g>
<!-- 124554051628 -->
<g id="node2" class="node">
<title>124554051628</title>
<polygon fill="none" stroke="black" points="340,-39.5 0,-39.5 0,0 340,0 340,-39.5"/>
<text xml:space="preserve" text-anchor="start" x="109.25" y="-22.2" font-family="Times,serif" font-size="14.00">METHOD_RETURN, 380</text>
<text xml:space="preserve" text-anchor="start" x="8" y="-6.45" font-family="Times,serif" font-size="14.00">AI_generated_code_1.py:&lt;module&gt;.EnrollmentRecord</text>
</g>
<!-- 141733920809 -->
<g id="node3" class="node">
<title>141733920809</title>
<polygon fill="none" stroke="black" points="862.75,-130.75 509.25,-130.75 509.25,-91.25 862.75,-91.25 862.75,-130.75"/>
<text xml:space="preserve" text-anchor="start" x="648.88" y="-113.45" font-family="Times,serif" font-size="14.00">RETURN, 380</text>
<text xml:space="preserve" text-anchor="start" x="517.25" y="-97.7" font-family="Times,serif" font-size="14.00">return class EnrollmentRecord&lt;meta&gt;(...).&lt;fakeN...</text>
</g>
<!-- 141733920809&#45;&gt;124554051628 -->
<g id="edge1" class="edge">
<title>141733920809&#45;&gt;124554051628</title>
<path fill="none" stroke="black" d="M574.99,-90.8C491.85,-76.42 378.14,-56.75 292.38,-41.92"/>
<polygon fill="black" stroke="black" points="293.21,-38.51 282.76,-40.25 292.01,-45.41 293.21,-38.51"/>
<text xml:space="preserve" text-anchor="middle" x="492.64" y="-59.95" font-family="Times,serif" font-size="14.00">DDG: &lt;RET&gt;</text>
</g>
<!-- 30064771523&#45;&gt;124554051628 -->
<g id="edge2" class="edge">
<title>30064771523&#45;&gt;124554051628</title>
<path fill="none" stroke="black" d="M228.23,-182.14C203.08,-171.34 177.06,-154.99 162.5,-130.75 148.02,-106.64 152.63,-73.96 159.19,-50.5"/>
<polygon fill="black" stroke="black" points="162.44,-51.83 162.05,-41.24 155.76,-49.77 162.44,-51.83"/>
<text xml:space="preserve" text-anchor="middle" x="331.25" y="-105.58" font-family="Times,serif" font-size="14.00">DDG: class EnrollmentRecord&lt;meta&gt;(...).&lt;fakeNew&gt;()</text>
</g>
<!-- 30064771523&#45;&gt;141733920809 -->
<g id="edge3" class="edge">
<title>30064771523&#45;&gt;141733920809</title>
<path fill="none" stroke="black" d="M378.88,-182.1C441.14,-167.89 526.11,-148.5 590.89,-133.71"/>
<polygon fill="black" stroke="black" points="591.48,-137.17 600.45,-131.53 589.92,-130.34 591.48,-137.17"/>
<text xml:space="preserve" text-anchor="middle" x="682.66" y="-151.2" font-family="Times,serif" font-size="14.00">DDG: class EnrollmentRecord&lt;meta&gt;(...).&lt;fakeNew&gt;()</text>
</g>
</g>
</svg>
