<?xml version="1.0" encoding="UTF-8" standalone="no"?>
<!DOCTYPE svg PUBLIC "-//W3C//DTD SVG 1.1//EN"
 "http://www.w3.org/Graphics/SVG/1.1/DTD/svg11.dtd">
<!-- Generated by graphviz version 13.1.2 (20250809.0930)
 -->
<!-- Title: __init__ Pages: 1 -->
<svg width="2539pt" height="377pt"
 viewBox="0.00 0.00 2539.00 377.00" xmlns="http://www.w3.org/2000/svg" xmlns:xlink="http://www.w3.org/1999/xlink">
<g id="graph0" class="graph" transform="scale(1 1) rotate(0) translate(4 372.5)">
<title>__init__</title>
<polygon fill="white" stroke="none" points="-4,4 -4,-372.5 2535.43,-372.5 2535.43,4 -4,4"/>
<!-- 107374182448 -->
<g id="node1" class="node">
<title>107374182448</title>
<polygon fill="none" stroke="black" points="1558.54,-368.5 1468.29,-368.5 1468.29,-329 1558.54,-329 1558.54,-368.5"/>
<text xml:space="preserve" text-anchor="start" x="1476.29" y="-351.2" font-family="Times,serif" font-size="14.00">METHOD, 409</text>
<text xml:space="preserve" text-anchor="start" x="1486.42" y="-335.45" font-family="Times,serif" font-size="14.00">__init__</text>
</g>
<!-- 111669149757 -->
<g id="node3" class="node">
<title>111669149757</title>
<polygon fill="none" stroke="black" points="135.17,-204 51.67,-204 51.67,-164.5 135.17,-164.5 135.17,-204"/>
<text xml:space="preserve" text-anchor="start" x="59.67" y="-186.7" font-family="Times,serif" font-size="14.00">PARAM, 409</text>
<text xml:space="preserve" text-anchor="start" x="79.92" y="-170.95" font-family="Times,serif" font-size="14.00">self</text>
</g>
<!-- 107374182448&#45;&gt;111669149757 -->
<g id="edge22" class="edge">
<title>107374182448&#45;&gt;111669149757</title>
<path fill="none" stroke="black" d="M1467.91,-347.78C1238.72,-347.75 219.54,-345.66 162.67,-311 128.13,-289.95 109.56,-245.06 100.58,-215.01"/>
<polygon fill="black" stroke="black" points="104.06,-214.46 98.01,-205.76 97.32,-216.33 104.06,-214.46"/>
<text xml:space="preserve" text-anchor="middle" x="179.54" y="-297.7" font-family="Times,serif" font-size="14.00">DDG: </text>
</g>
<!-- 30064771534 -->
<g id="node4" class="node">
<title>30064771534</title>
<polygon fill="none" stroke="black" points="317.42,-146.5 85.42,-146.5 85.42,-107 317.42,-107 317.42,-146.5"/>
<text xml:space="preserve" text-anchor="start" x="113.67" y="-129.2" font-family="Times,serif" font-size="14.00">&lt;operator&gt;.assignment, 410</text>
<text xml:space="preserve" text-anchor="start" x="93.42" y="-113.45" font-family="Times,serif" font-size="14.00">self.students = tmp21 = {} tmp21</text>
</g>
<!-- 107374182448&#45;&gt;30064771534 -->
<g id="edge24" class="edge">
<title>107374182448&#45;&gt;30064771534</title>
<path fill="none" stroke="black" d="M1467.88,-347.61C1256.63,-346.65 378.06,-338.96 273.67,-277.25 231.31,-252.21 213.32,-194.09 206.03,-158.14"/>
<polygon fill="black" stroke="black" points="209.48,-157.57 204.22,-148.37 202.6,-158.84 209.48,-157.57"/>
<text xml:space="preserve" text-anchor="middle" x="290.54" y="-244.2" font-family="Times,serif" font-size="14.00">DDG: </text>
</g>
<!-- 30064771538 -->
<g id="node5" class="node">
<title>30064771538</title>
<polygon fill="none" stroke="black" points="939.04,-146.5 713.79,-146.5 713.79,-107 939.04,-107 939.04,-146.5"/>
<text xml:space="preserve" text-anchor="start" x="738.67" y="-129.2" font-family="Times,serif" font-size="14.00">&lt;operator&gt;.assignment, 411</text>
<text xml:space="preserve" text-anchor="start" x="721.79" y="-113.45" font-family="Times,serif" font-size="14.00">self.courses = tmp22 = {} tmp22</text>
</g>
<!-- 107374182448&#45;&gt;30064771538 -->
<g id="edge26" class="edge">
<title>107374182448&#45;&gt;30064771538</title>
<path fill="none" stroke="black" d="M1468.02,-340.32C1405.44,-329.49 1289.53,-307.34 1193.67,-277.25 1068.32,-237.9 1042.33,-213.48 920.42,-164.5 909.45,-160.09 897.74,-155.46 886.44,-151.02"/>
<polygon fill="black" stroke="black" points="887.76,-147.78 877.17,-147.39 885.21,-154.3 887.76,-147.78"/>
<text xml:space="preserve" text-anchor="middle" x="1210.54" y="-244.2" font-family="Times,serif" font-size="14.00">DDG: </text>
</g>
<!-- 30064771542 -->
<g id="node6" class="node">
<title>30064771542</title>
<polygon fill="none" stroke="black" points="1417.54,-146.5 1165.29,-146.5 1165.29,-107 1417.54,-107 1417.54,-146.5"/>
<text xml:space="preserve" text-anchor="start" x="1203.67" y="-129.2" font-family="Times,serif" font-size="14.00">&lt;operator&gt;.assignment, 412</text>
<text xml:space="preserve" text-anchor="start" x="1173.29" y="-113.45" font-family="Times,serif" font-size="14.00">self.instructors = tmp23 = {} tmp23</text>
</g>
<!-- 107374182448&#45;&gt;30064771542 -->
<g id="edge28" class="edge">
<title>107374182448&#45;&gt;30064771542</title>
<path fill="none" stroke="black" d="M1505.85,-328.57C1490,-291 1449.66,-207.63 1388.42,-164.5 1381.56,-159.67 1373.99,-155.38 1366.18,-151.59"/>
<polygon fill="black" stroke="black" points="1367.77,-148.47 1357.21,-147.53 1364.88,-154.85 1367.77,-148.47"/>
<text xml:space="preserve" text-anchor="middle" x="1496.59" y="-244.2" font-family="Times,serif" font-size="14.00">DDG: </text>
</g>
<!-- 30064771546 -->
<g id="node7" class="node">
<title>30064771546</title>
<polygon fill="none" stroke="black" points="2077.42,-146.5 1845.42,-146.5 1845.42,-107 2077.42,-107 2077.42,-146.5"/>
<text xml:space="preserve" text-anchor="start" x="1873.67" y="-129.2" font-family="Times,serif" font-size="14.00">&lt;operator&gt;.assignment, 413</text>
<text xml:space="preserve" text-anchor="start" x="1853.42" y="-113.45" font-family="Times,serif" font-size="14.00">self.sections = tmp24 = {} tmp24</text>
</g>
<!-- 107374182448&#45;&gt;30064771546 -->
<g id="edge30" class="edge">
<title>107374182448&#45;&gt;30064771546</title>
<path fill="none" stroke="black" d="M1540.62,-328.57C1557.97,-315.45 1580.16,-296.92 1596.42,-277.25 1614.39,-255.5 1605.48,-239.42 1627.67,-222 1686.55,-175.77 1766.95,-152.22 1834.09,-140.21"/>
<polygon fill="black" stroke="black" points="1834.42,-143.71 1843.69,-138.57 1833.24,-136.81 1834.42,-143.71"/>
<text xml:space="preserve" text-anchor="middle" x="1644.54" y="-244.2" font-family="Times,serif" font-size="14.00">DDG: </text>
</g>
<!-- 30064771549 -->
<g id="node8" class="node">
<title>30064771549</title>
<polygon fill="none" stroke="black" points="1777.92,-146.5 1572.92,-146.5 1572.92,-107 1777.92,-107 1777.92,-146.5"/>
<text xml:space="preserve" text-anchor="start" x="1587.67" y="-129.2" font-family="Times,serif" font-size="14.00">&lt;operator&gt;.assignment, 414</text>
<text xml:space="preserve" text-anchor="start" x="1580.92" y="-113.45" font-family="Times,serif" font-size="14.00">self.enrollment_history = []</text>
</g>
<!-- 107374182448&#45;&gt;30064771549 -->
<g id="edge31" class="edge">
<title>107374182448&#45;&gt;30064771549</title>
<path fill="none" stroke="black" d="M1517.65,-328.62C1526.85,-291.5 1552.17,-209.43 1604.42,-164.5 1609.41,-160.21 1614.98,-156.25 1620.76,-152.64"/>
<polygon fill="black" stroke="black" points="1622.41,-155.73 1629.29,-147.67 1618.89,-149.68 1622.41,-155.73"/>
<text xml:space="preserve" text-anchor="middle" x="1575.67" y="-244.2" font-family="Times,serif" font-size="14.00">DDG: </text>
</g>
<!-- 30064771533 -->
<g id="node9" class="node">
<title>30064771533</title>
<polygon fill="none" stroke="black" points="508.17,-269.38 316.67,-269.38 316.67,-229.88 508.17,-229.88 508.17,-269.38"/>
<text xml:space="preserve" text-anchor="start" x="324.67" y="-252.07" font-family="Times,serif" font-size="14.00">&lt;operator&gt;.assignment, 410</text>
<text xml:space="preserve" text-anchor="start" x="378.67" y="-236.32" font-family="Times,serif" font-size="14.00">tmp21 = {}</text>
</g>
<!-- 107374182448&#45;&gt;30064771533 -->
<g id="edge32" class="edge">
<title>107374182448&#45;&gt;30064771533</title>
<path fill="none" stroke="black" d="M1468.06,-345.9C1367.66,-341.61 1119.1,-329.86 911.67,-311 776.11,-298.68 620.5,-278.97 519.54,-265.44"/>
<polygon fill="black" stroke="black" points="520.29,-262.01 509.92,-264.15 519.36,-268.95 520.29,-262.01"/>
<text xml:space="preserve" text-anchor="middle" x="928.54" y="-297.7" font-family="Times,serif" font-size="14.00">DDG: </text>
</g>
<!-- 68719477184 -->
<g id="node10" class="node">
<title>68719477184</title>
<polygon fill="none" stroke="black" points="2004.42,-277.25 1880.42,-277.25 1880.42,-222 2004.42,-222 2004.42,-277.25"/>
<text xml:space="preserve" text-anchor="start" x="1891.79" y="-259.95" font-family="Times,serif" font-size="14.00">IDENTIFIER, 410</text>
<text xml:space="preserve" text-anchor="start" x="1925.54" y="-244.2" font-family="Times,serif" font-size="14.00">tmp21</text>
<text xml:space="preserve" text-anchor="start" x="1888.42" y="-228.45" font-family="Times,serif" font-size="14.00">tmp21 = {} tmp21</text>
</g>
<!-- 107374182448&#45;&gt;68719477184 -->
<g id="edge33" class="edge">
<title>107374182448&#45;&gt;68719477184</title>
<path fill="none" stroke="black" d="M1558.95,-341.37C1625.46,-331.48 1753.08,-310.4 1869.41,-277.66"/>
<polygon fill="black" stroke="black" points="1870.16,-281.08 1878.81,-274.97 1868.23,-274.35 1870.16,-281.08"/>
<text xml:space="preserve" text-anchor="middle" x="1810.96" y="-297.7" font-family="Times,serif" font-size="14.00">DDG: </text>
</g>
<!-- 30064771537 -->
<g id="node11" class="node">
<title>30064771537</title>
<polygon fill="none" stroke="black" points="958.17,-269.38 766.67,-269.38 766.67,-229.88 958.17,-229.88 958.17,-269.38"/>
<text xml:space="preserve" text-anchor="start" x="774.67" y="-252.07" font-family="Times,serif" font-size="14.00">&lt;operator&gt;.assignment, 411</text>
<text xml:space="preserve" text-anchor="start" x="828.67" y="-236.32" font-family="Times,serif" font-size="14.00">tmp22 = {}</text>
</g>
<!-- 107374182448&#45;&gt;30064771537 -->
<g id="edge34" class="edge">
<title>107374182448&#45;&gt;30064771537</title>
<path fill="none" stroke="black" d="M1468.15,-346.61C1358.98,-343.53 1083.69,-333.68 994.67,-311 963.5,-303.06 930.59,-288.06 905.4,-275"/>
<polygon fill="black" stroke="black" points="907.26,-272.03 896.78,-270.45 903.99,-278.22 907.26,-272.03"/>
<text xml:space="preserve" text-anchor="middle" x="1011.54" y="-297.7" font-family="Times,serif" font-size="14.00">DDG: </text>
</g>
<!-- 68719477187 -->
<g id="node12" class="node">
<title>68719477187</title>
<polygon fill="none" stroke="black" points="2146.42,-277.25 2022.42,-277.25 2022.42,-222 2146.42,-222 2146.42,-277.25"/>
<text xml:space="preserve" text-anchor="start" x="2033.79" y="-259.95" font-family="Times,serif" font-size="14.00">IDENTIFIER, 411</text>
<text xml:space="preserve" text-anchor="start" x="2067.54" y="-244.2" font-family="Times,serif" font-size="14.00">tmp22</text>
<text xml:space="preserve" text-anchor="start" x="2030.42" y="-228.45" font-family="Times,serif" font-size="14.00">tmp22 = {} tmp22</text>
</g>
<!-- 107374182448&#45;&gt;68719477187 -->
<g id="edge35" class="edge">
<title>107374182448&#45;&gt;68719477187</title>
<path fill="none" stroke="black" d="M1558.71,-345.34C1645.57,-339.87 1841.33,-323.44 2011.38,-277.62"/>
<polygon fill="black" stroke="black" points="2012.11,-281.05 2020.83,-275.03 2010.26,-274.3 2012.11,-281.05"/>
<text xml:space="preserve" text-anchor="middle" x="1950.14" y="-297.7" font-family="Times,serif" font-size="14.00">DDG: </text>
</g>
<!-- 30064771541 -->
<g id="node13" class="node">
<title>30064771541</title>
<polygon fill="none" stroke="black" points="1428.17,-269.38 1236.67,-269.38 1236.67,-229.88 1428.17,-229.88 1428.17,-269.38"/>
<text xml:space="preserve" text-anchor="start" x="1244.67" y="-252.07" font-family="Times,serif" font-size="14.00">&lt;operator&gt;.assignment, 412</text>
<text xml:space="preserve" text-anchor="start" x="1298.67" y="-236.32" font-family="Times,serif" font-size="14.00">tmp23 = {}</text>
</g>
<!-- 107374182448&#45;&gt;30064771541 -->
<g id="edge36" class="edge">
<title>107374182448&#45;&gt;30064771541</title>
<path fill="none" stroke="black" d="M1467.81,-328.79C1455.59,-323.37 1442.49,-317.22 1430.67,-311 1410.34,-300.3 1388.49,-287.06 1370.58,-275.71"/>
<polygon fill="black" stroke="black" points="1372.65,-272.88 1362.34,-270.44 1368.88,-278.78 1372.65,-272.88"/>
<text xml:space="preserve" text-anchor="middle" x="1447.54" y="-297.7" font-family="Times,serif" font-size="14.00">DDG: </text>
</g>
<!-- 68719477190 -->
<g id="node14" class="node">
<title>68719477190</title>
<polygon fill="none" stroke="black" points="2288.42,-277.25 2164.42,-277.25 2164.42,-222 2288.42,-222 2288.42,-277.25"/>
<text xml:space="preserve" text-anchor="start" x="2175.79" y="-259.95" font-family="Times,serif" font-size="14.00">IDENTIFIER, 412</text>
<text xml:space="preserve" text-anchor="start" x="2209.54" y="-244.2" font-family="Times,serif" font-size="14.00">tmp23</text>
<text xml:space="preserve" text-anchor="start" x="2172.42" y="-228.45" font-family="Times,serif" font-size="14.00">tmp23 = {} tmp23</text>
</g>
<!-- 107374182448&#45;&gt;68719477190 -->
<g id="edge37" class="edge">
<title>107374182448&#45;&gt;68719477190</title>
<path fill="none" stroke="black" d="M1558.71,-347.72C1663.25,-346.61 1928.93,-337.82 2153.3,-277.63"/>
<polygon fill="black" stroke="black" points="2154.1,-281.04 2162.83,-275.03 2152.26,-274.29 2154.1,-281.04"/>
<text xml:space="preserve" text-anchor="middle" x="2087.09" y="-297.7" font-family="Times,serif" font-size="14.00">DDG: </text>
</g>
<!-- 30064771545 -->
<g id="node15" class="node">
<title>30064771545</title>
<polygon fill="none" stroke="black" points="1862.17,-269.38 1670.67,-269.38 1670.67,-229.88 1862.17,-229.88 1862.17,-269.38"/>
<text xml:space="preserve" text-anchor="start" x="1678.67" y="-252.07" font-family="Times,serif" font-size="14.00">&lt;operator&gt;.assignment, 413</text>
<text xml:space="preserve" text-anchor="start" x="1732.67" y="-236.32" font-family="Times,serif" font-size="14.00">tmp24 = {}</text>
</g>
<!-- 107374182448&#45;&gt;30064771545 -->
<g id="edge38" class="edge">
<title>107374182448&#45;&gt;30064771545</title>
<path fill="none" stroke="black" d="M1558.79,-335.17C1581.18,-328.61 1608.45,-320.06 1632.42,-311 1660.93,-300.22 1692,-286.36 1717.04,-274.64"/>
<polygon fill="black" stroke="black" points="1718.46,-277.84 1726.01,-270.4 1715.47,-271.51 1718.46,-277.84"/>
<text xml:space="preserve" text-anchor="middle" x="1686.69" y="-297.7" font-family="Times,serif" font-size="14.00">DDG: </text>
</g>
<!-- 68719477193 -->
<g id="node16" class="node">
<title>68719477193</title>
<polygon fill="none" stroke="black" points="2430.42,-277.25 2306.42,-277.25 2306.42,-222 2430.42,-222 2430.42,-277.25"/>
<text xml:space="preserve" text-anchor="start" x="2317.79" y="-259.95" font-family="Times,serif" font-size="14.00">IDENTIFIER, 413</text>
<text xml:space="preserve" text-anchor="start" x="2351.54" y="-244.2" font-family="Times,serif" font-size="14.00">tmp24</text>
<text xml:space="preserve" text-anchor="start" x="2314.42" y="-228.45" font-family="Times,serif" font-size="14.00">tmp24 = {} tmp24</text>
</g>
<!-- 107374182448&#45;&gt;68719477193 -->
<g id="edge39" class="edge">
<title>107374182448&#45;&gt;68719477193</title>
<path fill="none" stroke="black" d="M1558.74,-346.73C1658.44,-344.09 1904.18,-335.46 2108.42,-311 2189.67,-301.27 2213.22,-299.92 2295.42,-277.63"/>
<polygon fill="black" stroke="black" points="2296.11,-281.07 2304.83,-275.05 2294.26,-274.32 2296.11,-281.07"/>
<text xml:space="preserve" text-anchor="middle" x="2239.86" y="-297.7" font-family="Times,serif" font-size="14.00">DDG: </text>
</g>
<!-- 124554051632 -->
<g id="node2" class="node">
<title>124554051632</title>
<polygon fill="none" stroke="black" points="1107.17,-39.5 969.67,-39.5 969.67,0 1107.17,0 1107.17,-39.5"/>
<text xml:space="preserve" text-anchor="start" x="977.67" y="-22.2" font-family="Times,serif" font-size="14.00">METHOD_RETURN, 409</text>
<text xml:space="preserve" text-anchor="start" x="1028.29" y="-6.45" font-family="Times,serif" font-size="14.00">ANY</text>
</g>
<!-- 111669149757&#45;&gt;124554051632 -->
<g id="edge1" class="edge">
<title>111669149757&#45;&gt;124554051632</title>
<path fill="none" stroke="black" d="M51.3,-173.16C37.54,-167.65 23.74,-159.24 15.67,-146.5 -5.58,-112.96 -6.28,-83.85 23.42,-57.5 58.17,-26.66 724.01,-21.69 957.97,-20.9"/>
<polygon fill="black" stroke="black" points="957.94,-24.4 967.93,-20.87 957.92,-17.4 957.94,-24.4"/>
<text xml:space="preserve" text-anchor="middle" x="46.04" y="-121.33" font-family="Times,serif" font-size="14.00">DDG: self</text>
</g>
<!-- 30064771534&#45;&gt;124554051632 -->
<g id="edge2" class="edge">
<title>30064771534&#45;&gt;124554051632</title>
<path fill="none" stroke="black" d="M229.17,-106.58C236.1,-101.24 243.3,-95.2 249.42,-89 261.69,-76.57 257.5,-65.7 272.92,-57.5 332.18,-25.97 773.67,-21.31 957.97,-20.76"/>
<polygon fill="black" stroke="black" points="957.96,-24.26 967.95,-20.73 957.94,-17.26 957.96,-24.26"/>
<text xml:space="preserve" text-anchor="middle" x="333.67" y="-67.83" font-family="Times,serif" font-size="14.00">DDG: self.students</text>
</g>
<!-- 30064771534&#45;&gt;124554051632 -->
<g id="edge5" class="edge">
<title>30064771534&#45;&gt;124554051632</title>
<path fill="none" stroke="black" d="M85.06,-110.16C42.9,-99.94 11.13,-83.48 36.17,-57.5 67.98,-24.5 725.55,-20.93 957.94,-20.69"/>
<polygon fill="black" stroke="black" points="957.83,-24.19 967.82,-20.69 957.82,-17.19 957.83,-24.19"/>
<text xml:space="preserve" text-anchor="middle" x="140.79" y="-75.7" font-family="Times,serif" font-size="14.00">DDG: self.students = tmp21 = {}</text>
<text xml:space="preserve" text-anchor="middle" x="140.79" y="-59.95" font-family="Times,serif" font-size="14.00">tmp21</text>
</g>
<!-- 30064771538&#45;&gt;124554051632 -->
<g id="edge6" class="edge">
<title>30064771538&#45;&gt;124554051632</title>
<path fill="none" stroke="black" d="M828.4,-106.66C831.05,-91.11 837.24,-69.79 851.67,-57.5 867.89,-43.68 915.17,-34.46 958.09,-28.71"/>
<polygon fill="black" stroke="black" points="958.5,-32.19 967.97,-27.44 957.61,-25.25 958.5,-32.19"/>
<text xml:space="preserve" text-anchor="middle" x="909.04" y="-67.83" font-family="Times,serif" font-size="14.00">DDG: self.courses</text>
</g>
<!-- 30064771538&#45;&gt;124554051632 -->
<g id="edge9" class="edge">
<title>30064771538&#45;&gt;124554051632</title>
<path fill="none" stroke="black" d="M713.34,-108.05C669.61,-100.65 629.16,-92.89 625.92,-89 616.96,-78.25 616.47,-67.83 625.92,-57.5 647.83,-33.56 844.01,-25.11 957.75,-22.21"/>
<polygon fill="black" stroke="black" points="957.75,-25.71 967.66,-21.96 957.57,-18.71 957.75,-25.71"/>
<text xml:space="preserve" text-anchor="middle" x="727.17" y="-75.7" font-family="Times,serif" font-size="14.00">DDG: self.courses = tmp22 = {}</text>
<text xml:space="preserve" text-anchor="middle" x="727.17" y="-59.95" font-family="Times,serif" font-size="14.00">tmp22</text>
</g>
<!-- 30064771542&#45;&gt;124554051632 -->
<g id="edge10" class="edge">
<title>30064771542&#45;&gt;124554051632</title>
<path fill="none" stroke="black" d="M1290.52,-106.59C1288.72,-90.99 1283.6,-69.65 1269.42,-57.5 1247.12,-38.4 1176.3,-29.15 1118.9,-24.72"/>
<polygon fill="black" stroke="black" points="1119.35,-21.24 1109.13,-24.01 1118.84,-28.22 1119.35,-21.24"/>
<text xml:space="preserve" text-anchor="middle" x="1358.02" y="-67.83" font-family="Times,serif" font-size="14.00">DDG: self.instructors</text>
</g>
<!-- 30064771542&#45;&gt;124554051632 -->
<g id="edge13" class="edge">
<title>30064771542&#45;&gt;124554051632</title>
<path fill="none" stroke="black" d="M1164.92,-108.44C1101.22,-99.58 1037.1,-90.36 1035.92,-89 1027.03,-78.74 1026.59,-64.01 1028.82,-50.86"/>
<polygon fill="black" stroke="black" points="1032.18,-51.86 1030.99,-41.34 1025.36,-50.31 1032.18,-51.86"/>
<text xml:space="preserve" text-anchor="middle" x="1150.67" y="-75.7" font-family="Times,serif" font-size="14.00">DDG: self.instructors = tmp23 = {}</text>
<text xml:space="preserve" text-anchor="middle" x="1150.67" y="-59.95" font-family="Times,serif" font-size="14.00">tmp23</text>
</g>
<!-- 30064771546&#45;&gt;124554051632 -->
<g id="edge14" class="edge">
<title>30064771546&#45;&gt;124554051632</title>
<path fill="none" stroke="black" d="M2077.59,-123.69C2136.95,-119.91 2200.59,-110.7 2219.42,-89 2228.59,-78.43 2229.16,-67.55 2219.42,-57.5 2181.15,-18.02 1378.34,-18.89 1118.68,-20.22"/>
<polygon fill="black" stroke="black" points="1118.95,-16.72 1108.97,-20.27 1118.99,-23.72 1118.95,-16.72"/>
<text xml:space="preserve" text-anchor="middle" x="2287.26" y="-67.83" font-family="Times,serif" font-size="14.00">DDG: self.sections</text>
</g>
<!-- 30064771546&#45;&gt;124554051632 -->
<g id="edge18" class="edge">
<title>30064771546&#45;&gt;124554051632</title>
<path fill="none" stroke="black" d="M1973.26,-106.76C1981.12,-91.48 1987.91,-70.49 1975.42,-57.5 1945.94,-26.84 1340.12,-21.75 1118.62,-20.91"/>
<polygon fill="black" stroke="black" points="1118.94,-17.41 1108.93,-20.88 1118.92,-24.41 1118.94,-17.41"/>
<text xml:space="preserve" text-anchor="middle" x="2086.94" y="-75.7" font-family="Times,serif" font-size="14.00">DDG: self.sections = tmp24 = {}</text>
<text xml:space="preserve" text-anchor="middle" x="2086.94" y="-59.95" font-family="Times,serif" font-size="14.00">tmp24</text>
</g>
<!-- 30064771549&#45;&gt;124554051632 -->
<g id="edge19" class="edge">
<title>30064771549&#45;&gt;124554051632</title>
<path fill="none" stroke="black" d="M1756.6,-106.52C1763.93,-101.88 1770.44,-96.13 1775.42,-89 1783.43,-77.52 1785.07,-67.64 1775.42,-57.5 1753.08,-34.02 1305.43,-24.7 1118.91,-21.82"/>
<polygon fill="black" stroke="black" points="1119.11,-18.32 1109.06,-21.67 1119.01,-25.32 1119.11,-18.32"/>
<text xml:space="preserve" text-anchor="middle" x="1876.56" y="-67.83" font-family="Times,serif" font-size="14.00">DDG: self.enrollment_history</text>
</g>
<!-- 30064771549&#45;&gt;124554051632 -->
<g id="edge20" class="edge">
<title>30064771549&#45;&gt;124554051632</title>
<path fill="none" stroke="black" d="M1572.58,-107.83C1528.69,-99.89 1486.46,-91.73 1482.17,-89 1467.6,-79.73 1474.44,-66.02 1459.42,-57.5 1403.09,-25.53 1224.19,-20.18 1118.59,-19.94"/>
<polygon fill="black" stroke="black" points="1118.87,-16.44 1108.87,-19.93 1118.86,-23.44 1118.87,-16.44"/>
<text xml:space="preserve" text-anchor="middle" x="1505.79" y="-67.83" font-family="Times,serif" font-size="14.00">DDG: []</text>
</g>
<!-- 30064771549&#45;&gt;124554051632 -->
<g id="edge21" class="edge">
<title>30064771549&#45;&gt;124554051632</title>
<path fill="none" stroke="black" d="M1579.95,-106.57C1568.78,-101.93 1558.05,-96.16 1548.67,-89 1535.63,-79.04 1543.42,-66.05 1529.42,-57.5 1495.34,-36.68 1249.41,-26.67 1119.06,-22.79"/>
<polygon fill="black" stroke="black" points="1119.19,-19.29 1109.1,-22.5 1118.99,-26.29 1119.19,-19.29"/>
<text xml:space="preserve" text-anchor="middle" x="1660.04" y="-67.83" font-family="Times,serif" font-size="14.00">DDG: self.enrollment_history = []</text>
</g>
<!-- 30064771533&#45;&gt;124554051632 -->
<g id="edge3" class="edge">
<title>30064771533&#45;&gt;124554051632</title>
<path fill="none" stroke="black" d="M397.15,-229.38C376.83,-201.25 345.87,-147.82 367.92,-107 368.52,-105.9 442.23,-57.9 443.42,-57.5 536.49,-26.55 817.93,-21.29 957.77,-20.64"/>
<polygon fill="black" stroke="black" points="957.72,-24.14 967.71,-20.6 957.69,-17.14 957.72,-24.14"/>
<text xml:space="preserve" text-anchor="middle" x="401.67" y="-121.33" font-family="Times,serif" font-size="14.00">DDG: tmp21</text>
</g>
<!-- 30064771533&#45;&gt;124554051632 -->
<g id="edge4" class="edge">
<title>30064771533&#45;&gt;124554051632</title>
<path fill="none" stroke="black" d="M417.64,-229.72C426.67,-200.08 447.85,-142.4 484.17,-107 520.9,-71.2 538.88,-70.8 588.42,-57.5 655.96,-39.36 847.97,-28.65 958.12,-23.83"/>
<polygon fill="black" stroke="black" points="958.15,-27.33 967.99,-23.41 957.85,-20.34 958.15,-27.33"/>
<text xml:space="preserve" text-anchor="middle" x="534.79" y="-121.33" font-family="Times,serif" font-size="14.00">DDG: tmp21 = {}</text>
</g>
<!-- 30064771533&#45;&gt;30064771534 -->
<g id="edge23" class="edge">
<title>30064771533&#45;&gt;30064771534</title>
<path fill="none" stroke="black" d="M327.54,-229.43C308.39,-223.03 288.77,-214.71 271.92,-204 252.2,-191.47 234.38,-172.09 221.59,-156.01"/>
<polygon fill="black" stroke="black" points="224.46,-153.99 215.59,-148.19 218.91,-158.25 224.46,-153.99"/>
<text xml:space="preserve" text-anchor="middle" x="305.67" y="-178.82" font-family="Times,serif" font-size="14.00">DDG: tmp21</text>
</g>
<!-- 30064771537&#45;&gt;124554051632 -->
<g id="edge7" class="edge">
<title>30064771537&#45;&gt;124554051632</title>
<path fill="none" stroke="black" d="M892.36,-229.57C902.12,-222.38 912.48,-213.59 920.42,-204 966.93,-147.8 949.04,-114.62 994.42,-57.5 997.2,-54.01 1000.35,-50.61 1003.66,-47.38"/>
<polygon fill="black" stroke="black" points="1005.91,-50.06 1010.98,-40.76 1001.22,-44.87 1005.91,-50.06"/>
<text xml:space="preserve" text-anchor="middle" x="999.15" y="-121.33" font-family="Times,serif" font-size="14.00">DDG: tmp22</text>
</g>
<!-- 30064771537&#45;&gt;124554051632 -->
<g id="edge8" class="edge">
<title>30064771537&#45;&gt;124554051632</title>
<path fill="none" stroke="black" d="M766.43,-237.59C708.71,-225.46 639.58,-199.98 603.17,-146.5 580.7,-113.5 585.07,-83.45 615.42,-57.5 640.83,-35.77 842.75,-26.38 958.18,-22.76"/>
<polygon fill="black" stroke="black" points="958.01,-26.26 967.9,-22.46 957.79,-19.27 958.01,-26.26"/>
<text xml:space="preserve" text-anchor="middle" x="653.79" y="-121.33" font-family="Times,serif" font-size="14.00">DDG: tmp22 = {}</text>
</g>
<!-- 30064771537&#45;&gt;30064771538 -->
<g id="edge25" class="edge">
<title>30064771537&#45;&gt;30064771538</title>
<path fill="none" stroke="black" d="M856.72,-229.47C850.97,-210.2 842.04,-180.19 835.36,-157.76"/>
<polygon fill="black" stroke="black" points="838.74,-156.85 832.53,-148.26 832.03,-158.85 838.74,-156.85"/>
<text xml:space="preserve" text-anchor="middle" x="882.45" y="-178.82" font-family="Times,serif" font-size="14.00">DDG: tmp22</text>
</g>
<!-- 30064771541&#45;&gt;124554051632 -->
<g id="edge11" class="edge">
<title>30064771541&#45;&gt;124554051632</title>
<path fill="none" stroke="black" d="M1271.99,-229.44C1221.05,-211.85 1147.32,-183.02 1088.92,-146.5 1072.5,-136.23 1031.41,-106.64 1023.42,-89 1017.98,-76.98 1019.86,-62.87 1023.84,-50.6"/>
<polygon fill="black" stroke="black" points="1027.06,-51.97 1027.38,-41.38 1020.52,-49.46 1027.06,-51.97"/>
<text xml:space="preserve" text-anchor="middle" x="1122.67" y="-121.33" font-family="Times,serif" font-size="14.00">DDG: tmp23</text>
</g>
<!-- 30064771541&#45;&gt;124554051632 -->
<g id="edge12" class="edge">
<title>30064771541&#45;&gt;124554051632</title>
<path fill="none" stroke="black" d="M1359.83,-229.55C1369.44,-222.16 1379.94,-213.26 1388.42,-204 1434.31,-153.84 1478.2,-107.75 1432.42,-57.5 1411.75,-34.82 1228,-25.89 1118.88,-22.57"/>
<polygon fill="black" stroke="black" points="1119.2,-19.08 1109.1,-22.29 1119,-26.08 1119.2,-19.08"/>
<text xml:space="preserve" text-anchor="middle" x="1502.02" y="-121.33" font-family="Times,serif" font-size="14.00">DDG: tmp23 = {}</text>
</g>
<!-- 30064771541&#45;&gt;30064771542 -->
<g id="edge27" class="edge">
<title>30064771541&#45;&gt;30064771542</title>
<path fill="none" stroke="black" d="M1325.92,-229.47C1319.36,-210.11 1309.11,-179.92 1301.49,-157.45"/>
<polygon fill="black" stroke="black" points="1304.9,-156.59 1298.37,-148.25 1298.27,-158.84 1304.9,-156.59"/>
<text xml:space="preserve" text-anchor="middle" x="1350.55" y="-178.82" font-family="Times,serif" font-size="14.00">DDG: tmp23</text>
</g>
<!-- 30064771545&#45;&gt;124554051632 -->
<g id="edge15" class="edge">
<title>30064771545&#45;&gt;124554051632</title>
<path fill="none" stroke="black" d="M1833.79,-229.38C1846.21,-226.45 1859.14,-223.81 1871.42,-222 1961.43,-208.75 2193.61,-231.21 2280.42,-204 2357.86,-179.73 2446.02,-115.66 2389.42,-57.5 2367.15,-34.62 1405.62,-24.08 1118.53,-21.43"/>
<polygon fill="black" stroke="black" points="1118.93,-17.94 1108.9,-21.35 1118.87,-24.94 1118.93,-17.94"/>
<text xml:space="preserve" text-anchor="middle" x="2439.73" y="-121.33" font-family="Times,serif" font-size="14.00">DDG: tmp24</text>
</g>
<!-- 30064771545&#45;&gt;124554051632 -->
<g id="edge16" class="edge">
<title>30064771545&#45;&gt;124554051632</title>
<path fill="none" stroke="black" d="M1833.5,-229.4C1846.01,-226.45 1859.04,-223.79 1871.42,-222 2075.23,-192.53 2133.04,-247.05 2334.42,-204 2409.52,-187.95 2511.51,-175.82 2477.42,-107 2461.3,-74.46 2446.67,-69.57 2412.42,-57.5 2351.27,-35.95 1403.42,-24.5 1118.69,-21.54"/>
<polygon fill="black" stroke="black" points="1118.79,-18.04 1108.75,-21.43 1118.71,-25.04 1118.79,-18.04"/>
<text xml:space="preserve" text-anchor="middle" x="2507.81" y="-121.33" font-family="Times,serif" font-size="14.00">DDG: {}</text>
</g>
<!-- 30064771545&#45;&gt;124554051632 -->
<g id="edge17" class="edge">
<title>30064771545&#45;&gt;124554051632</title>
<path fill="none" stroke="black" d="M1839.7,-229.38C1850.32,-226.78 1861.13,-224.25 1871.42,-222 1914.68,-212.55 1926.44,-214.66 1969.42,-204 2109.03,-169.39 2139.59,-145.52 2278.17,-107 2310.88,-97.91 2331.43,-115.69 2352.42,-89 2361.07,-78 2362.18,-67.54 2352.42,-57.5 2330.83,-35.3 1400.72,-24.32 1118.66,-21.5"/>
<polygon fill="black" stroke="black" points="1118.86,-18 1108.83,-21.4 1118.79,-25 1118.86,-18"/>
<text xml:space="preserve" text-anchor="middle" x="2328.79" y="-121.33" font-family="Times,serif" font-size="14.00">DDG: tmp24 = {}</text>
</g>
<!-- 30064771545&#45;&gt;30064771546 -->
<g id="edge29" class="edge">
<title>30064771545&#45;&gt;30064771546</title>
<path fill="none" stroke="black" d="M1797.32,-229.47C1830.84,-208.7 1884.47,-175.45 1921.24,-152.66"/>
<polygon fill="black" stroke="black" points="1922.72,-155.85 1929.38,-147.61 1919.04,-149.9 1922.72,-155.85"/>
<text xml:space="preserve" text-anchor="middle" x="1932.1" y="-178.82" font-family="Times,serif" font-size="14.00">DDG: tmp24</text>
</g>
</g>
</svg>
