<?xml version="1.0" encoding="UTF-8" standalone="no"?>
<!DOCTYPE svg PUBLIC "-//W3C//DTD SVG 1.1//EN"
 "http://www.w3.org/Graphics/SVG/1.1/DTD/svg11.dtd">
<!-- Generated by graphviz version 13.1.2 (20250809.0930)
 -->
<!-- Title: add_student Pages: 1 -->
<svg width="2381pt" height="912pt"
 viewBox="0.00 0.00 2381.00 912.00" xmlns="http://www.w3.org/2000/svg" xmlns:xlink="http://www.w3.org/1999/xlink">
<g id="graph0" class="graph" transform="scale(1 1) rotate(0) translate(4 907.75)">
<title>add_student</title>
<polygon fill="white" stroke="none" points="-4,4 -4,-907.75 2376.5,-907.75 2376.5,4 -4,4"/>
<!-- 107374182449 -->
<g id="node1" class="node">
<title>107374182449</title>
<polygon fill="none" stroke="black" points="1528.88,-903.75 1438.62,-903.75 1438.62,-864.25 1528.88,-864.25 1528.88,-903.75"/>
<text xml:space="preserve" text-anchor="start" x="1446.62" y="-886.45" font-family="Times,serif" font-size="14.00">METHOD, 420</text>
<text xml:space="preserve" text-anchor="start" x="1446.62" y="-870.7" font-family="Times,serif" font-size="14.00">add_student</text>
</g>
<!-- 111669149758 -->
<g id="node3" class="node">
<title>111669149758</title>
<polygon fill="none" stroke="black" points="1545.5,-404.5 1462,-404.5 1462,-365 1545.5,-365 1545.5,-404.5"/>
<text xml:space="preserve" text-anchor="start" x="1470" y="-387.2" font-family="Times,serif" font-size="14.00">PARAM, 420</text>
<text xml:space="preserve" text-anchor="start" x="1490.25" y="-371.45" font-family="Times,serif" font-size="14.00">self</text>
</g>
<!-- 107374182449&#45;&gt;111669149758 -->
<g id="edge13" class="edge">
<title>107374182449&#45;&gt;111669149758</title>
<path fill="none" stroke="black" d="M1491.34,-863.99C1498.38,-844.66 1507.75,-813.67 1507.75,-785.88 1507.75,-785.88 1507.75,-785.88 1507.75,-514.5 1507.75,-480.91 1506.37,-442.41 1505.23,-416.33"/>
<polygon fill="black" stroke="black" points="1508.74,-416.28 1504.79,-406.45 1501.74,-416.6 1508.74,-416.28"/>
<text xml:space="preserve" text-anchor="middle" x="1524.62" y="-640.83" font-family="Times,serif" font-size="14.00">DDG: </text>
</g>
<!-- 111669149759 -->
<g id="node4" class="node">
<title>111669149759</title>
<polygon fill="none" stroke="black" points="1479.5,-804.62 1396,-804.62 1396,-765.12 1479.5,-765.12 1479.5,-804.62"/>
<text xml:space="preserve" text-anchor="start" x="1404" y="-787.33" font-family="Times,serif" font-size="14.00">PARAM, 420</text>
<text xml:space="preserve" text-anchor="start" x="1404" y="-771.58" font-family="Times,serif" font-size="14.00">student_id</text>
</g>
<!-- 107374182449&#45;&gt;111669149759 -->
<g id="edge14" class="edge">
<title>107374182449&#45;&gt;111669149759</title>
<path fill="none" stroke="black" d="M1470.35,-864.02C1466.73,-858.44 1462.99,-852.23 1460,-846.25 1455.17,-836.59 1450.82,-825.62 1447.27,-815.71"/>
<polygon fill="black" stroke="black" points="1450.68,-814.84 1444.12,-806.52 1444.05,-817.12 1450.68,-814.84"/>
<text xml:space="preserve" text-anchor="middle" x="1476.88" y="-832.95" font-family="Times,serif" font-size="14.00">DDG: </text>
</g>
<!-- 111669149760 -->
<g id="node5" class="node">
<title>111669149760</title>
<polygon fill="none" stroke="black" points="397.5,-666 314,-666 314,-626.5 397.5,-626.5 397.5,-666"/>
<text xml:space="preserve" text-anchor="start" x="322" y="-648.7" font-family="Times,serif" font-size="14.00">PARAM, 420</text>
<text xml:space="preserve" text-anchor="start" x="342.25" y="-632.95" font-family="Times,serif" font-size="14.00">name</text>
</g>
<!-- 107374182449&#45;&gt;111669149760 -->
<g id="edge15" class="edge">
<title>107374182449&#45;&gt;111669149760</title>
<path fill="none" stroke="black" d="M1438.18,-883.34C1249.69,-884.5 536.56,-886.19 444.75,-846.25 380.28,-818.2 362.51,-726.08 357.61,-677.64"/>
<polygon fill="black" stroke="black" points="361.12,-677.5 356.76,-667.84 354.14,-678.11 361.12,-677.5"/>
<text xml:space="preserve" text-anchor="middle" x="418.25" y="-779.45" font-family="Times,serif" font-size="14.00">DDG: </text>
</g>
<!-- 111669149761 -->
<g id="node6" class="node">
<title>111669149761</title>
<polygon fill="none" stroke="black" points="1654.88,-313.25 1564.62,-313.25 1564.62,-273.75 1654.88,-273.75 1654.88,-313.25"/>
<text xml:space="preserve" text-anchor="start" x="1576" y="-295.95" font-family="Times,serif" font-size="14.00">PARAM, 420</text>
<text xml:space="preserve" text-anchor="start" x="1572.62" y="-280.2" font-family="Times,serif" font-size="14.00">max_credits</text>
</g>
<!-- 107374182449&#45;&gt;111669149761 -->
<g id="edge16" class="edge">
<title>107374182449&#45;&gt;111669149761</title>
<path fill="none" stroke="black" d="M1518.29,-863.89C1543.67,-847.04 1573.75,-819.9 1573.75,-785.88 1573.75,-785.88 1573.75,-785.88 1573.75,-383.75 1573.75,-362.44 1582.68,-340.21 1591.65,-323.27"/>
<polygon fill="black" stroke="black" points="1594.57,-325.21 1596.42,-314.78 1588.47,-321.79 1594.57,-325.21"/>
<text xml:space="preserve" text-anchor="middle" x="1590.62" y="-575.45" font-family="Times,serif" font-size="14.00">DDG: </text>
</g>
<!-- 141733920815 -->
<g id="node8" class="node">
<title>141733920815</title>
<polygon fill="none" stroke="black" points="1840.88,-130.75 1750.62,-130.75 1750.62,-91.25 1840.88,-91.25 1840.88,-130.75"/>
<text xml:space="preserve" text-anchor="start" x="1758.62" y="-113.45" font-family="Times,serif" font-size="14.00">RETURN, 428</text>
<text xml:space="preserve" text-anchor="start" x="1758.62" y="-97.7" font-family="Times,serif" font-size="14.00">return True</text>
</g>
<!-- 107374182449&#45;&gt;141733920815 -->
<g id="edge21" class="edge">
<title>107374182449&#45;&gt;141733920815</title>
<path fill="none" stroke="black" d="M1529.35,-881.91C1574.28,-879.32 1643.94,-871.18 1698.75,-846.25 1737.39,-828.68 1772.75,-828.32 1772.75,-785.88 1772.75,-785.88 1772.75,-785.88 1772.75,-449.12 1772.75,-335.75 1785.86,-201.43 1792.28,-142.4"/>
<polygon fill="black" stroke="black" points="1795.76,-142.81 1793.38,-132.48 1788.8,-142.04 1795.76,-142.81"/>
<text xml:space="preserve" text-anchor="middle" x="1789.62" y="-444.7" font-family="Times,serif" font-size="14.00">DDG: </text>
</g>
<!-- 30064771555 -->
<g id="node10" class="node">
<title>30064771555</title>
<polygon fill="none" stroke="black" points="1371.88,-313.25 1173.62,-313.25 1173.62,-273.75 1371.88,-273.75 1371.88,-313.25"/>
<text xml:space="preserve" text-anchor="start" x="1212" y="-295.95" font-family="Times,serif" font-size="14.00">&lt;operator&gt;.in, 423</text>
<text xml:space="preserve" text-anchor="start" x="1181.62" y="-280.2" font-family="Times,serif" font-size="14.00">student_id in self.students</text>
</g>
<!-- 107374182449&#45;&gt;30064771555 -->
<g id="edge28" class="edge">
<title>107374182449&#45;&gt;30064771555</title>
<path fill="none" stroke="black" d="M1438.44,-877.07C1358.25,-865.29 1199.75,-835.7 1199.75,-785.88 1199.75,-785.88 1199.75,-785.88 1199.75,-579.88 1199.75,-483.84 1239.03,-375.13 1259.97,-324.02"/>
<polygon fill="black" stroke="black" points="1263.18,-325.42 1263.79,-314.84 1256.71,-322.73 1263.18,-325.42"/>
<text xml:space="preserve" text-anchor="middle" x="1216.62" y="-575.45" font-family="Times,serif" font-size="14.00">DDG: </text>
</g>
<!-- 30064771556 -->
<g id="node11" class="node">
<title>30064771556</title>
<polygon fill="none" stroke="black" points="1356,-222 1137.5,-222 1137.5,-182.5 1356,-182.5 1356,-222"/>
<text xml:space="preserve" text-anchor="start" x="1145.5" y="-204.7" font-family="Times,serif" font-size="14.00">&lt;operator&gt;.lessEqualsThan, 425</text>
<text xml:space="preserve" text-anchor="start" x="1192.75" y="-188.95" font-family="Times,serif" font-size="14.00">max_credits &lt;= 0</text>
</g>
<!-- 107374182449&#45;&gt;30064771556 -->
<g id="edge33" class="edge">
<title>107374182449&#45;&gt;30064771556</title>
<path fill="none" stroke="black" d="M1438.16,-879.78C1344.21,-871.9 1137.75,-847.56 1137.75,-785.88 1137.75,-785.88 1137.75,-785.88 1137.75,-579.88 1137.75,-443.29 1102.37,-395.26 1164.75,-273.75 1173.93,-255.88 1189.76,-240.63 1205.08,-228.94"/>
<polygon fill="black" stroke="black" points="1206.72,-232.06 1212.76,-223.36 1202.61,-226.4 1206.72,-232.06"/>
<text xml:space="preserve" text-anchor="middle" x="1153.33" y="-510.07" font-family="Times,serif" font-size="14.00">DDG: </text>
</g>
<!-- 90194313364 -->
<g id="node12" class="node">
<title>90194313364</title>
<polygon fill="none" stroke="black" points="1885.25,-739.25 1788.25,-739.25 1788.25,-684 1885.25,-684 1885.25,-739.25"/>
<text xml:space="preserve" text-anchor="start" x="1796.25" y="-721.95" font-family="Times,serif" font-size="14.00">LITERAL, 428</text>
<text xml:space="preserve" text-anchor="start" x="1823.25" y="-706.2" font-family="Times,serif" font-size="14.00">True</text>
<text xml:space="preserve" text-anchor="start" x="1799.62" y="-690.45" font-family="Times,serif" font-size="14.00">return True</text>
</g>
<!-- 107374182449&#45;&gt;90194313364 -->
<g id="edge22" class="edge">
<title>107374182449&#45;&gt;90194313364</title>
<path fill="none" stroke="black" d="M1529.14,-883.11C1603.7,-882.39 1747.76,-876.93 1786.75,-846.25 1815.83,-823.36 1828,-781.67 1833.09,-750.93"/>
<polygon fill="black" stroke="black" points="1836.52,-751.64 1834.5,-741.24 1829.6,-750.63 1836.52,-751.64"/>
<text xml:space="preserve" text-anchor="middle" x="1818.84" y="-832.95" font-family="Times,serif" font-size="14.00">DDG: </text>
</g>
<!-- 141733920812 -->
<g id="node13" class="node">
<title>141733920812</title>
<polygon fill="none" stroke="black" points="599.25,-313.25 502.25,-313.25 502.25,-273.75 599.25,-273.75 599.25,-313.25"/>
<text xml:space="preserve" text-anchor="start" x="513.62" y="-295.95" font-family="Times,serif" font-size="14.00">RETURN, 422</text>
<text xml:space="preserve" text-anchor="start" x="510.25" y="-280.2" font-family="Times,serif" font-size="14.00">return False</text>
</g>
<!-- 107374182449&#45;&gt;141733920812 -->
<g id="edge26" class="edge">
<title>107374182449&#45;&gt;141733920812</title>
<path fill="none" stroke="black" d="M1438.19,-883.12C1250.35,-883.04 545.75,-876.69 545.75,-785.88 545.75,-785.88 545.75,-785.88 545.75,-383.75 545.75,-364.17 546.96,-342.22 548.2,-324.99"/>
<polygon fill="black" stroke="black" points="551.68,-325.38 548.94,-315.14 544.7,-324.85 551.68,-325.38"/>
<text xml:space="preserve" text-anchor="middle" x="562.62" y="-575.45" font-family="Times,serif" font-size="14.00">DDG: </text>
</g>
<!-- 141733920813 -->
<g id="node14" class="node">
<title>141733920813</title>
<polygon fill="none" stroke="black" points="1735.25,-222 1638.25,-222 1638.25,-182.5 1735.25,-182.5 1735.25,-222"/>
<text xml:space="preserve" text-anchor="start" x="1649.62" y="-204.7" font-family="Times,serif" font-size="14.00">RETURN, 424</text>
<text xml:space="preserve" text-anchor="start" x="1646.25" y="-188.95" font-family="Times,serif" font-size="14.00">return False</text>
</g>
<!-- 107374182449&#45;&gt;141733920813 -->
<g id="edge31" class="edge">
<title>107374182449&#45;&gt;141733920813</title>
<path fill="none" stroke="black" d="M1529.14,-882.92C1595.39,-880.16 1710.75,-864.1 1710.75,-785.88 1710.75,-785.88 1710.75,-785.88 1710.75,-514.5 1710.75,-392.38 1723.19,-359.65 1698.75,-240 1698.31,-237.83 1697.78,-235.61 1697.19,-233.39"/>
<polygon fill="black" stroke="black" points="1700.59,-232.52 1694.38,-223.93 1693.88,-234.52 1700.59,-232.52"/>
<text xml:space="preserve" text-anchor="middle" x="1727.62" y="-510.07" font-family="Times,serif" font-size="14.00">DDG: </text>
</g>
<!-- 141733920814 -->
<g id="node15" class="node">
<title>141733920814</title>
<polygon fill="none" stroke="black" points="1956.25,-130.75 1859.25,-130.75 1859.25,-91.25 1956.25,-91.25 1956.25,-130.75"/>
<text xml:space="preserve" text-anchor="start" x="1870.62" y="-113.45" font-family="Times,serif" font-size="14.00">RETURN, 426</text>
<text xml:space="preserve" text-anchor="start" x="1867.25" y="-97.7" font-family="Times,serif" font-size="14.00">return False</text>
</g>
<!-- 107374182449&#45;&gt;141733920814 -->
<g id="edge35" class="edge">
<title>107374182449&#45;&gt;141733920814</title>
<path fill="none" stroke="black" d="M1529.19,-883.86C1653.63,-884.99 1990.75,-879.42 1990.75,-785.88 1990.75,-785.88 1990.75,-785.88 1990.75,-201.25 1990.75,-175.01 1971.27,-153.25 1951.19,-137.79"/>
<polygon fill="black" stroke="black" points="1953.37,-135.04 1943.21,-132.02 1949.27,-140.71 1953.37,-135.04"/>
<text xml:space="preserve" text-anchor="middle" x="2007.62" y="-444.7" font-family="Times,serif" font-size="14.00">DDG: </text>
</g>
<!-- 68719477204 -->
<g id="node16" class="node">
<title>68719477204</title>
<polygon fill="none" stroke="black" points="2372.5,-812.5 2019,-812.5 2019,-757.25 2372.5,-757.25 2372.5,-812.5"/>
<text xml:space="preserve" text-anchor="start" x="2145.12" y="-795.2" font-family="Times,serif" font-size="14.00">IDENTIFIER, 427</text>
<text xml:space="preserve" text-anchor="start" x="2172.12" y="-779.45" font-family="Times,serif" font-size="14.00">Student</text>
<text xml:space="preserve" text-anchor="start" x="2027" y="-763.7" font-family="Times,serif" font-size="14.00">Student(student_id = student_id, name = name, m...</text>
</g>
<!-- 107374182449&#45;&gt;68719477204 -->
<g id="edge38" class="edge">
<title>107374182449&#45;&gt;68719477204</title>
<path fill="none" stroke="black" d="M1529.16,-883.37C1620.22,-883.34 1831.28,-879.3 2004.75,-846.25 2041.12,-839.32 2080.28,-827.71 2113.62,-816.51"/>
<polygon fill="black" stroke="black" points="2114.45,-819.92 2122.79,-813.38 2112.2,-813.3 2114.45,-819.92"/>
<text xml:space="preserve" text-anchor="middle" x="2085.72" y="-832.95" font-family="Times,serif" font-size="14.00">DDG: </text>
</g>
<!-- 30064771557 -->
<g id="node17" class="node">
<title>30064771557</title>
<polygon fill="none" stroke="black" points="353.5,-130.75 0,-130.75 0,-91.25 353.5,-91.25 353.5,-130.75"/>
<text xml:space="preserve" text-anchor="start" x="136.25" y="-113.45" font-family="Times,serif" font-size="14.00">Student, 427</text>
<text xml:space="preserve" text-anchor="start" x="8" y="-97.7" font-family="Times,serif" font-size="14.00">Student(student_id = student_id, name = name, m...</text>
</g>
<!-- 107374182449&#45;&gt;30064771557 -->
<g id="edge40" class="edge">
<title>107374182449&#45;&gt;30064771557</title>
<path fill="none" stroke="black" d="M1438.39,-882.47C1261.69,-880.25 619.18,-870.63 416.75,-846.25 286.04,-830.51 126.75,-917.53 126.75,-785.88 126.75,-785.88 126.75,-785.88 126.75,-201.25 126.75,-178.62 139.13,-156.41 151.58,-139.81"/>
<polygon fill="black" stroke="black" points="154,-142.39 157.47,-132.38 148.52,-138.03 154,-142.39"/>
<text xml:space="preserve" text-anchor="middle" x="143.62" y="-444.7" font-family="Times,serif" font-size="14.00">DDG: </text>
</g>
<!-- 30064771551 -->
<g id="node18" class="node">
<title>30064771551</title>
<polygon fill="none" stroke="black" points="1455.5,-666 1264,-666 1264,-626.5 1455.5,-626.5 1455.5,-666"/>
<text xml:space="preserve" text-anchor="start" x="1272" y="-648.7" font-family="Times,serif" font-size="14.00">&lt;operator&gt;.logicalNot, 421</text>
<text xml:space="preserve" text-anchor="start" x="1312.5" y="-632.95" font-family="Times,serif" font-size="14.00">not student_id</text>
</g>
<!-- 107374182449&#45;&gt;30064771551 -->
<g id="edge45" class="edge">
<title>107374182449&#45;&gt;30064771551</title>
<path fill="none" stroke="black" d="M1438.29,-871.57C1408.34,-861.42 1371.37,-843.28 1353,-812.5 1328.21,-770.97 1338.97,-712.54 1349.22,-677.44"/>
<polygon fill="black" stroke="black" points="1352.55,-678.52 1352.18,-667.93 1345.87,-676.44 1352.55,-678.52"/>
<text xml:space="preserve" text-anchor="middle" x="1369.88" y="-779.45" font-family="Times,serif" font-size="14.00">DDG: </text>
</g>
<!-- 30064771552 -->
<g id="node19" class="node">
<title>30064771552</title>
<polygon fill="none" stroke="black" points="517.5,-535.25 326,-535.25 326,-495.75 517.5,-495.75 517.5,-535.25"/>
<text xml:space="preserve" text-anchor="start" x="334" y="-517.95" font-family="Times,serif" font-size="14.00">&lt;operator&gt;.logicalNot, 421</text>
<text xml:space="preserve" text-anchor="start" x="394.75" y="-502.2" font-family="Times,serif" font-size="14.00">not name</text>
</g>
<!-- 107374182449&#45;&gt;30064771552 -->
<g id="edge47" class="edge">
<title>107374182449&#45;&gt;30064771552</title>
<path fill="none" stroke="black" d="M1438.21,-882.69C1253.48,-881.24 568.13,-874.02 531.75,-846.25 423.77,-763.83 500.02,-677.34 444.75,-553.25 443.57,-550.6 442.23,-547.92 440.79,-545.27"/>
<polygon fill="black" stroke="black" points="443.84,-543.54 435.75,-536.7 437.8,-547.09 443.84,-543.54"/>
<text xml:space="preserve" text-anchor="middle" x="486.8" y="-706.2" font-family="Times,serif" font-size="14.00">DDG: </text>
</g>
<!-- 90194313360 -->
<g id="node20" class="node">
<title>90194313360</title>
<polygon fill="none" stroke="black" points="808.25,-739.25 711.25,-739.25 711.25,-684 808.25,-684 808.25,-739.25"/>
<text xml:space="preserve" text-anchor="start" x="719.25" y="-721.95" font-family="Times,serif" font-size="14.00">LITERAL, 422</text>
<text xml:space="preserve" text-anchor="start" x="742.88" y="-706.2" font-family="Times,serif" font-size="14.00">False</text>
<text xml:space="preserve" text-anchor="start" x="719.25" y="-690.45" font-family="Times,serif" font-size="14.00">return False</text>
</g>
<!-- 107374182449&#45;&gt;90194313360 -->
<g id="edge48" class="edge">
<title>107374182449&#45;&gt;90194313360</title>
<path fill="none" stroke="black" d="M1438.17,-883.02C1364.08,-882.1 1213.41,-876.29 1090,-846.25 991.31,-822.23 883.34,-774.04 818.61,-742.58"/>
<polygon fill="black" stroke="black" points="820.48,-739.59 809.96,-738.34 817.4,-745.88 820.48,-739.59"/>
<text xml:space="preserve" text-anchor="middle" x="1106.88" y="-832.95" font-family="Times,serif" font-size="14.00">DDG: </text>
</g>
<!-- 90194313361 -->
<g id="node21" class="node">
<title>90194313361</title>
<polygon fill="none" stroke="black" points="1686.25,-477.75 1589.25,-477.75 1589.25,-422.5 1686.25,-422.5 1686.25,-477.75"/>
<text xml:space="preserve" text-anchor="start" x="1597.25" y="-460.45" font-family="Times,serif" font-size="14.00">LITERAL, 424</text>
<text xml:space="preserve" text-anchor="start" x="1620.88" y="-444.7" font-family="Times,serif" font-size="14.00">False</text>
<text xml:space="preserve" text-anchor="start" x="1597.25" y="-428.95" font-family="Times,serif" font-size="14.00">return False</text>
</g>
<!-- 107374182449&#45;&gt;90194313361 -->
<g id="edge49" class="edge">
<title>107374182449&#45;&gt;90194313361</title>
<path fill="none" stroke="black" d="M1529.05,-873.26C1572.25,-861 1630.75,-835.27 1630.75,-785.88 1630.75,-785.88 1630.75,-785.88 1630.75,-579.88 1630.75,-549.53 1632.71,-515.23 1634.56,-489.67"/>
<polygon fill="black" stroke="black" points="1638.05,-489.97 1635.31,-479.74 1631.07,-489.45 1638.05,-489.97"/>
<text xml:space="preserve" text-anchor="middle" x="1647.62" y="-706.2" font-family="Times,serif" font-size="14.00">DDG: </text>
</g>
<!-- 90194313363 -->
<g id="node22" class="node">
<title>90194313363</title>
<polygon fill="none" stroke="black" points="1954.25,-608.5 1857.25,-608.5 1857.25,-553.25 1954.25,-553.25 1954.25,-608.5"/>
<text xml:space="preserve" text-anchor="start" x="1865.25" y="-591.2" font-family="Times,serif" font-size="14.00">LITERAL, 426</text>
<text xml:space="preserve" text-anchor="start" x="1888.88" y="-575.45" font-family="Times,serif" font-size="14.00">False</text>
<text xml:space="preserve" text-anchor="start" x="1865.25" y="-559.7" font-family="Times,serif" font-size="14.00">return False</text>
</g>
<!-- 107374182449&#45;&gt;90194313363 -->
<g id="edge50" class="edge">
<title>107374182449&#45;&gt;90194313363</title>
<path fill="none" stroke="black" d="M1529.29,-883.77C1613.89,-884.33 1791.09,-881.15 1839.75,-846.25 1910.75,-795.33 1913.66,-680.28 1909.77,-620.14"/>
<polygon fill="black" stroke="black" points="1913.27,-620.09 1909.03,-610.38 1906.29,-620.62 1913.27,-620.09"/>
<text xml:space="preserve" text-anchor="middle" x="1914.28" y="-779.45" font-family="Times,serif" font-size="14.00">DDG: </text>
</g>
<!-- 124554051633 -->
<g id="node2" class="node">
<title>124554051633</title>
<polygon fill="none" stroke="black" points="1215.5,-39.5 1078,-39.5 1078,0 1215.5,0 1215.5,-39.5"/>
<text xml:space="preserve" text-anchor="start" x="1086" y="-22.2" font-family="Times,serif" font-size="14.00">METHOD_RETURN, 420</text>
<text xml:space="preserve" text-anchor="start" x="1099.5" y="-6.45" font-family="Times,serif" font-size="14.00">__builtin.bool</text>
</g>
<!-- 111669149758&#45;&gt;124554051633 -->
<g id="edge5" class="edge">
<title>111669149758&#45;&gt;124554051633</title>
<path fill="none" stroke="black" d="M1510.13,-364.51C1518,-339.71 1530.91,-295.08 1535.75,-255.75 1536.61,-248.8 1537.87,-246.67 1535.75,-240 1532.78,-230.66 1526.86,-231.01 1523,-222 1512.75,-198.06 1515.82,-190.22 1511.75,-164.5 1504.26,-117.18 1532.91,-91.09 1498.75,-57.5 1479.76,-38.83 1325.02,-28.59 1227.13,-23.93"/>
<polygon fill="black" stroke="black" points="1227.45,-20.44 1217.3,-23.47 1227.12,-27.43 1227.45,-20.44"/>
<text xml:space="preserve" text-anchor="middle" x="1553.38" y="-196.82" font-family="Times,serif" font-size="14.00">DDG: self</text>
</g>
<!-- 111669149758&#45;&gt;30064771555 -->
<g id="edge29" class="edge">
<title>111669149758&#45;&gt;30064771555</title>
<path fill="none" stroke="black" d="M1461.65,-367.48C1425.57,-353.55 1373.18,-333.3 1332.72,-317.67"/>
<polygon fill="black" stroke="black" points="1334.18,-314.48 1323.59,-314.14 1331.66,-321.01 1334.18,-314.48"/>
<text xml:space="preserve" text-anchor="middle" x="1432.46" y="-333.7" font-family="Times,serif" font-size="14.00">DDG: self</text>
</g>
<!-- 111669149759&#45;&gt;30064771551 -->
<g id="edge44" class="edge">
<title>111669149759&#45;&gt;30064771551</title>
<path fill="none" stroke="black" d="M1414.42,-764.72C1406.63,-757.4 1398.43,-748.56 1392.5,-739.25 1380.36,-720.18 1371.98,-696.02 1366.74,-677.25"/>
<polygon fill="black" stroke="black" points="1370.18,-676.59 1364.26,-667.81 1363.41,-678.37 1370.18,-676.59"/>
<text xml:space="preserve" text-anchor="middle" x="1443.12" y="-706.2" font-family="Times,serif" font-size="14.00">DDG: student_id</text>
</g>
<!-- 111669149760&#45;&gt;124554051633 -->
<g id="edge6" class="edge">
<title>111669149760&#45;&gt;124554051633</title>
<path fill="none" stroke="black" d="M346.79,-626.31C337.16,-604.81 322.45,-568.4 316.75,-535.25 313.77,-517.95 316.63,-513.31 316.75,-495.75 317.42,-397.02 300.72,-369.45 325,-273.75 336.07,-230.13 387.21,-128.3 412.75,-91.25 424.48,-74.23 425.98,-66.16 444.75,-57.5 499.93,-32.05 894.09,-23.96 1066.43,-21.62"/>
<polygon fill="black" stroke="black" points="1066.24,-25.12 1076.19,-21.49 1066.15,-18.12 1066.24,-25.12"/>
<text xml:space="preserve" text-anchor="middle" x="355.38" y="-288.07" font-family="Times,serif" font-size="14.00">DDG: name</text>
</g>
<!-- 111669149760&#45;&gt;30064771557 -->
<g id="edge41" class="edge">
<title>111669149760&#45;&gt;30064771557</title>
<path fill="none" stroke="black" d="M313.55,-635.07C260.35,-619.42 175.75,-583.93 175.75,-516.5 175.75,-516.5 175.75,-516.5 175.75,-201.25 175.75,-181.7 175.99,-159.75 176.24,-142.51"/>
<polygon fill="black" stroke="black" points="179.74,-142.72 176.39,-132.66 172.74,-142.61 179.74,-142.72"/>
<text xml:space="preserve" text-anchor="middle" x="206.12" y="-333.7" font-family="Times,serif" font-size="14.00">DDG: name</text>
</g>
<!-- 111669149760&#45;&gt;30064771552 -->
<g id="edge46" class="edge">
<title>111669149760&#45;&gt;30064771552</title>
<path fill="none" stroke="black" d="M358.74,-626.13C362.42,-606.68 369.98,-576.21 384,-553.25 386.02,-549.95 388.4,-546.74 390.96,-543.67"/>
<polygon fill="black" stroke="black" points="393.3,-546.31 397.53,-536.59 388.16,-541.55 393.3,-546.31"/>
<text xml:space="preserve" text-anchor="middle" x="414.38" y="-575.45" font-family="Times,serif" font-size="14.00">DDG: name</text>
</g>
<!-- 111669149761&#45;&gt;124554051633 -->
<g id="edge7" class="edge">
<title>111669149761&#45;&gt;124554051633</title>
<path fill="none" stroke="black" d="M1606.6,-273.39C1597.78,-222.43 1571.26,-85.32 1536.75,-57.5 1513.22,-38.53 1334.3,-28.18 1227.15,-23.63"/>
<polygon fill="black" stroke="black" points="1227.39,-20.14 1217.25,-23.22 1227.1,-27.13 1227.39,-20.14"/>
<text xml:space="preserve" text-anchor="middle" x="1636.88" y="-151.2" font-family="Times,serif" font-size="14.00">DDG: max_credits</text>
</g>
<!-- 111669149761&#45;&gt;30064771556 -->
<g id="edge32" class="edge">
<title>111669149761&#45;&gt;30064771556</title>
<path fill="none" stroke="black" d="M1564.46,-283.11C1548.19,-279.91 1529.69,-276.46 1512.75,-273.75 1449.93,-263.71 1432.17,-272.31 1370.75,-255.75 1344.93,-248.79 1317.43,-237.57 1294.9,-227.28"/>
<polygon fill="black" stroke="black" points="1296.52,-224.17 1285.97,-223.13 1293.56,-230.52 1296.52,-224.17"/>
<text xml:space="preserve" text-anchor="middle" x="1424.75" y="-242.45" font-family="Times,serif" font-size="14.00">DDG: max_credits</text>
</g>
<!-- 30064771560 -->
<g id="node7" class="node">
<title>30064771560</title>
<polygon fill="none" stroke="black" points="393.5,-39.5 40,-39.5 40,0 393.5,0 393.5,-39.5"/>
<text xml:space="preserve" text-anchor="start" x="129" y="-22.2" font-family="Times,serif" font-size="14.00">&lt;operator&gt;.assignment, 427</text>
<text xml:space="preserve" text-anchor="start" x="48" y="-6.45" font-family="Times,serif" font-size="14.00">self.students[student_id] = Student(student_id ...</text>
</g>
<!-- 141733920815&#45;&gt;124554051633 -->
<g id="edge2" class="edge">
<title>141733920815&#45;&gt;124554051633</title>
<path fill="none" stroke="black" d="M1761.58,-90.79C1738.85,-79 1707.91,-64.8 1678.75,-57.5 1595.5,-36.65 1353.79,-26.73 1226.81,-22.84"/>
<polygon fill="black" stroke="black" points="1227.25,-19.35 1217.15,-22.55 1227.04,-26.34 1227.25,-19.35"/>
<text xml:space="preserve" text-anchor="middle" x="1755.73" y="-59.95" font-family="Times,serif" font-size="14.00">DDG: &lt;RET&gt;</text>
</g>
<!-- 30064771553 -->
<g id="node9" class="node">
<title>30064771553</title>
<polygon fill="none" stroke="black" points="811.5,-404.5 620,-404.5 620,-365 811.5,-365 811.5,-404.5"/>
<text xml:space="preserve" text-anchor="start" x="631.38" y="-387.2" font-family="Times,serif" font-size="14.00">&lt;operator&gt;.logicalOr, 421</text>
<text xml:space="preserve" text-anchor="start" x="628" y="-371.45" font-family="Times,serif" font-size="14.00">not student_id or not name</text>
</g>
<!-- 30064771553&#45;&gt;124554051633 -->
<g id="edge9" class="edge">
<title>30064771553&#45;&gt;124554051633</title>
<path fill="none" stroke="black" d="M706.98,-364.68C704.83,-359.1 702.84,-352.91 701.75,-347 695.86,-314.98 697.16,-305.98 701.75,-273.75 713.65,-190.13 708.3,-161.79 754.75,-91.25 767.73,-71.54 773.98,-66.62 795.75,-57.5 842.99,-37.72 978.21,-28.1 1066.36,-23.81"/>
<polygon fill="black" stroke="black" points="1066.33,-27.31 1076.16,-23.35 1066,-20.32 1066.33,-27.31"/>
<text xml:space="preserve" text-anchor="middle" x="778.22" y="-196.82" font-family="Times,serif" font-size="14.00">DDG: not student_id</text>
</g>
<!-- 30064771553&#45;&gt;124554051633 -->
<g id="edge11" class="edge">
<title>30064771553&#45;&gt;124554051633</title>
<path fill="none" stroke="black" d="M713.07,-364.52C710.81,-339.96 711.08,-297.77 734.75,-273.75 822.03,-185.15 930.36,-317.73 1009.75,-222 1020.96,-208.49 1021.66,-195.39 1009.75,-182.5 975.41,-145.33 817.09,-201.67 782.75,-164.5 760.66,-140.59 762.03,-116.36 782.75,-91.25 817.98,-48.54 970.2,-31.4 1066.29,-24.75"/>
<polygon fill="black" stroke="black" points="1066.46,-28.24 1076.21,-24.09 1066,-21.26 1066.46,-28.24"/>
<text xml:space="preserve" text-anchor="middle" x="1062.3" y="-196.82" font-family="Times,serif" font-size="14.00">DDG: not name</text>
</g>
<!-- 30064771553&#45;&gt;124554051633 -->
<g id="edge12" class="edge">
<title>30064771553&#45;&gt;124554051633</title>
<path fill="none" stroke="black" d="M700.66,-364.55C681.21,-340.79 645.39,-300.24 607.75,-273.75 562.83,-242.13 525.12,-268.27 495.5,-222 486.04,-207.21 486.05,-197.3 495.5,-182.5 530.99,-126.89 701.09,-74.79 764.75,-57.5 866.32,-29.9 988.01,-22.37 1066.3,-20.65"/>
<polygon fill="black" stroke="black" points="1066.08,-24.16 1076.02,-20.47 1065.95,-17.16 1066.08,-24.16"/>
<text xml:space="preserve" text-anchor="middle" x="600.12" y="-196.82" font-family="Times,serif" font-size="14.00">DDG: not student_id or not name</text>
</g>
<!-- 30064771553&#45;&gt;30064771555 -->
<g id="edge53" class="edge">
<title>30064771553&#45;&gt;30064771555</title>
<path fill="none" stroke="black" d="M811.82,-368.36C909.16,-352.76 1059.58,-328.66 1161.91,-312.26"/>
<polygon fill="black" stroke="black" points="1162.39,-315.73 1171.71,-310.69 1161.29,-308.82 1162.39,-315.73"/>
<text xml:space="preserve" text-anchor="middle" x="1044.47" y="-333.7" font-family="Times,serif" font-size="14.00">CDG: </text>
</g>
<!-- 30064771553&#45;&gt;141733920812 -->
<g id="edge52" class="edge">
<title>30064771553&#45;&gt;141733920812</title>
<path fill="none" stroke="black" d="M642.19,-364.52C629.34,-359.73 616.44,-353.93 605,-347 593.96,-340.31 583.38,-330.99 574.54,-322.06"/>
<polygon fill="black" stroke="black" points="577.1,-319.68 567.69,-314.82 572.02,-324.49 577.1,-319.68"/>
<text xml:space="preserve" text-anchor="middle" x="621.88" y="-333.7" font-family="Times,serif" font-size="14.00">CDG: </text>
</g>
<!-- 30064771554 -->
<g id="node24" class="node">
<title>30064771554</title>
<polygon fill="none" stroke="black" points="941.88,-313.25 743.62,-313.25 743.62,-273.75 941.88,-273.75 941.88,-313.25"/>
<text xml:space="preserve" text-anchor="start" x="751.62" y="-295.95" font-family="Times,serif" font-size="14.00">&lt;operator&gt;.fieldAccess, 423</text>
<text xml:space="preserve" text-anchor="start" x="798.88" y="-280.2" font-family="Times,serif" font-size="14.00">self.students</text>
</g>
<!-- 30064771553&#45;&gt;30064771554 -->
<g id="edge54" class="edge">
<title>30064771553&#45;&gt;30064771554</title>
<path fill="none" stroke="black" d="M742.99,-364.6C761.49,-351.6 786.16,-334.27 806.34,-320.08"/>
<polygon fill="black" stroke="black" points="808.14,-323.1 814.31,-314.48 804.12,-317.37 808.14,-323.1"/>
<text xml:space="preserve" text-anchor="middle" x="803.73" y="-333.7" font-family="Times,serif" font-size="14.00">CDG: </text>
</g>
<!-- 55834574933 -->
<g id="node26" class="node">
<title>55834574933</title>
<polygon fill="none" stroke="black" points="1117.62,-313.25 959.88,-313.25 959.88,-273.75 1117.62,-273.75 1117.62,-313.25"/>
<text xml:space="preserve" text-anchor="start" x="967.88" y="-295.95" font-family="Times,serif" font-size="14.00">FIELD_IDENTIFIER, 423</text>
<text xml:space="preserve" text-anchor="start" x="1011.75" y="-280.2" font-family="Times,serif" font-size="14.00">students</text>
</g>
<!-- 30064771553&#45;&gt;55834574933 -->
<g id="edge51" class="edge">
<title>30064771553&#45;&gt;55834574933</title>
<path fill="none" stroke="black" d="M785.04,-364.6C835.94,-350.54 905.22,-331.4 958.52,-316.67"/>
<polygon fill="black" stroke="black" points="959.13,-320.13 967.84,-314.09 957.27,-313.38 959.13,-320.13"/>
<text xml:space="preserve" text-anchor="middle" x="913.46" y="-333.7" font-family="Times,serif" font-size="14.00">CDG: </text>
</g>
<!-- 30064771555&#45;&gt;30064771556 -->
<g id="edge56" class="edge">
<title>30064771555&#45;&gt;30064771556</title>
<path fill="none" stroke="black" d="M1267.24,-273.57C1263.85,-261.94 1259.43,-246.77 1255.56,-233.49"/>
<polygon fill="black" stroke="black" points="1258.93,-232.53 1252.77,-223.91 1252.21,-234.49 1258.93,-232.53"/>
<text xml:space="preserve" text-anchor="middle" x="1278.18" y="-242.45" font-family="Times,serif" font-size="14.00">CDG: </text>
</g>
<!-- 30064771555&#45;&gt;141733920813 -->
<g id="edge55" class="edge">
<title>30064771555&#45;&gt;141733920813</title>
<path fill="none" stroke="black" d="M1372.26,-275.43C1414.3,-268.07 1458.24,-260.16 1478.75,-255.75 1528.95,-244.95 1585.4,-230.56 1626.81,-219.57"/>
<polygon fill="black" stroke="black" points="1627.59,-222.99 1636.35,-217.03 1625.78,-216.23 1627.59,-222.99"/>
<text xml:space="preserve" text-anchor="middle" x="1558.83" y="-242.45" font-family="Times,serif" font-size="14.00">CDG: </text>
</g>
<!-- 30064771555&#45;&gt;30064771557 -->
<g id="edge39" class="edge">
<title>30064771555&#45;&gt;30064771557</title>
<path fill="none" stroke="black" d="M1173.17,-279.12C1081.9,-265.79 954.21,-244.18 908.5,-222 884.33,-210.27 887.79,-192.24 862.75,-182.5 736.35,-133.35 381.61,-206.77 252.75,-164.5 235.79,-158.94 219.21,-148.28 205.89,-138.02"/>
<polygon fill="black" stroke="black" points="208.38,-135.54 198.4,-132 203.99,-140.99 208.38,-135.54"/>
<text xml:space="preserve" text-anchor="middle" x="959.12" y="-196.82" font-family="Times,serif" font-size="14.00">DDG: student_id</text>
</g>
<!-- 30064771556&#45;&gt;30064771560 -->
<g id="edge63" class="edge">
<title>30064771556&#45;&gt;30064771560</title>
<path fill="none" stroke="black" d="M1137.19,-183.41C1051.8,-169.4 930.3,-149.24 824,-130.75 652.29,-100.88 453.61,-64.56 331.56,-42.04"/>
<polygon fill="black" stroke="black" points="332.32,-38.62 321.85,-40.25 331.05,-45.5 332.32,-38.62"/>
<text xml:space="preserve" text-anchor="middle" x="840.88" y="-105.58" font-family="Times,serif" font-size="14.00">CDG: </text>
</g>
<!-- 30064771556&#45;&gt;141733920815 -->
<g id="edge58" class="edge">
<title>30064771556&#45;&gt;141733920815</title>
<path fill="none" stroke="black" d="M1338.89,-182.02C1394.59,-170.97 1467.14,-157.56 1532,-148.75 1622.08,-136.51 1646.57,-148.41 1735.75,-130.75 1736.93,-130.52 1738.11,-130.27 1739.31,-130.01"/>
<polygon fill="black" stroke="black" points="1739.8,-133.49 1748.68,-127.72 1738.13,-126.69 1739.8,-133.49"/>
<text xml:space="preserve" text-anchor="middle" x="1548.88" y="-151.2" font-family="Times,serif" font-size="14.00">CDG: </text>
</g>
<!-- 30064771556&#45;&gt;141733920814 -->
<g id="edge57" class="edge">
<title>30064771556&#45;&gt;141733920814</title>
<path fill="none" stroke="black" d="M1356.43,-192.29C1394.52,-189.18 1437.52,-185.68 1476.75,-182.5 1575.86,-174.46 1601.45,-179.45 1699.75,-164.5 1763.88,-154.75 1782.03,-149.34 1847.81,-131.2"/>
<polygon fill="black" stroke="black" points="1848.63,-134.6 1857.34,-128.57 1846.77,-127.86 1848.63,-134.6"/>
<text xml:space="preserve" text-anchor="middle" x="1797.24" y="-151.2" font-family="Times,serif" font-size="14.00">CDG: </text>
</g>
<!-- 30064771556&#45;&gt;30064771557 -->
<g id="edge43" class="edge">
<title>30064771556&#45;&gt;30064771557</title>
<path fill="none" stroke="black" d="M1137.19,-183.81C1132.66,-183.33 1128.16,-182.88 1123.75,-182.5 943.5,-166.83 487.11,-200.27 309.75,-164.5 280.58,-158.62 249.57,-146.73 224.83,-135.76"/>
<polygon fill="black" stroke="black" points="226.57,-132.7 216.02,-131.75 223.67,-139.07 226.57,-132.7"/>
<text xml:space="preserve" text-anchor="middle" x="363.75" y="-151.2" font-family="Times,serif" font-size="14.00">DDG: max_credits</text>
</g>
<!-- 30064771556&#45;&gt;30064771557 -->
<g id="edge60" class="edge">
<title>30064771556&#45;&gt;30064771557</title>
<path fill="none" stroke="black" d="M1137.17,-184C1132.64,-183.46 1128.15,-182.96 1123.75,-182.5 981.74,-167.72 945.43,-174.46 803,-164.5 655.75,-154.2 489.23,-140.12 364.93,-129.14"/>
<polygon fill="black" stroke="black" points="365.57,-125.68 355.3,-128.29 364.96,-132.65 365.57,-125.68"/>
<text xml:space="preserve" text-anchor="middle" x="819.88" y="-151.2" font-family="Times,serif" font-size="14.00">CDG: </text>
</g>
<!-- 30064771559 -->
<g id="node23" class="node">
<title>30064771559</title>
<polygon fill="none" stroke="black" points="1064.88,-130.75 866.62,-130.75 866.62,-91.25 1064.88,-91.25 1064.88,-130.75"/>
<text xml:space="preserve" text-anchor="start" x="874.62" y="-113.45" font-family="Times,serif" font-size="14.00">&lt;operator&gt;.indexAccess, 427</text>
<text xml:space="preserve" text-anchor="start" x="881.38" y="-97.7" font-family="Times,serif" font-size="14.00">self.students[student_id]</text>
</g>
<!-- 30064771556&#45;&gt;30064771559 -->
<g id="edge62" class="edge">
<title>30064771556&#45;&gt;30064771559</title>
<path fill="none" stroke="black" d="M1186.47,-182.1C1142.58,-168.16 1082.97,-149.23 1036.77,-134.56"/>
<polygon fill="black" stroke="black" points="1037.96,-131.26 1027.37,-131.57 1035.85,-137.94 1037.96,-131.26"/>
<text xml:space="preserve" text-anchor="middle" x="1139.95" y="-151.2" font-family="Times,serif" font-size="14.00">CDG: </text>
</g>
<!-- 30064771558 -->
<g id="node25" class="node">
<title>30064771558</title>
<polygon fill="none" stroke="black" points="1280.88,-130.75 1082.62,-130.75 1082.62,-91.25 1280.88,-91.25 1280.88,-130.75"/>
<text xml:space="preserve" text-anchor="start" x="1090.62" y="-113.45" font-family="Times,serif" font-size="14.00">&lt;operator&gt;.fieldAccess, 427</text>
<text xml:space="preserve" text-anchor="start" x="1137.88" y="-97.7" font-family="Times,serif" font-size="14.00">self.students</text>
</g>
<!-- 30064771556&#45;&gt;30064771558 -->
<g id="edge61" class="edge">
<title>30064771556&#45;&gt;30064771558</title>
<path fill="none" stroke="black" d="M1232.97,-182.32C1224.06,-170.1 1212.32,-153.97 1202.32,-140.25"/>
<polygon fill="black" stroke="black" points="1205.35,-138.45 1196.63,-132.43 1199.69,-142.58 1205.35,-138.45"/>
<text xml:space="preserve" text-anchor="middle" x="1235.02" y="-151.2" font-family="Times,serif" font-size="14.00">CDG: </text>
</g>
<!-- 55834574934 -->
<g id="node27" class="node">
<title>55834574934</title>
<polygon fill="none" stroke="black" points="1456.62,-130.75 1298.88,-130.75 1298.88,-91.25 1456.62,-91.25 1456.62,-130.75"/>
<text xml:space="preserve" text-anchor="start" x="1306.88" y="-113.45" font-family="Times,serif" font-size="14.00">FIELD_IDENTIFIER, 427</text>
<text xml:space="preserve" text-anchor="start" x="1350.75" y="-97.7" font-family="Times,serif" font-size="14.00">students</text>
</g>
<!-- 30064771556&#45;&gt;55834574934 -->
<g id="edge59" class="edge">
<title>30064771556&#45;&gt;55834574934</title>
<path fill="none" stroke="black" d="M1274.85,-182.1C1293.93,-169.1 1319.38,-151.77 1340.2,-137.58"/>
<polygon fill="black" stroke="black" points="1342.15,-140.49 1348.44,-131.97 1338.21,-134.7 1342.15,-140.49"/>
<text xml:space="preserve" text-anchor="middle" x="1336.97" y="-151.2" font-family="Times,serif" font-size="14.00">CDG: </text>
</g>
<!-- 90194313364&#45;&gt;141733920815 -->
<g id="edge20" class="edge">
<title>90194313364&#45;&gt;141733920815</title>
<path fill="none" stroke="black" d="M1834.54,-683.68C1829.74,-622.61 1818.75,-468.92 1818.75,-340.12 1818.75,-340.12 1818.75,-340.12 1818.75,-201.25 1818.75,-180.9 1813.08,-158.75 1807.36,-141.61"/>
<polygon fill="black" stroke="black" points="1810.8,-140.82 1804.17,-132.56 1804.2,-143.16 1810.8,-140.82"/>
<text xml:space="preserve" text-anchor="middle" x="1849.88" y="-379.32" font-family="Times,serif" font-size="14.00">DDG: True</text>
</g>
<!-- 141733920812&#45;&gt;124554051633 -->
<g id="edge3" class="edge">
<title>141733920812&#45;&gt;124554051633</title>
<path fill="none" stroke="black" d="M519.95,-273.48C501.55,-260.81 478.9,-242.71 463.75,-222 447.55,-199.85 446.34,-191.47 441.25,-164.5 430.82,-109.25 459.29,-84.25 508.75,-57.5 556.61,-31.62 905.74,-23.82 1066.33,-21.59"/>
<polygon fill="black" stroke="black" points="1066.09,-25.1 1076.05,-21.46 1066,-18.1 1066.09,-25.1"/>
<text xml:space="preserve" text-anchor="middle" x="475" y="-151.2" font-family="Times,serif" font-size="14.00">DDG: &lt;RET&gt;</text>
</g>
<!-- 141733920813&#45;&gt;124554051633 -->
<g id="edge1" class="edge">
<title>141733920813&#45;&gt;124554051633</title>
<path fill="none" stroke="black" d="M1695.96,-182.04C1699.54,-171.76 1701.73,-159.12 1696.75,-148.75 1691.2,-137.21 1683.77,-139.32 1674.25,-130.75 1640.2,-100.11 1643.28,-76.83 1601.75,-57.5 1537.23,-27.48 1339.33,-21.49 1226.93,-20.59"/>
<polygon fill="black" stroke="black" points="1227.2,-17.09 1217.17,-20.53 1227.15,-24.09 1227.2,-17.09"/>
<text xml:space="preserve" text-anchor="middle" x="1708" y="-105.58" font-family="Times,serif" font-size="14.00">DDG: &lt;RET&gt;</text>
</g>
<!-- 141733920814&#45;&gt;124554051633 -->
<g id="edge4" class="edge">
<title>141733920814&#45;&gt;124554051633</title>
<path fill="none" stroke="black" d="M1875.04,-90.93C1852.88,-79.03 1822.5,-64.66 1793.75,-57.5 1688.68,-31.32 1375.83,-23.74 1227.06,-21.58"/>
<polygon fill="black" stroke="black" points="1227.34,-18.08 1217.29,-21.44 1227.24,-25.08 1227.34,-18.08"/>
<text xml:space="preserve" text-anchor="middle" x="1869.73" y="-59.95" font-family="Times,serif" font-size="14.00">DDG: &lt;RET&gt;</text>
</g>
<!-- 30064771557&#45;&gt;30064771560 -->
<g id="edge17" class="edge">
<title>30064771557&#45;&gt;30064771560</title>
<path fill="none" stroke="black" d="M64.43,-90.83C47.7,-83.12 39.55,-72.4 51.5,-57.5 55.78,-52.16 63.99,-47.54 74.54,-43.57"/>
<polygon fill="black" stroke="black" points="75.52,-46.93 83.89,-40.43 73.29,-40.29 75.52,-46.93"/>
<text xml:space="preserve" text-anchor="middle" x="102.12" y="-59.95" font-family="Times,serif" font-size="14.00">DDG: student_id</text>
</g>
<!-- 30064771557&#45;&gt;30064771560 -->
<g id="edge18" class="edge">
<title>30064771557&#45;&gt;30064771560</title>
<path fill="none" stroke="black" d="M172.69,-90.76C171.44,-80.47 171.41,-67.83 176,-57.5 177.43,-54.3 179.28,-51.25 181.42,-48.39"/>
<polygon fill="black" stroke="black" points="183.95,-50.81 188,-41.02 178.73,-46.15 183.95,-50.81"/>
<text xml:space="preserve" text-anchor="middle" x="206.38" y="-59.95" font-family="Times,serif" font-size="14.00">DDG: name</text>
</g>
<!-- 30064771557&#45;&gt;30064771560 -->
<g id="edge19" class="edge">
<title>30064771557&#45;&gt;30064771560</title>
<path fill="none" stroke="black" d="M220.33,-90.94C226.91,-86.13 232.81,-80.28 236.75,-73.25 240.81,-66 239.95,-57.75 237,-49.98"/>
<polygon fill="black" stroke="black" points="240.2,-48.56 232.61,-41.17 233.93,-51.68 240.2,-48.56"/>
<text xml:space="preserve" text-anchor="middle" x="293.51" y="-59.95" font-family="Times,serif" font-size="14.00">DDG: max_credits</text>
</g>
<!-- 30064771551&#45;&gt;124554051633 -->
<g id="edge8" class="edge">
<title>30064771551&#45;&gt;124554051633</title>
<path fill="none" stroke="black" d="M1371.68,-626.38C1374.74,-620.8 1377.73,-614.56 1379.75,-608.5 1398.3,-552.78 1394.52,-536.32 1398.75,-477.75 1403.45,-412.78 1403.92,-395.74 1394.75,-331.25 1391.05,-305.21 1396.34,-294.93 1380.75,-273.75 1371.53,-261.23 1358.41,-269.28 1350.75,-255.75 1347.3,-249.66 1347.99,-246.43 1350.75,-240 1357.7,-223.8 1458.8,-146.95 1465.75,-130.75 1472.68,-114.62 1476.74,-104.94 1465.75,-91.25 1436.38,-54.68 1311.8,-35.94 1227.3,-27.25"/>
<polygon fill="black" stroke="black" points="1227.72,-23.77 1217.42,-26.26 1227.03,-30.74 1227.72,-23.77"/>
<text xml:space="preserve" text-anchor="middle" x="1443.76" y="-288.07" font-family="Times,serif" font-size="14.00">DDG: student_id</text>
</g>
<!-- 30064771551&#45;&gt;30064771553 -->
<g id="edge23" class="edge">
<title>30064771551&#45;&gt;30064771553</title>
<path fill="none" stroke="black" d="M1342.14,-626.2C1311.49,-594.23 1244.95,-529.91 1175.75,-495.75 1062.43,-439.81 919.1,-411.38 822.81,-397.59"/>
<polygon fill="black" stroke="black" points="823.48,-394.15 813.09,-396.23 822.51,-401.08 823.48,-394.15"/>
<text xml:space="preserve" text-anchor="middle" x="1287.7" y="-510.07" font-family="Times,serif" font-size="14.00">DDG: student_id</text>
</g>
<!-- 30064771551&#45;&gt;30064771555 -->
<g id="edge27" class="edge">
<title>30064771551&#45;&gt;30064771555</title>
<path fill="none" stroke="black" d="M1363.25,-626.49C1367.86,-595.78 1372.26,-534.35 1342.75,-495.75 1329.6,-478.56 1310.83,-494.81 1297.5,-477.75 1263.02,-433.62 1264.04,-364.54 1268.19,-325"/>
<polygon fill="black" stroke="black" points="1271.64,-325.59 1269.36,-315.25 1264.69,-324.76 1271.64,-325.59"/>
<text xml:space="preserve" text-anchor="middle" x="1348.12" y="-444.7" font-family="Times,serif" font-size="14.00">DDG: student_id</text>
</g>
<!-- 30064771551&#45;&gt;30064771552 -->
<g id="edge64" class="edge">
<title>30064771551&#45;&gt;30064771552</title>
<path fill="none" stroke="black" d="M1263.78,-632.08C1087.58,-607.89 713.73,-556.58 529.27,-531.26"/>
<polygon fill="black" stroke="black" points="529.82,-527.8 519.44,-529.91 528.87,-534.74 529.82,-527.8"/>
<text xml:space="preserve" text-anchor="middle" x="1099.46" y="-575.45" font-family="Times,serif" font-size="14.00">CDG: </text>
</g>
<!-- 30064771552&#45;&gt;124554051633 -->
<g id="edge10" class="edge">
<title>30064771552&#45;&gt;124554051633</title>
<path fill="none" stroke="black" d="M416.54,-495.52C400.43,-432.72 357.12,-227.95 435.75,-91.25 447.86,-70.19 456.01,-66.06 478.75,-57.5 532.44,-37.28 901.18,-26.38 1066.67,-22.46"/>
<polygon fill="black" stroke="black" points="1066.32,-25.97 1076.23,-22.23 1066.15,-18.97 1066.32,-25.97"/>
<text xml:space="preserve" text-anchor="middle" x="422.78" y="-242.45" font-family="Times,serif" font-size="14.00">DDG: name</text>
</g>
<!-- 30064771552&#45;&gt;30064771553 -->
<g id="edge24" class="edge">
<title>30064771552&#45;&gt;30064771553</title>
<path fill="none" stroke="black" d="M465.45,-495.36C517.59,-472.53 604.81,-434.34 661.29,-409.6"/>
<polygon fill="black" stroke="black" points="662.67,-412.82 670.43,-405.6 659.86,-406.4 662.67,-412.82"/>
<text xml:space="preserve" text-anchor="middle" x="659.25" y="-444.7" font-family="Times,serif" font-size="14.00">DDG: name</text>
</g>
<!-- 30064771552&#45;&gt;30064771557 -->
<g id="edge42" class="edge">
<title>30064771552&#45;&gt;30064771557</title>
<path fill="none" stroke="black" d="M398.1,-495.38C358.76,-462.33 279.86,-390.59 236,-313.25 231.69,-305.65 200.54,-196.34 185.22,-142.09"/>
<polygon fill="black" stroke="black" points="188.61,-141.23 182.53,-132.56 181.88,-143.13 188.61,-141.23"/>
<text xml:space="preserve" text-anchor="middle" x="266.38" y="-288.07" font-family="Times,serif" font-size="14.00">DDG: name</text>
</g>
<!-- 90194313360&#45;&gt;141733920812 -->
<g id="edge25" class="edge">
<title>90194313360&#45;&gt;141733920812</title>
<path fill="none" stroke="black" d="M746.2,-683.64C708.7,-608.99 603.82,-400.16 565.23,-323.34"/>
<polygon fill="black" stroke="black" points="568.54,-322.12 560.92,-314.75 562.28,-325.26 568.54,-322.12"/>
<text xml:space="preserve" text-anchor="middle" x="703.59" y="-510.07" font-family="Times,serif" font-size="14.00">DDG: False</text>
</g>
<!-- 90194313361&#45;&gt;141733920813 -->
<g id="edge30" class="edge">
<title>90194313361&#45;&gt;141733920813</title>
<path fill="none" stroke="black" d="M1631.57,-422.22C1627.29,-397.2 1624.65,-359.64 1639.25,-331.25 1645.43,-319.23 1656.44,-324.61 1663.75,-313.25 1679.12,-289.36 1684.45,-257.05 1686.18,-233.64"/>
<polygon fill="black" stroke="black" points="1689.67,-233.98 1686.71,-223.81 1682.68,-233.61 1689.67,-233.98"/>
<text xml:space="preserve" text-anchor="middle" x="1673" y="-333.7" font-family="Times,serif" font-size="14.00">DDG: False</text>
</g>
<!-- 90194313363&#45;&gt;141733920814 -->
<g id="edge34" class="edge">
<title>90194313363&#45;&gt;141733920814</title>
<path fill="none" stroke="black" d="M1906.4,-553.25C1906.99,-527.21 1907.75,-486.45 1907.75,-451.12 1907.75,-451.12 1907.75,-451.12 1907.75,-201.25 1907.75,-181.7 1907.75,-159.75 1907.75,-142.51"/>
<polygon fill="black" stroke="black" points="1911.25,-142.66 1907.75,-132.66 1904.25,-142.66 1911.25,-142.66"/>
<text xml:space="preserve" text-anchor="middle" x="1941.5" y="-333.7" font-family="Times,serif" font-size="14.00">DDG: False</text>
</g>
<!-- 30064771353 -->
<g id="node28" class="node">
<title>30064771353</title>
<polygon fill="none" stroke="black" points="2294.88,-902 2204.62,-902 2204.62,-866 2294.88,-866 2294.88,-902"/>
<text xml:space="preserve" text-anchor="middle" x="2249.75" y="-878.58" font-family="Times,serif" font-size="14.00">30064771353</text>
</g>
<!-- 30064771353&#45;&gt;68719477204 -->
<g id="edge36" class="edge">
<title>30064771353&#45;&gt;68719477204</title>
<path fill="none" stroke="black" d="M2243.11,-865.57C2238.9,-855.15 2233.07,-841.79 2226.75,-830.5 2225.2,-827.72 2223.51,-824.9 2221.76,-822.1"/>
<polygon fill="black" stroke="black" points="2224.86,-820.44 2216.46,-813.98 2219,-824.26 2224.86,-820.44"/>
<text xml:space="preserve" text-anchor="middle" x="2275.09" y="-832.95" font-family="Times,serif" font-size="14.00">DDG: Student</text>
</g>
<!-- 30064771354 -->
<g id="node29" class="node">
<title>30064771354</title>
<polygon fill="none" stroke="black" points="2186.88,-902 2096.62,-902 2096.62,-866 2186.88,-866 2186.88,-902"/>
<text xml:space="preserve" text-anchor="middle" x="2141.75" y="-878.58" font-family="Times,serif" font-size="14.00">30064771354</text>
</g>
<!-- 30064771354&#45;&gt;68719477204 -->
<g id="edge37" class="edge">
<title>30064771354&#45;&gt;68719477204</title>
<path fill="none" stroke="black" d="M2138.14,-865.64C2136.78,-855 2136.62,-841.38 2141.75,-830.5 2143.23,-827.36 2145.05,-824.36 2147.12,-821.51"/>
<polygon fill="black" stroke="black" points="2149.63,-823.97 2153.48,-814.1 2144.31,-819.41 2149.63,-823.97"/>
<text xml:space="preserve" text-anchor="middle" x="2182.25" y="-832.95" font-family="Times,serif" font-size="14.00">DDG: Student</text>
</g>
</g>
</svg>
