<?xml version="1.0" encoding="UTF-8" standalone="no"?>
<!DOCTYPE svg PUBLIC "-//W3C//DTD SVG 1.1//EN"
 "http://www.w3.org/Graphics/SVG/1.1/DTD/svg11.dtd">
<!-- Generated by graphviz version 13.1.2 (20250809.0930)
 -->
<!-- Title: add_instructor Pages: 1 -->
<svg width="2588pt" height="821pt"
 viewBox="0.00 0.00 2588.00 821.00" xmlns="http://www.w3.org/2000/svg" xmlns:xlink="http://www.w3.org/1999/xlink">
<g id="graph0" class="graph" transform="scale(1 1) rotate(0) translate(4 816.5)">
<title>add_instructor</title>
<polygon fill="white" stroke="none" points="-4,4 -4,-816.5 2583.8,-816.5 2583.8,4 -4,4"/>
<!-- 107374182453 -->
<g id="node1" class="node">
<title>107374182453</title>
<polygon fill="none" stroke="black" points="1480.75,-812.5 1370.25,-812.5 1370.25,-773 1480.75,-773 1480.75,-812.5"/>
<text xml:space="preserve" text-anchor="start" x="1388.38" y="-795.2" font-family="Times,serif" font-size="14.00">METHOD, 476</text>
<text xml:space="preserve" text-anchor="start" x="1378.25" y="-779.45" font-family="Times,serif" font-size="14.00">add_instructor</text>
</g>
<!-- 111669149771 -->
<g id="node3" class="node">
<title>111669149771</title>
<polygon fill="none" stroke="black" points="1333.25,-313.25 1249.75,-313.25 1249.75,-273.75 1333.25,-273.75 1333.25,-313.25"/>
<text xml:space="preserve" text-anchor="start" x="1257.75" y="-295.95" font-family="Times,serif" font-size="14.00">PARAM, 476</text>
<text xml:space="preserve" text-anchor="start" x="1278" y="-280.2" font-family="Times,serif" font-size="14.00">self</text>
</g>
<!-- 107374182453&#45;&gt;111669149771 -->
<g id="edge13" class="edge">
<title>107374182453&#45;&gt;111669149771</title>
<path fill="none" stroke="black" d="M1425.5,-772.77C1425.5,-753.19 1425.5,-721.77 1425.5,-694.62 1425.5,-694.62 1425.5,-694.62 1425.5,-423.25 1425.5,-381.89 1438.53,-362.55 1411.5,-331.25 1394.9,-312.03 1368.55,-302.69 1344.76,-298.23"/>
<polygon fill="black" stroke="black" points="1345.62,-294.82 1335.19,-296.69 1344.51,-301.73 1345.62,-294.82"/>
<text xml:space="preserve" text-anchor="middle" x="1442.38" y="-549.58" font-family="Times,serif" font-size="14.00">DDG: </text>
</g>
<!-- 111669149772 -->
<g id="node4" class="node">
<title>111669149772</title>
<polygon fill="none" stroke="black" points="1123.38,-713.38 1019.62,-713.38 1019.62,-673.88 1123.38,-673.88 1123.38,-713.38"/>
<text xml:space="preserve" text-anchor="start" x="1037.75" y="-696.08" font-family="Times,serif" font-size="14.00">PARAM, 476</text>
<text xml:space="preserve" text-anchor="start" x="1027.62" y="-680.33" font-family="Times,serif" font-size="14.00">instructor_id</text>
</g>
<!-- 107374182453&#45;&gt;111669149772 -->
<g id="edge14" class="edge">
<title>107374182453&#45;&gt;111669149772</title>
<path fill="none" stroke="black" d="M1369.76,-790.76C1291.47,-788.46 1153.78,-780.75 1111.75,-755 1099.79,-747.67 1090.61,-735.29 1084.07,-723.64"/>
<polygon fill="black" stroke="black" points="1087.36,-722.39 1079.68,-715.09 1081.13,-725.58 1087.36,-722.39"/>
<text xml:space="preserve" text-anchor="middle" x="1128.62" y="-741.7" font-family="Times,serif" font-size="14.00">DDG: </text>
</g>
<!-- 111669149773 -->
<g id="node5" class="node">
<title>111669149773</title>
<polygon fill="none" stroke="black" points="1656.25,-574.75 1572.75,-574.75 1572.75,-535.25 1656.25,-535.25 1656.25,-574.75"/>
<text xml:space="preserve" text-anchor="start" x="1580.75" y="-557.45" font-family="Times,serif" font-size="14.00">PARAM, 476</text>
<text xml:space="preserve" text-anchor="start" x="1601" y="-541.7" font-family="Times,serif" font-size="14.00">name</text>
</g>
<!-- 107374182453&#45;&gt;111669149773 -->
<g id="edge15" class="edge">
<title>107374182453&#45;&gt;111669149773</title>
<path fill="none" stroke="black" d="M1481.06,-788.38C1507.06,-784.03 1536.61,-774.69 1556.5,-755 1602.43,-709.53 1612.46,-629.9 1614.36,-586.43"/>
<polygon fill="black" stroke="black" points="1617.85,-586.81 1614.65,-576.7 1610.85,-586.59 1617.85,-586.81"/>
<text xml:space="preserve" text-anchor="middle" x="1619.16" y="-688.2" font-family="Times,serif" font-size="14.00">DDG: </text>
</g>
<!-- 111669149774 -->
<g id="node6" class="node">
<title>111669149774</title>
<polygon fill="none" stroke="black" points="2116.25,-222 2032.75,-222 2032.75,-182.5 2116.25,-182.5 2116.25,-222"/>
<text xml:space="preserve" text-anchor="start" x="2040.75" y="-204.7" font-family="Times,serif" font-size="14.00">PARAM, 476</text>
<text xml:space="preserve" text-anchor="start" x="2040.75" y="-188.95" font-family="Times,serif" font-size="14.00">department</text>
</g>
<!-- 107374182453&#45;&gt;111669149774 -->
<g id="edge16" class="edge">
<title>107374182453&#45;&gt;111669149774</title>
<path fill="none" stroke="black" d="M1481.09,-789.29C1638.76,-781.57 2077.5,-754.71 2077.5,-694.62 2077.5,-694.62 2077.5,-694.62 2077.5,-292.5 2077.5,-272.94 2076.77,-250.99 2076.03,-233.75"/>
<polygon fill="black" stroke="black" points="2079.54,-233.74 2075.58,-223.91 2072.54,-234.06 2079.54,-233.74"/>
<text xml:space="preserve" text-anchor="middle" x="2094.38" y="-484.2" font-family="Times,serif" font-size="14.00">DDG: </text>
</g>
<!-- 141733920827 -->
<g id="node8" class="node">
<title>141733920827</title>
<polygon fill="none" stroke="black" points="1794.62,-130.75 1704.38,-130.75 1704.38,-91.25 1794.62,-91.25 1794.62,-130.75"/>
<text xml:space="preserve" text-anchor="start" x="1712.38" y="-113.45" font-family="Times,serif" font-size="14.00">RETURN, 486</text>
<text xml:space="preserve" text-anchor="start" x="1712.38" y="-97.7" font-family="Times,serif" font-size="14.00">return True</text>
</g>
<!-- 107374182453&#45;&gt;141733920827 -->
<g id="edge21" class="edge">
<title>107374182453&#45;&gt;141733920827</title>
<path fill="none" stroke="black" d="M1480.89,-787.95C1580.02,-779.62 1777.5,-755.4 1777.5,-694.62 1777.5,-694.62 1777.5,-694.62 1777.5,-292.5 1777.5,-232.05 1743.54,-223.74 1731.5,-164.5 1730.11,-157.64 1729.92,-155.57 1731.5,-148.75 1732.04,-146.42 1732.75,-144.08 1733.57,-141.75"/>
<polygon fill="black" stroke="black" points="1736.76,-143.18 1737.46,-132.61 1730.32,-140.44 1736.76,-143.18"/>
<text xml:space="preserve" text-anchor="middle" x="1794.38" y="-418.82" font-family="Times,serif" font-size="14.00">DDG: </text>
</g>
<!-- 30064771644 -->
<g id="node10" class="node">
<title>30064771644</title>
<polygon fill="none" stroke="black" points="1548.88,-222 1310.12,-222 1310.12,-182.5 1548.88,-182.5 1548.88,-222"/>
<text xml:space="preserve" text-anchor="start" x="1368.75" y="-204.7" font-family="Times,serif" font-size="14.00">&lt;operator&gt;.in, 479</text>
<text xml:space="preserve" text-anchor="start" x="1318.12" y="-188.95" font-family="Times,serif" font-size="14.00">instructor_id in self.instructors</text>
</g>
<!-- 107374182453&#45;&gt;30064771644 -->
<g id="edge28" class="edge">
<title>107374182453&#45;&gt;30064771644</title>
<path fill="none" stroke="black" d="M1476.14,-772.59C1507.76,-756.98 1542.5,-731.45 1542.5,-694.62 1542.5,-694.62 1542.5,-694.62 1542.5,-292.5 1542.5,-263.13 1518.7,-241.92 1492.94,-227.56"/>
<polygon fill="black" stroke="black" points="1494.85,-224.61 1484.36,-223.1 1491.62,-230.82 1494.85,-224.61"/>
<text xml:space="preserve" text-anchor="middle" x="1559.38" y="-484.2" font-family="Times,serif" font-size="14.00">DDG: </text>
</g>
<!-- 90194313380 -->
<g id="node11" class="node">
<title>90194313380</title>
<polygon fill="none" stroke="black" points="1970,-648 1873,-648 1873,-592.75 1970,-592.75 1970,-648"/>
<text xml:space="preserve" text-anchor="start" x="1881" y="-630.7" font-family="Times,serif" font-size="14.00">LITERAL, 486</text>
<text xml:space="preserve" text-anchor="start" x="1908" y="-614.95" font-family="Times,serif" font-size="14.00">True</text>
<text xml:space="preserve" text-anchor="start" x="1884.38" y="-599.2" font-family="Times,serif" font-size="14.00">return True</text>
</g>
<!-- 107374182453&#45;&gt;90194313380 -->
<g id="edge22" class="edge">
<title>107374182453&#45;&gt;90194313380</title>
<path fill="none" stroke="black" d="M1480.99,-790.79C1569.49,-788.5 1738.08,-780.78 1791.5,-755 1836.41,-733.33 1874.35,-689.35 1897.44,-657.75"/>
<polygon fill="black" stroke="black" points="1900.28,-659.79 1903.24,-649.62 1894.59,-655.73 1900.28,-659.79"/>
<text xml:space="preserve" text-anchor="middle" x="1833.15" y="-741.7" font-family="Times,serif" font-size="14.00">DDG: </text>
</g>
<!-- 141733920825 -->
<g id="node12" class="node">
<title>141733920825</title>
<polygon fill="none" stroke="black" points="139,-222 42,-222 42,-182.5 139,-182.5 139,-222"/>
<text xml:space="preserve" text-anchor="start" x="53.38" y="-204.7" font-family="Times,serif" font-size="14.00">RETURN, 478</text>
<text xml:space="preserve" text-anchor="start" x="50" y="-188.95" font-family="Times,serif" font-size="14.00">return False</text>
</g>
<!-- 107374182453&#45;&gt;141733920825 -->
<g id="edge26" class="edge">
<title>107374182453&#45;&gt;141733920825</title>
<path fill="none" stroke="black" d="M1369.77,-790.54C1121.52,-784.79 128.5,-757.85 128.5,-694.62 128.5,-694.62 128.5,-694.62 128.5,-292.5 128.5,-271.16 119.19,-249.08 109.79,-232.22"/>
<polygon fill="black" stroke="black" points="112.88,-230.58 104.78,-223.76 106.86,-234.14 112.88,-230.58"/>
<text xml:space="preserve" text-anchor="middle" x="145.38" y="-484.2" font-family="Times,serif" font-size="14.00">DDG: </text>
</g>
<!-- 141733920826 -->
<g id="node13" class="node">
<title>141733920826</title>
<polygon fill="none" stroke="black" points="974,-130.75 877,-130.75 877,-91.25 974,-91.25 974,-130.75"/>
<text xml:space="preserve" text-anchor="start" x="888.38" y="-113.45" font-family="Times,serif" font-size="14.00">RETURN, 480</text>
<text xml:space="preserve" text-anchor="start" x="885" y="-97.7" font-family="Times,serif" font-size="14.00">return False</text>
</g>
<!-- 107374182453&#45;&gt;141733920826 -->
<g id="edge31" class="edge">
<title>107374182453&#45;&gt;141733920826</title>
<path fill="none" stroke="black" d="M1369.76,-788.57C1309.36,-781.76 1221.5,-760.52 1221.5,-694.62 1221.5,-694.62 1221.5,-694.62 1221.5,-357.88 1221.5,-254.27 1206.93,-202.74 1118.5,-148.75 1068.8,-118.41 1043.76,-141.69 985.51,-131.49"/>
<polygon fill="black" stroke="black" points="986.22,-128.06 975.72,-129.48 984.81,-134.92 986.22,-128.06"/>
<text xml:space="preserve" text-anchor="middle" x="1238.38" y="-418.82" font-family="Times,serif" font-size="14.00">DDG: </text>
</g>
<!-- 68719477296 -->
<g id="node14" class="node">
<title>68719477296</title>
<polygon fill="none" stroke="black" points="2572.25,-721.25 2218.75,-721.25 2218.75,-666 2572.25,-666 2572.25,-721.25"/>
<text xml:space="preserve" text-anchor="start" x="2344.88" y="-703.95" font-family="Times,serif" font-size="14.00">IDENTIFIER, 481</text>
<text xml:space="preserve" text-anchor="start" x="2361.75" y="-688.2" font-family="Times,serif" font-size="14.00">Instructor</text>
<text xml:space="preserve" text-anchor="start" x="2226.75" y="-672.45" font-family="Times,serif" font-size="14.00">Instructor(instructor_id = instructor_id, name ...</text>
</g>
<!-- 107374182453&#45;&gt;68719477296 -->
<g id="edge34" class="edge">
<title>107374182453&#45;&gt;68719477296</title>
<path fill="none" stroke="black" d="M1481.1,-790.99C1635.17,-788.6 2065.38,-779.83 2204.5,-755 2241.26,-748.44 2280.79,-736.76 2314.29,-725.41"/>
<polygon fill="black" stroke="black" points="2315.2,-728.8 2323.52,-722.24 2312.92,-722.18 2315.2,-728.8"/>
<text xml:space="preserve" text-anchor="middle" x="2285.55" y="-741.7" font-family="Times,serif" font-size="14.00">DDG: </text>
</g>
<!-- 30064771645 -->
<g id="node15" class="node">
<title>30064771645</title>
<polygon fill="none" stroke="black" points="2373.25,-130.75 2019.75,-130.75 2019.75,-91.25 2373.25,-91.25 2373.25,-130.75"/>
<text xml:space="preserve" text-anchor="start" x="2145.88" y="-113.45" font-family="Times,serif" font-size="14.00">Instructor, 481</text>
<text xml:space="preserve" text-anchor="start" x="2027.75" y="-97.7" font-family="Times,serif" font-size="14.00">Instructor(instructor_id = instructor_id, name ...</text>
</g>
<!-- 107374182453&#45;&gt;30064771645 -->
<g id="edge36" class="edge">
<title>107374182453&#45;&gt;30064771645</title>
<path fill="none" stroke="black" d="M1481.13,-790.53C1657.17,-785.95 2190.5,-766.17 2190.5,-694.62 2190.5,-694.62 2190.5,-694.62 2190.5,-201.25 2190.5,-181.66 2191.96,-159.71 2193.43,-142.48"/>
<polygon fill="black" stroke="black" points="2196.91,-142.91 2194.33,-132.63 2189.94,-142.27 2196.91,-142.91"/>
<text xml:space="preserve" text-anchor="middle" x="2207.38" y="-418.82" font-family="Times,serif" font-size="14.00">DDG: </text>
</g>
<!-- 30064771639 -->
<g id="node16" class="node">
<title>30064771639</title>
<polygon fill="none" stroke="black" points="1065.25,-574.75 873.75,-574.75 873.75,-535.25 1065.25,-535.25 1065.25,-574.75"/>
<text xml:space="preserve" text-anchor="start" x="881.75" y="-557.45" font-family="Times,serif" font-size="14.00">&lt;operator&gt;.logicalNot, 477</text>
<text xml:space="preserve" text-anchor="start" x="912.12" y="-541.7" font-family="Times,serif" font-size="14.00">not instructor_id</text>
</g>
<!-- 107374182453&#45;&gt;30064771639 -->
<g id="edge41" class="edge">
<title>107374182453&#45;&gt;30064771639</title>
<path fill="none" stroke="black" d="M1370.12,-791.97C1260.92,-791.05 1024.28,-781.95 976.75,-721.25 946.48,-682.59 953.41,-621.85 961.35,-585.77"/>
<polygon fill="black" stroke="black" points="964.66,-587 963.57,-576.46 957.85,-585.38 964.66,-587"/>
<text xml:space="preserve" text-anchor="middle" x="993.62" y="-688.2" font-family="Times,serif" font-size="14.00">DDG: </text>
</g>
<!-- 30064771640 -->
<g id="node17" class="node">
<title>30064771640</title>
<polygon fill="none" stroke="black" points="935.25,-444 743.75,-444 743.75,-404.5 935.25,-404.5 935.25,-444"/>
<text xml:space="preserve" text-anchor="start" x="751.75" y="-426.7" font-family="Times,serif" font-size="14.00">&lt;operator&gt;.logicalNot, 477</text>
<text xml:space="preserve" text-anchor="start" x="812.5" y="-410.95" font-family="Times,serif" font-size="14.00">not name</text>
</g>
<!-- 107374182453&#45;&gt;30064771640 -->
<g id="edge43" class="edge">
<title>107374182453&#45;&gt;30064771640</title>
<path fill="none" stroke="black" d="M1369.87,-790.78C1269.72,-788.4 1063.29,-780.48 996.5,-755 876.1,-709.06 847.92,-528.22 841.41,-455.64"/>
<polygon fill="black" stroke="black" points="844.9,-455.37 840.61,-445.68 837.93,-455.93 844.9,-455.37"/>
<text xml:space="preserve" text-anchor="middle" x="905.81" y="-614.95" font-family="Times,serif" font-size="14.00">DDG: </text>
</g>
<!-- 90194313378 -->
<g id="node18" class="node">
<title>90194313378</title>
<polygon fill="none" stroke="black" points="97,-386.5 0,-386.5 0,-331.25 97,-331.25 97,-386.5"/>
<text xml:space="preserve" text-anchor="start" x="8" y="-369.2" font-family="Times,serif" font-size="14.00">LITERAL, 478</text>
<text xml:space="preserve" text-anchor="start" x="31.62" y="-353.45" font-family="Times,serif" font-size="14.00">False</text>
<text xml:space="preserve" text-anchor="start" x="8" y="-337.7" font-family="Times,serif" font-size="14.00">return False</text>
</g>
<!-- 107374182453&#45;&gt;90194313378 -->
<g id="edge44" class="edge">
<title>107374182453&#45;&gt;90194313378</title>
<path fill="none" stroke="black" d="M1369.78,-791.58C1126.9,-790.68 170.43,-785.23 114.5,-755 85.74,-739.46 72.5,-727.31 72.5,-694.62 72.5,-694.62 72.5,-694.62 72.5,-488.62 72.5,-457.67 65.71,-423.22 59.36,-397.76"/>
<polygon fill="black" stroke="black" points="62.77,-396.99 56.87,-388.2 56,-398.75 62.77,-396.99"/>
<text xml:space="preserve" text-anchor="middle" x="89.38" y="-614.95" font-family="Times,serif" font-size="14.00">DDG: </text>
</g>
<!-- 90194313379 -->
<g id="node19" class="node">
<title>90194313379</title>
<polygon fill="none" stroke="black" points="1190,-517.25 1093,-517.25 1093,-462 1190,-462 1190,-517.25"/>
<text xml:space="preserve" text-anchor="start" x="1101" y="-499.95" font-family="Times,serif" font-size="14.00">LITERAL, 480</text>
<text xml:space="preserve" text-anchor="start" x="1124.62" y="-484.2" font-family="Times,serif" font-size="14.00">False</text>
<text xml:space="preserve" text-anchor="start" x="1101" y="-468.45" font-family="Times,serif" font-size="14.00">return False</text>
</g>
<!-- 107374182453&#45;&gt;90194313379 -->
<g id="edge45" class="edge">
<title>107374182453&#45;&gt;90194313379</title>
<path fill="none" stroke="black" d="M1370.18,-791.62C1324.28,-789.42 1258.5,-781.3 1207.5,-755 1188.65,-745.28 1183.21,-740.24 1173.75,-721.25 1157.34,-688.31 1147.96,-585.59 1143.91,-528.99"/>
<polygon fill="black" stroke="black" points="1147.41,-528.9 1143.23,-519.17 1140.43,-529.39 1147.41,-528.9"/>
<text xml:space="preserve" text-anchor="middle" x="1190.62" y="-688.2" font-family="Times,serif" font-size="14.00">DDG: </text>
</g>
<!-- 124554051637 -->
<g id="node2" class="node">
<title>124554051637</title>
<polygon fill="none" stroke="black" points="898.25,-39.5 760.75,-39.5 760.75,0 898.25,0 898.25,-39.5"/>
<text xml:space="preserve" text-anchor="start" x="768.75" y="-22.2" font-family="Times,serif" font-size="14.00">METHOD_RETURN, 476</text>
<text xml:space="preserve" text-anchor="start" x="782.25" y="-6.45" font-family="Times,serif" font-size="14.00">__builtin.bool</text>
</g>
<!-- 111669149771&#45;&gt;124554051637 -->
<g id="edge4" class="edge">
<title>111669149771&#45;&gt;124554051637</title>
<path fill="none" stroke="black" d="M1283.09,-273.5C1266.42,-236.21 1229.82,-156.43 1218.5,-148.75 1182.12,-124.07 1060.88,-150.29 1021.5,-130.75 981.98,-111.14 991.93,-80.86 954.5,-57.5 940.78,-48.94 924.97,-42.29 909.31,-37.16"/>
<polygon fill="black" stroke="black" points="910.56,-33.88 899.97,-34.29 908.5,-40.57 910.56,-33.88"/>
<text xml:space="preserve" text-anchor="middle" x="1260.25" y="-151.2" font-family="Times,serif" font-size="14.00">DDG: self</text>
</g>
<!-- 111669149771&#45;&gt;30064771644 -->
<g id="edge29" class="edge">
<title>111669149771&#45;&gt;30064771644</title>
<path fill="none" stroke="black" d="M1283.81,-273.45C1280.78,-262.59 1279.52,-249.33 1286.75,-240 1290.79,-234.79 1298.99,-230.19 1309.5,-226.16"/>
<polygon fill="black" stroke="black" points="1310.49,-229.52 1318.81,-222.96 1308.21,-222.9 1310.49,-229.52"/>
<text xml:space="preserve" text-anchor="middle" x="1317.12" y="-242.45" font-family="Times,serif" font-size="14.00">DDG: self</text>
</g>
<!-- 111669149772&#45;&gt;30064771639 -->
<g id="edge40" class="edge">
<title>111669149772&#45;&gt;30064771639</title>
<path fill="none" stroke="black" d="M1048.45,-673.38C1040.23,-665.92 1031.22,-657.01 1024,-648 1008.3,-628.41 993.98,-603.85 983.96,-585.03"/>
<polygon fill="black" stroke="black" points="987.14,-583.57 979.42,-576.31 980.94,-586.8 987.14,-583.57"/>
<text xml:space="preserve" text-anchor="middle" x="1084.75" y="-614.95" font-family="Times,serif" font-size="14.00">DDG: instructor_id</text>
</g>
<!-- 111669149773&#45;&gt;124554051637 -->
<g id="edge5" class="edge">
<title>111669149773&#45;&gt;124554051637</title>
<path fill="none" stroke="black" d="M1615.23,-534.81C1616.11,-509.65 1617.5,-464.15 1617.5,-425.25 1617.5,-425.25 1617.5,-425.25 1617.5,-201.25 1617.5,-177.1 1617.61,-168.5 1631.5,-148.75 1639.59,-137.25 1650.98,-143.2 1657.5,-130.75 1665.65,-115.2 1669.38,-104.18 1657.5,-91.25 1607.56,-36.88 1108.21,-24.38 909.99,-21.56"/>
<polygon fill="black" stroke="black" points="910.06,-18.06 900.02,-21.42 909.97,-25.06 910.06,-18.06"/>
<text xml:space="preserve" text-anchor="middle" x="1647.88" y="-242.45" font-family="Times,serif" font-size="14.00">DDG: name</text>
</g>
<!-- 111669149773&#45;&gt;30064771645 -->
<g id="edge37" class="edge">
<title>111669149773&#45;&gt;30064771645</title>
<path fill="none" stroke="black" d="M1656.36,-538.26C1699.85,-520.38 1768.04,-487.89 1815.5,-444 1881.86,-382.63 1868.75,-343.07 1926.75,-273.75 1964.68,-228.42 1978.93,-221.32 2023.5,-182.5 2041.56,-166.77 2044.21,-159.71 2065.5,-148.75 2075.77,-143.47 2086.89,-138.86 2098.16,-134.87"/>
<polygon fill="black" stroke="black" points="2099.2,-138.21 2107.57,-131.71 2096.97,-131.58 2099.2,-138.21"/>
<text xml:space="preserve" text-anchor="middle" x="1957.12" y="-288.07" font-family="Times,serif" font-size="14.00">DDG: name</text>
</g>
<!-- 111669149773&#45;&gt;30064771640 -->
<g id="edge42" class="edge">
<title>111669149773&#45;&gt;30064771640</title>
<path fill="none" stroke="black" d="M1572.3,-543.85C1481.77,-522.2 1271.23,-472.61 1198.5,-462 1088.71,-445.98 1059.65,-457.34 949.5,-444 948.65,-443.9 947.8,-443.79 946.95,-443.69"/>
<polygon fill="black" stroke="black" points="947.58,-440.24 937.21,-442.4 946.66,-447.18 947.58,-440.24"/>
<text xml:space="preserve" text-anchor="middle" x="1483.02" y="-484.2" font-family="Times,serif" font-size="14.00">DDG: name</text>
</g>
<!-- 111669149774&#45;&gt;124554051637 -->
<g id="edge6" class="edge">
<title>111669149774&#45;&gt;124554051637</title>
<path fill="none" stroke="black" d="M2057.08,-182.04C2045.56,-170.56 2029.49,-156.7 2012.5,-148.75 1970.31,-129.01 1949.18,-154.74 1909.25,-130.75 1890.18,-119.29 1896.49,-104.33 1878.5,-91.25 1842.94,-65.39 1828.65,-65.95 1785.5,-57.5 1618.89,-24.89 1108.75,-20.93 909.98,-20.65"/>
<polygon fill="black" stroke="black" points="909.99,-17.15 899.99,-20.64 909.98,-24.15 909.99,-17.15"/>
<text xml:space="preserve" text-anchor="middle" x="1959.88" y="-105.58" font-family="Times,serif" font-size="14.00">DDG: department</text>
</g>
<!-- 111669149774&#45;&gt;30064771645 -->
<g id="edge39" class="edge">
<title>111669149774&#45;&gt;30064771645</title>
<path fill="none" stroke="black" d="M2069.65,-182.24C2068.04,-171.4 2068.18,-158.14 2075.25,-148.75 2078.35,-144.64 2081.89,-140.97 2085.78,-137.7"/>
<polygon fill="black" stroke="black" points="2087.53,-140.75 2093.56,-132.04 2083.41,-135.09 2087.53,-140.75"/>
<text xml:space="preserve" text-anchor="middle" x="2125.88" y="-151.2" font-family="Times,serif" font-size="14.00">DDG: department</text>
</g>
<!-- 30064771648 -->
<g id="node7" class="node">
<title>30064771648</title>
<polygon fill="none" stroke="black" points="2258.25,-39.5 1904.75,-39.5 1904.75,0 2258.25,0 2258.25,-39.5"/>
<text xml:space="preserve" text-anchor="start" x="1993.75" y="-22.2" font-family="Times,serif" font-size="14.00">&lt;operator&gt;.assignment, 481</text>
<text xml:space="preserve" text-anchor="start" x="1912.75" y="-6.45" font-family="Times,serif" font-size="14.00">self.instructors[instructor_id] = Instructor(in...</text>
</g>
<!-- 141733920827&#45;&gt;124554051637 -->
<g id="edge3" class="edge">
<title>141733920827&#45;&gt;124554051637</title>
<path fill="none" stroke="black" d="M1734.15,-90.82C1723.35,-78.88 1707.78,-64.5 1690.5,-57.5 1619.43,-28.71 1109.97,-22.46 909.88,-21.12"/>
<polygon fill="black" stroke="black" points="910.12,-17.62 900.09,-21.05 910.07,-24.62 910.12,-17.62"/>
<text xml:space="preserve" text-anchor="middle" x="1748.04" y="-59.95" font-family="Times,serif" font-size="14.00">DDG: &lt;RET&gt;</text>
</g>
<!-- 30064771642 -->
<g id="node9" class="node">
<title>30064771642</title>
<polygon fill="none" stroke="black" points="946.12,-313.25 612.88,-313.25 612.88,-273.75 946.12,-273.75 946.12,-313.25"/>
<text xml:space="preserve" text-anchor="start" x="695.12" y="-295.95" font-family="Times,serif" font-size="14.00">&lt;operator&gt;.logicalOr, 477</text>
<text xml:space="preserve" text-anchor="start" x="620.88" y="-280.2" font-family="Times,serif" font-size="14.00">not instructor_id or not name or not department</text>
</g>
<!-- 30064771642&#45;&gt;124554051637 -->
<g id="edge8" class="edge">
<title>30064771642&#45;&gt;124554051637</title>
<path fill="none" stroke="black" d="M850.54,-273.36C861.21,-268.64 871.6,-262.84 880.5,-255.75 918.27,-225.65 925.83,-210.82 939.5,-164.5 941.48,-157.79 943.81,-154.27 939.5,-148.75 919.2,-122.75 891.82,-153.03 867.5,-130.75 845.09,-110.23 835.9,-75.85 832.13,-50.99"/>
<polygon fill="black" stroke="black" points="835.61,-50.62 830.87,-41.15 828.66,-51.51 835.61,-50.62"/>
<text xml:space="preserve" text-anchor="middle" x="1016.18" y="-151.2" font-family="Times,serif" font-size="14.00">DDG: not instructor_id</text>
</g>
<!-- 30064771642&#45;&gt;124554051637 -->
<g id="edge10" class="edge">
<title>30064771642&#45;&gt;124554051637</title>
<path fill="none" stroke="black" d="M612.7,-287.32C536.33,-282.54 455.56,-273.36 422.5,-255.75 385.11,-235.83 394.52,-209.05 361.5,-182.5 347.94,-171.6 335.79,-179.36 326.75,-164.5 323.11,-158.52 323.99,-155.18 326.75,-148.75 349.9,-94.71 368.96,-81.78 422.5,-57.5 478.88,-31.93 647.55,-24.15 749.2,-21.78"/>
<polygon fill="black" stroke="black" points="749.21,-25.28 759.13,-21.56 749.05,-18.28 749.21,-25.28"/>
<text xml:space="preserve" text-anchor="middle" x="370.62" y="-151.2" font-family="Times,serif" font-size="14.00">DDG: not name</text>
</g>
<!-- 30064771642&#45;&gt;124554051637 -->
<g id="edge11" class="edge">
<title>30064771642&#45;&gt;124554051637</title>
<path fill="none" stroke="black" d="M612.59,-277.67C500.47,-260.67 382.47,-224.6 437.5,-148.75 508.53,-50.84 656.54,-26.42 748.99,-21.12"/>
<polygon fill="black" stroke="black" points="748.93,-24.63 758.75,-20.63 748.58,-17.64 748.93,-24.63"/>
<text xml:space="preserve" text-anchor="middle" x="613" y="-151.2" font-family="Times,serif" font-size="14.00">DDG: not instructor_id or not name or not department</text>
</g>
<!-- 30064771642&#45;&gt;124554051637 -->
<g id="edge12" class="edge">
<title>30064771642&#45;&gt;124554051637</title>
<path fill="none" stroke="black" d="M806.34,-273.26C821.55,-260.63 839.16,-242.66 847.5,-222 854.07,-205.72 857.05,-197.23 847.5,-182.5 836.84,-166.06 817.91,-180.94 807.25,-164.5 784.76,-129.81 800.13,-80.71 814.14,-49.81"/>
<polygon fill="black" stroke="black" points="817.17,-51.59 818.32,-41.06 810.85,-48.57 817.17,-51.59"/>
<text xml:space="preserve" text-anchor="middle" x="871.38" y="-151.2" font-family="Times,serif" font-size="14.00">DDG: not department</text>
</g>
<!-- 30064771642&#45;&gt;30064771644 -->
<g id="edge47" class="edge">
<title>30064771642&#45;&gt;30064771644</title>
<path fill="none" stroke="black" d="M919.34,-273.3C1031.8,-257.86 1188.64,-236.32 1298.64,-221.22"/>
<polygon fill="black" stroke="black" points="1298.88,-224.72 1308.31,-219.89 1297.93,-217.78 1298.88,-224.72"/>
<text xml:space="preserve" text-anchor="middle" x="1160.29" y="-242.45" font-family="Times,serif" font-size="14.00">CDG: </text>
</g>
<!-- 30064771642&#45;&gt;141733920825 -->
<g id="edge49" class="edge">
<title>30064771642&#45;&gt;141733920825</title>
<path fill="none" stroke="black" d="M612.54,-287.22C532.18,-282.4 434.81,-273.22 348.75,-255.75 326.64,-251.26 322.39,-245.46 300.5,-240 250.5,-227.53 192.77,-217.75 150.5,-211.43"/>
<polygon fill="black" stroke="black" points="151.19,-207.99 140.79,-210 150.17,-214.92 151.19,-207.99"/>
<text xml:space="preserve" text-anchor="middle" x="365.62" y="-242.45" font-family="Times,serif" font-size="14.00">CDG: </text>
</g>
<!-- 30064771643 -->
<g id="node21" class="node">
<title>30064771643</title>
<polygon fill="none" stroke="black" points="662.62,-222 464.38,-222 464.38,-182.5 662.62,-182.5 662.62,-222"/>
<text xml:space="preserve" text-anchor="start" x="472.38" y="-204.7" font-family="Times,serif" font-size="14.00">&lt;operator&gt;.fieldAccess, 479</text>
<text xml:space="preserve" text-anchor="start" x="509.5" y="-188.95" font-family="Times,serif" font-size="14.00">self.instructors</text>
</g>
<!-- 30064771642&#45;&gt;30064771643 -->
<g id="edge46" class="edge">
<title>30064771642&#45;&gt;30064771643</title>
<path fill="none" stroke="black" d="M733.16,-273.35C700.13,-259.71 655.54,-241.28 620.35,-226.74"/>
<polygon fill="black" stroke="black" points="621.74,-223.53 611.16,-222.94 619.07,-230 621.74,-223.53"/>
<text xml:space="preserve" text-anchor="middle" x="701.31" y="-242.45" font-family="Times,serif" font-size="14.00">CDG: </text>
</g>
<!-- 55834574959 -->
<g id="node23" class="node">
<title>55834574959</title>
<polygon fill="none" stroke="black" points="838.38,-222 680.62,-222 680.62,-182.5 838.38,-182.5 838.38,-222"/>
<text xml:space="preserve" text-anchor="start" x="688.62" y="-204.7" font-family="Times,serif" font-size="14.00">FIELD_IDENTIFIER, 479</text>
<text xml:space="preserve" text-anchor="start" x="722.38" y="-188.95" font-family="Times,serif" font-size="14.00">instructors</text>
</g>
<!-- 30064771642&#45;&gt;55834574959 -->
<g id="edge48" class="edge">
<title>30064771642&#45;&gt;55834574959</title>
<path fill="none" stroke="black" d="M775.26,-273.57C772.65,-261.94 769.25,-246.77 766.28,-233.49"/>
<polygon fill="black" stroke="black" points="769.74,-232.93 764.14,-223.93 762.91,-234.46 769.74,-232.93"/>
<text xml:space="preserve" text-anchor="middle" x="787.57" y="-242.45" font-family="Times,serif" font-size="14.00">CDG: </text>
</g>
<!-- 30064771644&#45;&gt;30064771648 -->
<g id="edge53" class="edge">
<title>30064771644&#45;&gt;30064771648</title>
<path fill="none" stroke="black" d="M1548.77,-182.02C1580.58,-176.63 1614.89,-170.57 1646.5,-164.5 1664.02,-161.13 1787.74,-139.11 1803.5,-130.75 1825.92,-118.85 1822.81,-104.01 1844.75,-91.25 1882.45,-69.33 1927.55,-53.71 1968.22,-42.83"/>
<polygon fill="black" stroke="black" points="1969.03,-46.24 1977.83,-40.34 1967.27,-39.46 1969.03,-46.24"/>
<text xml:space="preserve" text-anchor="middle" x="1861.62" y="-105.58" font-family="Times,serif" font-size="14.00">CDG: </text>
</g>
<!-- 30064771644&#45;&gt;141733920827 -->
<g id="edge56" class="edge">
<title>30064771644&#45;&gt;141733920827</title>
<path fill="none" stroke="black" d="M1498.15,-182.1C1556.39,-165.86 1638.92,-142.84 1693.3,-127.67"/>
<polygon fill="black" stroke="black" points="1693.98,-131.12 1702.67,-125.06 1692.09,-124.38 1693.98,-131.12"/>
<text xml:space="preserve" text-anchor="middle" x="1625.53" y="-151.2" font-family="Times,serif" font-size="14.00">CDG: </text>
</g>
<!-- 30064771644&#45;&gt;141733920826 -->
<g id="edge55" class="edge">
<title>30064771644&#45;&gt;141733920826</title>
<path fill="none" stroke="black" d="M1309.71,-194.03C1269.04,-188.79 1223.97,-179.81 1184.75,-164.5 1173.12,-159.96 1173.17,-153.17 1161.5,-148.75 1102.82,-126.55 1083.43,-140.77 1021.5,-130.75 1009.81,-128.86 997.37,-126.61 985.45,-124.33"/>
<polygon fill="black" stroke="black" points="986.2,-120.91 975.71,-122.44 984.86,-127.78 986.2,-120.91"/>
<text xml:space="preserve" text-anchor="middle" x="1201.62" y="-151.2" font-family="Times,serif" font-size="14.00">CDG: </text>
</g>
<!-- 30064771644&#45;&gt;30064771645 -->
<g id="edge35" class="edge">
<title>30064771644&#45;&gt;30064771645</title>
<path fill="none" stroke="black" d="M1549.34,-192.02C1646.13,-184.08 1769.85,-172.66 1792.5,-164.5 1804.33,-160.24 1804.16,-152.97 1816,-148.75 1895.69,-120.33 1921.29,-138.88 2005.5,-130.75 2006.36,-130.67 2007.21,-130.58 2008.07,-130.5"/>
<polygon fill="black" stroke="black" points="2008.22,-134 2017.84,-129.56 2007.55,-127.04 2008.22,-134"/>
<text xml:space="preserve" text-anchor="middle" x="1876.75" y="-151.2" font-family="Times,serif" font-size="14.00">DDG: instructor_id</text>
</g>
<!-- 30064771644&#45;&gt;30064771645 -->
<g id="edge50" class="edge">
<title>30064771644&#45;&gt;30064771645</title>
<path fill="none" stroke="black" d="M1549.28,-193.74C1620.22,-187.96 1702.52,-178.55 1735.5,-164.5 1745.67,-160.17 1744.48,-152.84 1754.75,-148.75 1806.66,-128.1 1949.83,-135.48 2005.5,-130.75 2006.36,-130.68 2007.21,-130.6 2008.07,-130.53"/>
<polygon fill="black" stroke="black" points="2008.19,-134.03 2017.85,-129.68 2007.58,-127.06 2008.19,-134.03"/>
<text xml:space="preserve" text-anchor="middle" x="1771.62" y="-151.2" font-family="Times,serif" font-size="14.00">CDG: </text>
</g>
<!-- 30064771647 -->
<g id="node20" class="node">
<title>30064771647</title>
<polygon fill="none" stroke="black" points="1256.12,-130.75 1030.88,-130.75 1030.88,-91.25 1256.12,-91.25 1256.12,-130.75"/>
<text xml:space="preserve" text-anchor="start" x="1052.38" y="-113.45" font-family="Times,serif" font-size="14.00">&lt;operator&gt;.indexAccess, 481</text>
<text xml:space="preserve" text-anchor="start" x="1038.88" y="-97.7" font-family="Times,serif" font-size="14.00">self.instructors[instructor_id]</text>
</g>
<!-- 30064771644&#45;&gt;30064771647 -->
<g id="edge52" class="edge">
<title>30064771644&#45;&gt;30064771647</title>
<path fill="none" stroke="black" d="M1388.1,-182.1C1363.59,-171.28 1331.7,-158.09 1302.5,-148.75 1285.52,-143.32 1267.27,-138.34 1249.42,-133.91"/>
<polygon fill="black" stroke="black" points="1250.38,-130.54 1239.83,-131.58 1248.73,-137.34 1250.38,-130.54"/>
<text xml:space="preserve" text-anchor="middle" x="1362" y="-151.2" font-family="Times,serif" font-size="14.00">CDG: </text>
</g>
<!-- 30064771646 -->
<g id="node22" class="node">
<title>30064771646</title>
<polygon fill="none" stroke="black" points="1472.62,-130.75 1274.38,-130.75 1274.38,-91.25 1472.62,-91.25 1472.62,-130.75"/>
<text xml:space="preserve" text-anchor="start" x="1282.38" y="-113.45" font-family="Times,serif" font-size="14.00">&lt;operator&gt;.fieldAccess, 481</text>
<text xml:space="preserve" text-anchor="start" x="1319.5" y="-97.7" font-family="Times,serif" font-size="14.00">self.instructors</text>
</g>
<!-- 30064771644&#45;&gt;30064771646 -->
<g id="edge51" class="edge">
<title>30064771644&#45;&gt;30064771646</title>
<path fill="none" stroke="black" d="M1417.62,-182.32C1410.03,-170.22 1400.03,-154.28 1391.47,-140.65"/>
<polygon fill="black" stroke="black" points="1394.64,-139.1 1386.36,-132.49 1388.71,-142.82 1394.64,-139.1"/>
<text xml:space="preserve" text-anchor="middle" x="1421.73" y="-151.2" font-family="Times,serif" font-size="14.00">CDG: </text>
</g>
<!-- 55834574960 -->
<g id="node24" class="node">
<title>55834574960</title>
<polygon fill="none" stroke="black" points="1648.38,-130.75 1490.62,-130.75 1490.62,-91.25 1648.38,-91.25 1648.38,-130.75"/>
<text xml:space="preserve" text-anchor="start" x="1498.62" y="-113.45" font-family="Times,serif" font-size="14.00">FIELD_IDENTIFIER, 481</text>
<text xml:space="preserve" text-anchor="start" x="1532.38" y="-97.7" font-family="Times,serif" font-size="14.00">instructors</text>
</g>
<!-- 30064771644&#45;&gt;55834574960 -->
<g id="edge54" class="edge">
<title>30064771644&#45;&gt;55834574960</title>
<path fill="none" stroke="black" d="M1459.53,-182.1C1480.11,-168.99 1507.62,-151.45 1529.97,-137.2"/>
<polygon fill="black" stroke="black" points="1531.69,-140.26 1538.24,-131.93 1527.93,-134.35 1531.69,-140.26"/>
<text xml:space="preserve" text-anchor="middle" x="1524.76" y="-151.2" font-family="Times,serif" font-size="14.00">CDG: </text>
</g>
<!-- 90194313380&#45;&gt;141733920827 -->
<g id="edge20" class="edge">
<title>90194313380&#45;&gt;141733920827</title>
<path fill="none" stroke="black" d="M1950.38,-592.7C1973.3,-568.51 2001.5,-530.63 2001.5,-490.62 2001.5,-490.62 2001.5,-490.62 2001.5,-201.25 2001.5,-165.82 1973.82,-163.28 1941.5,-148.75 1886.88,-124.2 1863.98,-143.45 1806.1,-132.03"/>
<polygon fill="black" stroke="black" points="1806.87,-128.62 1796.34,-129.85 1805.34,-135.45 1806.87,-128.62"/>
<text xml:space="preserve" text-anchor="middle" x="2031.88" y="-353.45" font-family="Times,serif" font-size="14.00">DDG: True</text>
</g>
<!-- 141733920825&#45;&gt;124554051637 -->
<g id="edge2" class="edge">
<title>141733920825&#45;&gt;124554051637</title>
<path fill="none" stroke="black" d="M86.08,-182.39C81.72,-158.98 78.02,-118.79 96,-91.25 114.34,-63.17 131.08,-66.1 163.5,-57.5 271.81,-28.76 596.98,-22.47 749.23,-21.11"/>
<polygon fill="black" stroke="black" points="748.85,-24.62 758.82,-21.03 748.79,-17.62 748.85,-24.62"/>
<text xml:space="preserve" text-anchor="middle" x="129.75" y="-105.58" font-family="Times,serif" font-size="14.00">DDG: &lt;RET&gt;</text>
</g>
<!-- 141733920826&#45;&gt;124554051637 -->
<g id="edge1" class="edge">
<title>141733920826&#45;&gt;124554051637</title>
<path fill="none" stroke="black" d="M905.14,-91.07C891.49,-78.38 873.31,-61.48 858.19,-47.43"/>
<polygon fill="black" stroke="black" points="860.98,-45.23 851.27,-40.99 856.21,-50.36 860.98,-45.23"/>
<text xml:space="preserve" text-anchor="middle" x="917" y="-59.95" font-family="Times,serif" font-size="14.00">DDG: &lt;RET&gt;</text>
</g>
<!-- 30064771645&#45;&gt;30064771648 -->
<g id="edge17" class="edge">
<title>30064771645&#45;&gt;30064771648</title>
<path fill="none" stroke="black" d="M2044.43,-90.76C2028.99,-86.11 2016.83,-80.35 2011,-73.25 2002.59,-63.01 2007.99,-53.68 2018.8,-45.82"/>
<polygon fill="black" stroke="black" points="2020.52,-48.88 2027.18,-40.64 2016.83,-42.92 2020.52,-48.88"/>
<text xml:space="preserve" text-anchor="middle" x="2071.75" y="-59.95" font-family="Times,serif" font-size="14.00">DDG: instructor_id</text>
</g>
<!-- 30064771645&#45;&gt;30064771648 -->
<g id="edge18" class="edge">
<title>30064771645&#45;&gt;30064771648</title>
<path fill="none" stroke="black" d="M2173.97,-90.94C2161.83,-80.82 2146.51,-68.28 2132.5,-57.5 2127.86,-53.93 2122.93,-50.25 2118.03,-46.65"/>
<polygon fill="black" stroke="black" points="2120.1,-43.83 2109.95,-40.78 2115.99,-49.49 2120.1,-43.83"/>
<text xml:space="preserve" text-anchor="middle" x="2182.51" y="-59.95" font-family="Times,serif" font-size="14.00">DDG: name</text>
</g>
<!-- 30064771645&#45;&gt;30064771648 -->
<g id="edge19" class="edge">
<title>30064771645&#45;&gt;30064771648</title>
<path fill="none" stroke="black" d="M2212.35,-90.94C2219.16,-80.34 2224.02,-67.34 2216.5,-57.5 2212.56,-52.34 2204.39,-47.74 2193.91,-43.68"/>
<polygon fill="black" stroke="black" points="2195.26,-40.44 2184.66,-40.46 2192.95,-47.05 2195.26,-40.44"/>
<text xml:space="preserve" text-anchor="middle" x="2270.92" y="-59.95" font-family="Times,serif" font-size="14.00">DDG: department</text>
</g>
<!-- 30064771639&#45;&gt;124554051637 -->
<g id="edge7" class="edge">
<title>30064771639&#45;&gt;124554051637</title>
<path fill="none" stroke="black" d="M873.57,-548.29C662.71,-534.45 177.5,-495.03 177.5,-425.25 177.5,-425.25 177.5,-425.25 177.5,-110 177.5,-52.94 574.5,-30.59 748.93,-23.52"/>
<polygon fill="black" stroke="black" points="748.98,-27.02 758.83,-23.13 748.7,-20.02 748.98,-27.02"/>
<text xml:space="preserve" text-anchor="middle" x="238.25" y="-242.45" font-family="Times,serif" font-size="14.00">DDG: instructor_id</text>
</g>
<!-- 30064771639&#45;&gt;30064771642 -->
<g id="edge23" class="edge">
<title>30064771639&#45;&gt;30064771642</title>
<path fill="none" stroke="black" d="M969.63,-535.06C969.12,-505.67 965.27,-447.95 944.5,-404.5 926.59,-367.04 920.39,-355.24 886.5,-331.25 879.59,-326.36 871.97,-322.07 864.08,-318.33"/>
<polygon fill="black" stroke="black" points="865.54,-315.14 854.97,-314.32 862.71,-321.55 865.54,-315.14"/>
<text xml:space="preserve" text-anchor="middle" x="1019.01" y="-418.82" font-family="Times,serif" font-size="14.00">DDG: instructor_id</text>
</g>
<!-- 30064771639&#45;&gt;30064771644 -->
<g id="edge27" class="edge">
<title>30064771639&#45;&gt;30064771644</title>
<path fill="none" stroke="black" d="M1065.69,-545.37C1117.74,-539.37 1175.89,-530.13 1198.5,-517.25 1315.8,-450.44 1390.54,-297.12 1417.84,-232.66"/>
<polygon fill="black" stroke="black" points="1420.92,-234.37 1421.52,-223.79 1414.45,-231.69 1420.92,-234.37"/>
<text xml:space="preserve" text-anchor="middle" x="1427.56" y="-353.45" font-family="Times,serif" font-size="14.00">DDG: instructor_id</text>
</g>
<!-- 30064771639&#45;&gt;30064771640 -->
<g id="edge57" class="edge">
<title>30064771639&#45;&gt;30064771640</title>
<path fill="none" stroke="black" d="M944.23,-534.83C937.4,-529.36 930.14,-523.24 923.75,-517.25 902.02,-496.89 879.33,-471.86 862.98,-453.05"/>
<polygon fill="black" stroke="black" points="865.66,-450.8 856.48,-445.51 860.36,-455.37 865.66,-450.8"/>
<text xml:space="preserve" text-anchor="middle" x="940.62" y="-484.2" font-family="Times,serif" font-size="14.00">CDG: </text>
</g>
<!-- 30064771640&#45;&gt;124554051637 -->
<g id="edge9" class="edge">
<title>30064771640&#45;&gt;124554051637</title>
<path fill="none" stroke="black" d="M788.88,-404.09C706.86,-373.04 539.85,-309.74 398.5,-255.75 380.26,-248.78 375.98,-246.28 357.5,-240 330.84,-230.94 313.6,-244.56 296.75,-222 286.25,-207.93 293.57,-199.77 296.75,-182.5 309.12,-115.24 321.51,-78.79 386.5,-57.5 451.75,-36.12 640.35,-26.71 749.27,-22.95"/>
<polygon fill="black" stroke="black" points="749.14,-26.46 759.02,-22.63 748.91,-19.46 749.14,-26.46"/>
<text xml:space="preserve" text-anchor="middle" x="327.12" y="-196.82" font-family="Times,serif" font-size="14.00">DDG: name</text>
</g>
<!-- 30064771640&#45;&gt;30064771642 -->
<g id="edge24" class="edge">
<title>30064771640&#45;&gt;30064771642</title>
<path fill="none" stroke="black" d="M830.65,-404.25C820.77,-383.05 804.66,-348.48 793.16,-323.8"/>
<polygon fill="black" stroke="black" points="796.43,-322.53 789.03,-314.95 790.08,-325.49 796.43,-322.53"/>
<text xml:space="preserve" text-anchor="middle" x="852.15" y="-353.45" font-family="Times,serif" font-size="14.00">DDG: name</text>
</g>
<!-- 30064771640&#45;&gt;30064771645 -->
<g id="edge38" class="edge">
<title>30064771640&#45;&gt;30064771645</title>
<path fill="none" stroke="black" d="M935.68,-405.05C937.3,-404.86 938.9,-404.67 940.5,-404.5 1062.52,-391.26 1373.51,-416.59 1492.5,-386.5 1706.78,-332.32 1742.23,-268.04 1937.5,-164.5 1950.11,-157.81 1952.02,-153.45 1965.5,-148.75 1982.57,-142.81 2000.69,-137.82 2018.98,-133.63"/>
<polygon fill="black" stroke="black" points="2019.57,-137.09 2028.58,-131.52 2018.07,-130.25 2019.57,-137.09"/>
<text xml:space="preserve" text-anchor="middle" x="1838.3" y="-242.45" font-family="Times,serif" font-size="14.00">DDG: name</text>
</g>
<!-- 90194313378&#45;&gt;141733920825 -->
<g id="edge25" class="edge">
<title>90194313378&#45;&gt;141733920825</title>
<path fill="none" stroke="black" d="M44.08,-330.84C42.3,-314.09 41.74,-292.3 47,-273.75 51.27,-258.68 59.78,-243.68 68.15,-231.41"/>
<polygon fill="black" stroke="black" points="70.88,-233.6 73.86,-223.44 65.19,-229.53 70.88,-233.6"/>
<text xml:space="preserve" text-anchor="middle" x="80.75" y="-288.07" font-family="Times,serif" font-size="14.00">DDG: False</text>
</g>
<!-- 90194313379&#45;&gt;141733920826 -->
<g id="edge30" class="edge">
<title>90194313379&#45;&gt;141733920826</title>
<path fill="none" stroke="black" d="M1136.17,-461.62C1131.52,-435.65 1125.5,-395.24 1125.5,-359.88 1125.5,-359.88 1125.5,-359.88 1125.5,-201.25 1125.5,-174.15 1116.91,-163.98 1094.5,-148.75 1054.98,-121.89 1033.37,-140.15 985.28,-131.48"/>
<polygon fill="black" stroke="black" points="986.24,-128.1 975.73,-129.42 984.77,-134.95 986.24,-128.1"/>
<text xml:space="preserve" text-anchor="middle" x="1159.25" y="-288.07" font-family="Times,serif" font-size="14.00">DDG: False</text>
</g>
<!-- 30064771423 -->
<g id="node25" class="node">
<title>30064771423</title>
<polygon fill="none" stroke="black" points="2411.62,-810.75 2321.38,-810.75 2321.38,-774.75 2411.62,-774.75 2411.62,-810.75"/>
<text xml:space="preserve" text-anchor="middle" x="2366.5" y="-787.33" font-family="Times,serif" font-size="14.00">30064771423</text>
</g>
<!-- 30064771423&#45;&gt;68719477296 -->
<g id="edge32" class="edge">
<title>30064771423&#45;&gt;68719477296</title>
<path fill="none" stroke="black" d="M2364.41,-774.37C2363.73,-763.97 2363.87,-750.61 2367.25,-739.25 2368.02,-736.65 2368.99,-734.06 2370.1,-731.51"/>
<polygon fill="black" stroke="black" points="2373.19,-733.16 2374.64,-722.67 2366.96,-729.97 2373.19,-733.16"/>
<text xml:space="preserve" text-anchor="middle" x="2417.88" y="-741.7" font-family="Times,serif" font-size="14.00">DDG: Instructor</text>
</g>
<!-- 30064771424 -->
<g id="node26" class="node">
<title>30064771424</title>
<polygon fill="none" stroke="black" points="2535.62,-810.75 2445.38,-810.75 2445.38,-774.75 2535.62,-774.75 2535.62,-810.75"/>
<text xml:space="preserve" text-anchor="middle" x="2490.5" y="-787.33" font-family="Times,serif" font-size="14.00">30064771424</text>
</g>
<!-- 30064771424&#45;&gt;68719477296 -->
<g id="edge33" class="edge">
<title>30064771424&#45;&gt;68719477296</title>
<path fill="none" stroke="black" d="M2486.3,-774.68C2482.92,-763.63 2477.26,-749.45 2468.5,-739.25 2465.26,-735.47 2461.61,-731.92 2457.72,-728.59"/>
<polygon fill="black" stroke="black" points="2460.11,-726.02 2450.08,-722.62 2455.8,-731.53 2460.11,-726.02"/>
<text xml:space="preserve" text-anchor="middle" x="2529.17" y="-741.7" font-family="Times,serif" font-size="14.00">DDG: Instructor</text>
</g>
</g>
</svg>
