<?xml version="1.0" encoding="UTF-8" standalone="no"?>
<!DOCTYPE svg PUBLIC "-//W3C//DTD SVG 1.1//EN"
 "http://www.w3.org/Graphics/SVG/1.1/DTD/svg11.dtd">
<!-- Generated by graphviz version 13.1.2 (20250809.0930)
 -->
<!-- Title: safe_int_input Pages: 1 -->
<svg width="1529pt" height="849pt"
 viewBox="0.00 0.00 1529.00 849.00" xmlns="http://www.w3.org/2000/svg" xmlns:xlink="http://www.w3.org/1999/xlink">
<g id="graph0" class="graph" transform="scale(1 1) rotate(0) translate(4 844.5)">
<title>safe_int_input</title>
<polygon fill="white" stroke="none" points="-4,4 -4,-844.5 1525.25,-844.5 1525.25,4 -4,4"/>
<!-- 107374182406 -->
<g id="node1" class="node">
<title>107374182406</title>
<polygon fill="none" stroke="black" points="770.88,-840.5 660.38,-840.5 660.38,-801 770.88,-801 770.88,-840.5"/>
<text xml:space="preserve" text-anchor="start" x="678.5" y="-823.2" font-family="Times,serif" font-size="14.00">METHOD, 212</text>
<text xml:space="preserve" text-anchor="start" x="668.38" y="-807.45" font-family="Times,serif" font-size="14.00">safe_int_input</text>
</g>
<!-- 111669149702 -->
<g id="node3" class="node">
<title>111669149702</title>
<polygon fill="none" stroke="black" points="809.38,-741.38 725.88,-741.38 725.88,-701.88 809.38,-701.88 809.38,-741.38"/>
<text xml:space="preserve" text-anchor="start" x="733.88" y="-724.08" font-family="Times,serif" font-size="14.00">PARAM, 212</text>
<text xml:space="preserve" text-anchor="start" x="747.38" y="-708.33" font-family="Times,serif" font-size="14.00">prompt</text>
</g>
<!-- 107374182406&#45;&gt;111669149702 -->
<g id="edge11" class="edge">
<title>107374182406&#45;&gt;111669149702</title>
<path fill="none" stroke="black" d="M725.9,-800.56C733.38,-786.59 743.64,-767.43 752.11,-751.61"/>
<polygon fill="black" stroke="black" points="755.02,-753.58 756.66,-743.11 748.85,-750.27 755.02,-753.58"/>
<text xml:space="preserve" text-anchor="middle" x="760.06" y="-769.7" font-family="Times,serif" font-size="14.00">DDG: </text>
</g>
<!-- 90194313287 -->
<g id="node4" class="node">
<title>90194313287</title>
<polygon fill="none" stroke="black" points="1251.38,-741.38 897.88,-741.38 897.88,-701.88 1251.38,-701.88 1251.38,-741.38"/>
<text xml:space="preserve" text-anchor="start" x="1034.12" y="-724.08" font-family="Times,serif" font-size="14.00">LITERAL, 213</text>
<text xml:space="preserve" text-anchor="start" x="905.88" y="-708.33" font-family="Times,serif" font-size="14.00">&quot;&quot;&quot;Read an integer from input; return None if i...</text>
</g>
<!-- 107374182406&#45;&gt;90194313287 -->
<g id="edge12" class="edge">
<title>107374182406&#45;&gt;90194313287</title>
<path fill="none" stroke="black" d="M771.09,-805.92C797.88,-799.16 830.47,-790.81 859.62,-783 905.25,-770.77 956.14,-756.51 996.95,-744.92"/>
<polygon fill="black" stroke="black" points="997.8,-748.32 1006.46,-742.22 995.88,-741.58 997.8,-748.32"/>
<text xml:space="preserve" text-anchor="middle" x="929.7" y="-769.7" font-family="Times,serif" font-size="14.00">DDG: </text>
</g>
<!-- 30064771256 -->
<g id="node5" class="node">
<title>30064771256</title>
<polygon fill="none" stroke="black" points="532,-329 185.25,-329 185.25,-289.5 532,-289.5 532,-329"/>
<text xml:space="preserve" text-anchor="start" x="270.88" y="-311.7" font-family="Times,serif" font-size="14.00">&lt;operator&gt;.assignment, 214</text>
<text xml:space="preserve" text-anchor="start" x="193.25" y="-295.95" font-family="Times,serif" font-size="14.00">raw = tmp11 = input(prompt) input(prompt).strip()</text>
</g>
<!-- 107374182406&#45;&gt;30064771256 -->
<g id="edge14" class="edge">
<title>107374182406&#45;&gt;30064771256</title>
<path fill="none" stroke="black" d="M659.9,-812.58C575.92,-800.19 426.62,-771.32 426.62,-722.62 426.62,-722.62 426.62,-722.62 426.62,-399.5 426.62,-374.89 410.07,-352.84 393.29,-336.81"/>
<polygon fill="black" stroke="black" points="396.01,-334.54 386.23,-330.45 391.32,-339.74 396.01,-334.54"/>
<text xml:space="preserve" text-anchor="middle" x="443.5" y="-531.95" font-family="Times,serif" font-size="14.00">DDG: </text>
</g>
<!-- 30064771255 -->
<g id="node7" class="node">
<title>30064771255</title>
<polygon fill="none" stroke="black" points="882.5,-420.25 724.75,-420.25 724.75,-380.75 882.5,-380.75 882.5,-420.25"/>
<text xml:space="preserve" text-anchor="start" x="769.88" y="-402.95" font-family="Times,serif" font-size="14.00">strip, 214</text>
<text xml:space="preserve" text-anchor="start" x="732.75" y="-387.2" font-family="Times,serif" font-size="14.00">input(prompt).strip()</text>
</g>
<!-- 107374182406&#45;&gt;30064771255 -->
<g id="edge18" class="edge">
<title>107374182406&#45;&gt;30064771255</title>
<path fill="none" stroke="black" d="M709.93,-800.59C704.66,-781.14 697.62,-750.06 697.62,-722.62 697.62,-722.62 697.62,-722.62 697.62,-490.75 697.62,-462.08 720.6,-440.76 745.16,-426.16"/>
<polygon fill="black" stroke="black" points="746.61,-429.36 753.65,-421.44 743.21,-423.24 746.61,-429.36"/>
<text xml:space="preserve" text-anchor="middle" x="714.5" y="-577.58" font-family="Times,serif" font-size="14.00">DDG: </text>
</g>
<!-- 30064771257 -->
<g id="node9" class="node">
<title>30064771257</title>
<polygon fill="none" stroke="black" points="196.62,-237.75 126.62,-237.75 126.62,-198.25 196.62,-198.25 196.62,-237.75"/>
<text xml:space="preserve" text-anchor="start" x="134.62" y="-220.45" font-family="Times,serif" font-size="14.00">int, 216</text>
<text xml:space="preserve" text-anchor="start" x="134.62" y="-204.7" font-family="Times,serif" font-size="14.00">int(raw)</text>
</g>
<!-- 107374182406&#45;&gt;30064771257 -->
<g id="edge26" class="edge">
<title>107374182406&#45;&gt;30064771257</title>
<path fill="none" stroke="black" d="M660.08,-815.88C518.94,-805.3 157.62,-773.27 157.62,-722.62 157.62,-722.62 157.62,-722.62 157.62,-308.25 157.62,-288.69 158.6,-266.73 159.58,-249.49"/>
<polygon fill="black" stroke="black" points="163.07,-249.84 160.18,-239.65 156.08,-249.42 163.07,-249.84"/>
<text xml:space="preserve" text-anchor="middle" x="174.5" y="-486.32" font-family="Times,serif" font-size="14.00">DDG: </text>
</g>
<!-- 68719476911 -->
<g id="node10" class="node">
<title>68719476911</title>
<polygon fill="none" stroke="black" points="1386.25,-749.25 1269,-749.25 1269,-694 1386.25,-694 1386.25,-749.25"/>
<text xml:space="preserve" text-anchor="start" x="1277" y="-731.95" font-family="Times,serif" font-size="14.00">IDENTIFIER, 214</text>
<text xml:space="preserve" text-anchor="start" x="1310.75" y="-716.2" font-family="Times,serif" font-size="14.00">input</text>
<text xml:space="preserve" text-anchor="start" x="1283.75" y="-700.45" font-family="Times,serif" font-size="14.00">input(prompt)</text>
</g>
<!-- 107374182406&#45;&gt;68719476911 -->
<g id="edge20" class="edge">
<title>107374182406&#45;&gt;68719476911</title>
<path fill="none" stroke="black" d="M771.02,-817.15C868.51,-811.59 1076.82,-795.31 1257.66,-749.79"/>
<polygon fill="black" stroke="black" points="1258.42,-753.21 1267.24,-747.34 1256.68,-746.43 1258.42,-753.21"/>
<text xml:space="preserve" text-anchor="middle" x="1189.92" y="-769.7" font-family="Times,serif" font-size="14.00">DDG: </text>
</g>
<!-- 30064771252 -->
<g id="node11" class="node">
<title>30064771252</title>
<polygon fill="none" stroke="black" points="921.5,-602.75 817.75,-602.75 817.75,-563.25 921.5,-563.25 921.5,-602.75"/>
<text xml:space="preserve" text-anchor="start" x="835.88" y="-585.45" font-family="Times,serif" font-size="14.00">input, 214</text>
<text xml:space="preserve" text-anchor="start" x="825.75" y="-569.7" font-family="Times,serif" font-size="14.00">input(prompt)</text>
</g>
<!-- 107374182406&#45;&gt;30064771252 -->
<g id="edge22" class="edge">
<title>107374182406&#45;&gt;30064771252</title>
<path fill="none" stroke="black" d="M758.46,-800.58C779.86,-788.81 804.2,-771.66 818.62,-749.25 845.88,-706.91 859.32,-649.11 865.34,-614.29"/>
<polygon fill="black" stroke="black" points="868.78,-614.92 866.93,-604.49 861.87,-613.8 868.78,-614.92"/>
<text xml:space="preserve" text-anchor="middle" x="861.47" y="-716.2" font-family="Times,serif" font-size="14.00">DDG: </text>
</g>
<!-- 68719476917 -->
<g id="node12" class="node">
<title>68719476917</title>
<polygon fill="none" stroke="black" points="1521.25,-749.25 1404,-749.25 1404,-694 1521.25,-694 1521.25,-749.25"/>
<text xml:space="preserve" text-anchor="start" x="1412" y="-731.95" font-family="Times,serif" font-size="14.00">IDENTIFIER, 216</text>
<text xml:space="preserve" text-anchor="start" x="1452.5" y="-716.2" font-family="Times,serif" font-size="14.00">int</text>
<text xml:space="preserve" text-anchor="start" x="1435.62" y="-700.45" font-family="Times,serif" font-size="14.00">int(raw)</text>
</g>
<!-- 107374182406&#45;&gt;68719476917 -->
<g id="edge24" class="edge">
<title>107374182406&#45;&gt;68719476917</title>
<path fill="none" stroke="black" d="M771.16,-817.84C862.97,-814.18 1052.02,-804.57 1210.62,-783 1246.21,-778.16 1254.56,-773.76 1289.88,-767.25 1333.37,-759.23 1347.67,-761.68 1392.59,-749.86"/>
<polygon fill="black" stroke="black" points="1393.49,-753.24 1402.21,-747.23 1391.64,-746.49 1393.49,-753.24"/>
<text xml:space="preserve" text-anchor="middle" x="1306.75" y="-769.7" font-family="Times,serif" font-size="14.00">DDG: </text>
</g>
<!-- 141733920775 -->
<g id="node13" class="node">
<title>141733920775</title>
<polygon fill="none" stroke="black" points="610.75,-130.75 520.5,-130.75 520.5,-91.25 610.75,-91.25 610.75,-130.75"/>
<text xml:space="preserve" text-anchor="start" x="528.5" y="-113.45" font-family="Times,serif" font-size="14.00">RETURN, 218</text>
<text xml:space="preserve" text-anchor="start" x="528.5" y="-97.7" font-family="Times,serif" font-size="14.00">return None</text>
</g>
<!-- 107374182406&#45;&gt;141733920775 -->
<g id="edge28" class="edge">
<title>107374182406&#45;&gt;141733920775</title>
<path fill="none" stroke="black" d="M692.19,-800.8C672.87,-782.91 648.62,-754.17 648.62,-722.62 648.62,-722.62 648.62,-722.62 648.62,-445.12 648.62,-414.59 639.03,-407.68 624.62,-380.75 619.97,-372.05 615.41,-371.86 611.62,-362.75 574.65,-273.75 598.27,-242.66 576.62,-148.75 576.1,-146.47 575.51,-144.12 574.89,-141.77"/>
<polygon fill="black" stroke="black" points="578.32,-141.06 572.22,-132.41 571.59,-142.98 578.32,-141.06"/>
<text xml:space="preserve" text-anchor="middle" x="665.5" y="-440.7" font-family="Times,serif" font-size="14.00">DDG: </text>
</g>
<!-- 90194313288 -->
<g id="node14" class="node">
<title>90194313288</title>
<polygon fill="none" stroke="black" points="618.12,-676 521.12,-676 521.12,-620.75 618.12,-620.75 618.12,-676"/>
<text xml:space="preserve" text-anchor="start" x="529.12" y="-658.7" font-family="Times,serif" font-size="14.00">LITERAL, 218</text>
<text xml:space="preserve" text-anchor="start" x="556.12" y="-642.95" font-family="Times,serif" font-size="14.00">None</text>
<text xml:space="preserve" text-anchor="start" x="532.5" y="-627.2" font-family="Times,serif" font-size="14.00">return None</text>
</g>
<!-- 107374182406&#45;&gt;90194313288 -->
<g id="edge29" class="edge">
<title>107374182406&#45;&gt;90194313288</title>
<path fill="none" stroke="black" d="M659.98,-813.68C638.8,-808.65 616.13,-799.53 600.88,-783 577.13,-757.26 570.35,-717.03 568.88,-687.43"/>
<polygon fill="black" stroke="black" points="572.39,-687.67 568.59,-677.78 565.39,-687.88 572.39,-687.67"/>
<text xml:space="preserve" text-anchor="middle" x="617.75" y="-769.7" font-family="Times,serif" font-size="14.00">DDG: </text>
</g>
<!-- 124554051590 -->
<g id="node2" class="node">
<title>124554051590</title>
<polygon fill="none" stroke="black" points="670.38,-39.5 532.88,-39.5 532.88,0 670.38,0 670.38,-39.5"/>
<text xml:space="preserve" text-anchor="start" x="540.88" y="-22.2" font-family="Times,serif" font-size="14.00">METHOD_RETURN, 212</text>
<text xml:space="preserve" text-anchor="start" x="551" y="-6.45" font-family="Times,serif" font-size="14.00">typing.Optional</text>
</g>
<!-- 111669149702&#45;&gt;30064771252 -->
<g id="edge21" class="edge">
<title>111669149702&#45;&gt;30064771252</title>
<path fill="none" stroke="black" d="M758.73,-701.74C749.97,-680.06 740.19,-644.46 757.38,-620.75 768.89,-604.86 787.49,-595.71 806.26,-590.49"/>
<polygon fill="black" stroke="black" points="806.9,-593.94 815.81,-588.2 805.27,-587.13 806.9,-593.94"/>
<text xml:space="preserve" text-anchor="middle" x="794.5" y="-642.95" font-family="Times,serif" font-size="14.00">DDG: prompt</text>
</g>
<!-- 30064771256&#45;&gt;124554051590 -->
<g id="edge8" class="edge">
<title>30064771256&#45;&gt;124554051590</title>
<path fill="none" stroke="black" d="M349.67,-289.11C336.25,-257.34 315.24,-192.84 342.62,-148.75 381.43,-86.28 460.75,-53.38 521.44,-36.67"/>
<polygon fill="black" stroke="black" points="522.31,-40.06 531.08,-34.12 520.52,-33.3 522.31,-40.06"/>
<text xml:space="preserve" text-anchor="middle" x="450.62" y="-166.95" font-family="Times,serif" font-size="14.00">DDG: raw = tmp11 = input(prompt)</text>
<text xml:space="preserve" text-anchor="middle" x="450.62" y="-151.2" font-family="Times,serif" font-size="14.00">input(prompt).strip()</text>
</g>
<!-- 30064771256&#45;&gt;30064771257 -->
<g id="edge25" class="edge">
<title>30064771256&#45;&gt;30064771257</title>
<path fill="none" stroke="black" d="M313.52,-289.05C300.6,-283.47 286.52,-277.31 273.62,-271.5 251.7,-261.62 227.53,-250.34 207.26,-240.78"/>
<polygon fill="black" stroke="black" points="208.96,-237.71 198.43,-236.59 205.97,-244.03 208.96,-237.71"/>
<text xml:space="preserve" text-anchor="middle" x="300.62" y="-258.2" font-family="Times,serif" font-size="14.00">DDG: raw</text>
</g>
<!-- 30064771253 -->
<g id="node6" class="node">
<title>30064771253</title>
<polygon fill="none" stroke="black" points="991.38,-511.5 799.88,-511.5 799.88,-472 991.38,-472 991.38,-511.5"/>
<text xml:space="preserve" text-anchor="start" x="807.88" y="-494.2" font-family="Times,serif" font-size="14.00">&lt;operator&gt;.assignment, 214</text>
<text xml:space="preserve" text-anchor="start" x="824.75" y="-478.45" font-family="Times,serif" font-size="14.00">tmp11 = input(prompt)</text>
</g>
<!-- 30064771253&#45;&gt;124554051590 -->
<g id="edge4" class="edge">
<title>30064771253&#45;&gt;124554051590</title>
<path fill="none" stroke="black" d="M896.31,-471.53C898.29,-419 904.33,-275.59 912.12,-255.75 915.88,-246.19 923.21,-247.44 926.62,-237.75 932.46,-221.19 930.88,-215.28 926.62,-198.25 913.57,-145.97 906.05,-130.96 869.62,-91.25 851,-70.95 843.29,-67.52 817.62,-57.5 774.45,-40.65 723.45,-31.52 681.85,-26.57"/>
<polygon fill="black" stroke="black" points="682.49,-23.12 672.16,-25.48 681.71,-30.07 682.49,-23.12"/>
<text xml:space="preserve" text-anchor="middle" x="972.88" y="-258.2" font-family="Times,serif" font-size="14.00">DDG: input(prompt)</text>
</g>
<!-- 30064771253&#45;&gt;124554051590 -->
<g id="edge5" class="edge">
<title>30064771253&#45;&gt;124554051590</title>
<path fill="none" stroke="black" d="M990.55,-471.62C1025,-458.66 1055.62,-437.12 1055.62,-401.5 1055.62,-401.5 1055.62,-401.5 1055.62,-110 1055.62,-34.75 812.48,-21.84 682.07,-20.33"/>
<polygon fill="black" stroke="black" points="682.12,-16.83 672.09,-20.24 682.06,-23.83 682.12,-16.83"/>
<text xml:space="preserve" text-anchor="middle" x="1143.38" y="-258.2" font-family="Times,serif" font-size="14.00">DDG: tmp11 = input(prompt)</text>
</g>
<!-- 30064771253&#45;&gt;30064771255 -->
<g id="edge17" class="edge">
<title>30064771253&#45;&gt;30064771255</title>
<path fill="none" stroke="black" d="M851.73,-471.56C843.56,-466.65 835.57,-460.79 829.12,-454 822.92,-447.46 817.95,-439.12 814.1,-431.02"/>
<polygon fill="black" stroke="black" points="817.43,-429.9 810.28,-422.08 810.99,-432.66 817.43,-429.9"/>
<text xml:space="preserve" text-anchor="middle" x="862.88" y="-440.7" font-family="Times,serif" font-size="14.00">DDG: tmp11</text>
</g>
<!-- 30064771255&#45;&gt;124554051590 -->
<g id="edge6" class="edge">
<title>30064771255&#45;&gt;124554051590</title>
<path fill="none" stroke="black" d="M822.69,-380.44C837.53,-363.51 855.62,-337.33 855.62,-310.25 855.62,-310.25 855.62,-310.25 855.62,-110 855.62,-72.6 756.36,-47.08 681.94,-33.21"/>
<polygon fill="black" stroke="black" points="682.65,-29.78 672.19,-31.43 681.4,-36.66 682.65,-29.78"/>
<text xml:space="preserve" text-anchor="middle" x="889.38" y="-212.57" font-family="Times,serif" font-size="14.00">DDG: tmp11</text>
</g>
<!-- 30064771255&#45;&gt;124554051590 -->
<g id="edge7" class="edge">
<title>30064771255&#45;&gt;124554051590</title>
<path fill="none" stroke="black" d="M800.55,-380.39C798.21,-369.9 794.23,-357.02 787.62,-347 746.17,-284.13 695.11,-303.34 658.12,-237.75 618.29,-167.1 661.5,-132.08 629.62,-57.5 628.43,-54.69 626.96,-51.91 625.34,-49.2"/>
<polygon fill="black" stroke="black" points="628.34,-47.39 619.82,-41.09 622.55,-51.32 628.34,-47.39"/>
<text xml:space="preserve" text-anchor="middle" x="745.88" y="-212.57" font-family="Times,serif" font-size="14.00">DDG: input(prompt).strip()</text>
</g>
<!-- 30064771255&#45;&gt;30064771256 -->
<g id="edge13" class="edge">
<title>30064771255&#45;&gt;30064771256</title>
<path fill="none" stroke="black" d="M724.32,-383.6C652.13,-369.12 544.97,-347.62 465.29,-331.64"/>
<polygon fill="black" stroke="black" points="466.21,-328.26 455.72,-329.72 464.84,-335.12 466.21,-328.26"/>
<text xml:space="preserve" text-anchor="middle" x="695.52" y="-349.45" font-family="Times,serif" font-size="14.00">DDG: input(prompt).strip()</text>
</g>
<!-- 141733920774 -->
<g id="node8" class="node">
<title>141733920774</title>
<polygon fill="none" stroke="black" points="117.25,-130.75 0,-130.75 0,-91.25 117.25,-91.25 117.25,-130.75"/>
<text xml:space="preserve" text-anchor="start" x="21.5" y="-113.45" font-family="Times,serif" font-size="14.00">RETURN, 216</text>
<text xml:space="preserve" text-anchor="start" x="8" y="-97.7" font-family="Times,serif" font-size="14.00">return int(raw)</text>
</g>
<!-- 141733920774&#45;&gt;124554051590 -->
<g id="edge2" class="edge">
<title>141733920774&#45;&gt;124554051590</title>
<path fill="none" stroke="black" d="M61.33,-90.86C64.04,-79.26 69.43,-65.24 80.12,-57.5 114.95,-32.31 383.77,-24.28 521.23,-21.8"/>
<polygon fill="black" stroke="black" points="521.05,-25.31 530.99,-21.63 520.93,-18.31 521.05,-25.31"/>
<text xml:space="preserve" text-anchor="middle" x="113.88" y="-59.95" font-family="Times,serif" font-size="14.00">DDG: &lt;RET&gt;</text>
</g>
<!-- 30064771257&#45;&gt;124554051590 -->
<g id="edge9" class="edge">
<title>30064771257&#45;&gt;124554051590</title>
<path fill="none" stroke="black" d="M158.66,-198.13C155.57,-171.82 153.82,-123.71 175.62,-91.25 193.12,-65.21 207.65,-66.76 237.62,-57.5 288.77,-41.7 430.34,-30.78 521.11,-25.16"/>
<polygon fill="black" stroke="black" points="521.18,-28.66 530.95,-24.56 520.76,-21.67 521.18,-28.66"/>
<text xml:space="preserve" text-anchor="middle" x="202.62" y="-105.58" font-family="Times,serif" font-size="14.00">DDG: raw</text>
</g>
<!-- 30064771257&#45;&gt;124554051590 -->
<g id="edge10" class="edge">
<title>30064771257&#45;&gt;124554051590</title>
<path fill="none" stroke="black" d="M176.66,-197.8C202.81,-164.57 254.93,-99.11 265.88,-91.25 299.81,-66.87 313.21,-68.13 353.62,-57.5 408.69,-43.02 472.23,-33.74 521.21,-28.13"/>
<polygon fill="black" stroke="black" points="521.33,-31.64 530.88,-27.05 520.55,-24.68 521.33,-31.64"/>
<text xml:space="preserve" text-anchor="middle" x="309.75" y="-105.58" font-family="Times,serif" font-size="14.00">DDG: int(raw)</text>
</g>
<!-- 30064771257&#45;&gt;141733920774 -->
<g id="edge16" class="edge">
<title>30064771257&#45;&gt;141733920774</title>
<path fill="none" stroke="black" d="M126.32,-214.21C103.35,-210.36 74.96,-201.33 59.88,-180.25 52.16,-169.48 50.95,-155.1 52.03,-142.32"/>
<polygon fill="black" stroke="black" points="55.46,-143.06 53.34,-132.68 48.52,-142.12 55.46,-143.06"/>
<text xml:space="preserve" text-anchor="middle" x="103.75" y="-159.07" font-family="Times,serif" font-size="14.00">DDG: int(raw)</text>
</g>
<!-- 30064771257&#45;&gt;141733920774 -->
<g id="edge30" class="edge">
<title>30064771257&#45;&gt;141733920774</title>
<path fill="none" stroke="black" d="M126.45,-213.2C87.26,-208.16 27.59,-197.79 13.88,-180.25 5.25,-169.22 7.89,-161.41 13.88,-148.75 15.46,-145.39 17.53,-142.23 19.9,-139.29"/>
<polygon fill="black" stroke="black" points="22.3,-141.84 26.7,-132.21 17.25,-136.99 22.3,-141.84"/>
<text xml:space="preserve" text-anchor="middle" x="30.75" y="-159.07" font-family="Times,serif" font-size="14.00">CDG: </text>
</g>
<!-- 30064771257&#45;&gt;141733920775 -->
<g id="edge31" class="edge">
<title>30064771257&#45;&gt;141733920775</title>
<path fill="none" stroke="black" d="M196.82,-209.61C217.46,-204.02 243.2,-194.77 262.62,-180.25 276.56,-169.83 270.89,-157.59 285.88,-148.75 322.5,-127.15 438.08,-117.95 508.7,-114.26"/>
<polygon fill="black" stroke="black" points="508.73,-117.76 518.54,-113.77 508.38,-110.77 508.73,-117.76"/>
<text xml:space="preserve" text-anchor="middle" x="302.75" y="-159.07" font-family="Times,serif" font-size="14.00">CDG: </text>
</g>
<!-- 30064771252&#45;&gt;124554051590 -->
<g id="edge3" class="edge">
<title>30064771252&#45;&gt;124554051590</title>
<path fill="none" stroke="black" d="M921.65,-580.47C1025.07,-576.01 1246.62,-558.75 1246.62,-492.75 1246.62,-492.75 1246.62,-492.75 1246.62,-110 1246.62,-53.61 854.85,-30.91 681.96,-23.63"/>
<polygon fill="black" stroke="black" points="682.3,-20.14 672.16,-23.23 682.01,-27.14 682.3,-20.14"/>
<text xml:space="preserve" text-anchor="middle" x="1283.75" y="-303.82" font-family="Times,serif" font-size="14.00">DDG: prompt</text>
</g>
<!-- 30064771252&#45;&gt;30064771253 -->
<g id="edge15" class="edge">
<title>30064771252&#45;&gt;30064771253</title>
<path fill="none" stroke="black" d="M875.14,-563.07C878.53,-551.44 882.95,-536.27 886.81,-522.99"/>
<polygon fill="black" stroke="black" points="890.17,-523.99 889.61,-513.41 883.45,-522.03 890.17,-523.99"/>
<text xml:space="preserve" text-anchor="middle" x="921.31" y="-531.95" font-family="Times,serif" font-size="14.00">DDG: prompt</text>
</g>
<!-- 141733920775&#45;&gt;124554051590 -->
<g id="edge1" class="edge">
<title>141733920775&#45;&gt;124554051590</title>
<path fill="none" stroke="black" d="M560.19,-90.8C558.28,-80.53 557.6,-67.89 562.12,-57.5 563.54,-54.26 565.39,-51.17 567.53,-48.26"/>
<polygon fill="black" stroke="black" points="570.15,-50.59 574.12,-40.77 564.89,-45.96 570.15,-50.59"/>
<text xml:space="preserve" text-anchor="middle" x="595.88" y="-59.95" font-family="Times,serif" font-size="14.00">DDG: &lt;RET&gt;</text>
</g>
<!-- 90194313288&#45;&gt;141733920775 -->
<g id="edge27" class="edge">
<title>90194313288&#45;&gt;141733920775</title>
<path fill="none" stroke="black" d="M565.79,-620.56C562.97,-598.54 559.62,-566.5 559.62,-538.38 559.62,-538.38 559.62,-538.38 559.62,-262.62 559.62,-220.81 561.96,-172.51 563.72,-142.11"/>
<polygon fill="black" stroke="black" points="567.19,-142.71 564.29,-132.52 560.2,-142.3 567.19,-142.71"/>
<text xml:space="preserve" text-anchor="middle" x="590" y="-395.07" font-family="Times,serif" font-size="14.00">DDG: None</text>
</g>
<!-- 30064771073 -->
<g id="node15" class="node">
<title>30064771073</title>
<polygon fill="none" stroke="black" points="1372.75,-838.75 1282.5,-838.75 1282.5,-802.75 1372.75,-802.75 1372.75,-838.75"/>
<text xml:space="preserve" text-anchor="middle" x="1327.62" y="-815.33" font-family="Times,serif" font-size="14.00">30064771073</text>
</g>
<!-- 30064771073&#45;&gt;68719476911 -->
<g id="edge19" class="edge">
<title>30064771073&#45;&gt;68719476911</title>
<path fill="none" stroke="black" d="M1327.62,-802.39C1327.62,-790.85 1327.62,-775.23 1327.62,-760.88"/>
<polygon fill="black" stroke="black" points="1331.13,-761.25 1327.63,-751.25 1324.13,-761.25 1331.13,-761.25"/>
<text xml:space="preserve" text-anchor="middle" x="1361.38" y="-769.7" font-family="Times,serif" font-size="14.00">DDG: input</text>
</g>
<!-- 30064771081 -->
<g id="node16" class="node">
<title>30064771081</title>
<polygon fill="none" stroke="black" points="1507.75,-838.75 1417.5,-838.75 1417.5,-802.75 1507.75,-802.75 1507.75,-838.75"/>
<text xml:space="preserve" text-anchor="middle" x="1462.62" y="-815.33" font-family="Times,serif" font-size="14.00">30064771081</text>
</g>
<!-- 30064771081&#45;&gt;68719476917 -->
<g id="edge23" class="edge">
<title>30064771081&#45;&gt;68719476917</title>
<path fill="none" stroke="black" d="M1462.62,-802.39C1462.62,-790.85 1462.62,-775.23 1462.62,-760.88"/>
<polygon fill="black" stroke="black" points="1466.13,-761.25 1462.63,-751.25 1459.13,-761.25 1466.13,-761.25"/>
<text xml:space="preserve" text-anchor="middle" x="1489.62" y="-769.7" font-family="Times,serif" font-size="14.00">DDG: int</text>
</g>
</g>
</svg>
