<?xml version="1.0" encoding="UTF-8" standalone="no"?>
<!DOCTYPE svg PUBLIC "-//W3C//DTD SVG 1.1//EN"
 "http://www.w3.org/Graphics/SVG/1.1/DTD/svg11.dtd">
<!-- Generated by graphviz version 13.1.2 (20250809.0930)
 -->
<!-- Title: list_sections_for_course Pages: 1 -->
<svg width="3312pt" height="1349pt"
 viewBox="0.00 0.00 3312.00 1349.00" xmlns="http://www.w3.org/2000/svg" xmlns:xlink="http://www.w3.org/1999/xlink">
<g id="graph0" class="graph" transform="scale(1 1) rotate(0) translate(4 1344.5)">
<title>list_sections_for_course</title>
<polygon fill="white" stroke="none" points="-4,4 -4,-1344.5 3308,-1344.5 3308,4 -4,4"/>
<!-- 107374182474 -->
<g id="node1" class="node">
<title>107374182474</title>
<polygon fill="none" stroke="black" points="1352,-1340.5 1174,-1340.5 1174,-1301 1352,-1301 1352,-1340.5"/>
<text xml:space="preserve" text-anchor="start" x="1225.88" y="-1323.2" font-family="Times,serif" font-size="14.00">METHOD, 899</text>
<text xml:space="preserve" text-anchor="start" x="1182" y="-1307.45" font-family="Times,serif" font-size="14.00">list_sections_for_course</text>
</g>
<!-- 111669149832 -->
<g id="node3" class="node">
<title>111669149832</title>
<polygon fill="none" stroke="black" points="275.75,-1249.25 192.25,-1249.25 192.25,-1209.75 275.75,-1209.75 275.75,-1249.25"/>
<text xml:space="preserve" text-anchor="start" x="200.25" y="-1231.95" font-family="Times,serif" font-size="14.00">PARAM, 899</text>
<text xml:space="preserve" text-anchor="start" x="220.5" y="-1216.2" font-family="Times,serif" font-size="14.00">self</text>
</g>
<!-- 107374182474&#45;&gt;111669149832 -->
<g id="edge26" class="edge">
<title>107374182474&#45;&gt;111669149832</title>
<path fill="none" stroke="black" d="M1173.64,-1319.62C1031.11,-1318.47 743.78,-1312.31 502.25,-1283 426.82,-1273.85 340.81,-1255.61 286.96,-1243.23"/>
<polygon fill="black" stroke="black" points="287.98,-1239.87 277.45,-1241.02 286.4,-1246.69 287.98,-1239.87"/>
<text xml:space="preserve" text-anchor="middle" x="519.12" y="-1269.7" font-family="Times,serif" font-size="14.00">DDG: </text>
</g>
<!-- 111669149833 -->
<g id="node4" class="node">
<title>111669149833</title>
<polygon fill="none" stroke="black" points="2684.12,-610.5 2593.88,-610.5 2593.88,-571 2684.12,-571 2684.12,-610.5"/>
<text xml:space="preserve" text-anchor="start" x="2605.25" y="-593.2" font-family="Times,serif" font-size="14.00">PARAM, 899</text>
<text xml:space="preserve" text-anchor="start" x="2601.88" y="-577.45" font-family="Times,serif" font-size="14.00">course_code</text>
</g>
<!-- 107374182474&#45;&gt;111669149833 -->
<g id="edge27" class="edge">
<title>107374182474&#45;&gt;111669149833</title>
<path fill="none" stroke="black" d="M1352.48,-1319.19C1639.93,-1317.14 2524.44,-1308.77 2580,-1283 2608.41,-1269.82 2627,-1261.82 2627,-1230.5 2627,-1230.5 2627,-1230.5 2627,-681 2627,-661.28 2629.91,-639.32 2632.87,-622.12"/>
<polygon fill="black" stroke="black" points="2636.31,-622.76 2634.67,-612.29 2629.43,-621.5 2636.31,-622.76"/>
<text xml:space="preserve" text-anchor="middle" x="2643.88" y="-950.33" font-family="Times,serif" font-size="14.00">DDG: </text>
</g>
<!-- 30064772434 -->
<g id="node5" class="node">
<title>30064772434</title>
<polygon fill="none" stroke="black" points="1359.75,-519.25 1168.25,-519.25 1168.25,-479.75 1359.75,-479.75 1359.75,-519.25"/>
<text xml:space="preserve" text-anchor="start" x="1176.25" y="-501.95" font-family="Times,serif" font-size="14.00">&lt;operator&gt;.assignment, 900</text>
<text xml:space="preserve" text-anchor="start" x="1223.5" y="-486.2" font-family="Times,serif" font-size="14.00">results = []</text>
</g>
<!-- 107374182474&#45;&gt;30064772434 -->
<g id="edge28" class="edge">
<title>107374182474&#45;&gt;30064772434</title>
<path fill="none" stroke="black" d="M1263,-1300.6C1263,-1282.53 1263,-1254.67 1263,-1230.5 1263,-1230.5 1263,-1230.5 1263,-589.75 1263,-570.2 1263.24,-548.25 1263.49,-531.01"/>
<polygon fill="black" stroke="black" points="1266.99,-531.22 1263.64,-521.16 1259.99,-531.11 1266.99,-531.22"/>
<text xml:space="preserve" text-anchor="middle" x="1279.88" y="-904.7" font-family="Times,serif" font-size="14.00">DDG: </text>
</g>
<!-- 25769804098 -->
<g id="node6" class="node">
<title>25769804098</title>
<polygon fill="none" stroke="black" points="1123.75,-1249.25 770.25,-1249.25 770.25,-1209.75 1123.75,-1209.75 1123.75,-1249.25"/>
<text xml:space="preserve" text-anchor="start" x="913.25" y="-1231.95" font-family="Times,serif" font-size="14.00">BLOCK, 901</text>
<text xml:space="preserve" text-anchor="start" x="778.25" y="-1216.2" font-family="Times,serif" font-size="14.00">tmp125 = tmp126 = tmp127 = self.sections self.s...</text>
</g>
<!-- 107374182474&#45;&gt;25769804098 -->
<g id="edge29" class="edge">
<title>107374182474&#45;&gt;25769804098</title>
<path fill="none" stroke="black" d="M1173.62,-1300.62C1150.89,-1295.33 1126.58,-1289.3 1104.25,-1283 1073.18,-1274.24 1039.14,-1263.07 1010.71,-1253.3"/>
<polygon fill="black" stroke="black" points="1012.13,-1250.08 1001.54,-1250.12 1009.84,-1256.7 1012.13,-1250.08"/>
<text xml:space="preserve" text-anchor="middle" x="1121.12" y="-1269.7" font-family="Times,serif" font-size="14.00">DDG: </text>
</g>
<!-- 30064772454 -->
<g id="node7" class="node">
<title>30064772454</title>
<polygon fill="none" stroke="black" points="1676.75,-329 1323.25,-329 1323.25,-289.5 1676.75,-289.5 1676.75,-329"/>
<text xml:space="preserve" text-anchor="start" x="1469.62" y="-311.7" font-family="Times,serif" font-size="14.00">sort, 904</text>
<text xml:space="preserve" text-anchor="start" x="1331.25" y="-295.95" font-family="Times,serif" font-size="14.00">results.sort(key = lambda s: (s.semester,s.sect...</text>
</g>
<!-- 107374182474&#45;&gt;30064772454 -->
<g id="edge35" class="edge">
<title>107374182474&#45;&gt;30064772454</title>
<path fill="none" stroke="black" d="M1352.26,-1306.23C1393.72,-1294.35 1434,-1272.11 1434,-1230.5 1434,-1230.5 1434,-1230.5 1434,-772.25 1434,-712.2 1426,-697.42 1426,-637.38 1426,-637.38 1426,-637.38 1426,-403.38 1426,-376.81 1444.68,-353.43 1463.27,-336.74"/>
<polygon fill="black" stroke="black" points="1465.5,-339.44 1470.87,-330.31 1460.98,-334.1 1465.5,-339.44"/>
<text xml:space="preserve" text-anchor="middle" x="1450.88" y="-813.45" font-family="Times,serif" font-size="14.00">DDG: </text>
</g>
<!-- 30064772446 -->
<g id="node9" class="node">
<title>30064772446</title>
<polygon fill="none" stroke="black" points="1129.75,-793 776.25,-793 776.25,-753.5 1129.75,-753.5 1129.75,-793"/>
<text xml:space="preserve" text-anchor="start" x="865.25" y="-775.7" font-family="Times,serif" font-size="14.00">&lt;operator&gt;.assignment, 901</text>
<text xml:space="preserve" text-anchor="start" x="784.25" y="-759.95" font-family="Times,serif" font-size="14.00">tmp125 = tmp126 = tmp127 = self.sections self.s...</text>
</g>
<!-- 107374182474&#45;&gt;30064772446 -->
<g id="edge32" class="edge">
<title>107374182474&#45;&gt;30064772446</title>
<path fill="none" stroke="black" d="M1239.56,-1300.74C1222,-1284.23 1201,-1258.61 1201,-1230.5 1201,-1230.5 1201,-1230.5 1201,-863.5 1201,-833.6 1136.37,-810.97 1073.09,-795.98"/>
<polygon fill="black" stroke="black" points="1074.14,-792.63 1063.61,-793.79 1072.57,-799.45 1074.14,-792.63"/>
<text xml:space="preserve" text-anchor="middle" x="1217.88" y="-1041.58" font-family="Times,serif" font-size="14.00">DDG: </text>
</g>
<!-- 68719478130 -->
<g id="node10" class="node">
<title>68719478130</title>
<polygon fill="none" stroke="black" points="1353.62,-237.75 1236.38,-237.75 1236.38,-182.5 1353.62,-182.5 1353.62,-237.75"/>
<text xml:space="preserve" text-anchor="start" x="1244.38" y="-220.45" font-family="Times,serif" font-size="14.00">IDENTIFIER, 905</text>
<text xml:space="preserve" text-anchor="start" x="1271.38" y="-204.7" font-family="Times,serif" font-size="14.00">results</text>
<text xml:space="preserve" text-anchor="start" x="1247.75" y="-188.95" font-family="Times,serif" font-size="14.00">return results</text>
</g>
<!-- 107374182474&#45;&gt;68719478130 -->
<g id="edge37" class="edge">
<title>107374182474&#45;&gt;68719478130</title>
<path fill="none" stroke="black" d="M1280.69,-1300.83C1294.73,-1283.79 1312,-1257.37 1312,-1230.5 1312,-1230.5 1312,-1230.5 1312,-772.25 1312,-596.08 1447.37,-540.91 1374,-380.75 1359.33,-348.73 1331.17,-359.74 1314,-329 1300.45,-304.74 1295.88,-273.56 1294.6,-249.37"/>
<polygon fill="black" stroke="black" points="1298.11,-249.5 1294.27,-239.62 1291.11,-249.74 1298.11,-249.5"/>
<text xml:space="preserve" text-anchor="middle" x="1328.88" y="-767.83" font-family="Times,serif" font-size="14.00">DDG: </text>
</g>
<!-- 30064772443 -->
<g id="node11" class="node">
<title>30064772443</title>
<polygon fill="none" stroke="black" points="889.75,-975.5 536.25,-975.5 536.25,-936 889.75,-936 889.75,-975.5"/>
<text xml:space="preserve" text-anchor="start" x="625.25" y="-958.2" font-family="Times,serif" font-size="14.00">&lt;operator&gt;.assignment, 901</text>
<text xml:space="preserve" text-anchor="start" x="544.25" y="-942.45" font-family="Times,serif" font-size="14.00">tmp126 = tmp127 = self.sections self.sections.v...</text>
</g>
<!-- 107374182474&#45;&gt;30064772443 -->
<g id="edge39" class="edge">
<title>107374182474&#45;&gt;30064772443</title>
<path fill="none" stroke="black" d="M1173.64,-1313.56C1023.78,-1301.98 738,-1274.16 738,-1230.5 738,-1230.5 738,-1230.5 738,-1046 738,-1025.54 731.83,-1003.39 725.62,-986.27"/>
<polygon fill="black" stroke="black" points="729,-985.31 722.15,-977.23 722.47,-987.82 729,-985.31"/>
<text xml:space="preserve" text-anchor="middle" x="754.88" y="-1132.83" font-family="Times,serif" font-size="14.00">DDG: </text>
</g>
<!-- 30064772445 -->
<g id="node12" class="node">
<title>30064772445</title>
<polygon fill="none" stroke="black" points="1018.38,-884.25 887.62,-884.25 887.62,-844.75 1018.38,-844.75 1018.38,-884.25"/>
<text xml:space="preserve" text-anchor="start" x="909.12" y="-866.95" font-family="Times,serif" font-size="14.00">__iter__, 901</text>
<text xml:space="preserve" text-anchor="start" x="895.62" y="-851.2" font-family="Times,serif" font-size="14.00">tmp126.__iter__()</text>
</g>
<!-- 107374182474&#45;&gt;30064772445 -->
<g id="edge42" class="edge">
<title>107374182474&#45;&gt;30064772445</title>
<path fill="none" stroke="black" d="M1210.75,-1300.51C1181.96,-1286.19 1152,-1263.39 1152,-1230.5 1152,-1230.5 1152,-1230.5 1152,-954.75 1152,-898.96 1086.07,-877.82 1030.11,-869.93"/>
<polygon fill="black" stroke="black" points="1030.57,-866.46 1020.21,-868.68 1029.69,-873.41 1030.57,-866.46"/>
<text xml:space="preserve" text-anchor="middle" x="1168.88" y="-1087.2" font-family="Times,serif" font-size="14.00">DDG: </text>
</g>
<!-- 30064772436 -->
<g id="node14" class="node">
<title>30064772436</title>
<polygon fill="none" stroke="black" points="2688.75,-519.25 2443.25,-519.25 2443.25,-479.75 2688.75,-479.75 2688.75,-519.25"/>
<text xml:space="preserve" text-anchor="start" x="2491.75" y="-501.95" font-family="Times,serif" font-size="14.00">&lt;operator&gt;.equals, 902</text>
<text xml:space="preserve" text-anchor="start" x="2451.25" y="-486.2" font-family="Times,serif" font-size="14.00">section.course_code == course_code</text>
</g>
<!-- 107374182474&#45;&gt;30064772436 -->
<g id="edge48" class="edge">
<title>107374182474&#45;&gt;30064772436</title>
<path fill="none" stroke="black" d="M1352.37,-1319.04C1630.49,-1316.57 2465.21,-1307.19 2518,-1283 2546.74,-1269.83 2566,-1262.12 2566,-1230.5 2566,-1230.5 2566,-1230.5 2566,-589.75 2566,-570.2 2566,-548.25 2566,-531.01"/>
<polygon fill="black" stroke="black" points="2569.5,-531.16 2566,-521.16 2562.5,-531.16 2569.5,-531.16"/>
<text xml:space="preserve" text-anchor="middle" x="2582.88" y="-904.7" font-family="Times,serif" font-size="14.00">DDG: </text>
</g>
<!-- 30064772442 -->
<g id="node16" class="node">
<title>30064772442</title>
<polygon fill="none" stroke="black" points="564.25,-1066.75 399.75,-1066.75 399.75,-1027.25 564.25,-1027.25 564.25,-1066.75"/>
<text xml:space="preserve" text-anchor="start" x="444.88" y="-1049.45" font-family="Times,serif" font-size="14.00">values, 901</text>
<text xml:space="preserve" text-anchor="start" x="407.75" y="-1033.7" font-family="Times,serif" font-size="14.00">self.sections.values()</text>
</g>
<!-- 107374182474&#45;&gt;30064772442 -->
<g id="edge50" class="edge">
<title>107374182474&#45;&gt;30064772442</title>
<path fill="none" stroke="black" d="M1173.65,-1317.01C1031.04,-1312.14 763.89,-1300.78 724,-1283 621.49,-1237.3 536.84,-1128.32 500.75,-1076.42"/>
<polygon fill="black" stroke="black" points="503.79,-1074.65 495.25,-1068.38 498.01,-1078.6 503.79,-1074.65"/>
<text xml:space="preserve" text-anchor="middle" x="613.17" y="-1178.45" font-family="Times,serif" font-size="14.00">DDG: </text>
</g>
<!-- 30064772448 -->
<g id="node17" class="node">
<title>30064772448</title>
<polygon fill="none" stroke="black" points="1584.38,-701.75 1453.62,-701.75 1453.62,-662.25 1584.38,-662.25 1584.38,-701.75"/>
<text xml:space="preserve" text-anchor="start" x="1475.12" y="-684.45" font-family="Times,serif" font-size="14.00">__next__, 901</text>
<text xml:space="preserve" text-anchor="start" x="1461.62" y="-668.7" font-family="Times,serif" font-size="14.00">tmp125.__next__()</text>
</g>
<!-- 107374182474&#45;&gt;30064772448 -->
<g id="edge45" class="edge">
<title>107374182474&#45;&gt;30064772448</title>
<path fill="none" stroke="black" d="M1352.06,-1312.42C1383.66,-1307.18 1418.65,-1298.25 1448,-1283 1477.99,-1267.42 1503,-1264.29 1503,-1230.5 1503,-1230.5 1503,-1230.5 1503,-772.25 1503,-752.3 1506.92,-730.22 1510.88,-713.02"/>
<polygon fill="black" stroke="black" points="1514.25,-713.99 1513.22,-703.44 1507.45,-712.33 1514.25,-713.99"/>
<text xml:space="preserve" text-anchor="middle" x="1519.88" y="-995.95" font-family="Times,serif" font-size="14.00">DDG: </text>
</g>
<!-- 30064772438 -->
<g id="node18" class="node">
<title>30064772438</title>
<polygon fill="none" stroke="black" points="2382.62,-424.12 2211.38,-424.12 2211.38,-384.62 2382.62,-384.62 2382.62,-424.12"/>
<text xml:space="preserve" text-anchor="start" x="2259.88" y="-406.82" font-family="Times,serif" font-size="14.00">append, 903</text>
<text xml:space="preserve" text-anchor="start" x="2219.38" y="-391.07" font-family="Times,serif" font-size="14.00">results.append(section)</text>
</g>
<!-- 107374182474&#45;&gt;30064772438 -->
<g id="edge52" class="edge">
<title>107374182474&#45;&gt;30064772438</title>
<path fill="none" stroke="black" d="M1352.5,-1317.99C1637.31,-1311.81 2504,-1288.27 2504,-1230.5 2504,-1230.5 2504,-1230.5 2504,-681 2504,-610.32 2485.75,-587.45 2436,-537.25 2430.29,-531.49 2315.82,-468.28 2311,-461.75 2305.4,-454.16 2302.03,-444.59 2300,-435.5"/>
<polygon fill="black" stroke="black" points="2303.49,-435.18 2298.34,-425.93 2296.59,-436.38 2303.49,-435.18"/>
<text xml:space="preserve" text-anchor="middle" x="2520.88" y="-859.08" font-family="Times,serif" font-size="14.00">DDG: </text>
</g>
<!-- 124554051658 -->
<g id="node2" class="node">
<title>124554051658</title>
<polygon fill="none" stroke="black" points="1330.75,-39.5 1193.25,-39.5 1193.25,0 1330.75,0 1330.75,-39.5"/>
<text xml:space="preserve" text-anchor="start" x="1201.25" y="-22.2" font-family="Times,serif" font-size="14.00">METHOD_RETURN, 899</text>
<text xml:space="preserve" text-anchor="start" x="1224.88" y="-6.45" font-family="Times,serif" font-size="14.00">typing.List</text>
</g>
<!-- 111669149832&#45;&gt;124554051658 -->
<g id="edge2" class="edge">
<title>111669149832&#45;&gt;124554051658</title>
<path fill="none" stroke="black" d="M191.9,-1221.35C124.53,-1208.71 0,-1179.85 0,-1139.25 0,-1139.25 0,-1139.25 0,-110 0,-64.46 44.29,-70.29 88,-57.5 192.1,-27.05 933.98,-21.83 1181.7,-20.93"/>
<polygon fill="black" stroke="black" points="1181.62,-24.44 1191.61,-20.9 1181.59,-17.44 1181.62,-24.44"/>
<text xml:space="preserve" text-anchor="middle" x="30.38" y="-630.95" font-family="Times,serif" font-size="14.00">DDG: self</text>
</g>
<!-- 30064772440 -->
<g id="node15" class="node">
<title>30064772440</title>
<polygon fill="none" stroke="black" points="329.75,-1158 138.25,-1158 138.25,-1118.5 329.75,-1118.5 329.75,-1158"/>
<text xml:space="preserve" text-anchor="start" x="146.25" y="-1140.7" font-family="Times,serif" font-size="14.00">&lt;operator&gt;.assignment, 901</text>
<text xml:space="preserve" text-anchor="start" x="159.75" y="-1124.95" font-family="Times,serif" font-size="14.00">tmp127 = self.sections</text>
</g>
<!-- 111669149832&#45;&gt;30064772440 -->
<g id="edge43" class="edge">
<title>111669149832&#45;&gt;30064772440</title>
<path fill="none" stroke="black" d="M234,-1209.57C234,-1198.05 234,-1183.07 234,-1169.9"/>
<polygon fill="black" stroke="black" points="237.5,-1169.97 234,-1159.97 230.5,-1169.97 237.5,-1169.97"/>
<text xml:space="preserve" text-anchor="middle" x="264.38" y="-1178.45" font-family="Times,serif" font-size="14.00">DDG: self</text>
</g>
<!-- 111669149833&#45;&gt;124554051658 -->
<g id="edge3" class="edge">
<title>111669149833&#45;&gt;124554051658</title>
<path fill="none" stroke="black" d="M2684.58,-587.24C2817.61,-579.29 3196,-552.16 3196,-500.5 3196,-500.5 3196,-500.5 3196,-110 3196,39.39 3012.79,-70.91 2864,-57.5 2563.73,-30.44 1623.54,-22.86 1342.27,-21.17"/>
<polygon fill="black" stroke="black" points="1342.49,-17.67 1332.47,-21.11 1342.45,-24.67 1342.49,-17.67"/>
<text xml:space="preserve" text-anchor="middle" x="3250" y="-303.82" font-family="Times,serif" font-size="14.00">DDG: course_code</text>
</g>
<!-- 111669149833&#45;&gt;30064772436 -->
<g id="edge47" class="edge">
<title>111669149833&#45;&gt;30064772436</title>
<path fill="none" stroke="black" d="M2623.52,-570.82C2613.42,-558.48 2600.08,-542.16 2588.78,-528.35"/>
<polygon fill="black" stroke="black" points="2591.71,-526.4 2582.67,-520.88 2586.29,-530.84 2591.71,-526.4"/>
<text xml:space="preserve" text-anchor="middle" x="2660.87" y="-539.7" font-family="Times,serif" font-size="14.00">DDG: course_code</text>
</g>
<!-- 30064772434&#45;&gt;124554051658 -->
<g id="edge4" class="edge">
<title>30064772434&#45;&gt;124554051658</title>
<path fill="none" stroke="black" d="M1259.36,-479.52C1246.4,-425.45 1210.02,-265.78 1198,-130.75 1196.44,-113.26 1191.68,-107.63 1198,-91.25 1204.44,-74.59 1216.84,-59.43 1229.03,-47.47"/>
<polygon fill="black" stroke="black" points="1231.31,-50.13 1236.25,-40.76 1226.54,-45.01 1231.31,-50.13"/>
<text xml:space="preserve" text-anchor="middle" x="1240.34" y="-258.2" font-family="Times,serif" font-size="14.00">DDG: []</text>
</g>
<!-- 30064772434&#45;&gt;124554051658 -->
<g id="edge5" class="edge">
<title>30064772434&#45;&gt;124554051658</title>
<path fill="none" stroke="black" d="M1248.7,-479.39C1208.64,-429.15 1103.23,-295.63 1095.25,-271.5 1081.34,-229.48 1078.52,-191.15 1204,-57.5 1207.68,-53.58 1211.87,-49.9 1216.27,-46.49"/>
<polygon fill="black" stroke="black" points="1218.16,-49.45 1224.27,-40.79 1214.09,-43.75 1218.16,-49.45"/>
<text xml:space="preserve" text-anchor="middle" x="1152.62" y="-258.2" font-family="Times,serif" font-size="14.00">DDG: results = []</text>
</g>
<!-- 30064772434&#45;&gt;30064772454 -->
<g id="edge33" class="edge">
<title>30064772434&#45;&gt;30064772454</title>
<path fill="none" stroke="black" d="M1270.3,-479.66C1279.73,-454.07 1299.82,-408.34 1331,-380.75 1354.96,-359.55 1386.2,-344.12 1415.3,-333.2"/>
<polygon fill="black" stroke="black" points="1416.25,-336.58 1424.48,-329.9 1413.88,-329.99 1416.25,-336.58"/>
<text xml:space="preserve" text-anchor="middle" x="1371.5" y="-398.95" font-family="Times,serif" font-size="14.00">DDG: results</text>
</g>
<!-- 30064772434&#45;&gt;30064772438 -->
<g id="edge51" class="edge">
<title>30064772434&#45;&gt;30064772438</title>
<path fill="none" stroke="black" d="M1359.79,-489.86C1556.17,-472.16 2002.5,-431.92 2199.95,-414.12"/>
<polygon fill="black" stroke="black" points="2200.01,-417.63 2209.65,-413.25 2199.38,-410.66 2200.01,-417.63"/>
<text xml:space="preserve" text-anchor="middle" x="1882.85" y="-448.45" font-family="Times,serif" font-size="14.00">DDG: results</text>
</g>
<!-- 30064772454&#45;&gt;124554051658 -->
<g id="edge15" class="edge">
<title>30064772454&#45;&gt;124554051658</title>
<path fill="none" stroke="black" d="M1462.89,-289C1454.33,-283.83 1445.54,-277.89 1438,-271.5 1398.53,-238.07 1397.44,-221.1 1363,-182.5 1355.67,-174.29 1350.77,-174.42 1346,-164.5 1325.2,-121.22 1358.52,-96.85 1331,-57.5 1328.24,-53.56 1324.93,-50 1321.26,-46.81"/>
<polygon fill="black" stroke="black" points="1323.47,-44.09 1313.37,-40.88 1319.27,-49.69 1323.47,-44.09"/>
<text xml:space="preserve" text-anchor="middle" x="1386.5" y="-151.2" font-family="Times,serif" font-size="14.00">DDG: results</text>
</g>
<!-- 30064772454&#45;&gt;124554051658 -->
<g id="edge16" class="edge">
<title>30064772454&#45;&gt;124554051658</title>
<path fill="none" stroke="black" d="M1494.31,-289.34C1479.1,-242.2 1432.87,-118.86 1349,-57.5 1342.54,-52.77 1335.38,-48.51 1328.02,-44.72"/>
<polygon fill="black" stroke="black" points="1329.8,-41.69 1319.28,-40.48 1326.75,-47.99 1329.8,-41.69"/>
<text xml:space="preserve" text-anchor="middle" x="1641.37" y="-151.2" font-family="Times,serif" font-size="14.00">DDG: results.sort(key = lambda s: (s.semester,s.section_id))</text>
</g>
<!-- 30064772454&#45;&gt;68719478130 -->
<g id="edge36" class="edge">
<title>30064772454&#45;&gt;68719478130</title>
<path fill="none" stroke="black" d="M1360.68,-289.12C1349.41,-284.41 1338.66,-278.61 1329,-271.5 1320.92,-265.55 1314.5,-257.07 1309.51,-248.35"/>
<polygon fill="black" stroke="black" points="1312.65,-246.79 1304.99,-239.47 1306.41,-249.97 1312.65,-246.79"/>
<text xml:space="preserve" text-anchor="middle" x="1369.5" y="-258.2" font-family="Times,serif" font-size="14.00">DDG: results</text>
</g>
<!-- 141733920882 -->
<g id="node8" class="node">
<title>141733920882</title>
<polygon fill="none" stroke="black" points="1317.25,-130.75 1206.75,-130.75 1206.75,-91.25 1317.25,-91.25 1317.25,-130.75"/>
<text xml:space="preserve" text-anchor="start" x="1224.88" y="-113.45" font-family="Times,serif" font-size="14.00">RETURN, 905</text>
<text xml:space="preserve" text-anchor="start" x="1214.75" y="-97.7" font-family="Times,serif" font-size="14.00">return results</text>
</g>
<!-- 141733920882&#45;&gt;124554051658 -->
<g id="edge1" class="edge">
<title>141733920882&#45;&gt;124554051658</title>
<path fill="none" stroke="black" d="M1262,-91.07C1262,-79.55 1262,-64.57 1262,-51.4"/>
<polygon fill="black" stroke="black" points="1265.5,-51.47 1262,-41.47 1258.5,-51.47 1265.5,-51.47"/>
<text xml:space="preserve" text-anchor="middle" x="1295.75" y="-59.95" font-family="Times,serif" font-size="14.00">DDG: &lt;RET&gt;</text>
</g>
<!-- 30064772446&#45;&gt;124554051658 -->
<g id="edge6" class="edge">
<title>30064772446&#45;&gt;124554051658</title>
<path fill="none" stroke="black" d="M883.09,-753.02C873.6,-748.34 864.55,-742.58 857,-735.5 838.29,-717.94 833,-708.66 833,-683 833,-683 833,-683 833,-498.5 833,-474.35 836.61,-462.52 819,-446 789.17,-418.01 757.55,-457.04 728.75,-428 705.77,-404.83 715,-388.51 715,-355.88 715,-355.88 715,-355.88 715,-110 715,-61.37 764.41,-71.45 811,-57.5 878.14,-37.4 1070.8,-27.47 1181.37,-23.29"/>
<polygon fill="black" stroke="black" points="1181.42,-26.79 1191.28,-22.93 1181.16,-19.8 1181.42,-26.79"/>
<text xml:space="preserve" text-anchor="middle" x="765.88" y="-398.95" font-family="Times,serif" font-size="14.00">DDG: tmp125</text>
</g>
<!-- 30064772446&#45;&gt;124554051658 -->
<g id="edge14" class="edge">
<title>30064772446&#45;&gt;124554051658</title>
<path fill="none" stroke="black" d="M919.17,-753.02C896.59,-737.41 871,-713.09 871,-683 871,-683 871,-683 871,-544.12 871,-458 825,-442 825,-355.88 825,-355.88 825,-355.88 825,-110 825,-38.03 1055.42,-23.52 1181.62,-20.97"/>
<polygon fill="black" stroke="black" points="1181.31,-24.48 1191.24,-20.8 1181.18,-17.48 1181.31,-24.48"/>
<text xml:space="preserve" text-anchor="middle" x="990.19" y="-414.7" font-family="Times,serif" font-size="14.00">DDG: tmp125 = tmp126 = tmp127 = self.sections</text>
<text xml:space="preserve" text-anchor="middle" x="990.19" y="-398.95" font-family="Times,serif" font-size="14.00">self.sections.values()</text>
<text xml:space="preserve" text-anchor="middle" x="990.19" y="-383.2" font-family="Times,serif" font-size="14.00">tmp126.__iter__()</text>
</g>
<!-- 30064772446&#45;&gt;30064772448 -->
<g id="edge44" class="edge">
<title>30064772446&#45;&gt;30064772448</title>
<path fill="none" stroke="black" d="M1074.77,-753.05C1186.23,-735.47 1347.76,-710 1442.22,-695.11"/>
<polygon fill="black" stroke="black" points="1442.57,-698.59 1451.91,-693.58 1441.48,-691.68 1442.57,-698.59"/>
<text xml:space="preserve" text-anchor="middle" x="1307.01" y="-722.2" font-family="Times,serif" font-size="14.00">DDG: tmp125</text>
</g>
<!-- 68719478130&#45;&gt;141733920882 -->
<g id="edge30" class="edge">
<title>68719478130&#45;&gt;141733920882</title>
<path fill="none" stroke="black" d="M1254.72,-182.21C1249.57,-176.97 1245.04,-171.04 1242,-164.5 1238.59,-157.17 1239.48,-149.08 1242.26,-141.49"/>
<polygon fill="black" stroke="black" points="1245.36,-143.12 1246.52,-132.59 1239.04,-140.1 1245.36,-143.12"/>
<text xml:space="preserve" text-anchor="middle" x="1282.5" y="-151.2" font-family="Times,serif" font-size="14.00">DDG: results</text>
</g>
<!-- 30064772443&#45;&gt;124554051658 -->
<g id="edge11" class="edge">
<title>30064772443&#45;&gt;124554051658</title>
<path fill="none" stroke="black" d="M701.11,-935.7C691.3,-918.15 679,-891.03 679,-865.5 679,-865.5 679,-865.5 679,-589.75 679,-565.6 683.18,-553.15 665,-537.25 617.45,-495.66 565.75,-566.67 524,-519.25 505.09,-497.78 524,-483.49 524,-454.88 524,-454.88 524,-454.88 524,-110 524,-44.35 990.2,-26.68 1181.53,-22.19"/>
<polygon fill="black" stroke="black" points="1181.47,-25.69 1191.39,-21.96 1181.31,-18.69 1181.47,-25.69"/>
<text xml:space="preserve" text-anchor="middle" x="645.5" y="-501.95" font-family="Times,serif" font-size="14.00">DDG: tmp126 = tmp127 = self.sections</text>
<text xml:space="preserve" text-anchor="middle" x="645.5" y="-486.2" font-family="Times,serif" font-size="14.00">self.sections.values()</text>
</g>
<!-- 30064772443&#45;&gt;30064772445 -->
<g id="edge41" class="edge">
<title>30064772443&#45;&gt;30064772445</title>
<path fill="none" stroke="black" d="M764.49,-935.6C801.5,-921.84 851.59,-903.21 890.84,-888.62"/>
<polygon fill="black" stroke="black" points="892.03,-891.91 900.18,-885.14 889.59,-885.35 892.03,-891.91"/>
<text xml:space="preserve" text-anchor="middle" x="884.49" y="-904.7" font-family="Times,serif" font-size="14.00">DDG: tmp126</text>
</g>
<!-- 30064772445&#45;&gt;124554051658 -->
<g id="edge12" class="edge">
<title>30064772445&#45;&gt;124554051658</title>
<path fill="none" stroke="black" d="M1018.68,-861.09C1064.29,-855.28 1120.11,-838.63 1139,-793 1141.19,-787.71 1144.91,-386.15 1143,-380.75 1133.1,-352.83 1114.16,-355.54 1101,-329 1071.9,-270.32 1068.23,-245.81 1085,-182.5 1103.29,-113.46 1124.26,-93.41 1186,-57.5 1193.4,-53.2 1201.38,-48.94 1209.29,-44.94"/>
<polygon fill="black" stroke="black" points="1210.82,-48.09 1218.23,-40.52 1207.72,-41.81 1210.82,-48.09"/>
<text xml:space="preserve" text-anchor="middle" x="1180.62" y="-448.45" font-family="Times,serif" font-size="14.00">DDG: tmp126</text>
</g>
<!-- 30064772445&#45;&gt;124554051658 -->
<g id="edge13" class="edge">
<title>30064772445&#45;&gt;124554051658</title>
<path fill="none" stroke="black" d="M887.22,-857.2C845.26,-849.39 793.88,-831.93 767,-793 687.9,-678.42 860.71,-586.23 771,-479.75 740.64,-443.71 696.86,-497.79 666.5,-461.75 661.99,-456.4 666.28,-453 666.5,-446 667.06,-427.92 669,-423.46 669,-405.38 669,-405.38 669,-405.38 669,-110 669,-72.52 700.07,-71.08 735,-57.5 814.24,-26.69 1055.13,-21.23 1181.95,-20.56"/>
<polygon fill="black" stroke="black" points="1181.62,-24.07 1191.6,-20.52 1181.59,-17.07 1181.62,-24.07"/>
<text xml:space="preserve" text-anchor="middle" x="740.75" y="-448.45" font-family="Times,serif" font-size="14.00">DDG: tmp126.__iter__()</text>
</g>
<!-- 30064772445&#45;&gt;30064772446 -->
<g id="edge31" class="edge">
<title>30064772445&#45;&gt;30064772446</title>
<path fill="none" stroke="black" d="M953,-844.57C953,-833.05 953,-818.07 953,-804.9"/>
<polygon fill="black" stroke="black" points="956.5,-804.97 953,-794.97 949.5,-804.97 956.5,-804.97"/>
<text xml:space="preserve" text-anchor="middle" x="1027.25" y="-813.45" font-family="Times,serif" font-size="14.00">DDG: tmp126.__iter__()</text>
</g>
<!-- 30064772449 -->
<g id="node13" class="node">
<title>30064772449</title>
<polygon fill="none" stroke="black" points="2111.12,-610.5 1912.88,-610.5 1912.88,-571 2111.12,-571 2111.12,-610.5"/>
<text xml:space="preserve" text-anchor="start" x="1924.25" y="-593.2" font-family="Times,serif" font-size="14.00">&lt;operator&gt;.assignment, 901</text>
<text xml:space="preserve" text-anchor="start" x="1920.88" y="-577.45" font-family="Times,serif" font-size="14.00">section = tmp125.__next__()</text>
</g>
<!-- 30064772449&#45;&gt;124554051658 -->
<g id="edge17" class="edge">
<title>30064772449&#45;&gt;124554051658</title>
<path fill="none" stroke="black" d="M2033.32,-570.58C2082.71,-523.72 2197.68,-399.21 2156,-289.5 2107.03,-160.6 2074.22,-117.36 1950,-57.5 1896.54,-31.74 1512.56,-23.83 1342.6,-21.58"/>
<polygon fill="black" stroke="black" points="1342.78,-18.08 1332.74,-21.45 1342.69,-25.08 1342.78,-18.08"/>
<text xml:space="preserve" text-anchor="middle" x="2205.03" y="-303.82" font-family="Times,serif" font-size="14.00">DDG: section</text>
</g>
<!-- 30064772449&#45;&gt;124554051658 -->
<g id="edge19" class="edge">
<title>30064772449&#45;&gt;124554051658</title>
<path fill="none" stroke="black" d="M1951.24,-570.56C1940.9,-565.77 1930.7,-559.95 1922,-553 1827.13,-477.17 1801.96,-444.84 1765.5,-329 1738.76,-244.03 1847.72,-247.52 1880,-164.5 1891.93,-133.82 1925.41,-110.27 1870,-57.5 1832.65,-21.93 1499.04,-19.23 1342.47,-19.96"/>
<polygon fill="black" stroke="black" points="1342.55,-16.46 1332.57,-20.01 1342.59,-23.46 1342.55,-16.46"/>
<text xml:space="preserve" text-anchor="middle" x="1839.75" y="-303.82" font-family="Times,serif" font-size="14.00">DDG: tmp125.__next__()</text>
</g>
<!-- 30064772449&#45;&gt;124554051658 -->
<g id="edge20" class="edge">
<title>30064772449&#45;&gt;124554051658</title>
<path fill="none" stroke="black" d="M1981.53,-570.61C1960.38,-554.72 1936,-530.01 1936,-500.5 1936,-500.5 1936,-500.5 1936,-110 1936,-79.27 1918.53,-71.15 1891,-57.5 1843.06,-33.73 1500.91,-24.83 1342.33,-21.95"/>
<polygon fill="black" stroke="black" points="1342.81,-18.46 1332.74,-21.78 1342.68,-25.46 1342.81,-18.46"/>
<text xml:space="preserve" text-anchor="middle" x="2044" y="-303.82" font-family="Times,serif" font-size="14.00">DDG: section = tmp125.__next__()</text>
</g>
<!-- 30064772449&#45;&gt;30064772436 -->
<g id="edge46" class="edge">
<title>30064772449&#45;&gt;30064772436</title>
<path fill="none" stroke="black" d="M2111.6,-575.26C2156.12,-568.66 2209.22,-560.64 2257,-553 2318.96,-543.09 2387.8,-531.46 2444.74,-521.66"/>
<polygon fill="black" stroke="black" points="2445.22,-525.13 2454.48,-519.99 2444.03,-518.23 2445.22,-525.13"/>
<text xml:space="preserve" text-anchor="middle" x="2391.02" y="-539.7" font-family="Times,serif" font-size="14.00">DDG: section</text>
</g>
<!-- 30064772449&#45;&gt;30064772438 -->
<g id="edge53" class="edge">
<title>30064772449&#45;&gt;30064772438</title>
<path fill="none" stroke="black" d="M2111.35,-580.25C2135.75,-574.78 2160.91,-566.25 2182,-553 2228.74,-523.63 2264.1,-468.21 2282.59,-434.26"/>
<polygon fill="black" stroke="black" points="2285.48,-436.28 2287.08,-425.8 2279.3,-433 2285.48,-436.28"/>
<text xml:space="preserve" text-anchor="middle" x="2293.4" y="-494.07" font-family="Times,serif" font-size="14.00">DDG: section</text>
</g>
<!-- 30064772436&#45;&gt;124554051658 -->
<g id="edge21" class="edge">
<title>30064772436&#45;&gt;124554051658</title>
<path fill="none" stroke="black" d="M2689.19,-496.98C2823.33,-491.9 3019,-472.92 3019,-405.38 3019,-405.38 3019,-405.38 3019,-110 3019,-24.9 1686.91,-20.33 1342.5,-20.57"/>
<polygon fill="black" stroke="black" points="1342.66,-17.07 1332.66,-20.58 1342.66,-24.07 1342.66,-17.07"/>
<text xml:space="preserve" text-anchor="middle" x="3100" y="-258.2" font-family="Times,serif" font-size="14.00">DDG: section.course_code</text>
</g>
<!-- 30064772436&#45;&gt;124554051658 -->
<g id="edge22" class="edge">
<title>30064772436&#45;&gt;124554051658</title>
<path fill="none" stroke="black" d="M2562.75,-479.65C2558.33,-452.42 2551,-400.44 2551,-355.88 2551,-355.88 2551,-355.88 2551,-110 2551,-15.52 2438.53,-70.85 2345,-57.5 2151.51,-29.89 1558.66,-22.89 1342.2,-21.23"/>
<polygon fill="black" stroke="black" points="1342.48,-17.73 1332.46,-21.16 1342.43,-24.73 1342.48,-17.73"/>
<text xml:space="preserve" text-anchor="middle" x="2605" y="-258.2" font-family="Times,serif" font-size="14.00">DDG: course_code</text>
</g>
<!-- 30064772436&#45;&gt;124554051658 -->
<g id="edge23" class="edge">
<title>30064772436&#45;&gt;124554051658</title>
<path fill="none" stroke="black" d="M2572.11,-479.51C2579.81,-456.05 2593.77,-415.03 2608,-380.75 2628.62,-331.08 2648.15,-323.95 2660,-271.5 2678.24,-190.72 2654.86,-163.18 2565,-91.25 2525.74,-59.83 2506.59,-65.85 2457,-57.5 2241.88,-21.28 1574.36,-19.76 1342.4,-20.38"/>
<polygon fill="black" stroke="black" points="1342.53,-16.88 1332.54,-20.41 1342.55,-23.88 1342.53,-16.88"/>
<text xml:space="preserve" text-anchor="middle" x="2794.71" y="-258.2" font-family="Times,serif" font-size="14.00">DDG: section.course_code == course_code</text>
</g>
<!-- 30064772436&#45;&gt;30064772438 -->
<g id="edge54" class="edge">
<title>30064772436&#45;&gt;30064772438</title>
<path fill="none" stroke="black" d="M2442.92,-479.77C2424.14,-475.01 2405.28,-469.1 2388,-461.75 2376.6,-456.9 2375.43,-452.68 2365,-446 2356.93,-440.83 2348.21,-435.46 2339.79,-430.39"/>
<polygon fill="black" stroke="black" points="2341.79,-427.51 2331.41,-425.38 2338.19,-433.51 2341.79,-427.51"/>
<text xml:space="preserve" text-anchor="middle" x="2469" y="-448.45" font-family="Times,serif" font-size="14.00">DDG: section.course_code</text>
</g>
<!-- 30064772436&#45;&gt;30064772438 -->
<g id="edge64" class="edge">
<title>30064772436&#45;&gt;30064772438</title>
<path fill="none" stroke="black" d="M2442.81,-484.38C2389.74,-477.4 2337.44,-468.95 2327.25,-461.75 2318.06,-455.25 2311.4,-445.06 2306.72,-435.12"/>
<polygon fill="black" stroke="black" points="2310.01,-433.93 2302.96,-426.02 2303.54,-436.6 2310.01,-433.93"/>
<text xml:space="preserve" text-anchor="middle" x="2344.12" y="-448.45" font-family="Times,serif" font-size="14.00">CDG: </text>
</g>
<!-- 30064772437 -->
<g id="node24" class="node">
<title>30064772437</title>
<polygon fill="none" stroke="black" points="2815.12,-424.12 2616.88,-424.12 2616.88,-384.62 2815.12,-384.62 2815.12,-424.12"/>
<text xml:space="preserve" text-anchor="start" x="2624.88" y="-406.82" font-family="Times,serif" font-size="14.00">&lt;operator&gt;.fieldAccess, 903</text>
<text xml:space="preserve" text-anchor="start" x="2668.75" y="-391.07" font-family="Times,serif" font-size="14.00">results.append</text>
</g>
<!-- 30064772436&#45;&gt;30064772437 -->
<g id="edge63" class="edge">
<title>30064772436&#45;&gt;30064772437</title>
<path fill="none" stroke="black" d="M2596.72,-479.43C2619.49,-465.29 2650.76,-445.88 2675.56,-430.48"/>
<polygon fill="black" stroke="black" points="2677.13,-433.63 2683.78,-425.38 2673.44,-427.68 2677.13,-433.63"/>
<text xml:space="preserve" text-anchor="middle" x="2666.86" y="-448.45" font-family="Times,serif" font-size="14.00">CDG: </text>
</g>
<!-- 55834575208 -->
<g id="node25" class="node">
<title>55834575208</title>
<polygon fill="none" stroke="black" points="2990.88,-424.12 2833.12,-424.12 2833.12,-384.62 2990.88,-384.62 2990.88,-424.12"/>
<text xml:space="preserve" text-anchor="start" x="2841.12" y="-406.82" font-family="Times,serif" font-size="14.00">FIELD_IDENTIFIER, 903</text>
<text xml:space="preserve" text-anchor="start" x="2891.75" y="-391.07" font-family="Times,serif" font-size="14.00">append</text>
</g>
<!-- 30064772436&#45;&gt;55834575208 -->
<g id="edge65" class="edge">
<title>30064772436&#45;&gt;55834575208</title>
<path fill="none" stroke="black" d="M2637.27,-479.32C2693.12,-464.29 2770.9,-443.35 2829.45,-427.59"/>
<polygon fill="black" stroke="black" points="2830.32,-430.98 2839.06,-425.01 2828.5,-424.23 2830.32,-430.98"/>
<text xml:space="preserve" text-anchor="middle" x="2776.59" y="-448.45" font-family="Times,serif" font-size="14.00">CDG: </text>
</g>
<!-- 30064772440&#45;&gt;124554051658 -->
<g id="edge7" class="edge">
<title>30064772440&#45;&gt;124554051658</title>
<path fill="none" stroke="black" d="M141.18,-1118.14C106.78,-1105.16 76,-1083.6 76,-1048 76,-1048 76,-1048 76,-110 76,-41.88 153.14,-70.53 220,-57.5 403.73,-21.7 970.69,-19.76 1181.75,-20.33"/>
<polygon fill="black" stroke="black" points="1181.51,-23.83 1191.52,-20.36 1181.53,-16.83 1181.51,-23.83"/>
<text xml:space="preserve" text-anchor="middle" x="136.75" y="-585.33" font-family="Times,serif" font-size="14.00">DDG: self.sections</text>
</g>
<!-- 30064772440&#45;&gt;124554051658 -->
<g id="edge8" class="edge">
<title>30064772440&#45;&gt;124554051658</title>
<path fill="none" stroke="black" d="M234,-1118.1C234,-1100.03 234,-1072.17 234,-1048 234,-1048 234,-1048 234,-110 234,-30.5 326.65,-70.98 405,-57.5 552.73,-32.09 998.05,-23.92 1181.59,-21.59"/>
<polygon fill="black" stroke="black" points="1181.57,-25.09 1191.52,-21.46 1181.48,-18.09 1181.57,-25.09"/>
<text xml:space="preserve" text-anchor="middle" x="325.12" y="-585.33" font-family="Times,serif" font-size="14.00">DDG: tmp127 = self.sections</text>
</g>
<!-- 30064772440&#45;&gt;30064772442 -->
<g id="edge49" class="edge">
<title>30064772440&#45;&gt;30064772442</title>
<path fill="none" stroke="black" d="M287.2,-1118.1C325.61,-1104.28 377.65,-1085.55 418.28,-1070.93"/>
<polygon fill="black" stroke="black" points="419.24,-1074.31 427.46,-1067.63 416.87,-1067.72 419.24,-1074.31"/>
<text xml:space="preserve" text-anchor="middle" x="409.97" y="-1087.2" font-family="Times,serif" font-size="14.00">DDG: tmp127</text>
</g>
<!-- 30064772442&#45;&gt;124554051658 -->
<g id="edge9" class="edge">
<title>30064772442&#45;&gt;124554051658</title>
<path fill="none" stroke="black" d="M468.5,-1026.8C457.57,-1009.36 444,-982.52 444,-956.75 444,-956.75 444,-956.75 444,-635.38 444,-604.84 440.18,-593.92 420,-571 408.64,-558.09 394.75,-567.65 385.75,-553 373.54,-533.11 385,-523.84 385,-500.5 385,-500.5 385,-500.5 385,-110 385,-67.84 423.93,-70.61 464,-57.5 530.85,-35.62 992.82,-25.34 1181.75,-22.02"/>
<polygon fill="black" stroke="black" points="1181.53,-25.52 1191.47,-21.85 1181.41,-18.52 1181.53,-25.52"/>
<text xml:space="preserve" text-anchor="middle" x="422.88" y="-539.7" font-family="Times,serif" font-size="14.00">DDG: tmp127</text>
</g>
<!-- 30064772442&#45;&gt;124554051658 -->
<g id="edge10" class="edge">
<title>30064772442&#45;&gt;124554051658</title>
<path fill="none" stroke="black" d="M482,-1026.85C482,-1008.78 482,-980.92 482,-956.75 482,-956.75 482,-956.75 482,-589.75 482,-573.35 479.54,-569.38 478.75,-553 476.66,-509.44 478,-498.49 478,-454.88 478,-454.88 478,-454.88 478,-110 478,-96.27 535.9,-69.2 583,-57.5 694.21,-29.86 1027.25,-23.01 1181.7,-21.31"/>
<polygon fill="black" stroke="black" points="1181.48,-24.81 1191.45,-21.21 1181.41,-17.81 1181.48,-24.81"/>
<text xml:space="preserve" text-anchor="middle" x="569.88" y="-539.7" font-family="Times,serif" font-size="14.00">DDG: self.sections.values()</text>
</g>
<!-- 30064772442&#45;&gt;30064772443 -->
<g id="edge38" class="edge">
<title>30064772442&#45;&gt;30064772443</title>
<path fill="none" stroke="black" d="M498.76,-1027C509.86,-1015.6 525.34,-1001.75 541.75,-993.5 552.78,-987.95 564.62,-983.24 576.73,-979.23"/>
<polygon fill="black" stroke="black" points="577.49,-982.66 585.99,-976.35 575.4,-975.98 577.49,-982.66"/>
<text xml:space="preserve" text-anchor="middle" x="632.88" y="-995.95" font-family="Times,serif" font-size="14.00">DDG: self.sections.values()</text>
</g>
<!-- 30064772448&#45;&gt;124554051658 -->
<g id="edge18" class="edge">
<title>30064772448&#45;&gt;124554051658</title>
<path fill="none" stroke="black" d="M1575.9,-661.84C1623.27,-644.11 1683,-616.79 1683,-591.75 1683,-591.75 1683,-591.75 1683,-403.38 1683,-290.36 1722.27,-254.96 1809,-182.5 1823.65,-170.26 1837.71,-180.58 1848,-164.5 1851.77,-158.6 1852.39,-154.2 1848,-148.75 1785.41,-71.01 1488.01,-37.93 1342.53,-26.21"/>
<polygon fill="black" stroke="black" points="1342.8,-22.72 1332.56,-25.42 1342.25,-29.7 1342.8,-22.72"/>
<text xml:space="preserve" text-anchor="middle" x="1724.35" y="-349.45" font-family="Times,serif" font-size="14.00">DDG: tmp125</text>
</g>
<!-- 30064772448&#45;&gt;30064772449 -->
<g id="edge40" class="edge">
<title>30064772448&#45;&gt;30064772449</title>
<path fill="none" stroke="black" d="M1584.7,-664.06C1587.5,-663.43 1590.28,-662.82 1593,-662.25 1608.09,-659.07 1782.26,-629.96 1901.24,-610.16"/>
<polygon fill="black" stroke="black" points="1901.79,-613.61 1911.08,-608.52 1900.64,-606.71 1901.79,-613.61"/>
<text xml:space="preserve" text-anchor="middle" x="1823.83" y="-630.95" font-family="Times,serif" font-size="14.00">DDG: tmp125</text>
</g>
<!-- 30064772438&#45;&gt;124554051658 -->
<g id="edge24" class="edge">
<title>30064772438&#45;&gt;124554051658</title>
<path fill="none" stroke="black" d="M2372.9,-384.22C2407.98,-370.36 2442,-347.35 2442,-310.25 2442,-310.25 2442,-310.25 2442,-110 2442,-13.36 2326.68,-71.07 2231,-57.5 2060.34,-33.3 1542.69,-24.3 1342.37,-21.67"/>
<polygon fill="black" stroke="black" points="1342.62,-18.17 1332.58,-21.54 1342.53,-25.17 1342.62,-18.17"/>
<text xml:space="preserve" text-anchor="middle" x="2482.5" y="-204.7" font-family="Times,serif" font-size="14.00">DDG: section</text>
</g>
<!-- 30064772438&#45;&gt;124554051658 -->
<g id="edge25" class="edge">
<title>30064772438&#45;&gt;124554051658</title>
<path fill="none" stroke="black" d="M2295.74,-384.36C2293.58,-361.02 2287.86,-320.69 2273,-289.5 2260.26,-262.76 2244.3,-264.22 2231,-237.75 2193.86,-163.88 2249.27,-109.51 2185,-57.5 2152.53,-31.22 1561.27,-23.37 1342.51,-21.36"/>
<polygon fill="black" stroke="black" points="1342.67,-17.86 1332.64,-21.27 1342.61,-24.86 1342.67,-17.86"/>
<text xml:space="preserve" text-anchor="middle" x="2325.5" y="-204.7" font-family="Times,serif" font-size="14.00">DDG: results.append(section)</text>
</g>
<!-- 30064772438&#45;&gt;30064772454 -->
<g id="edge34" class="edge">
<title>30064772438&#45;&gt;30064772454</title>
<path fill="none" stroke="black" d="M2210.95,-393.32C2083.46,-378.42 1841.65,-350.17 1675.74,-330.78"/>
<polygon fill="black" stroke="black" points="1676.26,-327.32 1665.92,-329.64 1675.45,-334.27 1676.26,-327.32"/>
<text xml:space="preserve" text-anchor="middle" x="1986.72" y="-349.45" font-family="Times,serif" font-size="14.00">DDG: results</text>
</g>
<!-- 180388626453 -->
<g id="node19" class="node">
<title>180388626453</title>
<polygon fill="none" stroke="black" points="2111.12,-793 1912.88,-793 1912.88,-753.5 2111.12,-753.5 2111.12,-793"/>
<text xml:space="preserve" text-anchor="start" x="1971.5" y="-775.7" font-family="Times,serif" font-size="14.00">UNKNOWN, 901</text>
<text xml:space="preserve" text-anchor="start" x="1920.88" y="-759.95" font-family="Times,serif" font-size="14.00">iteratorNonEmptyOrException</text>
</g>
<!-- 180388626453&#45;&gt;30064772449 -->
<g id="edge62" class="edge">
<title>180388626453&#45;&gt;30064772449</title>
<path fill="none" stroke="black" d="M2012,-753.27C2012,-721.99 2012,-659.35 2012,-621.93"/>
<polygon fill="black" stroke="black" points="2015.5,-622.26 2012,-612.26 2008.5,-622.26 2015.5,-622.26"/>
<text xml:space="preserve" text-anchor="middle" x="2028.88" y="-676.58" font-family="Times,serif" font-size="14.00">CDG: </text>
</g>
<!-- 180388626453&#45;&gt;30064772436 -->
<g id="edge56" class="edge">
<title>180388626453&#45;&gt;30064772436</title>
<path fill="none" stroke="black" d="M2111.53,-769.57C2225.41,-764.29 2401.99,-748.56 2447,-701.75 2469.74,-678.1 2442.95,-658.5 2456.25,-628.5 2474.15,-588.11 2509.1,-550.85 2534.76,-527.07"/>
<polygon fill="black" stroke="black" points="2536.89,-529.86 2541.95,-520.56 2532.19,-524.68 2536.89,-529.86"/>
<text xml:space="preserve" text-anchor="middle" x="2473.12" y="-630.95" font-family="Times,serif" font-size="14.00">CDG: </text>
</g>
<!-- 180388626453&#45;&gt;30064772448 -->
<g id="edge60" class="edge">
<title>180388626453&#45;&gt;30064772448</title>
<path fill="none" stroke="black" d="M1912.5,-757.95C1829.98,-745.52 1709.41,-726.07 1595.69,-702.25"/>
<polygon fill="black" stroke="black" points="1596.69,-698.88 1586.19,-700.24 1595.25,-705.73 1596.69,-698.88"/>
<text xml:space="preserve" text-anchor="middle" x="1781.84" y="-722.2" font-family="Times,serif" font-size="14.00">CDG: </text>
</g>
<!-- 180388626453&#45;&gt;180388626453 -->
<g id="edge57" class="edge">
<title>180388626453&#45;&gt;180388626453</title>
<path fill="none" stroke="black" d="M2111.54,-780.39C2122.24,-779.02 2129.12,-776.64 2129.12,-773.25 2129.12,-771.29 2126.82,-769.67 2122.82,-768.38"/>
<polygon fill="black" stroke="black" points="2123.52,-764.96 2113.03,-766.41 2122.14,-771.82 2123.52,-764.96"/>
<text xml:space="preserve" text-anchor="middle" x="2146" y="-767.83" font-family="Times,serif" font-size="14.00">CDG: </text>
</g>
<!-- 30064772447 -->
<g id="node20" class="node">
<title>30064772447</title>
<polygon fill="none" stroke="black" points="1976.12,-701.75 1777.88,-701.75 1777.88,-662.25 1976.12,-662.25 1976.12,-701.75"/>
<text xml:space="preserve" text-anchor="start" x="1785.88" y="-684.45" font-family="Times,serif" font-size="14.00">&lt;operator&gt;.fieldAccess, 901</text>
<text xml:space="preserve" text-anchor="start" x="1826.38" y="-668.7" font-family="Times,serif" font-size="14.00">tmp125.__next__</text>
</g>
<!-- 180388626453&#45;&gt;30064772447 -->
<g id="edge59" class="edge">
<title>180388626453&#45;&gt;30064772447</title>
<path fill="none" stroke="black" d="M1983.04,-753.1C1963.29,-740.04 1936.91,-722.61 1915.41,-708.39"/>
<polygon fill="black" stroke="black" points="1917.45,-705.54 1907.18,-702.95 1913.59,-711.38 1917.45,-705.54"/>
<text xml:space="preserve" text-anchor="middle" x="1969.46" y="-722.2" font-family="Times,serif" font-size="14.00">CDG: </text>
</g>
<!-- 30064772435 -->
<g id="node21" class="node">
<title>30064772435</title>
<polygon fill="none" stroke="black" points="2262.12,-701.75 2063.88,-701.75 2063.88,-662.25 2262.12,-662.25 2262.12,-701.75"/>
<text xml:space="preserve" text-anchor="start" x="2071.88" y="-684.45" font-family="Times,serif" font-size="14.00">&lt;operator&gt;.fieldAccess, 902</text>
<text xml:space="preserve" text-anchor="start" x="2098.88" y="-668.7" font-family="Times,serif" font-size="14.00">section.course_code</text>
</g>
<!-- 180388626453&#45;&gt;30064772435 -->
<g id="edge55" class="edge">
<title>180388626453&#45;&gt;30064772435</title>
<path fill="none" stroke="black" d="M2044.39,-753.1C2066.79,-739.87 2096.79,-722.14 2121.01,-707.82"/>
<polygon fill="black" stroke="black" points="2122.53,-710.99 2129.36,-702.88 2118.97,-704.96 2122.53,-710.99"/>
<text xml:space="preserve" text-anchor="middle" x="2113.42" y="-722.2" font-family="Times,serif" font-size="14.00">CDG: </text>
</g>
<!-- 55834575212 -->
<g id="node22" class="node">
<title>55834575212</title>
<polygon fill="none" stroke="black" points="2437.88,-701.75 2280.12,-701.75 2280.12,-662.25 2437.88,-662.25 2437.88,-701.75"/>
<text xml:space="preserve" text-anchor="start" x="2288.12" y="-684.45" font-family="Times,serif" font-size="14.00">FIELD_IDENTIFIER, 901</text>
<text xml:space="preserve" text-anchor="start" x="2332" y="-668.7" font-family="Times,serif" font-size="14.00">__next__</text>
</g>
<!-- 180388626453&#45;&gt;55834575212 -->
<g id="edge58" class="edge">
<title>180388626453&#45;&gt;55834575212</title>
<path fill="none" stroke="black" d="M2086.44,-753.1C2141.35,-738.98 2216.16,-719.74 2273.52,-704.99"/>
<polygon fill="black" stroke="black" points="2274.11,-708.45 2282.92,-702.57 2272.36,-701.67 2274.11,-708.45"/>
<text xml:space="preserve" text-anchor="middle" x="2223.15" y="-722.2" font-family="Times,serif" font-size="14.00">CDG: </text>
</g>
<!-- 55834575207 -->
<g id="node23" class="node">
<title>55834575207</title>
<polygon fill="none" stroke="black" points="1759.88,-701.75 1602.12,-701.75 1602.12,-662.25 1759.88,-662.25 1759.88,-701.75"/>
<text xml:space="preserve" text-anchor="start" x="1610.12" y="-684.45" font-family="Times,serif" font-size="14.00">FIELD_IDENTIFIER, 902</text>
<text xml:space="preserve" text-anchor="start" x="1643.88" y="-668.7" font-family="Times,serif" font-size="14.00">course_code</text>
</g>
<!-- 180388626453&#45;&gt;55834575207 -->
<g id="edge61" class="edge">
<title>180388626453&#45;&gt;55834575207</title>
<path fill="none" stroke="black" d="M1940.99,-753.1C1888.83,-739.04 1817.84,-719.9 1763.22,-705.17"/>
<polygon fill="black" stroke="black" points="1764.2,-701.81 1753.64,-702.59 1762.38,-708.57 1764.2,-701.81"/>
<text xml:space="preserve" text-anchor="middle" x="1883.19" y="-722.2" font-family="Times,serif" font-size="14.00">CDG: </text>
</g>
</g>
</svg>
