<?xml version="1.0" encoding="UTF-8" standalone="no"?>
<!DOCTYPE svg PUBLIC "-//W3C//DTD SVG 1.1//EN"
 "http://www.w3.org/Graphics/SVG/1.1/DTD/svg11.dtd">
<!-- Generated by graphviz version 13.1.2 (20250809.0930)
 -->
<!-- Title: &lt;lambda&gt;2 Pages: 1 -->
<svg width="868pt" height="413pt"
 viewBox="0.00 0.00 868.00 413.00" xmlns="http://www.w3.org/2000/svg" xmlns:xlink="http://www.w3.org/1999/xlink">
<g id="graph0" class="graph" transform="scale(1 1) rotate(0) translate(4 408.5)">
<title>&lt;lambda&gt;2</title>
<polygon fill="white" stroke="none" points="-4,4 -4,-408.5 863.62,-408.5 863.62,4 -4,4"/>
<!-- 107374182477 -->
<g id="node1" class="node">
<title>107374182477</title>
<polygon fill="none" stroke="black" points="90.25,-404.5 0,-404.5 0,-365 90.25,-365 90.25,-404.5"/>
<text xml:space="preserve" text-anchor="start" x="8" y="-387.2" font-family="Times,serif" font-size="14.00">METHOD, 916</text>
<text xml:space="preserve" text-anchor="start" x="14.75" y="-371.45" font-family="Times,serif" font-size="14.00">&lt;lambda&gt;2</text>
</g>
<!-- 111669149837 -->
<g id="node3" class="node">
<title>111669149837</title>
<polygon fill="none" stroke="black" points="86.88,-313.25 3.38,-313.25 3.38,-273.75 86.88,-273.75 86.88,-313.25"/>
<text xml:space="preserve" text-anchor="start" x="11.38" y="-295.95" font-family="Times,serif" font-size="14.00">PARAM, 916</text>
<text xml:space="preserve" text-anchor="start" x="41.75" y="-280.2" font-family="Times,serif" font-size="14.00">s</text>
</g>
<!-- 107374182477&#45;&gt;111669149837 -->
<g id="edge6" class="edge">
<title>107374182477&#45;&gt;111669149837</title>
<path fill="none" stroke="black" d="M45.12,-364.82C45.12,-353.3 45.12,-338.32 45.12,-325.15"/>
<polygon fill="black" stroke="black" points="48.63,-325.22 45.13,-315.22 41.63,-325.22 48.63,-325.22"/>
<text xml:space="preserve" text-anchor="middle" x="62" y="-333.7" font-family="Times,serif" font-size="14.00">DDG: </text>
</g>
<!-- 124554051661 -->
<g id="node2" class="node">
<title>124554051661</title>
<polygon fill="none" stroke="black" points="290.88,-39.5 153.38,-39.5 153.38,0 290.88,0 290.88,-39.5"/>
<text xml:space="preserve" text-anchor="start" x="161.38" y="-22.2" font-family="Times,serif" font-size="14.00">METHOD_RETURN, 916</text>
<text xml:space="preserve" text-anchor="start" x="212" y="-6.45" font-family="Times,serif" font-size="14.00">ANY</text>
</g>
<!-- 111669149837&#45;&gt;124554051661 -->
<g id="edge2" class="edge">
<title>111669149837&#45;&gt;124554051661</title>
<path fill="none" stroke="black" d="M43.53,-273.26C40.9,-227.18 41.54,-110.42 109.12,-57.5 119.05,-49.73 130.67,-43.57 142.62,-38.71"/>
<polygon fill="black" stroke="black" points="143.62,-42.07 151.75,-35.28 141.16,-35.52 143.62,-42.07"/>
<text xml:space="preserve" text-anchor="middle" x="74.47" y="-151.2" font-family="Times,serif" font-size="14.00">DDG: s</text>
</g>
<!-- 30064772483 -->
<g id="node5" class="node">
<title>30064772483</title>
<polygon fill="none" stroke="black" points="324.62,-222 119.62,-222 119.62,-182.5 324.62,-182.5 324.62,-222"/>
<text xml:space="preserve" text-anchor="start" x="127.62" y="-204.7" font-family="Times,serif" font-size="14.00">&lt;operator&gt;.tupleLiteral, 916</text>
<text xml:space="preserve" text-anchor="start" x="134.38" y="-188.95" font-family="Times,serif" font-size="14.00">(s.semester, s.section_id)</text>
</g>
<!-- 111669149837&#45;&gt;30064772483 -->
<g id="edge8" class="edge">
<title>111669149837&#45;&gt;30064772483</title>
<path fill="none" stroke="black" d="M83.1,-273.35C109.69,-259.94 145.45,-241.91 174.04,-227.5"/>
<polygon fill="black" stroke="black" points="175.51,-230.67 182.87,-223.05 172.36,-224.42 175.51,-230.67"/>
<text xml:space="preserve" text-anchor="middle" x="164.47" y="-242.45" font-family="Times,serif" font-size="14.00">DDG: s</text>
</g>
<!-- 141733920884 -->
<g id="node4" class="node">
<title>141733920884</title>
<polygon fill="none" stroke="black" points="859.62,-130.75 600.62,-130.75 600.62,-91.25 859.62,-91.25 859.62,-130.75"/>
<text xml:space="preserve" text-anchor="start" x="693" y="-113.45" font-family="Times,serif" font-size="14.00">RETURN, 916</text>
<text xml:space="preserve" text-anchor="start" x="608.62" y="-97.7" font-family="Times,serif" font-size="14.00">lambda s: (s.semester, s.section_id)</text>
</g>
<!-- 141733920884&#45;&gt;124554051661 -->
<g id="edge1" class="edge">
<title>141733920884&#45;&gt;124554051661</title>
<path fill="none" stroke="black" d="M620.83,-90.8C525.11,-73.98 388.24,-49.93 302.33,-34.84"/>
<polygon fill="black" stroke="black" points="303.02,-31.41 292.57,-33.13 301.81,-38.3 303.02,-31.41"/>
<text xml:space="preserve" text-anchor="middle" x="540.29" y="-59.95" font-family="Times,serif" font-size="14.00">DDG: &lt;RET&gt;</text>
</g>
<!-- 30064772483&#45;&gt;124554051661 -->
<g id="edge3" class="edge">
<title>30064772483&#45;&gt;124554051661</title>
<path fill="none" stroke="black" d="M162.15,-182.09C138.05,-171.11 112.73,-154.63 98.88,-130.75 90.07,-115.56 90.07,-106.44 98.88,-91.25 110.78,-70.73 131.15,-55.67 151.95,-44.87"/>
<polygon fill="black" stroke="black" points="153.33,-48.09 160.79,-40.57 150.27,-41.79 153.33,-48.09"/>
<text xml:space="preserve" text-anchor="middle" x="149.5" y="-105.58" font-family="Times,serif" font-size="14.00">DDG: s.semester</text>
</g>
<!-- 30064772483&#45;&gt;124554051661 -->
<g id="edge4" class="edge">
<title>30064772483&#45;&gt;124554051661</title>
<path fill="none" stroke="black" d="M222.12,-182.27C222.12,-150.99 222.12,-88.35 222.12,-50.93"/>
<polygon fill="black" stroke="black" points="225.63,-51.26 222.13,-41.26 218.63,-51.26 225.63,-51.26"/>
<text xml:space="preserve" text-anchor="middle" x="279.5" y="-105.58" font-family="Times,serif" font-size="14.00">DDG: s.section_id</text>
</g>
<!-- 30064772483&#45;&gt;124554051661 -->
<g id="edge5" class="edge">
<title>30064772483&#45;&gt;124554051661</title>
<path fill="none" stroke="black" d="M279.15,-182.05C302.71,-170.97 327.63,-154.43 341.12,-130.75 349.82,-115.5 349.82,-106.5 341.12,-91.25 329.58,-70.99 309.68,-55.96 289.41,-45.1"/>
<polygon fill="black" stroke="black" points="291.01,-41.99 280.5,-40.63 287.87,-48.25 291.01,-41.99"/>
<text xml:space="preserve" text-anchor="middle" x="452.27" y="-105.58" font-family="Times,serif" font-size="14.00">DDG: (s.semester, s.section_id)</text>
</g>
<!-- 30064772483&#45;&gt;141733920884 -->
<g id="edge7" class="edge">
<title>30064772483&#45;&gt;141733920884</title>
<path fill="none" stroke="black" d="M324.93,-183.19C407.28,-168.72 522.97,-148.4 609.66,-133.16"/>
<polygon fill="black" stroke="black" points="610.15,-136.63 619.4,-131.45 608.94,-129.74 610.15,-136.63"/>
<text xml:space="preserve" text-anchor="middle" x="611.16" y="-151.2" font-family="Times,serif" font-size="14.00">DDG: (s.semester, s.section_id)</text>
</g>
</g>
</svg>
