<?xml version="1.0" encoding="UTF-8" standalone="no"?>
<!DOCTYPE svg PUBLIC "-//W3C//DTD SVG 1.1//EN"
 "http://www.w3.org/Graphics/SVG/1.1/DTD/svg11.dtd">
<!-- Generated by graphviz version 13.1.2 (20250809.0930)
 -->
<!-- Title: current_credit_load Pages: 1 -->
<svg width="3195pt" height="1265pt"
 viewBox="0.00 0.00 3195.00 1265.00" xmlns="http://www.w3.org/2000/svg" xmlns:xlink="http://www.w3.org/1999/xlink">
<g id="graph0" class="graph" transform="scale(1 1) rotate(0) translate(4 1261.25)">
<title>current_credit_load</title>
<polygon fill="white" stroke="none" points="-4,4 -4,-1261.25 3190.75,-1261.25 3190.75,4 -4,4"/>
<!-- 107374182408 -->
<g id="node1" class="node">
<title>107374182408</title>
<polygon fill="none" stroke="black" points="1387.12,-1257.25 1242.88,-1257.25 1242.88,-1217.75 1387.12,-1217.75 1387.12,-1257.25"/>
<text xml:space="preserve" text-anchor="start" x="1277.88" y="-1239.95" font-family="Times,serif" font-size="14.00">METHOD, 235</text>
<text xml:space="preserve" text-anchor="start" x="1250.88" y="-1224.2" font-family="Times,serif" font-size="14.00">current_credit_load</text>
</g>
<!-- 111669149704 -->
<g id="node3" class="node">
<title>111669149704</title>
<polygon fill="none" stroke="black" points="349.75,-1166 266.25,-1166 266.25,-1126.5 349.75,-1126.5 349.75,-1166"/>
<text xml:space="preserve" text-anchor="start" x="274.25" y="-1148.7" font-family="Times,serif" font-size="14.00">PARAM, 235</text>
<text xml:space="preserve" text-anchor="start" x="294.5" y="-1132.95" font-family="Times,serif" font-size="14.00">self</text>
</g>
<!-- 107374182408&#45;&gt;111669149704 -->
<g id="edge24" class="edge">
<title>107374182408&#45;&gt;111669149704</title>
<path fill="none" stroke="black" d="M1242.41,-1234.89C1074.35,-1230.88 662.4,-1219.33 525.25,-1199.75 468.36,-1191.63 404.58,-1175.33 360.92,-1163.04"/>
<polygon fill="black" stroke="black" points="362.03,-1159.71 351.45,-1160.34 360.11,-1166.45 362.03,-1159.71"/>
<text xml:space="preserve" text-anchor="middle" x="542.12" y="-1186.45" font-family="Times,serif" font-size="14.00">DDG: </text>
</g>
<!-- 111669149705 -->
<g id="node4" class="node">
<title>111669149705</title>
<polygon fill="none" stroke="black" points="1382.75,-709.75 1299.25,-709.75 1299.25,-670.25 1382.75,-670.25 1382.75,-709.75"/>
<text xml:space="preserve" text-anchor="start" x="1307.25" y="-692.45" font-family="Times,serif" font-size="14.00">PARAM, 235</text>
<text xml:space="preserve" text-anchor="start" x="1314" y="-676.7" font-family="Times,serif" font-size="14.00">sections</text>
</g>
<!-- 107374182408&#45;&gt;111669149705 -->
<g id="edge25" class="edge">
<title>107374182408&#45;&gt;111669149705</title>
<path fill="none" stroke="black" d="M1322.92,-1217.37C1329.57,-1199.54 1338,-1172.05 1338,-1147.25 1338,-1147.25 1338,-1147.25 1338,-780.25 1338,-760.69 1338.73,-738.74 1339.47,-721.5"/>
<polygon fill="black" stroke="black" points="1342.96,-721.81 1339.92,-711.66 1335.96,-721.49 1342.96,-721.81"/>
<text xml:space="preserve" text-anchor="middle" x="1354.88" y="-958.33" font-family="Times,serif" font-size="14.00">DDG: </text>
</g>
<!-- 90194313291 -->
<g id="node5" class="node">
<title>90194313291</title>
<polygon fill="none" stroke="black" points="2815.62,-1166 2482.38,-1166 2482.38,-1126.5 2815.62,-1126.5 2815.62,-1166"/>
<text xml:space="preserve" text-anchor="start" x="2608.5" y="-1148.7" font-family="Times,serif" font-size="14.00">LITERAL, 236</text>
<text xml:space="preserve" text-anchor="start" x="2490.38" y="-1132.95" font-family="Times,serif" font-size="14.00">&quot;&quot;&quot;Calculate current registered credit load.&quot;&quot;&quot;</text>
</g>
<!-- 107374182408&#45;&gt;90194313291 -->
<g id="edge26" class="edge">
<title>107374182408&#45;&gt;90194313291</title>
<path fill="none" stroke="black" d="M1387.28,-1236.56C1605.98,-1236.37 2258.45,-1232.94 2468,-1199.75 2507.66,-1193.47 2550.89,-1181.15 2585.15,-1170.02"/>
<polygon fill="black" stroke="black" points="2586.11,-1173.39 2594.51,-1166.93 2583.91,-1166.74 2586.11,-1173.39"/>
<text xml:space="preserve" text-anchor="middle" x="2555.52" y="-1186.45" font-family="Times,serif" font-size="14.00">DDG: </text>
</g>
<!-- 30064771266 -->
<g id="node6" class="node">
<title>30064771266</title>
<polygon fill="none" stroke="black" points="656.75,-420.25 465.25,-420.25 465.25,-380.75 656.75,-380.75 656.75,-420.25"/>
<text xml:space="preserve" text-anchor="start" x="473.25" y="-402.95" font-family="Times,serif" font-size="14.00">&lt;operator&gt;.assignment, 237</text>
<text xml:space="preserve" text-anchor="start" x="530.62" y="-387.2" font-family="Times,serif" font-size="14.00">total = 0</text>
</g>
<!-- 107374182408&#45;&gt;30064771266 -->
<g id="edge27" class="edge">
<title>107374182408&#45;&gt;30064771266</title>
<path fill="none" stroke="black" d="M1242.5,-1235.29C1055.8,-1231.23 573,-1214.23 573,-1147.25 573,-1147.25 573,-1147.25 573,-506.5 573,-481.19 569.52,-452.68 566.3,-431.75"/>
<polygon fill="black" stroke="black" points="569.76,-431.2 564.71,-421.89 562.85,-432.32 569.76,-431.2"/>
<text xml:space="preserve" text-anchor="middle" x="589.88" y="-821.45" font-family="Times,serif" font-size="14.00">DDG: </text>
</g>
<!-- 25769803815 -->
<g id="node7" class="node">
<title>25769803815</title>
<polygon fill="none" stroke="black" points="3186.75,-1166 2833.25,-1166 2833.25,-1126.5 3186.75,-1126.5 3186.75,-1166"/>
<text xml:space="preserve" text-anchor="start" x="2976.25" y="-1148.7" font-family="Times,serif" font-size="14.00">BLOCK, 238</text>
<text xml:space="preserve" text-anchor="start" x="2841.25" y="-1132.95" font-family="Times,serif" font-size="14.00">tmp12 = tmp13 = self.current_enrollments tmp13....</text>
</g>
<!-- 107374182408&#45;&gt;25769803815 -->
<g id="edge28" class="edge">
<title>107374182408&#45;&gt;25769803815</title>
<path fill="none" stroke="black" d="M1387.62,-1236.7C1581.09,-1236.73 2124.99,-1233.53 2576,-1199.75 2673.06,-1192.48 2781.79,-1179.32 2866.14,-1167.99"/>
<polygon fill="black" stroke="black" points="2866.4,-1171.49 2875.85,-1166.68 2865.47,-1164.55 2866.4,-1171.49"/>
<text xml:space="preserve" text-anchor="middle" x="2748.39" y="-1186.45" font-family="Times,serif" font-size="14.00">DDG: </text>
</g>
<!-- 30064771277 -->
<g id="node9" class="node">
<title>30064771277</title>
<polygon fill="none" stroke="black" points="1263.75,-892.25 910.25,-892.25 910.25,-852.75 1263.75,-852.75 1263.75,-892.25"/>
<text xml:space="preserve" text-anchor="start" x="999.25" y="-874.95" font-family="Times,serif" font-size="14.00">&lt;operator&gt;.assignment, 238</text>
<text xml:space="preserve" text-anchor="start" x="918.25" y="-859.2" font-family="Times,serif" font-size="14.00">tmp12 = tmp13 = self.current_enrollments tmp13....</text>
</g>
<!-- 107374182408&#45;&gt;30064771277 -->
<g id="edge31" class="edge">
<title>107374182408&#45;&gt;30064771277</title>
<path fill="none" stroke="black" d="M1242.48,-1223.5C1201.74,-1211.55 1159,-1189.06 1159,-1147.25 1159,-1147.25 1159,-1147.25 1159,-962.75 1159,-937.77 1141.7,-915.84 1124.07,-899.97"/>
<polygon fill="black" stroke="black" points="1126.5,-897.44 1116.61,-893.65 1121.98,-902.79 1126.5,-897.44"/>
<text xml:space="preserve" text-anchor="middle" x="1175.88" y="-1049.58" font-family="Times,serif" font-size="14.00">DDG: </text>
</g>
<!-- 68719476947 -->
<g id="node10" class="node">
<title>68719476947</title>
<polygon fill="none" stroke="black" points="870.62,-237.75 753.38,-237.75 753.38,-182.5 870.62,-182.5 870.62,-237.75"/>
<text xml:space="preserve" text-anchor="start" x="761.38" y="-220.45" font-family="Times,serif" font-size="14.00">IDENTIFIER, 242</text>
<text xml:space="preserve" text-anchor="start" x="795.12" y="-204.7" font-family="Times,serif" font-size="14.00">total</text>
<text xml:space="preserve" text-anchor="start" x="771.5" y="-188.95" font-family="Times,serif" font-size="14.00">return total</text>
</g>
<!-- 107374182408&#45;&gt;68719476947 -->
<g id="edge34" class="edge">
<title>107374182408&#45;&gt;68719476947</title>
<path fill="none" stroke="black" d="M1242.67,-1235.1C1126.93,-1230.86 913,-1214 913,-1147.25 913,-1147.25 913,-1147.25 913,-962.75 913,-930.97 905.55,-923.71 901,-892.25 891.47,-826.36 889.05,-809.83 883.25,-743.5 873.33,-630.09 883.69,-600.64 869,-487.75 857.77,-401.45 834.71,-301.86 821.63,-248.88"/>
<polygon fill="black" stroke="black" points="825.1,-248.32 819.28,-239.46 818.3,-250.01 825.1,-248.32"/>
<text xml:space="preserve" text-anchor="middle" x="900.12" y="-730.2" font-family="Times,serif" font-size="14.00">DDG: </text>
</g>
<!-- 30064771276 -->
<g id="node12" class="node">
<title>30064771276</title>
<polygon fill="none" stroke="black" points="785,-983.5 661,-983.5 661,-944 785,-944 785,-983.5"/>
<text xml:space="preserve" text-anchor="start" x="679.12" y="-966.2" font-family="Times,serif" font-size="14.00">__iter__, 238</text>
<text xml:space="preserve" text-anchor="start" x="669" y="-950.45" font-family="Times,serif" font-size="14.00">tmp13.__iter__()</text>
</g>
<!-- 107374182408&#45;&gt;30064771276 -->
<g id="edge40" class="edge">
<title>107374182408&#45;&gt;30064771276</title>
<path fill="none" stroke="black" d="M1242.71,-1237.1C1139.53,-1236.8 956.17,-1231.58 899,-1199.75 814.57,-1152.74 758.66,-1046.47 735.34,-994.5"/>
<polygon fill="black" stroke="black" points="738.56,-993.12 731.34,-985.37 732.15,-995.93 738.56,-993.12"/>
<text xml:space="preserve" text-anchor="middle" x="816.59" y="-1095.2" font-family="Times,serif" font-size="14.00">DDG: </text>
</g>
<!-- 30064771270 -->
<g id="node15" class="node">
<title>30064771270</title>
<polygon fill="none" stroke="black" points="1572.88,-420.25 1415.12,-420.25 1415.12,-380.75 1572.88,-380.75 1572.88,-420.25"/>
<text xml:space="preserve" text-anchor="start" x="1423.12" y="-402.95" font-family="Times,serif" font-size="14.00">&lt;operator&gt;.isNot, 240</text>
<text xml:space="preserve" text-anchor="start" x="1429.88" y="-387.2" font-family="Times,serif" font-size="14.00">section is not None</text>
</g>
<!-- 107374182408&#45;&gt;30064771270 -->
<g id="edge47" class="edge">
<title>107374182408&#45;&gt;30064771270</title>
<path fill="none" stroke="black" d="M1350.06,-1217.57C1373.48,-1202.11 1400,-1177.85 1400,-1147.25 1400,-1147.25 1400,-1147.25 1400,-825.88 1400,-662.84 1461.23,-630.57 1488,-469.75 1490.05,-457.43 1491.43,-443.73 1492.34,-431.86"/>
<polygon fill="black" stroke="black" points="1495.81,-432.45 1493,-422.23 1488.83,-431.97 1495.81,-432.45"/>
<text xml:space="preserve" text-anchor="middle" x="1416.88" y="-821.45" font-family="Times,serif" font-size="14.00">DDG: </text>
</g>
<!-- 30064771279 -->
<g id="node16" class="node">
<title>30064771279</title>
<polygon fill="none" stroke="black" points="2561,-801 2437,-801 2437,-761.5 2561,-761.5 2561,-801"/>
<text xml:space="preserve" text-anchor="start" x="2455.12" y="-783.7" font-family="Times,serif" font-size="14.00">__next__, 238</text>
<text xml:space="preserve" text-anchor="start" x="2445" y="-767.95" font-family="Times,serif" font-size="14.00">tmp12.__next__()</text>
</g>
<!-- 107374182408&#45;&gt;30064771279 -->
<g id="edge42" class="edge">
<title>107374182408&#45;&gt;30064771279</title>
<path fill="none" stroke="black" d="M1387.42,-1235.9C1625.88,-1233.7 2373.97,-1224.82 2419,-1199.75 2443.5,-1186.11 2454,-1175.29 2454,-1147.25 2454,-1147.25 2454,-1147.25 2454,-871.5 2454,-849.45 2465.09,-827.3 2476.25,-810.59"/>
<polygon fill="black" stroke="black" points="2478.95,-812.83 2481.88,-802.65 2473.24,-808.78 2478.95,-812.83"/>
<text xml:space="preserve" text-anchor="middle" x="2470.88" y="-1003.95" font-family="Times,serif" font-size="14.00">DDG: </text>
</g>
<!-- 30064771268 -->
<g id="node17" class="node">
<title>30064771268</title>
<polygon fill="none" stroke="black" points="2378,-618.5 2200,-618.5 2200,-579 2378,-579 2378,-618.5"/>
<text xml:space="preserve" text-anchor="start" x="2262" y="-601.2" font-family="Times,serif" font-size="14.00">get, 239</text>
<text xml:space="preserve" text-anchor="start" x="2208" y="-585.45" font-family="Times,serif" font-size="14.00">sections.get(section_id)</text>
</g>
<!-- 107374182408&#45;&gt;30064771268 -->
<g id="edge44" class="edge">
<title>107374182408&#45;&gt;30064771268</title>
<path fill="none" stroke="black" d="M1387.36,-1234.37C1630.81,-1226.74 2405,-1198.46 2405,-1147.25 2405,-1147.25 2405,-1147.25 2405,-871.5 2405,-847.35 2406.46,-837.56 2391,-819 2379.04,-804.64 2365.21,-815.15 2353,-801 2340.52,-786.53 2309.18,-654.58 2303,-636.5 2302.19,-634.14 2301.33,-631.7 2300.44,-629.26"/>
<polygon fill="black" stroke="black" points="2303.82,-628.3 2297.05,-620.15 2297.26,-630.74 2303.82,-628.3"/>
<text xml:space="preserve" text-anchor="middle" x="2421.88" y="-912.7" font-family="Times,serif" font-size="14.00">DDG: </text>
</g>
<!-- 30064771272 -->
<g id="node18" class="node">
<title>30064771272</title>
<polygon fill="none" stroke="black" points="1437.25,-329 1218.75,-329 1218.75,-289.5 1437.25,-289.5 1437.25,-329"/>
<text xml:space="preserve" text-anchor="start" x="1226.75" y="-311.7" font-family="Times,serif" font-size="14.00">&lt;operator&gt;.assignmentPlus, 241</text>
<text xml:space="preserve" text-anchor="start" x="1247" y="-295.95" font-family="Times,serif" font-size="14.00">total += section.credits</text>
</g>
<!-- 107374182408&#45;&gt;30064771272 -->
<g id="edge50" class="edge">
<title>107374182408&#45;&gt;30064771272</title>
<path fill="none" stroke="black" d="M1307.08,-1217.37C1300.43,-1199.54 1292,-1172.05 1292,-1147.25 1292,-1147.25 1292,-1147.25 1292,-917.12 1292,-865.51 1290.71,-852.61 1290.25,-801 1289.89,-760.45 1290.06,-750.31 1290,-709.75 1289.98,-692.19 1288.7,-687.76 1290,-670.25 1296.69,-580.4 1311.07,-559.41 1320,-469.75 1322.41,-445.61 1325.26,-379.95 1326.83,-340.81"/>
<polygon fill="black" stroke="black" points="1330.32,-341 1327.22,-330.87 1323.33,-340.72 1330.32,-341"/>
<text xml:space="preserve" text-anchor="middle" x="1307.12" y="-775.83" font-family="Times,serif" font-size="14.00">DDG: </text>
</g>
<!-- 124554051592 -->
<g id="node2" class="node">
<title>124554051592</title>
<polygon fill="none" stroke="black" points="1176.75,-39.5 1039.25,-39.5 1039.25,0 1176.75,0 1176.75,-39.5"/>
<text xml:space="preserve" text-anchor="start" x="1047.25" y="-22.2" font-family="Times,serif" font-size="14.00">METHOD_RETURN, 235</text>
<text xml:space="preserve" text-anchor="start" x="1064.12" y="-6.45" font-family="Times,serif" font-size="14.00">__builtin.int</text>
</g>
<!-- 111669149704&#45;&gt;124554051592 -->
<g id="edge2" class="edge">
<title>111669149704&#45;&gt;124554051592</title>
<path fill="none" stroke="black" d="M265.82,-1141.89C181.47,-1134.01 0,-1110.7 0,-1056 0,-1056 0,-1056 0,-110 0,-61.76 48.51,-70.39 95,-57.5 183.65,-32.91 803.4,-23.97 1027.43,-21.52"/>
<polygon fill="black" stroke="black" points="1027.28,-25.02 1037.24,-21.42 1027.2,-18.02 1027.28,-25.02"/>
<text xml:space="preserve" text-anchor="middle" x="30.38" y="-593.33" font-family="Times,serif" font-size="14.00">DDG: self</text>
</g>
<!-- 30064771274 -->
<g id="node11" class="node">
<title>30064771274</title>
<polygon fill="none" stroke="black" points="424,-1074.75 192,-1074.75 192,-1035.25 424,-1035.25 424,-1074.75"/>
<text xml:space="preserve" text-anchor="start" x="220.25" y="-1057.45" font-family="Times,serif" font-size="14.00">&lt;operator&gt;.assignment, 238</text>
<text xml:space="preserve" text-anchor="start" x="200" y="-1041.7" font-family="Times,serif" font-size="14.00">tmp13 = self.current_enrollments</text>
</g>
<!-- 111669149704&#45;&gt;30064771274 -->
<g id="edge35" class="edge">
<title>111669149704&#45;&gt;30064771274</title>
<path fill="none" stroke="black" d="M308,-1126.32C308,-1114.8 308,-1099.82 308,-1086.65"/>
<polygon fill="black" stroke="black" points="311.5,-1086.72 308,-1076.72 304.5,-1086.72 311.5,-1086.72"/>
<text xml:space="preserve" text-anchor="middle" x="338.38" y="-1095.2" font-family="Times,serif" font-size="14.00">DDG: self</text>
</g>
<!-- 111669149705&#45;&gt;124554051592 -->
<g id="edge3" class="edge">
<title>111669149705&#45;&gt;124554051592</title>
<path fill="none" stroke="black" d="M1342.31,-669.87C1344.41,-625.3 1344.11,-512.69 1295,-438.25 1261.59,-387.6 1231.38,-396.94 1181.25,-362.75 1122.86,-322.93 1083.63,-334.2 1051,-271.5 1039.32,-249.06 912.41,-326.45 1056,-57.5 1057.88,-53.98 1060.26,-50.72 1062.97,-47.72"/>
<polygon fill="black" stroke="black" points="1065.27,-50.36 1070.2,-40.98 1060.5,-45.24 1065.27,-50.36"/>
<text xml:space="preserve" text-anchor="middle" x="1225.12" y="-349.45" font-family="Times,serif" font-size="14.00">DDG: sections</text>
</g>
<!-- 111669149705&#45;&gt;30064771268 -->
<g id="edge43" class="edge">
<title>111669149705&#45;&gt;30064771268</title>
<path fill="none" stroke="black" d="M1342.41,-669.84C1344.35,-658.22 1348.86,-644.2 1359.25,-636.5 1392.11,-612.14 1955.05,-603.32 2188.66,-600.7"/>
<polygon fill="black" stroke="black" points="2188.39,-604.2 2198.35,-600.59 2188.31,-597.21 2188.39,-604.2"/>
<text xml:space="preserve" text-anchor="middle" x="1403.12" y="-638.95" font-family="Times,serif" font-size="14.00">DDG: sections</text>
</g>
<!-- 30064771266&#45;&gt;124554051592 -->
<g id="edge4" class="edge">
<title>30064771266&#45;&gt;124554051592</title>
<path fill="none" stroke="black" d="M554.91,-380.57C549.68,-362.66 543,-334.91 543,-310.25 543,-310.25 543,-310.25 543,-110 543,-48.51 611.22,-71.91 671,-57.5 792.96,-28.1 938.97,-21.32 1027.54,-20.22"/>
<polygon fill="black" stroke="black" points="1027.37,-23.73 1037.33,-20.13 1027.3,-16.73 1027.37,-23.73"/>
<text xml:space="preserve" text-anchor="middle" x="576.75" y="-204.7" font-family="Times,serif" font-size="14.00">DDG: total</text>
</g>
<!-- 30064771266&#45;&gt;124554051592 -->
<g id="edge5" class="edge">
<title>30064771266&#45;&gt;124554051592</title>
<path fill="none" stroke="black" d="M476.92,-380.34C443.12,-367.2 412,-345.53 412,-310.25 412,-310.25 412,-310.25 412,-110 412,-48.54 844.47,-28.52 1027.61,-22.79"/>
<polygon fill="black" stroke="black" points="1027.64,-26.29 1037.53,-22.49 1027.43,-19.3 1027.64,-26.29"/>
<text xml:space="preserve" text-anchor="middle" x="459.25" y="-204.7" font-family="Times,serif" font-size="14.00">DDG: total = 0</text>
</g>
<!-- 30064771266&#45;&gt;68719476947 -->
<g id="edge32" class="edge">
<title>30064771266&#45;&gt;68719476947</title>
<path fill="none" stroke="black" d="M586.45,-380.4C628.77,-348.64 714.19,-284.53 766.9,-244.97"/>
<polygon fill="black" stroke="black" points="768.92,-247.83 774.82,-239.03 764.72,-242.23 768.92,-247.83"/>
<text xml:space="preserve" text-anchor="middle" x="741.08" y="-303.82" font-family="Times,serif" font-size="14.00">DDG: total</text>
</g>
<!-- 30064771266&#45;&gt;30064771272 -->
<g id="edge49" class="edge">
<title>30064771266&#45;&gt;30064771272</title>
<path fill="none" stroke="black" d="M656.93,-384.71C732.06,-373.44 839.28,-358.02 933.5,-347 1025.15,-336.28 1129.08,-326.7 1207.25,-320.01"/>
<polygon fill="black" stroke="black" points="1207.42,-323.51 1217.08,-319.18 1206.82,-316.54 1207.42,-323.51"/>
<text xml:space="preserve" text-anchor="middle" x="967.25" y="-349.45" font-family="Times,serif" font-size="14.00">DDG: total</text>
</g>
<!-- 141733920776 -->
<g id="node8" class="node">
<title>141733920776</title>
<polygon fill="none" stroke="black" points="862.5,-130.75 765.5,-130.75 765.5,-91.25 862.5,-91.25 862.5,-130.75"/>
<text xml:space="preserve" text-anchor="start" x="776.88" y="-113.45" font-family="Times,serif" font-size="14.00">RETURN, 242</text>
<text xml:space="preserve" text-anchor="start" x="773.5" y="-97.7" font-family="Times,serif" font-size="14.00">return total</text>
</g>
<!-- 141733920776&#45;&gt;124554051592 -->
<g id="edge1" class="edge">
<title>141733920776&#45;&gt;124554051592</title>
<path fill="none" stroke="black" d="M809.82,-90.9C808.57,-79.75 809.29,-66.21 817.5,-57.5 831.78,-42.35 946.71,-31.54 1027.65,-25.72"/>
<polygon fill="black" stroke="black" points="1027.59,-29.24 1037.32,-25.04 1027.1,-22.25 1027.59,-29.24"/>
<text xml:space="preserve" text-anchor="middle" x="851.25" y="-59.95" font-family="Times,serif" font-size="14.00">DDG: &lt;RET&gt;</text>
</g>
<!-- 30064771277&#45;&gt;124554051592 -->
<g id="edge6" class="edge">
<title>30064771277&#45;&gt;124554051592</title>
<path fill="none" stroke="black" d="M996.25,-852.42C961.94,-839.41 931,-817.82 931,-782.25 931,-782.25 931,-782.25 931,-552.12 931,-542.36 902.33,-479.34 900.5,-469.75 894.82,-439.95 899,-431.84 899,-401.5 899,-401.5 899,-401.5 899,-110 899,-51.62 968.82,-30.91 1027.75,-23.83"/>
<polygon fill="black" stroke="black" points="1027.91,-27.33 1037.48,-22.78 1027.17,-20.37 1027.91,-27.33"/>
<text xml:space="preserve" text-anchor="middle" x="934.25" y="-448.57" font-family="Times,serif" font-size="14.00">DDG: tmp12</text>
</g>
<!-- 30064771277&#45;&gt;124554051592 -->
<g id="edge11" class="edge">
<title>30064771277&#45;&gt;124554051592</title>
<path fill="none" stroke="black" d="M1044.45,-852.38C1018.39,-837.47 990,-813.94 990,-782.25 990,-782.25 990,-782.25 990,-506.5 990,-474 996.97,-464.41 1016.25,-438.25 1048.4,-394.62 1088.35,-411.51 1112,-362.75 1132.75,-319.96 1130.2,-299.69 1112,-255.75 1107.67,-245.3 1098.61,-248.08 1094,-237.75 1080.71,-207.98 1090.89,-197.09 1090,-164.5 1089.11,-131.96 1088.08,-123.75 1090,-91.25 1090.89,-76.17 1090.4,-72.17 1094,-57.5 1094.56,-55.22 1095.22,-52.89 1095.95,-50.57"/>
<polygon fill="black" stroke="black" points="1099.17,-51.94 1099.18,-41.35 1092.57,-49.63 1099.17,-51.94"/>
<text xml:space="preserve" text-anchor="middle" x="1168.12" y="-456.45" font-family="Times,serif" font-size="14.00">DDG: tmp12 = tmp13 = self.current_enrollments</text>
<text xml:space="preserve" text-anchor="middle" x="1168.12" y="-440.7" font-family="Times,serif" font-size="14.00">tmp13.__iter__()</text>
</g>
<!-- 30064771277&#45;&gt;30064771279 -->
<g id="edge41" class="edge">
<title>30064771277&#45;&gt;30064771279</title>
<path fill="none" stroke="black" d="M1264.07,-868.48C1525.3,-863.52 2001.46,-852.39 2172,-834.75 2212.61,-830.55 2222.08,-824.78 2262.5,-819 2333.56,-808.84 2352.34,-813.62 2423,-801 2423.83,-800.85 2424.66,-800.7 2425.5,-800.55"/>
<polygon fill="black" stroke="black" points="2425.91,-804.03 2435.03,-798.65 2424.54,-797.17 2425.91,-804.03"/>
<text xml:space="preserve" text-anchor="middle" x="2296.25" y="-821.45" font-family="Times,serif" font-size="14.00">DDG: tmp12</text>
</g>
<!-- 68719476947&#45;&gt;141733920776 -->
<g id="edge29" class="edge">
<title>68719476947&#45;&gt;141733920776</title>
<path fill="none" stroke="black" d="M812.56,-182.07C812.81,-169.82 813.11,-155.28 813.37,-142.63"/>
<polygon fill="black" stroke="black" points="816.87,-142.8 813.57,-132.73 809.87,-142.66 816.87,-142.8"/>
<text xml:space="preserve" text-anchor="middle" x="846.99" y="-151.2" font-family="Times,serif" font-size="14.00">DDG: total</text>
</g>
<!-- 30064771274&#45;&gt;124554051592 -->
<g id="edge7" class="edge">
<title>30064771274&#45;&gt;124554051592</title>
<path fill="none" stroke="black" d="M191.77,-1047.59C139.35,-1037.73 89,-1015.15 89,-964.75 89,-964.75 89,-964.75 89,-110 89,-15.95 200.98,-71.36 294,-57.5 433.74,-36.68 850.95,-25.98 1027.58,-22.28"/>
<polygon fill="black" stroke="black" points="1027.43,-25.78 1037.35,-22.08 1027.28,-18.78 1027.43,-25.78"/>
<text xml:space="preserve" text-anchor="middle" x="186.88" y="-547.7" font-family="Times,serif" font-size="14.00">DDG: self.current_enrollments</text>
</g>
<!-- 30064771274&#45;&gt;124554051592 -->
<g id="edge8" class="edge">
<title>30064771274&#45;&gt;124554051592</title>
<path fill="none" stroke="black" d="M308,-1034.85C308,-1016.78 308,-988.92 308,-964.75 308,-964.75 308,-964.75 308,-110 308,-38.16 824.17,-24.14 1027.28,-21.41"/>
<polygon fill="black" stroke="black" points="1027.28,-24.91 1037.24,-21.28 1027.2,-17.91 1027.28,-24.91"/>
<text xml:space="preserve" text-anchor="middle" x="432.88" y="-547.7" font-family="Times,serif" font-size="14.00">DDG: tmp13 = self.current_enrollments</text>
</g>
<!-- 30064771274&#45;&gt;30064771276 -->
<g id="edge39" class="edge">
<title>30064771274&#45;&gt;30064771276</title>
<path fill="none" stroke="black" d="M397.28,-1034.8C472.7,-1018.58 579.37,-995.64 649.82,-980.49"/>
<polygon fill="black" stroke="black" points="650.29,-983.97 659.33,-978.44 648.81,-977.12 650.29,-983.97"/>
<text xml:space="preserve" text-anchor="middle" x="574.1" y="-1003.95" font-family="Times,serif" font-size="14.00">DDG: tmp13</text>
</g>
<!-- 30064771276&#45;&gt;124554051592 -->
<g id="edge9" class="edge">
<title>30064771276&#45;&gt;124554051592</title>
<path fill="none" stroke="black" d="M714.94,-943.51C712.8,-937.93 710.63,-931.78 709,-926 659.92,-752.43 650.35,-706.83 633.5,-527.25 631.86,-509.77 629.59,-504.87 633.5,-487.75 640.91,-455.29 654.03,-451.32 666,-420.25 676.73,-392.41 685,-385.71 685,-355.88 685,-355.88 685,-355.88 685,-110 685,-84.34 688.07,-72.34 709,-57.5 734.35,-39.52 918.68,-28.74 1027.72,-23.86"/>
<polygon fill="black" stroke="black" points="1027.66,-27.37 1037.49,-23.43 1027.35,-20.38 1027.66,-27.37"/>
<text xml:space="preserve" text-anchor="middle" x="667.25" y="-502.07" font-family="Times,serif" font-size="14.00">DDG: tmp13</text>
</g>
<!-- 30064771276&#45;&gt;124554051592 -->
<g id="edge10" class="edge">
<title>30064771276&#45;&gt;124554051592</title>
<path fill="none" stroke="black" d="M723,-943.6C723,-925.53 723,-897.67 723,-873.5 723,-873.5 723,-873.5 723,-110 723,-47.98 915.01,-29.04 1027.84,-23.27"/>
<polygon fill="black" stroke="black" points="1027.84,-26.78 1037.66,-22.8 1027.5,-19.79 1027.84,-26.78"/>
<text xml:space="preserve" text-anchor="middle" x="793.88" y="-502.07" font-family="Times,serif" font-size="14.00">DDG: tmp13.__iter__()</text>
</g>
<!-- 30064771276&#45;&gt;30064771277 -->
<g id="edge30" class="edge">
<title>30064771276&#45;&gt;30064771277</title>
<path fill="none" stroke="black" d="M785.16,-947.51C843.63,-933.17 931.81,-911.55 997.79,-895.37"/>
<polygon fill="black" stroke="black" points="998.24,-898.87 1007.12,-893.09 996.58,-892.07 998.24,-898.87"/>
<text xml:space="preserve" text-anchor="middle" x="997.67" y="-912.7" font-family="Times,serif" font-size="14.00">DDG: tmp13.__iter__()</text>
</g>
<!-- 30064771280 -->
<g id="node13" class="node">
<title>30064771280</title>
<polygon fill="none" stroke="black" points="2596.88,-709.75 2385.12,-709.75 2385.12,-670.25 2596.88,-670.25 2596.88,-709.75"/>
<text xml:space="preserve" text-anchor="start" x="2403.25" y="-692.45" font-family="Times,serif" font-size="14.00">&lt;operator&gt;.assignment, 238</text>
<text xml:space="preserve" text-anchor="start" x="2393.12" y="-676.7" font-family="Times,serif" font-size="14.00">section_id = tmp12.__next__()</text>
</g>
<!-- 30064771280&#45;&gt;124554051592 -->
<g id="edge13" class="edge">
<title>30064771280&#45;&gt;124554051592</title>
<path fill="none" stroke="black" d="M2491,-669.85C2491,-651.78 2491,-623.92 2491,-599.75 2491,-599.75 2491,-599.75 2491,-399.5 2491,-339.55 2493,-324.58 2493,-264.62 2493,-264.62 2493,-264.62 2493,-110 2493,-44.2 1484.44,-25.71 1188.63,-21.7"/>
<polygon fill="black" stroke="black" points="1188.72,-18.2 1178.67,-21.57 1188.62,-25.2 1188.72,-18.2"/>
<text xml:space="preserve" text-anchor="middle" x="2562.46" y="-349.45" font-family="Times,serif" font-size="14.00">DDG: tmp12.__next__()</text>
</g>
<!-- 30064771280&#45;&gt;124554051592 -->
<g id="edge14" class="edge">
<title>30064771280&#45;&gt;124554051592</title>
<path fill="none" stroke="black" d="M2591.26,-669.8C2625.81,-656.9 2656,-635.41 2656,-599.75 2656,-599.75 2656,-599.75 2656,-110 2656,-35.75 1506.02,-23.19 1188.41,-21.14"/>
<polygon fill="black" stroke="black" points="1188.55,-17.64 1178.53,-21.08 1188.51,-24.64 1188.55,-17.64"/>
<text xml:space="preserve" text-anchor="middle" x="2770.75" y="-349.45" font-family="Times,serif" font-size="14.00">DDG: section_id = tmp12.__next__()</text>
</g>
<!-- 30064771280&#45;&gt;30064771268 -->
<g id="edge45" class="edge">
<title>30064771280&#45;&gt;30064771268</title>
<path fill="none" stroke="black" d="M2420.02,-669.77C2405.1,-664.8 2389.67,-658.92 2375.75,-652.25 2364.33,-646.77 2362.75,-643.19 2352,-636.5 2345.64,-632.54 2338.86,-628.45 2332.19,-624.5"/>
<polygon fill="black" stroke="black" points="2334.26,-621.66 2323.87,-619.62 2330.72,-627.7 2334.26,-621.66"/>
<text xml:space="preserve" text-anchor="middle" x="2426.38" y="-638.95" font-family="Times,serif" font-size="14.00">DDG: section_id</text>
</g>
<!-- 30064771269 -->
<g id="node14" class="node">
<title>30064771269</title>
<polygon fill="none" stroke="black" points="2116.75,-527.25 1871.25,-527.25 1871.25,-487.75 2116.75,-487.75 2116.75,-527.25"/>
<text xml:space="preserve" text-anchor="start" x="1906.25" y="-509.95" font-family="Times,serif" font-size="14.00">&lt;operator&gt;.assignment, 239</text>
<text xml:space="preserve" text-anchor="start" x="1879.25" y="-494.2" font-family="Times,serif" font-size="14.00">section = sections.get(section_id)</text>
</g>
<!-- 30064771269&#45;&gt;124554051592 -->
<g id="edge17" class="edge">
<title>30064771269&#45;&gt;124554051592</title>
<path fill="none" stroke="black" d="M1963.93,-487.27C1957.91,-482.21 1952.16,-476.31 1948,-469.75 1903.87,-400.21 1966.7,-344.06 1905,-289.5 1878.07,-265.69 1776.56,-287.25 1744.25,-271.5 1694.45,-247.24 1699.85,-217.61 1657,-182.5 1599.55,-135.43 1585.03,-121.06 1517,-91.25 1461.14,-66.77 1443.88,-69.04 1384,-57.5 1318.5,-44.87 1243.42,-35.18 1188.12,-28.93"/>
<polygon fill="black" stroke="black" points="1188.81,-25.48 1178.48,-27.85 1188.03,-32.44 1188.81,-25.48"/>
<text xml:space="preserve" text-anchor="middle" x="1842.12" y="-258.2" font-family="Times,serif" font-size="14.00">DDG: sections.get(section_id)</text>
</g>
<!-- 30064771269&#45;&gt;124554051592 -->
<g id="edge18" class="edge">
<title>30064771269&#45;&gt;124554051592</title>
<path fill="none" stroke="black" d="M1984.4,-487.29C1974.97,-466.64 1962,-432.56 1962,-401.5 1962,-401.5 1962,-401.5 1962,-110 1962,-32.69 1401.29,-22.07 1188.55,-20.82"/>
<polygon fill="black" stroke="black" points="1188.69,-17.32 1178.68,-20.77 1188.66,-24.32 1188.69,-17.32"/>
<text xml:space="preserve" text-anchor="middle" x="2093.62" y="-258.2" font-family="Times,serif" font-size="14.00">DDG: section = sections.get(section_id)</text>
</g>
<!-- 30064771269&#45;&gt;30064771270 -->
<g id="edge46" class="edge">
<title>30064771269&#45;&gt;30064771270</title>
<path fill="none" stroke="black" d="M1902.58,-487.3C1812.1,-468.3 1674.4,-439.38 1584.3,-420.46"/>
<polygon fill="black" stroke="black" points="1585.27,-417.09 1574.76,-418.46 1583.83,-423.94 1585.27,-417.09"/>
<text xml:space="preserve" text-anchor="middle" x="1858.5" y="-448.57" font-family="Times,serif" font-size="14.00">DDG: section</text>
</g>
<!-- 30064771270&#45;&gt;124554051592 -->
<g id="edge19" class="edge">
<title>30064771270&#45;&gt;124554051592</title>
<path fill="none" stroke="black" d="M1496.13,-380.57C1498.87,-358.45 1504.35,-320.89 1513,-289.5 1530.56,-225.78 1598.13,-203.43 1561,-148.75 1519.08,-87.02 1306.47,-48.23 1188.01,-31.06"/>
<polygon fill="black" stroke="black" points="1188.74,-27.63 1178.35,-29.68 1187.75,-34.56 1188.74,-27.63"/>
<text xml:space="preserve" text-anchor="middle" x="1612.33" y="-204.7" font-family="Times,serif" font-size="14.00">DDG: section</text>
</g>
<!-- 30064771270&#45;&gt;124554051592 -->
<g id="edge20" class="edge">
<title>30064771270&#45;&gt;124554051592</title>
<path fill="none" stroke="black" d="M1414.75,-383.15C1386.91,-377.12 1355.49,-369.98 1327,-362.75 1274.55,-349.43 1256.29,-357.03 1210,-329 1171.48,-305.68 1173.68,-285.64 1140,-255.75 1130.03,-246.9 1122.18,-249.56 1116,-237.75 1084.54,-177.63 1093.37,-94.77 1101.38,-50.87"/>
<polygon fill="black" stroke="black" points="1104.76,-51.8 1103.24,-41.32 1097.89,-50.46 1104.76,-51.8"/>
<text xml:space="preserve" text-anchor="middle" x="1197" y="-204.7" font-family="Times,serif" font-size="14.00">DDG: section is not None</text>
</g>
<!-- 30064771270&#45;&gt;30064771272 -->
<g id="edge48" class="edge">
<title>30064771270&#45;&gt;30064771272</title>
<path fill="none" stroke="black" d="M1437.11,-380.35C1424.28,-375.25 1410.93,-369.31 1399,-362.75 1394.84,-360.46 1378.04,-348.06 1361.83,-335.89"/>
<polygon fill="black" stroke="black" points="1364.27,-333.35 1354.18,-330.13 1360.06,-338.94 1364.27,-333.35"/>
<text xml:space="preserve" text-anchor="middle" x="1439.5" y="-349.45" font-family="Times,serif" font-size="14.00">DDG: section</text>
</g>
<!-- 30064771270&#45;&gt;30064771272 -->
<g id="edge63" class="edge">
<title>30064771270&#45;&gt;30064771272</title>
<path fill="none" stroke="black" d="M1414.75,-388.36C1382.98,-382.34 1351.28,-373.84 1340.25,-362.75 1334.37,-356.84 1331.1,-348.69 1329.34,-340.58"/>
<polygon fill="black" stroke="black" points="1332.83,-340.26 1327.94,-330.86 1325.9,-341.25 1332.83,-340.26"/>
<text xml:space="preserve" text-anchor="middle" x="1357.12" y="-349.45" font-family="Times,serif" font-size="14.00">CDG: </text>
</g>
<!-- 30064771271 -->
<g id="node24" class="node">
<title>30064771271</title>
<polygon fill="none" stroke="black" points="1720.12,-329 1521.88,-329 1521.88,-289.5 1720.12,-289.5 1720.12,-329"/>
<text xml:space="preserve" text-anchor="start" x="1529.88" y="-311.7" font-family="Times,serif" font-size="14.00">&lt;operator&gt;.fieldAccess, 241</text>
<text xml:space="preserve" text-anchor="start" x="1570.38" y="-295.95" font-family="Times,serif" font-size="14.00">section.credits</text>
</g>
<!-- 30064771270&#45;&gt;30064771271 -->
<g id="edge62" class="edge">
<title>30064771270&#45;&gt;30064771271</title>
<path fill="none" stroke="black" d="M1521.24,-380.35C1539.74,-367.35 1564.41,-350.02 1584.59,-335.83"/>
<polygon fill="black" stroke="black" points="1586.39,-338.85 1592.56,-330.23 1582.37,-333.12 1586.39,-338.85"/>
<text xml:space="preserve" text-anchor="middle" x="1581.98" y="-349.45" font-family="Times,serif" font-size="14.00">CDG: </text>
</g>
<!-- 55834574869 -->
<g id="node25" class="node">
<title>55834574869</title>
<polygon fill="none" stroke="black" points="1895.88,-329 1738.12,-329 1738.12,-289.5 1895.88,-289.5 1895.88,-329"/>
<text xml:space="preserve" text-anchor="start" x="1746.12" y="-311.7" font-family="Times,serif" font-size="14.00">FIELD_IDENTIFIER, 241</text>
<text xml:space="preserve" text-anchor="start" x="1793.38" y="-295.95" font-family="Times,serif" font-size="14.00">credits</text>
</g>
<!-- 30064771270&#45;&gt;55834574869 -->
<g id="edge61" class="edge">
<title>30064771270&#45;&gt;55834574869</title>
<path fill="none" stroke="black" d="M1563.29,-380.35C1614.19,-366.29 1683.47,-347.15 1736.77,-332.42"/>
<polygon fill="black" stroke="black" points="1737.38,-335.88 1746.09,-329.84 1735.52,-329.13 1737.38,-335.88"/>
<text xml:space="preserve" text-anchor="middle" x="1691.71" y="-349.45" font-family="Times,serif" font-size="14.00">CDG: </text>
</g>
<!-- 30064771279&#45;&gt;124554051592 -->
<g id="edge12" class="edge">
<title>30064771279&#45;&gt;124554051592</title>
<path fill="none" stroke="black" d="M2561.37,-779.19C2674.29,-775.56 2901,-759.72 2901,-691 2901,-691 2901,-691 2901,-110 2901,-23.04 1537.84,-19.87 1188.69,-20.49"/>
<polygon fill="black" stroke="black" points="1188.7,-16.99 1178.7,-20.51 1188.71,-23.99 1188.7,-16.99"/>
<text xml:space="preserve" text-anchor="middle" x="2934.75" y="-395.07" font-family="Times,serif" font-size="14.00">DDG: tmp12</text>
</g>
<!-- 30064771279&#45;&gt;30064771280 -->
<g id="edge36" class="edge">
<title>30064771279&#45;&gt;30064771280</title>
<path fill="none" stroke="black" d="M2497.3,-761.32C2496.27,-749.8 2494.93,-734.82 2493.75,-721.65"/>
<polygon fill="black" stroke="black" points="2497.24,-721.36 2492.86,-711.72 2490.26,-721.99 2497.24,-721.36"/>
<text xml:space="preserve" text-anchor="middle" x="2529.23" y="-730.2" font-family="Times,serif" font-size="14.00">DDG: tmp12</text>
</g>
<!-- 30064771268&#45;&gt;124554051592 -->
<g id="edge15" class="edge">
<title>30064771268&#45;&gt;124554051592</title>
<path fill="none" stroke="black" d="M2284.21,-578.74C2271.88,-528.06 2240,-385.34 2240,-264.62 2240,-264.62 2240,-264.62 2240,-110 2240,-57.19 1446.65,-30.25 1188.27,-22.88"/>
<polygon fill="black" stroke="black" points="1188.72,-19.39 1178.62,-22.6 1188.52,-26.39 1188.72,-19.39"/>
<text xml:space="preserve" text-anchor="middle" x="2286.49" y="-303.82" font-family="Times,serif" font-size="14.00">DDG: sections</text>
</g>
<!-- 30064771268&#45;&gt;124554051592 -->
<g id="edge16" class="edge">
<title>30064771268&#45;&gt;124554051592</title>
<path fill="none" stroke="black" d="M2319.07,-578.51C2339.94,-562.58 2364,-537.85 2364,-508.5 2364,-508.5 2364,-508.5 2364,-110 2364,-50.81 1464.68,-27.88 1188.01,-22.23"/>
<polygon fill="black" stroke="black" points="1188.45,-18.74 1178.38,-22.04 1188.31,-25.74 1188.45,-18.74"/>
<text xml:space="preserve" text-anchor="middle" x="2414.62" y="-303.82" font-family="Times,serif" font-size="14.00">DDG: section_id</text>
</g>
<!-- 30064771268&#45;&gt;30064771269 -->
<g id="edge37" class="edge">
<title>30064771268&#45;&gt;30064771269</title>
<path fill="none" stroke="black" d="M2227.36,-578.55C2213.55,-573.48 2199.18,-567.56 2186.25,-561 2175.12,-555.35 2174.47,-550.17 2163,-545.25 2149.8,-539.6 2135.64,-534.77 2121.34,-530.67"/>
<polygon fill="black" stroke="black" points="2122.41,-527.33 2111.84,-528.06 2120.56,-534.08 2122.41,-527.33"/>
<text xml:space="preserve" text-anchor="middle" x="2230.12" y="-547.7" font-family="Times,serif" font-size="14.00">DDG: sections</text>
</g>
<!-- 30064771268&#45;&gt;30064771269 -->
<g id="edge38" class="edge">
<title>30064771268&#45;&gt;30064771269</title>
<path fill="none" stroke="black" d="M2199.57,-594.75C2155.27,-590.52 2101.94,-581.17 2057.75,-561 2047.85,-556.48 2047.38,-552.19 2039,-545.25 2034.85,-541.81 2030.47,-538.21 2026.14,-534.66"/>
<polygon fill="black" stroke="black" points="2028.53,-532.09 2018.58,-528.47 2024.1,-537.51 2028.53,-532.09"/>
<text xml:space="preserve" text-anchor="middle" x="2108.38" y="-547.7" font-family="Times,serif" font-size="14.00">DDG: section_id</text>
</g>
<!-- 30064771272&#45;&gt;124554051592 -->
<g id="edge21" class="edge">
<title>30064771272&#45;&gt;124554051592</title>
<path fill="none" stroke="black" d="M1335.61,-289.23C1346.93,-257.62 1364.22,-193.36 1338,-148.75 1305.77,-93.93 1240.61,-60.88 1187.85,-42.14"/>
<polygon fill="black" stroke="black" points="1189.17,-38.89 1178.57,-38.96 1186.9,-45.51 1189.17,-38.89"/>
<text xml:space="preserve" text-anchor="middle" x="1378.66" y="-151.2" font-family="Times,serif" font-size="14.00">DDG: total</text>
</g>
<!-- 30064771272&#45;&gt;124554051592 -->
<g id="edge22" class="edge">
<title>30064771272&#45;&gt;124554051592</title>
<path fill="none" stroke="black" d="M1352.12,-289.24C1387.12,-259.22 1444.84,-199.11 1416,-148.75 1370.43,-69.17 1263.37,-39.07 1188.33,-27.68"/>
<polygon fill="black" stroke="black" points="1188.94,-24.23 1178.54,-26.28 1187.95,-31.16 1188.94,-24.23"/>
<text xml:space="preserve" text-anchor="middle" x="1489.53" y="-151.2" font-family="Times,serif" font-size="14.00">DDG: section.credits</text>
</g>
<!-- 30064771272&#45;&gt;124554051592 -->
<g id="edge23" class="edge">
<title>30064771272&#45;&gt;124554051592</title>
<path fill="none" stroke="black" d="M1326.99,-289.41C1324.39,-261.29 1315.1,-208.85 1282,-182.5 1231.63,-142.4 1184.37,-209.43 1138.25,-164.5 1121.02,-147.72 1128.12,-80.76 1122,-57.5 1121.4,-55.23 1120.71,-52.91 1119.97,-50.59"/>
<polygon fill="black" stroke="black" points="1123.34,-49.63 1116.7,-41.38 1116.75,-51.97 1123.34,-49.63"/>
<text xml:space="preserve" text-anchor="middle" x="1236.12" y="-151.2" font-family="Times,serif" font-size="14.00">DDG: total += section.credits</text>
</g>
<!-- 30064771272&#45;&gt;68719476947 -->
<g id="edge33" class="edge">
<title>30064771272&#45;&gt;68719476947</title>
<path fill="none" stroke="black" d="M1225.75,-289C1124.14,-269.88 971.02,-241.06 882.34,-224.36"/>
<polygon fill="black" stroke="black" points="883.02,-220.93 872.55,-222.52 881.73,-227.81 883.02,-220.93"/>
<text xml:space="preserve" text-anchor="middle" x="1165.14" y="-258.2" font-family="Times,serif" font-size="14.00">DDG: total</text>
</g>
<!-- 180388626436 -->
<g id="node19" class="node">
<title>180388626436</title>
<polygon fill="none" stroke="black" points="2232.12,-892.25 2033.88,-892.25 2033.88,-852.75 2232.12,-852.75 2232.12,-892.25"/>
<text xml:space="preserve" text-anchor="start" x="2092.5" y="-874.95" font-family="Times,serif" font-size="14.00">UNKNOWN, 238</text>
<text xml:space="preserve" text-anchor="start" x="2041.88" y="-859.2" font-family="Times,serif" font-size="14.00">iteratorNonEmptyOrException</text>
</g>
<!-- 180388626436&#45;&gt;30064771280 -->
<g id="edge54" class="edge">
<title>180388626436&#45;&gt;30064771280</title>
<path fill="none" stroke="black" d="M2232.28,-859.82C2258.12,-854.37 2285.34,-846.41 2309,-834.75 2353.81,-812.67 2355.09,-792.51 2394.25,-761.5 2413.67,-746.12 2435.99,-729.77 2454.29,-716.7"/>
<polygon fill="black" stroke="black" points="2456.1,-719.7 2462.22,-711.06 2452.05,-714 2456.1,-719.7"/>
<text xml:space="preserve" text-anchor="middle" x="2411.12" y="-775.83" font-family="Times,serif" font-size="14.00">CDG: </text>
</g>
<!-- 180388626436&#45;&gt;30064771269 -->
<g id="edge58" class="edge">
<title>180388626436&#45;&gt;30064771269</title>
<path fill="none" stroke="black" d="M2152.48,-852.5C2164.35,-841.66 2180.22,-828.41 2196,-819 2214.5,-807.97 2228.92,-818.84 2241,-801 2250.84,-786.46 2247.69,-777.73 2241,-761.5 2193.17,-645.42 2128.6,-651.91 2042,-561 2034.37,-552.99 2026.2,-544.15 2018.8,-536.05"/>
<polygon fill="black" stroke="black" points="2021.48,-533.79 2012.16,-528.75 2016.3,-538.5 2021.48,-533.79"/>
<text xml:space="preserve" text-anchor="middle" x="2230.01" y="-684.58" font-family="Times,serif" font-size="14.00">CDG: </text>
</g>
<!-- 180388626436&#45;&gt;30064771270 -->
<g id="edge59" class="edge">
<title>180388626436&#45;&gt;30064771270</title>
<path fill="none" stroke="black" d="M2033.44,-868.33C1854.8,-861.62 1494.84,-842.99 1457,-801 1432.4,-773.7 1473.51,-519.89 1488.7,-431.6"/>
<polygon fill="black" stroke="black" points="1492.11,-432.46 1490.37,-422 1485.21,-431.26 1492.11,-432.46"/>
<text xml:space="preserve" text-anchor="middle" x="1474.94" y="-638.95" font-family="Times,serif" font-size="14.00">CDG: </text>
</g>
<!-- 180388626436&#45;&gt;30064771279 -->
<g id="edge53" class="edge">
<title>180388626436&#45;&gt;30064771279</title>
<path fill="none" stroke="black" d="M2232.45,-855.9C2265,-850.11 2301.22,-842.93 2334,-834.75 2367.38,-826.42 2403.89,-815.05 2434.06,-805.02"/>
<polygon fill="black" stroke="black" points="2435.07,-808.37 2443.44,-801.87 2432.85,-801.73 2435.07,-808.37"/>
<text xml:space="preserve" text-anchor="middle" x="2405.88" y="-821.45" font-family="Times,serif" font-size="14.00">CDG: </text>
</g>
<!-- 180388626436&#45;&gt;30064771268 -->
<g id="edge57" class="edge">
<title>180388626436&#45;&gt;30064771268</title>
<path fill="none" stroke="black" d="M2232.34,-856.94C2255.94,-851.4 2276.48,-844.11 2284,-834.75 2290.29,-826.92 2289.86,-692.15 2289.33,-630.31"/>
<polygon fill="black" stroke="black" points="2292.83,-630.46 2289.24,-620.49 2285.83,-630.52 2292.83,-630.46"/>
<text xml:space="preserve" text-anchor="middle" x="2306.35" y="-730.2" font-family="Times,serif" font-size="14.00">CDG: </text>
</g>
<!-- 180388626436&#45;&gt;180388626436 -->
<g id="edge60" class="edge">
<title>180388626436&#45;&gt;180388626436</title>
<path fill="none" stroke="black" d="M2232.54,-879.64C2243.24,-878.27 2250.12,-875.89 2250.12,-872.5 2250.12,-870.54 2247.82,-868.92 2243.82,-867.63"/>
<polygon fill="black" stroke="black" points="2244.52,-864.21 2234.03,-865.66 2243.14,-871.07 2244.52,-864.21"/>
<text xml:space="preserve" text-anchor="middle" x="2267" y="-867.08" font-family="Times,serif" font-size="14.00">CDG: </text>
</g>
<!-- 30064771278 -->
<g id="node20" class="node">
<title>30064771278</title>
<polygon fill="none" stroke="black" points="1664.12,-801 1465.88,-801 1465.88,-761.5 1664.12,-761.5 1664.12,-801"/>
<text xml:space="preserve" text-anchor="start" x="1473.88" y="-783.7" font-family="Times,serif" font-size="14.00">&lt;operator&gt;.fieldAccess, 238</text>
<text xml:space="preserve" text-anchor="start" x="1517.75" y="-767.95" font-family="Times,serif" font-size="14.00">tmp12.__next__</text>
</g>
<!-- 180388626436&#45;&gt;30064771278 -->
<g id="edge51" class="edge">
<title>180388626436&#45;&gt;30064771278</title>
<path fill="none" stroke="black" d="M2033.76,-856.87C1943.17,-843.38 1805.27,-822.52 1675.74,-801.43"/>
<polygon fill="black" stroke="black" points="1676.37,-797.99 1665.93,-799.83 1675.24,-804.9 1676.37,-797.99"/>
<text xml:space="preserve" text-anchor="middle" x="1903.94" y="-821.45" font-family="Times,serif" font-size="14.00">CDG: </text>
</g>
<!-- 30064771267 -->
<g id="node21" class="node">
<title>30064771267</title>
<polygon fill="none" stroke="black" points="1880.12,-801 1681.88,-801 1681.88,-761.5 1880.12,-761.5 1880.12,-801"/>
<text xml:space="preserve" text-anchor="start" x="1689.88" y="-783.7" font-family="Times,serif" font-size="14.00">&lt;operator&gt;.fieldAccess, 239</text>
<text xml:space="preserve" text-anchor="start" x="1740.5" y="-767.95" font-family="Times,serif" font-size="14.00">sections.get</text>
</g>
<!-- 180388626436&#45;&gt;30064771267 -->
<g id="edge56" class="edge">
<title>180388626436&#45;&gt;30064771267</title>
<path fill="none" stroke="black" d="M2057.49,-852.35C2001.79,-838.23 1925.89,-818.99 1867.71,-804.24"/>
<polygon fill="black" stroke="black" points="1868.71,-800.88 1858.16,-801.81 1866.99,-807.66 1868.71,-800.88"/>
<text xml:space="preserve" text-anchor="middle" x="1994.95" y="-821.45" font-family="Times,serif" font-size="14.00">CDG: </text>
</g>
<!-- 55834574872 -->
<g id="node22" class="node">
<title>55834574872</title>
<polygon fill="none" stroke="black" points="2055.88,-801 1898.12,-801 1898.12,-761.5 2055.88,-761.5 2055.88,-801"/>
<text xml:space="preserve" text-anchor="start" x="1906.12" y="-783.7" font-family="Times,serif" font-size="14.00">FIELD_IDENTIFIER, 238</text>
<text xml:space="preserve" text-anchor="start" x="1950" y="-767.95" font-family="Times,serif" font-size="14.00">__next__</text>
</g>
<!-- 180388626436&#45;&gt;55834574872 -->
<g id="edge55" class="edge">
<title>180388626436&#45;&gt;55834574872</title>
<path fill="none" stroke="black" d="M2099.53,-852.35C2076.4,-839.12 2045.41,-821.39 2020.38,-807.07"/>
<polygon fill="black" stroke="black" points="2022.14,-804.04 2011.72,-802.12 2018.67,-810.12 2022.14,-804.04"/>
<text xml:space="preserve" text-anchor="middle" x="2081.22" y="-821.45" font-family="Times,serif" font-size="14.00">CDG: </text>
</g>
<!-- 55834574868 -->
<g id="node23" class="node">
<title>55834574868</title>
<polygon fill="none" stroke="black" points="2231.88,-801 2074.12,-801 2074.12,-761.5 2231.88,-761.5 2231.88,-801"/>
<text xml:space="preserve" text-anchor="start" x="2082.12" y="-783.7" font-family="Times,serif" font-size="14.00">FIELD_IDENTIFIER, 239</text>
<text xml:space="preserve" text-anchor="start" x="2142.88" y="-767.95" font-family="Times,serif" font-size="14.00">get</text>
</g>
<!-- 180388626436&#45;&gt;55834574868 -->
<g id="edge52" class="edge">
<title>180388626436&#45;&gt;55834574868</title>
<path fill="none" stroke="black" d="M2131.43,-852.27C2131.11,-842.21 2131.52,-829.78 2134.25,-819 2134.86,-816.57 2135.66,-814.13 2136.58,-811.71"/>
<polygon fill="black" stroke="black" points="2139.66,-813.38 2140.56,-802.83 2133.27,-810.52 2139.66,-813.38"/>
<text xml:space="preserve" text-anchor="middle" x="2151.12" y="-821.45" font-family="Times,serif" font-size="14.00">CDG: </text>
</g>
</g>
</svg>
