<?xml version="1.0" encoding="UTF-8" standalone="no"?>
<!DOCTYPE svg PUBLIC "-//W3C//DTD SVG 1.1//EN"
 "http://www.w3.org/Graphics/SVG/1.1/DTD/svg11.dtd">
<!-- Generated by graphviz version 13.1.2 (20250809.0930)
 -->
<!-- Title: has_completed Pages: 1 -->
<svg width="1045pt" height="413pt"
 viewBox="0.00 0.00 1045.00 413.00" xmlns="http://www.w3.org/2000/svg" xmlns:xlink="http://www.w3.org/1999/xlink">
<g id="graph0" class="graph" transform="scale(1 1) rotate(0) translate(4 408.5)">
<title>has_completed</title>
<polygon fill="white" stroke="none" points="-4,4 -4,-408.5 1041.25,-408.5 1041.25,4 -4,4"/>
<!-- 107374182409 -->
<g id="node1" class="node">
<title>107374182409</title>
<polygon fill="none" stroke="black" points="357.62,-404.5 253.88,-404.5 253.88,-365 357.62,-365 357.62,-404.5"/>
<text xml:space="preserve" text-anchor="start" x="268.62" y="-387.2" font-family="Times,serif" font-size="14.00">METHOD, 244</text>
<text xml:space="preserve" text-anchor="start" x="261.88" y="-371.45" font-family="Times,serif" font-size="14.00">has_completed</text>
</g>
<!-- 111669149706 -->
<g id="node3" class="node">
<title>111669149706</title>
<polygon fill="none" stroke="black" points="83.5,-313.25 0,-313.25 0,-273.75 83.5,-273.75 83.5,-313.25"/>
<text xml:space="preserve" text-anchor="start" x="8" y="-295.95" font-family="Times,serif" font-size="14.00">PARAM, 244</text>
<text xml:space="preserve" text-anchor="start" x="28.25" y="-280.2" font-family="Times,serif" font-size="14.00">self</text>
</g>
<!-- 107374182409&#45;&gt;111669149706 -->
<g id="edge6" class="edge">
<title>107374182409&#45;&gt;111669149706</title>
<path fill="none" stroke="black" d="M253.65,-369.7C230.63,-363.22 203.33,-355.16 179,-347 150.75,-337.52 119.7,-325.76 94.29,-315.77"/>
<polygon fill="black" stroke="black" points="95.77,-312.59 85.18,-312.17 93.19,-319.1 95.77,-312.59"/>
<text xml:space="preserve" text-anchor="middle" x="195.88" y="-333.7" font-family="Times,serif" font-size="14.00">DDG: </text>
</g>
<!-- 111669149707 -->
<g id="node4" class="node">
<title>111669149707</title>
<polygon fill="none" stroke="black" points="191.88,-313.25 101.62,-313.25 101.62,-273.75 191.88,-273.75 191.88,-313.25"/>
<text xml:space="preserve" text-anchor="start" x="113" y="-295.95" font-family="Times,serif" font-size="14.00">PARAM, 244</text>
<text xml:space="preserve" text-anchor="start" x="109.62" y="-280.2" font-family="Times,serif" font-size="14.00">course_code</text>
</g>
<!-- 107374182409&#45;&gt;111669149707 -->
<g id="edge7" class="edge">
<title>107374182409&#45;&gt;111669149707</title>
<path fill="none" stroke="black" d="M271.64,-364.6C247.96,-351.31 216.19,-333.48 190.62,-319.13"/>
<polygon fill="black" stroke="black" points="192.56,-316.2 182.12,-314.36 189.13,-322.3 192.56,-316.2"/>
<text xml:space="preserve" text-anchor="middle" x="252.64" y="-333.7" font-family="Times,serif" font-size="14.00">DDG: </text>
</g>
<!-- 90194313294 -->
<g id="node5" class="node">
<title>90194313294</title>
<polygon fill="none" stroke="black" points="509.5,-313.25 210,-313.25 210,-273.75 509.5,-273.75 509.5,-313.25"/>
<text xml:space="preserve" text-anchor="start" x="319.25" y="-295.95" font-family="Times,serif" font-size="14.00">LITERAL, 245</text>
<text xml:space="preserve" text-anchor="start" x="218" y="-280.2" font-family="Times,serif" font-size="14.00">&quot;&quot;&quot;Check if student completed a course.&quot;&quot;&quot;</text>
</g>
<!-- 107374182409&#45;&gt;90194313294 -->
<g id="edge8" class="edge">
<title>107374182409&#45;&gt;90194313294</title>
<path fill="none" stroke="black" d="M317.2,-364.82C324.46,-352.83 333.98,-337.09 342.18,-323.54"/>
<polygon fill="black" stroke="black" points="345.16,-325.37 347.34,-315 339.17,-321.75 345.16,-325.37"/>
<text xml:space="preserve" text-anchor="middle" x="352.86" y="-333.7" font-family="Times,serif" font-size="14.00">DDG: </text>
</g>
<!-- 30064771283 -->
<g id="node7" class="node">
<title>30064771283</title>
<polygon fill="none" stroke="black" points="337.62,-222 71.88,-222 71.88,-182.5 337.62,-182.5 337.62,-222"/>
<text xml:space="preserve" text-anchor="start" x="144" y="-204.7" font-family="Times,serif" font-size="14.00">&lt;operator&gt;.in, 246</text>
<text xml:space="preserve" text-anchor="start" x="79.88" y="-188.95" font-family="Times,serif" font-size="14.00">course_code in self.completed_courses</text>
</g>
<!-- 107374182409&#45;&gt;30064771283 -->
<g id="edge11" class="edge">
<title>107374182409&#45;&gt;30064771283</title>
<path fill="none" stroke="black" d="M357.86,-376.78C435.27,-364.29 566.67,-333.62 518.75,-273.75 496.79,-246.31 420.6,-228.82 348.77,-218.12"/>
<polygon fill="black" stroke="black" points="349.65,-214.71 339.25,-216.74 348.64,-221.64 349.65,-214.71"/>
<text xml:space="preserve" text-anchor="middle" x="545.86" y="-288.07" font-family="Times,serif" font-size="14.00">DDG: </text>
</g>
<!-- 124554051593 -->
<g id="node2" class="node">
<title>124554051593</title>
<polygon fill="none" stroke="black" points="273.5,-39.5 136,-39.5 136,0 273.5,0 273.5,-39.5"/>
<text xml:space="preserve" text-anchor="start" x="144" y="-22.2" font-family="Times,serif" font-size="14.00">METHOD_RETURN, 244</text>
<text xml:space="preserve" text-anchor="start" x="157.5" y="-6.45" font-family="Times,serif" font-size="14.00">__builtin.bool</text>
</g>
<!-- 111669149706&#45;&gt;124554051593 -->
<g id="edge2" class="edge">
<title>111669149706&#45;&gt;124554051593</title>
<path fill="none" stroke="black" d="M34.74,-273.46C25.51,-245.52 11.91,-192.04 25,-148.75 39.1,-102.11 46.71,-86.65 85.75,-57.5 97.42,-48.79 111.18,-42.12 125.13,-37.01"/>
<polygon fill="black" stroke="black" points="126.01,-40.41 134.36,-33.9 123.77,-33.78 126.01,-40.41"/>
<text xml:space="preserve" text-anchor="middle" x="55.38" y="-151.2" font-family="Times,serif" font-size="14.00">DDG: self</text>
</g>
<!-- 111669149706&#45;&gt;30064771283 -->
<g id="edge12" class="edge">
<title>111669149706&#45;&gt;30064771283</title>
<path fill="none" stroke="black" d="M62.33,-273.46C74.85,-262.61 91.54,-249.35 108,-240 116.51,-235.16 125.79,-230.72 135.11,-226.72"/>
<polygon fill="black" stroke="black" points="136.3,-230.02 144.22,-222.98 133.64,-223.55 136.3,-230.02"/>
<text xml:space="preserve" text-anchor="middle" x="138.38" y="-242.45" font-family="Times,serif" font-size="14.00">DDG: self</text>
</g>
<!-- 111669149707&#45;&gt;30064771283 -->
<g id="edge10" class="edge">
<title>111669149707&#45;&gt;30064771283</title>
<path fill="none" stroke="black" d="M159.05,-273.57C166.92,-261.47 177.27,-245.53 186.13,-231.9"/>
<polygon fill="black" stroke="black" points="188.93,-234.02 191.44,-223.73 183.06,-230.2 188.93,-234.02"/>
<text xml:space="preserve" text-anchor="middle" x="233.22" y="-242.45" font-family="Times,serif" font-size="14.00">DDG: course_code</text>
</g>
<!-- 141733920777 -->
<g id="node6" class="node">
<title>141733920777</title>
<polygon fill="none" stroke="black" points="1037.25,-130.75 724.25,-130.75 724.25,-91.25 1037.25,-91.25 1037.25,-130.75"/>
<text xml:space="preserve" text-anchor="start" x="843.62" y="-113.45" font-family="Times,serif" font-size="14.00">RETURN, 246</text>
<text xml:space="preserve" text-anchor="start" x="732.25" y="-97.7" font-family="Times,serif" font-size="14.00">return course_code in self.completed_courses</text>
</g>
<!-- 141733920777&#45;&gt;124554051593 -->
<g id="edge1" class="edge">
<title>141733920777&#45;&gt;124554051593</title>
<path fill="none" stroke="black" d="M735.32,-90.8C597.44,-72.6 395.43,-45.92 284.68,-31.3"/>
<polygon fill="black" stroke="black" points="285.47,-27.88 275.1,-30.04 284.56,-34.82 285.47,-27.88"/>
<text xml:space="preserve" text-anchor="middle" x="616.97" y="-59.95" font-family="Times,serif" font-size="14.00">DDG: &lt;RET&gt;</text>
</g>
<!-- 30064771283&#45;&gt;124554051593 -->
<g id="edge3" class="edge">
<title>30064771283&#45;&gt;124554051593</title>
<path fill="none" stroke="black" d="M139.88,-182.15C114.99,-171.3 89.13,-154.91 74.75,-130.75 65.77,-115.66 65.77,-106.34 74.75,-91.25 87.16,-70.4 108.14,-55.33 129.65,-44.62"/>
<polygon fill="black" stroke="black" points="130.93,-47.89 138.51,-40.49 127.97,-41.54 130.93,-47.89"/>
<text xml:space="preserve" text-anchor="middle" x="128.75" y="-105.58" font-family="Times,serif" font-size="14.00">DDG: course_code</text>
</g>
<!-- 30064771283&#45;&gt;124554051593 -->
<g id="edge4" class="edge">
<title>30064771283&#45;&gt;124554051593</title>
<path fill="none" stroke="black" d="M204.75,-182.27C204.75,-150.99 204.75,-88.35 204.75,-50.93"/>
<polygon fill="black" stroke="black" points="208.25,-51.26 204.75,-41.26 201.25,-51.26 208.25,-51.26"/>
<text xml:space="preserve" text-anchor="middle" x="295.88" y="-105.58" font-family="Times,serif" font-size="14.00">DDG: self.completed_courses</text>
</g>
<!-- 30064771283&#45;&gt;124554051593 -->
<g id="edge5" class="edge">
<title>30064771283&#45;&gt;124554051593</title>
<path fill="none" stroke="black" d="M318.1,-182.15C346.42,-171.72 373.58,-155.62 390.75,-130.75 423.69,-83.03 349.06,-52.84 284.74,-36.4"/>
<polygon fill="black" stroke="black" points="285.72,-33.04 275.17,-34.05 284.05,-39.83 285.72,-33.04"/>
<text xml:space="preserve" text-anchor="middle" x="540.55" y="-105.58" font-family="Times,serif" font-size="14.00">DDG: course_code in self.completed_courses</text>
</g>
<!-- 30064771283&#45;&gt;141733920777 -->
<g id="edge9" class="edge">
<title>30064771283&#45;&gt;141733920777</title>
<path fill="none" stroke="black" d="M337.9,-183.67C448.76,-169.03 606.82,-148.17 723.81,-132.72"/>
<polygon fill="black" stroke="black" points="724.05,-136.22 733.5,-131.44 723.13,-129.28 724.05,-136.22"/>
<text xml:space="preserve" text-anchor="middle" x="724.97" y="-151.2" font-family="Times,serif" font-size="14.00">DDG: course_code in self.completed_courses</text>
</g>
</g>
</svg>
