<?xml version="1.0" encoding="UTF-8" standalone="no"?>
<!DOCTYPE svg PUBLIC "-//W3C//DTD SVG 1.1//EN"
 "http://www.w3.org/Graphics/SVG/1.1/DTD/svg11.dtd">
<!-- Generated by graphviz version 13.1.2 (20250809.0930)
 -->
<!-- Title: &lt;lambda&gt;8 Pages: 1 -->
<svg width="871pt" height="413pt"
 viewBox="0.00 0.00 871.00 413.00" xmlns="http://www.w3.org/2000/svg" xmlns:xlink="http://www.w3.org/1999/xlink">
<g id="graph0" class="graph" transform="scale(1 1) rotate(0) translate(4 408.5)">
<title>&lt;lambda&gt;8</title>
<polygon fill="white" stroke="none" points="-4,4 -4,-408.5 867,-408.5 867,4 -4,4"/>
<!-- 107374182496 -->
<g id="node1" class="node">
<title>107374182496</title>
<polygon fill="none" stroke="black" points="97,-404.5 0,-404.5 0,-365 97,-365 97,-404.5"/>
<text xml:space="preserve" text-anchor="start" x="8" y="-387.2" font-family="Times,serif" font-size="14.00">METHOD, 1146</text>
<text xml:space="preserve" text-anchor="start" x="18.12" y="-371.45" font-family="Times,serif" font-size="14.00">&lt;lambda&gt;8</text>
</g>
<!-- 111669149859 -->
<g id="node3" class="node">
<title>111669149859</title>
<polygon fill="none" stroke="black" points="93.62,-313.25 3.38,-313.25 3.38,-273.75 93.62,-273.75 93.62,-313.25"/>
<text xml:space="preserve" text-anchor="start" x="11.38" y="-295.95" font-family="Times,serif" font-size="14.00">PARAM, 1146</text>
<text xml:space="preserve" text-anchor="start" x="45.12" y="-280.2" font-family="Times,serif" font-size="14.00">s</text>
</g>
<!-- 107374182496&#45;&gt;111669149859 -->
<g id="edge6" class="edge">
<title>107374182496&#45;&gt;111669149859</title>
<path fill="none" stroke="black" d="M48.5,-364.82C48.5,-353.3 48.5,-338.32 48.5,-325.15"/>
<polygon fill="black" stroke="black" points="52,-325.22 48.5,-315.22 45,-325.22 52,-325.22"/>
<text xml:space="preserve" text-anchor="middle" x="65.38" y="-333.7" font-family="Times,serif" font-size="14.00">DDG: </text>
</g>
<!-- 124554051680 -->
<g id="node2" class="node">
<title>124554051680</title>
<polygon fill="none" stroke="black" points="297.62,-39.5 153.38,-39.5 153.38,0 297.62,0 297.62,-39.5"/>
<text xml:space="preserve" text-anchor="start" x="161.38" y="-22.2" font-family="Times,serif" font-size="14.00">METHOD_RETURN, 1146</text>
<text xml:space="preserve" text-anchor="start" x="215.38" y="-6.45" font-family="Times,serif" font-size="14.00">ANY</text>
</g>
<!-- 111669149859&#45;&gt;124554051680 -->
<g id="edge2" class="edge">
<title>111669149859&#45;&gt;124554051680</title>
<path fill="none" stroke="black" d="M46.9,-273.26C44.27,-227.18 44.92,-110.42 112.5,-57.5 121.49,-50.46 131.86,-44.75 142.61,-40.12"/>
<polygon fill="black" stroke="black" points="143.59,-43.5 151.59,-36.56 141.01,-36.99 143.59,-43.5"/>
<text xml:space="preserve" text-anchor="middle" x="77.85" y="-151.2" font-family="Times,serif" font-size="14.00">DDG: s</text>
</g>
<!-- 30064773340 -->
<g id="node5" class="node">
<title>30064773340</title>
<polygon fill="none" stroke="black" points="331.38,-222 119.62,-222 119.62,-182.5 331.38,-182.5 331.38,-222"/>
<text xml:space="preserve" text-anchor="start" x="127.62" y="-204.7" font-family="Times,serif" font-size="14.00">&lt;operator&gt;.tupleLiteral, 1146</text>
<text xml:space="preserve" text-anchor="start" x="137.75" y="-188.95" font-family="Times,serif" font-size="14.00">(s.semester, s.section_id)</text>
</g>
<!-- 111669149859&#45;&gt;30064773340 -->
<g id="edge8" class="edge">
<title>111669149859&#45;&gt;30064773340</title>
<path fill="none" stroke="black" d="M86.47,-273.35C113.07,-259.94 148.82,-241.91 177.41,-227.5"/>
<polygon fill="black" stroke="black" points="178.89,-230.67 186.24,-223.05 175.74,-224.42 178.89,-230.67"/>
<text xml:space="preserve" text-anchor="middle" x="167.85" y="-242.45" font-family="Times,serif" font-size="14.00">DDG: s</text>
</g>
<!-- 141733920910 -->
<g id="node4" class="node">
<title>141733920910</title>
<polygon fill="none" stroke="black" points="863,-130.75 604,-130.75 604,-91.25 863,-91.25 863,-130.75"/>
<text xml:space="preserve" text-anchor="start" x="693" y="-113.45" font-family="Times,serif" font-size="14.00">RETURN, 1146</text>
<text xml:space="preserve" text-anchor="start" x="612" y="-97.7" font-family="Times,serif" font-size="14.00">lambda s: (s.semester, s.section_id)</text>
</g>
<!-- 141733920910&#45;&gt;124554051680 -->
<g id="edge1" class="edge">
<title>141733920910&#45;&gt;124554051680</title>
<path fill="none" stroke="black" d="M624.21,-90.8C529.74,-74.2 395.2,-50.56 309.11,-35.44"/>
<polygon fill="black" stroke="black" points="309.76,-32 299.31,-33.72 308.55,-38.9 309.76,-32"/>
<text xml:space="preserve" text-anchor="middle" x="543.66" y="-59.95" font-family="Times,serif" font-size="14.00">DDG: &lt;RET&gt;</text>
</g>
<!-- 30064773340&#45;&gt;124554051680 -->
<g id="edge3" class="edge">
<title>30064773340&#45;&gt;124554051680</title>
<path fill="none" stroke="black" d="M165.53,-182.09C141.42,-171.11 116.1,-154.63 102.25,-130.75 93.44,-115.56 93.44,-106.44 102.25,-91.25 114.15,-70.73 134.53,-55.67 155.32,-44.87"/>
<polygon fill="black" stroke="black" points="156.71,-48.09 164.17,-40.57 153.64,-41.79 156.71,-48.09"/>
<text xml:space="preserve" text-anchor="middle" x="152.88" y="-105.58" font-family="Times,serif" font-size="14.00">DDG: s.semester</text>
</g>
<!-- 30064773340&#45;&gt;124554051680 -->
<g id="edge4" class="edge">
<title>30064773340&#45;&gt;124554051680</title>
<path fill="none" stroke="black" d="M225.5,-182.27C225.5,-150.99 225.5,-88.35 225.5,-50.93"/>
<polygon fill="black" stroke="black" points="229,-51.26 225.5,-41.26 222,-51.26 229,-51.26"/>
<text xml:space="preserve" text-anchor="middle" x="282.88" y="-105.58" font-family="Times,serif" font-size="14.00">DDG: s.section_id</text>
</g>
<!-- 30064773340&#45;&gt;124554051680 -->
<g id="edge5" class="edge">
<title>30064773340&#45;&gt;124554051680</title>
<path fill="none" stroke="black" d="M282.52,-182.05C306.09,-170.97 331.01,-154.43 344.5,-130.75 353.19,-115.5 353.19,-106.5 344.5,-91.25 332.96,-70.99 313.05,-55.96 292.79,-45.1"/>
<polygon fill="black" stroke="black" points="294.38,-41.99 283.88,-40.63 291.24,-48.25 294.38,-41.99"/>
<text xml:space="preserve" text-anchor="middle" x="455.64" y="-105.58" font-family="Times,serif" font-size="14.00">DDG: (s.semester, s.section_id)</text>
</g>
<!-- 30064773340&#45;&gt;141733920910 -->
<g id="edge7" class="edge">
<title>30064773340&#45;&gt;141733920910</title>
<path fill="none" stroke="black" d="M331.68,-182.59C413.66,-168.19 527.15,-148.25 612.61,-133.24"/>
<polygon fill="black" stroke="black" points="613.21,-136.69 622.46,-131.51 612,-129.79 613.21,-136.69"/>
<text xml:space="preserve" text-anchor="middle" x="614.54" y="-151.2" font-family="Times,serif" font-size="14.00">DDG: (s.semester, s.section_id)</text>
</g>
</g>
</svg>
