<?xml version="1.0" encoding="UTF-8" standalone="no"?>
<!DOCTYPE svg PUBLIC "-//W3C//DTD SVG 1.1//EN"
 "http://www.w3.org/Graphics/SVG/1.1/DTD/svg11.dtd">
<!-- Generated by graphviz version 13.1.2 (20250809.0930)
 -->
<!-- Title: &lt;metaClassCallHandler&gt; Pages: 1 -->
<svg width="892pt" height="321pt"
 viewBox="0.00 0.00 892.00 321.00" xmlns="http://www.w3.org/2000/svg" xmlns:xlink="http://www.w3.org/1999/xlink">
<g id="graph0" class="graph" transform="scale(1 1) rotate(0) translate(4 317.25)">
<title>&lt;metaClassCallHandler&gt;</title>
<polygon fill="white" stroke="none" points="-4,4 -4,-317.25 887.5,-317.25 887.5,4 -4,4"/>
<!-- 107374182499 -->
<g id="node1" class="node">
<title>107374182499</title>
<polygon fill="none" stroke="black" points="259,-313.25 94.5,-313.25 94.5,-273.75 259,-273.75 259,-313.25"/>
<text xml:space="preserve" text-anchor="start" x="139.62" y="-295.95" font-family="Times,serif" font-size="14.00">METHOD, 409</text>
<text xml:space="preserve" text-anchor="start" x="102.5" y="-280.2" font-family="Times,serif" font-size="14.00">&lt;metaClassCallHandler&gt;</text>
</g>
<!-- 30064773377 -->
<g id="node4" class="node">
<title>30064773377</title>
<polygon fill="none" stroke="black" points="343.38,-222 10.12,-222 10.12,-182.5 343.38,-182.5 343.38,-222"/>
<text xml:space="preserve" text-anchor="start" x="159.88" y="-204.7" font-family="Times,serif" font-size="14.00">, 409</text>
<text xml:space="preserve" text-anchor="start" x="18.12" y="-188.95" font-family="Times,serif" font-size="14.00">class RegistrationSystem&lt;meta&gt;(...).&lt;fakeNew&gt;()</text>
</g>
<!-- 107374182499&#45;&gt;30064773377 -->
<g id="edge4" class="edge">
<title>107374182499&#45;&gt;30064773377</title>
<path fill="none" stroke="black" d="M176.75,-273.57C176.75,-262.05 176.75,-247.07 176.75,-233.9"/>
<polygon fill="black" stroke="black" points="180.25,-233.97 176.75,-223.97 173.25,-233.97 180.25,-233.97"/>
<text xml:space="preserve" text-anchor="middle" x="193.62" y="-242.45" font-family="Times,serif" font-size="14.00">DDG: </text>
</g>
<!-- 124554051683 -->
<g id="node2" class="node">
<title>124554051683</title>
<polygon fill="none" stroke="black" points="353.5,-39.5 0,-39.5 0,0 353.5,0 353.5,-39.5"/>
<text xml:space="preserve" text-anchor="start" x="116" y="-22.2" font-family="Times,serif" font-size="14.00">METHOD_RETURN, 409</text>
<text xml:space="preserve" text-anchor="start" x="8" y="-6.45" font-family="Times,serif" font-size="14.00">AI_generated_code_1.py:&lt;module&gt;.RegistrationSystem</text>
</g>
<!-- 141733920913 -->
<g id="node3" class="node">
<title>141733920913</title>
<polygon fill="none" stroke="black" points="883.5,-130.75 530,-130.75 530,-91.25 883.5,-91.25 883.5,-130.75"/>
<text xml:space="preserve" text-anchor="start" x="669.62" y="-113.45" font-family="Times,serif" font-size="14.00">RETURN, 409</text>
<text xml:space="preserve" text-anchor="start" x="538" y="-97.7" font-family="Times,serif" font-size="14.00">return class RegistrationSystem&lt;meta&gt;(...).&lt;fak...</text>
</g>
<!-- 141733920913&#45;&gt;124554051683 -->
<g id="edge1" class="edge">
<title>141733920913&#45;&gt;124554051683</title>
<path fill="none" stroke="black" d="M592.73,-90.8C507.24,-76.4 390.3,-56.71 302.18,-41.87"/>
<polygon fill="black" stroke="black" points="302.97,-38.46 292.53,-40.25 301.81,-45.36 302.97,-38.46"/>
<text xml:space="preserve" text-anchor="middle" x="507.23" y="-59.95" font-family="Times,serif" font-size="14.00">DDG: &lt;RET&gt;</text>
</g>
<!-- 30064773377&#45;&gt;124554051683 -->
<g id="edge2" class="edge">
<title>30064773377&#45;&gt;124554051683</title>
<path fill="none" stroke="black" d="M174.34,-182.14C172.67,-167.98 170.61,-148.19 169.75,-130.75 168.88,-113.22 168.88,-108.78 169.75,-91.25 170.4,-78.03 171.75,-63.47 173.08,-51.03"/>
<polygon fill="black" stroke="black" points="176.53,-51.69 174.17,-41.37 169.57,-50.91 176.53,-51.69"/>
<text xml:space="preserve" text-anchor="middle" x="345.25" y="-105.58" font-family="Times,serif" font-size="14.00">DDG: class RegistrationSystem&lt;meta&gt;(...).&lt;fakeNew&gt;()</text>
</g>
<!-- 30064773377&#45;&gt;141733920913 -->
<g id="edge3" class="edge">
<title>30064773377&#45;&gt;141733920913</title>
<path fill="none" stroke="black" d="M290.77,-182.05C376.26,-167.65 493.2,-147.96 581.32,-133.12"/>
<polygon fill="black" stroke="black" points="581.69,-136.61 590.97,-131.5 580.53,-129.71 581.69,-136.61"/>
<text xml:space="preserve" text-anchor="middle" x="648.98" y="-151.2" font-family="Times,serif" font-size="14.00">DDG: class RegistrationSystem&lt;meta&gt;(...).&lt;fakeNew&gt;()</text>
</g>
</g>
</svg>
